<?xml version="1.0" standalone="no"?>
<!DOCTYPE svg PUBLIC "-//W3C//DTD SVG 20010904//EN"
 "http://www.w3.org/TR/2001/REC-SVG-20010904/DTD/svg10.dtd">
<svg version="1.0" xmlns="http://www.w3.org/2000/svg"
 width="2084.000000pt" height="2084.000000pt" viewBox="0 0 2084.000000 2084.000000"
 preserveAspectRatio="xMidYMid meet">
<metadata>
Created by potrace 1.14, written by Peter Selinger 2001-2017
</metadata>
<g transform="translate(0.000000,2084.000000) scale(0.100000,-0.100000)"
fill="#000000" stroke="none">
<path d="M7775 11310 c-1418 -1418 -2576 -2582 -2573 -2585 6 -7 1153 -315
1179 -318 9 0 856 224 1883 498 l1866 500 0 558 c0 527 -1 558 -17 553 -67
-21 -2186 -586 -2189 -583 -2 1 543 549 1211 1217 l1215 1215 0 -1833 c0
-1007 3 -1832 8 -1832 4 0 244 237 535 528 l527 527 0 1540 0 1540 -528 528
c-290 290 -529 527 -532 527 -3 0 -1166 -1161 -2585 -2580z"/>
<path d="M12172 13357 l-532 -532 0 -1525 0 -1525 540 -540 540 -540 0 1835 0
1835 868 -867 867 -867 570 153 c314 84 583 156 599 160 29 7 -12 49 -1440
1477 -808 808 -1471 1469 -1474 1469 -3 0 -245 -240 -538 -533z"/>
<path d="M15410 8200 c0 -36 -2 -40 -25 -40 -23 0 -25 -4 -25 -45 0 -45 0 -45
35 -45 35 0 35 0 35 45 0 25 5 45 10 45 6 0 10 -20 10 -45 l0 -45 40 0 40 0 0
45 c0 41 -2 45 -25 45 -22 0 -25 4 -25 40 0 39 -1 40 -35 40 -34 0 -35 -1 -35
-40z"/>
<path d="M11222 8167 c-8 -9 -10 -26 -6 -41 7 -28 14 -32 31 -15 9 9 20 9 44
0 72 -25 112 -9 102 42 -4 21 -9 26 -22 21 -17 -7 -20 -7 -92 2 -33 4 -48 2
-57 -9z"/>
<path d="M14549 8128 c-17 -24 -42 -65 -55 -91 l-25 -48 21 -29 c21 -29 23
-30 110 -30 113 0 131 -12 138 -93 l4 -57 -171 0 -171 0 0 119 0 120 -56 7
c-77 9 -183 0 -220 -19 -16 -8 -35 -27 -42 -42 -18 -38 -15 -170 4 -206 28
-56 50 -59 414 -59 l330 0 0 102 c0 81 -4 110 -20 143 -26 53 -53 65 -145 65
-41 0 -75 2 -75 5 0 3 16 31 36 62 19 30 34 56 32 58 -7 6 -67 35 -72 35 -3 0
-20 -19 -37 -42z m-239 -269 l0 -82 -57 7 c-68 7 -93 30 -93 82 0 52 28 74 95
74 l55 0 0 -81z"/>
<path d="M8480 8115 c0 -45 0 -45 35 -45 35 0 35 0 35 45 0 45 0 45 -35 45
-35 0 -35 0 -35 -45z"/>
<path d="M8580 8115 c0 -45 0 -45 35 -45 35 0 35 0 35 45 0 45 0 45 -35 45
-35 0 -35 0 -35 -45z"/>
<path d="M9140 8115 l0 -45 45 0 45 0 0 45 0 45 -45 0 -45 0 0 -45z"/>
<path d="M9460 8115 c0 -45 0 -45 35 -45 35 0 35 0 35 45 0 45 0 45 -35 45
-35 0 -35 0 -35 -45z"/>
<path d="M9550 8115 l0 -45 40 0 40 0 0 45 0 45 -40 0 -40 0 0 -45z"/>
<path d="M9780 8115 l0 -45 40 0 40 0 0 45 0 45 -40 0 -40 0 0 -45z"/>
<path d="M9880 8115 c0 -45 0 -45 35 -45 35 0 35 0 35 45 0 45 0 45 -35 45
-35 0 -35 0 -35 -45z"/>
<path d="M13280 8115 l0 -45 40 0 40 0 0 45 0 45 -40 0 -40 0 0 -45z"/>
<path d="M13380 8115 c0 -45 0 -45 35 -45 35 0 35 0 35 45 0 45 0 45 -35 45
-35 0 -35 0 -35 -45z"/>
<path d="M14160 8115 l0 -45 40 0 40 0 0 45 0 45 -40 0 -40 0 0 -45z"/>
<path d="M14260 8115 l0 -45 40 0 40 0 0 45 0 45 -40 0 -40 0 0 -45z"/>
<path d="M5740 7925 l0 -225 275 0 275 0 0 118 c0 127 -7 152 -53 186 -23 17
-43 21 -105 21 -109 0 -129 -7 -141 -53 -6 -20 -11 -72 -11 -114 l0 -78 -70 0
-70 0 0 185 0 185 -50 0 -50 0 0 -225z m435 1 c14 -10 20 -30 23 -80 l4 -67
-63 3 -64 3 -3 64 c-2 35 -1 70 2 77 7 18 76 18 101 0z"/>
<path d="M6780 7965 l0 -185 -70 0 -70 0 0 119 c0 139 9 131 -136 131 -77 0
-95 -3 -117 -20 -32 -25 -47 -75 -47 -153 0 -112 41 -157 145 -157 46 0 55 -3
55 -18 0 -10 -6 -26 -14 -37 -11 -16 -22 -17 -75 -12 l-61 7 0 -44 0 -44 63
-6 c103 -11 148 15 173 100 l15 53 242 5 c133 3 253 5 267 5 14 0 208 -2 433
-5 l407 -5 0 226 0 225 -50 0 -50 0 0 -185 0 -185 -48 0 c-67 0 -79 13 -85 92
-7 80 -25 120 -63 137 -44 20 -115 24 -177 12 -54 -12 -57 -14 -64 -49 -4 -20
-8 -72 -8 -114 l0 -78 -85 0 c-105 0 -120 8 -84 41 33 30 54 78 54 124 0 33
-4 38 -47 58 -38 17 -67 22 -133 22 -110 0 -180 -28 -180 -72 0 -50 19 -98 50
-128 39 -37 27 -45 -67 -45 l-73 0 0 185 0 185 -50 0 -50 0 0 -185z m-240
-101 l0 -86 -37 7 c-54 9 -68 27 -67 82 1 54 28 83 75 83 l29 0 0 -86z m680
66 c13 -8 13 -12 0 -36 -8 -15 -27 -36 -42 -47 -28 -21 -28 -21 -54 -1 -14 10
-33 32 -42 47 -15 24 -15 29 -2 37 20 13 121 12 140 0z m424 -12 c10 -14 16
-44 16 -80 l0 -58 -59 0 -59 0 -7 40 c-4 22 -4 58 0 80 7 40 7 40 50 40 34 0
47 -5 59 -22z"/>
<path d="M8080 7925 l0 -225 45 0 45 0 0 225 0 225 -45 0 -45 0 0 -225z"/>
<path d="M10070 7965 l0 -185 -80 0 -80 0 0 120 0 120 -45 0 -45 0 0 -120 0
-120 -75 0 -74 0 -3 118 -3 117 -95 3 c-156 4 -205 -38 -197 -170 l4 -68 -73
0 -74 0 0 120 0 120 -45 0 -45 0 0 -120 0 -120 -90 0 -90 0 0 120 0 120 -50 0
-50 0 0 -120 0 -120 -70 0 -70 0 0 119 0 119 -66 7 c-89 10 -188 1 -220 -20
-39 -25 -57 -78 -52 -157 4 -73 24 -112 69 -135 18 -10 219 -13 872 -13 l847
0 0 225 0 225 -50 0 -50 0 0 -185z m-1450 -105 l0 -80 -28 0 c-38 0 -94 17
-104 32 -14 23 -9 91 9 110 12 13 30 18 70 18 l53 0 0 -80z m960 0 l0 -80 -50
0 c-57 0 -64 11 -58 91 3 48 27 69 81 69 l27 0 0 -80z"/>
<path d="M11020 7964 l0 -186 -127 4 c-71 3 -136 8 -145 12 -13 6 -22 -1 -37
-25 -25 -40 -15 -57 40 -65 29 -5 39 -11 39 -25 0 -40 -26 -49 -141 -49 -163
0 -188 19 -176 135 l5 53 -41 4 c-23 3 -45 0 -49 -5 -3 -6 -9 -41 -13 -79 -9
-87 11 -131 76 -168 39 -22 58 -25 173 -29 78 -2 145 1 167 8 47 14 87 61 95
112 l7 39 108 0 109 0 0 225 0 225 -45 0 -45 0 0 -186z"/>
<path d="M11420 7965 l0 -185 -35 0 -35 0 0 140 0 140 -50 0 -50 0 0 -140 0
-140 -35 0 c-34 0 -35 -1 -35 -40 l0 -40 170 0 170 0 0 225 0 225 -50 0 -50 0
0 -185z"/>
<path d="M11600 7925 l0 -225 50 0 50 0 0 225 0 225 -50 0 -50 0 0 -225z"/>
<path d="M12180 7915 c0 -221 -1 -236 -20 -255 -39 -39 -102 -38 -142 2 -19
19 -20 28 -14 97 3 42 9 86 12 99 6 20 3 22 -39 22 -56 0 -57 -4 -64 -137 l-6
-103 39 -39 c66 -66 181 -79 260 -30 62 38 64 50 64 329 l0 250 -45 0 -45 0 0
-235z"/>
<path d="M12710 7925 l0 -225 50 0 50 0 0 225 0 225 -50 0 -50 0 0 -225z"/>
<path d="M13580 7965 l0 -185 -80 0 -80 0 0 120 0 120 -50 0 -50 0 0 -120 0
-120 -75 0 -75 0 0 55 c0 137 -83 216 -210 199 l-50 -7 0 -38 0 -39 43 0 c80
0 127 -52 127 -142 l0 -28 -100 0 -100 0 0 -40 0 -40 395 0 395 0 0 225 0 225
-45 0 -45 0 0 -185z"/>
<path d="M13760 7925 l0 -225 50 0 50 0 0 225 0 225 -50 0 -50 0 0 -225z"/>
<path d="M5350 8055 c0 -45 0 -45 35 -45 35 0 35 0 35 45 0 45 0 45 -35 45
-35 0 -35 0 -35 -45z"/>
<path d="M5440 8055 l0 -45 40 0 40 0 0 45 0 45 -40 0 -40 0 0 -45z"/>
<path d="M12385 8006 c-32 -32 -48 -98 -42 -172 8 -101 43 -134 142 -134 51 0
55 -2 55 -24 0 -39 -23 -49 -90 -42 l-60 7 0 -44 0 -45 68 -7 c73 -7 107 1
135 33 38 42 46 90 47 268 0 201 13 184 -138 184 -85 0 -95 -2 -117 -24z m165
-142 l0 -87 -42 7 c-58 9 -68 21 -68 77 0 61 24 89 75 89 l35 0 0 -86z"/>
<path d="M5560 7900 l0 -120 -87 0 c-103 1 -163 12 -180 36 -8 11 -10 36 -6
75 l6 59 -40 0 c-37 0 -41 -2 -47 -31 -12 -60 -7 -144 10 -168 31 -43 70 -51
264 -51 l180 0 0 160 0 160 -50 0 -50 0 0 -120z"/>
<path d="M14950 7844 c0 -102 -4 -183 -10 -195 -6 -11 -21 -19 -35 -19 -23 0
-25 -4 -25 -45 l0 -45 38 0 c20 0 48 6 62 13 31 15 60 71 60 114 l0 32 198 4
c108 3 202 5 207 5 6 0 55 -2 109 -5 l99 -4 -6 143 c-3 79 -8 151 -12 161 -5
12 -18 17 -46 17 l-39 0 0 -121 c0 -121 0 -121 -22 -115 -13 3 -26 6 -30 6 -5
0 -8 45 -8 100 l0 100 -44 0 -44 0 -3 -86 c-4 -76 -7 -88 -28 -105 -13 -10
-27 -19 -32 -19 -5 0 -9 47 -9 105 l0 105 -50 0 -50 0 0 -105 0 -105 -95 0
-95 0 0 120 0 120 -45 0 -45 0 0 -176z"/>
<path d="M8830 7615 c0 -45 0 -45 35 -45 35 0 35 0 35 45 0 45 0 45 -35 45
-35 0 -35 0 -35 -45z"/>
<path d="M8920 7615 l0 -45 40 0 40 0 0 45 0 45 -40 0 -40 0 0 -45z"/>
<path d="M10550 7465 l0 -45 40 0 40 0 0 45 0 45 -40 0 -40 0 0 -45z"/>
<path d="M10650 7465 c0 -45 0 -45 35 -45 35 0 35 0 35 45 0 45 0 45 -35 45
-35 0 -35 0 -35 -45z"/>
<path d="M8410 7380 l0 -50 -51 0 c-43 0 -55 -5 -80 -29 -27 -27 -29 -35 -29
-100 0 -38 5 -81 11 -95 16 -33 59 -50 106 -41 21 5 50 7 66 6 l27 -3 0 181 0
181 -25 0 c-23 0 -25 -3 -25 -50z m-16 -96 c13 -5 16 -22 16 -84 0 -84 -4 -90
-60 -90 -40 0 -54 24 -54 88 1 45 6 59 24 74 23 19 47 22 74 12z"/>
<path d="M10930 7380 l0 -50 -39 0 c-61 0 -90 -15 -108 -57 -22 -53 -13 -157
16 -186 21 -21 23 -21 144 -18 l37 1 0 180 0 180 -25 0 c-23 0 -25 -3 -25 -50z
m-16 -96 c13 -5 16 -22 16 -84 0 -85 -4 -90 -61 -90 -33 0 -49 27 -49 85 0 74
38 110 94 89z"/>
<path d="M5282 7388 c-20 -64 -82 -295 -82 -306 0 -7 10 -12 23 -12 19 0 25 8
35 45 l12 46 67 -3 67 -3 12 -40 c8 -32 16 -41 37 -43 l26 -3 -26 93 c-14 51
-35 129 -47 173 l-22 80 -46 3 c-44 3 -47 2 -56 -30z m87 -101 c12 -42 21 -79
21 -82 0 -3 -25 -5 -56 -5 -48 0 -55 2 -50 18 38 133 49 163 56 156 4 -5 17
-44 29 -87z"/>
<path d="M9760 7400 c0 -17 7 -20 50 -20 l50 0 0 -155 0 -155 25 0 25 0 0 155
0 155 50 0 c43 0 50 3 50 20 0 19 -7 20 -125 20 -118 0 -125 -1 -125 -20z"/>
<path d="M11160 7395 c0 -20 5 -25 25 -25 20 0 25 5 25 25 0 20 -5 25 -25 25
-20 0 -25 -5 -25 -25z"/>
<path d="M6030 7360 c0 -33 -3 -40 -20 -40 -13 0 -20 -7 -20 -20 0 -13 7 -20
20 -20 19 0 20 -7 20 -90 0 -77 3 -93 20 -110 32 -32 110 -25 110 10 0 14 -9
20 -37 22 l-38 3 -3 83 -3 82 36 0 c28 0 35 4 35 20 0 16 -7 20 -35 20 -34 0
-35 1 -35 40 0 36 -2 40 -25 40 -22 0 -25 -4 -25 -40z"/>
<path d="M7610 7360 c0 -33 -3 -40 -20 -40 -13 0 -20 -7 -20 -20 0 -13 7 -20
20 -20 19 0 20 -7 20 -94 0 -87 2 -96 22 -110 39 -27 98 -18 98 15 0 15 -7 19
-34 19 -41 0 -46 10 -46 101 l0 69 40 0 c33 0 40 3 40 20 0 17 -7 20 -40 20
l-40 0 0 40 c0 33 -3 40 -20 40 -17 0 -20 -7 -20 -40z"/>
<path d="M6350 7318 c-13 -7 -30 -25 -37 -38 -17 -34 -16 -135 2 -170 18 -35
71 -54 124 -45 63 10 76 33 76 131 0 72 -3 86 -22 105 -26 27 -106 36 -143 17z
m100 -48 c15 -15 20 -33 20 -71 0 -71 -12 -89 -60 -89 -48 0 -60 18 -60 89 0
56 23 91 60 91 11 0 29 -9 40 -20z"/>
<path d="M6733 7323 l-43 -4 0 -125 0 -124 25 0 c25 0 25 0 25 99 0 55 3 102
8 104 24 14 61 15 78 3 16 -12 20 -30 22 -110 4 -86 6 -96 23 -96 17 0 19 8
19 99 0 55 3 102 8 104 30 17 63 16 82 -3 17 -17 20 -33 20 -110 0 -89 0 -90
25 -90 25 0 25 1 25 78 -1 94 -13 152 -37 170 -13 10 -33 12 -68 7 -56 -7 -72
-7 -130 -2 -22 3 -59 2 -82 0z"/>
<path d="M7243 7323 c-15 -3 -23 -12 -23 -25 0 -19 4 -20 56 -13 59 7 84 -3
84 -35 0 -18 -35 -30 -86 -30 -64 0 -89 -99 -36 -140 23 -18 34 -21 72 -15 53
9 66 9 103 -1 23 -5 27 -3 27 15 0 12 -7 24 -15 27 -12 5 -15 25 -15 91 0 76
-2 86 -25 108 -19 20 -33 25 -72 24 -26 -1 -58 -4 -70 -6z m115 -170 c-3 -33
-7 -38 -35 -44 -41 -8 -66 9 -61 41 3 24 28 37 76 39 21 1 23 -3 20 -36z"/>
<path d="M7913 7306 c-25 -22 -28 -31 -31 -103 -3 -67 -1 -82 17 -105 26 -32
65 -42 131 -33 40 6 50 11 50 26 0 17 -8 19 -64 19 -66 0 -78 6 -90 48 -7 22
-6 22 78 22 l86 0 0 30 c0 42 -24 96 -48 109 -37 20 -98 13 -129 -13z m107
-36 c37 -37 26 -50 -39 -50 -55 0 -59 2 -54 20 6 22 39 50 60 50 7 0 22 -9 33
-20z"/>
<path d="M10203 7315 c-18 -8 -33 -10 -33 -5 0 6 -11 10 -25 10 l-25 0 0 -125
0 -125 25 0 c24 0 24 2 27 93 l3 92 43 15 c33 11 42 19 42 37 0 26 -12 28 -57
8z"/>
<path d="M10433 7323 c-15 -3 -23 -12 -23 -25 0 -19 4 -20 56 -13 59 7 84 -3
84 -35 0 -18 -35 -30 -86 -30 -36 0 -64 -34 -64 -78 0 -71 23 -83 145 -73 17
2 42 0 58 -4 23 -6 27 -4 27 14 0 12 -7 24 -15 27 -12 5 -15 25 -15 91 0 76
-2 86 -25 108 -19 20 -33 25 -72 24 -26 -1 -58 -4 -70 -6z m115 -170 c-3 -34
-6 -38 -38 -44 -42 -9 -62 5 -58 40 3 26 26 38 76 40 21 1 23 -3 20 -36z"/>
<path d="M11433 7323 l-43 -4 0 -125 0 -124 25 0 c25 0 25 0 25 99 0 55 3 102
8 104 4 3 21 8 38 11 53 12 64 -10 64 -120 l0 -94 26 0 26 0 -4 111 c-3 102
-5 113 -27 130 -23 19 -42 20 -138 12z"/>
<path d="M11795 7305 c-29 -28 -34 -88 -11 -120 15 -23 14 -91 -3 -108 -12
-12 -15 -76 -3 -94 19 -30 103 -42 161 -22 37 13 51 35 51 81 0 52 -13 62 -82
68 -49 4 -64 9 -66 23 -3 13 3 17 28 17 50 0 87 24 94 63 4 19 4 42 0 51 -4
12 0 16 15 16 15 0 21 6 21 23 0 21 -4 22 -90 25 -85 2 -92 0 -115 -23z m109
-31 c9 -8 16 -24 16 -34 0 -22 -26 -50 -46 -50 -46 0 -73 57 -42 88 17 17 54
15 72 -4z m34 -236 c3 -22 -2 -30 -23 -38 -38 -14 -60 -12 -85 8 -20 16 -21
21 -11 41 11 19 19 22 64 19 48 -3 52 -5 55 -30z"/>
<path d="M13093 7306 c-27 -23 -28 -29 -28 -109 0 -69 4 -89 19 -105 23 -26
65 -36 116 -27 30 5 40 11 40 26 0 16 -8 19 -55 19 -64 0 -75 12 -75 87 0 70
17 88 79 86 43 -1 51 2 51 17 0 39 -104 43 -147 6z"/>
<path d="M13442 7320 c-47 -19 -68 -133 -38 -204 17 -41 67 -61 125 -51 63 10
76 33 76 132 0 80 -1 86 -28 109 -30 26 -90 32 -135 14z m96 -46 c19 -13 22
-24 22 -78 0 -72 -10 -86 -62 -86 -46 0 -58 19 -58 89 0 78 45 113 98 75z"/>
<path d="M13823 7323 l-43 -4 0 -125 0 -124 25 0 c25 0 25 0 25 99 0 55 3 102
8 104 30 17 63 16 82 -3 17 -17 20 -33 20 -110 0 -83 1 -90 20 -90 19 0 20 7
20 99 0 55 3 102 8 104 30 17 63 16 82 -3 17 -17 20 -33 20 -110 0 -89 0 -90
25 -90 25 0 25 1 25 83 0 149 -23 185 -109 172 -50 -7 -66 -7 -126 -2 -22 3
-59 2 -82 0z"/>
<path d="M14382 7321 c-7 -4 -24 -6 -38 -3 l-24 4 0 -181 c0 -174 1 -181 20
-181 17 0 20 7 20 53 l0 52 56 0 c48 0 59 4 79 27 44 51 41 183 -6 221 -22 18
-84 23 -107 8z m89 -79 c12 -32 6 -96 -11 -117 -8 -9 -30 -15 -56 -15 l-44 0
0 80 0 79 33 9 c40 11 65 0 78 -36z"/>
<path d="M14718 7323 c-10 -2 -18 -14 -18 -25 0 -19 4 -20 51 -14 55 7 79 -3
79 -34 0 -14 -13 -20 -62 -29 -37 -6 -68 -18 -75 -28 -22 -29 -16 -81 13 -110
23 -23 30 -25 72 -18 61 9 71 10 105 0 23 -6 27 -4 27 14 0 12 -7 24 -15 27
-12 5 -15 25 -15 95 0 112 -13 130 -92 128 -29 -1 -61 -3 -70 -6z m110 -170
c-3 -33 -7 -38 -35 -44 -44 -9 -68 9 -59 44 6 25 21 33 74 36 21 1 23 -3 20
-36z"/>
<path d="M15136 7323 c-4 -4 -22 -6 -41 -5 l-35 3 0 -126 0 -125 25 0 c25 0
25 0 25 99 l0 99 35 12 c25 8 40 8 55 0 18 -10 20 -20 20 -110 0 -100 0 -100
25 -100 l25 0 0 105 c0 99 -2 107 -25 130 -17 18 -35 25 -63 25 -21 0 -42 -3
-46 -7z"/>
<path d="M5630 7230 c0 -144 31 -185 123 -164 17 4 44 6 60 5 l27 -3 0 126 0
126 -25 0 c-25 0 -25 0 -25 -99 0 -107 -2 -111 -59 -111 -44 0 -51 16 -51 117
0 93 0 93 -25 93 -25 0 -25 -1 -25 -90z"/>
<path d="M11160 7195 l0 -125 25 0 25 0 0 125 0 125 -25 0 -25 0 0 -125z"/>
<path d="M15458 7196 c28 -100 39 -126 53 -126 17 0 17 -3 4 -47 -19 -62 -19
-63 8 -63 22 0 27 13 72 168 26 92 50 173 52 180 3 7 -4 12 -21 12 -23 0 -27
-7 -46 -72 -38 -130 -43 -144 -48 -128 -3 8 -17 56 -32 105 -23 81 -28 90 -52
93 l-25 3 35 -125z"/>
</g>
</svg>
