<?xml version="1.0" standalone="no"?>
<!DOCTYPE svg PUBLIC "-//W3C//DTD SVG 20010904//EN"
 "http://www.w3.org/TR/2001/REC-SVG-20010904/DTD/svg10.dtd">
<svg version="1.0" xmlns="http://www.w3.org/2000/svg"
 width="700.000000pt" height="700.000000pt" viewBox="0 0 700.000000 700.000000"
 preserveAspectRatio="xMidYMid meet">
<metadata>
Created by potrace 1.14, written by Peter Selinger 2001-2017
</metadata>
<g transform="translate(0.000000,700.000000) scale(0.100000,-0.100000)"
fill="#000000" stroke="none">
<path d="M1699 4045 c-1351 -1350 -1582 -1586 -1565 -1592 22 -7 29 -9 61 -16
11 -3 133 -35 270 -72 138 -37 278 -75 313 -84 l63 -16 1217 1217 c669 670
1219 1218 1222 1218 3 0 5 -501 5 -1112 0 -612 1 -1118 3 -1125 2 -6 148 134
325 311 l322 323 0 945 0 946 -320 321 c-175 176 -322 321 -325 321 -4 0 -720
-713 -1591 -1585z"/>
<path d="M4403 5304 l-323 -326 0 -937 0 -937 325 -325 c179 -178 326 -325
328 -326 1 -1 2 503 2 1119 0 616 2 1121 6 1123 3 2 245 -236 539 -530 294
-294 537 -532 541 -530 6 4 281 81 322 90 10 2 84 22 165 44 81 22 166 44 189
50 l41 11 -900 900 c-495 495 -903 900 -906 900 -4 0 -152 -147 -329 -326z"/>
<path d="M3078 3540 c-32 -10 -58 -16 -58 -14 0 2 -12 -1 -27 -7 -16 -6 -35
-12 -43 -14 -8 -2 -161 -42 -340 -90 -292 -78 -559 -150 -600 -160 -8 -3 -48
-13 -89 -24 l-75 -20 -457 -458 c-252 -251 -457 -459 -455 -460 3 -3 254 62
586 152 74 20 142 38 150 40 33 9 402 108 690 185 168 45 352 94 410 110 58
15 161 42 230 60 69 18 129 36 133 40 7 6 13 668 5 675 -2 2 -29 -5 -60 -15z"/>
</g>
</svg>
