<svg id="Layer_2" data-name="Layer 2" xmlns="http://www.w3.org/2000/svg" viewBox="0 0 284.64 66.12"><defs><style>.cls-1{fill:#fff}</style></defs><g id="home"><path class="cls-1" d="M75.02 12.74v37.03l-.17.17-12.57 12.57V0l4.29 4.29 1.15 1.15 7.3 7.3zM90.7 0v62.51L78.12 49.94l-.26-.26V12.84l.26-.26L90.7 0zM59.44 40.74v13.29l-17.2 4.61-8.37 2.25-17.95 4.8 17.13-17.14 1.02-1.01 4.85-1.3 20.52-5.5z"/><path class="cls-1" d="m126.07 35.38-14.31 3.83L81.62 9.08 90.7 0l24.89 24.9 10.48 10.48zM71.36 9.08 14.32 66.12 0 62.29v-.01L62.28 0l9.08 9.08zM158.24 29.45h-4.67c-1.08 0-1.35-.08-2.18-.66l-2.13 2.71c1.49 1.05 2.76 1.27 4.31 1.27h.52v.39c0 2.13-1.02 3.15-3.15 3.15h-7.82c-2.63 0-4.31-1.33-4.31-3.26 0-.72.22-2.68.58-4.98l-3.65-.52c-.39 2.43-.64 4.56-.64 5.55 0 3.76 3.45 6.52 8.02 6.52h7.82c4.26 0 6.85-2.63 6.85-6.44v-.41h4.15V13.42h-3.71v16.03ZM141.85 41.06h3.7v3.76h-3.7zM147.3 41.06h3.7v3.76h-3.7zM177.56 29.45h-4.84v-12.3h-3.7v12.3h-4.03v3.31h16.27V13.42h-3.7v16.03z"/><path class="cls-1" d="M168.58 14.6c.8.64 1.77 1 2.9 1 1.88 0 2.96-1.05 3.76-2.13l-1.55-1.22c-.41.3-1 .5-1.6.5-.75 0-1.47-.28-1.85-.66h-2.54l-1.69 2.43 1.41 1.24 1.16-1.16ZM185.68 13.42h3.7v19.35h-3.7zM211.88 32.9c0 2.1-1.52 3.4-4.39 3.4s-4.73-1.49-4.73-3.57c0-1 .33-3.7.94-7.55l-3.65-.53c-.47 2.96-.99 6.58-.99 8.07 0 3.98 3.59 6.88 8.43 6.88s8.1-2.71 8.1-6.72V13.42h-3.71v19.49ZM218.62 25.85c0 4.75 1.33 6.91 6.16 6.91h2.99v.17c0 2.49-.77 3.32-2.6 3.32-.97 0-2.24-.17-3.73-.5l-.8 3.23c1.49.33 3.21.58 4.53.58 4.2 0 6.3-2.63 6.3-6.63V18.94h-6.69c-4.84 0-6.16 2.16-6.16 6.91Zm9.15 3.59h-2.99c-2.18 0-2.46-.14-2.46-3.59s.28-3.59 2.46-3.59h2.99v7.19ZM235.9 13.42h3.7v19.35h-3.7zM263.17 13.17h3.7v3.76h-3.7zM257.73 13.17h3.7v3.76h-3.7z"/><path class="cls-1" d="M271.57 29.45h-7.41v-10.5h-3.7v10.5h-6.58v-3.09c0-5.56-2.6-7.41-7.02-7.41h-2.24v3.32h2.24c2.63 0 3.32.69 3.32 4.09v3.09h-6.99v3.32h32.08V13.42h-3.7v16.03ZM279.7 13.42h3.7v19.35h-3.7zM143.24 58.9h-5.17l-.87 3.11h-1.33l3.32-12.09h2.94l3.32 12.09h-1.33l-.87-3.11Zm-4.88-1.21h4.58l-1.84-6.62h-.91l-1.83 6.62ZM153.04 61.78c-.4-.27-.68-.72-.85-1.34-.16-.62-.24-1.48-.24-2.6v-4.56h1.31v4.54c0 .87.05 1.53.14 1.97.09.44.26.76.51.94s.62.28 1.13.28c.79 0 1.61-.22 2.45-.65v-7.1h1.31V62h-1.31v-.61c-.48.28-.92.48-1.33.6-.41.12-.87.18-1.4.18-.75 0-1.32-.14-1.72-.41ZM167.61 61.92c-.33-.19-.57-.52-.72-.98-.15-.46-.22-1.1-.22-1.93v-4.6h-1.24v-1.14h1.24V50.6h1.29v2.67h2.78v1.14h-2.78v4.18c0 .65.02 1.14.07 1.46.05.32.16.56.34.73s.46.25.85.25l1.56-.11.09 1.08c-.83.13-1.45.19-1.87.19-.59 0-1.06-.1-1.39-.29ZM178.4 61.73c-.55-.31-.94-.79-1.17-1.44-.23-.65-.35-1.51-.35-2.59s.12-2 .37-2.67.64-1.16 1.19-1.47c.55-.31 1.28-.46 2.18-.46s1.65.16 2.19.47c.54.31.94.8 1.18 1.47s.37 1.55.37 2.66-.12 1.93-.35 2.59c-.23.65-.62 1.13-1.16 1.44-.54.31-1.28.46-2.23.46s-1.67-.16-2.22-.46Zm3.71-1c.34-.22.57-.56.71-1.03s.2-1.14.2-2c0-.91-.07-1.61-.21-2.1s-.38-.84-.72-1.05c-.34-.21-.82-.31-1.45-.31s-1.12.11-1.46.31c-.34.21-.59.56-.73 1.05-.15.49-.22 1.19-.22 2.1 0 .85.07 1.51.2 1.99s.37.82.72 1.04c.34.22.84.32 1.49.32s1.13-.11 1.47-.32ZM205.54 51.13h-3.72v-1.21h8.74v1.21h-3.69v10.89h-1.33V51.13ZM215.45 53.28h1.29v1.19c1-.69 2.07-1.15 3.2-1.38v1.33c-.46.09-.95.24-1.48.43s-.95.37-1.27.53l-.44.23v6.41h-1.31v-8.74ZM226.48 61.51c-.42-.46-.63-1.11-.63-1.96s.21-1.46.64-1.87c.43-.41 1.1-.66 2.04-.75l2.74-.26v-.75c0-1.11-.48-1.66-1.43-1.66s-2.09.08-3.44.23l-.05-1c1.25-.26 2.38-.38 3.41-.38s1.71.22 2.16.67c.45.45.67 1.16.67 2.14v4.47c.04.43.37.69 1.01.77l-.05 1.03c-.92 0-1.61-.23-2.08-.7-1.04.47-2.09.7-3.15.7-.8 0-1.42-.23-1.83-.68Zm4.39-.82.4-.14v-2.88l-2.59.24c-.52.05-.9.2-1.14.46s-.35.63-.35 1.12c0 1.07.44 1.61 1.33 1.61.78 0 1.56-.13 2.34-.4ZM240.41 61.12c-.48-.72-.72-1.82-.72-3.31 0-1.67.29-2.87.87-3.6.58-.73 1.53-1.1 2.86-1.1.66 0 1.36.08 2.08.23v-3.86h1.29v12.55h-1.29v-.59c-.9.51-1.8.77-2.71.77-1.11 0-1.9-.36-2.38-1.08Zm3.72-.24c.4-.1.73-.21 1.01-.34l.35-.16v-5.93c-.76-.14-1.42-.21-1.98-.21-.92 0-1.56.27-1.93.8-.37.54-.55 1.42-.55 2.66 0 1.13.15 1.97.45 2.51s.81.81 1.55.81c.34 0 .71-.05 1.1-.15ZM254.23 49.78h1.29v1.52h-1.29v-1.52Zm0 3.5h1.29v8.74h-1.29v-8.74ZM262.96 53.28h1.29v.61c.52-.29 1.01-.49 1.44-.61.44-.12.89-.17 1.37-.17.75 0 1.32.14 1.73.42s.7.73.86 1.34.25 1.46.25 2.54v4.61h-1.29v-4.58c0-.83-.05-1.46-.15-1.91-.1-.44-.28-.76-.53-.96-.26-.2-.63-.3-1.12-.3-.4 0-.8.05-1.21.15s-.75.21-1 .34l-.33.16v7.1h-1.31v-8.74ZM277.68 65.54c-.54-.39-.81-1.04-.81-1.95 0-.37.04-.68.13-.92s.22-.45.41-.64.47-.43.84-.72a.934.934 0 0 1-.37-.47c-.08-.21-.12-.43-.12-.66 0-.15.04-.32.11-.5s.23-.5.49-.95c-.92-.41-1.38-1.28-1.38-2.62 0-1.01.27-1.77.82-2.26.55-.49 1.37-.74 2.48-.74.53 0 1.13.08 1.78.23l2.59-.07v1.12l-1.66-.03c.2.2.34.44.44.73.09.28.14.65.14 1.09 0 1.04-.27 1.78-.8 2.22-.53.44-1.38.66-2.53.66-.36 0-.66-.02-.89-.07-.09.23-.17.44-.23.61s-.09.33-.09.45c0 .3.12.5.36.59.24.09.61.14 1.11.14h.68c.77 0 1.39.06 1.86.17.47.12.84.35 1.09.71s.38.87.38 1.55c0 1.01-.31 1.75-.94 2.22-.63.47-1.67.7-3.11.7-1.3 0-2.23-.2-2.77-.59Zm4.92-.91c.38-.26.58-.71.58-1.35 0-.37-.06-.66-.19-.85s-.34-.32-.65-.39c-.3-.07-.74-.1-1.31-.1l-1.89-.09c-.38.28-.64.52-.78.73-.13.21-.2.49-.2.84 0 .61.18 1.03.53 1.26.36.23.98.35 1.88.35.97 0 1.64-.13 2.03-.39Zm-.8-7.07c.3-.29.45-.79.45-1.49s-.15-1.18-.45-1.47c-.3-.29-.8-.44-1.5-.44s-1.24.15-1.55.45-.46.79-.46 1.48.15 1.18.46 1.47c.31.29.82.44 1.53.44s1.22-.15 1.52-.44Z"/></g></svg>