<svg xmlns="http://www.w3.org/2000/svg" xmlns:xlink="http://www.w3.org/1999/xlink" viewBox="0 0 809.3 608.84"><defs><linearGradient id="_Áåçûìÿííûé_ãðàäèåíò_209" data-name="Áåçûìÿííûé ãðàäèåíò 209" x1="-3450.74" y1="453.26" x2="-3253.59" y2="453.26" gradientTransform="matrix(-1 0 0 1 -2956.56 0)" gradientUnits="userSpaceOnUse"><stop offset="0" stop-color="#5761d7"/><stop offset=".07" stop-color="#5471d8"/><stop offset=".28" stop-color="#4d9bda"/><stop offset=".48" stop-color="#48bddd"/><stop offset=".67" stop-color="#44d4de"/><stop offset=".85" stop-color="#42e3df"/><stop offset="1" stop-color="#42e8e0"/></linearGradient><linearGradient id="_Áåçûìÿííûé_ãðàäèåíò_209-2" data-name="Áåçûìÿííûé ãðàäèåíò 209" y1="438.09" y2="438.09" xlink:href="#_Áåçûìÿííûé_ãðàäèåíò_209"/><linearGradient id="_Áåçûìÿííûé_ãðàäèåíò_209-3" data-name="Áåçûìÿííûé ãðàäèåíò 209" y1="422.92" y2="422.92" xlink:href="#_Áåçûìÿííûé_ãðàäèåíò_209"/><linearGradient id="_Áåçûìÿííûé_ãðàäèåíò_209-4" data-name="Áåçûìÿííûé ãðàäèåíò 209" y1="407.76" y2="407.76" xlink:href="#_Áåçûìÿííûé_ãðàäèåíò_209"/><linearGradient id="_Áåçûìÿííûé_ãðàäèåíò_209-5" data-name="Áåçûìÿííûé ãðàäèåíò 209" x1="-3450.74" y1="430.51" x2="-3253.59" y2="430.51" xlink:href="#_Áåçûìÿííûé_ãðàäèåíò_209"/><linearGradient id="_Áåçûìÿííûé_ãðàäèåíò_209-6" data-name="Áåçûìÿííûé ãðàäèåíò 209" x1="-3471.69" y1="382.02" x2="-3232.64" y2="382.02" xlink:href="#_Áåçûìÿííûé_ãðàäèåíò_209"/><linearGradient id="_Áåçûìÿííûé_ãðàäèåíò_209-7" data-name="Áåçûìÿííûé ãðàäèåíò 209" x1="-3471.69" y1="363.63" x2="-3232.64" y2="363.63" xlink:href="#_Áåçûìÿííûé_ãðàäèåíò_209"/><linearGradient id="_Áåçûìÿííûé_ãðàäèåíò_209-8" data-name="Áåçûìÿííûé ãðàäèåíò 209" x1="-3471.69" y1="345.24" x2="-3232.64" y2="345.24" xlink:href="#_Áåçûìÿííûé_ãðàäèåíò_209"/><linearGradient id="_Áåçûìÿííûé_ãðàäèåíò_209-9" data-name="Áåçûìÿííûé ãðàäèåíò 209" x1="-3471.69" y1="326.85" x2="-3232.64" y2="326.85" xlink:href="#_Áåçûìÿííûé_ãðàäèåíò_209"/><linearGradient id="_Áåçûìÿííûé_ãðàäèåíò_209-10" data-name="Áåçûìÿííûé ãðàäèåíò 209" x1="-3471.69" y1="354.43" x2="-3232.64" y2="354.43" xlink:href="#_Áåçûìÿííûé_ãðàäèåíò_209"/><linearGradient id="_Áåçûìÿííûé_ãðàäèåíò_209-11" data-name="Áåçûìÿííûé ãðàäèåíò 209" x1="-3471.69" y1="326.85" x2="-3232.64" y2="326.85" xlink:href="#_Áåçûìÿííûé_ãðàäèåíò_209"/><linearGradient id="_Áåçûìÿííûé_ãðàäèåíò_209-12" data-name="Áåçûìÿííûé ãðàäèåíò 209" x1="-3471.69" y1="359.99" x2="-3232.64" y2="359.99" xlink:href="#_Áåçûìÿííûé_ãðàäèåíò_209"/><linearGradient id="_Áåçûìÿííûé_ãðàäèåíò_7" data-name="Áåçûìÿííûé ãðàäèåíò 7" x1="510.77" y1="322.59" x2="620.37" y2="350.09" gradientUnits="userSpaceOnUse"><stop offset="0" stop-color="#42e8e0"/><stop offset="0" stop-color="#41e6df"/><stop offset=".14" stop-color="#3fb6ca"/><stop offset=".27" stop-color="#3d8cb8"/><stop offset=".41" stop-color="#3b6baa"/><stop offset=".55" stop-color="#3a519f"/><stop offset=".69" stop-color="#393e97"/><stop offset=".84" stop-color="#393392"/><stop offset="1" stop-color="#393091"/></linearGradient><linearGradient id="_Áåçûìÿííûé_ãðàäèåíò_7-2" data-name="Áåçûìÿííûé ãðàäèåíò 7" x1="-4361.2" y1="241.27" x2="-4459.42" y2="225.27" gradientTransform="matrix(-1 0 0 1 -3853.5 0)" xlink:href="#_Áåçûìÿííûé_ãðàäèåíò_7"/><linearGradient id="_Áåçûìÿííûé_ãðàäèåíò_209-13" data-name="Áåçûìÿííûé ãðàäèåíò 209" x1="1417.82" y1="155.32" x2="1443.04" y2="155.32" gradientTransform="rotate(3.32 -1236.841 -15067.628)" xlink:href="#_Áåçûìÿííûé_ãðàäèåíò_209"/><linearGradient id="_Áåçûìÿííûé_ãðàäèåíò_7-3" data-name="Áåçûìÿííûé ãðàäèåíò 7" x1="-4355.59" y1="232.18" x2="-4402.97" y2="209.16" gradientTransform="matrix(-1 0 0 1 -3853.5 0)" xlink:href="#_Áåçûìÿííûé_ãðàäèåíò_7"/><linearGradient id="_Áåçûìÿííûé_ãðàäèåíò_7-4" data-name="Áåçûìÿííûé ãðàäèåíò 7" x1="-4382.73" y1="253.06" x2="-4466.14" y2="220.02" gradientTransform="matrix(-1 0 0 1 -3853.5 0)" xlink:href="#_Áåçûìÿííûé_ãðàäèåíò_7"/><linearGradient id="_Áåçûìÿííûé_ãðàäèåíò_7-5" data-name="Áåçûìÿííûé ãðàäèåíò 7" x1="226.99" y1="458.79" x2="134.8" y2="496.3" xlink:href="#_Áåçûìÿííûé_ãðàäèåíò_7"/><linearGradient id="_Áåçûìÿííûé_ãðàäèåíò_7-6" data-name="Áåçûìÿííûé ãðàäèåíò 7" x1="219.98" y1="333.52" x2="121.39" y2="354.25" xlink:href="#_Áåçûìÿííûé_ãðàäèåíò_7"/><linearGradient id="_Áåçûìÿííûé_ãðàäèåíò_209-14" data-name="Áåçûìÿííûé ãðàäèåíò 209" x1="-4573.99" y1="30.33" x2="-4569.84" y2="30.33" gradientTransform="scale(-1 1) rotate(-5.01 270.731 -50428.322)" xlink:href="#_Áåçûìÿííûé_ãðàäèåíò_209"/><linearGradient id="_Áåçûìÿííûé_ãðàäèåíò_44" data-name="Áåçûìÿííûé ãðàäèåíò 44" x1="290.08" y1="448.27" x2="195.91" y2="490.17" gradientUnits="userSpaceOnUse"><stop offset="0" stop-color="#42e8e0"/><stop offset=".11" stop-color="#40c1cf"/><stop offset=".25" stop-color="#3d91ba"/><stop offset=".4" stop-color="#3c6baa"/><stop offset=".53" stop-color="#3b519f"/><stop offset=".64" stop-color="#3a4098"/><stop offset=".73" stop-color="#3a3b96"/><stop offset=".84" stop-color="#393392"/><stop offset="1" stop-color="#393091"/></linearGradient><linearGradient id="_Áåçûìÿííûé_ãðàäèåíò_209-15" data-name="Áåçûìÿííûé ãðàäèåíò 209" x1="-4641.65" y1="223.58" x2="-4634.36" y2="223.58" gradientTransform="scale(-1 1) rotate(-5.01 270.731 -50428.322)" xlink:href="#_Áåçûìÿííûé_ãðàäèåíò_209"/><linearGradient id="_Áåçûìÿííûé_ãðàäèåíò_209-16" data-name="Áåçûìÿííûé ãðàäèåíò 209" x1="-4655.43" y1="209.76" x2="-4648.16" y2="209.76" gradientTransform="scale(-1 1) rotate(-5.01 270.731 -50428.322)" xlink:href="#_Áåçûìÿííûé_ãðàäèåíò_209"/><linearGradient id="_Áåçûìÿííûé_ãðàäèåíò_7-7" data-name="Áåçûìÿííûé ãðàäèåíò 7" x1="-2583.49" y1="-1303.49" x2="-2604.37" y2="-1275.6" gradientTransform="matrix(.65731 .64369 -.80461 .82164 973.27 2988.94)" xlink:href="#_Áåçûìÿííûé_ãðàäèåíò_7"/><linearGradient id="_Áåçûìÿííûé_ãðàäèåíò_7-8" data-name="Áåçûìÿííûé ãðàäèåíò 7" x1="-1453.47" y1="1827.1" x2="-1407.31" y2="1827.1" gradientTransform="rotate(-6.24 -15393.063 -15230.54)" xlink:href="#_Áåçûìÿííûé_ãðàäèåíò_7"/><linearGradient id="_Áåçûìÿííûé_ãðàäèåíò_7-9" data-name="Áåçûìÿííûé ãðàäèåíò 7" x1="1496.33" y1="410.65" x2="1496.33" y2="279.1" gradientTransform="matrix(.78 0 0 1.06 -767.95 -103.73)" xlink:href="#_Áåçûìÿííûé_ãðàäèåíò_7"/><linearGradient id="_Áåçûìÿííûé_ãðàäèåíò_7-10" data-name="Áåçûìÿííûé ãðàäèåíò 7" x1="390.25" y1="220.12" x2="407.17" y2="99.75" gradientTransform="rotate(76.89 398.719 159.958)" xlink:href="#_Áåçûìÿííûé_ãðàäèåíò_7"/><linearGradient id="_Áåçûìÿííûé_ãðàäèåíò_7-11" data-name="Áåçûìÿííûé ãðàäèåíò 7" x1="425.99" y1="198.59" x2="443.13" y2="151.49" xlink:href="#_Áåçûìÿííûé_ãðàäèåíò_7"/><linearGradient id="_Áåçûìÿííûé_ãðàäèåíò_7-12" data-name="Áåçûìÿííûé ãðàäèåíò 7" x1="66.33" y1="-441.53" x2="97.69" y2="-475.39" gradientTransform="rotate(11.2 -3312.966 1841.873)" xlink:href="#_Áåçûìÿííûé_ãðàäèåíò_7"/><linearGradient id="_Áåçûìÿííûé_ãðàäèåíò_7-13" data-name="Áåçûìÿííûé ãðàäèåíò 7" x1="530.64" y1="153.89" x2="565.48" y2="153.89" gradientTransform="rotate(6.8 -760.313 94.663) scale(.92 1.15)" xlink:href="#_Áåçûìÿííûé_ãðàäèåíò_7"/><linearGradient id="linear-gradient" x1="395.61" y1="394.6" x2="395.61" y2="0" gradientUnits="userSpaceOnUse"><stop offset="0" stop-color="#42e8e0"/><stop offset=".16" stop-color="#36b0b6" stop-opacity=".74"/><stop offset=".32" stop-color="#2c8093" stop-opacity=".52"/><stop offset=".47" stop-color="#245876" stop-opacity=".33"/><stop offset=".62" stop-color="#1e395f" stop-opacity=".19"/><stop offset=".76" stop-color="#19234f" stop-opacity=".08"/><stop offset=".89" stop-color="#161645" stop-opacity=".02"/><stop offset="1" stop-color="#161242" stop-opacity="0"/></linearGradient><radialGradient id="_Áåçûìÿííûé_ãðàäèåíò_16" data-name="Áåçûìÿííûé ãðàäèåíò 16" cx="48.04" cy="-491.99" fx="48.04" fy="-491.99" r="135.59" gradientTransform="rotate(11.2 -3312.966 1841.873)" gradientUnits="userSpaceOnUse"><stop offset="0" stop-color="#c0bff6"/><stop offset="1" stop-color="#393091"/></radialGradient><radialGradient id="_Áåçûìÿííûé_ãðàäèåíò_16-2" data-name="Áåçûìÿííûé ãðàäèåíò 16" cx="1528.54" cy="383.7" fx="1528.54" fy="383.7" r="133.96" gradientTransform="matrix(.78 0 0 1.06 -767.95 -103.73)" xlink:href="#_Áåçûìÿííûé_ãðàäèåíò_16"/><radialGradient id="_Áåçûìÿííûé_ãðàäèåíò_16-3" data-name="Áåçûìÿííûé ãðàäèåíò 16" cx="324.55" cy="127.25" fx="324.55" fy="127.25" r="73.4" xlink:href="#_Áåçûìÿííûé_ãðàäèåíò_16"/><radialGradient id="_Áåçûìÿííûé_ãðàäèåíò_16-4" data-name="Áåçûìÿííûé ãðàäèåíò 16" cx="426.63" cy="214.11" fx="426.63" fy="214.11" r="104.55" gradientTransform="rotate(45 388.026 223.276)" xlink:href="#_Áåçûìÿííûé_ãðàäèåíò_16"/><radialGradient id="_Áåçûìÿííûé_ãðàäèåíò_16-5" data-name="Áåçûìÿííûé ãðàäèåíò 16" cx="425.79" cy="212.99" fx="425.79" fy="212.99" r="49.65" xlink:href="#_Áåçûìÿííûé_ãðàäèåíò_16"/><radialGradient id="_Áåçûìÿííûé_ãðàäèåíò_16-6" data-name="Áåçûìÿííûé ãðàäèåíò 16" cx="95.95" cy="-410.74" fx="95.95" fy="-410.74" r="49.01" xlink:href="#_Áåçûìÿííûé_ãðàäèåíò_16"/><radialGradient id="_Áåçûìÿííûé_ãðàäèåíò_16-7" data-name="Áåçûìÿííûé ãðàäèåíò 16" cx="446.5" cy="-1755.54" fx="446.5" fy="-1755.54" r="45.4" gradientTransform="rotate(6.8 -24932.357 -453.478) scale(.92 1.51)" xlink:href="#_Áåçûìÿííûé_ãðàäèåíò_16"/><radialGradient id="_Áåçûìÿííûé_ãðàäèåíò_16-8" data-name="Áåçûìÿííûé ãðàäèåíò 16" cx="-3276.99" cy="-2707.46" fx="-3276.99" fy="-2707.46" r="45.4" gradientTransform="rotate(61.27 -5067.475 890.378) scale(.92 1.51)" xlink:href="#_Áåçûìÿííûé_ãðàäèåíò_16"/><radialGradient id="_Áåçûìÿííûé_ãðàäèåíò_16-9" data-name="Áåçûìÿííûé ãðàäèåíò 16" cx="-2825.99" cy="-2568.51" fx="-2825.99" fy="-2568.51" r="44.6" gradientTransform="rotate(44.4 -6178.187 1772.611) scale(.92 1.51)" xlink:href="#_Áåçûìÿííûé_ãðàäèåíò_16"/><radialGradient id="_Áåçûìÿííûé_ãðàäèåíò_16-10" data-name="Áåçûìÿííûé ãðàäèåíò 16" cx="47.93" cy="-564.12" fx="47.93" fy="-564.12" r="133.21" gradientTransform="rotate(41.14 -756.705 384.385)" xlink:href="#_Áåçûìÿííûé_ãðàäèåíò_16"/><radialGradient id="_Áåçûìÿííûé_ãðàäèåíò_16-11" data-name="Áåçûìÿííûé ãðàäèåíò 16" cx="1541.51" cy="322.6" fx="1541.51" fy="322.6" r="131.6" gradientTransform="matrix(.78 0 0 1.06 -767.95 -103.73)" xlink:href="#_Áåçûìÿííûé_ãðàäèåíò_16"/><radialGradient id="_Áåçûìÿííûé_ãðàäèåíò_16-12" data-name="Áåçûìÿííûé ãðàäèåíò 16" cx="336.35" cy="65.6" fx="336.35" fy="65.6" r="72.11" xlink:href="#_Áåçûìÿííûé_ãðàäèåíò_16"/><radialGradient id="_Áåçûìÿííûé_ãðàäèåíò_16-13" data-name="Áåçûìÿííûé ãðàäèåíò 16" cx="436.64" cy="150.93" fx="436.64" fy="150.93" r="102.72" gradientTransform="rotate(76.89 398.719 159.958)" xlink:href="#_Áåçûìÿííûé_ãðàäèåíò_16"/><radialGradient id="_Áåçûìÿííûé_ãðàäèåíò_16-14" data-name="Áåçûìÿííûé ãðàäèåíò 16" cx="435.81" cy="149.84" fx="435.81" fy="149.84" r="48.78" xlink:href="#_Áåçûìÿííûé_ãðàäèåíò_16"/><radialGradient id="_Áåçûìÿííûé_ãðàäèåíò_16-15" data-name="Áåçûìÿííûé ãðàäèåíò 16" cx="92.5" cy="-475.89" fx="92.5" fy="-475.89" r="48.15" xlink:href="#_Áåçûìÿííûé_ãðàäèåíò_16"/><radialGradient id="_Áåçûìÿííûé_ãðàäèåíò_16-16" data-name="Áåçûìÿííûé ãðàäèåíò 16" cx="454.81" cy="-1795.73" fx="454.81" fy="-1795.73" r="44.6" gradientTransform="rotate(6.8 -24932.357 -453.478) scale(.92 1.51)" xlink:href="#_Áåçûìÿííûé_ãðàäèåíò_16"/><clipPath id="clippath"><path class="cls-146" d="M498.03 279.79c21.38 12.35 21.38 32.36 0 44.7l5.38 3.11c24.36-14.06 24.35-36.86 0-50.92-24.36-14.06-63.84-14.06-88.2 0l5.38 3.11c21.38-12.34 56.05-12.34 77.43 0Z"/></clipPath><clipPath id="clippath-1"><path class="cls-146" d="M369.88 237.49c21.38 12.35 21.38 32.36 0 44.7l5.38 3.11c24.36-14.06 24.36-36.86 0-50.92-24.36-14.06-63.84-14.06-88.2 0l5.38 3.11c21.38-12.34 56.05-12.34 77.43 0Z"/></clipPath><style>.cls-2{fill:#5c55ab}.cls-3{fill:#5750a8}.cls-4{fill:#8581ca}.cls-6,.cls-8{opacity:.5}.cls-10{fill:#b8b7f0}.cls-11{fill:#b7b6f0}.cls-13{fill:#413897}.cls-15{fill:#b5b3ed}.cls-16{fill:#7d78c4}.cls-17{fill:#fff}.cls-18{fill:#564ea6}.cls-19{fill:#706aba}.cls-20{fill:#bcbeff}.cls-21{fill:#4e46a1}.cls-24{fill:#9895d8}.cls-25{fill:#49419d}.cls-26{fill:#6962b5}.cls-27{fill:#6e68b9}.cls-28{fill:#473f9c}.cls-32{mix-blend-mode:lighten}.cls-35{fill:#5b54ab}.cls-36{fill:#524aa3}.cls-37{fill:#b3b1ec}.cls-40,.cls-41,.cls-8{fill:#42e8e0}.cls-42{fill:#adabe8}.cls-43{fill:#7973c1}.cls-44{fill:#160a5b}.cls-45{fill:#b4b2ed}.cls-46{fill:#a09dde}.cls-47{fill:#393091}.cls-48{fill:#a8a6e4}.cls-49{fill:#24126a}.cls-50{fill:#a4a2e1}.cls-52{fill:#736dbc}.cls-54{fill:#acaae7}.cls-55{fill:#6861b4}.cls-56{fill:#7d79c4}.cls-57{fill:#5f58ad}.cls-58{fill:#443c9a}.cls-59{fill:#9794d7}.cls-60{fill:#e2b1a6}.cls-61{fill:#6d67b8}.cls-62{fill:#8a86cd}.cls-63{fill:#6059ae}.cls-64{fill:#4846a5}.cls-65{fill:#9491d5}.cls-67{fill:#423997}.cls-68{fill:#817dc7}.cls-70{fill:#9c99db}.cls-71{fill:#534ba4}.cls-72{fill:#aaa8e6}.cls-73{fill:#8e8ad0}.cls-74{fill:#716bbb}.cls-75{fill:#7e7ac5}.cls-76{fill:#8d89d0}.cls-77{fill:#a7a5e4}.cls-78{fill:#837fc8}.cls-79{fill:#665fb2}.cls-80{fill:#aeace8}.cls-81{fill:#8884cc}.cls-82{fill:#7872c0}.cls-83{fill:#625bb0}.cls-86{fill:#a19edf}.cls-87{fill:#7a74c1}.cls-88{fill:#a5a3e2}.cls-89{fill:#7670bf}.cls-90{fill:#7b75c2}.cls-91{fill:#463e9b}.cls-93{fill:#403796}.cls-95{fill:#48409c}.cls-96{fill:#936d6d}.cls-97{opacity:.11}.cls-99{fill:#9592d6}.cls-100{fill:#3a3192}.cls-102{fill:#615aaf}.cls-103{fill:#6963b5}.cls-105{fill:#5048a2}.cls-106{fill:#5952a9}.cls-107{fill:#645db1}.cls-108{fill:#8b87ce}.cls-109{fill:#8783cb}.cls-110{fill:#a3a1e1}.cls-112{fill:#3b3292}.cls-114{fill:#918ed3}.cls-115{fill:#433a98}.cls-116{fill:#6a64b6}.cls-117{fill:#6760b3}.cls-118{fill:#9390d5}.cls-119{fill:#928fd4}.cls-120{fill:#8480c9}.cls-121{fill:#9a97da}.cls-122{fill:#655eb2}.cls-123{fill:#635cb0}.cls-124{fill:#908cd2}.cls-126{fill:#908dd2}.cls-127{fill:#4a429e}.cls-128{fill:#8985cd}.cls-130{fill:#4f47a1}.cls-131{fill:#6b65b7}.cls-132{fill:#4c449f}.cls-133{fill:#8f8bd1}.cls-134{fill:#aa8383}.cls-135{fill:#746ebd}.cls-139{fill:#7771bf}.cls-140{fill:#5851a8}.cls-141{fill:#3c3393}.cls-142{fill:#7f7bc6}.cls-144{fill:#9e9bdc}.cls-145{fill:#6f69ba}.cls-146{fill:none}.cls-147{fill:#756fbe}.cls-148{fill:#544ca5}.cls-151{fill:#5149a3}.cls-152{fill:#b1afeb}.cls-153{fill:#453c9e}.cls-154{fill:#a9a7e5}.cls-156{fill:#5e57ad}.cls-157{fill:#fcd1c5}.cls-158{fill:#a6a4e3}.cls-159{fill:#453d9a}.cls-163{fill:#807cc6}.cls-164{fill:#aba9e6}.cls-165{fill:#7c76c3}.cls-166{fill:#9b98da}.cls-167{fill:#8c88cf}.cls-168{fill:#4d45a0}.cls-170{fill:#a3a0e0}.cls-171{fill:#9f9cdd}.cls-172{fill:#afade9}.cls-173{fill:#5a53aa}.cls-175{fill:#f0f6ff}.cls-176{fill:#b6b5ef}.cls-181{fill:#433b99}.cls-182{fill:#cad0f9}.cls-186{fill:#b0aeea}.cls-40{opacity:.5}.cls-188{fill:#9d9adc}.cls-190{fill:#a29fdf}.cls-191{fill:#3e3595}.cls-192{fill:#5d56ac}.cls-193{fill:#726cbc}.cls-194{fill:#b2b0eb}.cls-195{fill:#3d3494}.cls-196{fill:#4b439f}.cls-197{fill:#3f3695}.cls-198{fill:#9996d9}.cls-199{fill:#8682cb}.cls-200{fill:#b6b4ee}.cls-201{fill:#827ec8}.cls-202{fill:#6c66b7}.cls-205{fill:#9693d7}.cls-206{fill:#554da6}.cls-207{fill:#c4ccd6}.cls-208{fill:#564fa7}.cls-209{fill:#722318}</style></defs><g style="isolation:isolate"><g id="Layer_2" data-name="Layer 2"><g id="Layer_5" data-name="Layer 5"><path class="cls-41" transform="rotate(-17.95 462.983 335.593)" d="M459.29 308.26h7.56V363h-7.56z"/><path class="cls-41" d="M520.63 300.95c-1.92-5.97-6.46-11.72-13.64-16.62l.81.27v-2.64l-11.51-5.43-10.93-5-14.15-3.07h-12.09l-14.02.9-14.02 2.83-7.97 5.02 1.48.41c-3.31 1.28-6.47 2.77-9.4 4.46l5.38 3.11c21.38-12.34 56.05-12.34 77.43 0 10.74 6.2 16.08 14.34 16.03 22.47 1.59-2.72 3.83-4.63 6.56-6.7Z"/><path class="cls-182" d="M521.28 303.49c-.17-.85-.38-1.69-.65-2.54-2.73 2.07-4.97 3.99-6.56 6.7-.05 8.05-5.39 16.1-16.03 22.24l5.38 3.11c12.13-7.01 18.22-16.18 18.26-25.36v-5.47l-.4 1.31Z"/><g style="clip-path:url(#clippath)"><path class="cls-47" d="M415.21 262.62h112.56v64.99H415.21z"/><path class="cls-47" d="M529.74 292.29v37.28h-116.5v-68.93h116.5v31.65z"/><path class="cls-100" d="M529.74 292.24v37.33h-116.5v-68.93h116.5v31.6z"/><path class="cls-112" d="M529.74 292.19v37.38h-116.5v-68.93h116.5v31.55z"/><path class="cls-141" d="M529.74 292.15v37.42h-116.5v-68.93h116.5v31.51z"/><path class="cls-195" d="M529.74 292.1v37.47h-116.5v-68.93h116.5v31.46z"/><path class="cls-191" d="M529.74 292.06v37.51h-116.5v-68.93h116.5v31.42z"/><path class="cls-197" d="M529.74 292.01v37.56h-116.5v-68.93h116.5v31.37z"/><path class="cls-93" d="M529.74 291.96v37.61h-116.5v-68.93h116.5v31.32z"/><path class="cls-13" d="M529.74 291.92v37.65h-116.5v-68.93h116.5v31.28z"/><path class="cls-67" d="M529.74 291.87v37.7h-116.5v-68.93h116.5v31.23z"/><path class="cls-115" d="M529.74 291.83v37.74h-116.5v-68.93h116.5v31.19z"/><path class="cls-181" d="M529.74 291.78v37.79h-116.5v-68.93h116.5v31.14z"/><path class="cls-58" d="M529.74 291.73v37.84h-116.5v-68.93h116.5v31.09z"/><path class="cls-159" d="M529.74 291.69v37.88h-116.5v-68.93h116.5v31.05z"/><path class="cls-91" d="M529.74 291.64v37.93h-116.5v-68.93h116.5v31z"/><path class="cls-28" d="M529.74 291.6v37.97h-116.5v-68.93h116.5v30.96z"/><path class="cls-95" d="M529.74 291.55v38.02h-116.5v-68.93h116.5v30.91z"/><path class="cls-25" d="M529.74 291.51v38.06h-116.5v-68.93h116.5v30.87z"/><path class="cls-127" d="M529.74 291.46v38.11h-116.5v-68.93h116.5v30.82z"/><path class="cls-196" d="M529.74 291.41v38.16h-116.5v-68.93h116.5v30.77z"/><path class="cls-132" d="M529.74 291.37v38.2h-116.5v-68.93h116.5v30.73z"/><path class="cls-168" d="M529.74 291.32v38.25h-116.5v-68.93h116.5v30.68z"/><path class="cls-21" d="M529.74 291.28v38.29h-116.5v-68.93h116.5v30.64z"/><path class="cls-130" d="M529.74 291.23v38.34h-116.5v-68.93h116.5v30.59z"/><path class="cls-105" d="M529.74 291.18v38.39h-116.5v-68.93h116.5v30.54z"/><path class="cls-151" d="M529.74 291.14v38.43h-116.5v-68.93h116.5v30.5z"/><path class="cls-36" d="M529.74 291.09v38.48h-116.5v-68.93h116.5v30.45z"/><path class="cls-71" d="M529.74 291.05v38.52h-116.5v-68.93h116.5v30.41z"/><path class="cls-148" d="M529.74 291v38.57h-116.5v-64.99h-11.18c3.78-5.2 7.78-10.32 11.96-15.34v11.41h115.72V291Z"/><path class="cls-206" d="M529.74 290.95v38.62h-116.5v-64.81h-9.94c3.75-5.16 7.71-10.23 11.85-15.21v11.09h114.58v30.31Z"/><path class="cls-18" d="M529.74 290.91v38.66h-116.5v-64.63h-8.69a295.67 295.67 0 0 1 11.75-15.08v10.78h113.44v30.26Z"/><path class="cls-208" d="M529.74 290.86v38.71h-116.5v-64.44h-7.45c3.69-5.07 7.57-10.05 11.64-14.94v10.46h112.3v30.22Z"/><path class="cls-3" d="M529.74 290.82v38.76h-116.5v-64.26h-6.2c3.65-5.02 7.51-9.96 11.54-14.81v10.14h111.16v30.17Z"/><path class="cls-140" d="M529.74 290.77v38.8h-116.5v-64.08h-4.96c3.62-4.98 7.44-9.87 11.44-14.68v9.82h110.02v30.13Z"/><path class="cls-106" d="M529.74 290.72v38.85h-116.5v-63.89h-3.71c3.59-4.93 7.37-9.78 11.33-14.54v9.51h108.88v30.08Z"/><path class="cls-173" d="M529.74 290.68v38.89h-116.5v-48.82h-12.52c6.29-10.07 13.43-19.87 21.28-29.3v9.19h107.74v30.03Z"/><path class="cls-35" d="M529.74 290.63v38.94h-116.5V280.8h-11.18c6.23-9.98 13.31-19.69 21.09-29.03v8.87h106.6v29.99Z"/><path class="cls-2" d="M529.74 290.59v38.99h-116.5v-48.73h-9.85c6.17-9.88 13.18-19.5 20.89-28.76v8.56h105.46v29.94Z"/><path class="cls-192" d="M529.74 290.54v39.03h-116.5v-48.68h-8.51c6.11-9.79 13.06-19.32 20.69-28.49v8.24h104.32v29.9Z"/><path class="cls-156" d="M529.74 290.49v39.08h-116.5v-48.63h-7.17c6.05-9.7 12.93-19.13 20.5-28.22v7.92h103.18v29.85Z"/><path class="cls-57" d="M529.74 290.45v39.12h-116.5v-48.59h-5.83c5.99-9.6 12.81-18.95 20.3-27.94v7.6h102.04v29.8Z"/><path class="cls-63" d="M529.74 290.4v39.17h-116.5v-48.54h-4.5c5.94-9.51 12.69-18.77 20.1-27.67v7.29h100.89v29.76Z"/><path class="cls-102" d="M529.74 290.36v39.22h-116.5v-48.5h-3.16c5.88-9.42 12.56-18.58 19.9-27.4v6.97h99.75v29.71Z"/><path class="cls-83" d="M529.74 290.31v39.26h-116.5v-48.45h-1.82c5.82-9.33 12.44-18.4 19.71-27.13v6.65h98.61v29.67Z"/><path class="cls-123" d="M529.74 290.26v39.31h-116.5v-48.4h-.48c5.76-9.23 12.31-18.21 19.51-26.86v6.33h97.47v29.62Z"/><path class="cls-107" d="M529.74 290.22v39.35h-116.5v-21.59h-13.13c3.63-8.68 8.28-17.63 13.99-26.77 5.7-9.14 12.19-18.03 19.31-26.59v6.02h96.33v29.57Z"/><path class="cls-122" d="M529.74 290.17v39.4h-116.5v-21.81h-11.65c3.59-8.59 8.2-17.45 13.84-26.5 5.65-9.05 12.06-17.85 19.12-26.32v5.7h95.19v29.53Z"/><path class="cls-79" d="M529.74 290.13v39.45h-116.5v-22.04h-10.17c3.56-8.5 8.11-17.27 13.7-26.22s11.94-17.66 18.92-26.04v5.38h94.05v29.48Z"/><path class="cls-117" d="M529.74 290.08v39.49h-116.5V307.3h-8.69c3.52-8.41 8.03-17.09 13.56-25.95 5.53-8.86 11.82-17.48 18.72-25.77v5.07h92.91v29.44Z"/><path class="cls-55" d="M529.74 290.04v39.54h-116.5v-22.5h-7.21c3.48-8.32 7.94-16.91 13.41-25.68s11.69-17.29 18.52-25.5v4.75h91.77v29.39Z"/><path class="cls-26" d="M529.74 289.99v39.58h-116.5l-13.19 1.11c3.08-15.25 9.91-31.89 20.74-49.23 5.41-8.67 11.57-17.11 18.33-25.23v4.43h90.63v29.34Z"/><path class="cls-103" d="M529.74 289.94v39.63h-116.5l-11.63.62c3.05-15.08 9.81-31.55 20.52-48.71 5.35-8.58 11.44-16.93 18.13-24.96v4.11h89.49v29.3Z"/><path class="cls-116" d="M529.74 289.9v39.68h-116.5l-10.07.14c3.02-14.92 9.7-31.2 20.29-48.18 5.3-8.49 11.32-16.74 17.93-24.69v3.8h88.35v29.25Z"/><path class="cls-131" d="M529.74 289.85v39.72h-116.5v-.34h-8.51c2.98-14.75 9.59-30.86 20.07-47.65 5.24-8.39 11.19-16.56 17.74-24.42v3.48h87.21v29.21Z"/><path class="cls-202" d="M529.74 289.81v39.77h-116.5v-.83h-6.95c2.95-14.59 9.49-30.52 19.85-47.12 5.18-8.3 11.07-16.37 17.54-24.15v3.16h86.06v29.16Z"/><path class="cls-61" d="M529.74 289.76v39.81h-116.5v-1.31h-5.39c2.92-14.43 9.38-30.17 19.62-46.59 5.12-8.21 10.94-16.19 17.34-23.87v2.84h84.92v29.11Z"/><path class="cls-27" d="M529.74 289.71v39.86h-116.5v-1.79h-3.83c2.88-14.26 9.27-29.83 19.4-46.06 5.06-8.11 10.82-16.01 17.15-23.6v2.53h83.78v29.07Z"/><path class="cls-145" d="M529.74 289.67v39.91h-116.5v-2.28h-2.27c2.85-14.1 9.17-29.49 19.18-45.53 5-8.02 10.7-15.82 16.95-23.33v2.21h82.64v29.02Z"/><path class="cls-19" d="M529.74 289.62v39.95h-116.5v-2.76h-.71c2.82-13.93 9.06-29.15 18.95-45 4.95-7.93 10.57-15.64 16.75-23.06v1.89h81.5v28.98Z"/><path class="cls-74" d="M529.74 289.58v40h-116.5l-.6 6.84c.28-3.27.76-6.64 1.46-10.08 2.79-13.77 8.95-28.8 18.73-44.47 4.89-7.83 10.45-15.45 16.55-22.79v1.58h80.36v28.93Z"/><path class="cls-193" d="M529.74 289.53v40.04H414.21v6.23c.27-3.24.75-6.56 1.44-9.96 2.75-13.61 8.85-28.46 18.51-43.94 4.83-7.74 10.32-15.27 16.36-22.52v1.26h79.22v28.88Z"/><path class="cls-52" d="M529.74 289.48v40.09H415.79v5.63c.27-3.2.74-6.48 1.42-9.84 2.72-13.44 8.74-28.12 18.29-43.41 4.77-7.65 10.2-15.09 16.16-22.25v.94h78.08v28.84Z"/><path class="cls-135" d="M529.74 289.44v40.13H417.37v5.03c.27-3.16.73-6.4 1.41-9.72 2.69-13.28 8.63-27.77 18.06-42.88 4.71-7.55 10.07-14.9 15.96-21.98v.62h76.94v28.79Z"/><path class="cls-147" d="M529.74 289.39v40.18H418.75v13.52c-.26-5.88.26-12.14 1.59-18.69 2.65-13.11 8.53-27.43 17.84-42.35 4.66-7.46 9.95-14.72 15.77-21.7v.31h75.8v28.75Z"/><path class="cls-89" d="M529.74 289.35v40.23H420.33v12.8c-.26-5.81.26-11.99 1.57-18.46 2.62-12.95 8.42-27.09 17.62-41.82 4.6-7.37 9.83-14.53 15.57-21.43 2.87-3.45 5.87-6.83 8.99-10.14v10.13h65.67v28.7Z"/><path class="cls-139" d="M529.74 289.3v40.27H421.91v12.08c-.25-5.73.26-11.83 1.55-18.23 2.59-12.79 8.32-26.75 17.39-41.29 4.54-7.27 9.7-14.35 15.37-21.16 2.84-3.41 5.8-6.74 8.87-10.01v9.68h64.64v28.66Z"/><path class="cls-82" d="M529.74 289.25v40.32H423.49v11.37c-.25-5.66.25-11.68 1.53-17.99 2.55-12.62 8.21-26.4 17.17-40.76 4.48-7.18 9.58-14.17 15.17-20.89 2.8-3.36 5.72-6.66 8.76-9.88v9.24h63.62v28.61Z"/><path class="cls-43" d="M529.74 289.21v40.36H425.07v10.65c-.25-5.59.25-11.53 1.51-17.76 2.52-12.46 8.1-26.06 16.95-40.23 4.42-7.09 9.45-13.98 14.98-20.62 2.76-3.32 5.65-6.57 8.65-9.75v8.79h62.59v28.56Z"/><path class="cls-87" d="M529.74 289.16v40.41H426.65v9.93c-.24-5.51.25-11.38 1.49-17.53 2.49-12.29 8-25.72 16.72-39.71 4.36-6.99 9.33-13.8 14.78-20.35a208 208 0 0 1 8.53-9.62v8.34h61.56v28.52Z"/><path class="cls-90" d="M529.74 289.12v40.46H428.23v9.21c-.24-5.44.24-11.23 1.47-17.29 2.45-12.13 7.89-25.37 16.5-39.18 4.31-6.9 9.2-13.61 14.58-20.08 2.69-3.23 5.5-6.4 8.42-9.5v7.9h60.54v28.47Z"/><path class="cls-165" d="M529.74 289.07v40.5h-99.93v8.5c-.24-5.37.24-11.08 1.45-17.06 2.42-11.97 7.78-25.03 16.28-38.65 4.25-6.81 9.08-13.43 14.39-19.8 2.65-3.19 5.43-6.31 8.3-9.37v7.45h59.51v28.43Z"/><path class="cls-16" d="M529.74 289.02v40.55h-98.35v7.78c-.23-5.29.24-10.92 1.43-16.83 2.39-11.8 7.68-24.69 16.06-38.12 4.19-6.71 8.95-13.25 14.19-19.53 2.62-3.14 5.35-6.23 8.19-9.24v7.01h58.48v28.38Z"/><path class="cls-56" d="M529.74 288.98v40.59h-96.77v7.06c-.23-5.22.23-10.77 1.41-16.59 2.35-11.64 7.57-24.35 15.83-37.59 4.13-6.62 8.83-13.06 13.99-19.26 2.58-3.1 5.28-6.14 8.08-9.11v6.56h57.46v28.33Z"/><path class="cls-75" d="M529.74 288.93v40.64h-95.18v6.35c-.23-5.15.23-10.62 1.39-16.36 2.32-11.48 7.46-24 15.61-37.06 4.07-6.53 8.71-12.88 13.79-18.99 2.54-3.06 5.2-6.05 7.96-8.98v6.12h56.43v28.29Z"/><path class="cls-142" d="M529.74 288.89v40.69h-93.6v5.63c-.22-5.07.23-10.47 1.37-16.12 2.29-11.31 7.36-23.66 15.39-36.53 4.02-6.43 8.58-12.69 13.6-18.72 2.51-3.01 5.13-5.97 7.85-8.85v5.67h55.4v28.24Z"/><path class="cls-163" d="M529.74 288.84v40.73h-92.02v4.91c-.22-5 .22-10.32 1.35-15.89 2.25-11.15 7.25-23.32 15.16-36s18-24.68 29.46-35.51v13.56h46.05v28.2Z"/><path class="cls-68" d="M529.74 288.79v40.78H439.3v4.19c-.22-4.93.22-10.17 1.33-15.66 2.22-10.98 7.14-22.97 14.94-35.47s17.74-24.31 29.03-34.99v12.99h45.14v28.15Z"/><path class="cls-201" d="M529.74 288.75v40.82h-88.86v3.48c-.21-4.85.22-10.01 1.31-15.42 2.19-10.82 7.04-22.63 14.72-34.94 7.68-12.31 17.47-23.95 28.6-34.46v12.42h44.24v28.1Z"/><path class="cls-78" d="M529.74 288.7v40.87h-87.28v2.76c-.21-4.78.21-9.86 1.29-15.19 2.16-10.66 6.93-22.29 14.49-34.41 7.57-12.12 17.21-23.59 28.16-33.94v11.86h43.34v28.06Z"/><path class="cls-120" d="M529.74 288.66v40.92h-85.7v2.04c-.21-4.7.21-9.71 1.27-14.96 2.12-10.49 6.82-21.95 14.27-33.88 7.45-11.94 16.94-23.23 27.73-33.42v11.29h42.43v28.01Z"/><path class="cls-4" d="M529.74 288.61v40.96h-84.12v1.32c-.2-4.63.21-9.56 1.25-14.72 2.09-10.33 6.72-21.6 14.05-33.35 7.33-11.75 16.68-22.86 27.3-32.9v10.72h41.53v27.97Z"/><path class="cls-199" d="M529.74 288.57v41.01h-80.15v13.35c-5.55-15.67-1.77-36.93 12.66-60.05 7.22-11.56 16.41-22.5 26.86-32.38v10.15h40.62v27.92Z"/><path class="cls-109" d="M529.74 288.52v41.05h-78.6V342c-5.46-15.42-1.74-36.33 12.46-59.09 7.1-11.38 16.15-22.14 26.43-31.85v9.58h39.72v27.87Z"/><path class="cls-81" d="M529.74 288.47v41.1h-77.06v11.5c-5.37-15.17-1.71-35.74 12.25-58.12 6.98-11.19 15.88-21.77 26-31.33v9.02h38.81v27.83Z"/><path class="cls-128" d="M529.74 288.43v41.15h-75.52v10.58c-5.28-14.91-1.68-35.14 12.05-57.15 6.87-11 15.62-21.41 25.56-30.81v8.45h37.91v27.78Z"/><path class="cls-62" d="M529.74 288.38v41.19h-73.98v9.66c-5.19-14.66-1.66-34.55 11.85-56.18 6.75-10.82 15.35-21.05 25.13-30.29v7.88h37v27.74Z"/><path class="cls-108" d="M529.74 288.34v41.24H457.3v8.74c-5.1-14.41-1.63-33.95 11.64-55.21 6.63-10.63 15.09-20.69 24.7-29.76v7.31h36.1v27.69Z"/><path class="cls-167" d="M529.74 288.29v41.28h-70.89v7.81c-5.01-14.15-1.6-33.35 11.44-54.24 6.52-10.44 14.82-20.32 24.26-29.24v6.74h35.19v27.64Z"/><path class="cls-76" d="M529.74 288.24v41.33h-69.35v6.89c-4.92-13.9-1.57-32.76 11.23-53.27 6.4-10.26 14.56-19.96 23.83-28.72v6.17h34.29v27.6Z"/><path class="cls-73" d="M529.74 288.2v41.38h-67.81v5.97c-4.84-13.65-1.54-32.16 11.03-52.31 6.29-10.07 14.29-19.6 23.4-28.2v5.61h33.38v27.55Z"/><path class="cls-133" d="M529.74 288.15v41.42h-66.27v5.05c-4.75-13.4-1.51-31.57 10.82-51.34 6.17-9.88 14.03-19.23 22.96-27.68v5.04h32.48v27.51Z"/><path class="cls-124" d="M529.74 288.11v41.47h-64.73v4.12c-4.66-13.14-1.48-30.97 10.62-50.37 6.05-9.7 13.76-18.87 22.53-27.15v4.47h31.58v27.46Z"/><path class="cls-126" d="M529.74 288.06v41.51h-63.18v3.2c-4.57-12.89-1.46-30.38 10.42-49.4 5.94-9.51 13.5-18.51 22.1-26.63v3.9h30.67v27.41Z"/><path class="cls-114" d="M529.74 288.01v41.56H468.1v2.28c-4.48-12.64-1.43-29.78 10.21-48.43 5.82-9.33 13.24-18.15 21.66-26.11v3.33h29.77v27.37Z"/><path class="cls-119" d="M529.74 287.97v41.6h-60.1v1.36c-4.39-12.39-1.4-29.18 10.01-47.46 5.7-9.14 12.97-17.78 21.23-25.59v2.77h28.86v27.32Z"/><path class="cls-118" d="M529.74 287.92v41.65h-58.56v.43c-4.3-12.13-1.37-28.59 9.8-46.49 5.59-8.95 12.71-17.42 20.8-25.06v2.2h27.96v27.28Z"/><path class="cls-65" d="M529.74 287.88v41.7h-52.55v7.58c-1.92-2.4-3.42-5.1-4.47-8.07-4.21-11.88-1.34-27.99 9.6-45.52 5.47-8.77 12.44-17.06 20.36-24.54v1.63h27.05v27.23Z"/><path class="cls-99" d="M529.74 287.83v41.74h-44.22v12.58c-5.4-3.4-9.19-8.17-11.25-13.99-4.12-11.63-1.31-27.4 9.4-44.56 5.35-8.58 12.18-16.69 19.93-24.02v1.06h26.15v27.19Z"/><path class="cls-205" d="M529.74 287.78v41.79h-42.93v11.35c-5.28-3.32-8.99-8-11.01-13.68-4.03-11.37-1.28-26.8 9.19-43.59 5.24-8.39 11.91-16.33 19.5-23.5v.49h25.24v27.14Z"/><path class="cls-59" d="M529.74 287.74v41.83h-41.63v10.12c-5.17-3.25-8.79-7.82-10.76-13.38-3.94-11.12-1.26-26.21 8.99-42.62 5.12-8.21 11.65-15.97 19.06-22.98 3.71-3.5 7.64-6.82 11.73-9.91v9.83h12.61v27.09Z"/><path class="cls-24" d="M529.74 287.69v41.88h-40.33v8.9c-5.05-3.18-8.59-7.64-10.52-13.08-3.85-10.87-1.23-25.61 8.78-41.65 5-8.02 11.38-15.6 18.63-22.45a136 136 0 0 1 11.46-9.68v9.04h11.97v27.05Z"/><path class="cls-198" d="M529.74 287.65v41.93H509.8v12.88c-31.03-1.07-40.34-27.33-20.78-58.66 4.89-7.83 11.12-15.24 18.2-21.93 3.54-3.35 7.29-6.51 11.19-9.46v8.25h11.34v27Z"/><path class="cls-121" d="M529.74 287.6v41.97h-19.1v11.53c-30.29-1.04-39.38-26.68-20.29-57.27 4.77-7.65 10.85-14.88 17.76-21.41 3.46-3.27 7.12-6.36 10.93-9.23v7.45h10.7v26.96Z"/><path class="cls-166" d="M529.74 287.55v42.02h-18.26v10.18c-29.55-1.01-38.42-26.03-19.79-55.87 4.66-7.46 10.59-14.52 17.33-20.89 3.37-3.19 6.94-6.2 10.66-9.01v6.66h10.06v26.91Z"/><path class="cls-70" d="M529.74 287.51v42.06h-17.42v8.83c-28.82-.99-37.46-25.38-19.3-54.47 9.08-14.55 23.14-27.52 38.53-36.73l-1.81 13.45v26.86Z"/><path class="cls-188" d="M529.74 287.46v42.11h-16.57v7.47c-28.08-.96-36.49-24.73-18.8-53.08 8.85-14.17 22.54-26.81 37.54-35.78l-2.16 12.46v26.82Z"/><path class="cls-144" d="M529.74 287.42v42.16h-15.73v6.12c-27.34-.94-35.53-24.08-18.31-51.68 8.61-13.8 21.95-26.11 36.55-34.84l-2.51 11.47v26.77Z"/><path class="cls-171" d="M529.74 287.37v42.2h-14.89v4.77c-26.6-.91-34.57-23.43-17.81-50.28 8.38-13.43 21.36-25.4 35.56-33.9l-2.86 10.48v26.73Z"/><path class="cls-46" d="M529.74 287.32v42.25H515.7v3.42c-25.86-.89-33.61-22.77-17.32-48.89 8.15-13.06 20.76-24.69 34.58-32.96l-3.21 9.5v26.68Z"/><path class="cls-86" d="M529.74 287.28v41.36h6.76c-6.89 2.14-13.68 3.22-19.96 3-25.12-.86-32.65-22.12-16.82-47.49 7.91-12.68 20.17-23.99 33.59-32.02l-3.56 8.51v26.63Z"/><path class="cls-190" d="M529.74 287.23v40.15h7.01c-6.69 2.07-13.27 3.12-19.37 2.91-24.38-.84-31.69-21.47-16.33-46.09 7.68-12.31 19.58-23.28 32.6-31.08l-3.91 7.52v26.59Z"/><path class="cls-170" d="M529.74 287.19v38.93h7.27c-6.49 2.01-12.87 3.03-18.78 2.82-23.64-.81-30.73-20.82-15.83-44.7 7.45-11.94 18.98-22.58 31.61-30.13l-4.26 6.53v26.54Z"/><path class="cls-110" d="M529.74 287.14v37.71h7.52c-6.28 1.95-12.47 2.93-18.2 2.74-22.9-.79-29.77-20.17-15.34-43.3 7.22-11.56 18.39-21.87 30.63-29.19l-4.61 5.54v26.5Z"/><path class="cls-50" d="M529.74 287.1v36.5h7.78c-6.08 1.89-12.07 2.84-17.61 2.65-22.17-.76-28.81-19.52-14.84-41.9 6.98-11.19 17.8-21.17 29.64-28.25l-4.96 4.56v26.45Z"/><path class="cls-88" d="M529.74 287.05v35.28h8.04c-5.88 1.82-11.67 2.74-17.02 2.56-21.43-.74-27.85-18.87-14.35-40.51 6.75-10.82 17.2-20.46 28.65-27.31l-5.31 3.57v26.4Z"/><path class="cls-158" d="M529.74 287v34.06h8.29c-5.68 1.76-11.26 2.65-16.44 2.47-20.69-.71-26.89-18.22-13.85-39.11 6.52-10.44 16.61-19.76 27.66-26.37l-5.66 2.58v26.36Z"/><path class="cls-77" d="M529.74 286.96v32.85h8.55c-5.47 1.7-10.86 2.55-15.85 2.38-19.95-.68-25.93-17.57-13.36-37.71 6.29-10.07 16.02-19.05 26.67-25.43l-6.01 1.59v26.31Z"/><path class="cls-48" d="M529.74 286.91v31.63h8.8c-5.27 1.63-10.46 2.46-15.26 2.3-19.21-.66-24.97-16.92-12.87-36.32 6.05-9.7 15.42-18.34 25.69-24.48l-6.36.61v26.27Z"/><path class="cls-154" d="M529.74 286.87v30.41h9.06c-5.07 1.57-10.06 2.37-14.67 2.21-18.47-.63-24.01-16.27-12.37-34.92 5.82-9.33 14.83-17.64 24.7-23.54h-6.71v25.84Z"/><path class="cls-72" d="M529.74 286.82v29.2h9.32c-4.86 1.51-9.65 2.27-14.09 2.12-17.73-.61-23.05-15.62-11.88-33.52 5.59-8.95 14.24-16.93 23.71-22.6h-7.06v24.81Z"/><path class="cls-164" d="M529.74 286.77v27.98h9.57c-4.66 1.45-9.25 2.18-13.5 2.03-16.99-.58-22.09-14.97-11.38-32.13 5.35-8.58 13.65-16.23 22.72-21.66h-7.41v23.77Z"/><path class="cls-54" d="M529.74 286.73v26.77h9.83c-4.46 1.38-8.85 2.08-12.91 1.94-16.25-.56-21.13-14.32-10.89-30.73 5.12-8.21 13.05-15.52 21.73-20.72h-7.76v22.74Z"/><path class="cls-42" d="M529.74 286.68v25.55h10.08c-4.26 1.32-8.45 1.99-12.33 1.85-15.52-.53-20.17-13.66-10.39-29.33 4.89-7.83 12.46-14.82 20.75-19.78h-8.11v21.71Z"/><path class="cls-80" d="M529.74 286.64v24.33h10.34c-4.05 1.26-8.05 1.89-11.74 1.77-14.78-.51-19.21-13.01-9.9-27.93 4.66-7.46 11.87-14.11 19.76-18.83h-8.46v20.67Z"/><path class="cls-172" d="M529.74 286.59v23.12h10.6c-3.85 1.19-7.64 1.8-11.15 1.68-14.04-.48-18.25-12.36-9.4-26.54 4.42-7.09 11.27-13.41 18.77-17.89h-8.81v19.64Z"/><path class="cls-186" d="M529.74 286.54v23.49h.29c-13.3-.46-17.29-11.71-8.91-25.14 4.19-6.71 10.68-12.7 17.78-16.95h-9.16v18.6Z"/><path class="cls-152" d="M529.74 286.5v22.18h1.13c-12.56-.43-16.33-11.06-8.41-23.74 3.96-6.34 10.09-11.99 16.79-16.01h-9.51v17.57Z"/><path class="cls-194" d="M529.74 286.45v20.88h1.97c-11.82-.41-15.37-10.41-7.92-22.35 3.72-5.97 9.49-11.29 15.81-15.07h-9.86v16.54Z"/><path class="cls-37" d="M529.74 286.41v19.57h2.82c-11.08-.38-14.41-9.76-7.42-20.95 3.49-5.6 8.9-10.58 14.82-14.13h-10.21v15.5Z"/><path class="cls-45" d="M529.74 286.36v18.27h3.66c-10.34-.36-13.45-9.11-6.93-19.55 3.26-5.22 8.31-9.88 13.83-13.18h-10.56v14.47Z"/><path class="cls-15" d="M529.74 286.31v16.96h4.5c-9.6-.33-12.49-8.46-6.43-18.16 3.03-4.85 7.71-9.17 12.84-12.24h-10.91v13.44Z"/><path class="cls-200" d="M529.74 286.27v15.66h5.34c-8.87-.3-11.52-7.81-5.94-16.76 2.79-4.48 7.12-8.47 11.85-11.3h-11.26v12.4Z"/><path class="cls-176" d="M529.74 286.22v14.35h6.19c-8.13-.28-10.56-7.16-5.44-15.36h-.74v1.01Z"/><path class="cls-11" d="M529.74 286.18v13.05h7.03c-7.39-.25-9.6-6.51-4.95-13.97h-2.08v.92Z"/><path class="cls-10" d="M529.74 286.13v11.74h7.87c-6.65-.23-8.64-5.86-4.45-12.57h-3.42v.83Z"/></g><path class="cls-47" d="M415.21 276.68v5.4l5.39 3.11v-5.4l-5.39-3.11zM503.41 327.6v5.4l-5.38-3.11v-5.4l5.38 3.11z"/><path class="cls-41" d="M392.48 258.65c-1.92-5.97-6.46-11.72-13.64-16.62l.81.27v-2.64l-11.51-5.43-10.93-5-14.15-3.07h-12.09l-14.02.9-14.02 2.83-7.97 5.02 1.48.41c-3.31 1.28-6.47 2.77-9.4 4.46l5.38 3.11c21.38-12.34 56.05-12.34 77.43 0 10.74 6.2 16.08 14.34 16.03 22.47 1.59-2.72 3.83-4.63 6.56-6.7Z"/><path class="cls-182" d="M393.13 261.19c-.17-.85-.38-1.69-.65-2.54-2.73 2.07-4.97 3.99-6.56 6.7-.05 8.05-5.39 16.1-16.03 22.24l5.38 3.11c12.14-7.01 18.22-16.18 18.26-25.36v-5.47l-.4 1.31Z"/><g style="clip-path:url(#clippath-1)"><path class="cls-47" d="M287.06 220.32h112.56v64.99H287.06z"/><path class="cls-47" d="M401.59 249.99v37.28h-116.5v-68.92h116.5v31.64z"/><path class="cls-100" d="M401.59 249.94v37.33h-116.5v-68.92h116.5v31.59z"/><path class="cls-112" d="M401.59 249.89v37.38h-116.5v-68.92h116.5v31.54z"/><path class="cls-141" d="M401.59 249.85v37.42h-116.5v-68.92h116.5v31.5z"/><path class="cls-195" d="M401.59 249.8v37.47h-116.5v-68.92h116.5v31.45z"/><path class="cls-191" d="M401.59 249.76v37.51h-116.5v-68.92h116.5v31.41z"/><path class="cls-197" d="M401.59 249.71v37.56h-116.5v-68.92h116.5v31.36z"/><path class="cls-93" d="M401.59 249.67v37.6h-116.5v-68.92h116.5v31.32z"/><path class="cls-13" d="M401.59 249.62v37.65h-116.5v-68.92h116.5v31.27z"/><path class="cls-67" d="M401.59 249.57v37.7h-116.5v-68.92h116.5v31.22z"/><path class="cls-115" d="M401.59 249.53v37.74h-116.5v-68.92h116.5v31.18z"/><path class="cls-181" d="M401.59 249.48v37.79h-116.5v-68.92h116.5v31.13z"/><path class="cls-58" d="M401.59 249.44v37.83h-116.5v-68.92h116.5v31.09z"/><path class="cls-159" d="M401.59 249.39v37.88h-116.5v-68.92h116.5v31.04z"/><path class="cls-91" d="M401.59 249.34v37.93h-116.5v-68.92h116.5v30.99z"/><path class="cls-28" d="M401.59 249.3v37.97h-116.5v-68.92h116.5v30.95z"/><path class="cls-95" d="M401.59 249.25v38.02h-116.5v-68.92h116.5v30.9z"/><path class="cls-25" d="M401.59 249.21v38.06h-116.5v-68.92h116.5v30.86z"/><path class="cls-127" d="M401.59 249.16v38.11h-116.5v-68.92h116.5v30.81z"/><path class="cls-196" d="M401.59 249.11v38.16h-116.5v-68.92h116.5v30.76z"/><path class="cls-132" d="M401.59 249.07v38.2h-116.5v-68.92h116.5v30.72z"/><path class="cls-168" d="M401.59 249.02v38.25h-116.5v-68.92h116.5v30.67z"/><path class="cls-21" d="M401.59 248.98v38.29h-116.5v-68.92h116.5v30.63z"/><path class="cls-130" d="M401.59 248.93v38.34h-116.5v-68.92h116.5v30.58z"/><path class="cls-105" d="M401.59 248.88v38.39h-116.5v-68.92h116.5v30.53z"/><path class="cls-151" d="M401.59 248.84v38.43h-116.5v-68.92h116.5v30.49z"/><path class="cls-36" d="M401.59 248.79v38.48h-116.5v-68.92h116.5v30.44z"/><path class="cls-71" d="M401.59 248.75v38.52h-116.5v-68.92h116.5v30.4z"/><path class="cls-148" d="M401.59 248.7v38.57h-116.5v-64.99h-11.18c3.78-5.2 7.78-10.32 11.96-15.34v11.41h115.72v30.35Z"/><path class="cls-206" d="M401.59 248.65v38.62h-116.5v-64.81h-9.94c3.75-5.16 7.71-10.23 11.85-15.21v11.09h114.58v30.31Z"/><path class="cls-18" d="M401.59 248.61v38.66h-116.5v-64.63h-8.69a295.67 295.67 0 0 1 11.75-15.08v10.78h113.44v30.26Z"/><path class="cls-208" d="M401.59 248.56v38.71h-116.5v-64.44h-7.45c3.69-5.07 7.57-10.05 11.64-14.94v10.46h112.3v30.22Z"/><path class="cls-3" d="M401.59 248.52v38.76h-116.5v-64.26h-6.2c3.65-5.02 7.51-9.96 11.54-14.81v10.14h111.16v30.17Z"/><path class="cls-140" d="M401.59 248.47v38.8h-116.5v-64.08h-4.96c3.62-4.98 7.44-9.87 11.44-14.68v9.82h110.02v30.13Z"/><path class="cls-106" d="M401.59 248.42v38.85h-116.5v-63.89h-3.71c3.59-4.93 7.37-9.78 11.33-14.54v9.51h108.88v30.08Z"/><path class="cls-173" d="M401.59 248.38v38.89h-116.5v-48.82h-12.52c6.29-10.07 13.43-19.87 21.28-29.3v9.19h107.74v30.03Z"/><path class="cls-35" d="M401.59 248.33v38.94h-116.5V238.5h-11.18c6.23-9.98 13.31-19.69 21.09-29.03v8.87h106.6v29.99Z"/><path class="cls-2" d="M401.59 248.29v38.99h-116.5v-48.73h-9.85c6.17-9.88 13.18-19.5 20.89-28.76v8.56h105.46v29.94Z"/><path class="cls-192" d="M401.59 248.24v39.03h-116.5v-48.68h-8.51c6.11-9.79 13.06-19.32 20.69-28.49v8.24h104.32v29.9Z"/><path class="cls-156" d="M401.59 248.19v39.08h-116.5v-48.63h-7.17c6.05-9.7 12.93-19.13 20.5-28.22v7.92H401.6v29.85Z"/><path class="cls-57" d="M401.59 248.15v39.12h-116.5v-48.59h-5.83c5.99-9.61 12.81-18.95 20.3-27.94v7.6h102.03v29.8Z"/><path class="cls-63" d="M401.59 248.1v39.17h-116.5v-48.54h-4.5c5.94-9.51 12.69-18.77 20.1-27.67v7.29h100.89v29.76Z"/><path class="cls-102" d="M401.59 248.06v39.22h-116.5v-48.5h-3.16c5.88-9.42 12.56-18.58 19.9-27.4v6.97h99.75v29.71Z"/><path class="cls-83" d="M401.59 248.01v39.26h-116.5v-48.45h-1.82c5.82-9.33 12.44-18.4 19.71-27.13v6.65h98.61v29.67Z"/><path class="cls-123" d="M401.59 247.97v39.31h-116.5v-48.4h-.48c5.76-9.23 12.31-18.21 19.51-26.86v6.33h97.47v29.62Z"/><path class="cls-107" d="M401.59 247.92v39.35h-116.5v-21.59h-13.13c3.63-8.68 8.28-17.63 13.99-26.77 5.7-9.14 12.19-18.03 19.31-26.59v6.02h96.33v29.57Z"/><path class="cls-122" d="M401.59 247.87v39.4h-116.5v-21.81h-11.65c3.59-8.59 8.2-17.45 13.84-26.5 5.65-9.05 12.06-17.85 19.12-26.32v5.7h95.19v29.53Z"/><path class="cls-79" d="M401.59 247.83v39.45h-116.5v-22.04h-10.17c3.56-8.5 8.11-17.27 13.7-26.22s11.94-17.66 18.92-26.04v5.38h94.05v29.48Z"/><path class="cls-117" d="M401.59 247.78v39.49h-116.5V265h-8.69c3.52-8.41 8.03-17.09 13.56-25.95 5.53-8.86 11.82-17.48 18.72-25.77v5.07h92.91v29.44Z"/><path class="cls-55" d="M401.59 247.74v39.54h-116.5v-22.5h-7.21c3.48-8.32 7.94-16.91 13.41-25.68s11.69-17.29 18.52-25.5v4.75h91.77v29.39Z"/><path class="cls-26" d="M401.59 247.69v39.58h-116.5l-13.19 1.11c3.08-15.25 9.91-31.89 20.74-49.23 5.41-8.67 11.57-17.11 18.33-25.23v4.43h90.63v29.34Z"/><path class="cls-103" d="M401.59 247.64v39.63h-116.5l-11.63.62c3.05-15.08 9.81-31.55 20.52-48.71 5.35-8.58 11.44-16.93 18.13-24.96v4.11h89.49v29.3Z"/><path class="cls-116" d="M401.59 247.6v39.68h-116.5l-10.07.14c3.02-14.92 9.7-31.2 20.29-48.18 5.3-8.49 11.32-16.74 17.93-24.69v3.8h88.35v29.25Z"/><path class="cls-131" d="M401.59 247.55v39.72h-116.5v-.34h-8.51c2.98-14.75 9.59-30.86 20.07-47.65 5.24-8.39 11.19-16.56 17.74-24.42v3.48h87.21v29.21Z"/><path class="cls-202" d="M401.59 247.51v39.77h-116.5v-.83h-6.95c2.95-14.59 9.49-30.52 19.85-47.12 5.18-8.3 11.07-16.37 17.54-24.15v3.16h86.06v29.16Z"/><path class="cls-61" d="M401.59 247.46v39.81h-116.5v-1.31h-5.39c2.92-14.43 9.38-30.17 19.62-46.59 5.12-8.21 10.94-16.19 17.34-23.87v2.84h84.92v29.11Z"/><path class="cls-27" d="M401.59 247.41v39.86h-116.5v-1.79h-3.83c2.88-14.26 9.27-29.83 19.4-46.06 5.06-8.11 10.82-16.01 17.15-23.6v2.53h83.78v29.07Z"/><path class="cls-145" d="M401.59 247.37v39.91h-116.5V285h-2.27c2.85-14.1 9.17-29.49 19.18-45.53 5-8.02 10.7-15.82 16.95-23.33v2.21h82.64v29.02Z"/><path class="cls-19" d="M401.59 247.32v39.95h-116.5v-2.76h-.71c2.82-13.93 9.06-29.15 18.95-45 4.95-7.93 10.57-15.64 16.75-23.06v1.89h81.5v28.98Z"/><path class="cls-74" d="M401.59 247.28v40h-116.5l-.6 6.84c.28-3.27.76-6.64 1.46-10.08 2.79-13.77 8.95-28.8 18.73-44.47 4.89-7.83 10.45-15.45 16.55-22.79v1.58h80.36v28.93Z"/><path class="cls-193" d="M401.59 247.23v40.04H286.06v6.23c.27-3.24.75-6.56 1.44-9.96 2.75-13.61 8.85-28.46 18.51-43.94 4.83-7.74 10.32-15.27 16.36-22.52v1.26h79.22v28.88Z"/><path class="cls-52" d="M401.59 247.18v40.09H287.64v5.63c.27-3.2.74-6.48 1.42-9.84 2.72-13.44 8.74-28.12 18.29-43.41 4.77-7.65 10.2-15.09 16.16-22.25v.94h78.08v28.84Z"/><path class="cls-135" d="M401.59 247.14v40.13H289.22v5.03c.27-3.16.73-6.4 1.41-9.72 2.69-13.28 8.63-27.77 18.06-42.88 4.71-7.55 10.07-14.9 15.96-21.98v.62h76.94v28.79Z"/><path class="cls-147" d="M401.59 247.09v40.18H290.6v13.52c-.26-5.88.26-12.14 1.59-18.69 2.65-13.11 8.53-27.43 17.84-42.35 4.66-7.46 9.95-14.72 15.77-21.7v.31h75.8v28.75Z"/><path class="cls-89" d="M401.59 247.05v40.23H292.18v12.8c-.26-5.81.26-11.99 1.57-18.46 2.62-12.95 8.42-27.09 17.62-41.82 4.6-7.37 9.83-14.53 15.57-21.43 2.87-3.45 5.87-6.83 8.99-10.14v10.13h65.67v28.7Z"/><path class="cls-139" d="M401.59 247v40.27H293.76v12.08c-.25-5.73.26-11.83 1.55-18.23 2.59-12.79 8.32-26.75 17.39-41.29 4.54-7.27 9.7-14.35 15.37-21.16 2.84-3.41 5.8-6.74 8.87-10.01v9.68h64.64V247Z"/><path class="cls-82" d="M401.59 246.95v40.32H295.34v11.37c-.25-5.66.25-11.68 1.53-17.99 2.55-12.62 8.21-26.4 17.17-40.76 4.48-7.18 9.58-14.17 15.17-20.89 2.8-3.36 5.72-6.66 8.76-9.88v9.24h63.62v28.61Z"/><path class="cls-43" d="M401.59 246.91v40.36H296.92v10.65c-.25-5.59.25-11.53 1.51-17.76 2.52-12.46 8.1-26.06 16.95-40.23 4.42-7.09 9.45-13.98 14.98-20.62 2.76-3.32 5.65-6.57 8.65-9.75v8.79h62.59v28.56Z"/><path class="cls-87" d="M401.59 246.86v40.41H298.5v9.93c-.24-5.51.25-11.38 1.49-17.53 2.49-12.29 8-25.72 16.72-39.71 4.36-6.99 9.33-13.8 14.78-20.35a208 208 0 0 1 8.53-9.62v8.34h61.56v28.52Z"/><path class="cls-90" d="M401.59 246.82v40.46H300.08v9.21c-.24-5.44.24-11.23 1.47-17.29 2.45-12.13 7.89-25.37 16.5-39.18 4.31-6.9 9.2-13.61 14.58-20.08 2.69-3.23 5.5-6.4 8.42-9.5v7.9h60.54v28.47Z"/><path class="cls-165" d="M401.59 246.77v40.5h-99.93v8.5c-.24-5.37.24-11.08 1.45-17.06 2.42-11.97 7.78-25.03 16.28-38.65 4.25-6.81 9.08-13.43 14.39-19.8 2.65-3.19 5.43-6.31 8.3-9.37v7.45h59.51v28.43Z"/><path class="cls-16" d="M401.59 246.73v40.55h-98.35v7.78c-.23-5.29.24-10.92 1.43-16.83 2.39-11.8 7.68-24.69 16.06-38.12 4.19-6.71 8.95-13.25 14.19-19.53 2.62-3.14 5.35-6.23 8.19-9.24v7.01h58.48v28.38Z"/><path class="cls-56" d="M401.59 246.68v40.59h-96.77v7.06c-.23-5.22.23-10.77 1.41-16.59 2.35-11.64 7.57-24.35 15.83-37.59 4.13-6.62 8.83-13.06 13.99-19.26 2.58-3.1 5.28-6.14 8.08-9.11v6.56h57.46v28.33Z"/><path class="cls-75" d="M401.59 246.63v40.64h-95.18v6.35c-.23-5.15.23-10.62 1.39-16.36 2.32-11.48 7.46-24 15.61-37.06 4.07-6.53 8.71-12.88 13.79-18.99 2.54-3.06 5.2-6.05 7.96-8.98v6.12h56.43v28.29Z"/><path class="cls-142" d="M401.59 246.59v40.69h-93.6v5.63c-.22-5.07.23-10.47 1.37-16.12 2.29-11.31 7.36-23.66 15.39-36.53 4.02-6.43 8.58-12.69 13.6-18.72 2.51-3.01 5.13-5.97 7.85-8.85v5.67h55.4v28.24Z"/><path class="cls-163" d="M401.59 246.54v40.73h-92.02v4.91c-.22-5 .22-10.32 1.35-15.89 2.25-11.15 7.25-23.32 15.16-36s18-24.68 29.46-35.51v13.56h46.05v28.2Z"/><path class="cls-68" d="M401.59 246.5v40.78h-90.44v4.19c-.22-4.93.22-10.17 1.33-15.66 2.22-10.98 7.14-22.97 14.94-35.47s17.74-24.31 29.03-34.99v12.99h45.14v28.15Z"/><path class="cls-201" d="M401.59 246.45v40.82h-88.86v3.48c-.21-4.85.22-10.01 1.31-15.42 2.19-10.82 7.04-22.63 14.72-34.94 7.68-12.31 17.47-23.95 28.59-34.46v12.42h44.24v28.1Z"/><path class="cls-78" d="M401.59 246.4v40.87h-87.28v2.76c-.21-4.78.21-9.86 1.29-15.19 2.16-10.66 6.93-22.29 14.49-34.41 7.57-12.12 17.21-23.59 28.16-33.94v11.86h43.33v28.06Z"/><path class="cls-120" d="M401.59 246.36v40.92h-85.7v2.04c-.21-4.7.21-9.71 1.27-14.96 2.12-10.49 6.82-21.95 14.27-33.88 7.45-11.94 16.94-23.23 27.73-33.42v11.29h42.43v28.01Z"/><path class="cls-4" d="M401.59 246.31v40.96h-84.12v1.32c-.2-4.63.21-9.56 1.25-14.72 2.09-10.33 6.72-21.6 14.05-33.35 7.33-11.75 16.68-22.86 27.3-32.9v10.72h41.53v27.97Z"/><path class="cls-199" d="M401.59 246.27v41.01h-80.15v13.35c-5.55-15.67-1.77-36.93 12.66-60.05 7.22-11.56 16.41-22.5 26.86-32.38v10.15h40.62v27.92Z"/><path class="cls-109" d="M401.59 246.22v41.05h-78.6v12.43c-5.46-15.42-1.74-36.33 12.46-59.09 7.1-11.38 16.15-22.14 26.43-31.85v9.58h39.72v27.87Z"/><path class="cls-81" d="M401.59 246.17v41.1h-77.06v11.5c-5.37-15.17-1.71-35.74 12.25-58.12 6.98-11.19 15.88-21.77 26-31.33v9.02h38.81v27.83Z"/><path class="cls-128" d="M401.59 246.13v41.15h-75.52v10.58c-5.28-14.91-1.68-35.14 12.05-57.15 6.87-11 15.62-21.41 25.56-30.81v8.45h37.91v27.78Z"/><path class="cls-62" d="M401.59 246.08v41.19h-73.98v9.66c-5.19-14.66-1.66-34.55 11.85-56.18 6.75-10.82 15.35-21.05 25.13-30.29v7.88h37v27.74Z"/><path class="cls-108" d="M401.59 246.04v41.24h-72.44v8.74c-5.1-14.41-1.63-33.95 11.64-55.21 6.63-10.63 15.09-20.69 24.7-29.76v7.31h36.1v27.69Z"/><path class="cls-167" d="M401.59 245.99v41.28H330.7v7.81c-5.01-14.15-1.6-33.35 11.44-54.24 6.52-10.44 14.82-20.32 24.26-29.24v6.74h35.19v27.64Z"/><path class="cls-76" d="M401.59 245.94v41.33h-69.35v6.89c-4.93-13.9-1.57-32.76 11.23-53.27 6.4-10.26 14.56-19.96 23.83-28.72v6.17h34.29v27.6Z"/><path class="cls-73" d="M401.59 245.9v41.38h-67.81v5.97c-4.84-13.65-1.54-32.16 11.03-52.31 6.29-10.07 14.29-19.6 23.4-28.2v5.61h33.38v27.55Z"/><path class="cls-133" d="M401.59 245.85v41.42h-66.27v5.05c-4.75-13.4-1.51-31.57 10.82-51.34 6.17-9.88 14.03-19.23 22.96-27.68v5.04h32.48v27.51Z"/><path class="cls-124" d="M401.59 245.81v41.47h-64.73v4.12c-4.66-13.14-1.48-30.97 10.62-50.37 6.05-9.7 13.76-18.87 22.53-27.15v4.47h31.58v27.46Z"/><path class="cls-126" d="M401.59 245.76v41.51h-63.18v3.2c-4.57-12.89-1.46-30.38 10.42-49.4 5.94-9.51 13.5-18.51 22.1-26.63v3.9h30.67v27.41Z"/><path class="cls-114" d="M401.59 245.71v41.56h-61.64v2.28c-4.48-12.64-1.43-29.78 10.21-48.43 5.82-9.33 13.24-18.15 21.66-26.11v3.33h29.77v27.37Z"/><path class="cls-119" d="M401.59 245.67v41.6h-60.1v1.36c-4.39-12.39-1.4-29.18 10.01-47.46 5.7-9.14 12.97-17.78 21.23-25.59v2.77h28.86v27.32Z"/><path class="cls-118" d="M401.59 245.62v41.65h-58.56v.43c-4.3-12.13-1.37-28.59 9.8-46.49 5.59-8.95 12.71-17.42 20.8-25.06v2.2h27.96v27.28Z"/><path class="cls-65" d="M401.59 245.58v41.7h-52.55v7.58c-1.92-2.4-3.42-5.1-4.47-8.07-4.21-11.88-1.34-27.99 9.6-45.52 5.47-8.77 12.44-17.06 20.36-24.54v1.63h27.05v27.23Z"/><path class="cls-99" d="M401.59 245.53v41.74h-44.22v12.58c-5.4-3.4-9.19-8.17-11.25-13.99-4.12-11.63-1.31-27.4 9.4-44.56 5.35-8.58 12.18-16.69 19.93-24.02v1.06h26.15v27.19Z"/><path class="cls-205" d="M401.59 245.48v41.79h-42.93v11.35c-5.28-3.32-8.99-8-11.01-13.68-4.03-11.37-1.28-26.8 9.19-43.59 5.24-8.39 11.91-16.33 19.5-23.5v.49h25.24v27.14Z"/><path class="cls-59" d="M401.59 245.44v41.83h-41.63v10.12c-5.17-3.25-8.79-7.82-10.76-13.38-3.94-11.12-1.26-26.21 8.99-42.62 5.12-8.21 11.65-15.97 19.06-22.98 3.71-3.5 7.64-6.82 11.73-9.91v9.83h12.61v27.09Z"/><path class="cls-24" d="M401.59 245.39v41.88h-40.33v8.9c-5.05-3.18-8.59-7.64-10.52-13.08-3.85-10.87-1.23-25.61 8.78-41.65 5-8.02 11.38-15.6 18.63-22.45a136 136 0 0 1 11.46-9.68v9.04h11.97v27.05Z"/><path class="cls-198" d="M401.59 245.35v41.93h-19.94v12.88c-31.03-1.07-40.34-27.33-20.78-58.66 4.89-7.83 11.12-15.24 18.2-21.93 3.54-3.35 7.29-6.51 11.19-9.46v8.25h11.34v27Z"/><path class="cls-121" d="M401.59 245.3v41.97h-19.1v11.53c-30.29-1.04-39.38-26.68-20.29-57.27 4.77-7.65 10.85-14.88 17.76-21.41 3.46-3.27 7.12-6.36 10.93-9.23v7.45h10.7v26.96Z"/><path class="cls-166" d="M401.59 245.26v42.02h-18.26v10.18c-29.55-1.01-38.42-26.03-19.79-55.87 4.66-7.46 10.59-14.52 17.33-20.89 3.37-3.19 6.94-6.2 10.66-9.01v6.66h10.06v26.91Z"/><path class="cls-70" d="M401.59 245.21v42.06h-17.42v8.83c-28.82-.99-37.46-25.38-19.3-54.47 9.08-14.55 23.14-27.52 38.53-36.73l-1.81 13.45v26.86Z"/><path class="cls-188" d="M401.59 245.16v42.11h-16.57v7.47c-28.08-.96-36.49-24.73-18.8-53.08 8.85-14.17 22.54-26.81 37.54-35.78l-2.16 12.46v26.82Z"/><path class="cls-144" d="M401.59 245.12v42.16h-15.73v6.12c-27.34-.94-35.53-24.08-18.31-51.68 8.61-13.8 21.95-26.11 36.55-34.84l-2.51 11.47v26.77Z"/><path class="cls-171" d="M401.59 245.07v42.2H386.7v4.77c-26.6-.91-34.57-23.43-17.81-50.28 8.38-13.43 21.36-25.4 35.56-33.9l-2.86 10.48v26.73Z"/><path class="cls-46" d="M401.59 245.03v42.25h-14.04v3.42c-25.86-.89-33.61-22.77-17.32-48.89 8.15-13.06 20.76-24.69 34.58-32.96l-3.21 9.5v26.68Z"/><path class="cls-86" d="M401.59 244.98v41.36h6.76c-6.89 2.14-13.68 3.22-19.96 3-25.12-.86-32.65-22.12-16.82-47.49 7.91-12.68 20.17-23.99 33.59-32.02l-3.56 8.51v26.63Z"/><path class="cls-190" d="M401.59 244.93v40.15h7.01c-6.69 2.07-13.27 3.12-19.37 2.91-24.38-.84-31.69-21.47-16.33-46.09 7.68-12.31 19.58-23.28 32.6-31.08l-3.91 7.52v26.59Z"/><path class="cls-170" d="M401.59 244.89v38.93h7.27c-6.49 2.01-12.87 3.03-18.78 2.82-23.64-.81-30.73-20.82-15.83-44.7 7.45-11.94 18.98-22.58 31.61-30.13l-4.26 6.53v26.54Z"/><path class="cls-110" d="M401.59 244.84v37.71h7.52c-6.28 1.95-12.47 2.93-18.2 2.74-22.9-.79-29.77-20.17-15.34-43.3 7.22-11.56 18.39-21.87 30.63-29.19l-4.61 5.54v26.5Z"/><path class="cls-50" d="M401.59 244.8v36.5h7.78c-6.08 1.89-12.07 2.84-17.61 2.65-22.17-.76-28.81-19.52-14.84-41.9 6.98-11.19 17.8-21.17 29.64-28.25l-4.96 4.56v26.45Z"/><path class="cls-88" d="M401.59 244.75v35.28h8.04c-5.88 1.82-11.67 2.74-17.02 2.56-21.43-.74-27.85-18.87-14.35-40.51 6.75-10.82 17.2-20.46 28.65-27.31l-5.31 3.57v26.4Z"/><path class="cls-158" d="M401.59 244.7v34.06h8.29c-5.68 1.76-11.26 2.65-16.44 2.47-20.69-.71-26.89-18.22-13.85-39.11 6.52-10.44 16.61-19.76 27.66-26.37l-5.66 2.58v26.36Z"/><path class="cls-77" d="M401.59 244.66v32.85h8.55c-5.47 1.7-10.86 2.55-15.85 2.38-19.95-.69-25.93-17.57-13.36-37.71 6.29-10.07 16.02-19.05 26.67-25.43l-6.01 1.59v26.31Z"/><path class="cls-48" d="M401.59 244.61v31.63h8.8c-5.27 1.63-10.46 2.46-15.26 2.3-19.21-.66-24.97-16.92-12.87-36.32 6.05-9.7 15.42-18.34 25.69-24.48l-6.36.61v26.27Z"/><path class="cls-154" d="M401.59 244.57v30.41h9.06c-5.07 1.57-10.06 2.37-14.67 2.21-18.47-.63-24.01-16.27-12.37-34.92 5.82-9.33 14.83-17.64 24.7-23.54h-6.71v25.84Z"/><path class="cls-72" d="M401.59 244.52v29.2h9.32c-4.87 1.51-9.65 2.27-14.09 2.12-17.73-.61-23.05-15.62-11.88-33.52 5.59-8.95 14.24-16.93 23.71-22.6h-7.06v24.81Z"/><path class="cls-164" d="M401.59 244.47v27.98h9.57c-4.66 1.45-9.25 2.18-13.5 2.03-16.99-.58-22.09-14.97-11.38-32.13 5.35-8.58 13.65-16.23 22.72-21.66h-7.41v23.77Z"/><path class="cls-54" d="M401.59 244.43v26.77h9.83c-4.46 1.38-8.85 2.08-12.91 1.94-16.25-.56-21.13-14.32-10.89-30.73 5.12-8.21 13.05-15.52 21.73-20.72h-7.76v22.74Z"/><path class="cls-42" d="M401.59 244.38v25.55h10.08c-4.26 1.32-8.45 1.99-12.33 1.85-15.52-.53-20.17-13.66-10.39-29.33 4.89-7.83 12.46-14.82 20.75-19.78h-8.11v21.71Z"/><path class="cls-80" d="M401.59 244.34v24.33h10.34c-4.05 1.26-8.05 1.89-11.74 1.77-14.78-.51-19.21-13.01-9.9-27.93 4.66-7.46 11.87-14.11 19.76-18.83h-8.46v20.67Z"/><path class="cls-172" d="M401.59 244.29v23.12h10.6c-3.85 1.19-7.64 1.8-11.15 1.68-14.04-.48-18.25-12.36-9.4-26.54 4.42-7.09 11.27-13.41 18.77-17.89h-8.81v19.64Z"/><path class="cls-186" d="M401.59 244.24v23.49h.29c-13.3-.46-17.29-11.71-8.91-25.14 4.19-6.71 10.68-12.7 17.78-16.95h-9.16v18.6Z"/><path class="cls-152" d="M401.59 244.2v22.18h1.13c-12.56-.43-16.33-11.06-8.41-23.74 3.96-6.34 10.09-11.99 16.79-16.01h-9.51v17.57Z"/><path class="cls-194" d="M401.59 244.15v20.88h1.97c-11.82-.41-15.37-10.41-7.92-22.35 3.72-5.97 9.49-11.29 15.81-15.07h-9.86v16.54Z"/><path class="cls-37" d="M401.59 244.11v19.57h2.82c-11.08-.38-14.41-9.76-7.42-20.95 3.49-5.6 8.9-10.58 14.82-14.13H401.6v15.5Z"/><path class="cls-45" d="M401.59 244.06v18.27h3.66c-10.34-.36-13.45-9.11-6.93-19.55 3.26-5.22 8.31-9.88 13.83-13.18h-10.56v14.47Z"/><path class="cls-15" d="M401.59 244.01v16.96h4.5c-9.61-.33-12.49-8.46-6.43-18.16 3.03-4.85 7.71-9.17 12.84-12.24h-10.91v13.44Z"/><path class="cls-200" d="M401.59 243.97v15.66h5.34c-8.87-.3-11.52-7.81-5.94-16.76 2.79-4.48 7.12-8.47 11.86-11.3h-11.26v12.4Z"/><path class="cls-176" d="M401.59 243.92v14.35h6.19c-8.13-.28-10.56-7.16-5.44-15.36h-.74v1.01Z"/><path class="cls-11" d="M401.59 243.88v13.05h7.03c-7.39-.25-9.6-6.51-4.95-13.97h-2.08v.92Z"/><path class="cls-10" d="M401.59 243.83v11.74h7.87c-6.65-.23-8.64-5.86-4.45-12.57h-3.42v.83Z"/></g><path class="cls-47" d="M287.06 234.38v5.4l5.39 3.11v-5.4l-5.39-3.11zM375.26 285.3v5.4l-5.38-3.11v-5.4l5.38 3.11z"/><path d="M348.01 284.87c-2.52 12.73-14.88 21-27.61 18.48-12.73-2.52-21-14.88-18.48-27.61 2.52-12.73 14.88-21 27.61-18.48 12.73 2.52 21 14.88 18.48 27.61Z" style="fill:url(#_Áåçûìÿííûé_ãðàäèåíò_16)"/><path d="M446.27 315.06c0 45.6-27.15 82.56-60.65 82.56s-60.65-36.97-60.65-82.56 27.15-59.26 60.65-59.26 60.65 13.66 60.65 59.26Z" style="fill:url(#_Áåçûìÿííûé_ãðàäèåíò_16-2)"/><ellipse class="cls-47" cx="385.62" cy="280.31" rx="41.39" ry="23.9"/><path class="cls-153" d="M356.35 269.78c16.16-9.33 42.37-9.33 58.54 0 6.68 3.85 10.59 8.7 11.75 13.72 1.65-7.13-2.26-14.6-11.75-20.08-16.17-9.33-42.37-9.33-58.54 0-9.49 5.48-13.4 12.95-11.75 20.08 1.16-5.02 5.07-9.86 11.75-13.72Z"/><path d="m337.84 223.52 7.49-12.9c4.4-4.57 7.93-10.64 9.71-16.74l7.58-13.07-10.91-6.26c-.35-.24-.71-.45-1.09-.63-3.1-1.47-7.22-1.08-11.75 1.54-9.64 5.57-17.46 19.1-17.46 30.24 0 5.56 1.95 9.47 5.11 11.3s11.31 6.52 11.31 6.52Z" style="fill:url(#_Áåçûìÿííûé_ãðàäèåíò_16-3)"/><path class="cls-20" d="M367.56 192.01c0 11.13-7.82 24.67-17.46 30.24-9.64 5.57-17.46 1.05-17.46-10.08s7.82-24.67 17.46-30.24c9.64-5.57 17.46-1.05 17.46 10.08Z"/><circle cx="388.03" cy="223.27" r="61.86" transform="rotate(-45 388.024 223.275)" style="fill:url(#_Áåçûìÿííûé_ãðàäèåíò_16-4)"/><path d="m422.64 265.1 7.49-12.9c4.4-4.57 7.93-10.64 9.71-16.74l7.58-13.07-10.91-6.26c-.35-.24-.71-.45-1.09-.63-3.1-1.47-7.22-1.08-11.75 1.54-9.64 5.57-17.46 19.1-17.46 30.24 0 5.56 1.95 9.47 5.11 11.3s11.31 6.52 11.31 6.52Z" style="fill:url(#_Áåçûìÿííûé_ãðàäèåíò_16-5)"/><path class="cls-20" d="M452.37 233.6c0 11.13-7.82 24.67-17.46 30.24-9.64 5.57-17.46 1.05-17.46-10.08s7.82-24.67 17.46-30.24c9.64-5.57 17.46-1.05 17.46 10.08Z"/><path class="cls-17" d="M418.25 253.9c0-11.13 7.82-24.67 17.46-30.24 3.34-1.93 6.46-2.65 9.12-2.3-2.82-.62-6.23.03-9.92 2.15-9.64 5.57-17.46 19.11-17.46 30.24 0 7.28 3.34 11.72 8.34 12.38-4.56-1.01-7.54-5.35-7.54-12.23Z"/><path class="cls-47" d="M447.39 236.47c0 7.96-5.59 17.64-12.48 21.61-6.89 3.98-12.48.75-12.48-7.2s5.59-17.64 12.48-21.61c6.89-3.98 12.48-.75 12.48 7.2Z"/><path class="cls-153" d="M442.08 227.75c1.29 1.52 2.05 3.8 2.05 6.72 0 7.96-5.59 17.64-12.48 21.61-2.67 1.54-5.14 2-7.17 1.52 2.23 2.63 6.07 3 10.43.48 6.89-3.98 12.48-13.66 12.48-21.61 0-4.88-2.1-7.97-5.31-8.73Z"/><path class="cls-47" d="M368.73 252.57c-1.58 12.16-10.76 15.99-20.51 8.53-9.74-7.45-16.36-23.35-14.78-35.52 1.58-12.16 10.76-15.99 20.51-8.53 9.74 7.45 16.36 23.35 14.78 35.52Z"/><path class="cls-41" d="M360.68 242.04c-.57 4.42-3.91 5.81-7.45 3.1-3.54-2.71-5.95-8.49-5.37-12.91.57-4.42 3.91-5.81 7.45-3.1s5.95 8.49 5.37 12.91Z"/><path class="cls-153" d="M352.9 259.33c-9.75-7.45-16.36-23.35-14.78-35.52.64-4.96 2.55-8.53 5.25-10.52-5.09.48-8.95 4.8-9.92 12.29-1.58 12.16 5.04 28.07 14.78 35.52 5.77 4.41 11.35 4.87 15.26 1.98-3.18.3-6.84-.89-10.58-3.76Z"/><path class="cls-41" d="M349.06 260.71c-9.74-7.45-16.36-23.35-14.78-35.52.73-5.63 3.09-9.47 6.39-11.23-3.73 1.53-6.43 5.53-7.22 11.63-1.58 12.16 5.04 28.07 14.78 35.52 5.23 4 10.3 4.74 14.11 2.7-3.71 1.52-8.42.62-13.27-3.09Z"/><path d="M477.67 314.16c-2.52 12.73-14.88 21-27.61 18.48-12.73-2.52-21-14.88-18.48-27.61 2.52-12.73 14.88-21 27.61-18.48 12.73 2.52 21 14.88 18.48 27.61Z" style="fill:url(#_Áåçûìÿííûé_ãðàäèåíò_16-6)"/><path class="cls-41" d="M354.64 209.11c-3 2.55-6.01 1.47-6.72-2.4-.71-3.88 1.16-9.09 4.16-11.64 3-2.55 6.01-1.47 6.72 2.4.71 3.88-1.16 9.09-4.16 11.64Z"/><path class="cls-153" d="M351.29 207.39c-.71-3.88 1.16-9.09 4.16-11.64.67-.57 1.34-.95 1.98-1.16-1.32-1.3-3.34-1.23-5.35.48-3 2.55-4.87 7.76-4.16 11.64.55 3.01 2.49 4.32 4.74 3.57-.65-.64-1.14-1.61-1.37-2.88Z"/><path class="cls-41" d="m430.23 120.02-4.41-2.53s-.02-.01-.03-.02l-.03-.02c-.74-.39-1.8-.18-2.9.73l-54.72 45.61c-6.89 5.74-11.79 15.63-11.79 23.78v1.71l4.41 2.53 9.92-13.8 18.23-12.99c5.05-1.94 9.87-2.92 14.33-3l20.81-33.95c.06-.1.12-.21.18-.31l5.98-7.75Z"/><path class="cls-153" d="M384.38 171.87c8.35-4.82 16.25-7.18 23.29-7.31l20.81-33.95c1.7-2.78 2.67-5.88 2.67-8.54 0-2.35-1.89-3.01-3.88-1.35l-54.72 45.61c-6.89 5.74-11.79 15.63-11.79 23.78v1.71c7.12-8.16 15.14-15.06 23.61-19.95Z"/><path d="M486.07 380.95c-1.33 11.16-11.19 32.3-20.11 31.24-8.92-1.06-13.53-23.93-12.2-35.09 1.33-11.16 9.64-19.35 18.57-18.28 8.92 1.06 15.08 10.98 13.74 22.14Z" style="fill:url(#_Áåçûìÿííûé_ãðàäèåíò_16-7)"/><path class="cls-41" d="M262.81 315.61c-1.36 0-2.68-.74-3.35-2.03a3.778 3.778 0 0 1 1.6-5.1l48.5-25.38c1.84-.97 4.13-.26 5.1 1.6.97 1.85.25 4.13-1.6 5.1l-48.5 25.38c-.56.29-1.16.43-1.75.43Z"/><path d="M263.67 329.7c-9.86 5.4-32.79 9.67-37.11 1.79s11.61-24.92 21.47-30.32c9.86-5.4 21.35-3.4 25.67 4.48 4.32 7.88-.17 18.65-10.03 24.05Z" style="fill:url(#_Áåçûìÿííûé_ãðàäèåíò_16-8)"/><g class="cls-6"><path class="cls-41" d="M615.59 213.82c6.38 1.65 12.65 3.37 18.81 5.17v45.48c-6.16-1.8-12.43-3.52-18.81-5.17v-45.48Z"/><path class="cls-8" d="M572 215.72c6.82 1.31 13.55 2.69 20.18 4.16v33.8c-6.63-1.47-13.36-2.85-20.18-4.16v-33.8Z"/><path class="cls-41" d="M525.67 178.69c7.21.94 14.34 1.96 21.39 3.07v63.41c-7.04-1.11-14.17-2.13-21.39-3.07v-63.41Z"/><path class="cls-8" d="M476.95 138.72c7.55.54 15.02 1.18 22.43 1.9v98.48c-7.4-.73-14.88-1.36-22.43-1.9v-98.48ZM426.15 159.87c7.84.12 15.63.34 23.35.66v75.13c-7.72-.32-15.51-.54-23.35-.66v-75.13Z"/><path class="cls-41" d="M374.88 81.22c7.66-.31 15.37-.52 23.14-.64V235c-7.77.12-15.48.33-23.14.64V81.22ZM325.28 113.02c7.37-.72 14.81-1.34 22.31-1.88v126.02c-7.51.53-14.95 1.16-22.31 1.88V113.02ZM277.77 71.87c7.02-1.1 14.13-2.11 21.32-3.04v173.16c-7.19.93-14.3 1.94-21.32 3.04V71.87Z"/></g><path d="M387.99 399.41c4.67-2.7 10.43-2.7 15.11 0l90.03 51.86c1.42.82 1.42 2.86 0 3.68l-90.78 52.41a13.336 13.336 0 0 1-13.33 0L298.1 455c-1.42-.82-1.42-2.86 0-3.68l89.89-51.9Z" style="fill:url(#_Áåçûìÿííûé_ãðàäèåíò_209)" class="cls-97"/><path d="M387.99 384.24c4.67-2.7 10.43-2.7 15.11 0l90.03 51.86c1.42.82 1.42 2.86 0 3.68l-90.78 52.41a13.336 13.336 0 0 1-13.33 0l-90.92-52.36c-1.42-.82-1.42-2.86 0-3.68l89.89-51.9Z" style="fill:url(#_Áåçûìÿííûé_ãðàäèåíò_209-2)" class="cls-97"/><path d="M387.99 369.07c4.67-2.7 10.43-2.7 15.11 0l90.03 51.86c1.42.82 1.42 2.86 0 3.68l-90.78 52.41a13.336 13.336 0 0 1-13.33 0l-90.92-52.36c-1.42-.82-1.42-2.86 0-3.68l89.89-51.9Z" style="fill:url(#_Áåçûìÿííûé_ãðàäèåíò_209-3)" class="cls-97"/><path d="M387.99 353.91c4.67-2.7 10.43-2.7 15.11 0l90.03 51.86c1.42.82 1.42 2.86 0 3.68l-90.78 52.41a13.336 13.336 0 0 1-13.33 0L298.1 409.5c-1.42-.82-1.42-2.86 0-3.68l89.89-51.9Z" style="fill:url(#_Áåçûìÿííûé_ãðàäèåíò_209-4)" class="cls-97"/><path d="m298.09 405.81 89.89-51.9c4.67-2.7 10.43-2.7 15.11 0l90.03 51.86c.71.41 1.06 1.13 1.06 1.84v45.5c0 .72-.35 1.43-1.06 1.84l-90.78 52.41a13.336 13.336 0 0 1-13.33 0L298.09 455a2.106 2.106 0 0 1-1.06-1.84v-45.5c0-.72.35-1.43 1.06-1.84Z" style="fill:url(#_Áåçûìÿííûé_ãðàäèåíò_209-5);opacity:.11"/><path d="M386.37 316.72a18.332 18.332 0 0 1 18.32 0l109.16 62.88c1.72.99 1.72 3.47 0 4.46l-110.07 63.55c-5 2.89-11.16 2.89-16.16 0l-110.24-63.49c-1.72-.99-1.72-3.47 0-4.46l109-62.93Z" style="fill:url(#_Áåçûìÿííûé_ãðàäèåíò_209-6)" class="cls-97"/><path d="M386.37 298.33a18.332 18.332 0 0 1 18.32 0l109.16 62.88c1.72.99 1.72 3.47 0 4.46l-110.07 63.55c-5 2.89-11.16 2.89-16.16 0l-110.24-63.49c-1.72-.99-1.72-3.47 0-4.46l109-62.93Z" style="fill:url(#_Áåçûìÿííûé_ãðàäèåíò_209-7)" class="cls-97"/><path d="M386.37 279.94a18.332 18.332 0 0 1 18.32 0l109.16 62.88c1.72.99 1.72 3.47 0 4.46l-110.07 63.55c-5 2.89-11.16 2.89-16.16 0l-110.24-63.49c-1.72-.99-1.72-3.47 0-4.46l109-62.93Z" style="fill:url(#_Áåçûìÿííûé_ãðàäèåíò_209-8)" class="cls-97"/><path d="M386.37 261.55a18.332 18.332 0 0 1 18.32 0l109.16 62.88c1.72.99 1.72 3.47 0 4.46l-110.07 63.55c-5 2.89-11.16 2.89-16.16 0l-110.24-63.49c-1.72-.99-1.72-3.47 0-4.46l109-62.93Z" style="fill:url(#_Áåçûìÿííûé_ãðàäèåíò_209-9)" class="cls-97"/><path d="m277.37 324.48 109-62.93a18.308 18.308 0 0 1 18.32 0l109.16 62.88c.86.5 1.29 1.36 1.29 2.23v55.17c0 .87-.43 1.74-1.29 2.23l-110.07 63.55c-5 2.89-11.16 2.89-16.16 0l-110.24-63.49c-.86-.5-1.29-1.36-1.29-2.23v-55.17c0-.87.43-1.74 1.29-2.23Z" style="opacity:.5;fill:url(#_Áåçûìÿííûé_ãðàäèåíò_209-10)"/><path d="M386.37 261.55a18.332 18.332 0 0 1 18.32 0l109.16 62.88c1.72.99 1.72 3.47 0 4.46l-110.07 63.55c-5 2.89-11.16 2.89-16.16 0l-110.24-63.49c-1.72-.99-1.72-3.47 0-4.46l109-62.93Z" style="fill:url(#_Áåçûìÿííûé_ãðàäèåíò_209-11)" class="cls-97"/><path d="m277.37 326.4 110.24 63.49c5 2.89 11.16 2.89 16.16 0l110.07-63.55c.42-.24.74-.58.96-.96a2.57 2.57 0 0 1-.96 3.5l-110.07 63.55c-5 2.89-11.16 2.89-16.16 0l-110.24-63.49c-1.29-.75-1.61-2.34-.96-3.5.21.38.53.72.96.96Z" style="fill:url(#_Áåçûìÿííûé_ãðàäèåíò_209-12)"/><ellipse cx="395.61" cy="326.85" rx="60.1" ry="34.7" style="fill:#180d5b;opacity:.2"/><path class="cls-44" d="M562.03 388.29s-1.46 1.52-2.98 3.32c-1.52 1.79-5.78 4.29-7.57 5.4-1.79 1.11-9.99 7.33-11.71 13.45-1.71 6.12 4.15 6.93 10.14 5.87 6-1.06 11.6-6.6 13.23-8.59 1.63-2 7.31-6.53 14.67-10.34 7.36-3.81 2.91-8.93 2.91-8.93l-18.7-.18ZM616.67 406.48s1.21 2.75 1.56 6.29c.34 3.54.84 11.22 1.02 13.46s.26 7.74-3.7 13c-3.95 5.26-5.99 7.34-11.25 5.27-5.25-2.07-5.13-10.89-4.2-15.42.93-4.53 1.79-14.68 1.7-15.75-.1-1.06.3-1.75.3-1.75l14.57-5.12Z"/><path class="cls-49" d="M543.91 284.27s1.11 40.43 10.53 61.89c0 0 6.75 18.9 7.64 41.38 0 0-1.56 3.87.65 7.02 2.21 3.15 16.04 6.03 18.33-4.31 2.29-10.34 1.41-29.68-1.11-37.75-2.51-8.07.89-30.3.89-30.3s3.78 2.42 8.74 18.39c4.96 15.97 8.6 22.07 10.31 26.48 1.71 4.41 3.27 31.48 2.19 44.7 0 0 11.2 1.59 14.44-3.76s4.32-33.06 3.5-41.89c-.82-8.83-4.51-37.13-4.01-45.88.51-8.76 2.33-15.87.33-24.61s-61.11-28.17-61.11-28.17l-11.33 16.81Z"/><path d="M543.91 284.27s1.11 40.43 10.53 61.89c0 0 6.75 18.9 7.64 41.38 0 0-1.56 3.87.65 7.02 2.21 3.15 16.04 6.03 18.33-4.31 2.29-10.34 1.41-29.68-1.11-37.75-2.51-8.07.89-30.3.89-30.3s3.78 2.42 8.74 18.39c4.96 15.97 8.6 22.07 10.31 26.48 1.71 4.41 3.27 31.48 2.19 44.7 0 0 11.2 1.59 14.44-3.76s4.32-33.06 3.5-41.89c-.82-8.83-4.51-37.13-4.01-45.88.51-8.76 2.33-15.87.33-24.61s-61.11-28.17-61.11-28.17l-11.33 16.81Z" style="fill:url(#_Áåçûìÿííûé_ãðàäèåíò_7)"/><path class="cls-44" d="M616.02 320.25c.51-8.76 2.33-15.87.33-24.61-.75-3.29-9.58-8.08-20.3-12.79-18.09-1.65-41.03-3.57-42.61-3.33-1.43.22-5.17 1.64-8.27 2.88l-1.26 1.87s.07 2.46.31 6.47c4.22 1.26 12.34-.04 12.34-.04 1.14 2.84 8.19 12.92 16.96 17.27 8.77 4.35 34.42 2.86 35.9 4.51 1.47 1.65 1.76 23.79 1.59 26.6-.16 2.81 2.42 20.53 4.8 36.2 2.35 15.41-1.23 34.15-1.34 34.75.83-.53 1.55-1.19 2.06-2.03 3.24-5.35 4.32-33.06 3.5-41.89-.82-8.83-4.51-37.13-4.01-45.88Z"/><path d="M563.69 152.03s-13.11 2.99-17.53 4.03c-.73.17-1.32.69-1.6 1.39-1.27 3.22-4.47 13.24-2.06 27.87 2.96 17.98 2.02 30.08 2.02 30.08l-6.07 31.57s-7.63 30.07-6.97 30.89c.66.82 17.56 13.68 22.84 11.87 5.28-1.81 3.55-4.8 3.55-4.8s4.28 21.79 23.22 21.58c18.94-.21 34.41-.15 37.63-7.81 3.22-7.66-.88-39.84-4.22-52.59-3.34-12.74-11.28-38.14-11.28-38.14l27.74-30.71-23.71-18.11s-5.66-10.52-7.99-11.86c-2.33-1.34-3.54-.21-3.54-.21l-32.04 4.94Z" style="fill:url(#_Áåçûìÿííûé_ãðàäèåíò_7-2)"/><path d="M554.66 282.79c.02 1.09-.62 2.72-4.03 3.89-3.68 1.26-12.69-4.22-18.6-8.34 2.95 2.45 17.47 13.05 22.3 11.39 1.05-.36 1.81-.77 2.38-1.19a39.394 39.394 0 0 1-2.05-5.75Z" style="fill:url(#_Áåçûìÿííûé_ãðàäèåíò_209-13)"/><path class="cls-175" d="M598.76 147.04s4.84 5.86-2.13 13.77c-4.29 4.87-11.67 15.37-17.96 26.27-3.93 6.81-7.56 10.44-9.62 16.29 0 0-.29-6.95-.56-17.69-.26-10.13-.4-20.66.06-23.31.93-5.46 24.85-18 30.21-15.34Z"/><path class="cls-157" d="M580.65 164.66s-2.48 1.54-3.34 1.41c-.86-.13-3.6-2.8-3.6-2.8s-6.88-.12-7.63-3.07c-.75-2.95-1.25-5.92-1.94-7.45-.7-1.53-3.66-8.88-3.68-11.86-.02-2.98.09-8.31-1.2-11.13-1.29-2.82-3.02-31.04 24.22-30.24 27.25.8 18.78 29.09 18.78 29.09s1.99.85.79 4.49-1.47 4.02-2.09 5.83c-.61 1.81-.92 2.97-2.65 4.43l-.45 3.36s1.29 5.12-2.09 10.1c-3.39 4.98-15.12 7.83-15.12 7.83Z"/><path class="cls-49" d="M545.42 156.39s-2.91.43-12.33 24.15c-5.26 13.23-13.38 26.94-15.1 36.77-1.72 9.83-.76 20.35 1.18 21.09 1.87.71 35.74 13.39 46.34 17.39a.996.996 0 0 0 1.33-.76l2.92-16.36-21.02-8.12s-4-4.89-7.77-6.73c0 0 4.21-7.77 3.95-9.89-.27-2.12.38-24.06-2.09-32.98-2.46-8.93 2.58-24.56 2.58-24.56Z"/><path d="M545.42 156.39s-2.91.43-12.33 24.15c-5.26 13.23-13.38 26.94-15.1 36.77-1.72 9.83-.76 20.35 1.18 21.09 1.87.71 35.74 13.39 46.34 17.39a.996.996 0 0 0 1.33-.76l2.92-16.36-21.02-8.12s-4-4.89-7.77-6.73c0 0 4.21-7.77 3.95-9.89-.27-2.12.38-24.06-2.09-32.98-2.46-8.93 2.58-24.56 2.58-24.56Z" style="fill:url(#_Áåçûìÿííûé_ãðàäèåíò_7-3)"/><path class="cls-157" d="M557.73 219.06s-2.89-1.95-3.61-2.22-4.59-1.6-5.33-1.93c-.55-.25-2.8-.06-3.93.06-.41.04-.77.28-.96.64-.89 1.66-3.39 6.49-3.11 8.33 0 0 7 4.42 7.78 6.39l1.12.24s4.69-10.06 8.04-11.51Z"/><path class="cls-49" d="M614.51 246.12c-.8-3.07-1.87-6.87-3.04-10.87L568.9 253.5s12.74 15.67 35.07 14.66c6.11-.28 10.56-2.48 13.83-4.37-.98-6.97-2.18-13.41-3.3-17.67Z"/><path class="cls-49" d="M630.98 177.27s-11.23 1.54-20.3 15.92C601.61 207.57 595 224.2 595 224.2l-.31 1.87c-.82 4.89-6.03 7.69-10.55 5.67-9.58-4.28-23.76-10.74-26.41-12.68 0 0-8.48 4.69-10.8 15.77-1.85 8.83-1.38 8.86-1.38 8.86s37.8 17.64 52.4 17.47c14.6-.17 33.12-48.17 35.16-58.09 2.04-9.92 4.29-22.99-2.14-25.8Z"/><path d="M630.98 177.27s-11.23 1.54-20.3 15.92C601.61 207.57 595 224.2 595 224.2l-.31 1.87c-.82 4.89-6.03 7.69-10.55 5.67-9.58-4.28-23.76-10.74-26.41-12.68 0 0-8.48 4.69-10.8 15.77-1.85 8.83-1.38 8.86-1.38 8.86s37.8 17.64 52.4 17.47c14.6-.17 33.12-48.17 35.16-58.09 2.04-9.92 4.29-22.99-2.14-25.8Z" style="fill:url(#_Áåçûìÿííûé_ãðàäèåíò_7-4)"/><path class="cls-153" d="M589.56 233.98s4.77 4.46 6.84 2.02c2.08-2.44 1.46-2.71 1.46-2.71s4.29-.04 4.81-2.73c.52-2.69 2.64-1.27 2.76-4.26.12-3-3.47-2.38-3.47-2.38l-12.41 10.07Z"/><path class="cls-157" d="M583.8 231.59s1.31-1.22 3-2.65 4.43-7.35 4.89-7.87 6.17-4.9 8.92-4.97c2.75-.08.71 3 .08 3.44-.63.43-3.32 1.77-3.32 1.77s-2.76 2.32-3.08 2.66c-.31.34 7.68-.55 8.95.23 1.27.78.97 2.82.08 3.38-.9.56-1.58.54-1.58.54s.9 2.41-1.5 3.52c-2.4 1.12-2.95.5-2.95.5s-.21 4.16-4.17 3.33l-9.32-3.86Z"/><path class="cls-134" d="M558.64 115.35s-3.56 11.32 5.81 8.1c9.36-3.22 17.83-8.61 20.77-6.56 2.24 1.56 2.14 6.36 1.96 8.55-.06.75.14 1.49.56 2.11l2.77 4.03c.31.46.5.99.54 1.54l.2 2.81c.05.71.62 1.27 1.32 1.31l.64.04c.71.04 1.34-.46 1.47-1.16l.72-4.12s2.2-5.55 6.86-3.37c0 0 3.11-4.19 2.08-13.13-1.03-8.95-5.04-18.25-22.61-19.74-17.56-1.49-23.1 19.6-23.1 19.6Z"/><path class="cls-207" d="m585.48 174.63-2.63-2.04s-2.43 2.02-3.38 4.16c-.95 2.14 0 8.95 0 8.95l-.8 1.38-.99-1.8-.83-8.05s.89-5.95.98-6.1c.09-.15 5.07.53 5.07.53s1.73 1.32 2.57 2.97ZM572.85 166.62s-2.81.19-4.07 1.24c0 0 2.95.14 3.41.2.47.05.66-1.44.66-1.44Z"/><path class="cls-49" d="m578.2 167.25 4.71 4.4s-4.14 1.9-5.29 5.6c0 0-5.13.96-5.59-.9-.47-1.86.01-6.54-.6-8.61-.61-2.07 6.77-.5 6.77-.5Z"/><path class="cls-49" d="M572.21 176.25s-.88 3.86-1.83 5.45c-.96 1.59-1.94 3.38-1.94 3.38l.12 22.61s8.32-17.14 10.12-20.61c0 0-.28-8.26-1.06-9.82s-5.41-1.01-5.41-1.01Z"/><path class="cls-60" d="M594.54 142.84c-5.46 15.76-20.83 20.44-20.83 20.44s2.75 2.67 3.6 2.8c.86.13 3.34-1.41 3.34-1.41s11.73-2.85 15.12-7.83c3.39-4.98 2.09-10.1 2.09-10.1l.45-3.36c-2.44.8-3.77-.53-3.77-.53Z"/><path class="cls-49" d="M607.04 161.29s-2.16 7.44-2.43 7.72c-.28.28-5.42-.31-5.42-.31l2.5 4.73s-25.87 27.74-31.23 42.67c0 0 12.24-18.92 33.79-41.51l-3.05-4.61 5.29 1.03.56-9.71ZM564.54 154.72l-1.37 1.57 1.61 1.51-4.78 4.32s-1.46 30.35 4.38 50.45c0 0-7.93-18.44-6.13-51.28l5.18-3.51-1.69-1.67 2.81-1.39Z"/><path class="cls-44" d="M580.85 322.21s.06.04.18.14l-6.7-7.13c3.09 4.36-.47 24.34-.84 28.91s3.58 14.02 5.06 25.09c1.48 11.05-1.55 26.83-1.56 26.87 1.92-1.11 3.44-2.96 4.07-5.83 2.29-10.34 1.41-29.68-1.11-37.75-2.51-8.07.89-30.3.89-30.3Z"/><path class="cls-96" d="M593.21 137.27c.71.04 1.34-.46 1.47-1.16l.72-4.12s2.2-5.55 6.86-3.37c0 0 2.94-3.98 2.14-12.43-5.18 7.77-16.67 11.36-16.67 11.36l2.77 4.03c.31.46.5.99.54 1.54l.2 2.81c.05.71.62 1.27 1.32 1.31l.64.04Z"/><path class="cls-44" d="M169.2 538.17s6 1.48 11.82 1.71c5.81.23 21.62 3.4 21.23 9.3-.4 5.93-8.65 14.44-19 15.7-10.36 1.26-23.67-1.72-30.44-1.54-6.77.18-11.39-6.71-8.74-13.32 2.63-6.57 25.14-11.84 25.14-11.84ZM134.32 522.31s-2.21 3.57-1.13 5.75c1.09 2.19 3.98 7.63 13.45 2.36 9.42-5.24 27.6-12.74 27.6-12.74s10.42-5.55 9.85-12.09c-.57-6.5-10.16-5.53-10.16-5.53l-39.61 22.25Z"/><path class="cls-49" d="M195.74 429.5s-4.02 42.5-12.56 58.61c-8.68 16.37-11.08 46.36-12.89 52.09-1.82 5.76-7.44 14.03-16.3 15.79-8.88 1.76-10.32-4.27-9.89-7.9.44-3.61 2.9-9.45 2.93-13.37.03-3.9-.88-5.73-1.01-7.52 0 0-10.15 2.99-11.69-4.88 0 0 .82-2.29.96-3.46s-.87-29.62-1.11-33.07c-.25-3.44 1.61-22.04 4.43-31.2 2.79-9.08 1.87-28.41 1.87-28.41l28.9-4.03 26.38 7.36Z"/><path d="M195.74 429.5s-4.02 42.5-12.56 58.61c-8.68 16.37-11.08 46.36-12.89 52.09-1.82 5.76-7.44 14.03-16.3 15.79-8.88 1.76-10.32-4.27-9.89-7.9.44-3.61 2.9-9.45 2.93-13.37.03-3.9-.88-5.73-1.01-7.52 0 0-10.15 2.99-11.69-4.88 0 0 .82-2.29.96-3.46s-.87-29.62-1.11-33.07c-.25-3.44 1.61-22.04 4.43-31.2 2.79-9.08 1.87-28.41 1.87-28.41l28.9-4.03 26.38 7.36Z" style="fill:url(#_Áåçûìÿííûé_ãðàäèåíò_7-5)"/><path class="cls-44" d="M149.02 429.25s.12 6.63 2.88 12.21c0 0-.06 22.59 2.26 34.03 0 0-3.74 22.97-6.1 30.21-2.37 7.29-2.06 21.5-2.06 21.5s-1.15.43-2.81.49c-1.66.06-1.77-28.08.77-33.04 2.53-4.94 4.45-26.87 3.49-33.56-.95-6.64-.62-25.65-1.88-29-1.25-3.34 1.58-5.12 1.58-5.12l1.86 2.29ZM173.35 275.92s8.39 6.07 7.97 16.56l-6.24-1.34s1.85-11.61-1.73-15.22Z"/><path class="cls-44" d="M170.08 438.5c-19.16.59-29.49-7.9-29.49-7.9-.04-2.69-.12-4.44-.12-4.44l28.9-4.03 26.38 7.36s-.79 8.38-2.43 19.11c-4.7.51-9.31-11.03-9.31-11.03l-13.14.83s18.37-.49-.78.1Z"/><path class="cls-153" d="M192.04 430.13s-41.65 17-61.78-15.25c-.57-.92-.84-2.04-.8-3.17l.26-7.52c.03-.96-.1-1.9-.4-2.79-.65-1.91-.79-3.98-.41-6 1.56-8.4 5.78-31.24 6.77-37.57 1.21-7.73-2.89-38.66-9.8-52.06-6.81-13.2 10.68-42.9 10.68-42.9s4.29-6.93 12.69-4.56c0 0-8.01 5.6-3.63 11.52 4.42 5.96 17.58 10.71 17.58 10.71s24.35 12.63 32.68 28c0 0 2.86 7.99 3.12 18.1.26 10.22-.87 34.76-.45 38.17.43 3.42 1.72 26.8 1.59 27.89-.14 1.09-8.08 37.42-8.08 37.42Z"/><path d="M192.04 430.13s-41.65 17-61.78-15.25c-.57-.92-.84-2.04-.8-3.17l.26-7.52c.03-.96-.1-1.9-.4-2.79-.65-1.91-.79-3.98-.41-6 1.56-8.4 5.78-31.24 6.77-37.57 1.21-7.73-2.89-38.66-9.8-52.06-6.81-13.2 10.68-42.9 10.68-42.9s4.29-6.93 12.69-4.56c0 0-8.01 5.6-3.63 11.52 4.42 5.96 17.58 10.71 17.58 10.71s24.35 12.63 32.68 28c0 0 2.86 7.99 3.12 18.1.26 10.22-.87 34.76-.45 38.17.43 3.42 1.72 26.8 1.59 27.89-.14 1.09-8.08 37.42-8.08 37.42Z" style="fill:url(#_Áåçûìÿííûé_ãðàäèåíò_7-6)"/><path d="M145.32 262.6c-.66-1.68-.46-3.3.15-4.71 1.16-.04 2.38.03 3.77.43 0 0-2.47 1.73-3.92 4.29Z" style="fill:url(#_Áåçûìÿííûé_ãðàäèåíò_209-14)"/><path class="cls-49" d="M179.42 433.6s-24.53-66.23-23.36-90.27c1.14-23.44 35.8 47.49 35.8 47.49l.18 39.31s-7.86 2.9-12.62 3.47Z"/><path class="cls-64" d="M192.65 355.36c-.89-5.4-1.41-10.83-1.47-16.24-.11-9.42-2.75-25.05-19.8-22.33-24.09 3.84-13.79 37.59-11.14 43.48 2.66 5.93 13.2 32.67 13.75 34.18.52 1.43 17.18 34.8 23.13 42.8.54.73 1.5.84 2.17.27 2.41-2.05 7.83-6.95 8.54-10.05.91-3.98-2.57-18.42-2.57-18.42s-9.39-36.08-10.18-37.76c-.59-1.26-1-7.18-2.44-15.94Z"/><path class="cls-157" d="M172.93 276.69s1.91-4.35 6.33-4.8c4.42-.45 6.93-1.68 7.37-3.31.44-1.63.47-3.61 1.54-6.05 1.07-2.43 1.97-8.4 1.96-8.55-.02-.14 3.34-1.15 3.5-2.63.16-1.48-1.58-6.75-1.39-7.16.19-.41 1.99-3.64 1.75-6.15-.24-2.51-.57-6.14-1.91-9.22-1.34-3.07-10.7-21.76-35.06-12.13-24.64 9.73-5.9 30.4-8.33 43.8 0 0-2.19 2.82 1.82 7.62 4.04 4.82 15.7 5.87 22.42 8.59Z"/><path class="cls-60" d="M150.51 268.09c-4.01-4.8-1.82-7.62-1.82-7.62.34-1.86.26-3.87-.05-5.97l9.64 1.84s14.24-12.66 13.23-5.88c-1.02 6.83 2.44 8.01 2.44 8.01l-2.92 3.72c-.75.95-.31 2.08.31 3.13 4.06 6.99 13.93 4.89 13.95 4.89-1.23.8-3.25 1.39-6.02 1.67-4.42.45-6.33 4.8-6.33 4.8-6.72-2.73-18.38-3.77-22.42-8.59Z"/><path class="cls-134" d="M193.14 221.71s1.7 5-1.05 7.1c-2.76 2.11-5.26 4.1-5.26 4.1v6.34c.01.91-.25 1.81-.74 2.57l-3.47 5.35a6.513 6.513 0 0 0-1.04 3.49l-.02 2.59c0 .76-.57 1.4-1.31 1.48l-.91.1c-.8.09-1.53-.51-1.61-1.33l-.38-3.6s-1.82-2.9-5.83.55l-3.59 1.48c-1 .41-1.79 1.23-2.17 2.27-1.01 2.77-3.16 8.25-4.77 9.15-2.18 1.23-10.61-3.13-11.73-5.06-1.12-1.92-3.97-14.77-5.73-20.9-1.75-6.08-.72-21.13 17.43-24.98 18.07-3.83 29.71 3.83 32.2 9.27Z"/><path class="cls-96" d="M149.24 258.31c-1.12-1.92-3.97-14.77-5.73-20.9 0 0 7.02 4.68 16.13 6.07 9.12 1.39 27.19-8.88 27.19-8.88v4.65c.01.91-.25 1.81-.75 2.57l-3.47 5.35a6.513 6.513 0 0 0-1.04 3.49l-.02 2.59c0 .76-.57 1.4-1.31 1.48l-.91.1c-.8.09-1.53-.51-1.61-1.33l-.38-3.6s-1.82-2.9-5.83.55l-5.2 2.13s-3.16 9.54-5.34 10.77c-2.18 1.23-10.61-3.13-11.73-5.06Z"/><path class="cls-175" d="M148.88 258.92s-7.06 4.35-3.54 10.51c3.54 6.21 29.12 17.24 30.39 18.87 0 0 1.01-9.25-2.38-12.38 0 0-19.59-3.82-22.63-8.82-3.03-4.97-1.84-8.19-1.84-8.19Z"/><path class="cls-207" d="M148.88 258.92s-1.19 3.21 1.84 8.19c2.3 3.78 14.07 6.89 19.67 8.18s-2.08 1.18-5.56 7.11c-7.87-4.08-17.42-9.33-19.49-12.96-3.52-6.17 3.54-10.51 3.54-10.51Z"/><path class="cls-49" d="M144.11 278.65s11.4 6.53 16.95 9.48c5.57 2.96 11.64 6.89 11.64 6.89l2.13-2.13 2.56 5.62s8.75 5.26 12.85 9.64c4.11 4.4 7.22 10.15 7.66 11.46 0 0-10.93-14.33-19.54-18.59l-2.32-1.17-1.31-4.45-2.11 2.24s-25.04-15.1-28.51-18.99Z"/><path class="cls-153" d="M173.5 472.02c.36-1.02.89-1.92 1.52-2.45l46.88-39.36c1.23-1.04 2.43-.24 2.67 1.77l5.48 45.82c.25 2.11-.57 4.71-1.83 5.81l-39.37 34.05 1.36 13.25-11.77-5.42v-.03c-.53-.33-.92-1.09-1.03-2.24l-4.38-47.89c-.1-1.07.09-2.25.45-3.3Z"/><path class="cls-153" d="m234.67 434.73-11.08-4.79-.36-.15c-.4-.1-.87.03-1.33.42l-46.88 39.36c-.63.53-1.17 1.43-1.53 2.45l1.68.81 9.55 4.61 41.09-35.14 8.86-7.58Z"/><path class="cls-49" d="m239.77 488.74-47.94 41.77c-1.31 1.15-2.56.27-2.77-1.95l-4.66-48.14c-.2-2.11.67-4.7 1.95-5.79l46.78-39.56c1.23-1.04 2.43-.25 2.69 1.78l5.76 46.06c.27 2.12-.54 4.74-1.8 5.84Z"/><path d="m239.77 488.74-47.94 41.77c-1.31 1.15-2.56.27-2.77-1.95l-4.66-48.14c-.2-2.11.67-4.7 1.95-5.79l46.78-39.56c1.23-1.04 2.43-.25 2.69 1.78l5.76 46.06c.27 2.12-.54 4.74-1.8 5.84Z" style="fill:url(#_Áåçûìÿííûé_ãðàäèåíò_44)"/><path class="cls-44" d="m183.1 525.74-4.51-48.01c-.2-2.11.68-4.69 1.97-5.77l46.83-39.45c.38-.32.76-.47 1.11-.45-.44-.18-.97-.08-1.5.37l-46.83 39.45c-1.28 1.08-2.17 3.66-1.97 5.77l4.51 48.01c.14 1.53.74 2.48 1.55 2.51-.61-.27-1.02-1.15-1.14-2.41Z"/><path class="cls-44" d="m200.26 455.06-2.45-1.22c-.55-.28-1.08-.37-1.53-.27l-.2.04c-.24.05-.37.32-.33.69l.05.45 6.9 3.45-.05-.45c-.04-.38-.24-.8-.52-1.12l-.23-.26c-.52-.58-1.08-1.03-1.64-1.31Z"/><path class="cls-44" d="m199.39 460.99 3.31-2.8-6.84-4.43-3.27 2.73 6.8 4.5z"/><path d="m196.95 457.85-2.45-1.23c-.56-.28-1.08-.37-1.53-.27l-.2.04c-.24.05-.37.32-.33.69l.05.45 6.91 3.46-.05-.45c-.04-.38-.24-.81-.52-1.12l-.23-.26c-.52-.58-1.08-1.04-1.64-1.31Z" style="fill:url(#_Áåçûìÿííûé_ãðàäèåíò_209-15)"/><path class="cls-209" d="m195.48 459.03-.2-2.02.2.1.21 2.03-.21-.11zM195.28 457.01l3.4-2.74.18.09-3.38 2.75-.2-.1z"/><path class="cls-44" d="m215.15 442.54-2.44-1.21c-.55-.27-1.08-.37-1.52-.27l-.2.04c-.24.05-.37.31-.32.68l.05.44 6.88 3.41-.05-.44c-.04-.37-.24-.79-.53-1.11l-.23-.25c-.52-.57-1.09-1.02-1.64-1.29Z"/><path class="cls-44" d="m214.33 448.39 3.27-2.76-6.83-4.38-3.22 2.7 6.78 4.44z"/><path d="m211.89 445.29-2.45-1.21c-.55-.27-1.08-.37-1.52-.27l-.2.04c-.24.05-.37.31-.33.68l.05.44 6.89 3.42-.05-.44c-.04-.37-.24-.8-.53-1.11l-.23-.25c-.52-.58-1.09-1.02-1.64-1.3Z" style="fill:url(#_Áåçûìÿííûé_ãðàäèåíò_209-16)"/><path class="cls-209" d="m210.44 446.46-.23-2 .21.1.22 2-.2-.1z"/><path class="cls-209" d="m210.21 444.46 3.37-2.7.17.08-3.33 2.72-.21-.1z"/><path class="cls-153" d="m193.96 447.41.88 8.55 2.22-1.86-.87-8.3c-.13-1.21.47-2.77 1.33-3.49l9.55-7.98c.85-.71 1.65-.32 1.78.88l.92 8.21 2.19-1.84-.95-8.42c-.3-2.64-2.06-3.5-3.93-1.94l-10.18 8.49c-1.9 1.58-3.21 5.03-2.93 7.7Z"/><path class="cls-153" d="m210.4 433.75-3.93-.4-11.37 10.6-.49 6.54.23 5.47 2.54 1.27.08-6.82.14-4.66 2.36-3.37s4.26-3.44 4.31-3.54c.04-.1 6.14-5.1 6.14-5.1ZM212.3 444.67l-2.54-1.26-.68-6.05 2.43.19.71.13.08 6.99zM212.21 431.88l-2.73-1.34s.72 1.49.73 1.48c.01 0 .9.31.91.31.02 0 1.09-.45 1.09-.45Z"/><path class="cls-44" d="m196.49 448.67.89 8.56 2.22-1.87-.88-8.31c-.13-1.21.46-2.78 1.32-3.49l9.54-7.99c.85-.71 1.65-.32 1.78.88l.93 8.22 2.19-1.84-.96-8.43c-.3-2.64-2.06-3.51-3.94-1.94l-10.17 8.51c-1.89 1.58-3.21 5.03-2.93 7.71Z"/><path class="cls-157" d="M207.16 427.13s1.62 8.36 1.16 10.45c-.46 2.1-4.45 6.15-6.86 6.89-2.41.74-1.43-2.13-1.97-3.94-.54-1.8-.45-5.73-.45-5.73l8.12-7.68Z"/><path class="cls-60" d="m199.04 434.81 8.12-7.68s.33 1.71.65 3.78c0 .01-3.02 6.22-8.53 8.67-.31-1.96-.24-4.77-.24-4.77Z"/><path class="cls-64" d="M207.76 427.75s-2.88 9-10.09 9.85l2.45-9.85s6.09-1.72 6.28-1.74c.19-.02 1.36 1.74 1.36 1.74Z"/><path d="M320.89 274.81c-7.73 7.89-28.07 18.44-34.38 12.26-6.31-6.18 3.81-26.74 11.54-34.63 7.73-7.89 19.1-9.28 25.41-3.1 6.31 6.18 5.16 17.58-2.57 25.47Z" style="fill:url(#_Áåçûìÿííûé_ãðàäèåíò_16-9)"/><path d="M320.89 274.81c-7.73 7.89-28.07 18.44-34.38 12.26-6.31-6.18 3.81-26.74 11.54-34.63 7.73-7.89 19.1-9.28 25.41-3.1 6.31 6.18 5.16 17.58-2.57 25.47Z" style="fill:url(#_Áåçûìÿííûé_ãðàäèåíò_7-7);mix-blend-mode:lighten"/><path class="cls-41" d="M321.79 253.39a3.717 3.717 0 0 1-3.42-5.15l11.48-27.42a3.708 3.708 0 0 1 4.86-1.99c1.89.79 2.78 2.97 1.99 4.86l-11.48 27.42a3.73 3.73 0 0 1-3.43 2.28Z"/><path class="cls-41" transform="rotate(-22.03 476.153 274.186)" d="M472.32 242.43h7.43v63.4h-7.43z"/><circle cx="340.84" cy="208.21" r="23.08" transform="rotate(-29.94 340.865 208.216)" style="fill:url(#_Áåçûìÿííûé_ãðàäèåíò_16-10)"/><circle cx="340.84" cy="208.21" r="23.08" transform="rotate(-51.27 340.838 208.206)" style="fill:url(#_Áåçûìÿííûé_ãðàäèåíò_7-8)" class="cls-32"/><path d="M455.93 250.11c0 44.8-26.68 81.12-59.59 81.12s-59.59-36.32-59.59-81.12 26.68-58.22 59.59-58.22 59.59 13.42 59.59 58.22Z" style="fill:url(#_Áåçûìÿííûé_ãðàäèåíò_16-11)"/><path d="M455.93 250.11c0 44.8-26.68 81.12-59.59 81.12s-59.59-36.32-59.59-81.12 26.68-58.22 59.59-58.22 59.59 13.42 59.59 58.22Z" style="fill:url(#_Áåçûìÿííûé_ãðàäèåíò_7-9)" class="cls-32"/><ellipse class="cls-47" cx="396.35" cy="215.98" rx="40.67" ry="23.48"/><path class="cls-41" d="M367.59 205.63c15.88-9.17 41.63-9.17 57.51 0 6.56 3.79 10.4 8.55 11.54 13.48 1.62-7-2.22-14.35-11.54-19.73-15.88-9.17-41.63-9.17-57.51 0-9.32 5.38-13.16 12.73-11.54 19.73 1.14-4.93 4.98-9.69 11.54-13.47Z"/><path d="m349.4 160.18 7.36-12.68c4.33-4.49 7.79-10.45 9.54-16.44l7.45-12.84-10.71-6.15c-.34-.23-.7-.44-1.08-.62-3.05-1.44-7.1-1.06-11.54 1.51-9.47 5.47-17.15 18.77-17.15 29.71 0 5.47 1.92 9.31 5.02 11.1s11.12 6.41 11.12 6.41Z" style="fill:url(#_Áåçûìÿííûé_ãðàäèåíò_16-12)"/><ellipse class="cls-20" cx="361.45" cy="139.13" rx="24.26" ry="14" transform="rotate(-60 361.439 139.13)"/><circle cx="398.71" cy="159.94" r="60.77" transform="rotate(-76.89 398.73 159.928)" style="fill:url(#_Áåçûìÿííûé_ãðàäèåíò_16-13)"/><circle cx="398.71" cy="159.94" r="60.77" transform="rotate(-76.89 398.73 159.928)" style="fill:url(#_Áåçûìÿííûé_ãðàäèåíò_7-10)" class="cls-32"/><path d="m432.72 201.04 7.36-12.68c4.33-4.49 7.79-10.45 9.54-16.44l7.45-12.84-10.71-6.15c-.34-.23-.7-.44-1.08-.62-3.05-1.44-7.1-1.06-11.54 1.51-9.47 5.47-17.15 18.77-17.15 29.71 0 5.47 1.92 9.31 5.02 11.1s11.12 6.41 11.12 6.41Z" style="fill:url(#_Áåçûìÿííûé_ãðàäèåíò_16-14)"/><path d="m432.72 201.04 7.36-12.68c4.33-4.49 7.79-10.45 9.54-16.44l7.45-12.84-10.71-6.15c-.34-.23-.7-.44-1.08-.62-3.05-1.44-7.1-1.06-11.54 1.51-9.47 5.47-17.15 18.77-17.15 29.71 0 5.47 1.92 9.31 5.02 11.1s11.12 6.41 11.12 6.41Z" style="mix-blend-mode:lighten;fill:url(#_Áåçûìÿííûé_ãðàäèåíò_7-11)"/><ellipse class="cls-20" cx="444.77" cy="179.98" rx="24.26" ry="14" transform="rotate(-60 444.75 179.99)"/><path class="cls-17" d="M428.4 190.03c0-10.94 7.68-24.24 17.15-29.71 3.28-1.9 6.35-2.6 8.95-2.26-2.77-.61-6.12.03-9.74 2.12-9.47 5.47-17.15 18.77-17.15 29.71 0 7.15 3.28 11.52 8.2 12.16-4.48-.99-7.41-5.26-7.41-12.02Z"/><ellipse class="cls-47" cx="444.77" cy="179.98" rx="17.34" ry="10.01" transform="rotate(-60 444.756 179.98)"/><path class="cls-153" d="M451.81 164.33c1.27 1.5 2.01 3.74 2.01 6.6 0 7.82-5.49 17.33-12.26 21.24-2.62 1.51-5.05 1.96-7.04 1.49 2.19 2.59 5.96 2.95 10.25.48 6.77-3.91 12.26-13.42 12.26-21.24 0-4.79-2.06-7.83-5.22-8.57Z"/><path class="cls-47" d="M379.75 188.72c-1.55 11.95-10.57 15.7-20.15 8.38-9.57-7.32-16.08-22.94-14.52-34.89 1.55-11.95 10.57-15.7 20.15-8.38 9.57 7.32 16.08 22.94 14.52 34.89Z"/><path class="cls-41" d="M371.84 178.37c-.56 4.34-3.84 5.71-7.32 3.05-3.48-2.66-5.84-8.34-5.28-12.68.56-4.34 3.84-5.71 7.32-3.05 3.48 2.66 5.84 8.34 5.28 12.68Z"/><path class="cls-153" d="M364.2 195.36c-9.57-7.32-16.08-22.94-14.52-34.89.63-4.87 2.51-8.38 5.15-10.33-5.01.47-8.79 4.72-9.75 12.08-1.55 11.95 4.95 27.57 14.52 34.89 5.67 4.34 11.15 4.79 14.99 1.95-3.12.29-6.72-.88-10.4-3.69Z"/><path class="cls-41" d="M360.43 196.72c-9.57-7.32-16.08-22.94-14.52-34.89.72-5.53 3.04-9.3 6.27-11.04-3.66 1.51-6.32 5.43-7.1 11.42-1.55 11.95 4.95 27.57 14.52 34.89 5.14 3.93 10.12 4.66 13.87 2.65-3.64 1.5-8.27.61-13.04-3.04Z"/><path d="M486.78 249.23c-2.48 12.5-14.62 20.63-27.12 18.16-12.5-2.48-20.63-14.62-18.16-27.12 2.48-12.5 14.62-20.63 27.12-18.16 12.5 2.48 20.63 14.62 18.16 27.12Z" style="fill:url(#_Áåçûìÿííûé_ãðàäèåíò_16-15)"/><path d="M486.78 249.23c-2.48 12.5-14.62 20.63-27.12 18.16-12.5-2.48-20.63-14.62-18.16-27.12 2.48-12.5 14.62-20.63 27.12-18.16 12.5 2.48 20.63 14.62 18.16 27.12Z" style="fill:url(#_Áåçûìÿííûé_ãðàäèåíò_7-12)" class="cls-32"/><path d="M500.95 321.21c-1.31 10.97-10.99 31.74-19.76 30.69-8.77-1.05-13.29-23.51-11.98-34.48 1.31-10.97 9.48-19.01 18.24-17.96 8.77 1.05 14.81 10.78 13.5 21.75Z" style="fill:url(#_Áåçûìÿííûé_ãðàäèåíò_16-16)"/><path d="M500.95 321.21c-1.31 10.97-10.99 31.74-19.76 30.69-8.77-1.05-13.29-23.51-11.98-34.48 1.31-10.97 9.48-19.01 18.24-17.96 8.77 1.05 14.81 10.78 13.5 21.75Z" style="fill:url(#_Áåçûìÿííûé_ãðàäèåíò_7-13);mix-blend-mode:lighten"/><path d="M276.18 0v326c-.31 1.07.08 2.31 1.18 2.95l110.24 63.49c5 2.89 11.16 2.89 16.16 0l110.07-63.55c.86-.5 1.29-1.36 1.29-2.23V0H276.17Z" style="fill:url(#linear-gradient);mix-blend-mode:lighten;opacity:.5"/><g class="cls-6"><path class="cls-40" d="M134.12 110.72c59.37-17.88 94.71 49.4 60.01 114.26-29.44 55.04-101.21 94.8-119.99 36.99-11.04-34.01-1.89-117.36 54.27-148.8-15.14 7.83-26.25 18.9-37.15 37.02 20.71 25.49 22.41 27.57 40.29 48.14 21.18-50.03 22.91-54.12 38.57-87.96-12.23-4.25-23-4.14-36.01.37Zm-4.17 1.72c-.45.21-.9.42-1.34.63.45-.22.89-.43 1.34-.63Zm3.02-1.28c.33-.13.66-.26.99-.38-.33.12-.66.25-.99.38Zm-1.42.58c-.47.2-.93.4-1.39.61.46-.21.93-.41 1.39-.61Zm0 0c.38-.16.76-.31 1.14-.47-.38.15-.76.31-1.14.47Z"/><path class="cls-41" d="M33.72 174.52c3.47-3.64 7.19-7.22 11.15-10.74v173.17c-3.96 3.52-7.67 7.1-11.15 10.74V174.53ZM15.93 257.98c2.45-3.87 5.16-7.7 8.13-11.46v112.27c-2.97 3.77-5.69 7.59-8.13 11.46V257.98Z"/><path class="cls-40" d="m0 388.49.18.4.21-11.37-.4-.6v11.57Zm0 33.49V248.82c0-1.11.02-2.22.06-3.33.3-7.91 1.69-15.69 4.08-23.33v173.16C1.75 402.95.37 410.74.06 418.65a92.46 92.46 0 0 0-.06 3.33Z"/><path class="cls-41" d="m0 388.49.18.41.22-11.38-.4-.6v11.57zM128.61 113.07c-.06.03-.13.06-.19.09.06-.03.13-.06.19-.09Zm5.36-2.29.15-.06-.15.06Zm-3.8 1.57-.21.09.21-.09Zm2.53-1.07s.02 0 .03-.01.02 0 .04-.01c.01 0 .02 0 .04-.01s.02 0 .04-.01.02 0 .04-.01h.04s.02-.02.04-.03.02 0 .04-.01c-.09.04-.19.07-.28.11Z"/><path class="cls-41" d="M131.56 111.74c19.34-8.06 33.31-3.21 38.57-1.38-22.14 48.79-24.45 53.89-38.57 87.96-21.81-25.37-25.17-29.27-40.29-48.14 4.28-7.11 17.29-28.74 40.29-38.44Z"/><path class="cls-40" d="M463.24 478.68c0-23.91-19.48-43.24-43.39-43.04-5 .04-10.03.04-15.07 0C179.74 433.86 0 350.48 0 248.71v128.1c16.18-6.24 17.85-6.98 24.44 8.08 30.23 64.15 35.54 62.72 42.59 61.06 64.4-25.75 63.59-23.88 80-6.82 28.39 29.56 85.64 87.1 103.33 91.69 5.42.71 14.05-.07 19.16-1.37 62.16-20.82 86.82-33.91 147.65-60.12l5.45 8.83c-22.51 9.82-90.57 36.6-153.2 56.32l-.46 3.11c-17.82 5.29-29.25-5.54-33.43-8.74-32.7-27.69-61.34-61.47-94.16-89.04-9.7-8.15-15.64-4.78-19-3.88q-61.18 24.27-71 9.46c-17.98-31.82-18.6-34.39-26.94-54.28-1.9-4.54-8.38-11.42-11.26-11.06-13.72 3.87-11.9 6.68-13.17 8.33v33.49c0 101.78 179.74 185.16 404.78 186.94 3.72.03 7.42.04 11.11.02 26.21-.11 47.35-21.53 47.35-47.74v-82.41Z"/><path class="cls-41" d="M268.95 537.7c-16.03 4.1-31.17 7.98-125.43-93.43q-11.93-11.99-73.15 12.41c-6.95 1.69-17.45 4.24-46.39-64.8C15.04 371.49.14 388.31 0 388.49v-11.57c5.06-2.88 5.4-3.07 13.01-5.21 1.39-.39 2.91-.32 4.19.34 2.03 1.06 4.09 3.45 7.66 11.06q16.67 35.52 28.68 54.95 7.08 10.5 64.54-12.31c3.93-1.06 12.09-3.25 24.41 6.57 34.61 27.6 62.77 62.13 96.93 90.21 12.82 9.12 20.56 14.62 177.75-53.09l5.45 8.83c-22.51 9.82-91.02 39.7-153.66 59.42Z"/></g><path class="cls-8" d="M662.82 266.7c2.03 11.5 10.56 40.41 45.76 60.4 50.1 23.14 84.81 53.55 96.44 87.51.82 2.23 1.96 5.19 3.02 7.31q1.25-2.06 1.25-7.04v-57.02c-.02-33.48-1.9-40.86-4.28-50.2-11.63-33.96-46.33-64.37-96.44-87.51-39.97-12.9-49.65 24.57-45.76 46.54Z"/><path d="M809.24 405.65c-.29 46.24-3.01 54.66-6.45 65.32-14.29 33.72-51.36 63.51-103.25 85.77-45.43 13.4-57.97-33.8-39.5-68.8 12.57-23.81 32.13-34.22 39.5-38.14 51.89-22.25 88.96-52.04 103.25-85.77 1.05-2.24 2.53-5.21 3.93-7.24.35-.05.81-.11 1.16-.15.88 2.47 1.24 3.49 1.36 16.12v32.89Z" style="opacity:.4;fill:#42e8e0"/><ellipse cx="559.73" cy="535.32" rx="56.44" ry="59.64" style="fill:#42e8e0;opacity:.3"/></g></g></g></svg>