<?xml version="1.0" encoding="UTF-8"?>
<svg xmlns="http://www.w3.org/2000/svg" xmlns:xlink="http://www.w3.org/1999/xlink" viewBox="0 0 1924.77 1002.32">
  <defs>
    <style>
      .cls-1 {
        fill: url(#_Áåçûìÿííûé_ãðàäèåíò_85-6);
      }

      .cls-2, .cls-3 {
        opacity: .7;
      }

      .cls-2, .cls-4, .cls-5, .cls-6 {
        fill: #42e8e0;
      }

      .cls-7 {
        fill: #fff;
      }

      .cls-8 {
        fill: url(#_Áåçûìÿííûé_ãðàäèåíò_31-8);
      }

      .cls-9 {
        fill: #bcbeff;
      }

      .cls-10, .cls-11 {
        fill: #0f054c;
      }

      .cls-12 {
        fill: url(#_Áåçûìÿííûé_ãðàäèåíò_15-2);
      }

      .cls-12, .cls-13, .cls-14, .cls-15, .cls-16, .cls-17, .cls-18, .cls-6 {
        opacity: .5;
      }

      .cls-19 {
        isolation: isolate;
      }

      .cls-20 {
        fill: url(#_Áåçûìÿííûé_ãðàäèåíò_85-8);
      }

      .cls-21 {
        fill: url(#_Áåçûìÿííûé_ãðàäèåíò_85-9);
      }

      .cls-22 {
        fill: url(#_Áåçûìÿííûé_ãðàäèåíò_31);
      }

      .cls-13 {
        fill: url(#_Áåçûìÿííûé_ãðàäèåíò_15-6);
      }

      .cls-3 {
        fill: #706ec4;
      }

      .cls-23 {
        fill: url(#_Áåçûìÿííûé_ãðàäèåíò_31-6);
      }

      .cls-24 {
        fill: url(#_Áåçûìÿííûé_ãðàäèåíò_85-7);
      }

      .cls-14 {
        fill: url(#_Áåçûìÿííûé_ãðàäèåíò_15-3);
      }

      .cls-25 {
        fill: url(#_Áåçûìÿííûé_ãðàäèåíò_85-3);
      }

      .cls-15 {
        fill: url(#_Áåçûìÿííûé_ãðàäèåíò_15-4);
      }

      .cls-26 {
        fill: #251c72;
      }

      .cls-27 {
        fill: url(#_Áåçûìÿííûé_ãðàäèåíò_85);
      }

      .cls-28 {
        fill: url(#_Áåçûìÿííûé_ãðàäèåíò_31-4);
      }

      .cls-11 {
        opacity: .6;
      }

      .cls-4 {
        opacity: .8;
      }

      .cls-29 {
        fill: url(#_Áåçûìÿííûé_ãðàäèåíò_85-4);
      }

      .cls-16 {
        fill: url(#radial-gradient);
        mix-blend-mode: lighten;
      }

      .cls-17 {
        fill: url(#_Áåçûìÿííûé_ãðàäèåíò_15);
      }

      .cls-30 {
        fill: url(#_Áåçûìÿííûé_ãðàäèåíò_31-5);
      }

      .cls-31 {
        fill: url(#_Áåçûìÿííûé_ãðàäèåíò_31-7);
      }

      .cls-32 {
        fill: url(#_Áåçûìÿííûé_ãðàäèåíò_31-2);
      }

      .cls-33 {
        fill: url(#_Áåçûìÿííûé_ãðàäèåíò_85-5);
      }

      .cls-18 {
        fill: url(#_Áåçûìÿííûé_ãðàäèåíò_15-5);
      }

      .cls-34 {
        fill: url(#_Áåçûìÿííûé_ãðàäèåíò_85-2);
      }

      .cls-35 {
        fill: #9ffff8;
      }

      .cls-36 {
        fill: url(#_Áåçûìÿííûé_ãðàäèåíò_31-3);
      }
    </style>
    <radialGradient id="radial-gradient" cx="781.43" cy="391.21" fx="781.43" fy="391.21" r="459.5" gradientUnits="userSpaceOnUse">
      <stop offset="0" stop-color="#42e8e0"/>
      <stop offset="0" stop-color="#41e6df" stop-opacity=".99"/>
      <stop offset=".11" stop-color="#35b2bd" stop-opacity=".76"/>
      <stop offset=".23" stop-color="#2b849f" stop-opacity=".56"/>
      <stop offset=".34" stop-color="#225d85" stop-opacity=".39"/>
      <stop offset=".46" stop-color="#1b3d70" stop-opacity=".25"/>
      <stop offset=".59" stop-color="#162460" stop-opacity=".14"/>
      <stop offset=".71" stop-color="#121255" stop-opacity=".06"/>
      <stop offset=".85" stop-color="#0f084e" stop-opacity=".01"/>
      <stop offset="1" stop-color="#0f054c" stop-opacity="0"/>
    </radialGradient>
    <linearGradient id="_Áåçûìÿííûé_ãðàäèåíò_85" data-name="Áåçûìÿííûé ãðàäèåíò 85" x1="499.2" y1="615.23" x2="1387.04" y2="615.23" gradientUnits="userSpaceOnUse">
      <stop offset="0" stop-color="#706ec4"/>
      <stop offset=".02" stop-color="#6d6bc1"/>
      <stop offset=".25" stop-color="#5651ac"/>
      <stop offset=".49" stop-color="#463e9d"/>
      <stop offset=".73" stop-color="#3c3393"/>
      <stop offset="1" stop-color="#393091"/>
    </linearGradient>
    <linearGradient id="_Áåçûìÿííûé_ãðàäèåíò_15" data-name="Áåçûìÿííûé ãðàäèåíò 15" x1="750.46" y1="495.26" x2="1283.37" y2="495.26" gradientUnits="userSpaceOnUse">
      <stop offset="0" stop-color="#42e8e0"/>
      <stop offset=".15" stop-color="#42e3df"/>
      <stop offset=".33" stop-color="#44d4de"/>
      <stop offset=".52" stop-color="#48bddd"/>
      <stop offset=".72" stop-color="#4d9bda"/>
      <stop offset=".93" stop-color="#5471d8"/>
      <stop offset="1" stop-color="#5761d7"/>
    </linearGradient>
    <linearGradient id="_Áåçûìÿííûé_ãðàäèåíò_15-2" data-name="Áåçûìÿííûé ãðàäèåíò 15" x1="1016.91" y1="398.94" y2="398.94" xlink:href="#_Áåçûìÿííûé_ãðàäèåíò_15"/>
    <linearGradient id="_Áåçûìÿííûé_ãðàäèåíò_15-3" data-name="Áåçûìÿííûé ãðàäèåíò 15" y1="398.94" x2="1016.92" y2="398.94" xlink:href="#_Áåçûìÿííûé_ãðàäèåíò_15"/>
    <linearGradient id="_Áåçûìÿííûé_ãðàäèåíò_15-4" data-name="Áåçûìÿííûé ãðàäèåíò 15" y1="456.47" y2="456.47" xlink:href="#_Áåçûìÿííûé_ãðàäèåíò_15"/>
    <linearGradient id="_Áåçûìÿííûé_ãðàäèåíò_15-5" data-name="Áåçûìÿííûé ãðàäèåíò 15" x1="1016.92" y1="552.78" y2="552.78" xlink:href="#_Áåçûìÿííûé_ãðàäèåíò_15"/>
    <linearGradient id="_Áåçûìÿííûé_ãðàäèåíò_15-6" data-name="Áåçûìÿííûé ãðàäèåíò 15" y1="552.78" x2="1016.92" y2="552.78" xlink:href="#_Áåçûìÿííûé_ãðàäèåíò_15"/>
    <linearGradient id="_Áåçûìÿííûé_ãðàäèåíò_31" data-name="Áåçûìÿííûé ãðàäèåíò 31" x1="-5758.55" y1="12360.13" x2="-5528.43" y2="12360.13" gradientTransform="translate(-6861.92 11504.33) rotate(60.06) scale(1 -1)" gradientUnits="userSpaceOnUse">
      <stop offset="0" stop-color="#bcbeff"/>
      <stop offset=".17" stop-color="#b5b8fc"/>
      <stop offset=".4" stop-color="#a3a7f5"/>
      <stop offset=".66" stop-color="#868ce9"/>
      <stop offset=".96" stop-color="#5d67d9"/>
      <stop offset="1" stop-color="#5761d7"/>
    </linearGradient>
    <linearGradient id="_Áåçûìÿííûé_ãðàäèåíò_85-2" data-name="Áåçûìÿííûé ãðàäèåíò 85" x1="-5758.55" y1="12360.13" x2="-5528.43" y2="12360.13" gradientTransform="translate(-6861.92 11504.33) rotate(60.06) scale(1 -1)" xlink:href="#_Áåçûìÿííûé_ãðàäèåíò_85"/>
    <linearGradient id="_Áåçûìÿííûé_ãðàäèåíò_31-2" data-name="Áåçûìÿííûé ãðàäèåíò 31" x1="-5819.77" y1="12371.02" x2="-5566.42" y2="12371.02" xlink:href="#_Áåçûìÿííûé_ãðàäèåíò_31"/>
    <linearGradient id="_Áåçûìÿííûé_ãðàäèåíò_85-3" data-name="Áåçûìÿííûé ãðàäèåíò 85" x1="-5854.76" y1="12371.02" x2="-5397.68" y2="12371.02" gradientTransform="translate(-6861.92 11504.33) rotate(60.06) scale(1 -1)" xlink:href="#_Áåçûìÿííûé_ãðàäèåíò_85"/>
    <linearGradient id="_Áåçûìÿííûé_ãðàäèåíò_31-3" data-name="Áåçûìÿííûé ãðàäèåíò 31" x1="-5819.69" y1="12395.35" x2="-5589.57" y2="12395.35" xlink:href="#_Áåçûìÿííûé_ãðàäèåíò_31"/>
    <linearGradient id="_Áåçûìÿííûé_ãðàäèåíò_85-4" data-name="Áåçûìÿííûé ãðàäèåíò 85" x1="-5819.69" y1="12395.35" x2="-5589.57" y2="12395.35" gradientTransform="translate(-6861.92 11504.33) rotate(60.06) scale(1 -1)" xlink:href="#_Áåçûìÿííûé_ãðàäèåíò_85"/>
    <linearGradient id="_Áåçûìÿííûé_ãðàäèåíò_31-4" data-name="Áåçûìÿííûé ãðàäèåíò 31" x1="-5880.92" y1="12406.24" x2="-5627.57" y2="12406.24" xlink:href="#_Áåçûìÿííûé_ãðàäèåíò_31"/>
    <linearGradient id="_Áåçûìÿííûé_ãðàäèåíò_85-5" data-name="Áåçûìÿííûé ãðàäèåíò 85" x1="-5915.91" y1="12406.24" x2="-5458.82" y2="12406.24" gradientTransform="translate(-6861.92 11504.33) rotate(60.06) scale(1 -1)" xlink:href="#_Áåçûìÿííûé_ãðàäèåíò_85"/>
    <linearGradient id="_Áåçûìÿííûé_ãðàäèåíò_31-5" data-name="Áåçûìÿííûé ãðàäèåíò 31" x1="-5880.84" y1="12430.57" x2="-5650.72" y2="12430.57" xlink:href="#_Áåçûìÿííûé_ãðàäèåíò_31"/>
    <linearGradient id="_Áåçûìÿííûé_ãðàäèåíò_85-6" data-name="Áåçûìÿííûé ãðàäèåíò 85" x1="-5880.84" y1="12430.57" x2="-5650.72" y2="12430.57" gradientTransform="translate(-6861.92 11504.33) rotate(60.06) scale(1 -1)" xlink:href="#_Áåçûìÿííûé_ãðàäèåíò_85"/>
    <linearGradient id="_Áåçûìÿííûé_ãðàäèåíò_31-6" data-name="Áåçûìÿííûé ãðàäèåíò 31" x1="-5942.06" y1="12441.46" x2="-5688.71" y2="12441.46" xlink:href="#_Áåçûìÿííûé_ãðàäèåíò_31"/>
    <linearGradient id="_Áåçûìÿííûé_ãðàäèåíò_85-7" data-name="Áåçûìÿííûé ãðàäèåíò 85" x1="-5977.05" y1="12441.46" x2="-5519.97" y2="12441.46" gradientTransform="translate(-6861.92 11504.33) rotate(60.06) scale(1 -1)" xlink:href="#_Áåçûìÿííûé_ãðàäèåíò_85"/>
    <linearGradient id="_Áåçûìÿííûé_ãðàäèåíò_31-7" data-name="Áåçûìÿííûé ãðàäèåíò 31" x1="-5941.98" y1="12465.79" x2="-5711.86" y2="12465.79" xlink:href="#_Áåçûìÿííûé_ãðàäèåíò_31"/>
    <linearGradient id="_Áåçûìÿííûé_ãðàäèåíò_85-8" data-name="Áåçûìÿííûé ãðàäèåíò 85" x1="-5941.98" y1="12465.79" x2="-5711.86" y2="12465.79" gradientTransform="translate(-6861.92 11504.33) rotate(60.06) scale(1 -1)" xlink:href="#_Áåçûìÿííûé_ãðàäèåíò_85"/>
    <linearGradient id="_Áåçûìÿííûé_ãðàäèåíò_31-8" data-name="Áåçûìÿííûé ãðàäèåíò 31" x1="-6003.21" y1="12476.68" x2="-5749.86" y2="12476.68" xlink:href="#_Áåçûìÿííûé_ãðàäèåíò_31"/>
    <linearGradient id="_Áåçûìÿííûé_ãðàäèåíò_85-9" data-name="Áåçûìÿííûé ãðàäèåíò 85" x1="-6038.2" y1="12476.68" x2="-5581.11" y2="12476.68" gradientTransform="translate(-6861.92 11504.33) rotate(60.06) scale(1 -1)" xlink:href="#_Áåçûìÿííûé_ãðàäèåíò_85"/>
  </defs>
  <g class="cls-19">
    <g id="Layer_2" data-name="Layer 2">
      <g id="home">
        <g>
          <circle class="cls-16" cx="781.43" cy="391.21" r="386.6"/>
          <g>
            <path class="cls-5" d="m461.23,867.19c-2.85,1.65-7.48,1.65-10.34,0-2.85-1.65-2.85-4.32,0-5.97,2.85-1.65,7.48-1.65,10.34,0,2.85,1.65,2.85,4.32,0,5.97Z"/>
            <path class="cls-5" d="m669.5,853.74c-2.85,1.65-7.48,1.65-10.34,0-2.85-1.65-2.85-4.32,0-5.97,2.85-1.65,7.48-1.65,10.34,0,2.85,1.65,2.85,4.32,0,5.97Z"/>
            <path class="cls-5" d="m762.66,905c-2.85,1.65-7.48,1.65-10.34,0-2.85-1.65-2.85-4.32,0-5.97,2.85-1.65,7.48-1.65,10.34,0,2.85,1.65,2.85,4.32,0,5.97Z"/>
            <path class="cls-5" d="m343.98,687.63c-2.85,1.65-7.48,1.65-10.34,0-2.85-1.65-2.85-4.32,0-5.97,2.85-1.65,7.48-1.65,10.34,0,2.85,1.65,2.85,4.32,0,5.97Z"/>
            <g>
              <path class="cls-5" d="m1036.77,614.84l-195.12-112.65,195.12-112.65,195.12,112.65-195.12,112.65Zm-191.85-112.65l191.85,110.77,191.84-110.76-191.85-110.77-191.84,110.76Z"/>
              <polygon class="cls-5" points="964.89 432.45 830.09 354.63 830.09 227.76 444.15 4.93 444.96 3.51 831.73 226.81 831.73 353.69 965.7 431.04 964.89 432.45"/>
              <polygon class="cls-5" points="791.1 204.77 791.1 100.11 615.17 33.24 615.99 31.83 792.73 99.16 792.74 204.77 791.1 204.77"/>
              <polygon class="cls-5" points="939.61 447.04 808.96 371.62 581.07 371.61 580.89 371.5 381.33 256.29 148.82 256.29 7.72 337.75 6.9 336.33 148.38 254.65 381.77 254.65 381.96 254.76 581.52 369.98 809.4 369.98 809.59 370.09 940.43 445.63 939.61 447.04"/>
              <path class="cls-6" d="m1460.75,130.24l-90.92,52.49v91.71l-267.43,154.41-.82-1.42,266.62-153.93v-91.71s90.92-52.5,90.92-52.5c.22.19.48.35.75.52s.57.3.88.43Z"/>
              <polygon class="cls-5" points="1069.38 409.79 1068.56 408.37 1225.3 317.88 1225.3 241.06 952.78 83.72 953.6 82.3 1226.94 240.12 1226.94 318.82 1069.38 409.79"/>
              <polygon class="cls-5" points="1917.53 759.5 1675.46 759.5 1675.27 759.39 1501.18 658.88 1357.05 658.87 1356.87 658.76 1158.37 544.16 1159.19 542.75 1357.5 657.24 1501.62 657.24 1501.81 657.35 1675.9 757.86 1917.09 757.86 1917.06 756.84 1917.87 758.25 1917.53 759.5"/>
              <polygon class="cls-5" points="1620.34 689.46 1534.28 639.78 1368.87 639.77 1368.68 639.66 1180.82 531.2 1181.64 529.79 1369.31 638.14 1534.72 638.14 1534.91 638.25 1621.16 688.04 1620.34 689.46"/>
              <polygon class="cls-5" points="1267.59 580.83 1266.77 579.41 1404.9 499.66 1504 499.66 1504.18 499.77 1567.99 536.61 1567.17 538.03 1503.55 501.3 1405.34 501.3 1267.59 580.83"/>
              <polygon class="cls-5" points="1641.9 779.34 1564.39 734.59 1564.39 695.58 1566.02 695.58 1566.03 733.64 1642.72 777.92 1641.9 779.34"/>
              <polygon class="cls-5" points="1157.44 201.76 1094.75 201.76 1094.56 201.65 982.69 137.05 983.51 135.64 1095.19 200.12 1157.44 200.12 1157.44 201.76"/>
              <polygon class="cls-5" points="1098.15 391.77 1098.14 350.36 1175.68 305.6 1175.68 262.84 1177.31 262.84 1177.32 306.54 1099.78 351.31 1099.78 391.77 1098.15 391.77"/>
              <polygon class="cls-5" points="664.74 851.46 663.92 850.05 798.2 772.52 798.2 645.64 945.38 560.67 946.2 562.08 799.84 646.58 799.84 773.46 664.74 851.46"/>
              <polygon class="cls-5" points="755.72 903.99 754.9 902.57 807.66 872.11 807.66 816.18 859.64 786.16 859.64 637.46 969.01 574.31 969.83 575.73 861.27 638.4 861.28 787.11 809.29 817.12 809.29 873.06 755.72 903.99"/>
              <polygon class="cls-5" points="339.22 685.35 338.4 683.93 380.99 659.34 471.05 659.34 633.39 565.62 776.12 565.62 865.04 514.28 865.86 515.7 776.56 567.25 633.83 567.25 471.49 660.98 381.43 660.98 339.22 685.35"/>
              <polygon class="cls-5" points="431.24 621.15 430.43 619.74 487.33 586.88 596.77 586.89 596.77 588.52 487.77 588.52 431.24 621.15"/>
              <polygon class="cls-5" points="456.47 864.91 455.65 863.5 664.04 743.19 664.04 680.05 908.1 539.14 908.92 540.56 665.67 681 665.68 744.13 456.47 864.91"/>
              <polygon class="cls-5" points="913.49 462.13 819.45 407.83 555.4 407.83 555.21 407.72 364.41 297.56 365.23 296.14 555.84 406.19 819.89 406.2 820.08 406.31 914.31 460.71 913.49 462.13"/>
              <polygon class="cls-5" points="699.99 439.01 554.21 439.01 554.21 437.38 699.55 437.38 753.36 406.31 754.18 407.72 699.99 439.01"/>
              <polygon class="cls-5" points="1090.56 998.1 1090.55 908.56 1300.93 787.1 1300.93 691.27 1102.25 576.56 1103.07 575.15 1302.56 690.32 1302.57 788.05 1092.19 909.51 1092.19 998.1 1090.56 998.1"/>
              <polygon class="cls-5" points="1049.32 884.55 1048.5 883.13 1121.35 841.07 1207.41 841.07 1207.41 842.71 1121.79 842.71 1049.32 884.55"/>
              <rect class="cls-5" x="1146.73" y="549.94" width="1.64" height="168.83" transform="translate(24.4 1310.98) rotate(-60)"/>
              <polygon class="cls-5" points="916.36 889.3 916.35 640.87 1000.32 592.39 1001.14 593.8 917.98 641.81 917.99 889.3 916.36 889.3"/>
              <polygon class="cls-5" points="959.48 853.48 959.48 767.72 916.76 743.06 917.58 741.64 961.11 766.78 961.12 853.48 959.48 853.48"/>
              <polygon class="cls-5" points="375.15 542.38 374.33 540.97 505.77 465.08 708.19 465.08 775.31 426.33 808.39 426.33 808.58 426.44 891.12 474.1 890.31 475.51 807.95 427.97 775.75 427.96 708.63 466.72 506.21 466.72 375.15 542.38"/>
              <polygon class="cls-5" points="1269.39 706.45 1216.16 706.45 1215.97 706.34 1046.72 608.63 1047.54 607.21 1216.6 704.81 1269.39 704.82 1269.39 706.45"/>
              <polygon class="cls-5" points="1126.03 747.01 986.94 666.71 986.94 632.51 1028.38 608.59 1029.2 610 988.58 633.46 988.58 665.77 1126.85 745.6 1126.03 747.01"/>
              <polygon class="cls-5" points="1135.19 722.12 1073.5 686.5 1021.8 686.5 1021.8 684.86 1073.94 684.86 1074.12 684.97 1136.01 720.7 1135.19 722.12"/>
              <polygon class="cls-5" points="1134.08 798.64 1069.58 761.4 1069.58 731.85 997.1 690.01 997.1 672.1 998.73 672.1 998.74 689.07 1071.21 730.91 1071.21 760.46 1134.9 797.23 1134.08 798.64"/>
              <path class="cls-5" d="m1140.77,724.39c-2.85,1.65-7.48,1.65-10.34,0-2.85-1.65-2.85-4.32,0-5.97,2.85-1.65,7.48-1.65,10.34,0,2.85,1.65,2.85,4.32,0,5.97Z"/>
              <path class="cls-5" d="m1131.8,749.18c-2.85,1.65-7.48,1.65-10.34,0-2.85-1.65-2.85-4.32,0-5.97,2.85-1.65,7.48-1.65,10.34,0,2.85,1.65,2.85,4.32,0,5.97Z"/>
              <path class="cls-5" d="m983.81,734.86c-2.85,1.65-7.48,1.65-10.34,0-2.85-1.65-2.86-4.32,0-5.97,2.85-1.65,7.48-1.65,10.34,0,2.85,1.65,2.85,4.32,0,5.97Z"/>
              <path class="cls-5" d="m673.49,511.73c-2.85,1.65-7.48,1.65-10.34,0-2.85-1.65-2.86-4.32,0-5.97,2.85-1.65,7.48-1.65,10.34,0,2.85,1.65,2.85,4.32,0,5.97Z"/>
              <path class="cls-5" d="m473.37,556.39c-2.85,1.65-7.48,1.65-10.34,0-2.85-1.65-2.85-4.32,0-5.97,2.85-1.65,7.48-1.65,10.34,0,2.85,1.65,2.85,4.32,0,5.97Z"/>
              <path class="cls-5" d="m736.9,481.09c-2.85,1.65-7.48,1.65-10.34,0s-2.85-4.32,0-5.97c2.85-1.65,7.48-1.65,10.34,0,2.85,1.65,2.85,4.32,0,5.97Z"/>
              <path class="cls-5" d="m759.51,530.7c-2.85,1.65-7.48,1.65-10.34,0-2.85-1.65-2.85-4.32,0-5.97,2.85-1.65,7.48-1.65,10.34,0,2.85,1.65,2.85,4.32,0,5.97Z"/>
              <path class="cls-5" d="m1096.54,1001.08c-2.85,1.65-7.48,1.65-10.34,0s-2.86-4.32,0-5.97c2.85-1.65,7.48-1.65,10.34,0,2.85,1.65,2.86,4.32,0,5.97Z"/>
              <path class="cls-5" d="m1054.08,886.82c-2.85,1.65-7.48,1.65-10.34,0-2.85-1.65-2.86-4.32,0-5.97,2.85-1.65,7.48-1.65,10.34,0,2.85,1.65,2.86,4.32,0,5.97Z"/>
              <path class="cls-5" d="m1743.61,990.78c-2.85,1.65-7.48,1.65-10.34,0-2.85-1.65-2.85-4.32,0-5.97,2.85-1.65,7.48-1.65,10.34,0,2.85,1.65,2.85,4.32,0,5.97Z"/>
              <path class="cls-5" d="m1491.01,996.1c-2.85,1.65-7.48,1.65-10.34,0-2.85-1.65-2.85-4.32,0-5.97,2.85-1.65,7.48-1.65,10.34,0,2.85,1.65,2.85,4.32,0,5.97Z"/>
              <path class="cls-5" d="m1392.54,805.81c-1.32,5.63-13.83,5.63-15.15,0,1.32-5.63,13.83-5.63,15.15,0Z"/>
              <path class="cls-5" d="m559.38,441.18c-2.85,1.65-7.48,1.65-10.34,0-2.85-1.65-2.85-4.32,0-5.97,2.85-1.65,7.48-1.65,10.34,0,2.85,1.65,2.85,4.32,0,5.97Z"/>
              <path class="cls-5" d="m369.99,299.84c-2.85,1.65-7.48,1.65-10.34,0-2.85-1.65-2.86-4.32,0-5.97,2.85-1.65,7.48-1.65,10.34,0,2.85,1.65,2.86,4.32,0,5.97Z"/>
              <path class="cls-5" d="m12.48,340.03c-2.85,1.65-7.48,1.65-10.34,0-2.85-1.65-2.86-4.32,0-5.97,2.85-1.65,7.48-1.65,10.34,0,2.85,1.65,2.86,4.32,0,5.97Z"/>
              <path class="cls-5" d="m619.57,36.2c-2.85,1.65-7.48,1.65-10.34,0-2.85-1.65-2.85-4.32,0-5.97,2.85-1.65,7.48-1.65,10.34,0,2.85,1.65,2.85,4.32,0,5.97Z"/>
              <path class="cls-5" d="m1139.66,800.92c-2.85,1.65-7.48,1.65-10.34,0-2.85-1.65-2.85-4.32,0-5.97,2.85-1.65,7.48-1.65,10.34,0,2.85,1.65,2.86,4.32,0,5.97Z"/>
              <path class="cls-5" d="m965.47,856.47c-2.85,1.65-7.48,1.65-10.34,0-2.85-1.65-2.85-4.32,0-5.97,2.85-1.65,7.48-1.65,10.34,0,2.85,1.65,2.85,4.32,0,5.97Z"/>
              <path class="cls-5" d="m436,623.43c-2.85,1.65-7.48,1.65-10.34,0-2.85-1.65-2.85-4.32,0-5.97,2.85-1.65,7.48-1.65,10.34,0,2.85,1.65,2.85,4.32,0,5.97Z"/>
              <path class="cls-5" d="m566.82,678.84c-2.85,1.65-7.48,1.65-10.34,0s-2.85-4.32,0-5.97c2.85-1.65,7.48-1.65,10.34,0,2.85,1.65,2.85,4.32,0,5.97Z"/>
              <path class="cls-5" d="m380.03,544.73c-2.85,1.65-7.48,1.65-10.34,0-2.85-1.65-2.85-4.32,0-5.97,2.85-1.65,7.48-1.65,10.34,0,2.85,1.65,2.85,4.32,0,5.97Z"/>
              <path class="cls-5" d="m1274.56,708.62c-2.85,1.65-7.48,1.65-10.34,0-2.85-1.65-2.86-4.32,0-5.97,2.85-1.65,7.48-1.65,10.34,0,2.85,1.65,2.86,4.32,0,5.97Z"/>
              <path class="cls-5" d="m1569.42,538.38c-2.85,1.65-7.48,1.65-10.34,0-2.85-1.65-2.85-4.32,0-5.97,2.85-1.65,7.48-1.65,10.34,0,2.85,1.65,2.85,4.32,0,5.97Z"/>
              <path class="cls-5" d="m1444.6,432.84c-2.85,1.65-7.48,1.65-10.34,0-2.85-1.65-2.85-4.32,0-5.97,2.85-1.65,7.48-1.65,10.34,0,2.85,1.65,2.85,4.32,0,5.97Z"/>
              <path class="cls-5" d="m1374.03,469.4c-2.85,1.65-7.48,1.65-10.34,0s-2.86-4.32,0-5.97c2.85-1.65,7.48-1.65,10.34,0,2.85,1.65,2.86,4.32,0,5.97Z"/>
              <path class="cls-5" d="m1306.24,412.19c-2.85,1.65-7.48,1.65-10.34,0s-2.86-4.32,0-5.97c2.85-1.65,7.48-1.65,10.34,0,2.85,1.65,2.86,4.32,0,5.97Z"/>
              <path class="cls-5" d="m1181.66,265.83c-2.85,1.65-7.48,1.65-10.34,0-2.85-1.65-2.85-4.32,0-5.97,2.85-1.65,7.48-1.65,10.34,0,2.85,1.65,2.85,4.32,0,5.97Z"/>
              <path class="cls-6" d="m1470.21,129.81c-2.58,1.49-6.6,1.63-9.46.43-.31-.13-.6-.27-.88-.43s-.53-.33-.75-.52c-2.08-1.64-1.83-3.96.75-5.45,2.86-1.65,7.48-1.65,10.34,0,2.86,1.65,2.86,4.32,0,5.97Z"/>
              <path class="cls-5" d="m1094.67,275.88c-2.85,1.65-7.48,1.65-10.34,0-2.85-1.65-2.85-4.32,0-5.97,2.85-1.65,7.48-1.65,10.34,0,2.85,1.65,2.85,4.32,0,5.97Z"/>
              <path class="cls-5" d="m1085.07,222.59c-2.85,1.65-7.48,1.65-10.34,0-2.85-1.65-2.85-4.32,0-5.97,2.85-1.65,7.48-1.65,10.34,0,2.85,1.65,2.85,4.32,0,5.97Z"/>
              <path class="cls-5" d="m935.3,159.68c-2.85,1.65-7.48,1.65-10.34,0-2.85-1.65-2.85-4.32,0-5.97,2.85-1.65,7.48-1.65,10.34,0,2.85,1.65,2.85,4.32,0,5.97Z"/>
              <path class="cls-5" d="m988.27,139.33c-2.85,1.65-7.48,1.65-10.34,0s-2.85-4.32,0-5.97c2.85-1.65,7.48-1.65,10.34,0,2.85,1.65,2.85,4.32,0,5.97Z"/>
              <path class="cls-5" d="m449.72,7.2c-2.85,1.65-7.48,1.65-10.34,0s-2.86-4.32,0-5.97c2.85-1.65,7.48-1.65,10.34,0,2.85,1.65,2.86,4.32,0,5.97Z"/>
              <path class="cls-5" d="m958.36,86c-2.85,1.65-7.48,1.65-10.34,0-2.85-1.65-2.85-4.32,0-5.97,2.85-1.65,7.48-1.65,10.34,0,2.85,1.65,2.85,4.32,0,5.97Z"/>
              <path class="cls-5" d="m1276.53,529.99c-2.85,1.65-7.48,1.65-10.34,0-2.85-1.65-2.85-4.32,0-5.97,2.85-1.65,7.48-1.65,10.34,0s2.85,4.32,0,5.97Z"/>
              <path class="cls-5" d="m927.79,353.31c-2.85,1.65-7.48,1.65-10.34,0-2.85-1.65-2.85-4.32,0-5.97,2.85-1.65,7.48-1.65,10.34,0,2.85,1.65,2.85,4.32,0,5.97Z"/>
              <path class="cls-5" d="m627.25,249.19c-2.85,1.65-7.48,1.65-10.34,0-2.85-1.65-2.85-4.32,0-5.97,2.85-1.65,7.48-1.65,10.34,0,2.85,1.65,2.85,4.32,0,5.97Z"/>
              <path class="cls-5" d="m407.44,135.65c-2.85,1.65-7.48,1.65-10.34,0-2.85-1.65-2.85-4.32,0-5.97,2.85-1.65,7.48-1.65,10.34,0,2.85,1.65,2.85,4.32,0,5.97Z"/>
              <path class="cls-5" d="m476.16,117.28c-2.85,1.65-7.48,1.65-10.34,0-2.85-1.65-2.85-4.32,0-5.97,2.85-1.65,7.48-1.65,10.34,0,2.85,1.65,2.85,4.32,0,5.97Z"/>
              <path class="cls-5" d="m1400.1,537.49c-2.85,1.65-7.48,1.65-10.34,0-2.85-1.65-2.85-4.32,0-5.97,2.85-1.65,7.48-1.65,10.34,0,2.85,1.65,2.86,4.32,0,5.97Z"/>
              <path class="cls-5" d="m1647.48,781.61c-2.85,1.65-7.48,1.65-10.34,0s-2.85-4.32,0-5.97c2.85-1.65,7.48-1.65,10.34,0,2.85,1.65,2.85,4.32,0,5.97Z"/>
              <path class="cls-5" d="m1746.86,520.78c-2.85,1.65-7.48,1.65-10.34,0-2.85-1.65-2.86-4.32,0-5.97,2.85-1.65,7.48-1.65,10.34,0,2.85,1.65,2.86,4.32,0,5.97Z"/>
              <path class="cls-5" d="m1625.92,691.74c-2.85,1.65-7.48,1.65-10.34,0-2.85-1.65-2.85-4.32,0-5.97,2.85-1.65,7.48-1.65,10.34,0,2.85,1.65,2.85,4.32,0,5.97Z"/>
              <path class="cls-5" d="m1922.63,760.53c-2.85,1.65-7.48,1.65-10.34,0-2.85-1.65-2.85-4.32,0-5.97,2.85-1.65,7.48-1.65,10.34,0,2.85,1.65,2.86,4.32,0,5.97Z"/>
              <path class="cls-5" d="m1225.82,679.55c-2.85,1.65-7.48,1.65-10.34,0-2.85-1.65-2.85-4.32,0-5.97,2.85-1.65,7.48-1.65,10.34,0,2.85,1.65,2.85,4.32,0,5.97Z"/>
              <rect class="cls-5" x="947" y="678.9" width="1.64" height="70.77" transform="translate(-144.68 1177.98) rotate(-60)"/>
              <polygon class="cls-5" points="1240.97 545.38 1205.6 545.38 1205.6 543.75 1240.53 543.75 1271.78 525.7 1272.6 527.12 1240.97 545.38"/>
              <polygon class="cls-5" points="1439.02 430.56 1353.5 381.19 1295.96 381.19 1220.11 424.98 1171.91 424.98 1171.91 423.35 1219.67 423.35 1295.52 379.55 1353.94 379.55 1354.13 379.66 1439.84 429.15 1439.02 430.56"/>
              <polygon class="cls-5" points="1215.3 494.03 1214.48 492.62 1300.63 442.87 1329.72 442.87 1329.91 442.98 1367.82 464.87 1367.01 466.29 1329.28 444.51 1301.07 444.51 1215.3 494.03"/>
              <polygon class="cls-5" points="1237.56 479.76 1237.56 444.93 1300.66 408.5 1301.48 409.91 1239.2 445.87 1239.2 479.76 1237.56 479.76"/>
              <polygon class="cls-5" points="804.05 551.26 740.31 551.26 740.12 551.15 667.91 509.45 668.73 508.04 740.75 549.62 804.05 549.62 804.05 551.26"/>
              <polygon class="cls-5" points="1738.03 988.5 1517.86 861.39 1517.86 780.9 1133.1 558.75 1133.92 557.34 1519.5 779.95 1519.5 860.44 1738.85 987.09 1738.03 988.5"/>
              <polygon class="cls-5" points="731.99 478.73 731.17 477.31 786.09 445.6 808.68 445.6 808.87 445.71 837.77 462.4 870.64 462.4 870.64 464.03 837.33 464.03 837.14 463.92 808.24 447.24 786.53 447.24 731.99 478.73"/>
              <polygon class="cls-5" points="987.33 419.49 883.11 359.32 883.11 289.77 1000.62 221.93 1000.62 198.34 929.72 157.4 930.54 155.99 1002.26 197.39 1002.26 222.87 884.75 290.71 884.75 358.38 988.15 418.08 987.33 419.49"/>
              <polygon class="cls-5" points="962.57 404.72 962.57 374.33 922.22 351.03 923.03 349.62 964.2 373.38 964.21 404.72 962.57 404.72"/>
              <polygon class="cls-5" points="750.16 371.51 503.77 229.25 503.77 192.21 402.15 133.54 402.97 132.12 505.4 191.26 505.4 228.31 750.98 370.09 750.16 371.51"/>
              <polygon class="cls-5" points="661.59 268.55 659.96 268.55 659.96 224.34 470.58 115.01 471.4 113.59 661.59 223.4 661.59 268.55"/>
              <polygon class="cls-5" points="809.6 371.03 685.06 299.13 685.06 283.52 621.67 246.92 622.49 245.5 686.7 282.57 686.7 298.19 810.41 369.61 809.6 371.03"/>
              <polygon class="cls-5" points="1384.56 806.52 1336.08 779.09 1336.08 732.03 1301.34 711.97 1302.16 710.55 1337.71 731.08 1337.71 778.15 1385.38 805.1 1384.56 806.52"/>
              <polygon class="cls-5" points="1345.03 564.26 1296.13 564.26 1296.13 562.62 1344.59 562.62 1394.52 533.8 1395.34 535.21 1345.03 564.26"/>
              <polygon class="cls-5" points="1562.63 622.13 1338.52 622.12 1338.52 620.49 1562.19 620.49 1739.52 518.11 1740.34 519.53 1562.63 622.13"/>
              <polygon class="cls-5" points="1015.58 402.24 1015.57 314.64 1087.91 272.87 1088.73 274.29 1017.21 315.58 1017.21 402.24 1015.58 402.24"/>
              <polygon class="cls-5" points="1015.98 351.54 963.08 321 963.08 286.11 1079.5 218.9 1080.31 220.32 964.71 287.06 964.71 320.05 1016.8 350.13 1015.98 351.54"/>
              <polygon class="cls-5" points="562.06 676.56 561.25 675.14 692.17 599.55 803.68 599.56 803.68 601.19 692.61 601.19 562.06 676.56"/>
              <polygon class="cls-5" points="547.1 554.22 468.2 554.22 468.2 552.59 546.66 552.59 582.43 531.94 709.9 531.94 709.9 533.57 582.87 533.57 547.1 554.22"/>
              <polygon class="cls-5" points="755.19 528.17 754.37 526.75 814.01 492.32 858.96 492.32 858.96 493.95 814.45 493.95 755.19 528.17"/>
              <polygon class="cls-5" points="1485.43 993.82 1397.37 942.98 1397.37 867.52 1280.74 800.18 1281.56 798.76 1399.01 866.57 1399.01 942.03 1486.25 992.4 1485.43 993.82"/>
            </g>
          </g>
          <g>
            <g>
              <g>
                <polygon class="cls-27" points="1363.34 495.21 1363.34 535.25 1016.92 735.25 670.49 535.24 670.49 495.21 1363.34 495.21"/>
                <polygon class="cls-9" points="1016.92 695.22 670.49 495.21 1016.91 295.2 1363.34 495.21 1016.92 695.22"/>
                <polygon class="cls-7" points="1016.92 690.54 674.54 492.87 670.49 495.21 1016.92 695.22 1363.34 495.21 1359.29 492.88 1016.92 690.54"/>
              </g>
              <g>
                <polygon class="cls-10" points="1016.92 649.09 750.47 495.25 1016.91 341.42 1283.36 495.26 1016.92 649.09"/>
                <g>
                  <polygon class="cls-17" points="1016.92 649.09 750.46 495.26 1016.91 341.42 1283.37 495.26 1016.92 649.09"/>
                  <g>
                    <polygon class="cls-12" points="1016.91 302.63 1283.37 456.47 1283.37 495.26 1016.91 341.42 1016.91 302.63"/>
                    <polygon class="cls-14" points="1016.92 341.42 750.46 495.25 750.46 456.46 1016.91 302.63 1016.92 341.42"/>
                    <polygon class="cls-15" points="1016.92 610.3 750.46 456.46 1016.91 302.63 1283.37 456.47 1016.92 610.3"/>
                    <polygon class="cls-6" points="1016.92 517.94 910.45 456.47 1016.91 395 1123.38 456.47 1016.92 517.94"/>
                    <polygon class="cls-6" points="1016.91 400.65 1118.48 459.29 1123.38 456.47 1016.91 395 910.45 456.47 915.34 459.29 1016.91 400.65"/>
                    <polygon class="cls-18" points="1016.92 610.3 1016.92 649.09 1283.37 495.26 1283.37 456.47 1016.92 610.3"/>
                  </g>
                  <polygon class="cls-13" points="750.46 456.46 750.46 495.25 1016.92 649.09 1016.92 610.3 750.46 456.46"/>
                </g>
                <polygon class="cls-4" points="1016.92 606.07 754.13 454.35 750.46 456.46 1016.92 610.3 1283.37 456.47 1279.7 454.35 1016.92 606.07"/>
              </g>
            </g>
            <g>
              <g>
                <path class="cls-22" d="m1029.73,576.54l226.28-130.33c4.96-2.86,7.47-6.53,7.43-10v.02s.02-40.83.02-40.83l-7.75,6.92-6.67-3.86c.73-.85,1.23-1.58,1.09-1.82-.4-.69-3.31-5.75-3.31-5.75l-159.64-94.24-50.75-29.55-19.83-5.72-232.29,133.48.67,5.37-6.2,3.57-9.94-4.45-.04,40.59.02-.02c-.07,2.91,1.62,5.71,5.22,7.79l225.33,130.06c7.77,4.5,21.36,3.95,30.34-1.23Zm91.86-100.67l-102.46,55.95-8.82-.43-171.12-95.74-47.41-24.49,223.3-128.61c2.05-1.18,5.15-1.31,6.93-.28l217.3,125.41-117.72,68.19Z"/>
                <path class="cls-34" d="m1029.73,576.54l226.28-130.33c4.96-2.86,7.47-6.53,7.43-10v.02s.02-40.83.02-40.83l-7.75,6.92-6.67-3.86c.73-.85,1.23-1.58,1.09-1.82-.4-.69-3.31-5.75-3.31-5.75l-159.64-94.24-50.75-29.55-19.83-5.72-232.29,133.48.67,5.37-6.2,3.57-9.94-4.45-.04,40.59.02-.02c-.07,2.91,1.62,5.71,5.22,7.79l225.33,130.06c7.77,4.5,21.36,3.95,30.34-1.23Zm91.86-100.67l-102.46,55.95-8.82-.43-171.12-95.74-47.41-24.49,223.3-128.61c2.05-1.18,5.15-1.31,6.93-.28l217.3,125.41-117.72,68.19Z"/>
                <path class="cls-11" d="m1013.4,580.79l.03-49.25,5.7.28,102.46-55.95,117.72-68.19-3.9-2.26c3.64-2.1,24.27-7.85,28.06-10.03v37.86s0,2.98,0,2.98v-.02c.03,3.47-2.48,7.14-7.44,10l-226.28,130.33c-4.68,2.7-10.62,4.13-16.32,4.25Z"/>
                <path class="cls-32" d="m1029.74,535.23l226.28-130.33c8.99-5.18,9.97-13.02,2.2-17.52l-225.33-130.06c-7.77-4.5-21.36-3.95-30.34,1.23l-226.28,130.33c-8.99,5.18-9.97,13.02-2.2,17.52l225.33,130.06c7.77,4.5,21.36,3.95,30.34-1.23Zm-12.54-7.62c-2.05,1.18-5.15,1.31-6.93.28l-221.34-127.75c-1.77-1.03-1.55-2.82.5-4l225.65-129.97c2.05-1.18,5.15-1.31,6.93-.28l221.34,127.75c1.77,1.03,1.55,2.82-.5,4l-225.65,129.97Z"/>
                <path class="cls-25" d="m1029.74,535.23l226.28-130.33c8.99-5.18,9.97-13.02,2.2-17.52l-225.33-130.06c-7.77-4.5-21.36-3.95-30.34,1.23l-226.28,130.33c-8.99,5.18-9.97,13.02-2.2,17.52l225.33,130.06c7.77,4.5,21.36,3.95,30.34-1.23Zm-12.54-7.62c-2.05,1.18-5.15,1.31-6.93.28l-221.34-127.75c-1.77-1.03-1.55-2.82.5-4l225.65-129.97c2.05-1.18,5.15-1.31,6.93-.28l221.34,127.75c1.77,1.03,1.55,2.82-.5,4l-225.65,129.97Z"/>
                <g>
                  <path class="cls-5" d="m1243.36,391.42l-221.34-127.75c-1.77-1.03-4.88-.9-6.93.28l-225.65,129.97c-1.66.96-2.1,2.31-1.28,3.33.28-.4.7-.78,1.28-1.11l225.65-129.97c2.05-1.18,5.15-1.31,6.93-.28l221.34,127.75c.34.2.58.43.78.67.73-1.02.5-2.15-.78-2.89Z"/>
                  <path class="cls-5" d="m1256.03,402.68l-226.28,130.33c-8.99,5.18-22.57,5.72-30.34,1.23l-225.33-130.06c-3.07-1.78-4.75-4.07-5.14-6.52-.52,3.25,1.15,6.44,5.14,8.74l225.33,130.06c7.77,4.5,21.36,3.95,30.34-1.23l226.28-130.33c5.44-3.13,7.92-7.24,7.33-10.99-.49,3.09-2.95,6.25-7.33,8.77Z"/>
                </g>
                <path class="cls-26" d="m1022,282.27c-1.77-1.03-4.88-.9-6.93.28l-215.18,123.93-10.96-6.34c-1.77-1.03-1.55-2.82.5-4l225.65-129.97c2.05-1.18,5.15-1.31,6.93-.28l221.34,127.75c1.77,1.03,1.55,2.82-.5,4l-10.48,6.03-210.38-121.41Z"/>
                <path class="cls-2" d="m1242.86,397.64c2.05-1.18,2.28-2.97.5-4l-221.34-127.75c-1.77-1.03-4.88-.9-6.93.28l-225.65,129.97c-2.05,1.18-2.28,2.97-.5,4l221.34,127.75c1.77,1.03,4.88.9,6.93-.28l225.65-129.97Z"/>
              </g>
              <g>
                <path class="cls-36" d="m1029.73,505.98l226.28-130.33c4.96-2.86,7.47-6.53,7.43-10v.02s.02-40.83.02-40.83l-7.75,6.92-6.67-3.86c.73-.85,1.23-1.58,1.09-1.82-.4-.69-3.31-5.75-3.31-5.75l-159.64-94.24-50.75-29.55-19.83-5.72-232.29,133.48.67,5.37-6.2,3.57-9.94-4.45-.04,40.6.02-.02c-.07,2.91,1.62,5.71,5.22,7.79l225.33,130.06c7.77,4.5,21.36,3.95,30.34-1.23Zm91.86-100.67l-102.46,55.95-8.82-.43-171.12-95.74-47.41-24.49,223.3-128.61c2.05-1.18,5.15-1.31,6.93-.28l217.3,125.41-117.72,68.19Z"/>
                <path class="cls-29" d="m1029.73,505.98l226.28-130.33c4.96-2.86,7.47-6.53,7.43-10v.02s.02-40.83.02-40.83l-7.75,6.92-6.67-3.86c.73-.85,1.23-1.58,1.09-1.82-.4-.69-3.31-5.75-3.31-5.75l-159.64-94.24-50.75-29.55-19.83-5.72-232.29,133.48.67,5.37-6.2,3.57-9.94-4.45-.04,40.6.02-.02c-.07,2.91,1.62,5.71,5.22,7.79l225.33,130.06c7.77,4.5,21.36,3.95,30.34-1.23Zm91.86-100.67l-102.46,55.95-8.82-.43-171.12-95.74-47.41-24.49,223.3-128.61c2.05-1.18,5.15-1.31,6.93-.28l217.3,125.41-117.72,68.19Z"/>
                <path class="cls-11" d="m1013.4,510.23l.03-49.25,5.7.28,102.46-55.95,117.72-68.19-3.9-2.26c3.64-2.1,24.27-7.85,28.06-10.03v37.86s0,2.98,0,2.98v-.02c.03,3.47-2.48,7.14-7.44,10l-226.28,130.33c-4.68,2.7-10.62,4.13-16.32,4.25Z"/>
                <path class="cls-28" d="m1029.74,464.67l226.28-130.33c8.99-5.18,9.97-13.02,2.2-17.52l-225.33-130.06c-7.77-4.5-21.36-3.95-30.34,1.23l-226.28,130.33c-8.99,5.18-9.97,13.02-2.2,17.52l225.33,130.06c7.77,4.5,21.36,3.95,30.34-1.23Zm-12.54-7.62c-2.05,1.18-5.15,1.31-6.93.28l-221.34-127.75c-1.77-1.03-1.55-2.82.5-4l225.65-129.97c2.05-1.18,5.15-1.31,6.93-.28l221.34,127.75c1.77,1.03,1.55,2.82-.5,4l-225.65,129.97Z"/>
                <path class="cls-33" d="m1029.74,464.67l226.28-130.33c8.99-5.18,9.97-13.02,2.2-17.52l-225.33-130.06c-7.77-4.5-21.36-3.95-30.34,1.23l-226.28,130.33c-8.99,5.18-9.97,13.02-2.2,17.52l225.33,130.06c7.77,4.5,21.36,3.95,30.34-1.23Zm-12.54-7.62c-2.05,1.18-5.15,1.31-6.93.28l-221.34-127.75c-1.77-1.03-1.55-2.82.5-4l225.65-129.97c2.05-1.18,5.15-1.31,6.93-.28l221.34,127.75c1.77,1.03,1.55,2.82-.5,4l-225.65,129.97Z"/>
                <g>
                  <path class="cls-5" d="m1243.36,320.86l-221.34-127.75c-1.77-1.03-4.88-.9-6.93.28l-225.65,129.97c-1.66.96-2.1,2.31-1.28,3.33.28-.4.7-.78,1.28-1.11l225.65-129.96c2.05-1.18,5.15-1.31,6.93-.28l221.34,127.75c.34.2.58.43.78.67.73-1.02.5-2.15-.78-2.89Z"/>
                  <path class="cls-5" d="m1256.03,332.12l-226.28,130.33c-8.99,5.18-22.57,5.72-30.34,1.23l-225.33-130.06c-3.07-1.78-4.75-4.08-5.14-6.52-.52,3.25,1.15,6.44,5.14,8.74l225.33,130.06c7.77,4.5,21.36,3.95,30.34-1.23l226.28-130.33c5.44-3.13,7.92-7.24,7.33-10.99-.49,3.09-2.95,6.25-7.33,8.77Z"/>
                </g>
                <path class="cls-26" d="m1022,211.71c-1.77-1.03-4.88-.9-6.93.28l-215.18,123.93-10.96-6.34c-1.77-1.03-1.55-2.82.5-4l225.65-129.97c2.05-1.18,5.15-1.31,6.93-.28l221.34,127.75c1.77,1.03,1.55,2.82-.5,4l-10.48,6.03-210.38-121.41Z"/>
                <path class="cls-2" d="m1242.86,327.08c2.05-1.18,2.28-2.97.5-4l-221.34-127.75c-1.77-1.03-4.88-.9-6.93.28l-225.65,129.97c-2.05,1.18-2.28,2.97-.5,4l221.34,127.75c1.77,1.03,4.88.9,6.93-.28l225.65-129.97Z"/>
              </g>
              <g>
                <path class="cls-30" d="m1029.73,435.42l226.28-130.33c4.96-2.86,7.47-6.53,7.43-10v.02s.02-40.83.02-40.83l-7.75,6.92-6.67-3.86c.73-.85,1.23-1.58,1.09-1.82-.4-.69-3.31-5.75-3.31-5.75l-159.64-94.24-50.75-29.55-19.83-5.72-232.29,133.48.67,5.37-6.2,3.57-9.94-4.45-.04,40.59.02-.02c-.07,2.91,1.62,5.71,5.22,7.79l225.33,130.06c7.77,4.5,21.36,3.95,30.34-1.23Zm91.86-100.67l-102.46,55.95-8.82-.43-171.12-95.74-47.41-24.49,223.3-128.61c2.05-1.18,5.15-1.31,6.93-.28l217.3,125.41-117.72,68.19Z"/>
                <path class="cls-1" d="m1029.73,435.42l226.28-130.33c4.96-2.86,7.47-6.53,7.43-10v.02s.02-40.83.02-40.83l-7.75,6.92-6.67-3.86c.73-.85,1.23-1.58,1.09-1.82-.4-.69-3.31-5.75-3.31-5.75l-159.64-94.24-50.75-29.55-19.83-5.72-232.29,133.48.67,5.37-6.2,3.57-9.94-4.45-.04,40.59.02-.02c-.07,2.91,1.62,5.71,5.22,7.79l225.33,130.06c7.77,4.5,21.36,3.95,30.34-1.23Zm91.86-100.67l-102.46,55.95-8.82-.43-171.12-95.74-47.41-24.49,223.3-128.61c2.05-1.18,5.15-1.31,6.93-.28l217.3,125.41-117.72,68.19Z"/>
                <path class="cls-11" d="m1013.4,439.67l.03-49.25,5.7.28,102.46-55.95,117.72-68.19-3.9-2.26c3.64-2.1,24.27-7.85,28.06-10.03v37.86s0,2.98,0,2.98v-.02c.03,3.47-2.48,7.14-7.44,10l-226.28,130.33c-4.68,2.7-10.62,4.13-16.32,4.25Z"/>
                <path class="cls-23" d="m1029.74,394.11l226.28-130.33c8.99-5.18,9.97-13.02,2.2-17.52l-225.33-130.06c-7.77-4.5-21.36-3.95-30.34,1.23l-226.28,130.33c-8.99,5.18-9.97,13.02-2.2,17.52l225.33,130.06c7.77,4.5,21.36,3.95,30.34-1.23Zm-12.54-7.62c-2.05,1.18-5.15,1.31-6.93.28l-221.34-127.75c-1.77-1.03-1.55-2.82.5-4l225.65-129.97c2.05-1.18,5.15-1.31,6.93-.28l221.34,127.75c1.77,1.03,1.55,2.82-.5,4l-225.65,129.97Z"/>
                <path class="cls-24" d="m1029.74,394.11l226.28-130.33c8.99-5.18,9.97-13.02,2.2-17.52l-225.33-130.06c-7.77-4.5-21.36-3.95-30.34,1.23l-226.28,130.33c-8.99,5.18-9.97,13.02-2.2,17.52l225.33,130.06c7.77,4.5,21.36,3.95,30.34-1.23Zm-12.54-7.62c-2.05,1.18-5.15,1.31-6.93.28l-221.34-127.75c-1.77-1.03-1.55-2.82.5-4l225.65-129.97c2.05-1.18,5.15-1.31,6.93-.28l221.34,127.75c1.77,1.03,1.55,2.82-.5,4l-225.65,129.97Z"/>
                <g>
                  <path class="cls-5" d="m1243.36,250.3l-221.34-127.75c-1.77-1.03-4.88-.9-6.93.28l-225.65,129.97c-1.66.96-2.1,2.31-1.28,3.33.28-.4.7-.78,1.28-1.11l225.65-129.97c2.05-1.18,5.15-1.31,6.93-.28l221.34,127.75c.34.2.58.43.78.67.73-1.02.5-2.15-.78-2.89Z"/>
                  <path class="cls-5" d="m1256.03,261.56l-226.28,130.33c-8.99,5.18-22.57,5.72-30.34,1.23l-225.33-130.06c-3.07-1.78-4.75-4.07-5.14-6.52-.52,3.25,1.15,6.44,5.14,8.74l225.33,130.06c7.77,4.5,21.36,3.95,30.34-1.23l226.28-130.33c5.44-3.13,7.92-7.24,7.33-10.99-.49,3.09-2.95,6.25-7.33,8.77Z"/>
                </g>
                <path class="cls-26" d="m1022,141.15c-1.77-1.03-4.88-.9-6.93.28l-215.18,123.93-10.96-6.34c-1.77-1.03-1.55-2.82.5-4l225.65-129.97c2.05-1.18,5.15-1.31,6.93-.28l221.34,127.75c1.77,1.03,1.55,2.82-.5,4l-10.48,6.03-210.38-121.41Z"/>
                <path class="cls-2" d="m1242.86,256.52c2.05-1.18,2.28-2.97.5-4l-221.34-127.75c-1.77-1.03-4.88-.9-6.93.28l-225.65,129.97c-2.05,1.18-2.28,2.97-.5,4l221.34,127.75c1.77,1.03,4.88.9,6.93-.28l225.65-129.97Z"/>
              </g>
              <g>
                <path class="cls-31" d="m1029.73,364.86l226.28-130.33c4.96-2.86,7.47-6.53,7.43-10v.02s.02-40.83.02-40.83l-7.75,6.92-6.67-3.86c.73-.85,1.23-1.58,1.09-1.82-.4-.69-3.31-5.75-3.31-5.75l-159.64-94.24-50.75-29.55-19.83-5.72-232.29,133.48.67,5.37-6.2,3.57-9.94-4.45-.04,40.6.02-.02c-.07,2.91,1.62,5.71,5.22,7.79l225.33,130.06c7.77,4.5,21.36,3.95,30.34-1.23Zm91.86-100.67l-102.46,55.95-8.82-.43-171.12-95.74-47.41-24.49,223.3-128.61c2.05-1.18,5.15-1.31,6.93-.28l217.3,125.41-117.72,68.19Z"/>
                <path class="cls-20" d="m1029.73,364.86l226.28-130.33c4.96-2.86,7.47-6.53,7.43-10v.02s.02-40.83.02-40.83l-7.75,6.92-6.67-3.86c.73-.85,1.23-1.58,1.09-1.82-.4-.69-3.31-5.75-3.31-5.75l-159.64-94.24-50.75-29.55-19.83-5.72-232.29,133.48.67,5.37-6.2,3.57-9.94-4.45-.04,40.6.02-.02c-.07,2.91,1.62,5.71,5.22,7.79l225.33,130.06c7.77,4.5,21.36,3.95,30.34-1.23Zm91.86-100.67l-102.46,55.95-8.82-.43-171.12-95.74-47.41-24.49,223.3-128.61c2.05-1.18,5.15-1.31,6.93-.28l217.3,125.41-117.72,68.19Z"/>
                <path class="cls-11" d="m1013.4,369.11l.03-49.25,5.7.28,102.46-55.95,117.72-68.19-3.9-2.26c3.64-2.1,24.27-7.85,28.06-10.03v37.86s0,2.98,0,2.98v-.02c.03,3.47-2.48,7.14-7.44,10l-226.28,130.33c-4.68,2.7-10.62,4.13-16.32,4.25Z"/>
                <path class="cls-8" d="m1029.74,323.55l226.28-130.33c8.99-5.18,9.97-13.02,2.2-17.52l-225.33-130.06c-7.77-4.5-21.36-3.95-30.34,1.23l-226.28,130.33c-8.99,5.18-9.97,13.02-2.2,17.52l225.33,130.06c7.77,4.5,21.36,3.95,30.34-1.23Zm-12.54-7.62c-2.05,1.18-5.15,1.31-6.93.28l-221.34-127.75c-1.77-1.03-1.55-2.82.5-4l225.65-129.97c2.05-1.18,5.15-1.31,6.93-.28l221.34,127.75c1.77,1.03,1.55,2.82-.5,4l-225.65,129.97Z"/>
                <path class="cls-21" d="m1029.74,323.55l226.28-130.33c8.99-5.18,9.97-13.02,2.2-17.52l-225.33-130.06c-7.77-4.5-21.36-3.95-30.34,1.23l-226.28,130.33c-8.99,5.18-9.97,13.02-2.2,17.52l225.33,130.06c7.77,4.5,21.36,3.95,30.34-1.23Zm-12.54-7.62c-2.05,1.18-5.15,1.31-6.93.28l-221.34-127.75c-1.77-1.03-1.55-2.82.5-4l225.65-129.97c2.05-1.18,5.15-1.31,6.93-.28l221.34,127.75c1.77,1.03,1.55,2.82-.5,4l-225.65,129.97Z"/>
                <g>
                  <path class="cls-5" d="m1243.36,179.74l-221.34-127.75c-1.77-1.03-4.88-.9-6.93.28l-225.65,129.97c-1.66.96-2.1,2.31-1.28,3.33.28-.4.7-.78,1.28-1.11l225.65-129.96c2.05-1.18,5.15-1.31,6.93-.28l221.34,127.75c.34.2.58.43.78.67.73-1.02.5-2.15-.78-2.89Z"/>
                  <path class="cls-5" d="m1256.03,191l-226.28,130.33c-8.99,5.18-22.57,5.72-30.34,1.23l-225.33-130.06c-3.07-1.78-4.75-4.07-5.14-6.52-.52,3.25,1.15,6.44,5.14,8.74l225.33,130.06c7.77,4.5,21.36,3.95,30.34-1.23l226.28-130.33c5.44-3.13,7.92-7.24,7.33-10.99-.49,3.09-2.95,6.25-7.33,8.77Z"/>
                </g>
                <path class="cls-26" d="m1022,70.59c-1.77-1.03-4.88-.9-6.93.28l-215.18,123.93-10.96-6.34c-1.77-1.03-1.55-2.82.5-4l225.65-129.97c2.05-1.18,5.15-1.31,6.93-.28l221.34,127.75c1.77,1.03,1.55,2.82-.5,4l-10.48,6.03-210.38-121.41Z"/>
                <path class="cls-3" d="m1242.86,185.96c2.05-1.18,2.28-2.97.5-4l-221.34-127.75c-1.77-1.03-4.88-.9-6.93.28l-225.65,129.97c-2.05,1.18-2.28,2.97-.5,4l221.34,127.75c1.77,1.03,4.88.9,6.93-.28l225.65-129.97Z"/>
              </g>
            </g>
            <g>
              <polygon class="cls-35" points="980.27 153.46 1060.17 200.29 1060.31 200.61 1071.81 225.63 936.7 146.3 951.4 148.71 955.31 149.36 980.27 153.46"/>
              <polygon class="cls-35" points="972.84 126.61 1107.38 205.31 1064.43 198.3 1063.53 198.15 984.09 151.61 983.87 151.09 972.84 126.61"/>
              <polygon class="cls-35" points="1020.93 199.89 1049.78 216.84 1038.01 235.14 1032.24 244.1 1019.79 263.45 1004.29 228.83 1003.38 226.8 1006.75 221.63 1020.93 199.89"/>
              <polygon class="cls-35" points="1092.73 146.4 1083.25 161.13 1083.25 161.13 980.78 144.26 972.84 126.61 1057.3 140.56 1092.73 146.4"/>
              <polygon class="cls-35" points="967.77 151.41 1018.68 265.19 991.79 270.77 991.78 270.76 936.7 146.3 967.77 151.41"/>
            </g>
          </g>
        </g>
      </g>
    </g>
  </g>
</svg>