<svg xmlns="http://www.w3.org/2000/svg" xmlns:xlink="http://www.w3.org/1999/xlink" viewBox="0 0 1924.77 1002.32"><defs><linearGradient id="_Áåçûìÿííûé_ãðàäèåíò_85" data-name="Áåçûìÿííûé ãðàäèåíò 85" x1="499.2" y1="615.23" x2="1387.04" y2="615.23" gradientUnits="userSpaceOnUse"><stop offset="0" stop-color="#706ec4"/><stop offset=".02" stop-color="#6d6bc1"/><stop offset=".25" stop-color="#5651ac"/><stop offset=".49" stop-color="#463e9d"/><stop offset=".73" stop-color="#3c3393"/><stop offset="1" stop-color="#393091"/></linearGradient><linearGradient id="_Áåçûìÿííûé_ãðàäèåíò_15" data-name="Áåçûìÿííûé ãðàäèåíò 15" x1="750.46" y1="495.26" x2="1283.37" y2="495.26" gradientUnits="userSpaceOnUse"><stop offset="0" stop-color="#42e8e0"/><stop offset=".15" stop-color="#42e3df"/><stop offset=".33" stop-color="#44d4de"/><stop offset=".52" stop-color="#48bddd"/><stop offset=".72" stop-color="#4d9bda"/><stop offset=".93" stop-color="#5471d8"/><stop offset="1" stop-color="#5761d7"/></linearGradient><linearGradient id="_Áåçûìÿííûé_ãðàäèåíò_15-2" data-name="Áåçûìÿííûé ãðàäèåíò 15" x1="1016.91" y1="398.94" y2="398.94" xlink:href="#_Áåçûìÿííûé_ãðàäèåíò_15"/><linearGradient id="_Áåçûìÿííûé_ãðàäèåíò_15-3" data-name="Áåçûìÿííûé ãðàäèåíò 15" y1="398.94" x2="1016.92" y2="398.94" xlink:href="#_Áåçûìÿííûé_ãðàäèåíò_15"/><linearGradient id="_Áåçûìÿííûé_ãðàäèåíò_15-4" data-name="Áåçûìÿííûé ãðàäèåíò 15" y1="456.47" y2="456.47" xlink:href="#_Áåçûìÿííûé_ãðàäèåíò_15"/><linearGradient id="_Áåçûìÿííûé_ãðàäèåíò_15-5" data-name="Áåçûìÿííûé ãðàäèåíò 15" x1="1016.92" y1="552.78" y2="552.78" xlink:href="#_Áåçûìÿííûé_ãðàäèåíò_15"/><linearGradient id="_Áåçûìÿííûé_ãðàäèåíò_15-6" data-name="Áåçûìÿííûé ãðàäèåíò 15" y1="552.78" x2="1016.92" y2="552.78" xlink:href="#_Áåçûìÿííûé_ãðàäèåíò_15"/><linearGradient id="_Áåçûìÿííûé_ãðàäèåíò_31" data-name="Áåçûìÿííûé ãðàäèåíò 31" x1="-5758.55" y1="12360.13" x2="-5528.43" y2="12360.13" gradientTransform="scale(1 -1) rotate(-60.06 -13381.966 183.253)" gradientUnits="userSpaceOnUse"><stop offset="0" stop-color="#bcbeff"/><stop offset=".17" stop-color="#b5b8fc"/><stop offset=".4" stop-color="#a3a7f5"/><stop offset=".66" stop-color="#868ce9"/><stop offset=".96" stop-color="#5d67d9"/><stop offset="1" stop-color="#5761d7"/></linearGradient><linearGradient id="_Áåçûìÿííûé_ãðàäèåíò_85-2" data-name="Áåçûìÿííûé ãðàäèåíò 85" x1="-5758.55" y1="12360.13" x2="-5528.43" y2="12360.13" gradientTransform="scale(1 -1) rotate(-60.06 -13381.966 183.253)" xlink:href="#_Áåçûìÿííûé_ãðàäèåíò_85"/><linearGradient id="_Áåçûìÿííûé_ãðàäèåíò_31-2" data-name="Áåçûìÿííûé ãðàäèåíò 31" x1="-5819.77" y1="12371.02" x2="-5566.42" y2="12371.02" xlink:href="#_Áåçûìÿííûé_ãðàäèåíò_31"/><linearGradient id="_Áåçûìÿííûé_ãðàäèåíò_85-3" data-name="Áåçûìÿííûé ãðàäèåíò 85" x1="-5854.76" y1="12371.02" x2="-5397.68" y2="12371.02" gradientTransform="scale(1 -1) rotate(-60.06 -13381.966 183.253)" xlink:href="#_Áåçûìÿííûé_ãðàäèåíò_85"/><linearGradient id="_Áåçûìÿííûé_ãðàäèåíò_31-3" data-name="Áåçûìÿííûé ãðàäèåíò 31" x1="-5819.69" y1="12395.35" x2="-5589.57" y2="12395.35" xlink:href="#_Áåçûìÿííûé_ãðàäèåíò_31"/><linearGradient id="_Áåçûìÿííûé_ãðàäèåíò_85-4" data-name="Áåçûìÿííûé ãðàäèåíò 85" x1="-5819.69" y1="12395.35" x2="-5589.57" y2="12395.35" gradientTransform="scale(1 -1) rotate(-60.06 -13381.966 183.253)" xlink:href="#_Áåçûìÿííûé_ãðàäèåíò_85"/><linearGradient id="_Áåçûìÿííûé_ãðàäèåíò_31-4" data-name="Áåçûìÿííûé ãðàäèåíò 31" x1="-5880.92" y1="12406.24" x2="-5627.57" y2="12406.24" xlink:href="#_Áåçûìÿííûé_ãðàäèåíò_31"/><linearGradient id="_Áåçûìÿííûé_ãðàäèåíò_85-5" data-name="Áåçûìÿííûé ãðàäèåíò 85" x1="-5915.91" y1="12406.24" x2="-5458.82" y2="12406.24" gradientTransform="scale(1 -1) rotate(-60.06 -13381.966 183.253)" xlink:href="#_Áåçûìÿííûé_ãðàäèåíò_85"/><linearGradient id="_Áåçûìÿííûé_ãðàäèåíò_31-5" data-name="Áåçûìÿííûé ãðàäèåíò 31" x1="-5880.84" y1="12430.57" x2="-5650.72" y2="12430.57" xlink:href="#_Áåçûìÿííûé_ãðàäèåíò_31"/><linearGradient id="_Áåçûìÿííûé_ãðàäèåíò_85-6" data-name="Áåçûìÿííûé ãðàäèåíò 85" x1="-5880.84" y1="12430.57" x2="-5650.72" y2="12430.57" gradientTransform="scale(1 -1) rotate(-60.06 -13381.966 183.253)" xlink:href="#_Áåçûìÿííûé_ãðàäèåíò_85"/><linearGradient id="_Áåçûìÿííûé_ãðàäèåíò_31-6" data-name="Áåçûìÿííûé ãðàäèåíò 31" x1="-5942.06" y1="12441.46" x2="-5688.71" y2="12441.46" xlink:href="#_Áåçûìÿííûé_ãðàäèåíò_31"/><linearGradient id="_Áåçûìÿííûé_ãðàäèåíò_85-7" data-name="Áåçûìÿííûé ãðàäèåíò 85" x1="-5977.05" y1="12441.46" x2="-5519.97" y2="12441.46" gradientTransform="scale(1 -1) rotate(-60.06 -13381.966 183.253)" xlink:href="#_Áåçûìÿííûé_ãðàäèåíò_85"/><linearGradient id="_Áåçûìÿííûé_ãðàäèåíò_31-7" data-name="Áåçûìÿííûé ãðàäèåíò 31" x1="-5941.98" y1="12465.79" x2="-5711.86" y2="12465.79" xlink:href="#_Áåçûìÿííûé_ãðàäèåíò_31"/><linearGradient id="_Áåçûìÿííûé_ãðàäèåíò_85-8" data-name="Áåçûìÿííûé ãðàäèåíò 85" x1="-5941.98" y1="12465.79" x2="-5711.86" y2="12465.79" gradientTransform="scale(1 -1) rotate(-60.06 -13381.966 183.253)" xlink:href="#_Áåçûìÿííûé_ãðàäèåíò_85"/><linearGradient id="_Áåçûìÿííûé_ãðàäèåíò_31-8" data-name="Áåçûìÿííûé ãðàäèåíò 31" x1="-6003.21" y1="12476.68" x2="-5749.86" y2="12476.68" xlink:href="#_Áåçûìÿííûé_ãðàäèåíò_31"/><linearGradient id="_Áåçûìÿííûé_ãðàäèåíò_85-9" data-name="Áåçûìÿííûé ãðàäèåíò 85" x1="-6038.2" y1="12476.68" x2="-5581.11" y2="12476.68" gradientTransform="scale(1 -1) rotate(-60.06 -13381.966 183.253)" xlink:href="#_Áåçûìÿííûé_ãðàäèåíò_85"/><radialGradient id="radial-gradient" cx="781.43" cy="391.21" fx="781.43" fy="391.21" r="459.5" gradientUnits="userSpaceOnUse"><stop offset="0" stop-color="#42e8e0"/><stop offset="0" stop-color="#41e6df" stop-opacity=".99"/><stop offset=".11" stop-color="#35b2bd" stop-opacity=".76"/><stop offset=".23" stop-color="#2b849f" stop-opacity=".56"/><stop offset=".34" stop-color="#225d85" stop-opacity=".39"/><stop offset=".46" stop-color="#1b3d70" stop-opacity=".25"/><stop offset=".59" stop-color="#162460" stop-opacity=".14"/><stop offset=".71" stop-color="#121255" stop-opacity=".06"/><stop offset=".85" stop-color="#0f084e" stop-opacity=".01"/><stop offset="1" stop-color="#0f054c" stop-opacity="0"/></radialGradient><style>.cls-2{opacity:.7}.cls-2,.cls-5,.cls-6{fill:#42e8e0}.cls-11{fill:#0f054c}.cls-6{opacity:.5}.cls-26{fill:#251c72}.cls-11{opacity:.6}.cls-35{fill:#9ffff8}</style></defs><g style="isolation:isolate"><g id="Layer_2" data-name="Layer 2"><g id="home"><circle cx="781.43" cy="391.21" r="386.6" style="fill:url(#radial-gradient);mix-blend-mode:lighten;opacity:.5"/><path class="cls-5" d="M461.23 867.19c-2.85 1.65-7.48 1.65-10.34 0-2.85-1.65-2.85-4.32 0-5.97 2.85-1.65 7.48-1.65 10.34 0 2.85 1.65 2.85 4.32 0 5.97ZM669.5 853.74c-2.85 1.65-7.48 1.65-10.34 0-2.85-1.65-2.85-4.32 0-5.97 2.85-1.65 7.48-1.65 10.34 0 2.85 1.65 2.85 4.32 0 5.97ZM762.66 905c-2.85 1.65-7.48 1.65-10.34 0-2.85-1.65-2.85-4.32 0-5.97 2.85-1.65 7.48-1.65 10.34 0 2.85 1.65 2.85 4.32 0 5.97ZM343.98 687.63c-2.85 1.65-7.48 1.65-10.34 0-2.85-1.65-2.85-4.32 0-5.97 2.85-1.65 7.48-1.65 10.34 0 2.85 1.65 2.85 4.32 0 5.97ZM1036.77 614.84 841.65 502.19l195.12-112.65 195.12 112.65-195.12 112.65ZM844.92 502.19l191.85 110.77 191.84-110.76-191.85-110.77-191.84 110.76Z"/><path class="cls-5" d="m964.89 432.45-134.8-77.82V227.76L444.15 4.93l.81-1.42 386.77 223.3v126.88l133.97 77.35-.81 1.41z"/><path class="cls-5" d="M791.1 204.77V100.11L615.17 33.24l.82-1.41 176.74 67.33.01 105.61h-1.64zM939.61 447.04l-130.65-75.42-227.89-.01-.18-.11-199.56-115.21H148.82L7.72 337.75l-.82-1.42 141.48-81.68h233.39l.19.11 199.56 115.22H809.4l.19.11 130.84 75.54-.82 1.41z"/><path class="cls-6" d="m1460.75 130.24-90.92 52.49v91.71L1102.4 428.85l-.82-1.42L1368.2 273.5v-91.71l90.92-52.5c.22.19.48.35.75.52s.57.3.88.43Z"/><path class="cls-5" d="m1069.38 409.79-.82-1.42 156.74-90.49v-76.82L952.78 83.72l.82-1.42 273.34 157.82v78.7l-157.56 90.97zM1917.53 759.5h-242.07l-.19-.11-174.09-100.51-144.13-.01-.18-.11-198.5-114.6.82-1.41 198.31 114.49h144.12l.19.11 174.09 100.51h241.19l-.03-1.02.81 1.41-.34 1.25z"/><path class="cls-5" d="m1620.34 689.46-86.06-49.68-165.41-.01-.19-.11-187.86-108.46.82-1.41 187.67 108.35h165.41l.19.11 86.25 49.79-.82 1.42z"/><path class="cls-5" d="m1267.59 580.83-.82-1.42 138.13-79.75h99.1l.18.11 63.81 36.84-.82 1.42-63.62-36.73h-98.21l-137.75 79.53zM1641.9 779.34l-77.51-44.75v-39.01h1.63l.01 38.06 76.69 44.28-.82 1.42zM1157.44 201.76h-62.69l-.19-.11-111.87-64.6.82-1.41 111.68 64.48h62.25v1.64zM1098.15 391.77l-.01-41.41 77.54-44.76v-42.76h1.63l.01 43.7-77.54 44.77v40.46h-1.63zM664.74 851.46l-.82-1.41 134.28-77.53V645.64l147.18-84.97.82 1.41-146.36 84.5v126.88l-135.1 78z"/><path class="cls-5" d="m755.72 903.99-.82-1.42 52.76-30.46v-55.93l51.98-30.02v-148.7l109.37-63.15.82 1.42-108.56 62.67.01 148.71-51.99 30.01v55.94l-53.57 30.93zM339.22 685.35l-.82-1.42 42.59-24.59h90.06l162.34-93.72h142.73l88.92-51.34.82 1.42-89.3 51.55H633.83l-162.34 93.73h-90.06l-42.21 24.37z"/><path class="cls-5" d="m431.24 621.15-.81-1.41 56.9-32.86 109.44.01v1.63h-109l-56.53 32.63zM456.47 864.91l-.82-1.41 208.39-120.31v-63.14L908.1 539.14l.82 1.42L665.67 681l.01 63.13-209.21 120.78zM913.49 462.13l-94.04-54.3H555.4l-.19-.11-190.8-110.16.82-1.42 190.61 110.05 264.05.01.19.11 94.23 54.4-.82 1.42z"/><path class="cls-5" d="M699.99 439.01H554.21v-1.63h145.34l53.81-31.07.82 1.41-54.19 31.29zM1090.56 998.1l-.01-89.54 210.38-121.46v-95.83l-198.68-114.71.82-1.41 199.49 115.17.01 97.73-210.38 121.46v88.59h-1.63z"/><path class="cls-5" d="m1049.32 884.55-.82-1.42 72.85-42.06h86.06v1.64h-85.62l-72.47 41.84z"/><path class="cls-5" transform="rotate(-60 1147.542 634.359)" d="M1146.73 549.94h1.64v168.83h-1.64z"/><path class="cls-5" d="m916.36 889.3-.01-248.43 83.97-48.48.82 1.41-83.16 48.01.01 247.49h-1.63z"/><path class="cls-5" d="M959.48 853.48v-85.76l-42.72-24.66.82-1.42 43.53 25.14.01 86.7h-1.64zM375.15 542.38l-.82-1.41 131.44-75.89h202.42l67.12-38.75h33.08l.19.11 82.54 47.66-.81 1.41-82.36-47.54-32.2-.01-67.12 38.76H506.21l-131.06 75.66zM1269.39 706.45h-53.23l-.19-.11-169.25-97.71.82-1.42 169.06 97.6 52.79.01v1.63zM1126.03 747.01l-139.09-80.3v-34.2l41.44-23.92.82 1.41-40.62 23.46v32.31l138.27 79.83-.82 1.41z"/><path class="cls-5" d="m1135.19 722.12-61.69-35.62h-51.7v-1.64h52.14l.18.11 61.89 35.73-.82 1.42zM1134.08 798.64l-64.5-37.24v-29.55l-72.48-41.84V672.1h1.63l.01 16.97 72.47 41.84v29.55l63.69 36.77-.82 1.41z"/><path class="cls-5" d="M1140.77 724.39c-2.85 1.65-7.48 1.65-10.34 0-2.85-1.65-2.85-4.32 0-5.97 2.85-1.65 7.48-1.65 10.34 0 2.85 1.65 2.85 4.32 0 5.97ZM1131.8 749.18c-2.85 1.65-7.48 1.65-10.34 0-2.85-1.65-2.85-4.32 0-5.97 2.85-1.65 7.48-1.65 10.34 0 2.85 1.65 2.85 4.32 0 5.97ZM983.81 734.86c-2.85 1.65-7.48 1.65-10.34 0-2.85-1.65-2.86-4.32 0-5.97 2.85-1.65 7.48-1.65 10.34 0 2.85 1.65 2.85 4.32 0 5.97ZM673.49 511.73c-2.85 1.65-7.48 1.65-10.34 0-2.85-1.65-2.86-4.32 0-5.97 2.85-1.65 7.48-1.65 10.34 0 2.85 1.65 2.85 4.32 0 5.97ZM473.37 556.39c-2.85 1.65-7.48 1.65-10.34 0-2.85-1.65-2.85-4.32 0-5.97 2.85-1.65 7.48-1.65 10.34 0 2.85 1.65 2.85 4.32 0 5.97ZM736.9 481.09c-2.85 1.65-7.48 1.65-10.34 0s-2.85-4.32 0-5.97c2.85-1.65 7.48-1.65 10.34 0 2.85 1.65 2.85 4.32 0 5.97ZM759.51 530.7c-2.85 1.65-7.48 1.65-10.34 0-2.85-1.65-2.85-4.32 0-5.97 2.85-1.65 7.48-1.65 10.34 0 2.85 1.65 2.85 4.32 0 5.97ZM1096.54 1001.08c-2.85 1.65-7.48 1.65-10.34 0s-2.86-4.32 0-5.97c2.85-1.65 7.48-1.65 10.34 0 2.85 1.65 2.86 4.32 0 5.97ZM1054.08 886.82c-2.85 1.65-7.48 1.65-10.34 0-2.85-1.65-2.86-4.32 0-5.97 2.85-1.65 7.48-1.65 10.34 0 2.85 1.65 2.86 4.32 0 5.97ZM1743.61 990.78c-2.85 1.65-7.48 1.65-10.34 0-2.85-1.65-2.85-4.32 0-5.97 2.85-1.65 7.48-1.65 10.34 0 2.85 1.65 2.85 4.32 0 5.97ZM1491.01 996.1c-2.85 1.65-7.48 1.65-10.34 0-2.85-1.65-2.85-4.32 0-5.97 2.85-1.65 7.48-1.65 10.34 0 2.85 1.65 2.85 4.32 0 5.97ZM1392.54 805.81c-1.32 5.63-13.83 5.63-15.15 0 1.32-5.63 13.83-5.63 15.15 0ZM559.38 441.18c-2.85 1.65-7.48 1.65-10.34 0-2.85-1.65-2.85-4.32 0-5.97 2.85-1.65 7.48-1.65 10.34 0 2.85 1.65 2.85 4.32 0 5.97ZM369.99 299.84c-2.85 1.65-7.48 1.65-10.34 0-2.85-1.65-2.86-4.32 0-5.97 2.85-1.65 7.48-1.65 10.34 0 2.85 1.65 2.86 4.32 0 5.97ZM12.48 340.03c-2.85 1.65-7.48 1.65-10.34 0-2.85-1.65-2.86-4.32 0-5.97 2.85-1.65 7.48-1.65 10.34 0 2.85 1.65 2.86 4.32 0 5.97ZM619.57 36.2c-2.85 1.65-7.48 1.65-10.34 0-2.85-1.65-2.85-4.32 0-5.97 2.85-1.65 7.48-1.65 10.34 0 2.85 1.65 2.85 4.32 0 5.97ZM1139.66 800.92c-2.85 1.65-7.48 1.65-10.34 0-2.85-1.65-2.85-4.32 0-5.97 2.85-1.65 7.48-1.65 10.34 0 2.85 1.65 2.86 4.32 0 5.97ZM965.47 856.47c-2.85 1.65-7.48 1.65-10.34 0-2.85-1.65-2.85-4.32 0-5.97 2.85-1.65 7.48-1.65 10.34 0 2.85 1.65 2.85 4.32 0 5.97ZM436 623.43c-2.85 1.65-7.48 1.65-10.34 0-2.85-1.65-2.85-4.32 0-5.97 2.85-1.65 7.48-1.65 10.34 0 2.85 1.65 2.85 4.32 0 5.97ZM566.82 678.84c-2.85 1.65-7.48 1.65-10.34 0s-2.85-4.32 0-5.97c2.85-1.65 7.48-1.65 10.34 0 2.85 1.65 2.85 4.32 0 5.97ZM380.03 544.73c-2.85 1.65-7.48 1.65-10.34 0-2.85-1.65-2.85-4.32 0-5.97 2.85-1.65 7.48-1.65 10.34 0 2.85 1.65 2.85 4.32 0 5.97ZM1274.56 708.62c-2.85 1.65-7.48 1.65-10.34 0-2.85-1.65-2.86-4.32 0-5.97 2.85-1.65 7.48-1.65 10.34 0 2.85 1.65 2.86 4.32 0 5.97ZM1569.42 538.38c-2.85 1.65-7.48 1.65-10.34 0-2.85-1.65-2.85-4.32 0-5.97 2.85-1.65 7.48-1.65 10.34 0 2.85 1.65 2.85 4.32 0 5.97ZM1444.6 432.84c-2.85 1.65-7.48 1.65-10.34 0-2.85-1.65-2.85-4.32 0-5.97 2.85-1.65 7.48-1.65 10.34 0 2.85 1.65 2.85 4.32 0 5.97ZM1374.03 469.4c-2.85 1.65-7.48 1.65-10.34 0s-2.86-4.32 0-5.97c2.85-1.65 7.48-1.65 10.34 0 2.85 1.65 2.86 4.32 0 5.97ZM1306.24 412.19c-2.85 1.65-7.48 1.65-10.34 0s-2.86-4.32 0-5.97c2.85-1.65 7.48-1.65 10.34 0 2.85 1.65 2.86 4.32 0 5.97ZM1181.66 265.83c-2.85 1.65-7.48 1.65-10.34 0-2.85-1.65-2.85-4.32 0-5.97 2.85-1.65 7.48-1.65 10.34 0 2.85 1.65 2.85 4.32 0 5.97Z"/><path class="cls-6" d="M1470.21 129.81c-2.58 1.49-6.6 1.63-9.46.43-.31-.13-.6-.27-.88-.43s-.53-.33-.75-.52c-2.08-1.64-1.83-3.96.75-5.45 2.86-1.65 7.48-1.65 10.34 0 2.86 1.65 2.86 4.32 0 5.97Z"/><path class="cls-5" d="M1094.67 275.88c-2.85 1.65-7.48 1.65-10.34 0-2.85-1.65-2.85-4.32 0-5.97 2.85-1.65 7.48-1.65 10.34 0 2.85 1.65 2.85 4.32 0 5.97ZM1085.07 222.59c-2.85 1.65-7.48 1.65-10.34 0-2.85-1.65-2.85-4.32 0-5.97 2.85-1.65 7.48-1.65 10.34 0 2.85 1.65 2.85 4.32 0 5.97ZM935.3 159.68c-2.85 1.65-7.48 1.65-10.34 0-2.85-1.65-2.85-4.32 0-5.97 2.85-1.65 7.48-1.65 10.34 0 2.85 1.65 2.85 4.32 0 5.97ZM988.27 139.33c-2.85 1.65-7.48 1.65-10.34 0s-2.85-4.32 0-5.97c2.85-1.65 7.48-1.65 10.34 0 2.85 1.65 2.85 4.32 0 5.97ZM449.72 7.2c-2.85 1.65-7.48 1.65-10.34 0s-2.86-4.32 0-5.97c2.85-1.65 7.48-1.65 10.34 0 2.85 1.65 2.86 4.32 0 5.97ZM958.36 86c-2.85 1.65-7.48 1.65-10.34 0-2.85-1.65-2.85-4.32 0-5.97 2.85-1.65 7.48-1.65 10.34 0 2.85 1.65 2.85 4.32 0 5.97ZM1276.53 529.99c-2.85 1.65-7.48 1.65-10.34 0-2.85-1.65-2.85-4.32 0-5.97 2.85-1.65 7.48-1.65 10.34 0s2.85 4.32 0 5.97ZM927.79 353.31c-2.85 1.65-7.48 1.65-10.34 0-2.85-1.65-2.85-4.32 0-5.97 2.85-1.65 7.48-1.65 10.34 0 2.85 1.65 2.85 4.32 0 5.97ZM627.25 249.19c-2.85 1.65-7.48 1.65-10.34 0-2.85-1.65-2.85-4.32 0-5.97 2.85-1.65 7.48-1.65 10.34 0 2.85 1.65 2.85 4.32 0 5.97ZM407.44 135.65c-2.85 1.65-7.48 1.65-10.34 0-2.85-1.65-2.85-4.32 0-5.97 2.85-1.65 7.48-1.65 10.34 0 2.85 1.65 2.85 4.32 0 5.97ZM476.16 117.28c-2.85 1.65-7.48 1.65-10.34 0-2.85-1.65-2.85-4.32 0-5.97 2.85-1.65 7.48-1.65 10.34 0 2.85 1.65 2.85 4.32 0 5.97ZM1400.1 537.49c-2.85 1.65-7.48 1.65-10.34 0-2.85-1.65-2.85-4.32 0-5.97 2.85-1.65 7.48-1.65 10.34 0 2.85 1.65 2.86 4.32 0 5.97ZM1647.48 781.61c-2.85 1.65-7.48 1.65-10.34 0s-2.85-4.32 0-5.97c2.85-1.65 7.48-1.65 10.34 0 2.85 1.65 2.85 4.32 0 5.97ZM1746.86 520.78c-2.85 1.65-7.48 1.65-10.34 0-2.85-1.65-2.86-4.32 0-5.97 2.85-1.65 7.48-1.65 10.34 0 2.85 1.65 2.86 4.32 0 5.97ZM1625.92 691.74c-2.85 1.65-7.48 1.65-10.34 0-2.85-1.65-2.85-4.32 0-5.97 2.85-1.65 7.48-1.65 10.34 0 2.85 1.65 2.85 4.32 0 5.97ZM1922.63 760.53c-2.85 1.65-7.48 1.65-10.34 0-2.85-1.65-2.85-4.32 0-5.97 2.85-1.65 7.48-1.65 10.34 0 2.85 1.65 2.86 4.32 0 5.97ZM1225.82 679.55c-2.85 1.65-7.48 1.65-10.34 0-2.85-1.65-2.85-4.32 0-5.97 2.85-1.65 7.48-1.65 10.34 0 2.85 1.65 2.85 4.32 0 5.97Z"/><path class="cls-5" transform="rotate(-60 947.82 714.287)" d="M947 678.9h1.64v70.77H947z"/><path class="cls-5" d="M1240.97 545.38h-35.37v-1.63h34.93l31.25-18.05.82 1.42-31.63 18.26zM1439.02 430.56l-85.52-49.37h-57.54l-75.85 43.79h-48.2v-1.63h47.76l75.85-43.8h58.42l.19.11 85.71 49.49-.82 1.41zM1215.3 494.03l-.82-1.41 86.15-49.75h29.09l.19.11 37.91 21.89-.81 1.42-37.73-21.78h-28.21l-85.77 49.52z"/><path class="cls-5" d="M1237.56 479.76v-34.83l63.1-36.43.82 1.41-62.28 35.96v33.89h-1.64zM804.05 551.26h-63.74l-.19-.11-72.21-41.7.82-1.41 72.02 41.58h63.3v1.64zM1738.03 988.5l-220.17-127.11V780.9L1133.1 558.75l.82-1.41 385.58 222.61v80.49l219.35 126.65-.82 1.41zM731.99 478.73l-.82-1.42 54.92-31.71h22.59l.19.11 28.9 16.69h32.87v1.63h-33.31l-.19-.11-28.9-16.68h-21.71l-54.54 31.49zM987.33 419.49l-104.22-60.17v-69.55l117.51-67.84v-23.59l-70.9-40.94.82-1.41 71.72 41.4v25.48l-117.51 67.84v67.67l103.4 59.7-.82 1.41z"/><path class="cls-5" d="M962.57 404.72v-30.39l-40.35-23.3.81-1.41 41.17 23.76.01 31.34h-1.64zM750.16 371.51 503.77 229.25v-37.04l-101.62-58.67.82-1.42 102.43 59.14v37.05l245.58 141.78-.82 1.42zM661.59 268.55h-1.63v-44.21L470.58 115.01l.82-1.42L661.59 223.4v45.15z"/><path class="cls-5" d="m809.6 371.03-124.54-71.9v-15.61l-63.39-36.6.82-1.42 64.21 37.07v15.62l123.71 71.42-.81 1.42zM1384.56 806.52l-48.48-27.43v-47.06l-34.74-20.06.82-1.42 35.55 20.53v47.07l47.67 26.95-.82 1.42zM1345.03 564.26h-48.9v-1.64h48.46l49.93-28.82.82 1.41-50.31 29.05zM1562.63 622.13l-224.11-.01v-1.63h223.67l177.33-102.38.82 1.42-177.71 102.6zM1015.58 402.24l-.01-87.6 72.34-41.77.82 1.42-71.52 41.29v86.66h-1.63z"/><path class="cls-5" d="M1015.98 351.54 963.08 321v-34.89l116.42-67.21.81 1.42-115.6 66.74v32.99l52.09 30.08-.82 1.41zM562.06 676.56l-.81-1.42 130.92-75.59 111.51.01v1.63H692.61l-130.55 75.37zM547.1 554.22h-78.9v-1.63h78.46l35.77-20.65H709.9v1.63H582.87l-35.77 20.65zM755.19 528.17l-.82-1.42 59.64-34.43h44.95v1.63h-44.51l-59.26 34.22zM1485.43 993.82l-88.06-50.84v-75.46l-116.63-67.34.82-1.42 117.45 67.81v75.46l87.24 50.37-.82 1.42z"/><path style="fill:url(#_Áåçûìÿííûé_ãðàäèåíò_85)" d="M1363.34 495.21v40.04l-346.42 200-346.43-200.01v-40.03h692.85z"/><path style="fill:#bcbeff" d="M1016.92 695.22 670.49 495.21l346.42-200.01 346.43 200.01-346.42 200.01z"/><path style="fill:#fff" d="M1016.92 690.54 674.54 492.87l-4.05 2.34 346.43 200.01 346.42-200.01-4.05-2.33-342.37 197.66z"/><path style="fill:#0f054c" d="M1016.92 649.09 750.47 495.25l266.44-153.83 266.45 153.84-266.44 153.83z"/><path style="fill:url(#_Áåçûìÿííûé_ãðàäèåíò_15);opacity:.5" d="M1016.92 649.09 750.46 495.26l266.45-153.84 266.46 153.84-266.45 153.83z"/><path style="opacity:.5;fill:url(#_Áåçûìÿííûé_ãðàäèåíò_15-2)" d="m1016.91 302.63 266.46 153.84v38.79l-266.46-153.84v-38.79z"/><path style="fill:url(#_Áåçûìÿííûé_ãðàäèåíò_15-3);opacity:.5" d="M1016.92 341.42 750.46 495.25v-38.79l266.45-153.83.01 38.79z"/><path style="fill:url(#_Áåçûìÿííûé_ãðàäèåíò_15-4);opacity:.5" d="M1016.92 610.3 750.46 456.46l266.45-153.83 266.46 153.84-266.45 153.83z"/><path class="cls-6" d="m1016.92 517.94-106.47-61.47L1016.91 395l106.47 61.47-106.46 61.47z"/><path class="cls-6" d="m1016.91 400.65 101.57 58.64 4.9-2.82L1016.91 395l-106.46 61.47 4.89 2.82 101.57-58.64z"/><path style="fill:url(#_Áåçûìÿííûé_ãðàäèåíò_15-5);opacity:.5" d="M1016.92 610.3v38.79l266.45-153.83v-38.79L1016.92 610.3z"/><path style="fill:url(#_Áåçûìÿííûé_ãðàäèåíò_15-6);opacity:.5" d="M750.46 456.46v38.79l266.46 153.84V610.3L750.46 456.46z"/><path style="opacity:.8;fill:#42e8e0" d="M1016.92 606.07 754.13 454.35l-3.67 2.11 266.46 153.84 266.45-153.83-3.67-2.12-262.78 151.72z"/><path d="m1029.73 576.54 226.28-130.33c4.96-2.86 7.47-6.53 7.43-10v.02l.02-40.83-7.75 6.92-6.67-3.86c.73-.85 1.23-1.58 1.09-1.82-.4-.69-3.31-5.75-3.31-5.75l-159.64-94.24-50.75-29.55-19.83-5.72-232.29 133.48.67 5.37-6.2 3.57-9.94-4.45-.04 40.59.02-.02c-.07 2.91 1.62 5.71 5.22 7.79l225.33 130.06c7.77 4.5 21.36 3.95 30.34-1.23Zm91.86-100.67-102.46 55.95-8.82-.43-171.12-95.74-47.41-24.49 223.3-128.61c2.05-1.18 5.15-1.31 6.93-.28l217.3 125.41-117.72 68.19Z" style="fill:url(#_Áåçûìÿííûé_ãðàäèåíò_31)"/><path d="m1029.73 576.54 226.28-130.33c4.96-2.86 7.47-6.53 7.43-10v.02l.02-40.83-7.75 6.92-6.67-3.86c.73-.85 1.23-1.58 1.09-1.82-.4-.69-3.31-5.75-3.31-5.75l-159.64-94.24-50.75-29.55-19.83-5.72-232.29 133.48.67 5.37-6.2 3.57-9.94-4.45-.04 40.59.02-.02c-.07 2.91 1.62 5.71 5.22 7.79l225.33 130.06c7.77 4.5 21.36 3.95 30.34-1.23Zm91.86-100.67-102.46 55.95-8.82-.43-171.12-95.74-47.41-24.49 223.3-128.61c2.05-1.18 5.15-1.31 6.93-.28l217.3 125.41-117.72 68.19Z" style="fill:url(#_Áåçûìÿííûé_ãðàäèåíò_85-2)"/><path class="cls-11" d="m1013.4 580.79.03-49.25 5.7.28 102.46-55.95 117.72-68.19-3.9-2.26c3.64-2.1 24.27-7.85 28.06-10.03V436.23v-.02c.03 3.47-2.48 7.14-7.44 10l-226.28 130.33c-4.68 2.7-10.62 4.13-16.32 4.25Z"/><path d="m1029.74 535.23 226.28-130.33c8.99-5.18 9.97-13.02 2.2-17.52l-225.33-130.06c-7.77-4.5-21.36-3.95-30.34 1.23L776.27 388.88c-8.99 5.18-9.97 13.02-2.2 17.52L999.4 536.46c7.77 4.5 21.36 3.95 30.34-1.23Zm-12.54-7.62c-2.05 1.18-5.15 1.31-6.93.28L788.93 400.14c-1.77-1.03-1.55-2.82.5-4l225.65-129.97c2.05-1.18 5.15-1.31 6.93-.28l221.34 127.75c1.77 1.03 1.55 2.82-.5 4L1017.2 527.61Z" style="fill:url(#_Áåçûìÿííûé_ãðàäèåíò_31-2)"/><path d="m1029.74 535.23 226.28-130.33c8.99-5.18 9.97-13.02 2.2-17.52l-225.33-130.06c-7.77-4.5-21.36-3.95-30.34 1.23L776.27 388.88c-8.99 5.18-9.97 13.02-2.2 17.52L999.4 536.46c7.77 4.5 21.36 3.95 30.34-1.23Zm-12.54-7.62c-2.05 1.18-5.15 1.31-6.93.28L788.93 400.14c-1.77-1.03-1.55-2.82.5-4l225.65-129.97c2.05-1.18 5.15-1.31 6.93-.28l221.34 127.75c1.77 1.03 1.55 2.82-.5 4L1017.2 527.61Z" style="fill:url(#_Áåçûìÿííûé_ãðàäèåíò_85-3)"/><path class="cls-5" d="m1243.36 391.42-221.34-127.75c-1.77-1.03-4.88-.9-6.93.28L789.44 393.92c-1.66.96-2.1 2.31-1.28 3.33.28-.4.7-.78 1.28-1.11l225.65-129.97c2.05-1.18 5.15-1.31 6.93-.28l221.34 127.75c.34.2.58.43.78.67.73-1.02.5-2.15-.78-2.89Z"/><path class="cls-5" d="m1256.03 402.68-226.28 130.33c-8.99 5.18-22.57 5.72-30.34 1.23L774.08 404.18c-3.07-1.78-4.75-4.07-5.14-6.52-.52 3.25 1.15 6.44 5.14 8.74l225.33 130.06c7.77 4.5 21.36 3.95 30.34-1.23l226.28-130.33c5.44-3.13 7.92-7.24 7.33-10.99-.49 3.09-2.95 6.25-7.33 8.77Z"/><path class="cls-26" d="M1022 282.27c-1.77-1.03-4.88-.9-6.93.28L799.89 406.48l-10.96-6.34c-1.77-1.03-1.55-2.82.5-4l225.65-129.97c2.05-1.18 5.15-1.31 6.93-.28l221.34 127.75c1.77 1.03 1.55 2.82-.5 4l-10.48 6.03-210.38-121.41Z"/><path class="cls-2" d="M1242.86 397.64c2.05-1.18 2.28-2.97.5-4l-221.34-127.75c-1.77-1.03-4.88-.9-6.93.28L789.44 396.14c-2.05 1.18-2.28 2.97-.5 4l221.34 127.75c1.77 1.03 4.88.9 6.93-.28l225.65-129.97Z"/><path d="m1029.73 505.98 226.28-130.33c4.96-2.86 7.47-6.53 7.43-10v.02l.02-40.83-7.75 6.92-6.67-3.86c.73-.85 1.23-1.58 1.09-1.82-.4-.69-3.31-5.75-3.31-5.75l-159.64-94.24-50.75-29.55-19.83-5.72L784.31 324.3l.67 5.37-6.2 3.57-9.94-4.45-.04 40.6.02-.02c-.07 2.91 1.62 5.71 5.22 7.79l225.33 130.06c7.77 4.5 21.36 3.95 30.34-1.23Zm91.86-100.67-102.46 55.95-8.82-.43-171.12-95.74-47.41-24.49 223.3-128.61c2.05-1.18 5.15-1.31 6.93-.28l217.3 125.41-117.72 68.19Z" style="fill:url(#_Áåçûìÿííûé_ãðàäèåíò_31-3)"/><path d="m1029.73 505.98 226.28-130.33c4.96-2.86 7.47-6.53 7.43-10v.02l.02-40.83-7.75 6.92-6.67-3.86c.73-.85 1.23-1.58 1.09-1.82-.4-.69-3.31-5.75-3.31-5.75l-159.64-94.24-50.75-29.55-19.83-5.72L784.31 324.3l.67 5.37-6.2 3.57-9.94-4.45-.04 40.6.02-.02c-.07 2.91 1.62 5.71 5.22 7.79l225.33 130.06c7.77 4.5 21.36 3.95 30.34-1.23Zm91.86-100.67-102.46 55.95-8.82-.43-171.12-95.74-47.41-24.49 223.3-128.61c2.05-1.18 5.15-1.31 6.93-.28l217.3 125.41-117.72 68.19Z" style="fill:url(#_Áåçûìÿííûé_ãðàäèåíò_85-4)"/><path class="cls-11" d="m1013.4 510.23.03-49.25 5.7.28 102.46-55.95 117.72-68.19-3.9-2.26c3.64-2.1 24.27-7.85 28.06-10.03V365.67v-.02c.03 3.47-2.48 7.14-7.44 10l-226.28 130.33c-4.68 2.7-10.62 4.13-16.32 4.25Z"/><path d="m1029.74 464.67 226.28-130.33c8.99-5.18 9.97-13.02 2.2-17.52l-225.33-130.06c-7.77-4.5-21.36-3.95-30.34 1.23L776.27 318.32c-8.99 5.18-9.97 13.02-2.2 17.52L999.4 465.9c7.77 4.5 21.36 3.95 30.34-1.23Zm-12.54-7.62c-2.05 1.18-5.15 1.31-6.93.28L788.93 329.58c-1.77-1.03-1.55-2.82.5-4l225.65-129.97c2.05-1.18 5.15-1.31 6.93-.28l221.34 127.75c1.77 1.03 1.55 2.82-.5 4L1017.2 457.05Z" style="fill:url(#_Áåçûìÿííûé_ãðàäèåíò_31-4)"/><path d="m1029.74 464.67 226.28-130.33c8.99-5.18 9.97-13.02 2.2-17.52l-225.33-130.06c-7.77-4.5-21.36-3.95-30.34 1.23L776.27 318.32c-8.99 5.18-9.97 13.02-2.2 17.52L999.4 465.9c7.77 4.5 21.36 3.95 30.34-1.23Zm-12.54-7.62c-2.05 1.18-5.15 1.31-6.93.28L788.93 329.58c-1.77-1.03-1.55-2.82.5-4l225.65-129.97c2.05-1.18 5.15-1.31 6.93-.28l221.34 127.75c1.77 1.03 1.55 2.82-.5 4L1017.2 457.05Z" style="fill:url(#_Áåçûìÿííûé_ãðàäèåíò_85-5)"/><path class="cls-5" d="m1243.36 320.86-221.34-127.75c-1.77-1.03-4.88-.9-6.93.28L789.44 323.36c-1.66.96-2.1 2.31-1.28 3.33.28-.4.7-.78 1.28-1.11l225.65-129.96c2.05-1.18 5.15-1.31 6.93-.28l221.34 127.75c.34.2.58.43.78.67.73-1.02.5-2.15-.78-2.89Z"/><path class="cls-5" d="m1256.03 332.12-226.28 130.33c-8.99 5.18-22.57 5.72-30.34 1.23L774.08 333.62c-3.07-1.78-4.75-4.08-5.14-6.52-.52 3.25 1.15 6.44 5.14 8.74L999.41 465.9c7.77 4.5 21.36 3.95 30.34-1.23l226.28-130.33c5.44-3.13 7.92-7.24 7.33-10.99-.49 3.09-2.95 6.25-7.33 8.77Z"/><path class="cls-26" d="M1022 211.71c-1.77-1.03-4.88-.9-6.93.28L799.89 335.92l-10.96-6.34c-1.77-1.03-1.55-2.82.5-4l225.65-129.97c2.05-1.18 5.15-1.31 6.93-.28l221.34 127.75c1.77 1.03 1.55 2.82-.5 4l-10.48 6.03-210.38-121.41Z"/><path class="cls-2" d="M1242.86 327.08c2.05-1.18 2.28-2.97.5-4l-221.34-127.75c-1.77-1.03-4.88-.9-6.93.28L789.44 325.58c-2.05 1.18-2.28 2.97-.5 4l221.34 127.75c1.77 1.03 4.88.9 6.93-.28l225.65-129.97Z"/><path d="m1029.73 435.42 226.28-130.33c4.96-2.86 7.47-6.53 7.43-10v.02l.02-40.83-7.75 6.92-6.67-3.86c.73-.85 1.23-1.58 1.09-1.82-.4-.69-3.31-5.75-3.31-5.75l-159.64-94.24-50.75-29.55-19.83-5.72-232.29 133.48.67 5.37-6.2 3.57-9.94-4.45-.04 40.59.02-.02c-.07 2.91 1.62 5.71 5.22 7.79l225.33 130.06c7.77 4.5 21.36 3.95 30.34-1.23Zm91.86-100.67-102.46 55.95-8.82-.43-171.12-95.74-47.41-24.49 223.3-128.61c2.05-1.18 5.15-1.31 6.93-.28l217.3 125.41-117.72 68.19Z" style="fill:url(#_Áåçûìÿííûé_ãðàäèåíò_31-5)"/><path d="m1029.73 435.42 226.28-130.33c4.96-2.86 7.47-6.53 7.43-10v.02l.02-40.83-7.75 6.92-6.67-3.86c.73-.85 1.23-1.58 1.09-1.82-.4-.69-3.31-5.75-3.31-5.75l-159.64-94.24-50.75-29.55-19.83-5.72-232.29 133.48.67 5.37-6.2 3.57-9.94-4.45-.04 40.59.02-.02c-.07 2.91 1.62 5.71 5.22 7.79l225.33 130.06c7.77 4.5 21.36 3.95 30.34-1.23Zm91.86-100.67-102.46 55.95-8.82-.43-171.12-95.74-47.41-24.49 223.3-128.61c2.05-1.18 5.15-1.31 6.93-.28l217.3 125.41-117.72 68.19Z" style="fill:url(#_Áåçûìÿííûé_ãðàäèåíò_85-6)"/><path class="cls-11" d="m1013.4 439.67.03-49.25 5.7.28 102.46-55.95 117.72-68.19-3.9-2.26c3.64-2.1 24.27-7.85 28.06-10.03V295.11v-.02c.03 3.47-2.48 7.14-7.44 10l-226.28 130.33c-4.68 2.7-10.62 4.13-16.32 4.25Z"/><path d="m1029.74 394.11 226.28-130.33c8.99-5.18 9.97-13.02 2.2-17.52L1032.89 116.2c-7.77-4.5-21.36-3.95-30.34 1.23L776.27 247.76c-8.99 5.18-9.97 13.02-2.2 17.52L999.4 395.34c7.77 4.5 21.36 3.95 30.34-1.23Zm-12.54-7.62c-2.05 1.18-5.15 1.31-6.93.28L788.93 259.02c-1.77-1.03-1.55-2.82.5-4l225.65-129.97c2.05-1.18 5.15-1.31 6.93-.28l221.34 127.75c1.77 1.03 1.55 2.82-.5 4L1017.2 386.49Z" style="fill:url(#_Áåçûìÿííûé_ãðàäèåíò_31-6)"/><path d="m1029.74 394.11 226.28-130.33c8.99-5.18 9.97-13.02 2.2-17.52L1032.89 116.2c-7.77-4.5-21.36-3.95-30.34 1.23L776.27 247.76c-8.99 5.18-9.97 13.02-2.2 17.52L999.4 395.34c7.77 4.5 21.36 3.95 30.34-1.23Zm-12.54-7.62c-2.05 1.18-5.15 1.31-6.93.28L788.93 259.02c-1.77-1.03-1.55-2.82.5-4l225.65-129.97c2.05-1.18 5.15-1.31 6.93-.28l221.34 127.75c1.77 1.03 1.55 2.82-.5 4L1017.2 386.49Z" style="fill:url(#_Áåçûìÿííûé_ãðàäèåíò_85-7)"/><path class="cls-5" d="m1243.36 250.3-221.34-127.75c-1.77-1.03-4.88-.9-6.93.28L789.44 252.8c-1.66.96-2.1 2.31-1.28 3.33.28-.4.7-.78 1.28-1.11l225.65-129.97c2.05-1.18 5.15-1.31 6.93-.28l221.34 127.75c.34.2.58.43.78.67.73-1.02.5-2.15-.78-2.89Z"/><path class="cls-5" d="m1256.03 261.56-226.28 130.33c-8.99 5.18-22.57 5.72-30.34 1.23L774.08 263.06c-3.07-1.78-4.75-4.07-5.14-6.52-.52 3.25 1.15 6.44 5.14 8.74l225.33 130.06c7.77 4.5 21.36 3.95 30.34-1.23l226.28-130.33c5.44-3.13 7.92-7.24 7.33-10.99-.49 3.09-2.95 6.25-7.33 8.77Z"/><path class="cls-26" d="M1022 141.15c-1.77-1.03-4.88-.9-6.93.28L799.89 265.36l-10.96-6.34c-1.77-1.03-1.55-2.82.5-4l225.65-129.97c2.05-1.18 5.15-1.31 6.93-.28l221.34 127.75c1.77 1.03 1.55 2.82-.5 4l-10.48 6.03-210.38-121.41Z"/><path class="cls-2" d="M1242.86 256.52c2.05-1.18 2.28-2.97.5-4l-221.34-127.75c-1.77-1.03-4.88-.9-6.93.28L789.44 255.02c-2.05 1.18-2.28 2.97-.5 4l221.34 127.75c1.77 1.03 4.88.9 6.93-.28l225.65-129.97Z"/><path d="m1029.73 364.86 226.28-130.33c4.96-2.86 7.47-6.53 7.43-10v.02l.02-40.83-7.75 6.92-6.67-3.86c.73-.85 1.23-1.58 1.09-1.82-.4-.69-3.31-5.75-3.31-5.75l-159.64-94.24-50.75-29.55-19.83-5.72-232.29 133.48.67 5.37-6.2 3.57-9.94-4.45-.04 40.6.02-.02c-.07 2.91 1.62 5.71 5.22 7.79L999.37 366.1c7.77 4.5 21.36 3.95 30.34-1.23Zm91.86-100.67-102.46 55.95-8.82-.43-171.12-95.74-47.41-24.49 223.3-128.61c2.05-1.18 5.15-1.31 6.93-.28L1239.31 196l-117.72 68.19Z" style="fill:url(#_Áåçûìÿííûé_ãðàäèåíò_31-7)"/><path d="m1029.73 364.86 226.28-130.33c4.96-2.86 7.47-6.53 7.43-10v.02l.02-40.83-7.75 6.92-6.67-3.86c.73-.85 1.23-1.58 1.09-1.82-.4-.69-3.31-5.75-3.31-5.75l-159.64-94.24-50.75-29.55-19.83-5.72-232.29 133.48.67 5.37-6.2 3.57-9.94-4.45-.04 40.6.02-.02c-.07 2.91 1.62 5.71 5.22 7.79L999.37 366.1c7.77 4.5 21.36 3.95 30.34-1.23Zm91.86-100.67-102.46 55.95-8.82-.43-171.12-95.74-47.41-24.49 223.3-128.61c2.05-1.18 5.15-1.31 6.93-.28L1239.31 196l-117.72 68.19Z" style="fill:url(#_Áåçûìÿííûé_ãðàäèåíò_85-8)"/><path class="cls-11" d="m1013.4 369.11.03-49.25 5.7.28 102.46-55.95L1239.31 196l-3.9-2.26c3.64-2.1 24.27-7.85 28.06-10.03V224.55v-.02c.03 3.47-2.48 7.14-7.44 10l-226.28 130.33c-4.68 2.7-10.62 4.13-16.32 4.25Z"/><path d="m1029.74 323.55 226.28-130.33c8.99-5.18 9.97-13.02 2.2-17.52L1032.89 45.64c-7.77-4.5-21.36-3.95-30.34 1.23L776.27 177.2c-8.99 5.18-9.97 13.02-2.2 17.52L999.4 324.78c7.77 4.5 21.36 3.95 30.34-1.23Zm-12.54-7.62c-2.05 1.18-5.15 1.31-6.93.28L788.93 188.46c-1.77-1.03-1.55-2.82.5-4l225.65-129.97c2.05-1.18 5.15-1.31 6.93-.28l221.34 127.75c1.77 1.03 1.55 2.82-.5 4L1017.2 315.93Z" style="fill:url(#_Áåçûìÿííûé_ãðàäèåíò_31-8)"/><path d="m1029.74 323.55 226.28-130.33c8.99-5.18 9.97-13.02 2.2-17.52L1032.89 45.64c-7.77-4.5-21.36-3.95-30.34 1.23L776.27 177.2c-8.99 5.18-9.97 13.02-2.2 17.52L999.4 324.78c7.77 4.5 21.36 3.95 30.34-1.23Zm-12.54-7.62c-2.05 1.18-5.15 1.31-6.93.28L788.93 188.46c-1.77-1.03-1.55-2.82.5-4l225.65-129.97c2.05-1.18 5.15-1.31 6.93-.28l221.34 127.75c1.77 1.03 1.55 2.82-.5 4L1017.2 315.93Z" style="fill:url(#_Áåçûìÿííûé_ãðàäèåíò_85-9)"/><path class="cls-5" d="M1243.36 179.74 1022.02 51.99c-1.77-1.03-4.88-.9-6.93.28L789.44 182.24c-1.66.96-2.1 2.31-1.28 3.33.28-.4.7-.78 1.28-1.11L1015.09 54.5c2.05-1.18 5.15-1.31 6.93-.28l221.34 127.75c.34.2.58.43.78.67.73-1.02.5-2.15-.78-2.89Z"/><path class="cls-5" d="m1256.03 191-226.28 130.33c-8.99 5.18-22.57 5.72-30.34 1.23L774.08 192.5c-3.07-1.78-4.75-4.07-5.14-6.52-.52 3.25 1.15 6.44 5.14 8.74l225.33 130.06c7.77 4.5 21.36 3.95 30.34-1.23l226.28-130.33c5.44-3.13 7.92-7.24 7.33-10.99-.49 3.09-2.95 6.25-7.33 8.77Z"/><path class="cls-26" d="M1022 70.59c-1.77-1.03-4.88-.9-6.93.28L799.89 194.8l-10.96-6.34c-1.77-1.03-1.55-2.82.5-4l225.65-129.97c2.05-1.18 5.15-1.31 6.93-.28l221.34 127.75c1.77 1.03 1.55 2.82-.5 4l-10.48 6.03-210.38-121.41Z"/><path d="M1242.86 185.96c2.05-1.18 2.28-2.97.5-4L1022.02 54.21c-1.77-1.03-4.88-.9-6.93.28L789.44 184.46c-2.05 1.18-2.28 2.97-.5 4l221.34 127.75c1.77 1.03 4.88.9 6.93-.28l225.65-129.97Z" style="fill:#706ec4;opacity:.7"/><path class="cls-35" d="m980.27 153.46 79.9 46.83.14.32 11.5 25.02L936.7 146.3l14.7 2.41 3.91.65 24.96 4.1zM972.84 126.61l134.54 78.7-42.95-7.01-.9-.15-79.44-46.54-.22-.52-11.03-24.48zM1020.93 199.89l28.85 16.95-11.77 18.3-5.77 8.96-12.45 19.35-15.5-34.62-.91-2.03 3.37-5.17 14.18-21.74z"/><path class="cls-35" d="m1092.73 146.4-9.48 14.73-102.47-16.87-7.94-17.65 84.46 13.95 35.43 5.84zM967.77 151.41l50.91 113.78-26.89 5.58-.01-.01L936.7 146.3l31.07 5.11z"/></g></g></g></svg>