<svg data-name="Layer 1" xmlns="http://www.w3.org/2000/svg" viewBox="0 0 500 500"><path d="M128.93 322.18h-2l-2.25 8.19h.9l.59-2.11h3.51l.59 2.11h.9Zm-2.55 5.26 1.25-4.48h.61l1.24 4.48ZM138.91 329.26a3.63 3.63 0 0 1-1.66.43 1.25 1.25 0 0 1-.77-.19 1 1 0 0 1-.34-.63 6.44 6.44 0 0 1-.1-1.34v-3.08h-.89v3.09a7.16 7.16 0 0 0 .17 1.76 1.53 1.53 0 0 0 .57.91 2.13 2.13 0 0 0 1.17.28 3.12 3.12 0 0 0 .95-.13 4.32 4.32 0 0 0 .9-.41v.42h.88v-5.92h-.88ZM146.43 329.71a.78.78 0 0 1-.57-.18.81.81 0 0 1-.23-.49 7.77 7.77 0 0 1 0-1v-2.83h1.88v-.77h-1.88v-1.81h-.88v1.81h-.84v.77h.84v3.11a4.48 4.48 0 0 0 .15 1.31 1.1 1.1 0 0 0 .49.66 1.88 1.88 0 0 0 .94.2 8.79 8.79 0 0 0 1.27-.13l-.06-.73ZM156 325.65a1.92 1.92 0 0 0-.8-1 3.61 3.61 0 0 0-3 0 1.82 1.82 0 0 0-.8 1 6.59 6.59 0 0 0 0 3.56 1.75 1.75 0 0 0 .79 1 3.7 3.7 0 0 0 3 0 1.75 1.75 0 0 0 .79-1 5.32 5.32 0 0 0 .23-1.76 5.49 5.49 0 0 0-.21-1.8Zm-.8 3.15a1.17 1.17 0 0 1-.48.7 1.93 1.93 0 0 1-1 .22 2 2 0 0 1-1-.22 1.17 1.17 0 0 1-.48-.71 5.2 5.2 0 0 1-.14-1.35 5.11 5.11 0 0 1 .15-1.41 1.18 1.18 0 0 1 .5-.72 2.42 2.42 0 0 1 2 0 1.16 1.16 0 0 1 .48.72 5.11 5.11 0 0 1 .15 1.41 5.23 5.23 0 0 1-.17 1.36ZM168.1 324.62a1.91 1.91 0 0 0-1.12-.29 4.53 4.53 0 0 0-1.21.17 4.44 4.44 0 0 0-1 .44 1.29 1.29 0 0 0-.61-.46 2.46 2.46 0 0 0-.88-.15 3.37 3.37 0 0 0-1.77.54v-.42h-.88v5.92h.89v-4.81l.2-.1a2.43 2.43 0 0 1 .65-.23 3.11 3.11 0 0 1 .79-.1 1.16 1.16 0 0 1 .75.2 1.09 1.09 0 0 1 .34.65 7.3 7.3 0 0 1 .1 1.34v3.05h.88v-3.08a6 6 0 0 0-.15-1.73l.22-.1a2.83 2.83 0 0 1 .68-.23 3.29 3.29 0 0 1 .82-.1 1.16 1.16 0 0 1 .75.2 1.1 1.1 0 0 1 .35.65 7 7 0 0 1 .09 1.29v3.1h.89v-3.13a7 7 0 0 0-.17-1.7 1.65 1.65 0 0 0-.61-.92ZM177.57 329.27v-3a1.65 1.65 0 0 0-1.91-1.91 11.75 11.75 0 0 0-2.31.26v.68a22.21 22.21 0 0 1 2.33-.16c.65 0 1 .38 1 1.13v.51l-1.86.17a2.32 2.32 0 0 0-1.37.51 1.68 1.68 0 0 0-.43 1.27 1.87 1.87 0 0 0 .42 1.32 1.6 1.6 0 0 0 1.24.47 5.22 5.22 0 0 0 2.13-.47 2 2 0 0 0 1.41.47v-.7c-.4-.09-.63-.26-.65-.55Zm-.89.11-.27.09a4.92 4.92 0 0 1-1.59.27c-.59 0-.9-.36-.9-1.09a1.1 1.1 0 0 1 .24-.75 1.12 1.12 0 0 1 .77-.31l1.75-.17ZM184.26 329.71a.82.82 0 0 1-.58-.18.81.81 0 0 1-.23-.49 8.2 8.2 0 0 1 0-1v-2.83h1.88v-.77h-1.88v-1.81h-.88v1.81h-.84v.77h.84v3.11a4.48 4.48 0 0 0 .15 1.31 1.13 1.13 0 0 0 .48.66 1.9 1.9 0 0 0 .94.2 8.54 8.54 0 0 0 1.27-.13l-.06-.73ZM193.87 327.1a3.18 3.18 0 0 0-.59-2.09 2.64 2.64 0 0 0-3.66.12 4 4 0 0 0-.61 2.43 3.52 3.52 0 0 0 .57 2.22 2.3 2.3 0 0 0 1.91.71 16.9 16.9 0 0 0 2.18-.19v-.7h-.34l-.82.05h-.79a2.56 2.56 0 0 1-1.07-.19 1.05 1.05 0 0 1-.55-.6 3.37 3.37 0 0 1-.16-1.14h3.91Zm-4 0a2.37 2.37 0 0 1 .41-1.51 1.46 1.46 0 0 1 1.2-.48 1.34 1.34 0 0 1 1.13.45 2.72 2.72 0 0 1 .34 1.54ZM201.82 321.87v2.62a7.09 7.09 0 0 0-1.41-.16 2.3 2.3 0 0 0-1.93.75 4 4 0 0 0-.59 2.44 4 4 0 0 0 .49 2.24 1.8 1.8 0 0 0 1.61.73 3.75 3.75 0 0 0 1.83-.52v.4h.87v-8.5Zm0 7.39-.24.1a3.81 3.81 0 0 1-1.43.33 1.08 1.08 0 0 1-1-.55 3.52 3.52 0 0 1-.31-1.7 3.34 3.34 0 0 1 .37-1.79 1.49 1.49 0 0 1 1.31-.55 7.93 7.93 0 0 1 1.34.14ZM234.13 323h2.52v7.37h.9V323h2.5v-.82h-5.92v.82zM243.81 324.45h-.88v5.92h.89V326l.3-.16a7.25 7.25 0 0 1 .86-.36 6.44 6.44 0 0 1 1-.29v-.9a5.88 5.88 0 0 0-2.17.94ZM254.1 329.27v-3a1.64 1.64 0 0 0-1.91-1.91 11.75 11.75 0 0 0-2.31.26v.68a22.21 22.21 0 0 1 2.33-.16c.64 0 1 .38 1 1.13v.51l-1.86.17a2.38 2.38 0 0 0-1.38.51 1.68 1.68 0 0 0-.43 1.27A1.87 1.87 0 0 0 250 330a1.62 1.62 0 0 0 1.25.47 5.22 5.22 0 0 0 2.13-.47 1.92 1.92 0 0 0 1.41.47v-.7c-.43-.04-.66-.21-.69-.5Zm-.88.11-.27.09a4.92 4.92 0 0 1-1.59.27c-.6 0-.9-.36-.9-1.09a1.06 1.06 0 0 1 .24-.75 1.08 1.08 0 0 1 .77-.31l1.75-.17ZM262.42 321.87v2.62a6.91 6.91 0 0 0-1.4-.16 2.32 2.32 0 0 0-1.94.75 4 4 0 0 0-.58 2.44 4.14 4.14 0 0 0 .48 2.24 1.81 1.81 0 0 0 1.61.73 3.69 3.69 0 0 0 1.83-.52v.4h.88v-8.5Zm0 7.39-.23.1a3.27 3.27 0 0 1-.69.23 2.91 2.91 0 0 1-.74.1 1.09 1.09 0 0 1-1.05-.55 3.66 3.66 0 0 1-.3-1.7 3.25 3.25 0 0 1 .37-1.79 1.48 1.48 0 0 1 1.31-.55 7.82 7.82 0 0 1 1.33.14ZM267.92 322.08h.88v1.03h-.88zM267.92 324.45h.88v5.92h-.88zM277.35 324.62a2.06 2.06 0 0 0-1.17-.29 3.54 3.54 0 0 0-.93.12 4.37 4.37 0 0 0-1 .42v-.42h-.87v5.92h.88v-4.81l.23-.1a2.68 2.68 0 0 1 .68-.23 3.34 3.34 0 0 1 .82-.1 1.19 1.19 0 0 1 .76.2 1.1 1.1 0 0 1 .36.65 6.09 6.09 0 0 1 .1 1.29v3.1h.88v-3.13a7 7 0 0 0-.17-1.72 1.56 1.56 0 0 0-.57-.9ZM287.66 324.44l-1.75.05a5.68 5.68 0 0 0-1.21-.16 2.41 2.41 0 0 0-1.68.51 2 2 0 0 0-.56 1.53 1.73 1.73 0 0 0 .94 1.78 3.91 3.91 0 0 0-.33.64.93.93 0 0 0-.08.34 1.2 1.2 0 0 0 .09.45.61.61 0 0 0 .25.32 6 6 0 0 0-.57.48 1.18 1.18 0 0 0-.28.43 1.81 1.81 0 0 0-.09.62 1.5 1.5 0 0 0 .55 1.32 3.3 3.3 0 0 0 1.88.4 3.68 3.68 0 0 0 2.11-.47 1.78 1.78 0 0 0 .64-1.51 1.72 1.72 0 0 0-.27-1 1.24 1.24 0 0 0-.74-.48 5.25 5.25 0 0 0-1.26-.12h-.46a2 2 0 0 1-.75-.1.38.38 0 0 1-.24-.4 1 1 0 0 1 .06-.31l.15-.41a3.28 3.28 0 0 0 .6.05 2.66 2.66 0 0 0 1.72-.45 1.86 1.86 0 0 0 .55-1.5 2.57 2.57 0 0 0-.1-.75 1.18 1.18 0 0 0-.3-.49h1.13Zm-3.73 5.81 1.28.06a4 4 0 0 1 .88.07.7.7 0 0 1 .44.27 1 1 0 0 1 .13.57 1 1 0 0 1-.39.92 2.53 2.53 0 0 1-1.37.26 2.44 2.44 0 0 1-1.27-.23.94.94 0 0 1-.36-.85 1 1 0 0 1 .13-.57 2.37 2.37 0 0 1 .53-.5Zm1.8-2.9a1.46 1.46 0 0 1-1 .3 1.49 1.49 0 0 1-1-.3 1.31 1.31 0 0 1-.31-1 1.37 1.37 0 0 1 .31-1 1.55 1.55 0 0 1 1-.3 1.48 1.48 0 0 1 1 .3 1.77 1.77 0 0 1 0 2ZM316.05 329.69a2.22 2.22 0 0 1-1.08-.21 1.18 1.18 0 0 1-.52-.7 5.2 5.2 0 0 1-.14-1.35 5.08 5.08 0 0 1 .15-1.4 1.15 1.15 0 0 1 .51-.7 2.18 2.18 0 0 1 1-.2 13.49 13.49 0 0 1 1.43.1v-.72c-.43-.08-.78-.13-1-.15a6.18 6.18 0 0 0-.73 0 1.93 1.93 0 0 0-1.84.84 4.65 4.65 0 0 0-.47 2.25 5.73 5.73 0 0 0 .22 1.78 1.72 1.72 0 0 0 .75 1 2.73 2.73 0 0 0 1.41.32 13.2 13.2 0 0 0 1.7-.17v-.73ZM326.19 325.65a1.83 1.83 0 0 0-.8-1 3.58 3.58 0 0 0-3 0 1.83 1.83 0 0 0-.81 1 5.59 5.59 0 0 0-.24 1.8 5.32 5.32 0 0 0 .23 1.76 1.77 1.77 0 0 0 .8 1 3.7 3.7 0 0 0 3 0 1.78 1.78 0 0 0 .78-1 5.29 5.29 0 0 0 .24-1.76 5.2 5.2 0 0 0-.2-1.8Zm-.8 3.15a1.17 1.17 0 0 1-.48.7 1.91 1.91 0 0 1-1 .22 2 2 0 0 1-1-.22 1.18 1.18 0 0 1-.49-.71 5.27 5.27 0 0 1-.13-1.35 5.62 5.62 0 0 1 .14-1.41 1.23 1.23 0 0 1 .5-.72 1.92 1.92 0 0 1 1-.21 1.88 1.88 0 0 1 1 .21 1.21 1.21 0 0 1 .49.72 5.62 5.62 0 0 1 .14 1.41 5.23 5.23 0 0 1-.17 1.36ZM338.29 324.62a2 2 0 0 0-1.13-.29 4.4 4.4 0 0 0-1.2.17 4.26 4.26 0 0 0-1 .44 1.32 1.32 0 0 0-.62-.46 2.42 2.42 0 0 0-.88-.15 3.37 3.37 0 0 0-1.77.54v-.42h-.88v5.92h.89v-4.81l.2-.1a2.71 2.71 0 0 1 .65-.23 3.19 3.19 0 0 1 .8-.1 1 1 0 0 1 1.09.85 7.48 7.48 0 0 1 .09 1.34v3.05h.89v-3.08a5.57 5.57 0 0 0-.16-1.73l.23-.1a2.74 2.74 0 0 1 .67-.23 3.34 3.34 0 0 1 .82-.1 1.16 1.16 0 0 1 .75.2 1 1 0 0 1 .35.65 6.85 6.85 0 0 1 .1 1.29v3.1h.82v-3.13a6.49 6.49 0 0 0-.17-1.7 1.59 1.59 0 0 0-.54-.92ZM347.87 325.06a1.83 1.83 0 0 0-1.61-.73 3 3 0 0 0-.91.14 4 4 0 0 0-.9.41v-.43h-.87V333h.88v-2.64a6.88 6.88 0 0 0 1.29.13 3.16 3.16 0 0 0 1.53-.32 1.82 1.82 0 0 0 .83-1 5.24 5.24 0 0 0 .26-1.8 4.23 4.23 0 0 0-.5-2.31Zm-.79 4.11a1.52 1.52 0 0 1-1.31.55 11.21 11.21 0 0 1-1.31-.13v-4l.23-.12a5.28 5.28 0 0 1 .68-.24 2.55 2.55 0 0 1 .74-.11 1.15 1.15 0 0 1 1 .53 3.51 3.51 0 0 1 .33 1.75 3.08 3.08 0 0 1-.36 1.77ZM356.89 329.27v-3a1.65 1.65 0 0 0-1.92-1.91 11.74 11.74 0 0 0-2.3.26v.68a22.56 22.56 0 0 1 2.34-.16c.64 0 1 .38 1 1.13v.51l-1.85.17a2.38 2.38 0 0 0-1.38.51 1.69 1.69 0 0 0-.44 1.27 1.87 1.87 0 0 0 .43 1.32 1.61 1.61 0 0 0 1.24.47 5.3 5.3 0 0 0 2.14-.47 1.91 1.91 0 0 0 1.4.47v-.7c-.4-.09-.64-.26-.66-.55Zm-.89.11-.27.09a4.9 4.9 0 0 1-1.58.27c-.6 0-.9-.36-.9-1.09a1.05 1.05 0 0 1 .23-.75 1.12 1.12 0 0 1 .77-.31l1.75-.17ZM365.5 324.62a2.08 2.08 0 0 0-1.18-.29 3.59 3.59 0 0 0-.93.12 4.31 4.31 0 0 0-1 .42v-.42h-.88v5.92h.89v-4.81l.23-.1a2.68 2.68 0 0 1 .68-.23 3.34 3.34 0 0 1 .82-.1 1.21 1.21 0 0 1 .76.2 1.1 1.1 0 0 1 .36.65 6.85 6.85 0 0 1 .1 1.29v3.1h.87v-3.13a6.56 6.56 0 0 0-.17-1.72 1.55 1.55 0 0 0-.55-.9ZM374.42 324.45l-1.49 5.15h-.39l-1.48-5.15h-.89l1.68 5.92h.88l-.77 2.63h.89l2.46-8.55h-.89zM128.3 305.82h1.55v1.88h-1.55zM130.59 305.82h1.55v1.88h-1.55zM133.5 313.41h-4.74c-1.48 0-2.23-.52-2.23-1.54a13.46 13.46 0 0 1 .15-1.51l.11-.95-1.63-.09c-.12.46-.23 1-.32 1.53a8.51 8.51 0 0 0-.15 1.48 2.69 2.69 0 0 0 .59 1.89 2.79 2.79 0 0 0 1.5.83 10.86 10.86 0 0 0 2.22.19h6.52v-7.53h-2ZM150.46 309.31a2.26 2.26 0 0 0-1.13-1.29 5.13 5.13 0 0 0-2.39-.45 9.77 9.77 0 0 0-1.78.15 5 5 0 0 0-1.2.35 13.92 13.92 0 0 0-.38 1.64 10.56 10.56 0 0 0-.17 1.78 9.48 9.48 0 0 0 .22 1.91h-3.83v-8.71h-2v10.55h13v-3.77a6.45 6.45 0 0 0-.34-2.16Zm-1.73 4.09h-3.14c-.05-.22-.1-.5-.15-.86a9.57 9.57 0 0 1-.07-1.05 10.38 10.38 0 0 1 .22-2 5.52 5.52 0 0 1 1.14-.12 2 2 0 0 1 1.59.5 2.37 2.37 0 0 1 .41 1.55ZM189.41 304.69v8.71h-2.69a.74.74 0 0 1-.48-.17 1 1 0 0 1-.33-.47v-1.29a6.45 6.45 0 0 0-.3-2.16 2.26 2.26 0 0 0-1.13-1.29 5.1 5.1 0 0 0-2.39-.45 9.58 9.58 0 0 0-1.77.15 5 5 0 0 0-1.21.35 13.92 13.92 0 0 0-.38 1.64 10.56 10.56 0 0 0-.17 1.78 10.27 10.27 0 0 0 .22 1.91h-4.34a5.12 5.12 0 0 1-1.05-.12 13.54 13.54 0 0 0 1.63-1.7 2.55 2.55 0 0 0 .55-1.55l.06-1.33a8.69 8.69 0 0 0-1.91-.81 7.72 7.72 0 0 0-2.27-.36 7.51 7.51 0 0 0-2.26.36 7.91 7.91 0 0 0-1.85.81v1.33a2.53 2.53 0 0 0 .55 1.55 12.76 12.76 0 0 0 1.62 1.7 4.85 4.85 0 0 1-1 .12h-3.71v-8.71h-2v8.71h-3.72v-5.62c-.44-.1-1-.18-1.64-.26a15.21 15.21 0 0 0-1.85-.12 4.67 4.67 0 0 0-1.92.33 2.25 2.25 0 0 0-1.13 1.26 7.14 7.14 0 0 0-.4 2.73q0 3.52 3.12 3.52H157a4.2 4.2 0 0 1-.13 1.16 1 1 0 0 1-.4.58 1.46 1.46 0 0 1-.76.16 20.53 20.53 0 0 1-2.44-.27v1.83a18.89 18.89 0 0 0 2.63.28c1.86 0 2.91-1.24 3.13-3.74h9.54a6.3 6.3 0 0 0 1.46-.17 7 7 0 0 0 1.44-.48 6.67 6.67 0 0 0 1.45.48 6.77 6.77 0 0 0 1.53.17h11.46v-.65a1 1 0 0 0 .33.47.7.7 0 0 0 .48.18h4.7v-10.55Zm-32.35 8.71h-1.26a1.44 1.44 0 0 1-1.32-.52 2.32 2.32 0 0 1-.34-1.28 4.05 4.05 0 0 1 .22-1.5 1.16 1.16 0 0 1 .59-.68 2.34 2.34 0 0 1 1-.17 8.59 8.59 0 0 1 1.11.07Zm14.42-.9a5.26 5.26 0 0 1-1.6-1.37 2.43 2.43 0 0 1-.54-1.39 6.57 6.57 0 0 1 2.13-.38 6.85 6.85 0 0 1 2.17.38 2.39 2.39 0 0 1-.52 1.34 5.52 5.52 0 0 1-1.64 1.42Zm12.41.9h-3.15c-.05-.22-.1-.5-.15-.86a9.57 9.57 0 0 1-.07-1.05 11.25 11.25 0 0 1 .22-2 5.52 5.52 0 0 1 1.14-.12 2 2 0 0 1 1.59.5 2.37 2.37 0 0 1 .42 1.55ZM193.84 304.69h2.02v10.55h-2.02zM205.79 304.42h1.55v1.88h-1.55zM203.5 304.42h1.55v1.88h-1.55zM211.8 316.45h1.55v1.88h-1.55zM214.09 316.45h1.55v1.88h-1.55zM219.33 304.35h1.85v1.96h-1.85zM229.24 304.42h1.55v1.88h-1.55zM226.95 304.42h1.55v1.88h-1.55zM237.01 304.42h1.55v1.88h-1.55zM234.72 304.42h1.55v1.88h-1.55z"/><path d="M241.77 304.69v8.71h-4.1v-5.69h-2v5.69h-3.71v-5.48l-.78-.09a20.29 20.29 0 0 0-2.22-.11 6.47 6.47 0 0 0-2.31.34 2.42 2.42 0 0 0-1.3 1.11 4.57 4.57 0 0 0-.43 2.15 7.73 7.73 0 0 0 .26 2.08h-3.87v-5.69h-2v5.69h-4.5v-5.69h-2v5.69h-3.82v-5.65c-.32-.05-.87-.09-1.65-.13s-1.46-.07-2-.07a7.21 7.21 0 0 0-2.46.33 2.25 2.25 0 0 0-1.27 1.13 5.54 5.54 0 0 0-.39 2.33 5.6 5.6 0 0 0 .42 2.44 2.24 2.24 0 0 0 1.27 1.15 7.06 7.06 0 0 0 2.35.31h38.62v-10.55Zm-34.87 8.71h-1.62a3.73 3.73 0 0 1-1.24-.16 1.18 1.18 0 0 1-.67-.61 3 3 0 0 1-.22-1.29 2.75 2.75 0 0 1 .21-1.2 1.17 1.17 0 0 1 .67-.58 4 4 0 0 1 1.29-.16c.55 0 1.08 0 1.58.07Zm23 0h-2.68c-.09-.28-.16-.54-.21-.77a4.65 4.65 0 0 1-.08-.93 4.59 4.59 0 0 1 .16-1.37 1 1 0 0 1 .56-.63 3 3 0 0 1 1.21-.19c.25 0 .6 0 1 .05ZM253.23 320.07h1.55v1.88h-1.55zM255.52 320.07h1.55v1.88h-1.55zM264.37 313.41h-5.23a4.29 4.29 0 0 1-.94-.07 1.76 1.76 0 0 1-.69-.36l-.88 1.57a3.41 3.41 0 0 0 1.12.55 4.62 4.62 0 0 0 1.23.14 2.28 2.28 0 0 1-.39 1.48 1.56 1.56 0 0 1-1.21.42h-4.16a2.64 2.64 0 0 1-1.22-.27 2 2 0 0 1-.82-.74 1.86 1.86 0 0 1-.3-1 9.57 9.57 0 0 1 .09-1c0-.49.12-.95.19-1.37l-1.89-.3c-.1.49-.19 1-.28 1.61a11.28 11.28 0 0 0-.13 1.4 3 3 0 0 0 .68 2 3.91 3.91 0 0 0 1.69 1.21 5.75 5.75 0 0 0 2.07.39h4.2a3.52 3.52 0 0 0 2.56-.9 3.9 3.9 0 0 0 1-2.84h5.3v-10.64h-2ZM274.15 313.4h-2.04v-6.67h-2.02v6.67h-1.9v1.84h7.98v-10.55h-2.02v8.71z"/><path d="m269.63 305.42.25-.21a.65.65 0 0 1 .35-.17 3 3 0 0 1 .83.32l.59.21a1.63 1.63 0 0 0 .51.12 1.66 1.66 0 0 0 1.14-.65l-.36-1.16-.21.21q-.42.36-.57.36a4.82 4.82 0 0 1-.79-.3 3.45 3.45 0 0 0-1.1-.35 1.2 1.2 0 0 0-.63.2 3 3 0 0 0-.59.48l.35 1.15ZM278.41 304.69h2.02v10.55h-2.02zM292.33 315.24a1.76 1.76 0 0 1-.28.95 1.89 1.89 0 0 1-.8.7 2.71 2.71 0 0 1-1.2.25 2.91 2.91 0 0 1-1.23-.25 2.11 2.11 0 0 1-.85-.7 1.72 1.72 0 0 1-.3-1q0-.39.15-1.62c.1-.83.21-1.62.33-2.39l-1.9-.1a36.51 36.51 0 0 0-.54 4.33 3.11 3.11 0 0 0 .56 1.79 4 4 0 0 0 1.57 1.29 5.38 5.38 0 0 0 2.29.47 5 5 0 0 0 2.22-.47 3.72 3.72 0 0 0 1.48-1.28 3.27 3.27 0 0 0 .52-1.77v-10.75h-2ZM301.48 307.52a15.5 15.5 0 0 0-1.86-.12 4.73 4.73 0 0 0-1.92.33 2.29 2.29 0 0 0-1.13 1.26 7.14 7.14 0 0 0-.4 2.73q0 3.52 3.12 3.52H301a3.85 3.85 0 0 1-.13 1.16 1 1 0 0 1-.4.58 1.44 1.44 0 0 1-.75.16 20.63 20.63 0 0 1-2.45-.27v1.83a19 19 0 0 0 2.63.28 2.55 2.55 0 0 0 2.1-.83 4 4 0 0 0 .89-1.92 13 13 0 0 0 .19-2.31v-6.14c-.4-.1-.95-.18-1.6-.26Zm-.38 5.88h-1.25a1.45 1.45 0 0 1-1.33-.52 2.32 2.32 0 0 1-.33-1.28 4.09 4.09 0 0 1 .21-1.5 1.19 1.19 0 0 1 .59-.68 2.39 2.39 0 0 1 1-.17 8.44 8.44 0 0 1 1.1.07ZM305.08 304.69h2.02v10.55h-2.02zM321.09 304.42h1.55v1.88h-1.55zM318.8 304.42h1.55v1.88h-1.55z"/><path d="M325.85 313.41h-4.1v-5.7h-2v5.7h-3.81v-.74a7.47 7.47 0 0 0-.51-2.93 3.64 3.64 0 0 0-3.53-2.38 7.5 7.5 0 0 0-1.1.09c-.39.06-.75.13-1.06.2l.15 1.58h1.52a2.27 2.27 0 0 1 1.77.84 4.2 4.2 0 0 1 .74 2.79v.55h-4.84v1.83h18.81v-10.55h-2ZM330.28 304.69h2.02v10.55h-2.02zM342.24 304.42h1.55v1.88h-1.55zM339.94 304.42h1.55v1.88h-1.55z"/><path d="M355.45 310a3.3 3.3 0 0 0-.87-1.46 2.51 2.51 0 0 0-1.85-.65h-3l.27-.53a24.29 24.29 0 0 1 1.48-2.42l-1.49-.84c-.3.33-.62.72-1 1.18a8.4 8.4 0 0 0-.81 1.29l-.9 1.76 1 1.4h4a1.09 1.09 0 0 1 .88.5 2.13 2.13 0 0 1 .37 1.28v1.85h-8.28v-5.65c-.32-.05-.87-.09-1.66-.13s-1.45-.07-2-.07a7.18 7.18 0 0 0-2.45.33A2.22 2.22 0 0 0 338 309a5.54 5.54 0 0 0-.39 2.33 5.77 5.77 0 0 0 .41 2.44 2.26 2.26 0 0 0 1.28 1.15 7 7 0 0 0 2.35.31h14.05v-3.67a6.27 6.27 0 0 0-.25-1.56Zm-12.1 3.36h-1.63a3.7 3.7 0 0 1-1.23-.16 1.18 1.18 0 0 1-.67-.61 3 3 0 0 1-.22-1.29 2.75 2.75 0 0 1 .21-1.2 1.14 1.14 0 0 1 .67-.58 4 4 0 0 1 1.29-.16c.55 0 1.08 0 1.58.07ZM368.6 304.5h1.55v1.81h-1.55zM370.89 304.5h1.55v1.81h-1.55zM369.81 302.42h1.45v1.69h-1.45zM375.18 309.65c-.09-.66-.18-1.31-.29-2l-1.77.08c.07.84.12 1.49.14 1.93s0 1 0 1.64v2.07h-1.13a1.2 1.2 0 0 1-.45-.09 1.28 1.28 0 0 1-.35-.19 5.69 5.69 0 0 0 .15-1.37v-3.3h-2v3.3a2.09 2.09 0 0 1-.31 1.19 1 1 0 0 1-.88.46h-.7v-5h-2v5h-4.79v-5.7h-2v7.79a2.26 2.26 0 0 1-.27 1.21.89.89 0 0 1-.81.43h-.52v1.81l1.1.06a2.07 2.07 0 0 0 1.88-1 5.16 5.16 0 0 0 .64-2.76H369a2.15 2.15 0 0 0 1.51-.55 2.62 2.62 0 0 0 .75.39 2.75 2.75 0 0 0 .95.16h3.11v-4.19c-.01-.24-.06-.71-.14-1.37ZM273.81 192.17v73.62l-.32.32-24.99 25V166.86l8.53 8.53 2.27 2.27 14.51 14.51zM304.98 166.85v124.26l-24.99-24.99-.53-.52v-73.23l.53-.52 24.99-25zM242.85 247.84v26.42l-34.19 9.16-16.64 4.46-35.68 9.56 34.06-34.07 2.01-2.01 9.65-2.59 40.79-10.93z"/><path d="m375.31 237.17-28.46 7.63h-.01l-59.9-59.9 18.04-18.05 49.49 49.49 20.84 20.83zM266.54 184.9 153.16 298.29l-28.47-7.62v-.01L248.5 166.85l18.04 18.05z"/></svg>