<svg version="1.1" id="Layer_1" xmlns="http://www.w3.org/2000/svg" x="0" y="0" viewBox="0 0 881.5 820.5" style="enable-background:new 0 0 881.5 820.5" xml:space="preserve"><style>.st1,.st3{opacity:.3}.st3{enable-background:new}.st3,.st5{fill:#0f054c}.st6,.st7{fill:#42e8e0}.st7{opacity:.4;enable-background:new}.st11{fill:#fff}.st27{fill:#393091}</style><radialGradient id="SVGID_1_" cx="462.37" cy="411.799" r="408.53" gradientTransform="matrix(1 0 0 -1 0 818.93)" gradientUnits="userSpaceOnUse"><stop offset="0" style="stop-color:#5385e5"/><stop offset=".08" style="stop-color:#4e7bd9;stop-opacity:.92"/><stop offset=".23" style="stop-color:#4162bb;stop-opacity:.72"/><stop offset=".44" style="stop-color:#2c398b;stop-opacity:.4"/><stop offset=".68" style="stop-color:#130851;stop-opacity:0"/></radialGradient><circle cx="471.2" cy="410.3" r="410.3" style="fill:url(#SVGID_1_)"/><g class="st1"><linearGradient id="SVGID_00000101064166122524402960000010631677750396375701_" gradientUnits="userSpaceOnUse" x1="477.221" y1="371.205" x2="636.992" y2="278.964" gradientTransform="matrix(1 0 0 -1 0 818.93)"><stop offset="0" style="stop-color:#bcbeff"/><stop offset=".23" style="stop-color:#aaadf7"/><stop offset=".68" style="stop-color:#7b82e5"/><stop offset="1" style="stop-color:#5761d7"/></linearGradient><path style="fill:url(#SVGID_00000101064166122524402960000010631677750396375701_)" d="M658.5 500.1v-17.5l-4.8-2.7c-1.4 8.3-11.1 13.7-19.3 14.9l-55.5 32.4-24.2 8.7-77.3-39.9 1.8-1c-6.6-3.1-10.2-10.1-13.7-16.6l-5.2 3.1-3.1.9v18c0 3.4 2.3 6.9 6.8 9.5l77.4 44.7c9.1 5.2 23.8 5.2 32.9 0l77.4-44.7c4.5-2.6 6.7-5.9 6.8-9.3.1-.2.1-.3 0-.5z"/><path class="st3" d="m634.4 494.8-55.5 32.5-21.1 7.6v23.7c6 0 11.9-1.3 16.4-3.9l77.4-44.7c4.5-2.6 6.7-5.9 6.8-9.3v-18l-4.4-2.5h-.5c-1.4 8-11 13.4-19.1 14.6z"/><linearGradient id="SVGID_00000090992265298615889090000005792874668344175278_" gradientUnits="userSpaceOnUse" x1="457.178" y1="336.354" x2="658.553" y2="336.354" gradientTransform="matrix(1 0 0 -1 0 818.93)"><stop offset="0" style="stop-color:#e9e9fd"/><stop offset=".36" style="stop-color:#d2d2f9"/><stop offset=".71" style="stop-color:#c4c3f6"/><stop offset="1" style="stop-color:#c0bff6"/></linearGradient><path style="fill:url(#SVGID_00000090992265298615889090000005792874668344175278_)" d="M541.4 536.8 464 492.1c-9.1-5.2-9.1-13.8 0-19l77.4-44.7c9.1-5.2 23.8-5.2 32.9 0l77.4 44.7c9.1 5.2 9.1 13.8 0 19l-77.4 44.7c-9.1 5.2-23.8 5.2-32.9 0z"/><g class="st1"><path class="st5" d="M541.4 536.8 464 492.1c-9.1-5.2-9.1-13.8 0-19l77.4-44.7c9.1-5.2 23.8-5.2 32.9 0l77.4 44.7c9.1 5.2 9.1 13.8 0 19l-77.4 44.7c-9.1 5.2-23.8 5.2-32.9 0z"/></g></g><path class="st6" d="M557.9 480.3c-5.3 0-10.6-1.2-14.6-3.5l-77.4-44.7c-4-2.3-6.2-5.5-6.2-8.8s2.2-6.5 6.2-8.8l77.4-44.7c8-4.6 21.1-4.6 29.2 0l77.4 44.7c4 2.3 6.2 5.5 6.2 8.8s-2.2 6.5-6.2 8.8l-77.4 44.7c-4.1 2.3-9.4 3.5-14.6 3.5zm-14-4.7c7.7 4.4 20.2 4.4 27.8 0l77.4-44.7c3.6-2.1 5.6-4.8 5.6-7.6s-2-5.6-5.6-7.6L571.7 371c-7.7-4.4-20.2-4.4-27.8 0l-77.4 44.7c-3.6 2.1-5.6 4.8-5.6 7.6s2 5.6 5.6 7.6l77.4 44.7z"/><path class="st7" d="M658.5 406.1v-26.5l-4.8-2.7c-1.4 8.3-11.1 13.7-19.3 14.9l-55.5 32.5-24.2 8.7-77.3-40 1.8-1c-6.6-3.1-10.2-10.1-13.7-16.6l-5.2 3.1-3.1.9v27c0 3.4 2.3 6.9 6.8 9.5l77.4 44.7c9.1 5.2 23.8 5.2 32.9 0l77.4-44.7c4.5-2.6 6.7-5.9 6.8-9.3.1-.2.1-.4 0-.5z"/><linearGradient id="SVGID_00000142860328409379689990000015387352781651027602_" gradientUnits="userSpaceOnUse" x1="477.221" y1="488.805" x2="636.992" y2="396.564" gradientTransform="matrix(1 0 0 -1 0 818.93)"><stop offset="0" style="stop-color:#bcbeff"/><stop offset=".23" style="stop-color:#aaadf7"/><stop offset=".68" style="stop-color:#7b82e5"/><stop offset="1" style="stop-color:#5761d7"/></linearGradient><path style="fill:url(#SVGID_00000142860328409379689990000015387352781651027602_)" d="M658.5 382.5V365l-4.8-2.7c-1.4 8.3-11.1 13.7-19.3 14.9l-55.5 32.5-24.2 8.7-77.3-39.9 1.8-1c-6.6-3.1-10.2-10.1-13.7-16.6l-5.2 3.1-3.1.9v18c0 3.4 2.3 6.9 6.8 9.5l77.4 44.7c9.1 5.2 23.8 5.2 32.9 0l77.4-44.7c4.5-2.6 6.7-5.9 6.8-9.3.1-.3.1-.4 0-.6z"/><path class="st3" d="m634.4 377.2-55.5 32.5-21.1 7.6V441c6 0 11.9-1.3 16.4-3.9l77.4-44.7c4.5-2.6 6.7-5.9 6.8-9.3V365l-4.4-2.5h-.5c-1.4 8.2-11 13.5-19.1 14.7z"/><linearGradient id="SVGID_00000089556933326429153990000013921686481101024900_" gradientUnits="userSpaceOnUse" x1="457.178" y1="453.944" x2="658.553" y2="453.944" gradientTransform="matrix(1 0 0 -1 0 818.93)"><stop offset="0" style="stop-color:#e9e9fd"/><stop offset=".36" style="stop-color:#d2d2f9"/><stop offset=".71" style="stop-color:#c4c3f6"/><stop offset="1" style="stop-color:#c0bff6"/></linearGradient><path style="fill:url(#SVGID_00000089556933326429153990000013921686481101024900_)" d="M541.4 419.2 464 374.5c-9.1-5.2-9.1-13.8 0-19l77.4-44.7c9.1-5.2 23.8-5.2 32.9 0l77.4 44.7c9.1 5.2 9.1 13.8 0 19l-77.4 44.7c-9.1 5.2-23.8 5.2-32.9 0z"/><path d="M557.9 409.8c-4.7 0-9.3-1-12.8-3.1l-58.6-33.8c-3.6-2.1-5.5-4.9-5.5-7.9s2-5.8 5.5-7.9l58.6-33.8c7.1-4.1 18.6-4.1 25.7 0l58.6 33.8c3.6 2.1 5.5 4.9 5.5 7.9s-2 5.8-5.5 7.9l-58.6 33.8c-3.7 2-8.3 3-12.9 3.1zm0-88c-4.4 0-8.7 1-12 2.9l-58.6 33.8c-3.1 1.8-4.8 4.1-4.8 6.5s1.7 4.7 4.8 6.5l58.6 33.8c6.6 3.8 17.5 3.8 24.1 0l58.6-33.8c3.1-1.8 4.8-4.1 4.8-6.5s-1.7-4.7-4.8-6.5L570 324.7c-3.4-2-7.8-2.9-12.1-2.9z" style="fill:#5351af"/><path class="st11" d="m651.7 374.5-77.4 44.7c-9.1 5.2-23.8 5.2-32.9 0L464 374.5c-4-2.3-6.3-5.3-6.7-8.4-.5 3.8 1.7 7.7 6.7 10.6l77.4 44.7c9.1 5.2 23.8 5.2 32.9 0l77.4-44.7c5-2.9 7.2-6.8 6.7-10.6-.4 3-2.6 6-6.7 8.4z"/><linearGradient id="SVGID_00000089558175223092948860000014815948988729322153_" gradientUnits="userSpaceOnUse" x1="365.26" y1="560.38" x2="904.84" y2="560.38" gradientTransform="rotate(180 458.585 409.465)"><stop offset="0" style="stop-color:#42e8e0"/><stop offset=".11" style="stop-color:#36b5bf"/><stop offset=".22" style="stop-color:#2c87a0"/><stop offset=".34" style="stop-color:#235f86"/><stop offset=".46" style="stop-color:#1b3e71"/><stop offset=".58" style="stop-color:#162560"/><stop offset=".71" style="stop-color:#121355"/><stop offset=".85" style="stop-color:#0f084e"/><stop offset="1" style="stop-color:#0f054c"/></linearGradient><path style="opacity:.5;fill:url(#SVGID_00000089558175223092948860000014815948988729322153_);enable-background:new" d="m551.9 187.4-33.4 19.3c-10 5.8-19 3.6-22.3-5.4L430.1 20.6c-7.5-20.6-38.4-2-44.9 27.2l-40.7 181.8c-3 13.3-12.2 26.5-22.6 32.6l-9.7 5.6c-9.5 5.5-18 3.9-21.7-4L277 235.3c-8.4-17.7-36.2-1-43.8 26.2-3.5 12.6-12.3 24.6-22.1 30.2l-8.5 4.9c-10.3 6-19.4 3.5-22.5-6l-12.3-37.7c-6.9-21.3-37.9-3.6-45 25.8L82.2 446.9c-3.2 13.2-12.4 26.2-22.8 32l-47 26.3 539.5-317.8z"/><path class="st6" d="m54.9 522.5-.5-1 40.4-22.6c10.3-5.8 19.3-18.5 22.5-31.6L158 299c5-20.7 21.2-35.1 33.2-35.5 6.2-.3 10.7 3.2 12.8 9.7l12.3 37.7c1.3 4 3.8 6.8 7.1 8.1 4.1 1.6 9.3.7 14.6-2.4l8.5-4.9c9.6-5.5 18.4-17.6 21.8-29.9 5.5-19.7 20.9-32.9 32-33.9 5.8-.5 10.3 2.2 12.8 7.6l13.5 28.5c1.5 3.2 3.9 5.4 7 6.4 4 1.2 8.9.3 14-2.6l9.7-5.6c10.2-5.9 19.5-19.2 22.4-32.2l40.7-181.8c4.6-20.4 21-35.5 33-36.3 6.2-.4 10.8 2.8 13 9.1l66.1 180.6c1.4 3.8 3.8 6.4 7 7.6 4 1.5 9.2.6 14.4-2.4l26.1-15.1.6 1-26.1 15.1c-5.6 3.2-11 4.1-15.4 2.5-3.5-1.3-6.2-4.1-7.7-8.2L465.2 41.3c-2.1-5.8-6.2-8.7-11.9-8.3-11.5.8-27.5 15.5-31.9 35.4l-40.7 181.8c-3 13.5-12.2 26.8-22.9 32.9l-9.7 5.6c-5.3 3.1-10.6 4-14.9 2.7-3.3-1-6-3.4-7.6-7L312.1 256c-2.4-5-6.4-7.4-11.7-6.9-10.7.9-25.6 13.8-31 33.1-3.5 12.6-12.5 24.9-22.3 30.6l-8.5 4.9c-5.6 3.3-11.2 4.1-15.6 2.5-3.6-1.4-6.3-4.4-7.7-8.8L203 273.5c-2-6.1-6-9.2-11.7-9-11.4.4-27.3 14.8-32.2 34.7l-40.7 168.3c-3.3 13.5-12.5 26.5-23.1 32.4l-40.4 22.6z"/><path transform="rotate(-60.112 442.28 23.638)" class="st6" d="M441.7 2.9h1.1v41.5h-1.1z"/><path class="st6" d="m308.2 251.1-36.4-21 .6-1 36.4 21z"/><path transform="rotate(-60.151 179.786 255.284)" class="st6" d="M179.2 233.4h1.1v43.8h-1.1z"/><path class="st6" d="M163.9 588.2c-3.4 0-6.8-.9-9.9-2.6l-100.3-56c-1.4-.8-2.2-2.2-2.2-3.8s.8-3 2.2-3.8l41-23c10.3-5.8 19.4-18.5 22.6-31.7L158.1 299c2.7-11.2 8.7-20.5 15.5-26.8l-6.2-19.1c-2-6.1-6.1-9.2-11.8-9-11.4.4-27.4 14.8-32.2 34.7L82.7 447c-3.2 13.4-12.5 26.4-23.1 32.3L.5 512.2l-.5-1 59.1-32.8c10.3-5.8 19.4-18.5 22.6-31.7l40.7-168.3c5-20.7 21.2-35.1 33.2-35.5 6.2-.3 10.7 3.2 12.8 9.7l6.1 18.7c5.6-4.9 11.6-7.7 16.8-7.9 6.2-.2 10.7 3.2 12.8 9.7l6 18.5.8-.5c9.6-5.5 18.4-17.6 21.8-29.9 5.5-19.7 20.9-32.9 31.9-33.9 5.8-.5 10.3 2.2 12.8 7.5l9 19.2c4.7-3.7 9.6-5.8 13.9-6.2 5.7-.5 10.3 2.2 12.8 7.5l4.1 8.7 4.4-2.5c10.3-5.9 19.5-19.2 22.4-32.2l40.7-181.8c4.6-20.4 21-35.5 32.9-36.3 6.1-.4 10.7 2.8 13 9.1l6.9 19c5.3-4.5 10.9-7.2 15.7-7.5 6.1-.4 10.7 2.8 13 9l59 161.2 22.6-13.1c2.5-1.4 5.6-1.4 8.1 0l24.8 14.2c1.6.9 2.6 2.6 2.6 4.5s-1 3.6-2.6 4.5l-26.3 15.2c-5.6 3.2-11 4.1-15.3 2.5-3.5-1.3-6.2-4.1-7.7-8.2l-6.7-18.3-6 3.4c-5.5 3.2-11 4.1-15.4 2.5-3.5-1.3-6.2-4.1-7.7-8.2L437 41.1c-7 6.4-13.2 16-15.7 27.2l-40.7 181.8c-3 13.5-12.2 26.8-22.9 32.9l-9.7 5.6c-5.3 3.1-10.6 4-14.8 2.7-3.3-1-6-3.4-7.6-6.9l-8.9-18.8-4.4 2.5c-5.3 3.1-10.6 4-14.8 2.7-3.3-1-6-3.4-7.6-6.9l-3.9-8.2c-7 5.8-13.5 14.9-16.7 26.3-3.5 12.6-12.5 24.9-22.3 30.5l-8.5 4.9c-5.6 3.3-11.2 4.1-15.6 2.5-3.6-1.4-6.3-4.4-7.7-8.8l-5.9-18-6.6 3.8c-5.6 3.3-11.2 4.1-15.6 2.4-3.6-1.4-6.3-4.4-7.7-8.8l-5.6-17.4c-6.6 6.2-12.3 15.2-14.9 25.9l-40.7 168.3c-3.3 13.4-12.5 26.4-23.1 32.3l-41 22.9c-1.1.6-1.7 1.7-1.7 2.9s.6 2.3 1.7 2.9l100.3 56c5.9 3.3 13.2 3.3 19.1-.2l169-100 .5.9-169 99.9c-3 2.3-6.5 3.2-10.1 3.3zm46.5-295.5 5.9 18.2c1.3 4 3.8 6.9 7.1 8.1 4.1 1.6 9.3.7 14.7-2.4l8.5-4.9c9.6-5.5 18.4-17.6 21.8-29.9 3.3-11.7 10-21.1 17.2-27l-9.1-19.4c-2.4-5-6.4-7.4-11.8-6.9-10.7.9-25.7 13.8-31 33.1-3.5 12.6-12.5 24.9-22.3 30.5l-1 .6zm-35.6-20.1 5.8 17.8c1.3 4 3.8 6.9 7.1 8.1 4.1 1.6 9.3.7 14.7-2.4l6.8-3.9-6.1-18.7c-2-6.1-6.1-9.1-11.8-9-5 .2-11 3.1-16.5 8.1zm142.9-7.4 8.9 18.9c1.5 3.2 3.9 5.4 7 6.4 4 1.2 8.9.3 14-2.6l9.7-5.6c10.3-5.9 19.5-19.2 22.4-32.2l40.7-181.8c2.6-11.6 9.1-21.5 16.3-28L429.6 21c-2.1-5.8-6.2-8.7-12-8.4-11.5.8-27.5 15.5-32 35.5L345 229.7c-3 13.5-12.2 26.8-22.9 32.9l-4.4 2.6zm-30.8-10.1 4 8.4c1.5 3.2 3.9 5.4 7 6.4 4 1.2 8.9.3 14-2.6l4.5-2.6-4.1-8.8c-2.4-5-6.4-7.4-11.8-6.9-4.2.4-9 2.5-13.6 6.1zm238.7-52 6.8 18.4c1.4 3.8 3.8 6.4 7.1 7.6 4 1.5 9.2.6 14.5-2.4l26.3-15.2c1.3-.8 2.1-2.1 2.1-3.6s-.8-2.9-2.1-3.6L555.5 190a6.95 6.95 0 0 0-7.1 0l-22.8 13.1zM437.9 40.4 496.7 201c1.4 3.8 3.8 6.4 7.1 7.6 4 1.5 9.2.6 14.5-2.4l6.1-3.5-59-161.4c-2.1-5.8-6.3-8.8-12-8.4-4.8.3-10.4 3-15.5 7.5z"/><linearGradient id="SVGID_00000078024982531533311150000011907259370092767931_" gradientUnits="userSpaceOnUse" x1="336.91" y1="540.38" x2="869.14" y2="540.38" gradientTransform="rotate(180 458.585 409.465)"><stop offset="0" style="stop-color:#42e8e0"/><stop offset=".11" style="stop-color:#36b5bf"/><stop offset=".22" style="stop-color:#2c87a0"/><stop offset=".34" style="stop-color:#235f86"/><stop offset=".46" style="stop-color:#1b3e71"/><stop offset=".58" style="stop-color:#162560"/><stop offset=".71" style="stop-color:#121355"/><stop offset=".85" style="stop-color:#0f084e"/><stop offset="1" style="stop-color:#0f054c"/></linearGradient><path style="opacity:.5;fill:url(#SVGID_00000078024982531533311150000011907259370092767931_);enable-background:new" d="m580.3 211.6-26.1 15.1c-10 5.8-19 3.6-22.3-5.4L465.8 40.6c-7.5-20.6-38.4-2-44.9 27.2l-40.7 181.8c-3 13.3-12.2 26.5-22.6 32.6l-9.7 5.6c-9.5 5.5-18 3.9-21.7-4l-13.5-28.5c-8.4-17.7-36.2-1-43.8 26.2-3.5 12.6-12.3 24.6-22.1 30.2l-8.5 4.9c-10.3 6-19.4 3.5-22.5-6l-12.3-37.7c-6.9-21.3-37.9-3.6-45 25.8L117.8 467c-3.2 13.2-12.4 26.2-22.8 32l-47 26.3 532.3-313.7z"/><g class="st1"><linearGradient id="SVGID_00000023993610713510537940000001726890468471611048_" gradientUnits="userSpaceOnUse" x1="312.128" y1="278.914" x2="472.078" y2="186.574" gradientTransform="matrix(1 0 0 -1 0 818.93)"><stop offset="0" style="stop-color:#bcbeff"/><stop offset=".23" style="stop-color:#aaadf7"/><stop offset=".68" style="stop-color:#7b82e5"/><stop offset="1" style="stop-color:#5761d7"/></linearGradient><path style="fill:url(#SVGID_00000023993610713510537940000001726890468471611048_)" d="M493.7 592.5v-17.6l-4.9-2.7c-1.4 8.3-11.1 13.8-19.3 14.9L414 619.6l-24.2 8.8-77.4-39.9 1.8-1c-6.6-3.1-10.2-10.2-13.8-16.6l-5.2 3.1-3.1.9v18c0 3.4 2.3 6.9 6.8 9.5l77.5 44.8c9.1 5.2 23.9 5.2 32.9 0l77.5-44.8c4.5-2.6 6.7-6 6.8-9.3.1-.3.1-.5.1-.6z"/><path class="st3" d="M469.5 587.1 414 619.6l-21.1 7.6V651c6 0 11.9-1.3 16.5-3.9l77.5-44.8c4.5-2.6 6.7-6 6.8-9.3v-18.1l-4.4-2.5h-.5c-1.5 8.2-11.2 13.6-19.3 14.7z"/><linearGradient id="SVGID_00000065758105676105415150000016669630896424382871_" gradientUnits="userSpaceOnUse" x1="292.06" y1="244.014" x2="493.66" y2="244.014" gradientTransform="matrix(1 0 0 -1 0 818.93)"><stop offset="0" style="stop-color:#e9e9fd"/><stop offset=".36" style="stop-color:#d2d2f9"/><stop offset=".71" style="stop-color:#c4c3f6"/><stop offset="1" style="stop-color:#c0bff6"/></linearGradient><path style="fill:url(#SVGID_00000065758105676105415150000016669630896424382871_)" d="m376.4 629.2-77.5-44.8c-9.1-5.2-9.1-13.8 0-19l77.5-44.8c9.1-5.2 23.9-5.2 32.9 0l77.5 44.8c9.1 5.2 9.1 13.8 0 19l-77.5 44.8c-9.1 5.2-23.8 5.2-32.9 0z"/><g class="st1"><path class="st5" d="m376.4 629.2-77.5-44.8c-9.1-5.2-9.1-13.8 0-19l77.5-44.8c9.1-5.2 23.9-5.2 32.9 0l77.5 44.8c9.1 5.2 9.1 13.8 0 19l-77.5 44.8c-9.1 5.2-23.8 5.2-32.9 0z"/></g></g><path class="st6" d="M392.9 575.5c-5.3 0-10.6-1.2-14.6-3.5l-77.5-44.8c-4-2.3-6.2-5.5-6.2-8.8s2.2-6.5 6.2-8.8l77.5-44.8c8-4.6 21.2-4.6 29.2 0l77.5 44.8c4 2.3 6.2 5.5 6.2 8.8s-2.2 6.5-6.2 8.8L407.5 572c-4 2.4-9.3 3.5-14.6 3.5zm-14-4.6c7.7 4.4 20.2 4.4 27.9 0l77.5-44.8c3.6-2.1 5.6-4.8 5.6-7.7s-2-5.6-5.6-7.6L406.8 466c-7.7-4.4-20.2-4.4-27.9 0l-77.5 44.8c-3.6 2.1-5.6 4.8-5.6 7.6 0 2.9 2 5.6 5.6 7.7l77.5 44.8z"/><path class="st7" d="M493.7 501.3v-26.5l-4.9-2.7c-1.4 8.3-11.1 13.8-19.3 14.9L414 519.4l-24.2 8.8-77.4-39.9 1.8-1c-6.6-3.1-10.2-10.2-13.8-16.6l-5.2 3.1-3.1.9v27c0 3.4 2.3 6.9 6.8 9.5l77.5 44.8c9.1 5.2 23.9 5.2 32.9 0l77.5-44.8c4.5-2.6 6.7-6 6.8-9.3.1-.3.1-.4.1-.6z"/><linearGradient id="SVGID_00000056392809057427194400000014109597034684098696_" gradientUnits="userSpaceOnUse" x1="312.133" y1="393.707" x2="472.074" y2="301.362" gradientTransform="matrix(1 0 0 -1 0 818.93)"><stop offset="0" style="stop-color:#bcbeff"/><stop offset=".23" style="stop-color:#aaadf7"/><stop offset=".68" style="stop-color:#7b82e5"/><stop offset="1" style="stop-color:#5761d7"/></linearGradient><path style="fill:url(#SVGID_00000056392809057427194400000014109597034684098696_)" d="M493.7 477.7v-17.6l-4.9-2.7c-1.4 8.3-11.1 13.8-19.3 14.9L414 504.8l-24.2 8.8-77.4-39.9 1.8-1c-6.6-3.1-10.2-10.2-13.8-16.6l-5.2 3.1-3.1.9v18c0 3.4 2.3 6.9 6.8 9.5l77.5 44.8c9.1 5.2 23.9 5.2 32.9 0l77.5-44.8c4.5-2.6 6.7-6 6.8-9.3.1-.3.1-.5.1-.6z"/><path class="st3" d="M469.5 472.3 414 504.8l-21.1 7.6v23.8c6 0 11.9-1.3 16.5-3.9l77.5-44.8c4.5-2.6 6.7-6 6.8-9.3v-18.1l-4.4-2.5h-.5c-1.5 8.2-11.2 13.6-19.3 14.7z"/><linearGradient id="SVGID_00000165197447212804403850000003726684873316655522_" gradientUnits="userSpaceOnUse" x1="321.722" y1="399.939" x2="464.358" y2="317.582" gradientTransform="matrix(1 0 0 -1 0 818.93)"><stop offset=".24" style="stop-color:#5761d7"/><stop offset=".39" style="stop-color:#7a81e5"/><stop offset=".55" style="stop-color:#979bf0"/><stop offset=".7" style="stop-color:#abaef8"/><stop offset=".85" style="stop-color:#b7bafd"/><stop offset="1" style="stop-color:#bcbeff"/></linearGradient><path style="fill:url(#SVGID_00000165197447212804403850000003726684873316655522_)" d="m314.1 472.6 73.5-42.4c2.9-1.7 7.6-1.7 10.5 0l72.2 41.7-.8.5c8.2-1.1 17.9-6.6 19.3-14.9l-81-45.1-23.6-6.2-19.2 11.2-64.6 38.6c3.5 6.4 7.1 13.5 13.7 16.6z"/><path class="st3" d="m392.9 408.4-8.6-2.3-19.3 11.3-64.6 38.6c3.6 6.5 7.1 13.5 13.8 16.6l73.5-42.4c1.5-.8 3.4-1.3 5.3-1.3l-.1-20.5z"/><linearGradient id="SVGID_00000033360709129110859730000015566345382588591792_" gradientUnits="userSpaceOnUse" x1="292.06" y1="358.804" x2="493.66" y2="358.804" gradientTransform="matrix(1 0 0 -1 0 818.93)"><stop offset="0" style="stop-color:#e9e9fd"/><stop offset=".36" style="stop-color:#d2d2f9"/><stop offset=".71" style="stop-color:#c4c3f6"/><stop offset="1" style="stop-color:#c0bff6"/></linearGradient><path style="fill:url(#SVGID_00000033360709129110859730000015566345382588591792_)" d="m376.4 514.4-77.5-44.8c-9.1-5.2-9.1-13.8 0-19l77.5-44.8c9.1-5.2 23.9-5.2 32.9 0l77.5 44.8c9.1 5.2 9.1 13.8 0 19l-77.5 44.8c-9.1 5.2-23.8 5.2-32.9 0zm21.7-102.1c-2.9-1.7-7.6-1.7-10.5 0l-77.5 44.8c-2.9 1.7-2.9 4.4 0 6.1l77.5 44.8c2.9 1.7 7.6 1.7 10.5 0l77.5-44.8c2.9-1.7 2.9-4.4 0-6.1l-77.5-44.8z"/><path class="st11" d="m475.7 457.1-77.5-44.8c-2.9-1.7-7.6-1.7-10.5 0l-77.5 44.8c-1.9 1.1-2.6 2.7-1.9 4.1.3-.7 1-1.4 1.9-2l77.5-44.8c2.9-1.7 7.6-1.7 10.5 0l77.5 44.8c1 .6 1.6 1.2 1.9 2 .6-1.4 0-3-1.9-4.1z"/><path class="st11" d="m486.9 469.6-77.5 44.8c-9.1 5.2-23.9 5.2-32.9 0L299 469.6c-4.1-2.3-6.3-5.3-6.7-8.4-.5 3.8 1.7 7.7 6.7 10.6l77.5 44.8c9.1 5.2 23.9 5.2 32.9 0l77.5-44.8c5-2.9 7.3-6.8 6.7-10.6-.4 3.1-2.7 6.1-6.7 8.4z"/><linearGradient id="SVGID_00000126320346887328502800000013038691791097574561_" gradientUnits="userSpaceOnUse" x1="295.158" y1="358.799" x2="490.572" y2="358.799" gradientTransform="matrix(1 0 0 -1 0 818.93)"><stop offset="0" style="stop-color:#e9e9fd"/><stop offset=".36" style="stop-color:#d2d2f9"/><stop offset=".71" style="stop-color:#c4c3f6"/><stop offset="1" style="stop-color:#c0bff6"/></linearGradient><path style="fill:url(#SVGID_00000126320346887328502800000013038691791097574561_)" d="m378.6 513.1-77.5-44.8c-7.9-4.5-7.9-11.9 0-16.5l77.5-44.8c7.9-4.5 20.7-4.5 28.5 0l77.5 44.8c7.9 4.5 7.9 11.9 0 16.5l-77.5 44.8c-7.8 4.6-20.6 4.6-28.5 0zm21.7-102c-4.1-2.4-10.8-2.4-14.9 0l-77.5 44.8c-4.1 2.4-4.1 6.2 0 8.6l77.5 44.8c4.1 2.4 10.8 2.4 14.9 0l77.5-44.8c4.1-2.4 4.1-6.2 0-8.6l-77.5-44.8z"/><path class="st7" d="M398.1 412.3c-2.9-1.7-7.6-1.7-10.5 0l-77.5 44.8c-2.9 1.7-2.9 4.4 0 6.1l77.5 44.8c2.9 1.7 7.6 1.7 10.5 0l77.5-44.8c2.9-1.7 2.9-4.4 0-6.1l-77.5-44.8z"/><linearGradient id="SVGID_00000096753366579841698970000012193925888927363504_" gradientUnits="userSpaceOnUse" x1="392.855" y1="309.749" x2="392.855" y2="635.369" gradientTransform="matrix(1 0 0 -1 0 818.93)"><stop offset="0" style="stop-color:#42e8e0"/><stop offset="0" style="stop-color:#41e6df;stop-opacity:.99"/><stop offset=".11" style="stop-color:#35b2bd;stop-opacity:.76"/><stop offset=".23" style="stop-color:#2b849f;stop-opacity:.56"/><stop offset=".34" style="stop-color:#225d85;stop-opacity:.39"/><stop offset=".46" style="stop-color:#1b3d70;stop-opacity:.25"/><stop offset=".59" style="stop-color:#162460;stop-opacity:.14"/><stop offset=".71" style="stop-color:#121255;stop-opacity:6.000000e-02"/><stop offset=".85" style="stop-color:#0f084e;stop-opacity:1.000000e-02"/><stop offset="1" style="stop-color:#0f054c;stop-opacity:0"/></linearGradient><path style="opacity:.5;fill:url(#SVGID_00000096753366579841698970000012193925888927363504_);enable-background:new" d="M477.8 460.1V183.6H307.9v276.5c0 1.1.7 2.2 2.2 3.1l77.5 44.8c2.9 1.7 7.6 1.7 10.5 0l77.5-44.8c1.5-.9 2.3-2 2.2-3.1z"/><radialGradient id="SVGID_00000065784717765615615150000005010438280883248568_" cx="-2862.39" cy="3870.871" r="47.7" gradientTransform="matrix(.6573 .6437 1.0565 -1.0789 -1883.302 6353.19)" gradientUnits="userSpaceOnUse"><stop offset="0" style="stop-color:#c0bff6"/><stop offset="1" style="stop-color:#393091"/></radialGradient><path style="fill:url(#SVGID_00000065784717765615615150000005010438280883248568_)" d="M312.8 372.4c-8.3 8.4-30 19.7-36.8 13.1-6.7-6.6 4.1-28.6 12.3-37s20.4-9.9 27.2-3.3c6.8 6.5 5.5 18.7-2.7 27.2z"/><linearGradient id="SVGID_00000144303303121147092900000013561345669723099264_" gradientUnits="userSpaceOnUse" x1="-3147.804" y1="1376.184" x2="-3170.134" y2="1346.364" gradientTransform="matrix(.6573 .6437 .8046 -.8216 1276.642 3515.571)"><stop offset="0" style="stop-color:#42e8e0"/><stop offset="0" style="stop-color:#41e6df"/><stop offset=".14" style="stop-color:#3fb6ca"/><stop offset=".27" style="stop-color:#3d8cb8"/><stop offset=".41" style="stop-color:#3b6baa"/><stop offset=".55" style="stop-color:#3a519f"/><stop offset=".69" style="stop-color:#393e97"/><stop offset=".84" style="stop-color:#393392"/><stop offset="1" style="stop-color:#393091"/></linearGradient><path style="fill:url(#SVGID_00000144303303121147092900000013561345669723099264_)" d="M312.8 372.4c-8.3 8.4-30 19.7-36.8 13.1-6.7-6.6 4.1-28.6 12.3-37s20.4-9.9 27.2-3.3c6.8 6.5 5.5 18.7-2.7 27.2z"/><path class="st6" d="M313.7 349.5c-.5 0-1-.1-1.5-.3-2-.8-3-3.2-2.1-5.2l12.3-29.3c.8-2 3.2-3 5.2-2.1 2 .8 3 3.2 2.1 5.2L317.4 347c-.6 1.5-2.1 2.5-3.7 2.5z"/><path transform="rotate(-22.028 478.676 371.654)" class="st6" d="M474.7 337.8h7.9v67.8h-7.9z"/><radialGradient id="SVGID_00000160879326273230439680000013144863224196805002_" cx="-115.374" cy="1180.805" r="142.45" gradientTransform="scale(1 -1) rotate(-11.198 -6987.95 -2415.145)" gradientUnits="userSpaceOnUse"><stop offset="0" style="stop-color:#c0bff6"/><stop offset="1" style="stop-color:#393091"/></radialGradient><path style="fill:url(#SVGID_00000160879326273230439680000013144863224196805002_)" d="M358.3 305.9c-2.6 13.4-15.6 22.1-29 19.4-13.4-2.6-22.1-15.6-19.4-29 2.6-13.4 15.6-22.1 29-19.4 13.4 2.7 22.1 15.7 19.4 29z"/><linearGradient id="SVGID_00000013874866088704332520000008926640857754210975_" gradientUnits="userSpaceOnUse" x1="-475.734" y1="-1083.41" x2="-426.38" y2="-1083.41" gradientTransform="scale(1 -1) rotate(57.508 -771.325 23.273)"><stop offset="0" style="stop-color:#42e8e0"/><stop offset="0" style="stop-color:#41e6df"/><stop offset=".14" style="stop-color:#3fb6ca"/><stop offset=".27" style="stop-color:#3d8cb8"/><stop offset=".41" style="stop-color:#3b6baa"/><stop offset=".55" style="stop-color:#3a519f"/><stop offset=".69" style="stop-color:#393e97"/><stop offset=".84" style="stop-color:#393392"/><stop offset="1" style="stop-color:#393091"/></linearGradient><path style="fill:url(#SVGID_00000013874866088704332520000008926640857754210975_)" d="M347.4 280.3c11.5 7.3 14.9 22.6 7.6 34.1-7.3 11.5-22.6 14.9-34.1 7.6-11.5-7.3-14.9-22.6-7.6-34.1 7.3-11.5 22.6-14.9 34.1-7.6z"/><radialGradient id="SVGID_00000163064049630197344270000014093095484224152511_" cx="1398.198" cy="351.627" r="140.73" gradientTransform="matrix(.78 0 0 -1.06 -656.8 706.055)" gradientUnits="userSpaceOnUse"><stop offset="0" style="stop-color:#c0bff6"/><stop offset="1" style="stop-color:#393091"/></radialGradient><path style="fill:url(#SVGID_00000163064049630197344270000014093095484224152511_)" d="M457.2 346c0 47.9-28.5 86.7-63.7 86.7s-63.7-38.8-63.7-86.7 28.5-62.3 63.7-62.3 63.7 14.4 63.7 62.3z"/><linearGradient id="SVGID_00000164496416668709280060000002849754041161711773_" gradientUnits="userSpaceOnUse" x1="1346.487" y1="257.467" x2="1346.487" y2="398.033" gradientTransform="matrix(.78 0 0 -1.06 -656.8 706.055)"><stop offset="0" style="stop-color:#42e8e0"/><stop offset="0" style="stop-color:#41e6df"/><stop offset=".14" style="stop-color:#3fb6ca"/><stop offset=".27" style="stop-color:#3d8cb8"/><stop offset=".41" style="stop-color:#3b6baa"/><stop offset=".55" style="stop-color:#3a519f"/><stop offset=".69" style="stop-color:#393e97"/><stop offset=".84" style="stop-color:#393392"/><stop offset="1" style="stop-color:#393091"/></linearGradient><path style="fill:url(#SVGID_00000164496416668709280060000002849754041161711773_)" d="M457.2 346c0 47.9-28.5 86.7-63.7 86.7s-63.7-38.8-63.7-86.7 28.5-62.3 63.7-62.3 63.7 14.4 63.7 62.3z"/><path class="st27" d="M424.2 327.2c-17 9.8-44.5 9.8-61.5 0s-17-25.7 0-35.5 44.5-9.8 61.5 0 17 25.7 0 35.5z"/><path class="st6" d="M362.7 298.4c17-9.8 44.5-9.8 61.5 0 7 4 11.1 9.1 12.3 14.4 1.7-7.5-2.4-15.3-12.3-21.1-17-9.8-44.5-9.8-61.5 0-10 5.8-14.1 13.6-12.3 21.1 1.2-5.3 5.3-10.4 12.3-14.4z"/><path d="M374.5 216.7c0 11.7-8.2 25.9-18.3 31.8s-18.3 1.1-18.3-10.6 8.2-25.9 18.3-31.8 18.3-1.1 18.3 10.6z" style="fill:#bcbeff"/><radialGradient id="SVGID_00000011024753855111755770000015574308781324104894_" cx="436.55" cy="579.029" r="109.84" gradientTransform="matrix(1 0 0 -1 0 818.93)" gradientUnits="userSpaceOnUse"><stop offset="0" style="stop-color:#c0bff6"/><stop offset="1" style="stop-color:#393091"/></radialGradient><circle style="fill:url(#SVGID_00000011024753855111755770000015574308781324104894_)" cx="396" cy="249.5" r="65"/><linearGradient id="SVGID_00000006684743308117199420000013505944749212491411_" gradientUnits="userSpaceOnUse" x1="386.944" y1="505.034" x2="405.036" y2="633.765" gradientTransform="matrix(1 0 0 -1 0 818.93)"><stop offset="0" style="stop-color:#42e8e0"/><stop offset="0" style="stop-color:#41e6df"/><stop offset=".14" style="stop-color:#3fb6ca"/><stop offset=".27" style="stop-color:#3d8cb8"/><stop offset=".41" style="stop-color:#3b6baa"/><stop offset=".55" style="stop-color:#3a519f"/><stop offset=".69" style="stop-color:#393e97"/><stop offset=".84" style="stop-color:#393392"/><stop offset="1" style="stop-color:#393091"/></linearGradient><circle style="fill:url(#SVGID_00000006684743308117199420000013505944749212491411_)" cx="396" cy="249.5" r="65"/><path class="st27" d="M375.7 280.3c-1.7 12.8-11.3 16.8-21.5 9-10.2-7.8-17.2-24.5-15.5-37.3s11.3-16.8 21.5-9c10.2 7.8 17.2 24.5 15.5 37.3z"/><path class="st6" d="M367.3 269.2c-.6 4.6-4.1 6.1-7.8 3.3s-6.2-8.9-5.6-13.6c.6-4.6 4.1-6.1 7.8-3.3s6.2 9 5.6 13.6z"/><path d="M359.1 287.4c-10.2-7.8-17.2-24.5-15.5-37.3.7-5.2 2.7-9 5.5-11.1-5.4.5-9.4 5-10.4 12.9-1.7 12.8 5.3 29.5 15.5 37.3 6.1 4.6 11.9 5.1 16 2.1-3.3.4-7.2-.9-11.1-3.9z" style="fill:#453c9e"/><path class="st6" d="M355.1 288.9c-10.2-7.8-17.2-24.5-15.5-37.3.8-5.9 3.2-9.9 6.7-11.8-3.9 1.6-6.8 5.8-7.6 12.2-1.7 12.8 5.3 29.5 15.5 37.3 5.5 4.2 10.8 5 14.8 2.8-3.9 1.6-8.8.7-13.9-3.2z"/><radialGradient id="SVGID_00000180336774500276434690000006587011514585797275_" cx="-67.713" cy="1086.455" r="51.48" gradientTransform="scale(1 -1) rotate(-11.198 -6987.95 -2415.145)" gradientUnits="userSpaceOnUse"><stop offset="0" style="stop-color:#c0bff6"/><stop offset="1" style="stop-color:#393091"/></radialGradient><path style="fill:url(#SVGID_00000180336774500276434690000006587011514585797275_)" d="M490.2 345c-2.6 13.4-15.6 22.1-29 19.4-13.4-2.6-22.1-15.6-19.4-29 2.6-13.4 15.6-22.1 29-19.4 13.3 2.7 22 15.6 19.4 29z"/><linearGradient id="SVGID_00000026843556283084097650000015442650888322270622_" gradientUnits="userSpaceOnUse" x1="-95.704" y1="1049.713" x2="-62.177" y2="1085.929" gradientTransform="scale(1 -1) rotate(-11.198 -6987.95 -2415.145)"><stop offset="0" style="stop-color:#42e8e0"/><stop offset="0" style="stop-color:#41e6df"/><stop offset=".14" style="stop-color:#3fb6ca"/><stop offset=".27" style="stop-color:#3d8cb8"/><stop offset=".41" style="stop-color:#3b6baa"/><stop offset=".55" style="stop-color:#3a519f"/><stop offset=".69" style="stop-color:#393e97"/><stop offset=".84" style="stop-color:#393392"/><stop offset="1" style="stop-color:#393091"/></linearGradient><path style="fill:url(#SVGID_00000026843556283084097650000015442650888322270622_)" d="M490.2 345c-2.6 13.4-15.6 22.1-29 19.4-13.4-2.6-22.1-15.6-19.4-29 2.6-13.4 15.6-22.1 29-19.4 13.3 2.7 22 15.6 19.4 29z"/><radialGradient id="SVGID_00000008139287591806216950000004952414074768291746_" cx="632.432" cy="2459.175" r="47.7" gradientTransform="matrix(.9135 .1089 .1788 -1.4994 -504.643 4023.68)" gradientUnits="userSpaceOnUse"><stop offset="0" style="stop-color:#c0bff6"/><stop offset="1" style="stop-color:#393091"/></radialGradient><path style="fill:url(#SVGID_00000008139287591806216950000004952414074768291746_)" d="M505.3 422c-1.4 11.7-11.8 33.9-21.1 32.8s-14.2-25.1-12.8-36.9c1.4-11.7 10.1-20.3 19.5-19.2 9.4 1.2 15.8 11.6 14.4 23.3z"/><linearGradient id="SVGID_00000080204095191201240740000013010938284672488842_" gradientUnits="userSpaceOnUse" x1="378.372" y1="393.914" x2="415.622" y2="393.914" gradientTransform="matrix(.9135 .1089 .1362 -1.1419 72.254 833.46)"><stop offset="0" style="stop-color:#42e8e0"/><stop offset="0" style="stop-color:#41e6df"/><stop offset=".14" style="stop-color:#3fb6ca"/><stop offset=".27" style="stop-color:#3d8cb8"/><stop offset=".41" style="stop-color:#3b6baa"/><stop offset=".55" style="stop-color:#3a519f"/><stop offset=".69" style="stop-color:#393e97"/><stop offset=".84" style="stop-color:#393392"/><stop offset="1" style="stop-color:#393091"/></linearGradient><path style="fill:url(#SVGID_00000080204095191201240740000013010938284672488842_)" d="M505.3 422c-1.4 11.7-11.8 33.9-21.1 32.8s-14.2-25.1-12.8-36.9c1.4-11.7 10.1-20.3 19.5-19.2 9.4 1.2 15.8 11.6 14.4 23.3z"/><g class="st1"><linearGradient id="SVGID_00000085240256251657719950000000483944277104759456_" gradientUnits="userSpaceOnUse" x1="477.221" y1="179.565" x2="636.992" y2="87.324" gradientTransform="matrix(1 0 0 -1 0 818.93)"><stop offset="0" style="stop-color:#bcbeff"/><stop offset=".23" style="stop-color:#aaadf7"/><stop offset=".68" style="stop-color:#7b82e5"/><stop offset="1" style="stop-color:#5761d7"/></linearGradient><path style="fill:url(#SVGID_00000085240256251657719950000000483944277104759456_)" d="M658.5 691.8v-17.5l-4.8-2.7c-1.4 8.3-11.1 13.7-19.3 14.9L578.9 719l-24.2 8.7-77.3-39.9 1.8-1c-6.6-3.1-10.2-10.1-13.7-16.6l-5.2 3.1-3.1.9v18c0 3.4 2.3 6.9 6.8 9.5l77.4 44.7c9.1 5.2 23.8 5.2 32.9 0l77.4-44.7c4.5-2.6 6.7-5.9 6.8-9.3.1-.3.1-.5 0-.6z"/><path class="st3" d="m634.4 686.4-55.5 32.5-21.1 7.6v23.7c6 0 11.9-1.3 16.4-3.9l77.4-44.7c4.5-2.6 6.7-5.9 6.8-9.3v-18l-4.4-2.5h-.5c-1.4 8.1-11 13.5-19.1 14.6z"/><linearGradient id="SVGID_00000167379306861284321560000014868764093859386009_" gradientUnits="userSpaceOnUse" x1="457.178" y1="144.704" x2="658.553" y2="144.704" gradientTransform="matrix(1 0 0 -1 0 818.93)"><stop offset="0" style="stop-color:#e9e9fd"/><stop offset=".36" style="stop-color:#d2d2f9"/><stop offset=".71" style="stop-color:#c4c3f6"/><stop offset="1" style="stop-color:#c0bff6"/></linearGradient><path style="fill:url(#SVGID_00000167379306861284321560000014868764093859386009_)" d="M541.4 728.4 464 683.7c-9.1-5.2-9.1-13.8 0-19l77.4-44.7c9.1-5.2 23.8-5.2 32.9 0l77.4 44.7c9.1 5.2 9.1 13.8 0 19l-77.4 44.7c-9.1 5.3-23.8 5.3-32.9 0z"/><g class="st1"><path class="st5" d="M541.4 728.4 464 683.7c-9.1-5.2-9.1-13.8 0-19l77.4-44.7c9.1-5.2 23.8-5.2 32.9 0l77.4 44.7c9.1 5.2 9.1 13.8 0 19l-77.4 44.7c-9.1 5.3-23.8 5.3-32.9 0z"/></g></g><path class="st6" d="M557.9 671.9c-5.3 0-10.6-1.2-14.6-3.5l-77.4-44.7c-4-2.3-6.2-5.5-6.2-8.8s2.2-6.5 6.2-8.8l77.4-44.7c8-4.7 21.1-4.7 29.2 0l77.4 44.7c4 2.3 6.2 5.5 6.2 8.8s-2.2 6.5-6.2 8.8l-77.4 44.7c-4.1 2.4-9.4 3.5-14.6 3.5zm0-112.7c-5 0-10.1 1.1-13.9 3.3l-77.4 44.7c-3.6 2.1-5.6 4.8-5.6 7.6s2 5.6 5.6 7.7l77.4 44.7c7.7 4.4 20.2 4.4 27.8 0l77.4-44.7c3.6-2.1 5.6-4.8 5.6-7.6s-2-5.6-5.6-7.6l-77.4-44.7c-3.8-2.2-8.9-3.4-13.9-3.4z"/><path class="st7" d="M658.5 597.8v-26.5l-4.8-2.7c-1.4 8.3-11.1 13.7-19.3 14.9L578.9 616l-24.2 8.7-77.3-39.9 1.8-1c-6.6-3.1-10.2-10.1-13.7-16.6l-5.2 3.1-3.1.9v27c0 3.4 2.3 6.9 6.8 9.5l77.4 44.7c9.1 5.2 23.8 5.2 32.9 0l77.4-44.7c4.5-2.6 6.7-5.9 6.8-9.3.1-.4.1-.5 0-.6z"/><linearGradient id="SVGID_00000144325532056423912440000008091935337562199712_" gradientUnits="userSpaceOnUse" x1="477.221" y1="297.155" x2="636.992" y2="204.914" gradientTransform="matrix(1 0 0 -1 0 818.93)"><stop offset="0" style="stop-color:#bcbeff"/><stop offset=".23" style="stop-color:#aaadf7"/><stop offset=".68" style="stop-color:#7b82e5"/><stop offset="1" style="stop-color:#5761d7"/></linearGradient><path style="fill:url(#SVGID_00000144325532056423912440000008091935337562199712_)" d="M658.5 574.2v-17.5l-4.8-2.7c-1.4 8.3-11.1 13.7-19.3 14.9l-55.5 32.5-24.2 8.7-77.3-39.9 1.8-1c-6.6-3.1-10.2-10.1-13.7-16.6l-5.2 3.1-3.1.9v18c0 3.4 2.3 6.9 6.8 9.5l77.4 44.7c9.1 5.2 23.8 5.2 32.9 0l77.4-44.7c4.5-2.6 6.7-5.9 6.8-9.3.1-.3.1-.5 0-.6z"/><path class="st3" d="m634.4 568.8-55.5 32.5-21.1 7.6v23.7c6 0 11.9-1.3 16.4-3.9l77.4-44.7c4.5-2.6 6.7-5.9 6.8-9.3v-18l-4.4-2.5h-.5c-1.4 8.1-11 13.5-19.1 14.6z"/><linearGradient id="SVGID_00000013163772190292163720000009689981953843740575_" gradientUnits="userSpaceOnUse" x1="457.178" y1="262.294" x2="658.553" y2="262.294" gradientTransform="matrix(1 0 0 -1 0 818.93)"><stop offset="0" style="stop-color:#e9e9fd"/><stop offset=".36" style="stop-color:#d2d2f9"/><stop offset=".71" style="stop-color:#c4c3f6"/><stop offset="1" style="stop-color:#c0bff6"/></linearGradient><path style="fill:url(#SVGID_00000013163772190292163720000009689981953843740575_)" d="M541.4 610.8 464 566.1c-9.1-5.2-9.1-13.8 0-19l77.4-44.7c9.1-5.2 23.8-5.2 32.9 0l77.4 44.7c9.1 5.2 9.1 13.8 0 19l-77.4 44.7c-9.1 5.3-23.8 5.3-32.9 0z"/><path class="st11" d="m651.7 566.1-77.4 44.7c-9.1 5.2-23.8 5.2-32.9 0L464 566.1c-4-2.3-6.3-5.3-6.7-8.4-.5 3.8 1.7 7.7 6.7 10.6l77.4 44.7c9.1 5.2 23.8 5.2 32.9 0l77.4-44.7c5-2.9 7.2-6.8 6.7-10.6-.4 3.1-2.6 6.1-6.7 8.4z"/></svg>