<?xml version="1.0" encoding="utf-8"?>
<!-- Generator: Adobe Illustrator 27.5.0, SVG Export Plug-In . SVG Version: 6.00 Build 0)  -->
<svg version="1.1" id="Layer_1" xmlns="http://www.w3.org/2000/svg" xmlns:xlink="http://www.w3.org/1999/xlink" x="0px" y="0px"
	 viewBox="0 0 881.5 820.5" style="enable-background:new 0 0 881.5 820.5;" xml:space="preserve">
<style type="text/css">
	.st0{fill:url(#SVGID_1_);}
	.st1{opacity:0.3;}
	.st2{fill:url(#SVGID_00000134239625219467814460000004917874200830282898_);}
	.st3{opacity:0.3;fill:#0F054C;enable-background:new    ;}
	.st4{fill:url(#SVGID_00000007398155216804261190000004571329083658028940_);}
	.st5{fill:#0F054C;}
	.st6{fill:#42E8E0;}
	.st7{opacity:0.4;fill:#42E8E0;enable-background:new    ;}
	.st8{fill:url(#SVGID_00000018928472756361994510000007948688241443876488_);}
	.st9{fill:url(#SVGID_00000110436035058504308910000016511779289182090167_);}
	.st10{fill:#5351AF;}
	.st11{fill:#FFFFFF;}
	.st12{opacity:0.5;fill:url(#SVGID_00000008837902954260862440000011836085808483522946_);enable-background:new    ;}
	.st13{opacity:0.5;fill:url(#SVGID_00000003826817598935997750000016272227080924215221_);enable-background:new    ;}
	.st14{fill:url(#SVGID_00000002371047778684386500000006076723736418508166_);}
	.st15{fill:url(#SVGID_00000039814606324819673470000011616785847025921939_);}
	.st16{fill:url(#SVGID_00000141418088158498127970000002284493197931020720_);}
	.st17{fill:url(#SVGID_00000017479841165072758910000002562826532393556100_);}
	.st18{fill:url(#SVGID_00000016069770139376535720000009492654776404704419_);}
	.st19{fill:url(#SVGID_00000112631779555527042620000014544413306592174514_);}
	.st20{opacity:0.5;fill:url(#SVGID_00000181801246912535143950000011242779806401962631_);enable-background:new    ;}
	.st21{fill:url(#SVGID_00000066478817795317063580000004731143987428570558_);}
	.st22{fill:url(#SVGID_00000080912387695166559120000002263732896111098020_);}
	.st23{fill:url(#SVGID_00000067941967116743031320000005428008255884996028_);}
	.st24{fill:url(#SVGID_00000010306589456182612040000004166086921818099589_);}
	.st25{fill:url(#SVGID_00000154413622581163325970000000301321985017714095_);}
	.st26{fill:url(#SVGID_00000139984541062179830730000008819033194399296679_);}
	.st27{fill:#393091;}
	.st28{fill:#BCBEFF;}
	.st29{fill:url(#SVGID_00000073711592909569766760000008240457220152975019_);}
	.st30{fill:url(#SVGID_00000019643810720060996080000001327992630597030820_);}
	.st31{fill:#453C9E;}
	.st32{fill:url(#SVGID_00000070837145922617825840000012138056923210306491_);}
	.st33{fill:url(#SVGID_00000115515564933223811840000015068086863715496634_);}
	.st34{fill:url(#SVGID_00000064348777040986489750000007094003835388579507_);}
	.st35{fill:url(#SVGID_00000155839804790825915800000003084204861006046397_);}
	.st36{fill:url(#SVGID_00000111889993141853959980000011018610486117461901_);}
	.st37{fill:url(#SVGID_00000177442102023860926570000000573050659302828199_);}
	.st38{fill:url(#SVGID_00000078763520594721288630000013633934581384478099_);}
	.st39{fill:url(#SVGID_00000044178696993431201570000007076526564838224284_);}
</style>
<radialGradient id="SVGID_1_" cx="462.37" cy="411.7991" r="408.53" gradientTransform="matrix(1 0 0 -1 0 818.9291)" gradientUnits="userSpaceOnUse">
	<stop  offset="0" style="stop-color:#5385E5"/>
	<stop  offset="8.000000e-02" style="stop-color:#4E7BD9;stop-opacity:0.92"/>
	<stop  offset="0.23" style="stop-color:#4162BB;stop-opacity:0.72"/>
	<stop  offset="0.44" style="stop-color:#2C398B;stop-opacity:0.4"/>
	<stop  offset="0.68" style="stop-color:#130851;stop-opacity:0"/>
</radialGradient>
<circle class="st0" cx="471.2" cy="410.3" r="410.3"/>
<g>
	<g>
		<g>
			<g class="st1">
				
					<linearGradient id="SVGID_00000101064166122524402960000010631677750396375701_" gradientUnits="userSpaceOnUse" x1="477.2208" y1="371.2047" x2="636.9916" y2="278.9641" gradientTransform="matrix(1 0 0 -1 0 818.9291)">
					<stop  offset="0" style="stop-color:#BCBEFF"/>
					<stop  offset="0.23" style="stop-color:#AAADF7"/>
					<stop  offset="0.68" style="stop-color:#7B82E5"/>
					<stop  offset="1" style="stop-color:#5761D7"/>
				</linearGradient>
				<path style="fill:url(#SVGID_00000101064166122524402960000010631677750396375701_);" d="M658.5,500.1v-17.5l-4.8-2.7
					c-1.4,8.3-11.1,13.7-19.3,14.9l-55.5,32.4l-24.2,8.7l-77.3-39.9l1.8-1c-6.6-3.1-10.2-10.1-13.7-16.6l-5.2,3.1l-3.1,0.9v18l0,0
					c0,3.4,2.3,6.9,6.8,9.5l77.4,44.7c9.1,5.2,23.8,5.2,32.9,0l77.4-44.7c4.5-2.6,6.7-5.9,6.8-9.3
					C658.6,500.4,658.6,500.3,658.5,500.1L658.5,500.1L658.5,500.1z"/>
				<path class="st3" d="M634.4,494.8l-55.5,32.5l-21.1,7.6v23.7c6,0,11.9-1.3,16.4-3.9l77.4-44.7c4.5-2.6,6.7-5.9,6.8-9.3
					c0-0.1,0-0.3,0-0.5h0v-17.5l-4.4-2.5h-0.5C652.1,488.2,642.5,493.6,634.4,494.8L634.4,494.8z"/>
				
					<linearGradient id="SVGID_00000090992265298615889090000005792874668344175278_" gradientUnits="userSpaceOnUse" x1="457.1775" y1="336.3541" x2="658.5525" y2="336.3541" gradientTransform="matrix(1 0 0 -1 0 818.9291)">
					<stop  offset="0" style="stop-color:#E9E9FD"/>
					<stop  offset="0.36" style="stop-color:#D2D2F9"/>
					<stop  offset="0.71" style="stop-color:#C4C3F6"/>
					<stop  offset="1" style="stop-color:#C0BFF6"/>
				</linearGradient>
				<path style="fill:url(#SVGID_00000090992265298615889090000005792874668344175278_);" d="M541.4,536.8L464,492.1
					c-9.1-5.2-9.1-13.8,0-19l77.4-44.7c9.1-5.2,23.8-5.2,32.9,0l77.4,44.7c9.1,5.2,9.1,13.8,0,19l-77.4,44.7
					C565.2,542,550.5,542,541.4,536.8z"/>
				<g class="st1">
					<path class="st5" d="M541.4,536.8L464,492.1c-9.1-5.2-9.1-13.8,0-19l77.4-44.7c9.1-5.2,23.8-5.2,32.9,0l77.4,44.7
						c9.1,5.2,9.1,13.8,0,19l-77.4,44.7C565.2,542,550.5,542,541.4,536.8z"/>
				</g>
			</g>
			<g>
				<path class="st6" d="M557.9,480.3c-5.3,0-10.6-1.2-14.6-3.5l-77.4-44.7c-4-2.3-6.2-5.5-6.2-8.8s2.2-6.5,6.2-8.8l77.4-44.7
					c8-4.6,21.1-4.6,29.2,0l77.4,44.7c4,2.3,6.2,5.5,6.2,8.8s-2.2,6.5-6.2,8.8l-77.4,44.7C568.4,479.1,563.1,480.3,557.9,480.3
					L557.9,480.3z M543.9,475.6c7.7,4.4,20.2,4.4,27.8,0l77.4-44.7c3.6-2.1,5.6-4.8,5.6-7.6s-2-5.6-5.6-7.6l-77.4-44.7
					c-7.7-4.4-20.2-4.4-27.8,0l-77.4,44.7c-3.6,2.1-5.6,4.8-5.6,7.6s2,5.6,5.6,7.6L543.9,475.6L543.9,475.6z"/>
				<g>
					<path class="st7" d="M658.5,406.1v-26.5l-4.8-2.7c-1.4,8.3-11.1,13.7-19.3,14.9l-55.5,32.5l-24.2,8.7L477.4,393l1.8-1
						c-6.6-3.1-10.2-10.1-13.7-16.6l-5.2,3.1l-3.1,0.9v27l0,0c0,3.4,2.3,6.9,6.8,9.5l77.4,44.7c9.1,5.2,23.8,5.2,32.9,0l77.4-44.7
						c4.5-2.6,6.7-5.9,6.8-9.3C658.6,406.4,658.6,406.2,658.5,406.1L658.5,406.1L658.5,406.1z"/>
					<g>
						
							<linearGradient id="SVGID_00000142860328409379689990000015387352781651027602_" gradientUnits="userSpaceOnUse" x1="477.2208" y1="488.8046" x2="636.9917" y2="396.5641" gradientTransform="matrix(1 0 0 -1 0 818.9291)">
							<stop  offset="0" style="stop-color:#BCBEFF"/>
							<stop  offset="0.23" style="stop-color:#AAADF7"/>
							<stop  offset="0.68" style="stop-color:#7B82E5"/>
							<stop  offset="1" style="stop-color:#5761D7"/>
						</linearGradient>
						<path style="fill:url(#SVGID_00000142860328409379689990000015387352781651027602_);" d="M658.5,382.5V365l-4.8-2.7
							c-1.4,8.3-11.1,13.7-19.3,14.9l-55.5,32.5l-24.2,8.7l-77.3-39.9l1.8-1c-6.6-3.1-10.2-10.1-13.7-16.6l-5.2,3.1l-3.1,0.9v18l0,0
							c0,3.4,2.3,6.9,6.8,9.5l77.4,44.7c9.1,5.2,23.8,5.2,32.9,0l77.4-44.7c4.5-2.6,6.7-5.9,6.8-9.3
							C658.6,382.8,658.6,382.7,658.5,382.5L658.5,382.5L658.5,382.5z"/>
						<path class="st3" d="M634.4,377.2l-55.5,32.5l-21.1,7.6v23.7c6,0,11.9-1.3,16.4-3.9l77.4-44.7c4.5-2.6,6.7-5.9,6.8-9.3
							c0-0.1,0-0.3,0-0.5h0V365l-4.4-2.5h-0.5C652.1,370.7,642.5,376,634.4,377.2L634.4,377.2z"/>
						
							<linearGradient id="SVGID_00000089556933326429153990000013921686481101024900_" gradientUnits="userSpaceOnUse" x1="457.1775" y1="453.9441" x2="658.5525" y2="453.9441" gradientTransform="matrix(1 0 0 -1 0 818.9291)">
							<stop  offset="0" style="stop-color:#E9E9FD"/>
							<stop  offset="0.36" style="stop-color:#D2D2F9"/>
							<stop  offset="0.71" style="stop-color:#C4C3F6"/>
							<stop  offset="1" style="stop-color:#C0BFF6"/>
						</linearGradient>
						<path style="fill:url(#SVGID_00000089556933326429153990000013921686481101024900_);" d="M541.4,419.2L464,374.5
							c-9.1-5.2-9.1-13.8,0-19l77.4-44.7c9.1-5.2,23.8-5.2,32.9,0l77.4,44.7c9.1,5.2,9.1,13.8,0,19l-77.4,44.7
							C565.2,424.4,550.5,424.4,541.4,419.2z"/>
						<path class="st10" d="M557.9,409.8c-4.7,0-9.3-1-12.8-3.1l-58.6-33.8c-3.6-2.1-5.5-4.9-5.5-7.9s2-5.8,5.5-7.9l58.6-33.8
							c7.1-4.1,18.6-4.1,25.7,0l58.6,33.8c3.6,2.1,5.5,4.9,5.5,7.9s-2,5.8-5.5,7.9l-58.6,33.8C567.1,408.7,562.5,409.7,557.9,409.8
							L557.9,409.8z M557.9,321.8c-4.4,0-8.7,1-12,2.9l-58.6,33.8c-3.1,1.8-4.8,4.1-4.8,6.5s1.7,4.7,4.8,6.5l58.6,33.8
							c6.6,3.8,17.5,3.8,24.1,0l58.6-33.8c3.1-1.8,4.8-4.1,4.8-6.5s-1.7-4.7-4.8-6.5l-58.6-33.8
							C566.6,322.7,562.2,321.8,557.9,321.8L557.9,321.8z"/>
						<path class="st11" d="M651.7,374.5l-77.4,44.7c-9.1,5.2-23.8,5.2-32.9,0L464,374.5c-4-2.3-6.3-5.3-6.7-8.4
							c-0.5,3.8,1.7,7.7,6.7,10.6l77.4,44.7c9.1,5.2,23.8,5.2,32.9,0l77.4-44.7c5-2.9,7.2-6.8,6.7-10.6
							C658,369.1,655.8,372.1,651.7,374.5z"/>
					</g>
				</g>
			</g>
		</g>
		<g>
			
				<linearGradient id="SVGID_00000089558175223092948860000014815948988729322153_" gradientUnits="userSpaceOnUse" x1="365.26" y1="560.38" x2="904.84" y2="560.38" gradientTransform="matrix(-1 0 0 -1 917.17 818.9291)">
				<stop  offset="0" style="stop-color:#42E8E0"/>
				<stop  offset="0.11" style="stop-color:#36B5BF"/>
				<stop  offset="0.22" style="stop-color:#2C87A0"/>
				<stop  offset="0.34" style="stop-color:#235F86"/>
				<stop  offset="0.46" style="stop-color:#1B3E71"/>
				<stop  offset="0.58" style="stop-color:#162560"/>
				<stop  offset="0.71" style="stop-color:#121355"/>
				<stop  offset="0.85" style="stop-color:#0F084E"/>
				<stop  offset="1" style="stop-color:#0F054C"/>
			</linearGradient>
			<path style="opacity:0.5;fill:url(#SVGID_00000089558175223092948860000014815948988729322153_);enable-background:new    ;" d="
				M551.9,187.4l-33.4,19.3c-10,5.8-19,3.6-22.3-5.4L430.1,20.6c-7.5-20.6-38.4-2-44.9,27.2l-40.7,181.8
				c-3,13.3-12.2,26.5-22.6,32.6l-9.7,5.6c-9.5,5.5-18,3.9-21.7-4l-13.5-28.5c-8.4-17.7-36.2-1-43.8,26.2l0,0
				c-3.5,12.6-12.3,24.6-22.1,30.2l-8.5,4.9c-10.3,6-19.4,3.5-22.5-6l-12.3-37.7c-6.9-21.3-37.9-3.6-45,25.8L82.2,446.9
				c-3.2,13.2-12.4,26.2-22.8,32l-47,26.3L551.9,187.4z"/>
			<g>
				<path class="st6" d="M54.9,522.5l-0.5-1l40.4-22.6c10.3-5.8,19.3-18.5,22.5-31.6L158,299c5-20.7,21.2-35.1,33.2-35.5
					c6.2-0.3,10.7,3.2,12.8,9.7l12.3,37.7c1.3,4,3.8,6.8,7.1,8.1c4.1,1.6,9.3,0.7,14.6-2.4l8.5-4.9c9.6-5.5,18.4-17.6,21.8-29.9
					c5.5-19.7,20.9-32.9,32-33.9c5.8-0.5,10.3,2.2,12.8,7.6l13.5,28.5c1.5,3.2,3.9,5.4,7,6.4c4,1.2,8.9,0.3,14-2.6l9.7-5.6
					c10.2-5.9,19.5-19.2,22.4-32.2l40.7-181.8c4.6-20.4,21-35.5,33-36.3c6.2-0.4,10.8,2.8,13,9.1l66.1,180.6c1.4,3.8,3.8,6.4,7,7.6
					c4,1.5,9.2,0.6,14.4-2.4l26.1-15.1l0.6,1l-26.1,15.1c-5.6,3.2-11,4.1-15.4,2.5c-3.5-1.3-6.2-4.1-7.7-8.2L465.2,41.3
					c-2.1-5.8-6.2-8.7-11.9-8.3c-11.5,0.8-27.5,15.5-31.9,35.4l-40.7,181.8c-3,13.5-12.2,26.8-22.9,32.9l-9.7,5.6
					c-5.3,3.1-10.6,4-14.9,2.7c-3.3-1-6-3.4-7.6-7L312.1,256c-2.4-5-6.4-7.4-11.7-6.9c-10.7,0.9-25.6,13.8-31,33.1
					c-3.5,12.6-12.5,24.9-22.3,30.6l-8.5,4.9c-5.6,3.3-11.2,4.1-15.6,2.5c-3.6-1.4-6.3-4.4-7.7-8.8L203,273.5c-2-6.1-6-9.2-11.7-9
					c-11.4,0.4-27.3,14.8-32.2,34.7l-40.7,168.3c-3.3,13.5-12.5,26.5-23.1,32.4L54.9,522.5L54.9,522.5z"/>
				
					<rect x="441.7" y="2.9" transform="matrix(0.4983 -0.867 0.867 0.4983 201.3969 395.3155)" class="st6" width="1.1" height="41.5"/>
				<polygon class="st6" points="308.2,251.1 271.8,230.1 272.4,229.1 308.8,250.1 				"/>
				
					<rect x="179.2" y="233.4" transform="matrix(0.4977 -0.8673 0.8673 0.4977 -131.1089 284.1465)" class="st6" width="1.1" height="43.8"/>
				<path class="st6" d="M163.9,588.2c-3.4,0-6.8-0.9-9.9-2.6l-100.3-56c-1.4-0.8-2.2-2.2-2.2-3.8s0.8-3,2.2-3.8l41-23
					c10.3-5.8,19.4-18.5,22.6-31.7L158.1,299c2.7-11.2,8.7-20.5,15.5-26.8l-6.2-19.1c-2-6.1-6.1-9.2-11.8-9
					c-11.4,0.4-27.4,14.8-32.2,34.7L82.7,447c-3.2,13.4-12.5,26.4-23.1,32.3L0.5,512.2L0,511.2l59.1-32.8
					c10.3-5.8,19.4-18.5,22.6-31.7l40.7-168.3c5-20.7,21.2-35.1,33.2-35.5c6.2-0.3,10.7,3.2,12.8,9.7l6.1,18.7
					c5.6-4.9,11.6-7.7,16.8-7.9c6.2-0.2,10.7,3.2,12.8,9.7l6,18.5l0.8-0.5c9.6-5.5,18.4-17.6,21.8-29.9
					c5.5-19.7,20.9-32.9,31.9-33.9c5.8-0.5,10.3,2.2,12.8,7.5l9,19.2c4.7-3.7,9.6-5.8,13.9-6.2c5.7-0.5,10.3,2.2,12.8,7.5l4.1,8.7
					l4.4-2.5c10.3-5.9,19.5-19.2,22.4-32.2l40.7-181.8c4.6-20.4,21-35.5,32.9-36.3c6.1-0.4,10.7,2.8,13,9.1l6.9,19
					c5.3-4.5,10.9-7.2,15.7-7.5c6.1-0.4,10.7,2.8,13,9l59,161.2l22.6-13.1c2.5-1.4,5.6-1.4,8.1,0l24.8,14.2c1.6,0.9,2.6,2.6,2.6,4.5
					c0,1.9-1,3.6-2.6,4.5l-26.3,15.2c-5.6,3.2-11,4.1-15.3,2.5c-3.5-1.3-6.2-4.1-7.7-8.2l-6.7-18.3l-6,3.4c-5.5,3.2-11,4.1-15.4,2.5
					c-3.5-1.3-6.2-4.1-7.7-8.2L437,41.1c-7,6.4-13.2,16-15.7,27.2l-40.7,181.8c-3,13.5-12.2,26.8-22.9,32.9l-9.7,5.6
					c-5.3,3.1-10.6,4-14.8,2.7c-3.3-1-6-3.4-7.6-6.9l-8.9-18.8l-4.4,2.5c-5.3,3.1-10.6,4-14.8,2.7c-3.3-1-6-3.4-7.6-6.9l-3.9-8.2
					c-7,5.8-13.5,14.9-16.7,26.3c-3.5,12.6-12.5,24.9-22.3,30.5l-8.5,4.9c-5.6,3.3-11.2,4.1-15.6,2.5c-3.6-1.4-6.3-4.4-7.7-8.8
					l-5.9-18l-6.6,3.8c-5.6,3.3-11.2,4.1-15.6,2.4c-3.6-1.4-6.3-4.4-7.7-8.8l-5.6-17.4c-6.6,6.2-12.3,15.2-14.9,25.9l-40.7,168.3
					c-3.3,13.4-12.5,26.4-23.1,32.3l-41,22.9c-1.1,0.6-1.7,1.7-1.7,2.9s0.6,2.3,1.7,2.9l100.3,56c5.9,3.3,13.2,3.3,19.1-0.2l169-100
					l0.5,0.9l-169,99.9C171,587.2,167.5,588.1,163.9,588.2L163.9,588.2z M210.4,292.7l5.9,18.2c1.3,4,3.8,6.9,7.1,8.1
					c4.1,1.6,9.3,0.7,14.7-2.4l8.5-4.9c9.6-5.5,18.4-17.6,21.8-29.9c3.3-11.7,10-21.1,17.2-27l-9.1-19.4c-2.4-5-6.4-7.4-11.8-6.9
					c-10.7,0.9-25.7,13.8-31,33.1c-3.5,12.6-12.5,24.9-22.3,30.5L210.4,292.7L210.4,292.7z M174.8,272.6l5.8,17.8
					c1.3,4,3.8,6.9,7.1,8.1c4.1,1.6,9.3,0.7,14.7-2.4l6.8-3.9l-6.1-18.7c-2-6.1-6.1-9.1-11.8-9C186.3,264.7,180.3,267.6,174.8,272.6
					L174.8,272.6z M317.7,265.2l8.9,18.9c1.5,3.2,3.9,5.4,7,6.4c4,1.2,8.9,0.3,14-2.6l9.7-5.6c10.3-5.9,19.5-19.2,22.4-32.2
					l40.7-181.8c2.6-11.6,9.1-21.5,16.3-28l-7.1-19.3c-2.1-5.8-6.2-8.7-12-8.4c-11.5,0.8-27.5,15.5-32,35.5L345,229.7
					c-3,13.5-12.2,26.8-22.9,32.9L317.7,265.2L317.7,265.2z M286.9,255.1l4,8.4c1.5,3.2,3.9,5.4,7,6.4c4,1.2,8.9,0.3,14-2.6l4.5-2.6
					l-4.1-8.8c-2.4-5-6.4-7.4-11.8-6.9C296.3,249.4,291.5,251.5,286.9,255.1L286.9,255.1z M525.6,203.1l6.8,18.4
					c1.4,3.8,3.8,6.4,7.1,7.6c4,1.5,9.2,0.6,14.5-2.4l26.3-15.2c1.3-0.8,2.1-2.1,2.1-3.6s-0.8-2.9-2.1-3.6L555.5,190
					c-2.2-1.3-4.9-1.3-7.1,0L525.6,203.1L525.6,203.1z M437.9,40.4l58.8,160.6c1.4,3.8,3.8,6.4,7.1,7.6c4,1.5,9.2,0.6,14.5-2.4
					l6.1-3.5l-59-161.4c-2.1-5.8-6.3-8.8-12-8.4C448.6,33.2,443,35.9,437.9,40.4L437.9,40.4z"/>
			</g>
			
				<linearGradient id="SVGID_00000078024982531533311150000011907259370092767931_" gradientUnits="userSpaceOnUse" x1="336.91" y1="540.38" x2="869.14" y2="540.38" gradientTransform="matrix(-1 0 0 -1 917.17 818.9291)">
				<stop  offset="0" style="stop-color:#42E8E0"/>
				<stop  offset="0.11" style="stop-color:#36B5BF"/>
				<stop  offset="0.22" style="stop-color:#2C87A0"/>
				<stop  offset="0.34" style="stop-color:#235F86"/>
				<stop  offset="0.46" style="stop-color:#1B3E71"/>
				<stop  offset="0.58" style="stop-color:#162560"/>
				<stop  offset="0.71" style="stop-color:#121355"/>
				<stop  offset="0.85" style="stop-color:#0F084E"/>
				<stop  offset="1" style="stop-color:#0F054C"/>
			</linearGradient>
			<path style="opacity:0.5;fill:url(#SVGID_00000078024982531533311150000011907259370092767931_);enable-background:new    ;" d="
				M580.3,211.6l-26.1,15.1c-10,5.8-19,3.6-22.3-5.4L465.8,40.6c-7.5-20.6-38.4-2-44.9,27.2l-40.7,181.8
				c-3,13.3-12.2,26.5-22.6,32.6l-9.7,5.6c-9.5,5.5-18,3.9-21.7-4l-13.5-28.5c-8.4-17.7-36.2-1-43.8,26.2l0,0
				c-3.5,12.6-12.3,24.6-22.1,30.2l-8.5,4.9c-10.3,6-19.4,3.5-22.5-6l-12.3-37.7c-6.9-21.3-37.9-3.6-45,25.8l-40.7,168.3
				c-3.2,13.2-12.4,26.2-22.8,32l-47,26.3L580.3,211.6z"/>
		</g>
		<g>
			<g class="st1">
				
					<linearGradient id="SVGID_00000023993610713510537940000001726890468471611048_" gradientUnits="userSpaceOnUse" x1="312.1283" y1="278.9138" x2="472.0777" y2="186.5742" gradientTransform="matrix(1 0 0 -1 0 818.9291)">
					<stop  offset="0" style="stop-color:#BCBEFF"/>
					<stop  offset="0.23" style="stop-color:#AAADF7"/>
					<stop  offset="0.68" style="stop-color:#7B82E5"/>
					<stop  offset="1" style="stop-color:#5761D7"/>
				</linearGradient>
				<path style="fill:url(#SVGID_00000023993610713510537940000001726890468471611048_);" d="M493.7,592.5v-17.6l-4.9-2.7
					c-1.4,8.3-11.1,13.8-19.3,14.9L414,619.6l-24.2,8.8l-77.4-39.9l1.8-1c-6.6-3.1-10.2-10.2-13.8-16.6l-5.2,3.1l-3.1,0.9v18l0,0
					c0,3.4,2.3,6.9,6.8,9.5l77.5,44.8c9.1,5.2,23.9,5.2,32.9,0l77.5-44.8c4.5-2.6,6.7-6,6.8-9.3
					C493.7,592.8,493.7,592.6,493.7,592.5L493.7,592.5L493.7,592.5z"/>
				<path class="st3" d="M469.5,587.1L414,619.6l-21.1,7.6V651c6,0,11.9-1.3,16.5-3.9l77.5-44.8c4.5-2.6,6.7-6,6.8-9.3
					c0-0.2,0-0.3,0-0.5h0v-17.6l-4.4-2.5h-0.5C487.3,580.6,477.6,586,469.5,587.1L469.5,587.1z"/>
				
					<linearGradient id="SVGID_00000065758105676105415150000016669630896424382871_" gradientUnits="userSpaceOnUse" x1="292.06" y1="244.0142" x2="493.66" y2="244.0142" gradientTransform="matrix(1 0 0 -1 0 818.9291)">
					<stop  offset="0" style="stop-color:#E9E9FD"/>
					<stop  offset="0.36" style="stop-color:#D2D2F9"/>
					<stop  offset="0.71" style="stop-color:#C4C3F6"/>
					<stop  offset="1" style="stop-color:#C0BFF6"/>
				</linearGradient>
				<path style="fill:url(#SVGID_00000065758105676105415150000016669630896424382871_);" d="M376.4,629.2l-77.5-44.8
					c-9.1-5.2-9.1-13.8,0-19l77.5-44.8c9.1-5.2,23.9-5.2,32.9,0l77.5,44.8c9.1,5.2,9.1,13.8,0,19l-77.5,44.8
					C400.2,634.4,385.5,634.4,376.4,629.2L376.4,629.2z"/>
				<g class="st1">
					<path class="st5" d="M376.4,629.2l-77.5-44.8c-9.1-5.2-9.1-13.8,0-19l77.5-44.8c9.1-5.2,23.9-5.2,32.9,0l77.5,44.8
						c9.1,5.2,9.1,13.8,0,19l-77.5,44.8C400.2,634.4,385.5,634.4,376.4,629.2L376.4,629.2z"/>
				</g>
			</g>
			<g>
				<g>
					<path class="st6" d="M392.9,575.5c-5.3,0-10.6-1.2-14.6-3.5l-77.5-44.8c-4-2.3-6.2-5.5-6.2-8.8s2.2-6.5,6.2-8.8l77.5-44.8
						c8-4.6,21.2-4.6,29.2,0l77.5,44.8c4,2.3,6.2,5.5,6.2,8.8s-2.2,6.5-6.2,8.8l-77.5,44.8C403.5,574.4,398.2,575.5,392.9,575.5
						L392.9,575.5z M378.9,570.9c7.7,4.4,20.2,4.4,27.9,0l77.5-44.8c3.6-2.1,5.6-4.8,5.6-7.7s-2-5.6-5.6-7.6l-77.5-44.8
						c-7.7-4.4-20.2-4.4-27.9,0l-77.5,44.8c-3.6,2.1-5.6,4.8-5.6,7.6c0,2.9,2,5.6,5.6,7.7L378.9,570.9z"/>
					<g>
						<path class="st7" d="M493.7,501.3v-26.5l-4.9-2.7c-1.4,8.3-11.1,13.8-19.3,14.9L414,519.4l-24.2,8.8l-77.4-39.9l1.8-1
							c-6.6-3.1-10.2-10.2-13.8-16.6l-5.2,3.1l-3.1,0.9v27l0,0c0,3.4,2.3,6.9,6.8,9.5l77.5,44.8c9.1,5.2,23.9,5.2,32.9,0l77.5-44.8
							c4.5-2.6,6.7-6,6.8-9.3C493.7,501.6,493.7,501.5,493.7,501.3L493.7,501.3L493.7,501.3z"/>
						<g>
							<g>
								
									<linearGradient id="SVGID_00000056392809057427194400000014109597034684098696_" gradientUnits="userSpaceOnUse" x1="312.1326" y1="393.7074" x2="472.0743" y2="301.3622" gradientTransform="matrix(1 0 0 -1 0 818.9291)">
									<stop  offset="0" style="stop-color:#BCBEFF"/>
									<stop  offset="0.23" style="stop-color:#AAADF7"/>
									<stop  offset="0.68" style="stop-color:#7B82E5"/>
									<stop  offset="1" style="stop-color:#5761D7"/>
								</linearGradient>
								<path style="fill:url(#SVGID_00000056392809057427194400000014109597034684098696_);" d="M493.7,477.7v-17.6l-4.9-2.7
									c-1.4,8.3-11.1,13.8-19.3,14.9L414,504.8l-24.2,8.8l-77.4-39.9l1.8-1c-6.6-3.1-10.2-10.2-13.8-16.6l-5.2,3.1l-3.1,0.9v18
									l0,0c0,3.4,2.3,6.9,6.8,9.5l77.5,44.8c9.1,5.2,23.9,5.2,32.9,0l77.5-44.8c4.5-2.6,6.7-6,6.8-9.3
									C493.7,478,493.7,477.8,493.7,477.7L493.7,477.7L493.7,477.7z"/>
								<path class="st3" d="M469.5,472.3L414,504.8l-21.1,7.6v23.8c6,0,11.9-1.3,16.5-3.9l77.5-44.8c4.5-2.6,6.7-6,6.8-9.3
									c0-0.1,0-0.3,0-0.5h0v-17.6l-4.4-2.5h-0.5C487.3,465.8,477.6,471.2,469.5,472.3L469.5,472.3z"/>
								
									<linearGradient id="SVGID_00000165197447212804403850000003726684873316655522_" gradientUnits="userSpaceOnUse" x1="321.7222" y1="399.9392" x2="464.3576" y2="317.5818" gradientTransform="matrix(1 0 0 -1 0 818.9291)">
									<stop  offset="0.24" style="stop-color:#5761D7"/>
									<stop  offset="0.39" style="stop-color:#7A81E5"/>
									<stop  offset="0.55" style="stop-color:#979BF0"/>
									<stop  offset="0.7" style="stop-color:#ABAEF8"/>
									<stop  offset="0.85" style="stop-color:#B7BAFD"/>
									<stop  offset="1" style="stop-color:#BCBEFF"/>
								</linearGradient>
								<path style="fill:url(#SVGID_00000165197447212804403850000003726684873316655522_);" d="M314.1,472.6l73.5-42.4
									c2.9-1.7,7.6-1.7,10.5,0l72.2,41.7l-0.8,0.5c8.2-1.1,17.9-6.6,19.3-14.9l-81-45.1l-23.6-6.2L365,417.4L300.4,456
									C303.9,462.4,307.5,469.5,314.1,472.6L314.1,472.6z"/>
								<path class="st3" d="M392.9,408.4l-8.6-2.3L365,417.4L300.4,456c3.6,6.5,7.1,13.5,13.8,16.6l73.5-42.4
									c1.5-0.8,3.4-1.3,5.3-1.3L392.9,408.4L392.9,408.4z"/>
								
									<linearGradient id="SVGID_00000033360709129110859730000015566345382588591792_" gradientUnits="userSpaceOnUse" x1="292.06" y1="358.8041" x2="493.66" y2="358.8041" gradientTransform="matrix(1 0 0 -1 0 818.9291)">
									<stop  offset="0" style="stop-color:#E9E9FD"/>
									<stop  offset="0.36" style="stop-color:#D2D2F9"/>
									<stop  offset="0.71" style="stop-color:#C4C3F6"/>
									<stop  offset="1" style="stop-color:#C0BFF6"/>
								</linearGradient>
								<path style="fill:url(#SVGID_00000033360709129110859730000015566345382588591792_);" d="M376.4,514.4l-77.5-44.8
									c-9.1-5.2-9.1-13.8,0-19l77.5-44.8c9.1-5.2,23.9-5.2,32.9,0l77.5,44.8c9.1,5.2,9.1,13.8,0,19l-77.5,44.8
									C400.2,519.6,385.5,519.6,376.4,514.4L376.4,514.4z M398.1,412.3c-2.9-1.7-7.6-1.7-10.5,0l-77.5,44.8
									c-2.9,1.7-2.9,4.4,0,6.1l77.5,44.8c2.9,1.7,7.6,1.7,10.5,0l77.5-44.8c2.9-1.7,2.9-4.4,0-6.1L398.1,412.3z"/>
								<g>
									<path class="st11" d="M475.7,457.1l-77.5-44.8c-2.9-1.7-7.6-1.7-10.5,0l-77.5,44.8c-1.9,1.1-2.6,2.7-1.9,4.1
										c0.3-0.7,1-1.4,1.9-2l77.5-44.8c2.9-1.7,7.6-1.7,10.5,0l77.5,44.8c1,0.6,1.6,1.2,1.9,2
										C478.2,459.8,477.6,458.2,475.7,457.1z"/>
									<path class="st11" d="M486.9,469.6l-77.5,44.8c-9.1,5.2-23.9,5.2-32.9,0l-77.5-44.8c-4.1-2.3-6.3-5.3-6.7-8.4
										c-0.5,3.8,1.7,7.7,6.7,10.6l77.5,44.8c9.1,5.2,23.9,5.2,32.9,0l77.5-44.8c5-2.9,7.3-6.8,6.7-10.6
										C493.2,464.3,490.9,467.3,486.9,469.6z"/>
								</g>
								
									<linearGradient id="SVGID_00000126320346887328502800000013038691791097574561_" gradientUnits="userSpaceOnUse" x1="295.1575" y1="358.7992" x2="490.5725" y2="358.7992" gradientTransform="matrix(1 0 0 -1 0 818.9291)">
									<stop  offset="0" style="stop-color:#E9E9FD"/>
									<stop  offset="0.36" style="stop-color:#D2D2F9"/>
									<stop  offset="0.71" style="stop-color:#C4C3F6"/>
									<stop  offset="1" style="stop-color:#C0BFF6"/>
								</linearGradient>
								<path style="fill:url(#SVGID_00000126320346887328502800000013038691791097574561_);" d="M378.6,513.1l-77.5-44.8
									c-7.9-4.5-7.9-11.9,0-16.5l77.5-44.8c7.9-4.5,20.7-4.5,28.5,0l77.5,44.8c7.9,4.5,7.9,11.9,0,16.5l-77.5,44.8
									C399.3,517.7,386.5,517.7,378.6,513.1z M400.3,411.1c-4.1-2.4-10.8-2.4-14.9,0l-77.5,44.8c-4.1,2.4-4.1,6.2,0,8.6l77.5,44.8
									c4.1,2.4,10.8,2.4,14.9,0l77.5-44.8c4.1-2.4,4.1-6.2,0-8.6L400.3,411.1L400.3,411.1z"/>
							</g>
							<path class="st7" d="M398.1,412.3c-2.9-1.7-7.6-1.7-10.5,0l-77.5,44.8c-2.9,1.7-2.9,4.4,0,6.1l77.5,44.8
								c2.9,1.7,7.6,1.7,10.5,0l77.5-44.8c2.9-1.7,2.9-4.4,0-6.1L398.1,412.3z"/>
						</g>
					</g>
				</g>
				
					<linearGradient id="SVGID_00000096753366579841698970000012193925888927363504_" gradientUnits="userSpaceOnUse" x1="392.8553" y1="309.7491" x2="392.8553" y2="635.3691" gradientTransform="matrix(1 0 0 -1 0 818.9291)">
					<stop  offset="0" style="stop-color:#42E8E0"/>
					<stop  offset="0" style="stop-color:#41E6DF;stop-opacity:0.99"/>
					<stop  offset="0.11" style="stop-color:#35B2BD;stop-opacity:0.76"/>
					<stop  offset="0.23" style="stop-color:#2B849F;stop-opacity:0.56"/>
					<stop  offset="0.34" style="stop-color:#225D85;stop-opacity:0.39"/>
					<stop  offset="0.46" style="stop-color:#1B3D70;stop-opacity:0.25"/>
					<stop  offset="0.59" style="stop-color:#162460;stop-opacity:0.14"/>
					<stop  offset="0.71" style="stop-color:#121255;stop-opacity:6.000000e-02"/>
					<stop  offset="0.85" style="stop-color:#0F084E;stop-opacity:1.000000e-02"/>
					<stop  offset="1" style="stop-color:#0F054C;stop-opacity:0"/>
				</linearGradient>
				
					<path style="opacity:0.5;fill:url(#SVGID_00000096753366579841698970000012193925888927363504_);enable-background:new    ;" d="
					M477.8,460.1V183.6H307.9v276.5c0,1.1,0.7,2.2,2.2,3.1l77.5,44.8c2.9,1.7,7.6,1.7,10.5,0l77.5-44.8
					C477.1,462.3,477.9,461.2,477.8,460.1L477.8,460.1z"/>
			</g>
		</g>
		<g>
			
				<radialGradient id="SVGID_00000065784717765615615150000005010438280883248568_" cx="-2862.3896" cy="3870.8711" r="47.7" gradientTransform="matrix(0.6573 0.6437 1.0565 -1.0789 -1883.3022 6353.1899)" gradientUnits="userSpaceOnUse">
				<stop  offset="0" style="stop-color:#C0BFF6"/>
				<stop  offset="1" style="stop-color:#393091"/>
			</radialGradient>
			<path style="fill:url(#SVGID_00000065784717765615615150000005010438280883248568_);" d="M312.8,372.4
				c-8.3,8.4-30,19.7-36.8,13.1c-6.7-6.6,4.1-28.6,12.3-37s20.4-9.9,27.2-3.3C322.3,351.7,321,363.9,312.8,372.4L312.8,372.4z"/>
			
				<linearGradient id="SVGID_00000144303303121147092900000013561345669723099264_" gradientUnits="userSpaceOnUse" x1="-3147.8044" y1="1376.1836" x2="-3170.1343" y2="1346.3636" gradientTransform="matrix(0.6573 0.6437 0.8046 -0.8216 1276.642 3515.5713)">
				<stop  offset="0" style="stop-color:#42E8E0"/>
				<stop  offset="0" style="stop-color:#41E6DF"/>
				<stop  offset="0.14" style="stop-color:#3FB6CA"/>
				<stop  offset="0.27" style="stop-color:#3D8CB8"/>
				<stop  offset="0.41" style="stop-color:#3B6BAA"/>
				<stop  offset="0.55" style="stop-color:#3A519F"/>
				<stop  offset="0.69" style="stop-color:#393E97"/>
				<stop  offset="0.84" style="stop-color:#393392"/>
				<stop  offset="1" style="stop-color:#393091"/>
			</linearGradient>
			<path style="fill:url(#SVGID_00000144303303121147092900000013561345669723099264_);" d="M312.8,372.4
				c-8.3,8.4-30,19.7-36.8,13.1c-6.7-6.6,4.1-28.6,12.3-37s20.4-9.9,27.2-3.3C322.3,351.7,321,363.9,312.8,372.4L312.8,372.4z"/>
			<path class="st6" d="M313.7,349.5c-0.5,0-1-0.1-1.5-0.3c-2-0.8-3-3.2-2.1-5.2l12.3-29.3c0.8-2,3.2-3,5.2-2.1c2,0.8,3,3.2,2.1,5.2
				L317.4,347C316.8,348.5,315.3,349.5,313.7,349.5L313.7,349.5z"/>
			
				<rect x="474.7" y="337.8" transform="matrix(0.927 -0.3751 0.3751 0.927 -104.4641 206.6822)" class="st6" width="7.9" height="67.8"/>
			<g>
				
					<radialGradient id="SVGID_00000160879326273230439680000013144863224196805002_" cx="-115.3735" cy="1180.8047" r="142.45" gradientTransform="matrix(0.981 0.1942 0.1942 -0.981 335.9894 1403.0376)" gradientUnits="userSpaceOnUse">
					<stop  offset="0" style="stop-color:#C0BFF6"/>
					<stop  offset="1" style="stop-color:#393091"/>
				</radialGradient>
				<path style="fill:url(#SVGID_00000160879326273230439680000013144863224196805002_);" d="M358.3,305.9
					c-2.6,13.4-15.6,22.1-29,19.4c-13.4-2.6-22.1-15.6-19.4-29c2.6-13.4,15.6-22.1,29-19.4C352.3,279.6,361,292.6,358.3,305.9z"/>
				<g>
					
						<linearGradient id="SVGID_00000013874866088704332520000008926640857754210975_" gradientUnits="userSpaceOnUse" x1="-475.7338" y1="-1083.4105" x2="-426.3796" y2="-1083.4105" gradientTransform="matrix(0.5372 -0.8435 -0.8435 -0.5372 -337.3675 -661.3843)">
						<stop  offset="0" style="stop-color:#42E8E0"/>
						<stop  offset="0" style="stop-color:#41E6DF"/>
						<stop  offset="0.14" style="stop-color:#3FB6CA"/>
						<stop  offset="0.27" style="stop-color:#3D8CB8"/>
						<stop  offset="0.41" style="stop-color:#3B6BAA"/>
						<stop  offset="0.55" style="stop-color:#3A519F"/>
						<stop  offset="0.69" style="stop-color:#393E97"/>
						<stop  offset="0.84" style="stop-color:#393392"/>
						<stop  offset="1" style="stop-color:#393091"/>
					</linearGradient>
					<path style="fill:url(#SVGID_00000013874866088704332520000008926640857754210975_);" d="M347.4,280.3
						c11.5,7.3,14.9,22.6,7.6,34.1c-7.3,11.5-22.6,14.9-34.1,7.6c-11.5-7.3-14.9-22.6-7.6-34.1C320.6,276.4,335.9,273,347.4,280.3z"
						/>
				</g>
				
					<radialGradient id="SVGID_00000163064049630197344270000014093095484224152511_" cx="1398.1979" cy="351.627" r="140.73" gradientTransform="matrix(0.78 0 0 -1.06 -656.8 706.0549)" gradientUnits="userSpaceOnUse">
					<stop  offset="0" style="stop-color:#C0BFF6"/>
					<stop  offset="1" style="stop-color:#393091"/>
				</radialGradient>
				<path style="fill:url(#SVGID_00000163064049630197344270000014093095484224152511_);" d="M457.2,346c0,47.9-28.5,86.7-63.7,86.7
					s-63.7-38.8-63.7-86.7s28.5-62.3,63.7-62.3S457.2,298.1,457.2,346z"/>
				<g>
					
						<linearGradient id="SVGID_00000164496416668709280060000002849754041161711773_" gradientUnits="userSpaceOnUse" x1="1346.4873" y1="257.467" x2="1346.4873" y2="398.0331" gradientTransform="matrix(0.78 0 0 -1.06 -656.8 706.0549)">
						<stop  offset="0" style="stop-color:#42E8E0"/>
						<stop  offset="0" style="stop-color:#41E6DF"/>
						<stop  offset="0.14" style="stop-color:#3FB6CA"/>
						<stop  offset="0.27" style="stop-color:#3D8CB8"/>
						<stop  offset="0.41" style="stop-color:#3B6BAA"/>
						<stop  offset="0.55" style="stop-color:#3A519F"/>
						<stop  offset="0.69" style="stop-color:#393E97"/>
						<stop  offset="0.84" style="stop-color:#393392"/>
						<stop  offset="1" style="stop-color:#393091"/>
					</linearGradient>
					<path style="fill:url(#SVGID_00000164496416668709280060000002849754041161711773_);" d="M457.2,346
						c0,47.9-28.5,86.7-63.7,86.7s-63.7-38.8-63.7-86.7s28.5-62.3,63.7-62.3S457.2,298.1,457.2,346z"/>
				</g>
				<path class="st27" d="M424.2,327.2c-17,9.8-44.5,9.8-61.5,0c-17-9.8-17-25.7,0-35.5c17-9.8,44.5-9.8,61.5,0
					C441.2,301.5,441.2,317.4,424.2,327.2z"/>
				<path class="st6" d="M362.7,298.4c17-9.8,44.5-9.8,61.5,0c7,4,11.1,9.1,12.3,14.4c1.7-7.5-2.4-15.3-12.3-21.1
					c-17-9.8-44.5-9.8-61.5,0c-10,5.8-14.1,13.6-12.3,21.1C351.6,307.5,355.7,302.4,362.7,298.4z"/>
				<path class="st28" d="M374.5,216.7c0,11.7-8.2,25.9-18.3,31.8s-18.3,1.1-18.3-10.6s8.2-25.9,18.3-31.8S374.5,205,374.5,216.7z"
					/>
				
					<radialGradient id="SVGID_00000011024753855111755770000015574308781324104894_" cx="436.55" cy="579.0291" r="109.84" gradientTransform="matrix(1 0 0 -1 0 818.9291)" gradientUnits="userSpaceOnUse">
					<stop  offset="0" style="stop-color:#C0BFF6"/>
					<stop  offset="1" style="stop-color:#393091"/>
				</radialGradient>
				<circle style="fill:url(#SVGID_00000011024753855111755770000015574308781324104894_);" cx="396" cy="249.5" r="65"/>
				<g>
					
						<linearGradient id="SVGID_00000006684743308117199420000013505944749212491411_" gradientUnits="userSpaceOnUse" x1="386.9442" y1="505.0336" x2="405.0358" y2="633.7647" gradientTransform="matrix(1 0 0 -1 0 818.9291)">
						<stop  offset="0" style="stop-color:#42E8E0"/>
						<stop  offset="0" style="stop-color:#41E6DF"/>
						<stop  offset="0.14" style="stop-color:#3FB6CA"/>
						<stop  offset="0.27" style="stop-color:#3D8CB8"/>
						<stop  offset="0.41" style="stop-color:#3B6BAA"/>
						<stop  offset="0.55" style="stop-color:#3A519F"/>
						<stop  offset="0.69" style="stop-color:#393E97"/>
						<stop  offset="0.84" style="stop-color:#393392"/>
						<stop  offset="1" style="stop-color:#393091"/>
					</linearGradient>
					<circle style="fill:url(#SVGID_00000006684743308117199420000013505944749212491411_);" cx="396" cy="249.5" r="65"/>
				</g>
				<g>
					<path class="st27" d="M375.7,280.3c-1.7,12.8-11.3,16.8-21.5,9c-10.2-7.8-17.2-24.5-15.5-37.3s11.3-16.8,21.5-9
						C370.4,250.8,377.4,267.5,375.7,280.3z"/>
					<path class="st6" d="M367.3,269.2c-0.6,4.6-4.1,6.1-7.8,3.3s-6.2-8.9-5.6-13.6c0.6-4.6,4.1-6.1,7.8-3.3
						S367.9,264.6,367.3,269.2L367.3,269.2z"/>
					<path class="st31" d="M359.1,287.4c-10.2-7.8-17.2-24.5-15.5-37.3c0.7-5.2,2.7-9,5.5-11.1c-5.4,0.5-9.4,5-10.4,12.9
						c-1.7,12.8,5.3,29.5,15.5,37.3c6.1,4.6,11.9,5.1,16,2.1C366.9,291.7,363,290.4,359.1,287.4L359.1,287.4z"/>
					<path class="st6" d="M355.1,288.9c-10.2-7.8-17.2-24.5-15.5-37.3c0.8-5.9,3.2-9.9,6.7-11.8c-3.9,1.6-6.8,5.8-7.6,12.2
						c-1.7,12.8,5.3,29.5,15.5,37.3c5.5,4.2,10.8,5,14.8,2.8C365.1,293.7,360.2,292.8,355.1,288.9L355.1,288.9z"/>
				</g>
				
					<radialGradient id="SVGID_00000180336774500276434690000006587011514585797275_" cx="-67.7135" cy="1086.4547" r="51.48" gradientTransform="matrix(0.981 0.1942 0.1942 -0.981 335.9894 1403.0376)" gradientUnits="userSpaceOnUse">
					<stop  offset="0" style="stop-color:#C0BFF6"/>
					<stop  offset="1" style="stop-color:#393091"/>
				</radialGradient>
				<path style="fill:url(#SVGID_00000180336774500276434690000006587011514585797275_);" d="M490.2,345
					c-2.6,13.4-15.6,22.1-29,19.4c-13.4-2.6-22.1-15.6-19.4-29c2.6-13.4,15.6-22.1,29-19.4C484.1,318.7,492.8,331.6,490.2,345z"/>
				<g>
					
						<linearGradient id="SVGID_00000026843556283084097650000015442650888322270622_" gradientUnits="userSpaceOnUse" x1="-95.7038" y1="1049.7129" x2="-62.1769" y2="1085.9294" gradientTransform="matrix(0.981 0.1942 0.1942 -0.981 335.9894 1403.0376)">
						<stop  offset="0" style="stop-color:#42E8E0"/>
						<stop  offset="0" style="stop-color:#41E6DF"/>
						<stop  offset="0.14" style="stop-color:#3FB6CA"/>
						<stop  offset="0.27" style="stop-color:#3D8CB8"/>
						<stop  offset="0.41" style="stop-color:#3B6BAA"/>
						<stop  offset="0.55" style="stop-color:#3A519F"/>
						<stop  offset="0.69" style="stop-color:#393E97"/>
						<stop  offset="0.84" style="stop-color:#393392"/>
						<stop  offset="1" style="stop-color:#393091"/>
					</linearGradient>
					<path style="fill:url(#SVGID_00000026843556283084097650000015442650888322270622_);" d="M490.2,345
						c-2.6,13.4-15.6,22.1-29,19.4c-13.4-2.6-22.1-15.6-19.4-29c2.6-13.4,15.6-22.1,29-19.4C484.1,318.7,492.8,331.6,490.2,345z"/>
				</g>
			</g>
			
				<radialGradient id="SVGID_00000008139287591806216950000004952414074768291746_" cx="632.4321" cy="2459.175" r="47.7" gradientTransform="matrix(0.9135 0.1089 0.1788 -1.4994 -504.6427 4023.6804)" gradientUnits="userSpaceOnUse">
				<stop  offset="0" style="stop-color:#C0BFF6"/>
				<stop  offset="1" style="stop-color:#393091"/>
			</radialGradient>
			<path style="fill:url(#SVGID_00000008139287591806216950000004952414074768291746_);" d="M505.3,422
				c-1.4,11.7-11.8,33.9-21.1,32.8s-14.2-25.1-12.8-36.9c1.4-11.7,10.1-20.3,19.5-19.2C500.3,399.9,506.7,410.3,505.3,422L505.3,422
				z"/>
			
				<linearGradient id="SVGID_00000080204095191201240740000013010938284672488842_" gradientUnits="userSpaceOnUse" x1="378.3721" y1="393.9142" x2="415.6221" y2="393.9142" gradientTransform="matrix(0.9135 0.1089 0.1362 -1.1419 72.2537 833.4606)">
				<stop  offset="0" style="stop-color:#42E8E0"/>
				<stop  offset="0" style="stop-color:#41E6DF"/>
				<stop  offset="0.14" style="stop-color:#3FB6CA"/>
				<stop  offset="0.27" style="stop-color:#3D8CB8"/>
				<stop  offset="0.41" style="stop-color:#3B6BAA"/>
				<stop  offset="0.55" style="stop-color:#3A519F"/>
				<stop  offset="0.69" style="stop-color:#393E97"/>
				<stop  offset="0.84" style="stop-color:#393392"/>
				<stop  offset="1" style="stop-color:#393091"/>
			</linearGradient>
			<path style="fill:url(#SVGID_00000080204095191201240740000013010938284672488842_);" d="M505.3,422
				c-1.4,11.7-11.8,33.9-21.1,32.8s-14.2-25.1-12.8-36.9c1.4-11.7,10.1-20.3,19.5-19.2C500.3,399.9,506.7,410.3,505.3,422L505.3,422
				z"/>
		</g>
		<g>
			<g class="st1">
				
					<linearGradient id="SVGID_00000085240256251657719950000000483944277104759456_" gradientUnits="userSpaceOnUse" x1="477.2207" y1="179.5646" x2="636.9916" y2="87.3241" gradientTransform="matrix(1 0 0 -1 0 818.9291)">
					<stop  offset="0" style="stop-color:#BCBEFF"/>
					<stop  offset="0.23" style="stop-color:#AAADF7"/>
					<stop  offset="0.68" style="stop-color:#7B82E5"/>
					<stop  offset="1" style="stop-color:#5761D7"/>
				</linearGradient>
				<path style="fill:url(#SVGID_00000085240256251657719950000000483944277104759456_);" d="M658.5,691.8v-17.5l-4.8-2.7
					c-1.4,8.3-11.1,13.7-19.3,14.9l-55.5,32.5l-24.2,8.7l-77.3-39.9l1.8-1c-6.6-3.1-10.2-10.1-13.7-16.6l-5.2,3.1l-3.1,0.9v18l0,0
					c0,3.4,2.3,6.9,6.8,9.5l77.4,44.7c9.1,5.2,23.8,5.2,32.9,0l77.4-44.7c4.5-2.6,6.7-5.9,6.8-9.3
					C658.6,692.1,658.6,691.9,658.5,691.8L658.5,691.8L658.5,691.8z"/>
				<path class="st3" d="M634.4,686.4l-55.5,32.5l-21.1,7.6v23.7c6,0,11.9-1.3,16.4-3.9l77.4-44.7c4.5-2.6,6.7-5.9,6.8-9.3
					c0-0.2,0-0.3,0-0.5h0v-17.5l-4.4-2.5h-0.5C652.1,679.9,642.5,685.3,634.4,686.4L634.4,686.4z"/>
				
					<linearGradient id="SVGID_00000167379306861284321560000014868764093859386009_" gradientUnits="userSpaceOnUse" x1="457.1775" y1="144.7042" x2="658.5525" y2="144.7042" gradientTransform="matrix(1 0 0 -1 0 818.9291)">
					<stop  offset="0" style="stop-color:#E9E9FD"/>
					<stop  offset="0.36" style="stop-color:#D2D2F9"/>
					<stop  offset="0.71" style="stop-color:#C4C3F6"/>
					<stop  offset="1" style="stop-color:#C0BFF6"/>
				</linearGradient>
				<path style="fill:url(#SVGID_00000167379306861284321560000014868764093859386009_);" d="M541.4,728.4L464,683.7
					c-9.1-5.2-9.1-13.8,0-19l77.4-44.7c9.1-5.2,23.8-5.2,32.9,0l77.4,44.7c9.1,5.2,9.1,13.8,0,19l-77.4,44.7
					C565.2,733.7,550.5,733.7,541.4,728.4z"/>
				<g class="st1">
					<path class="st5" d="M541.4,728.4L464,683.7c-9.1-5.2-9.1-13.8,0-19l77.4-44.7c9.1-5.2,23.8-5.2,32.9,0l77.4,44.7
						c9.1,5.2,9.1,13.8,0,19l-77.4,44.7C565.2,733.7,550.5,733.7,541.4,728.4z"/>
				</g>
			</g>
			<g>
				<path class="st6" d="M557.9,671.9c-5.3,0-10.6-1.2-14.6-3.5l-77.4-44.7c-4-2.3-6.2-5.5-6.2-8.8s2.2-6.5,6.2-8.8l77.4-44.7
					c8-4.7,21.1-4.7,29.2,0l77.4,44.7c4,2.3,6.2,5.5,6.2,8.8s-2.2,6.5-6.2,8.8l-77.4,44.7C568.4,670.8,563.1,671.9,557.9,671.9
					L557.9,671.9z M557.9,559.2c-5,0-10.1,1.1-13.9,3.3l-77.4,44.7c-3.6,2.1-5.6,4.8-5.6,7.6s2,5.6,5.6,7.7l77.4,44.7
					c7.7,4.4,20.2,4.4,27.8,0l77.4-44.7c3.6-2.1,5.6-4.8,5.6-7.6s-2-5.6-5.6-7.6l-77.4-44.7C568,560.4,562.9,559.2,557.9,559.2
					L557.9,559.2z"/>
				<g>
					<path class="st7" d="M658.5,597.8v-26.5l-4.8-2.7c-1.4,8.3-11.1,13.7-19.3,14.9l-55.5,32.5l-24.2,8.7l-77.3-39.9l1.8-1
						c-6.6-3.1-10.2-10.1-13.7-16.6l-5.2,3.1l-3.1,0.9v27l0,0c0,3.4,2.3,6.9,6.8,9.5l77.4,44.7c9.1,5.2,23.8,5.2,32.9,0l77.4-44.7
						c4.5-2.6,6.7-5.9,6.8-9.3C658.6,598,658.6,597.9,658.5,597.8L658.5,597.8L658.5,597.8z"/>
					<g>
						
							<linearGradient id="SVGID_00000144325532056423912440000008091935337562199712_" gradientUnits="userSpaceOnUse" x1="477.2207" y1="297.1547" x2="636.9916" y2="204.9141" gradientTransform="matrix(1 0 0 -1 0 818.9291)">
							<stop  offset="0" style="stop-color:#BCBEFF"/>
							<stop  offset="0.23" style="stop-color:#AAADF7"/>
							<stop  offset="0.68" style="stop-color:#7B82E5"/>
							<stop  offset="1" style="stop-color:#5761D7"/>
						</linearGradient>
						<path style="fill:url(#SVGID_00000144325532056423912440000008091935337562199712_);" d="M658.5,574.2v-17.5l-4.8-2.7
							c-1.4,8.3-11.1,13.7-19.3,14.9l-55.5,32.5l-24.2,8.7l-77.3-39.9l1.8-1c-6.6-3.1-10.2-10.1-13.7-16.6l-5.2,3.1l-3.1,0.9v18l0,0
							c0,3.4,2.3,6.9,6.8,9.5l77.4,44.7c9.1,5.2,23.8,5.2,32.9,0l77.4-44.7c4.5-2.6,6.7-5.9,6.8-9.3
							C658.6,574.5,658.6,574.3,658.5,574.2L658.5,574.2L658.5,574.2z"/>
						<path class="st3" d="M634.4,568.8l-55.5,32.5l-21.1,7.6v23.7c6,0,11.9-1.3,16.4-3.9l77.4-44.7c4.5-2.6,6.7-5.9,6.8-9.3
							c0-0.2,0-0.3,0-0.5h0v-17.5l-4.4-2.5h-0.5C652.1,562.3,642.5,567.7,634.4,568.8L634.4,568.8z"/>
						
							<linearGradient id="SVGID_00000013163772190292163720000009689981953843740575_" gradientUnits="userSpaceOnUse" x1="457.1775" y1="262.2941" x2="658.5525" y2="262.2941" gradientTransform="matrix(1 0 0 -1 0 818.9291)">
							<stop  offset="0" style="stop-color:#E9E9FD"/>
							<stop  offset="0.36" style="stop-color:#D2D2F9"/>
							<stop  offset="0.71" style="stop-color:#C4C3F6"/>
							<stop  offset="1" style="stop-color:#C0BFF6"/>
						</linearGradient>
						<path style="fill:url(#SVGID_00000013163772190292163720000009689981953843740575_);" d="M541.4,610.8L464,566.1
							c-9.1-5.2-9.1-13.8,0-19l77.4-44.7c9.1-5.2,23.8-5.2,32.9,0l77.4,44.7c9.1,5.2,9.1,13.8,0,19l-77.4,44.7
							C565.2,616.1,550.5,616.1,541.4,610.8z"/>
						<path class="st11" d="M651.7,566.1l-77.4,44.7c-9.1,5.2-23.8,5.2-32.9,0L464,566.1c-4-2.3-6.3-5.3-6.7-8.4
							c-0.5,3.8,1.7,7.7,6.7,10.6l77.4,44.7c9.1,5.2,23.8,5.2,32.9,0l77.4-44.7c5-2.9,7.2-6.8,6.7-10.6
							C658,560.8,655.8,563.8,651.7,566.1z"/>
					</g>
				</g>
			</g>
		</g>
	</g>
</g>
</svg>
