<?xml version="1.0" encoding="utf-8"?>
<!-- Generator: Adobe Illustrator 27.5.0, SVG Export Plug-In . SVG Version: 6.00 Build 0)  -->
<svg version="1.1" id="Layer_1" xmlns="http://www.w3.org/2000/svg" xmlns:xlink="http://www.w3.org/1999/xlink" x="0px" y="0px"
	 viewBox="0 0 945.7 880.3" style="enable-background:new 0 0 945.7 880.3;" xml:space="preserve">
<style type="text/css">
	.st0{fill:url(#SVGID_1_);}
	.st1{opacity:0.3;}
	.st2{fill:url(#SVGID_00000081608147739440924500000004332653949901715123_);}
	.st3{opacity:0.3;fill:#0F054C;enable-background:new    ;}
	.st4{fill:url(#SVGID_00000128452968437424582730000010082847765632476837_);}
	.st5{fill:#0F054C;}
	.st6{fill:#42E8E0;}
	.st7{opacity:0.4;fill:#42E8E0;enable-background:new    ;}
	.st8{fill:url(#SVGID_00000046329955320968605690000001956046725085627544_);}
	.st9{fill:url(#SVGID_00000120557829038284072380000010112313041781627289_);}
	.st10{fill:#5351AF;}
	.st11{fill:#FFFFFF;}
	.st12{opacity:0.5;fill:url(#SVGID_00000081635766506866085410000012985696758471283389_);enable-background:new    ;}
	.st13{opacity:0.5;fill:url(#SVGID_00000150060054149405302300000003619840580331403681_);enable-background:new    ;}
	.st14{fill:url(#SVGID_00000131361489563711520360000003066186158502325919_);}
	.st15{fill:url(#SVGID_00000172403508493405678950000009261800185580639423_);}
	.st16{fill:url(#SVGID_00000166668338995946119790000009695963015689711250_);}
	.st17{fill:url(#SVGID_00000006704615553905674580000002571952124475294619_);}
	.st18{fill:url(#SVGID_00000079453628663010033180000001596097683325722286_);}
	.st19{fill:url(#SVGID_00000168103632513792579990000003997470853293008547_);}
	.st20{opacity:0.5;fill:url(#SVGID_00000055683073023409500100000011095046866894409345_);enable-background:new    ;}
	.st21{fill:url(#SVGID_00000009575381775480117070000012365774702245734281_);}
	.st22{fill:url(#SVGID_00000165921665406200303600000013399226813079415225_);}
	.st23{fill:url(#SVGID_00000031188081493675273690000002990201802440732351_);}
	.st24{fill:url(#SVGID_00000113350212924418667970000003345535252279345555_);}
	.st25{fill:url(#SVGID_00000070801035753731791600000001510015706154636718_);}
	.st26{fill:url(#SVGID_00000122696028588154486300000011175323374521820332_);}
	.st27{fill:#393091;}
	.st28{fill:#BCBEFF;}
	.st29{fill:url(#SVGID_00000068661587765278484810000003056148771845113728_);}
	.st30{fill:url(#SVGID_00000072982823103415223970000016102053865394436504_);}
	.st31{fill:#453C9E;}
	.st32{fill:url(#SVGID_00000182519008873167726490000002965243084184979347_);}
	.st33{fill:url(#SVGID_00000077292286166381538570000014952083086191508876_);}
	.st34{fill:url(#SVGID_00000017514852416557951680000003556322979601370760_);}
	.st35{fill:url(#SVGID_00000137103360611425387470000004424409346562542762_);}
	.st36{fill:url(#SVGID_00000055676947373217768880000009881884162890508712_);}
	.st37{fill:url(#SVGID_00000070820489083896101340000007352861793932139442_);}
	.st38{fill:url(#SVGID_00000138531838820795522490000006515869884625049240_);}
	.st39{fill:url(#SVGID_00000136389235098694142170000014541841091824888989_);}
</style>
<g>
	<g id="Layer_2_00000160171811941318764490000018149665329324811409_">
		<g id="Layer_4">
			<g>
				<g>
					<g>
						
							<radialGradient id="SVGID_1_" cx="496.08" cy="124.81" r="438.32" gradientTransform="matrix(1 0 0 1 0 311.9999)" gradientUnits="userSpaceOnUse">
							<stop  offset="0" style="stop-color:#5385E5"/>
							<stop  offset="8.000000e-02" style="stop-color:#4E7BD9;stop-opacity:0.92"/>
							<stop  offset="0.23" style="stop-color:#4162BB;stop-opacity:0.72"/>
							<stop  offset="0.44" style="stop-color:#2C398B;stop-opacity:0.4"/>
							<stop  offset="0.68" style="stop-color:#130851;stop-opacity:0"/>
						</radialGradient>
						<circle class="st0" cx="505.6" cy="440.2" r="440.2"/>
						<g>
							<g class="st1">
								
									<linearGradient id="SVGID_00000068660264079528659270000014897813880022512264_" gradientUnits="userSpaceOnUse" x1="512.0756" y1="168.4017" x2="683.5233" y2="267.3835" gradientTransform="matrix(1 0 0 1 0 311.9999)">
									<stop  offset="0" style="stop-color:#BCBEFF"/>
									<stop  offset="0.23" style="stop-color:#AAADF7"/>
									<stop  offset="0.68" style="stop-color:#7B82E5"/>
									<stop  offset="1" style="stop-color:#5761D7"/>
								</linearGradient>
								<path style="fill:url(#SVGID_00000068660264079528659270000014897813880022512264_);" d="M706.6,536.6v-18.8l-5.2-2.9
									c-1.5,8.9-11.9,14.7-20.7,16l-59.5,34.8l-26,9.4l-82.9-42.8l1.9-1.1c-7.1-3.3-10.9-10.9-14.7-17.8l-5.6,3.3l-3.3,0.9v19.3
									l0,0c0,3.7,2.4,7.4,7.3,10.2l83.1,48c9.7,5.6,25.6,5.6,35.3,0l83.1-48c4.8-2.8,7.2-6.4,7.3-10
									C706.6,536.9,706.6,536.7,706.6,536.6L706.6,536.6L706.6,536.6z"/>
								<path class="st3" d="M680.7,530.8l-59.5,34.8l-22.6,8.2v25.5c6.4,0,12.8-1.4,17.6-4.2l83.1-48c4.8-2.8,7.2-6.4,7.3-10
									c0-0.2,0-0.3,0-0.5l0,0v-18.8l-4.8-2.7h-0.5C699.7,523.8,689.3,529.6,680.7,530.8L680.7,530.8z"/>
								
									<linearGradient id="SVGID_00000012437185540635948600000018379910750488249241_" gradientUnits="userSpaceOnUse" x1="490.525" y1="205.7001" x2="706.575" y2="205.7001" gradientTransform="matrix(1 0 0 1 0 311.9999)">
									<stop  offset="0" style="stop-color:#E9E9FD"/>
									<stop  offset="0.36" style="stop-color:#D2D2F9"/>
									<stop  offset="0.71" style="stop-color:#C4C3F6"/>
									<stop  offset="1" style="stop-color:#C0BFF6"/>
								</linearGradient>
								<path style="fill:url(#SVGID_00000012437185540635948600000018379910750488249241_);" d="M580.9,575.9l-83.1-48
									c-9.7-5.6-9.7-14.8,0-20.4l83.1-48c9.7-5.6,25.6-5.6,35.3,0l83.1,48c9.7,5.6,9.7,14.8,0,20.4l-83.1,48
									C606.5,581.5,590.6,581.5,580.9,575.9L580.9,575.9z"/>
								<g class="st1">
									<path class="st5" d="M580.9,575.9l-83.1-48c-9.7-5.6-9.7-14.8,0-20.4l83.1-48c9.7-5.6,25.6-5.6,35.3,0l83.1,48
										c9.7,5.6,9.7,14.8,0,20.4l-83.1,48C606.5,581.5,590.6,581.5,580.9,575.9L580.9,575.9z"/>
								</g>
							</g>
							<g>
								<path class="st6" d="M598.5,515.3c-5.7,0-11.3-1.2-15.7-3.7l-83.1-48c-4.3-2.5-6.7-5.9-6.7-9.5s2.4-7,6.7-9.5l83.1-48
									c8.6-5,22.7-5,31.3,0l83.1,48c4.3,2.5,6.7,5.9,6.7,9.5s-2.4,7-6.7,9.5l-83.1,48C609.9,514,604.2,515.3,598.5,515.3
									L598.5,515.3z M583.6,510.3c8.2,4.7,21.6,4.8,29.9,0l83.1-48c3.8-2.2,6-5.1,6-8.2s-2.1-6-6-8.2l-83.1-48
									c-8.2-4.8-21.6-4.8-29.9,0l-83.1,48c-3.9,2.2-6,5.1-6,8.2s2.1,6,6,8.2L583.6,510.3L583.6,510.3z"/>
								<g>
									<path class="st7" d="M706.6,435.7v-28.5l-5.2-2.9c-1.5,8.9-11.9,14.7-20.7,16l-59.5,34.8l-26,9.4l-82.9-42.8l1.9-1.1
										c-7.1-3.3-10.9-10.9-14.7-17.8l-5.6,3.3l-3.3,0.9v29l0,0c0,3.7,2.4,7.4,7.3,10.2l83.1,48c9.7,5.6,25.6,5.6,35.3,0l83.1-48
										c4.8-2.8,7.2-6.4,7.3-10C706.6,436,706.6,435.9,706.6,435.7L706.6,435.7L706.6,435.7z"/>
									<g>
										
											<linearGradient id="SVGID_00000103237708546055098010000012082839037927019408_" gradientUnits="userSpaceOnUse" x1="512.0806" y1="42.1969" x2="683.5206" y2="141.1843" gradientTransform="matrix(1 0 0 1 0 311.9999)">
											<stop  offset="0" style="stop-color:#BCBEFF"/>
											<stop  offset="0.23" style="stop-color:#AAADF7"/>
											<stop  offset="0.68" style="stop-color:#7B82E5"/>
											<stop  offset="1" style="stop-color:#5761D7"/>
										</linearGradient>
										<path style="fill:url(#SVGID_00000103237708546055098010000012082839037927019408_);" d="M706.6,410.4v-18.8l-5.2-2.9
											c-1.5,8.9-11.9,14.7-20.7,16l-59.5,34.8l-26,9.4l-82.9-42.8l1.9-1.1c-7.1-3.3-10.9-10.9-14.7-17.8l-5.6,3.3l-3.3,0.9v19.3
											l0,0c0,3.7,2.4,7.4,7.3,10.2l83.1,48c9.7,5.6,25.6,5.6,35.3,0l83.1-48c4.8-2.8,7.2-6.4,7.3-10
											C706.6,410.7,706.6,410.6,706.6,410.4L706.6,410.4L706.6,410.4z"/>
										<path class="st3" d="M680.7,404.7l-59.5,34.8l-22.6,8.2v25.5c6.4,0,12.8-1.4,17.6-4.2l83.1-48c4.8-2.8,7.2-6.4,7.3-10
											c0-0.2,0-0.3,0-0.5l0,0v-18.8l-4.8-2.6h-0.5C699.7,397.7,689.3,403.4,680.7,404.7L680.7,404.7z"/>
										
											<linearGradient id="SVGID_00000063626039644629661430000002903251568784220051_" gradientUnits="userSpaceOnUse" x1="490.525" y1="79.6" x2="706.575" y2="79.6" gradientTransform="matrix(1 0 0 1 0 311.9999)">
											<stop  offset="0" style="stop-color:#E9E9FD"/>
											<stop  offset="0.36" style="stop-color:#D2D2F9"/>
											<stop  offset="0.71" style="stop-color:#C4C3F6"/>
											<stop  offset="1" style="stop-color:#C0BFF6"/>
										</linearGradient>
										<path style="fill:url(#SVGID_00000063626039644629661430000002903251568784220051_);" d="M580.9,449.8l-83.1-48
											c-9.7-5.6-9.7-14.8,0-20.4l83.1-48c9.7-5.6,25.6-5.6,35.3,0l83.1,48c9.7,5.6,9.7,14.8,0,20.4l-83.1,48
											C606.5,455.4,590.6,455.4,580.9,449.8z"/>
										<path class="st10" d="M598.5,439.6c-5,0-10-1.1-13.8-3.3L521.9,400c-3.8-2.2-5.9-5.2-5.9-8.4s2.1-6.2,5.9-8.4l62.9-36.3
											c7.6-4.4,20-4.4,27.5,0l62.9,36.3c3.8,2.2,5.9,5.2,5.9,8.4s-2.1,6.2-5.9,8.4l-62.9,36.3
											C608.5,438.5,603.5,439.6,598.5,439.6L598.5,439.6z M598.5,345.2c-4.7,0-9.4,1-12.9,3.1l-62.9,36.3
											c-3.3,1.9-5.1,4.4-5.1,7s1.8,5.1,5.1,7l62.9,36.3c7.1,4.1,18.7,4.1,25.8,0l62.9-36.3c3.3-1.9,5.1-4.4,5.1-7
											s-1.8-5.1-5.1-7l-62.9-36.3C607.9,346.3,603.2,345.2,598.5,345.2L598.5,345.2z"/>
										<path class="st11" d="M699.3,401.8l-83.1,48c-9.7,5.6-25.6,5.6-35.3,0l-83.1-48c-4.4-2.5-6.8-5.7-7.2-9
											c-0.6,4.1,1.8,8.2,7.2,11.4l83.1,48c9.7,5.6,25.6,5.6,35.3,0l83.1-48c5.4-3.1,7.8-7.3,7.2-11.4
											C706,396.1,703.6,399.3,699.3,401.8L699.3,401.8z"/>
									</g>
								</g>
							</g>
						</g>
						<g>
							
								<linearGradient id="SVGID_00000129904310241377992600000013038316163528956038_" gradientUnits="userSpaceOnUse" x1="-5863.6304" y1="-34.629" x2="-5284.6304" y2="-34.629" gradientTransform="matrix(-1 0 0 1 -5271.4302 311.9999)">
								<stop  offset="0" style="stop-color:#42E8E0"/>
								<stop  offset="0.11" style="stop-color:#36B5BF"/>
								<stop  offset="0.22" style="stop-color:#2C87A0"/>
								<stop  offset="0.34" style="stop-color:#235F86"/>
								<stop  offset="0.46" style="stop-color:#1B3E71"/>
								<stop  offset="0.58" style="stop-color:#162560"/>
								<stop  offset="0.71" style="stop-color:#121355"/>
								<stop  offset="0.85" style="stop-color:#0F084E"/>
								<stop  offset="1" style="stop-color:#0F054C"/>
							</linearGradient>
							
								<path style="opacity:0.5;fill:url(#SVGID_00000129904310241377992600000013038316163528956038_);enable-background:new    ;" d="
								M592.2,201l-35.9,20.7c-10.8,6.2-20.4,3.9-23.9-5.8L461.5,22.1C453.4,0,420.2,20,413.2,51.3l-43.7,195.1
								c-3.2,14.3-13.1,28.5-24.3,35l-10.4,6c-10.1,5.9-19.3,4.2-23.3-4.3L297,252.5c-9-19-38.8-1.1-46.9,28.1l0,0
								c-3.8,13.5-13.2,26.4-23.7,32.4l-9.1,5.3c-11.1,6.4-20.8,3.8-24.1-6.5L180,271.3c-7.4-22.8-40.6-3.8-48.2,27.6L88.2,479.5
								c-3.4,14.2-13.4,28.1-24.5,34.3L13.2,542L592.2,201z"/>
							<g>
								<path class="st6" d="M58.9,560.6l-0.6-1l43.3-24.3c11.1-6.2,20.8-19.8,24.2-34l43.7-180.6c5.4-22.2,22.8-37.6,35.6-38.1
									c6.6-0.3,11.5,3.5,13.8,10.5l13.2,40.5c1.4,4.3,4,7.3,7.6,8.7c4.4,1.7,9.9,0.8,15.7-2.5l9.1-5.3
									c10.3-5.9,19.7-18.8,23.4-32.1c5.9-21.2,22.4-35.4,34.3-36.4c6.2-0.5,11,2.4,13.8,8.1l14.5,30.6c1.6,3.4,4.2,5.8,7.5,6.8
									c4.2,1.3,9.6,0.3,15-2.8l10.4-6c11-6.4,20.9-20.6,24-34.6L451.1,73c4.9-21.9,22.6-38.1,35.4-38.9c6.6-0.4,11.5,3,14,9.7
									l70.9,193.8c1.5,4.1,4.1,6.9,7.6,8.1c4.3,1.6,9.8,0.6,15.5-2.6l28-16.2l0.6,1l-28,16.2c-6,3.4-11.8,4.4-16.5,2.7
									c-3.8-1.4-6.7-4.4-8.3-8.8L499.2,44.3c-2.3-6.2-6.7-9.3-12.8-9c-12.4,0.8-29.5,16.6-34.3,38l-43.7,195.1
									c-3.2,14.5-13.1,28.7-24.6,35.3l-10.4,6c-5.7,3.3-11.4,4.3-16,2.9c-3.6-1.1-6.4-3.7-8.2-7.5l-14.5-30.6
									c-2.5-5.3-6.8-7.9-12.6-7.4c-11.5,1-27.5,14.8-33.2,35.5c-3.8,13.5-13.4,26.7-23.9,32.8l-9.1,5.3c-6.1,3.5-12,4.4-16.7,2.6
									c-3.9-1.5-6.8-4.8-8.3-9.5l-13.2-40.5c-2.1-6.5-6.5-9.9-12.6-9.6c-12.2,0.5-29.3,15.9-34.5,37.2L127,501.6
									c-3.5,14.4-13.4,28.4-24.8,34.7L58.9,560.6L58.9,560.6z"/>
								
									<rect x="473.9" y="3.1" transform="matrix(0.4983 -0.867 0.867 0.4983 216.0572 424.1287)" class="st6" width="1.2" height="44.5"/>
								<polygon class="st6" points="330.7,269.4 291.6,246.8 292.2,245.8 331.3,268.3 								"/>
								
									<rect x="192.3" y="250.4" transform="matrix(0.4977 -0.8673 0.8673 0.4977 -140.6572 304.823)" class="st6" width="1.2" height="46.9"/>
								<path class="st6" d="M175.9,631c-3.6,0-7.3-0.9-10.6-2.8l-107.6-60c-1.5-0.8-2.4-2.4-2.4-4.1s0.9-3.3,2.4-4.1l44-24.6
									c11.1-6.2,20.8-19.8,24.2-34l43.7-180.6c2.9-12,9.3-22,16.6-28.8l-6.7-20.5c-2.1-6.5-6.5-9.9-12.6-9.6
									c-12.2,0.5-29.4,15.9-34.6,37.2L88.7,479.6C85.2,494,75.2,508,63.9,514.3L0.6,549.5l-0.6-1l63.4-35.2
									c11.1-6.2,20.8-19.9,24.2-34l43.7-180.6c5.4-22.2,22.7-37.6,35.6-38.1c6.6-0.3,11.5,3.5,13.7,10.4l6.5,20.1
									c5.9-5.2,12.4-8.3,18-8.5c6.6-0.3,11.5,3.5,13.7,10.4l6.5,19.9l0.9-0.5c10.3-6,19.7-18.9,23.4-32.1
									c5.9-21.1,22.4-35.3,34.3-36.3c6.2-0.5,11,2.4,13.7,8.1l9.7,20.6c5.1-3.9,10.3-6.2,14.9-6.6c6.1-0.5,11,2.4,13.7,8.1
									l4.4,9.3l4.7-2.7c11-6.4,20.9-20.6,24-34.6l43.7-195.1c4.9-21.9,22.5-38.1,35.3-38.9c6.5-0.5,11.5,3,14,9.7l7.5,20.3
									c5.6-4.8,11.7-7.7,16.9-8c6.5-0.4,11.5,3,14,9.7l63.3,173l24.2-14c2.7-1.6,6-1.6,8.7,0l26.6,15.3c1.8,1,2.8,2.8,2.8,4.9
									c0,2-1,3.9-2.8,4.9l-28.3,16.3c-6,3.4-11.8,4.4-16.5,2.7c-3.8-1.4-6.7-4.4-8.2-8.8l-7.2-19.6l-6.4,3.7
									c-6,3.4-11.8,4.4-16.5,2.7c-3.8-1.4-6.7-4.4-8.2-8.8l-63-172c-7.5,6.8-14.1,17.1-16.8,29.2l-43.7,195.1
									c-3.2,14.5-13.1,28.7-24.5,35.3l-10.4,6c-5.7,3.3-11.4,4.3-15.9,2.9c-3.6-1.1-6.4-3.7-8.2-7.4l-9.5-20.2l-4.7,2.7
									c-5.7,3.3-11.4,4.3-15.9,2.9c-3.6-1.1-6.4-3.7-8.2-7.4l-4.1-8.8c-7.5,6.2-14.5,16-17.9,28.3c-3.8,13.5-13.4,26.7-23.9,32.8
									l-9.1,5.3c-6.1,3.5-12,4.4-16.7,2.6c-3.9-1.5-6.8-4.8-8.3-9.4l-6.3-19.3l-7.1,4.1c-6.1,3.5-12,4.4-16.7,2.6
									c-3.9-1.5-6.8-4.8-8.3-9.4l-6.1-18.6c-7,6.6-13.2,16.4-16,27.8L127,501.6c-3.5,14.4-13.4,28.4-24.8,34.7l-44,24.6
									c-1.2,0.7-1.8,1.8-1.8,3.1s0.7,2.5,1.8,3.1l107.6,60.1c6.4,3.6,14.2,3.5,20.5-0.2l181.3-107.2l0.6,1L186.9,628
									C183.5,630,179.7,631,175.9,631L175.9,631z M225.7,314.1l6.4,19.5c1.4,4.3,4,7.4,7.6,8.7c4.4,1.7,10,0.8,15.7-2.5l9.1-5.3
									c10.3-6,19.7-18.9,23.4-32.1c3.5-12.5,10.7-22.6,18.5-29l-9.8-20.8c-2.5-5.4-6.9-7.9-12.6-7.4c-11.5,1-27.5,14.8-33.3,35.5
									c-3.8,13.5-13.4,26.7-23.9,32.8L225.7,314.1L225.7,314.1z M187.6,292.5l6.2,19.1c1.4,4.3,4,7.4,7.6,8.7
									c4.4,1.7,10,0.8,15.7-2.5l7.3-4.2l-6.5-20.1c-2.1-6.5-6.5-9.8-12.6-9.6C199.8,284,193.5,287.2,187.6,292.5L187.6,292.5z
									 M340.8,284.5l9.6,20.3c1.6,3.5,4.2,5.8,7.5,6.8c4.3,1.3,9.6,0.3,15-2.8l10.4-6c11-6.4,20.9-20.6,24-34.6l43.7-195
									c2.8-12.5,9.7-23.1,17.5-30.1l-7.6-20.8c-2.3-6.3-6.7-9.4-12.8-9c-12.4,0.8-29.5,16.6-34.3,38l-43.7,195.1
									c-3.2,14.5-13.1,28.7-24.5,35.3L340.8,284.5L340.8,284.5z M307.8,273.7l4.3,9c1.6,3.5,4.2,5.8,7.5,6.8
									c4.3,1.3,9.6,0.3,15-2.8l4.8-2.8l-4.4-9.4c-2.5-5.4-6.9-8-12.6-7.5C317.9,267.5,312.8,269.8,307.8,273.7L307.8,273.7z
									 M564,218l7.2,19.8c1.5,4.1,4.1,6.9,7.6,8.1c4.3,1.6,9.9,0.6,15.5-2.6l28.3-16.3c1.4-0.8,2.2-2.3,2.2-3.9s-0.8-3.1-2.3-3.9
									L596,203.9c-2.3-1.4-5.2-1.4-7.6,0L564,218L564,218z M469.8,43.4l63.1,172.4c1.5,4.1,4.1,6.9,7.6,8.1
									c4.3,1.6,9.9,0.6,15.5-2.6l6.6-3.8L499.2,44.3c-2.3-6.3-6.8-9.4-12.8-9C481.3,35.7,475.3,38.6,469.8,43.4L469.8,43.4z"/>
							</g>
							
								<linearGradient id="SVGID_00000163763326242249230860000009658012826098249886_" gradientUnits="userSpaceOnUse" x1="-5894.0303" y1="-13.1802" x2="-5322.8301" y2="-13.1802" gradientTransform="matrix(-1 0 0 1 -5271.4302 311.9999)">
								<stop  offset="0" style="stop-color:#42E8E0"/>
								<stop  offset="0.11" style="stop-color:#36B5BF"/>
								<stop  offset="0.22" style="stop-color:#2C87A0"/>
								<stop  offset="0.34" style="stop-color:#235F86"/>
								<stop  offset="0.46" style="stop-color:#1B3E71"/>
								<stop  offset="0.58" style="stop-color:#162560"/>
								<stop  offset="0.71" style="stop-color:#121355"/>
								<stop  offset="0.85" style="stop-color:#0F084E"/>
								<stop  offset="1" style="stop-color:#0F054C"/>
							</linearGradient>
							
								<path style="opacity:0.5;fill:url(#SVGID_00000163763326242249230860000009658012826098249886_);enable-background:new    ;" d="
								M622.6,227l-28,16.2c-10.8,6.2-20.4,3.9-23.9-5.8l-71-193.8c-8.1-22.1-41.2-2.1-48.2,29.1l-43.7,195.1
								c-3.2,14.3-13.1,28.5-24.3,35l-10.4,6c-10.1,5.9-19.3,4.2-23.3-4.3l-14.5-30.6c-9-19-38.8-1.1-46.9,28.1l0,0
								c-3.8,13.5-13.2,26.4-23.7,32.4l-9.1,5.3c-11.1,6.4-20.8,3.8-24.1-6.5l-13.2-40.5c-7.4-22.8-40.6-3.8-48.2,27.6l-43.7,180.6
								c-3.4,14.2-13.4,28.1-24.5,34.3l-50.5,28.2L622.6,227z"/>
						</g>
						<g>
							<g class="st1">
								
									<linearGradient id="SVGID_00000141415174059628268210000015111405525373401243_" gradientUnits="userSpaceOnUse" x1="334.9201" y1="267.4266" x2="506.5142" y2="366.4975" gradientTransform="matrix(1 0 0 1 0 311.9999)">
									<stop  offset="0" style="stop-color:#BCBEFF"/>
									<stop  offset="0.23" style="stop-color:#AAADF7"/>
									<stop  offset="0.68" style="stop-color:#7B82E5"/>
									<stop  offset="1" style="stop-color:#5761D7"/>
								</linearGradient>
								<path style="fill:url(#SVGID_00000141415174059628268210000015111405525373401243_);" d="M529.7,635.7v-18.8l-5.2-2.9
									c-1.5,8.9-11.9,14.8-20.7,16l-59.6,34.8l-26,9.4l-83-42.8l1.9-1.1c-7.1-3.3-10.9-10.9-14.8-17.8l-5.6,3.3l-3.3,0.9V636l0,0
									c0,3.7,2.4,7.4,7.3,10.2l83.2,48c9.7,5.6,25.6,5.6,35.3,0l83.2-48c4.8-2.8,7.2-6.4,7.3-10
									C529.6,636,529.6,635.8,529.7,635.7L529.7,635.7L529.7,635.7z"/>
								<path class="st3" d="M503.8,629.9l-59.6,34.8l-22.6,8.2v25.5c6.4,0,12.8-1.4,17.7-4.2l83.2-48c4.8-2.8,7.2-6.4,7.3-10
									c0-0.2,0-0.3,0-0.5l0,0v-18.8l-4.8-2.7h-0.5C522.8,622.9,512.4,628.7,503.8,629.9L503.8,629.9z"/>
								
									<linearGradient id="SVGID_00000162340540716038906000000007668585198955002269_" gradientUnits="userSpaceOnUse" x1="313.425" y1="304.8376" x2="529.675" y2="304.8376" gradientTransform="matrix(1 0 0 1 0 311.9999)">
									<stop  offset="0" style="stop-color:#E9E9FD"/>
									<stop  offset="0.36" style="stop-color:#D2D2F9"/>
									<stop  offset="0.71" style="stop-color:#C4C3F6"/>
									<stop  offset="1" style="stop-color:#C0BFF6"/>
								</linearGradient>
								<path style="fill:url(#SVGID_00000162340540716038906000000007668585198955002269_);" d="M403.9,675l-83.2-48
									c-9.7-5.6-9.7-14.8,0-20.4l83.2-48c9.7-5.6,25.6-5.6,35.3,0l83.2,48c9.7,5.6,9.7,14.8,0,20.4l-83.2,48
									C429.4,680.7,413.6,680.7,403.9,675L403.9,675z"/>
								<g class="st1">
									<path class="st5" d="M403.9,675l-83.2-48c-9.7-5.6-9.7-14.8,0-20.4l83.2-48c9.7-5.6,25.6-5.6,35.3,0l83.2,48
										c9.7,5.6,9.7,14.8,0,20.4l-83.2,48C429.4,680.7,413.6,680.7,403.9,675L403.9,675z"/>
								</g>
							</g>
							<g>
								<g>
									<path class="st6" d="M421.5,617.5c-5.7,0-11.4-1.2-15.7-3.7l-83.2-48c-4.3-2.5-6.7-5.9-6.7-9.5s2.4-7,6.7-9.5l83.2-48
										c8.6-5,22.7-5,31.4,0l83.2,48c4.3,2.5,6.7,5.9,6.7,9.5s-2.4,7-6.7,9.5l-83.2,48C432.9,616.3,427.2,617.5,421.5,617.5
										L421.5,617.5z M406.6,612.5c8.2,4.8,21.7,4.8,29.9,0l83.2-48c3.8-2.2,6-5.1,6-8.2s-2.1-6-6-8.2l-83.2-48
										c-8.2-4.8-21.7-4.8-29.9,0l-83.2,48c-3.9,2.2-6,5.1-6,8.2s2.1,6,6,8.2L406.6,612.5L406.6,612.5z"/>
									<g>
										<path class="st7" d="M529.7,537.8v-28.5l-5.2-2.9c-1.5,8.9-11.9,14.8-20.7,16l-59.6,34.8l-26,9.4l-83-42.8l1.9-1.1
											c-7.1-3.3-10.9-10.9-14.8-17.8l-5.6,3.3l-3.3,0.9v29l0,0c0,3.7,2.4,7.4,7.3,10.2l83.2,48c9.7,5.6,25.6,5.6,35.3,0l83.2-48
											c4.8-2.8,7.2-6.4,7.3-10C529.6,538.2,529.6,538,529.7,537.8L529.7,537.8L529.7,537.8z"/>
										<g>
											<g>
												
													<linearGradient id="SVGID_00000168795841057356901090000017443852227854631325_" gradientUnits="userSpaceOnUse" x1="334.92" y1="144.1266" x2="506.5143" y2="243.1975" gradientTransform="matrix(1 0 0 1 0 311.9999)">
													<stop  offset="0" style="stop-color:#BCBEFF"/>
													<stop  offset="0.23" style="stop-color:#AAADF7"/>
													<stop  offset="0.68" style="stop-color:#7B82E5"/>
													<stop  offset="1" style="stop-color:#5761D7"/>
												</linearGradient>
												<path style="fill:url(#SVGID_00000168795841057356901090000017443852227854631325_);" d="M529.7,512.5v-18.9l-5.2-2.9
													c-1.5,8.9-11.9,14.8-20.7,16l-59.6,34.9l-26,9.4l-83-42.9l1.9-1.1c-7.1-3.3-10.9-10.9-14.8-17.8l-5.6,3.3l-3.3,0.9v19.3
													l0,0c0,3.7,2.4,7.4,7.3,10.2l83.2,48c9.7,5.6,25.6,5.6,35.3,0l83.2-48c4.8-2.8,7.2-6.4,7.3-10
													C529.6,512.8,529.6,512.7,529.7,512.5L529.7,512.5L529.7,512.5z"/>
												<path class="st3" d="M503.8,506.8l-59.6,34.8l-22.6,8.2v25.5c6.4,0,12.8-1.4,17.7-4.2l83.2-48c4.8-2.8,7.2-6.4,7.3-10
													c0-0.2,0-0.3,0-0.5l0,0v-18.8l-4.8-2.6h-0.5C522.8,499.8,512.4,505.5,503.8,506.8L503.8,506.8z"/>
												
													<linearGradient id="SVGID_00000154420031009298100160000006931715889351478435_" gradientUnits="userSpaceOnUse" x1="345.0428" y1="137.463" x2="498.0814" y2="225.8222" gradientTransform="matrix(1 0 0 1 0 311.9999)">
													<stop  offset="0.24" style="stop-color:#5761D7"/>
													<stop  offset="0.39" style="stop-color:#7A81E5"/>
													<stop  offset="0.55" style="stop-color:#979BF0"/>
													<stop  offset="0.7" style="stop-color:#ABAEF8"/>
													<stop  offset="0.85" style="stop-color:#B7BAFD"/>
													<stop  offset="1" style="stop-color:#BCBEFF"/>
												</linearGradient>
												<path style="fill:url(#SVGID_00000154420031009298100160000006931715889351478435_);" d="M337,507l78.8-45.5
													c3.1-1.8,8.2-1.8,11.3,0l77.4,44.7l-0.9,0.5c8.8-1.2,19.2-7.1,20.7-16l-86.9-48.3l-25.3-6.7l-20.6,12.1l-69.4,41.4
													C326.1,496.1,329.9,503.7,337,507L337,507z"/>
												<path class="st3" d="M421.5,438.2l-9.3-2.5l-20.6,12.1l-69.4,41.4c3.8,6.9,7.7,14.5,14.8,17.8l78.8-45.5
													c1.6-0.9,3.6-1.4,5.7-1.4V438.2L421.5,438.2z"/>
												
													<linearGradient id="SVGID_00000121992525316179271440000001663989560401840278_" gradientUnits="userSpaceOnUse" x1="313.425" y1="181.7001" x2="529.675" y2="181.7001" gradientTransform="matrix(1 0 0 1 0 311.9999)">
													<stop  offset="0" style="stop-color:#E9E9FD"/>
													<stop  offset="0.36" style="stop-color:#D2D2F9"/>
													<stop  offset="0.71" style="stop-color:#C4C3F6"/>
													<stop  offset="1" style="stop-color:#C0BFF6"/>
												</linearGradient>
												<path style="fill:url(#SVGID_00000121992525316179271440000001663989560401840278_);" d="M403.9,551.9l-83.2-48
													c-9.7-5.6-9.7-14.8,0-20.4l83.2-48c9.7-5.6,25.6-5.6,35.3,0l83.2,48c9.7,5.6,9.7,14.8,0,20.4l-83.2,48
													C429.4,557.5,413.6,557.5,403.9,551.9L403.9,551.9z M427.2,442.4c-3.1-1.8-8.2-1.8-11.3,0l-83.2,48
													c-3.1,1.8-3.1,4.7,0,6.5l83.2,48c3.1,1.8,8.2,1.8,11.3,0l83.2-48c3.1-1.8,3.1-4.7,0-6.5L427.2,442.4L427.2,442.4z"/>
												<g>
													<path class="st11" d="M510.3,490.4l-83.2-48c-3.1-1.8-8.2-1.8-11.3,0l-83.2,48c-2.1,1.2-2.8,2.9-2.1,4.4
														c0.4-0.8,1-1.5,2.1-2.1l83.2-48c3.1-1.8,8.2-1.8,11.3,0l83.2,48c1,0.6,1.7,1.3,2.1,2.1
														C513.1,493.3,512.4,491.6,510.3,490.4L510.3,490.4z"/>
													<path class="st11" d="M522.3,503.9l-83.2,48c-9.7,5.6-25.6,5.6-35.3,0l-83.2-48c-4.4-2.5-6.8-5.7-7.2-9
														c-0.6,4.1,1.8,8.3,7.2,11.4l83.2,48c9.7,5.6,25.6,5.6,35.3,0l83.2-48c5.4-3.1,7.8-7.3,7.2-11.4
														C529.1,498.2,526.7,501.4,522.3,503.9L522.3,503.9z"/>
												</g>
												
													<linearGradient id="SVGID_00000179638342154424572340000008042218076407279271_" gradientUnits="userSpaceOnUse" x1="316.7" y1="181.6501" x2="526.3" y2="181.6501" gradientTransform="matrix(1 0 0 1 0 311.9999)">
													<stop  offset="0" style="stop-color:#E9E9FD"/>
													<stop  offset="0.36" style="stop-color:#D2D2F9"/>
													<stop  offset="0.71" style="stop-color:#C4C3F6"/>
													<stop  offset="1" style="stop-color:#C0BFF6"/>
												</linearGradient>
												<path style="fill:url(#SVGID_00000179638342154424572340000008042218076407279271_);" d="M406.2,550.5l-83.2-48
													c-8.4-4.9-8.4-12.8,0-17.7l83.2-48c8.4-4.9,22.2-4.9,30.6,0l83.2,48c8.4,4.9,8.4,12.8,0,17.7l-83.2,48
													C428.4,555.4,414.7,555.4,406.2,550.5z M429.5,441c-4.4-2.5-11.6-2.5-16,0l-83.2,48c-4.4,2.5-4.4,6.7,0,9.2l83.2,48
													c4.4,2.5,11.6,2.5,16,0l83.2-48c4.4-2.5,4.4-6.7,0-9.2L429.5,441z"/>
											</g>
											<path class="st7" d="M427.2,442.4c-3.1-1.8-8.2-1.8-11.3,0l-83.2,48c-3.1,1.8-3.1,4.7,0,6.5l83.2,48
												c3.1,1.8,8.2,1.8,11.3,0l83.2-48c3.1-1.8,3.1-4.7,0-6.5L427.2,442.4L427.2,442.4z"/>
										</g>
									</g>
								</g>
								
									<linearGradient id="SVGID_00000118389657353765965870000014660850047567261826_" gradientUnits="userSpaceOnUse" x1="421.5" y1="234.2501" x2="421.5" y2="-115.1" gradientTransform="matrix(1 0 0 1 0 311.9999)">
									<stop  offset="0" style="stop-color:#42E8E0"/>
									<stop  offset="1" style="stop-color:#0F054C;stop-opacity:0"/>
								</linearGradient>
								
									<path style="opacity:0.5;fill:url(#SVGID_00000118389657353765965870000014660850047567261826_);enable-background:new    ;" d="
									M512.7,493.6V196.9H330.3v296.7c0,1.2,0.8,2.4,2.3,3.3l83.2,48c3.1,1.8,8.2,1.8,11.3,0l83.2-48
									C511.9,496,512.7,494.8,512.7,493.6L512.7,493.6z"/>
							</g>
						</g>
						<g>
							
								<radialGradient id="SVGID_00000132766212420492889940000002012159201291695523_" cx="-3774.7634" cy="-4612.1162" r="51.17" gradientTransform="matrix(0.6573 0.6437 -1.0565 1.0789 -2045.5762 7764.9292)" gradientUnits="userSpaceOnUse">
								<stop  offset="0" style="stop-color:#C0BFF6"/>
								<stop  offset="1" style="stop-color:#393091"/>
							</radialGradient>
							<path style="fill:url(#SVGID_00000132766212420492889940000002012159201291695523_);" d="M335.6,399.5
								c-8.9,9-32.2,21.1-39.5,14.1c-7.2-7.1,4.4-30.7,13.2-39.7c8.9-9,21.9-10.6,29.1-3.6C345.8,377.4,344.4,390.5,335.6,399.5
								L335.6,399.5z"/>
							
								<linearGradient id="SVGID_00000117656175958645811470000002009567838854345129_" gradientUnits="userSpaceOnUse" x1="-4057.0288" y1="-2619.3794" x2="-4080.9788" y2="-2587.3894" gradientTransform="matrix(0.6573 0.6437 -0.8046 0.8216 898.5586 5147.9551)">
								<stop  offset="0" style="stop-color:#42E8E0"/>
								<stop  offset="0" style="stop-color:#41E6DF"/>
								<stop  offset="0.14" style="stop-color:#3FB6CA"/>
								<stop  offset="0.27" style="stop-color:#3D8CB8"/>
								<stop  offset="0.41" style="stop-color:#3B6BAA"/>
								<stop  offset="0.55" style="stop-color:#3A519F"/>
								<stop  offset="0.69" style="stop-color:#393E97"/>
								<stop  offset="0.84" style="stop-color:#393392"/>
								<stop  offset="1" style="stop-color:#393091"/>
							</linearGradient>
							<path style="fill:url(#SVGID_00000117656175958645811470000002009567838854345129_);" d="M335.6,399.5
								c-8.9,9-32.2,21.1-39.5,14.1c-7.2-7.1,4.4-30.7,13.2-39.7c8.9-9,21.9-10.6,29.1-3.6C345.8,377.4,344.4,390.5,335.6,399.5
								L335.6,399.5z"/>
							<path class="st6" d="M336.6,375c-0.5,0-1.1-0.1-1.6-0.3c-2.2-0.9-3.2-3.4-2.3-5.6l13.2-31.5c0.9-2.2,3.4-3.2,5.6-2.3
								c2.2,0.9,3.2,3.4,2.3,5.6l-13.2,31.5C339.8,374,338.3,375,336.6,375L336.6,375z"/>
							
								<rect x="509.3" y="362.4" transform="matrix(0.927 -0.3751 0.3751 0.927 -112.0933 221.7533)" class="st6" width="8.5" height="72.8"/>
							<g>
								
									<radialGradient id="SVGID_00000152256777308201567740000011991831826470911621_" cx="-206.5592" cy="-1258.5922" r="152.84" gradientTransform="matrix(0.981 0.1942 -0.1942 0.981 443.3056 1513.2733)" gradientUnits="userSpaceOnUse">
									<stop  offset="0" style="stop-color:#C0BFF6"/>
									<stop  offset="1" style="stop-color:#393091"/>
								</radialGradient>
								<path style="fill:url(#SVGID_00000152256777308201567740000011991831826470911621_);" d="M384.5,328.2
									c-2.8,14.3-16.8,23.7-31.1,20.8c-14.3-2.8-23.7-16.8-20.8-31.1c2.8-14.3,16.8-23.7,31.1-20.8
									C378,300,387.3,313.9,384.5,328.2z"/>
								<g>
									
										<linearGradient id="SVGID_00000060740102354306321550000007628915185491444410_" gradientUnits="userSpaceOnUse" x1="-1620.9952" y1="4393.5557" x2="-1567.9845" y2="4393.5557" gradientTransform="matrix(0.5372 -0.8435 0.8435 0.5372 -2490.8433 -3382.1943)">
										<stop  offset="0" style="stop-color:#42E8E0"/>
										<stop  offset="0" style="stop-color:#41E6DF"/>
										<stop  offset="0.14" style="stop-color:#3FB6CA"/>
										<stop  offset="0.27" style="stop-color:#3D8CB8"/>
										<stop  offset="0.41" style="stop-color:#3B6BAA"/>
										<stop  offset="0.55" style="stop-color:#3A519F"/>
										<stop  offset="0.69" style="stop-color:#393E97"/>
										<stop  offset="0.84" style="stop-color:#393392"/>
										<stop  offset="1" style="stop-color:#393091"/>
									</linearGradient>
									<path style="fill:url(#SVGID_00000060740102354306321550000007628915185491444410_);" d="M372.7,300.8
										c12.3,7.9,16,24.2,8.1,36.6c-7.9,12.3-24.2,16-36.6,8.1c-12.3-7.9-16-24.2-8.1-36.6S360.4,292.9,372.7,300.8z"/>
								</g>
								
									<radialGradient id="SVGID_00000118368815284133258530000003690108573676732076_" cx="2321.7249" cy="197.8304" r="150.99" gradientTransform="matrix(0.78 0 0 1.06 -1343.8401 147.93)" gradientUnits="userSpaceOnUse">
									<stop  offset="0" style="stop-color:#C0BFF6"/>
									<stop  offset="1" style="stop-color:#393091"/>
								</radialGradient>
								<path style="fill:url(#SVGID_00000118368815284133258530000003690108573676732076_);" d="M490.5,371.2
									c0,51.4-30.6,93.1-68.4,93.1s-68.4-41.7-68.4-93.1s30.6-66.8,68.4-66.8S490.5,319.8,490.5,371.2L490.5,371.2z"/>
								<g>
									
										<linearGradient id="SVGID_00000042726926614003146670000006114710845456209065_" gradientUnits="userSpaceOnUse" x1="2264.0259" y1="298.8604" x2="2264.0259" y2="148.0114" gradientTransform="matrix(0.78 0 0 1.06 -1343.8401 147.93)">
										<stop  offset="0" style="stop-color:#42E8E0"/>
										<stop  offset="0" style="stop-color:#41E6DF"/>
										<stop  offset="0.14" style="stop-color:#3FB6CA"/>
										<stop  offset="0.27" style="stop-color:#3D8CB8"/>
										<stop  offset="0.41" style="stop-color:#3B6BAA"/>
										<stop  offset="0.55" style="stop-color:#3A519F"/>
										<stop  offset="0.69" style="stop-color:#393E97"/>
										<stop  offset="0.84" style="stop-color:#393392"/>
										<stop  offset="1" style="stop-color:#393091"/>
									</linearGradient>
									<path style="fill:url(#SVGID_00000042726926614003146670000006114710845456209065_);" d="M490.5,371.2
										c0,51.4-30.6,93.1-68.4,93.1s-68.4-41.7-68.4-93.1s30.6-66.8,68.4-66.8S490.5,319.8,490.5,371.2L490.5,371.2z"/>
								</g>
								<path class="st27" d="M455.1,351.1c-18.2,10.5-47.8,10.5-66,0s-18.2-27.6,0-38.1s47.8-10.5,66,0S473.4,340.6,455.1,351.1z"
									/>
								<path class="st6" d="M389.2,320.1c18.2-10.5,47.8-10.5,66,0c7.5,4.4,11.9,9.8,13.2,15.5c1.9-8-2.5-16.5-13.2-22.6
									c-18.2-10.5-47.8-10.5-66,0c-10.7,6.2-15.1,14.6-13.2,22.6C377.2,329.9,381.6,324.5,389.2,320.1L389.2,320.1z"/>
								<path class="st28" d="M401.8,232.5c0,12.6-8.8,27.8-19.7,34.1s-19.7,1.2-19.7-11.4s8.8-27.8,19.7-34.1
									S401.8,219.9,401.8,232.5z"/>
								
									<radialGradient id="SVGID_00000005956330329920823670000005942219257407764903_" cx="468.38" cy="-54.6" r="117.85" gradientTransform="matrix(1 0 0 1 0 311.9999)" gradientUnits="userSpaceOnUse">
									<stop  offset="0" style="stop-color:#C0BFF6"/>
									<stop  offset="1" style="stop-color:#393091"/>
								</radialGradient>
								<circle style="fill:url(#SVGID_00000005956330329920823670000005942219257407764903_);" cx="424.9" cy="267.7" r="69.7"/>
								<g>
									
										<linearGradient id="SVGID_00000080180584512467638890000015464678496152058514_" gradientUnits="userSpaceOnUse" x1="415.1985" y1="24.7304" x2="434.6015" y2="-113.3302" gradientTransform="matrix(1 0 0 1 0 311.9999)">
										<stop  offset="0" style="stop-color:#42E8E0"/>
										<stop  offset="0" style="stop-color:#41E6DF"/>
										<stop  offset="0.14" style="stop-color:#3FB6CA"/>
										<stop  offset="0.27" style="stop-color:#3D8CB8"/>
										<stop  offset="0.41" style="stop-color:#3B6BAA"/>
										<stop  offset="0.55" style="stop-color:#3A519F"/>
										<stop  offset="0.69" style="stop-color:#393E97"/>
										<stop  offset="0.84" style="stop-color:#393392"/>
										<stop  offset="1" style="stop-color:#393091"/>
									</linearGradient>
									<circle style="fill:url(#SVGID_00000080180584512467638890000015464678496152058514_);" cx="424.9" cy="267.7" r="69.7"/>
								</g>
								<g>
									<path class="st27" d="M403.1,300.8c-1.8,13.7-12.1,18-23.1,9.6s-18.4-26.3-16.7-40s12.1-18,23.1-9.6
										C397.4,269.1,404.9,287,403.1,300.8L403.1,300.8z"/>
									<path class="st6" d="M394,288.9c-0.6,5-4.4,6.5-8.4,3.5s-6.7-9.6-6.1-14.5c0.6-5,4.4-6.5,8.4-3.5S394.7,283.9,394,288.9z"
										/>
									<path class="st31" d="M385.3,308.4c-11-8.4-18.4-26.3-16.7-40c0.7-5.6,2.9-9.6,5.9-11.9c-5.7,0.5-10.1,5.4-11.2,13.9
										c-1.8,13.7,5.7,31.6,16.7,40c6.5,5,12.8,5.5,17.2,2.2C393.6,312.9,389.5,311.6,385.3,308.4L385.3,308.4z"/>
									<path class="st6" d="M381,309.9c-11-8.4-18.4-26.3-16.7-40c0.8-6.4,3.5-10.7,7.2-12.7c-4.2,1.7-7.2,6.2-8.1,13.1
										c-1.8,13.7,5.7,31.6,16.7,40c5.9,4.5,11.6,5.3,15.9,3C391.7,315.1,386.4,314.1,381,309.9L381,309.9z"/>
								</g>
								
									<radialGradient id="SVGID_00000119100463542708879490000012387409241776454556_" cx="-155.4192" cy="-1157.3722" r="55.24" gradientTransform="matrix(0.981 0.1942 -0.1942 0.981 443.3056 1513.2733)" gradientUnits="userSpaceOnUse">
									<stop  offset="0" style="stop-color:#C0BFF6"/>
									<stop  offset="1" style="stop-color:#393091"/>
								</radialGradient>
								<path style="fill:url(#SVGID_00000119100463542708879490000012387409241776454556_);" d="M525.9,370.2
									c-2.8,14.3-16.8,23.7-31.1,20.8c-14.3-2.8-23.7-16.8-20.8-31.1c2.8-14.3,16.8-23.7,31.1-20.8
									C519.4,341.9,528.8,355.8,525.9,370.2z"/>
								<g>
									
										<linearGradient id="SVGID_00000182495170150549333360000007914467056221769872_" gradientUnits="userSpaceOnUse" x1="-185.3843" y1="-1117.9034" x2="-149.4102" y2="-1156.7571" gradientTransform="matrix(0.981 0.1942 -0.1942 0.981 443.3056 1513.2733)">
										<stop  offset="0" style="stop-color:#42E8E0"/>
										<stop  offset="0" style="stop-color:#41E6DF"/>
										<stop  offset="0.14" style="stop-color:#3FB6CA"/>
										<stop  offset="0.27" style="stop-color:#3D8CB8"/>
										<stop  offset="0.41" style="stop-color:#3B6BAA"/>
										<stop  offset="0.55" style="stop-color:#3A519F"/>
										<stop  offset="0.69" style="stop-color:#393E97"/>
										<stop  offset="0.84" style="stop-color:#393392"/>
										<stop  offset="1" style="stop-color:#393091"/>
									</linearGradient>
									<path style="fill:url(#SVGID_00000182495170150549333360000007914467056221769872_);" d="M525.9,370.2
										c-2.8,14.3-16.8,23.7-31.1,20.8c-14.3-2.8-23.7-16.8-20.8-31.1c2.8-14.3,16.8-23.7,31.1-20.8
										C519.4,341.9,528.8,355.8,525.9,370.2z"/>
								</g>
							</g>
							
								<radialGradient id="SVGID_00000118384319615576388690000003417313695615174568_" cx="886.3378" cy="-2059.0017" r="51.17" gradientTransform="matrix(0.9135 0.1089 -0.1788 1.4994 -627.0911 3425.7139)" gradientUnits="userSpaceOnUse">
								<stop  offset="0" style="stop-color:#C0BFF6"/>
								<stop  offset="1" style="stop-color:#393091"/>
							</radialGradient>
							<path style="fill:url(#SVGID_00000118384319615576388690000003417313695615174568_);" d="M542.2,452.8
								c-1.5,12.6-12.6,36.4-22.7,35.2s-15.2-27-13.8-39.6s10.9-21.8,20.9-20.6C536.7,429,543.7,440.2,542.2,452.8L542.2,452.8z"/>
							
								<linearGradient id="SVGID_00000118398414156581636010000014483238151778827171_" gradientUnits="userSpaceOnUse" x1="629.0839" y1="-135.1926" x2="669.0474" y2="-135.1926" gradientTransform="matrix(0.9135 0.1089 -0.1362 1.1419 -86.5728 541.7972)">
								<stop  offset="0" style="stop-color:#42E8E0"/>
								<stop  offset="0" style="stop-color:#41E6DF"/>
								<stop  offset="0.14" style="stop-color:#3FB6CA"/>
								<stop  offset="0.27" style="stop-color:#3D8CB8"/>
								<stop  offset="0.41" style="stop-color:#3B6BAA"/>
								<stop  offset="0.55" style="stop-color:#3A519F"/>
								<stop  offset="0.69" style="stop-color:#393E97"/>
								<stop  offset="0.84" style="stop-color:#393392"/>
								<stop  offset="1" style="stop-color:#393091"/>
							</linearGradient>
							<path style="fill:url(#SVGID_00000118398414156581636010000014483238151778827171_);" d="M542.2,452.8
								c-1.5,12.6-12.6,36.4-22.7,35.2s-15.2-27-13.8-39.6s10.9-21.8,20.9-20.6C536.7,429,543.7,440.2,542.2,452.8L542.2,452.8z"/>
						</g>
						<g>
							<g class="st1">
								
									<linearGradient id="SVGID_00000080165578876237071160000001460805294916261512_" gradientUnits="userSpaceOnUse" x1="512.0756" y1="374.0018" x2="683.5233" y2="472.9835" gradientTransform="matrix(1 0 0 1 0 311.9999)">
									<stop  offset="0" style="stop-color:#BCBEFF"/>
									<stop  offset="0.23" style="stop-color:#AAADF7"/>
									<stop  offset="0.68" style="stop-color:#7B82E5"/>
									<stop  offset="1" style="stop-color:#5761D7"/>
								</linearGradient>
								<path style="fill:url(#SVGID_00000080165578876237071160000001460805294916261512_);" d="M706.6,742.2v-18.8l-5.2-2.9
									c-1.5,8.9-11.9,14.7-20.7,16l-59.5,34.8l-26,9.4l-82.9-42.8l1.9-1.1c-7.1-3.3-10.9-10.9-14.7-17.8l-5.6,3.3l-3.3,0.9v19.3
									l0,0c0,3.7,2.4,7.4,7.3,10.2l83.1,48c9.7,5.6,25.6,5.6,35.3,0l83.1-48c4.8-2.8,7.2-6.4,7.3-10
									C706.6,742.5,706.6,742.4,706.6,742.2L706.6,742.2L706.6,742.2z"/>
								<path class="st3" d="M680.7,736.5l-59.5,34.8l-22.6,8.2V805c6.4,0,12.8-1.4,17.6-4.2l83.1-48c4.8-2.8,7.2-6.4,7.3-10
									c0-0.2,0-0.3,0-0.5l0,0v-18.8l-4.8-2.7h-0.5C699.7,729.5,689.3,735.2,680.7,736.5L680.7,736.5z"/>
								
									<linearGradient id="SVGID_00000029729230700119442250000005854933979707682992_" gradientUnits="userSpaceOnUse" x1="490.525" y1="411.3376" x2="706.575" y2="411.3376" gradientTransform="matrix(1 0 0 1 0 311.9999)">
									<stop  offset="0" style="stop-color:#E9E9FD"/>
									<stop  offset="0.36" style="stop-color:#D2D2F9"/>
									<stop  offset="0.71" style="stop-color:#C4C3F6"/>
									<stop  offset="1" style="stop-color:#C0BFF6"/>
								</linearGradient>
								<path style="fill:url(#SVGID_00000029729230700119442250000005854933979707682992_);" d="M580.9,781.5l-83.1-48
									c-9.7-5.6-9.7-14.8,0-20.4l83.1-48c9.7-5.6,25.6-5.6,35.3,0l83.1,48c9.7,5.6,9.7,14.8,0,20.4l-83.1,48
									C606.5,787.2,590.6,787.2,580.9,781.5L580.9,781.5z"/>
								<g class="st1">
									<path class="st5" d="M580.9,781.5l-83.1-48c-9.7-5.6-9.7-14.8,0-20.4l83.1-48c9.7-5.6,25.6-5.6,35.3,0l83.1,48
										c9.7,5.6,9.7,14.8,0,20.4l-83.1,48C606.5,787.2,590.6,787.2,580.9,781.5L580.9,781.5z"/>
								</g>
							</g>
							<g>
								<path class="st6" d="M598.5,720.9c-5.7,0-11.3-1.2-15.7-3.7l-83.1-48c-4.3-2.5-6.7-5.8-6.7-9.5s2.4-7,6.7-9.5l83.1-48
									c8.6-5,22.7-5,31.3,0l83.1,48c4.3,2.5,6.7,5.8,6.7,9.5s-2.4,7-6.7,9.5l-83.1,48C609.9,719.7,604.2,720.9,598.5,720.9
									L598.5,720.9z M598.5,600c-5.4,0-10.8,1.2-14.9,3.6l-83.1,48c-3.9,2.2-6,5.1-6,8.2s2.1,6,6,8.2l83.1,48
									c8.2,4.8,21.6,4.8,29.9,0l83.1-48c3.8-2.2,6-5.1,6-8.2s-2.1-6-6-8.2l-83.1-48C609.3,601.2,603.9,600,598.5,600L598.5,600z"
									/>
								<g>
									<path class="st7" d="M706.6,641.3v-28.5l-5.2-2.9c-1.5,8.9-11.9,14.7-20.7,16l-59.5,34.8l-26,9.4l-82.9-42.8l1.9-1.1
										c-7.1-3.3-10.9-10.9-14.7-17.8l-5.6,3.3l-3.3,0.9v28.9l0,0c0,3.7,2.4,7.4,7.3,10.2l83.1,48c9.7,5.6,25.6,5.6,35.3,0
										l83.1-48c4.8-2.8,7.2-6.4,7.3-10C706.6,641.6,706.6,641.5,706.6,641.3L706.6,641.3L706.6,641.3z"/>
									<g>
										
											<linearGradient id="SVGID_00000134972537909087764870000009367493891007904697_" gradientUnits="userSpaceOnUse" x1="512.0806" y1="247.7969" x2="683.5206" y2="346.7843" gradientTransform="matrix(1 0 0 1 0 311.9999)">
											<stop  offset="0" style="stop-color:#BCBEFF"/>
											<stop  offset="0.23" style="stop-color:#AAADF7"/>
											<stop  offset="0.68" style="stop-color:#7B82E5"/>
											<stop  offset="1" style="stop-color:#5761D7"/>
										</linearGradient>
										<path style="fill:url(#SVGID_00000134972537909087764870000009367493891007904697_);" d="M706.6,616v-18.8l-5.2-2.9
											c-1.5,8.9-11.9,14.7-20.7,16l-59.5,34.8l-26,9.4l-82.9-42.8l1.9-1.1c-7.1-3.3-10.9-10.9-14.7-17.8l-5.6,3.3l-3.3,0.9v19.3
											l0,0c0,3.7,2.4,7.4,7.3,10.2l83.1,48c9.7,5.6,25.6,5.6,35.3,0l83.1-48c4.8-2.8,7.2-6.4,7.3-10
											C706.6,616.4,706.6,616.2,706.6,616L706.6,616L706.6,616z"/>
										<path class="st3" d="M680.7,610.3l-59.5,34.8l-22.6,8.2v25.5c6.4,0,12.8-1.4,17.6-4.2l83.1-48c4.8-2.8,7.2-6.4,7.3-10
											c0-0.2,0-0.3,0-0.5l0,0v-18.8l-4.8-2.7h-0.5C699.7,603.3,689.3,609.1,680.7,610.3L680.7,610.3z"/>
										
											<linearGradient id="SVGID_00000097459152061593976220000008622220659667391653_" gradientUnits="userSpaceOnUse" x1="490.525" y1="285.2001" x2="706.575" y2="285.2001" gradientTransform="matrix(1 0 0 1 0 311.9999)">
											<stop  offset="0" style="stop-color:#E9E9FD"/>
											<stop  offset="0.36" style="stop-color:#D2D2F9"/>
											<stop  offset="0.71" style="stop-color:#C4C3F6"/>
											<stop  offset="1" style="stop-color:#C0BFF6"/>
										</linearGradient>
										<path style="fill:url(#SVGID_00000097459152061593976220000008622220659667391653_);" d="M580.9,655.4l-83.1-48
											c-9.7-5.6-9.7-14.8,0-20.4l83.1-48c9.7-5.6,25.6-5.6,35.3,0l83.1,48c9.7,5.6,9.7,14.8,0,20.4l-83.1,48
											C606.5,661,590.6,661,580.9,655.4z"/>
										<path class="st11" d="M699.3,607.4l-83.1,48c-9.7,5.6-25.6,5.6-35.3,0l-83.1-48c-4.4-2.5-6.8-5.7-7.2-9
											c-0.6,4.1,1.8,8.2,7.2,11.4l83.1,48c9.7,5.6,25.6,5.6,35.3,0l83.1-48c5.4-3.1,7.8-7.3,7.2-11.4
											C706,601.7,703.6,604.9,699.3,607.4L699.3,607.4z"/>
									</g>
								</g>
							</g>
						</g>
					</g>
				</g>
			</g>
		</g>
	</g>
</g>
</svg>
