<svg xmlns="http://www.w3.org/2000/svg" xmlns:xlink="http://www.w3.org/1999/xlink" viewBox="0 0 713.33 739.94"><defs><linearGradient id="linear-gradient" x1="-1192.03" y1="712.26" x2="-1192.03" y2="1522.96" gradientTransform="matrix(1 0 0 -1 1192.48 1616.34)" gradientUnits="userSpaceOnUse"><stop offset="0" stop-color="#fff"/><stop offset=".04" stop-color="#e9e8e7"/><stop offset=".15" stop-color="#b6b3b1"/><stop offset=".26" stop-color="#898482"/><stop offset=".37" stop-color="#635d5a"/><stop offset=".49" stop-color="#453d39"/><stop offset=".6" stop-color="#2d2420"/><stop offset=".73" stop-color="#1c120e"/><stop offset=".85" stop-color="#120803"/><stop offset="1" stop-color="#0f0500"/></linearGradient><linearGradient id="_Áåçûìÿííûé_ãðàäèåíò_54" data-name="Áåçûìÿííûé ãðàäèåíò 54" x1="532.15" y1="674.71" x2="626.19" y2="729" gradientUnits="userSpaceOnUse"><stop offset="0" stop-color="#bcbeff"/><stop offset=".23" stop-color="#aaadf7"/><stop offset=".68" stop-color="#7b82e5"/><stop offset="1" stop-color="#5761d7"/></linearGradient><linearGradient id="_Áåçûìÿííûé_ãðàäèåíò_55" data-name="Áåçûìÿííûé ãðàäèåíò 55" x1="520.36" y1="695.23" x2="638.88" y2="695.23" gradientUnits="userSpaceOnUse"><stop offset="0" stop-color="#e9e9fd"/><stop offset=".36" stop-color="#d2d2f9"/><stop offset=".71" stop-color="#c4c3f6"/><stop offset="1" stop-color="#c0bff6"/></linearGradient><linearGradient id="_Áåçûìÿííûé_ãðàäèåíò_54-2" data-name="Áåçûìÿííûé ãðàäèåíò 54" x1="532.15" y1="605.49" x2="626.19" y2="659.78" xlink:href="#_Áåçûìÿííûé_ãðàäèåíò_54"/><linearGradient id="_Áåçûìÿííûé_ãðàäèåíò_55-2" data-name="Áåçûìÿííûé ãðàäèåíò 55" y1="626.01" y2="626.01" xlink:href="#_Áåçûìÿííûé_ãðàäèåíò_55"/><linearGradient id="_Áåçûìÿííûé_ãðàäèåíò_54-3" data-name="Áåçûìÿííûé ãðàäèåíò 54" x1="32.33" y1="661.01" x2="126.37" y2="715.3" xlink:href="#_Áåçûìÿííûé_ãðàäèåíò_54"/><linearGradient id="_Áåçûìÿííûé_ãðàäèåíò_55-3" data-name="Áåçûìÿííûé ãðàäèåíò 55" x1="20.54" y1="681.53" x2="139.06" y2="681.53" xlink:href="#_Áåçûìÿííûé_ãðàäèåíò_55"/><linearGradient id="_Áåçûìÿííûé_ãðàäèåíò_54-4" data-name="Áåçûìÿííûé ãðàäèåíò 54" x1="32.33" y1="586.77" x2="126.37" y2="641.06" xlink:href="#_Áåçûìÿííûé_ãðàäèåíò_54"/><linearGradient id="_Áåçûìÿííûé_ãðàäèåíò_55-4" data-name="Áåçûìÿííûé ãðàäèåíò 55" x1="20.54" y1="607.29" x2="139.06" y2="607.29" xlink:href="#_Áåçûìÿííûé_ãðàäèåíò_55"/><linearGradient id="_Áåçûìÿííûé_ãðàäèåíò_54-5" data-name="Áåçûìÿííûé ãðàäèåíò 54" x1="563.6" y1="367.1" x2="657.64" y2="421.39" xlink:href="#_Áåçûìÿííûé_ãðàäèåíò_54"/><linearGradient id="_Áåçûìÿííûé_ãðàäèåíò_55-5" data-name="Áåçûìÿííûé ãðàäèåíò 55" x1="551.81" y1="387.62" x2="670.33" y2="387.62" xlink:href="#_Áåçûìÿííûé_ãðàäèåíò_55"/><linearGradient id="_Áåçûìÿííûé_ãðàäèåíò_54-6" data-name="Áåçûìÿííûé ãðàäèåíò 54" x1="563.6" y1="297.97" x2="657.64" y2="352.27" xlink:href="#_Áåçûìÿííûé_ãðàäèåíò_54"/><linearGradient id="_Áåçûìÿííûé_ãðàäèåíò_55-6" data-name="Áåçûìÿííûé ãðàäèåíò 55" x1="551.81" y1="318.5" x2="670.33" y2="318.5" xlink:href="#_Áåçûìÿííûé_ãðàäèåíò_55"/><linearGradient id="_Áåçûìÿííûé_ãðàäèåíò_24" data-name="Áåçûìÿííûé ãðàäèåíò 24" x1="527.37" y1="502.06" x2="66.55" y2="502.06" gradientUnits="userSpaceOnUse"><stop offset="0" stop-color="#5761d7"/><stop offset=".18" stop-color="#5b65d8"/><stop offset=".39" stop-color="#6a72de"/><stop offset=".61" stop-color="#8188e8"/><stop offset=".85" stop-color="#a2a6f5"/><stop offset="1" stop-color="#bcbeff"/></linearGradient><linearGradient id="_Áåçûìÿííûé_ãðàäèåíò_2" data-name="Áåçûìÿííûé ãðàäèåíò 2" x1="-2605.62" y1="491.33" x2="-2144.8" y2="491.33" gradientTransform="matrix(-1 0 0 1 -2224.45 0)" gradientUnits="userSpaceOnUse"><stop offset="0" stop-color="#c0bff6"/><stop offset=".29" stop-color="#c4c3f6"/><stop offset=".64" stop-color="#d2d2f9"/><stop offset="1" stop-color="#e9e9fd"/></linearGradient><linearGradient id="_Áåçûìÿííûé_ãðàäèåíò_2-2" data-name="Áåçûìÿííûé ãðàäèåíò 2" x1="-2804.07" y1="289.19" x2="-2477.96" y2="289.19" xlink:href="#_Áåçûìÿííûé_ãðàäèåíò_2"/><linearGradient id="_Áåçûìÿííûé_ãðàäèåíò_24-2" data-name="Áåçûìÿííûé ãðàäèåíò 24" x1="-2804.07" y1="372.82" x2="-2748.07" y2="372.82" gradientTransform="matrix(-1 0 0 1 -2224.45 0)" xlink:href="#_Áåçûìÿííûé_ãðàäèåíò_24"/><linearGradient id="_Áåçûìÿííûé_ãðàäèåíò_24-3" data-name="Áåçûìÿííûé ãðàäèåíò 24" x1="-2760.38" y1="464.07" x2="-2299.8" y2="464.07" gradientTransform="matrix(-1 0 0 1 -2224.45 0)" xlink:href="#_Áåçûìÿííûé_ãðàäèåíò_24"/><linearGradient id="_Áåçûìÿííûé_ãðàäèåíò_2-3" data-name="Áåçûìÿííûé ãðàäèåíò 2" y1="451.48" y2="451.48" xlink:href="#_Áåçûìÿííûé_ãðàäèåíò_2"/><linearGradient id="_Áåçûìÿííûé_ãðàäèåíò_56" data-name="Áåçûìÿííûé ãðàäèåíò 56" x1="74.54" y1="445.54" x2="536.68" y2="445.54" gradientUnits="userSpaceOnUse"><stop offset="0" stop-color="#42e8e0"/><stop offset=".11" stop-color="#36b5bf"/><stop offset=".22" stop-color="#2c87a0"/><stop offset=".34" stop-color="#235f86"/><stop offset=".46" stop-color="#1b3e71"/><stop offset=".58" stop-color="#162560"/><stop offset=".71" stop-color="#121355"/><stop offset=".85" stop-color="#0f084e"/><stop offset="1" stop-color="#0f054c"/></linearGradient><linearGradient id="_Áåçûìÿííûé_ãðàäèåíò_24-4" data-name="Áåçûìÿííûé ãðàäèåíò 24" x1="-2937.48" y1="362.71" x2="-2476.91" y2="362.71" gradientTransform="matrix(-1 0 0 1 -2224.45 0)" xlink:href="#_Áåçûìÿííûé_ãðàäèåíò_24"/><linearGradient id="_Áåçûìÿííûé_ãðàäèåíò_2-4" data-name="Áåçûìÿííûé ãðàäèåíò 2" x1="-2782.73" y1="350.11" x2="-2321.9" y2="350.11" xlink:href="#_Áåçûìÿííûé_ãðàäèåíò_2"/><linearGradient id="_Áåçûìÿííûé_ãðàäèåíò_41" data-name="Áåçûìÿííûé ãðàäèåíò 41" x1="563.54" y1="165.31" x2="483.72" y2="189.59" gradientUnits="userSpaceOnUse"><stop offset="0" stop-color="#bcbeff"/><stop offset=".15" stop-color="#a2a6f5"/><stop offset=".39" stop-color="#8188e8"/><stop offset=".61" stop-color="#6a72de"/><stop offset=".82" stop-color="#5b65d8"/><stop offset="1" stop-color="#5761d7"/></linearGradient><linearGradient id="_Áåçûìÿííûé_ãðàäèåíò_41-2" data-name="Áåçûìÿííûé ãðàäèåíò 41" x1="549.73" y1="170.38" x2="440.34" y2="183.41" xlink:href="#_Áåçûìÿííûé_ãðàäèåíò_41"/><linearGradient id="_Áåçûìÿííûé_ãðàäèåíò_89" data-name="Áåçûìÿííûé ãðàäèåíò 89" x1="-1020.41" y1="-247.9" x2="-984.77" y2="-286.39" gradientTransform="rotate(16.76 -2546.367 4084.87)" gradientUnits="userSpaceOnUse"><stop offset="0" stop-color="#2fd3c7"/><stop offset=".09" stop-color="#30b5bd"/><stop offset=".23" stop-color="#338caf"/><stop offset=".37" stop-color="#356ba4"/><stop offset=".52" stop-color="#36519c"/><stop offset=".67" stop-color="#383e95"/><stop offset=".83" stop-color="#383392"/><stop offset="1" stop-color="#393091"/></linearGradient><linearGradient id="_Áåçûìÿííûé_ãðàäèåíò_85" data-name="Áåçûìÿííûé ãðàäèåíò 85" x1="242.03" y1="2493.8" x2="305.97" y2="2493.8" gradientTransform="rotate(-57.51 -1748.452 1424.32)" gradientUnits="userSpaceOnUse"><stop offset="0" stop-color="#706ec4"/><stop offset=".02" stop-color="#6d6bc1"/><stop offset=".25" stop-color="#5651ac"/><stop offset=".49" stop-color="#463e9d"/><stop offset=".73" stop-color="#3c3393"/><stop offset="1" stop-color="#393091"/></linearGradient><linearGradient id="_Áåçûìÿííûé_ãðàäèåíò_89-2" data-name="Áåçûìÿííûé ãðàäèåíò 89" x1="1316.58" y1="648.42" x2="1316.58" y2="466.2" gradientTransform="matrix(.78 0 0 1.06 -707.74 -223.38)" xlink:href="#_Áåçûìÿííûé_ãðàäèåíò_89"/><linearGradient id="_Áåçûìÿííûé_ãðàäèåíò_89-3" data-name="Áåçûìÿííûé ãðàäèåíò 89" x1="308.24" y1="309.53" x2="331.68" y2="142.78" xlink:href="#_Áåçûìÿííûé_ãðàäèåíò_89"/><linearGradient id="_Áåçûìÿííûé_ãðàäèåíò_89-4" data-name="Áåçûìÿííûé ãðàäèåíò 89" x1="-357.84" y1="-207.52" x2="-314.4" y2="-254.43" gradientTransform="rotate(45 -692.723 968.275)" xlink:href="#_Áåçûìÿííûé_ãðàäèåíò_89"/><linearGradient id="_Áåçûìÿííûé_ãðàäèåíò_41-3" data-name="Áåçûìÿííûé ãðàäèåíò 41" x1="414.22" y1="263.61" x2="334.4" y2="287.89" xlink:href="#_Áåçûìÿííûé_ãðàäèåíò_41"/><linearGradient id="_Áåçûìÿííûé_ãðàäèåíò_41-4" data-name="Áåçûìÿííûé ãðàäèåíò 41" x1="400.41" y1="268.68" x2="291.02" y2="281.71" xlink:href="#_Áåçûìÿííûé_ãðàäèåíò_41"/><linearGradient id="_Áåçûìÿííûé_ãðàäèåíò_116" data-name="Áåçûìÿííûé ãðàäèåíò 116" x1="384" y1="300.84" x2="440.99" y2="206.57" gradientUnits="userSpaceOnUse"><stop offset="0" stop-color="#42e8e0"/><stop offset=".12" stop-color="#41e2dd"/><stop offset=".27" stop-color="#40d2d6"/><stop offset=".44" stop-color="#3fb8cb"/><stop offset=".62" stop-color="#3d94bc"/><stop offset=".81" stop-color="#3b65a8"/><stop offset="1" stop-color="#393091"/></linearGradient><linearGradient id="_Áåçûìÿííûé_ãðàäèåíò_89-5" data-name="Áåçûìÿííûé ãðàäèåíò 89" x1="-781.71" y1="-216.87" x2="-746.06" y2="-255.37" xlink:href="#_Áåçûìÿííûé_ãðàäèåíò_89"/><linearGradient id="_Áåçûìÿííûé_ãðàäèåíò_31" data-name="Áåçûìÿííûé ãðàäèåíò 31" x1="201.93" y1="265.89" x2="366.67" y2="265.89" gradientUnits="userSpaceOnUse"><stop offset="0" stop-color="#bcbeff"/><stop offset=".17" stop-color="#b5b8fc"/><stop offset=".4" stop-color="#a3a7f5"/><stop offset=".66" stop-color="#868ce9"/><stop offset=".96" stop-color="#5d67d9"/><stop offset="1" stop-color="#5761d7"/></linearGradient><linearGradient id="_Áåçûìÿííûé_ãðàäèåíò_31-2" data-name="Áåçûìÿííûé ãðàäèåíò 31" x1="157.69" y1="269.59" x2="353.86" y2="269.59" xlink:href="#_Áåçûìÿííûé_ãðàäèåíò_31"/><linearGradient id="_Áåçûìÿííûé_ãðàäèåíò_85-2" data-name="Áåçûìÿííûé ãðàäèåíò 85" x1="130.59" y1="269.59" x2="484.52" y2="269.59" xlink:href="#_Áåçûìÿííûé_ãðàäèåíò_85"/><radialGradient id="radial-gradient" cx="348.99" cy="353.95" fx="215.33" fy="353.95" r="355.17" gradientUnits="userSpaceOnUse"><stop offset=".11" stop-color="#5385e5"/><stop offset=".2" stop-color="#507fde" stop-opacity=".96"/><stop offset=".33" stop-color="#4971cd" stop-opacity=".84"/><stop offset=".51" stop-color="#3d5ab2" stop-opacity=".66"/><stop offset=".72" stop-color="#2c3a8c" stop-opacity=".4"/><stop offset=".95" stop-color="#18115c" stop-opacity=".08"/><stop offset="1" stop-color="#130851" stop-opacity="0"/></radialGradient><radialGradient id="_Áåçûìÿííûé_ãðàäèåíò_23" data-name="Áåçûìÿííûé ãðàäèåíò 23" cx="311.37" cy="432.87" fx="311.37" fy="432.87" r="291.74" gradientUnits="userSpaceOnUse"><stop offset="0" stop-color="#42e8e0"/><stop offset=".11" stop-color="#36b5bf"/><stop offset=".22" stop-color="#2c87a0"/><stop offset=".34" stop-color="#235f86"/><stop offset=".46" stop-color="#1b3e71"/><stop offset=".58" stop-color="#162560"/><stop offset=".71" stop-color="#121355"/><stop offset=".85" stop-color="#0f084e"/><stop offset="1" stop-color="#0f054c"/></radialGradient><radialGradient id="_Áåçûìÿííûé_ãðàäèåíò_16" data-name="Áåçûìÿííûé ãðàäèåíò 16" cx="-5666.71" cy="8478.29" fx="-5666.71" fy="8478.29" r="182.3" gradientTransform="matrix(-.78 0 0 -1.06 -4146.9 9590.2)" gradientUnits="userSpaceOnUse"><stop offset="0" stop-color="#c0bff6"/><stop offset="1" stop-color="#393091"/></radialGradient><radialGradient id="_Áåçûìÿííûé_ãðàäèåíò_16-2" data-name="Áåçûìÿííûé ãðàäèåíò 16" cx="2074.56" cy="1830.23" fx="2074.56" fy="1830.23" r="60.29" gradientTransform="rotate(-26.04 -2216.077 4759.768)" xlink:href="#_Áåçûìÿííûé_ãðàäèåíò_16"/><radialGradient id="_Áåçûìÿííûé_ãðàäèåíò_16-3" data-name="Áåçûìÿííûé ãðàäèåíò 16" cx="-258.41" cy="-531.62" fx="-258.41" fy="-531.62" r="184.53" gradientTransform="rotate(11.2 -3041.28 3862.4)" xlink:href="#_Áåçûìÿííûé_ãðàäèåíò_16"/><radialGradient id="_Áåçûìÿííûé_ãðàäèåíò_16-4" data-name="Áåçûìÿííûé ãðàäèåíò 16" cx="1571.07" cy="433.63" fx="1571.07" fy="433.63" r="182.3" gradientTransform="matrix(.78 0 0 1.06 -707.74 -223.38)" xlink:href="#_Áåçûìÿííûé_ãðàäèåíò_16"/><radialGradient id="_Áåçûìÿííûé_ãðàäèåíò_16-5" data-name="Áåçûìÿííûé ãðàäèåíò 16" cx="521.82" cy="115.38" fx="521.82" fy="115.38" r="142.28" xlink:href="#_Áåçûìÿííûé_ãðàäèåíò_16"/><radialGradient id="_Áåçûìÿííûé_ãðàäèåíò_16-6" data-name="Áåçûìÿííûé ãðàäèåíò 16" cx="-194.21" cy="-380.54" fx="-194.21" fy="-380.54" r="66.69" gradientTransform="rotate(62.76 -342.905 586.382)" xlink:href="#_Áåçûìÿííûé_ãðàäèåíò_16"/><radialGradient id="_Áåçûìÿííûé_ãðàäèåíò_16-7" data-name="Áåçûìÿííûé ãðàäèåíò 16" cx="2570.95" cy="2550.07" fx="2570.95" fy="2550.07" r="60.3" gradientTransform="rotate(-33.86 -2065.81 4748.79)" xlink:href="#_Áåçûìÿííûé_ãðàäèåíò_16"/><radialGradient id="_Áåçûìÿííûé_ãðàäèåíò_23-2" data-name="Áåçûìÿííûé ãðàäèåíò 23" cx="-4641.76" cy="-132.49" fx="-4641.76" fy="-132.49" r="215" gradientTransform="matrix(0 .41 -1 0 270.17 2111.47)" xlink:href="#_Áåçûìÿííûé_ãðàäèåíò_23"/><radialGradient id="_Áåçûìÿííûé_ãðàäèåíò_16-8" data-name="Áåçûìÿííûé ãðàäèåíò 16" cx="-992" cy="-287.09" fx="-992" fy="-287.09" r="60.3" gradientTransform="rotate(16.76 -2546.367 4084.87)" xlink:href="#_Áåçûìÿííûé_ãðàäèåíò_16"/><radialGradient id="_Áåçûìÿííûé_ãðàäèåíò_23-3" data-name="Áåçûìÿííûé ãðàäèåíò 23" cx="2509.65" cy="6859.15" fx="2509.65" fy="6859.15" r="39.13" gradientTransform="rotate(-95.11 -1626.126 4664.587)" xlink:href="#_Áåçûìÿííûé_ãðàäèåíò_23"/><radialGradient id="_Áåçûìÿííûé_ãðàäèåíò_16-9" data-name="Áåçûìÿííûé ãðàäèåíò 16" cx="-385.79" cy="-406.19" fx="-385.79" fy="-406.19" r="184.53" gradientTransform="rotate(67.36 -565.235 575.425)" xlink:href="#_Áåçûìÿííûé_ãðàäèåíò_16"/><radialGradient id="_Áåçûìÿííûé_ãðàäèåíò_16-10" data-name="Áåçûìÿííûé ãðàäèåíò 16" cx="1379.16" cy="526.44" fx="1379.16" fy="526.44" r="182.3" gradientTransform="matrix(.78 0 0 1.06 -707.74 -223.38)" xlink:href="#_Áåçûìÿííûé_ãðàäèåíò_16"/><radialGradient id="_Áåçûìÿííûé_ãðàäèåíò_23-4" data-name="Áåçûìÿííûé ãðàäèåíò 23" cx="314.5" cy="335.03" fx="314.5" fy="335.03" r="109.79" xlink:href="#_Áåçûìÿííûé_ãðàäèåíò_23"/><radialGradient id="_Áåçûìÿííûé_ãðàäèåíò_16-11" data-name="Áåçûìÿííûé ãðàäèåíò 16" cx="372.5" cy="213.68" fx="372.5" fy="213.68" r="142.28" xlink:href="#_Áåçûìÿííûé_ãðàäèåíò_16"/><radialGradient id="_Áåçûìÿííûé_ãðàäèåíò_8" data-name="Áåçûìÿííûé ãðàäèåíò 8" cx="293.75" cy="233.92" fx="293.75" fy="233.92" r="69.89" gradientUnits="userSpaceOnUse"><stop offset="0" stop-color="#42e8e0"/><stop offset=".06" stop-color="#3bcbcd"/><stop offset=".18" stop-color="#2f97ab"/><stop offset=".3" stop-color="#256a8e"/><stop offset=".42" stop-color="#1d4676"/><stop offset=".54" stop-color="#172a64"/><stop offset=".66" stop-color="#121657"/><stop offset=".78" stop-color="#0f0a4f"/><stop offset=".9" stop-color="#0f064d"/><stop offset="1" stop-color="#0f054c"/></radialGradient><radialGradient id="_Áåçûìÿííûé_ãðàäèåíò_16-12" data-name="Áåçûìÿííûé ãðàäèåíò 16" cx="-321.59" cy="-255.11" fx="-321.59" fy="-255.11" r="66.69" gradientTransform="rotate(45 -692.723 968.275)" xlink:href="#_Áåçûìÿííûé_ãðàäèåíò_16"/><radialGradient id="_Áåçûìÿííûé_ãðàäèåíò_23-5" data-name="Áåçûìÿííûé ãðàäèåíò 23" cx="418.02" cy="376.16" fx="418.02" fy="376.16" r="59.56" xlink:href="#_Áåçûìÿííûé_ãðàäèåíò_23"/><radialGradient id="_Áåçûìÿííûé_ãðàäèåíò_160" data-name="Áåçûìÿííûé ãðàäèåíò 160" cx="370.07" cy="-1243.79" fx="370.07" fy="-1243.79" r="56.14" gradientTransform="matrix(1 0 0 1.28 0 1785.94)" gradientUnits="userSpaceOnUse"><stop offset="0" stop-color="#2b237c"/><stop offset=".31" stop-color="#251c72"/><stop offset="1" stop-color="#0f054c"/></radialGradient><radialGradient id="_Áåçûìÿííûé_ãðàäèåíò_16-13" data-name="Áåçûìÿííûé ãðàäèåíò 16" cx="-753.29" cy="-256.07" fx="-753.29" fy="-256.07" r="60.3" gradientTransform="rotate(16.76 -2546.367 4084.87)" xlink:href="#_Áåçûìÿííûé_ãðàäèåíò_16"/><radialGradient id="_Áåçûìÿííûé_ãðàäèåíò_23-6" data-name="Áåçûìÿííûé ãðàäèåíò 23" cx="2391.96" cy="7069.13" fx="2391.96" fy="7069.13" r="39.13" gradientTransform="rotate(-95.11 -1626.126 4664.587)" xlink:href="#_Áåçûìÿííûé_ãðàäèåíò_23"/><clipPath id="clippath"><path class="cls-19" d="m77.73 415.78 279.43 161.33c3.06 1.77 7.69 1.96 10.33.43l166.74-96.27c2.65-1.53 2.32-4.2-.74-5.97L254.06 313.97c-3.06-1.77-7.69-1.96-10.33-.43L76.99 409.81c-2.65 1.53-2.32 4.2.74 5.97Z"/></clipPath><clipPath id="clippath-1"><path style="fill:none" d="M571.84 266.66 288.22 102.99l-35.64 211.87 283.44 163.57 35.82-211.77z"/></clipPath><style>.cls-4,.cls-5,.cls-6,.cls-7{fill:#42e8e0}.cls-4{opacity:.6}.cls-9{fill:#fff}.cls-11{fill:#bcbeff}.cls-13,.cls-19{mix-blend-mode:lighten}.cls-6{opacity:.8}.cls-24,.cls-25,.cls-26{fill:#0f054c}.cls-28{opacity:.51}.cls-19{opacity:.5}.cls-30{fill:#24126a}.cls-26,.cls-35{opacity:.3}.cls-5{opacity:.4}.cls-52{fill:#251c72}.cls-25{opacity:.67}.cls-28{fill:#453c9e}.cls-19{fill:url(#_Áåçûìÿííûé_ãðàäèåíò_23)}.cls-84{fill:#5351af}</style><mask id="mask" x="-851.49" y="0" width="1703.87" height="1601.09" maskUnits="userSpaceOnUse"><path transform="rotate(-180 .445 808.17)" style="fill:url(#linear-gradient)" d="M-851.49 15.25H852.38v1585.84H-851.49z"/></mask></defs><g style="isolation:isolate"><g id="Layer_2" data-name="Layer 2"><g style="mask:url(#mask)" id="Layer_3" data-name="Layer 3"><circle cx="356.67" cy="356.67" r="356.67" style="fill:url(#radial-gradient)"/><g class="cls-35"><path d="M638.88 705.56v-10.33l-2.86-1.59c-.81 4.87-6.54 8.09-11.34 8.75l-32.66 19.1-14.25 5.15-45.5-23.48 1.05-.61c-3.89-1.82-5.98-5.97-8.09-9.76l-3.06 1.83-1.82.51v10.59c0 2.02 1.33 4.05 4 5.59l45.58 26.32c5.34 3.08 14.02 3.08 19.36 0l45.58-26.32c2.62-1.52 3.96-3.5 4-5.49v-.27Z" style="fill:url(#_Áåçûìÿííûé_ãðàäèåíò_54)"/><path class="cls-26" d="m624.68 702.4-32.66 19.1-12.41 4.48v13.96c3.51 0 7.01-.77 9.68-2.31l45.58-26.32c2.62-1.52 3.96-3.5 4-5.49v-10.59l-2.61-1.45h-.27c-.89 4.8-6.56 7.95-11.31 8.62Z"/><path d="m569.94 727.14-45.58-26.32c-5.34-3.08-5.34-8.1 0-11.18l45.58-26.32c5.34-3.08 14.02-3.08 19.36 0l45.58 26.32c5.34 3.08 5.34 8.09 0 11.18l-45.58 26.32c-5.34 3.08-14.02 3.08-19.36 0Z" style="fill:url(#_Áåçûìÿííûé_ãðàäèåíò_55)"/><g class="cls-35"><path class="cls-24" d="m569.94 727.14-45.58-26.32c-5.34-3.08-5.34-8.1 0-11.18l45.58-26.32c5.34-3.08 14.02-3.08 19.36 0l45.58 26.32c5.34 3.08 5.34 8.09 0 11.18l-45.58 26.32c-5.34 3.08-14.02 3.08-19.36 0Z"/></g></g><path class="cls-7" d="M579.62 693.87c-3.11 0-6.22-.68-8.59-2.05l-45.58-26.32c-2.37-1.37-3.67-3.21-3.67-5.19s1.3-3.82 3.67-5.19l45.58-26.31c4.73-2.74 12.44-2.74 17.18 0l45.58 26.32c2.37 1.36 3.67 3.21 3.67 5.19s-1.3 3.82-3.67 5.19l-45.58 26.32c-2.37 1.37-5.48 2.05-8.59 2.05Zm-8.19-2.74c4.52 2.61 11.87 2.61 16.38 0l45.58-26.32c2.11-1.22 3.27-2.82 3.27-4.5s-1.16-3.28-3.27-4.5l-45.58-26.32c-4.52-2.61-11.87-2.6-16.38 0l-45.58 26.31c-2.11 1.22-3.27 2.82-3.27 4.5s1.16 3.28 3.27 4.5l45.58 26.32Z"/><path class="cls-5" d="M638.88 650.22v-15.61l-2.86-1.59c-.81 4.87-6.54 8.09-11.34 8.75l-32.66 19.1-14.25 5.15-45.5-23.48 1.05-.61c-3.89-1.82-5.98-5.97-8.09-9.76l-3.06 1.83-1.82.51v15.87c0 2.02 1.33 4.05 4 5.59l45.58 26.32c5.34 3.08 14.02 3.08 19.36 0l45.58-26.32c2.63-1.52 3.96-3.5 4-5.49v-.27Z"/><path d="M638.88 636.34v-10.33l-2.86-1.59c-.81 4.87-6.54 8.09-11.34 8.75l-32.66 19.1-14.25 5.15-45.5-23.48 1.05-.61c-3.89-1.82-5.98-5.97-8.09-9.76l-3.06 1.83-1.82.51v10.59c0 2.02 1.33 4.05 4 5.59l45.58 26.32c5.34 3.08 14.02 3.08 19.36 0l45.58-26.32c2.63-1.52 3.96-3.5 4-5.49v-.27Z" style="fill:url(#_Áåçûìÿííûé_ãðàäèåíò_54-2)"/><path class="cls-26" d="m624.68 633.18-32.66 19.1-12.41 4.48v13.96c3.51 0 7.01-.77 9.68-2.31l45.58-26.32c2.63-1.52 3.96-3.5 4-5.49v-10.59l-2.61-1.45h-.27c-.89 4.8-6.56 7.95-11.31 8.62Z"/><path d="m569.94 657.92-45.58-26.32c-5.34-3.08-5.34-8.09 0-11.18l45.58-26.32c5.34-3.08 14.02-3.08 19.36 0l45.58 26.32c5.34 3.08 5.34 8.09 0 11.18l-45.58 26.32c-5.34 3.08-14.02 3.08-19.36 0Z" style="fill:url(#_Áåçûìÿííûé_ãðàäèåíò_55-2)"/><path class="cls-9" d="m634.88 631.6-45.58 26.32c-5.34 3.08-14.02 3.08-19.36 0l-45.58-26.32c-2.39-1.38-3.7-3.14-3.95-4.94-.31 2.23 1 4.53 3.95 6.23l45.58 26.32c5.34 3.08 14.02 3.08 19.36 0l45.58-26.32c2.95-1.7 4.27-4 3.95-6.23-.25 1.8-1.57 3.57-3.95 4.94Z"/><g class="cls-35"><path d="M139.06 691.86v-10.33l-2.86-1.59c-.81 4.87-6.54 8.09-11.34 8.75l-32.66 19.1-14.25 5.15-45.5-23.48 1.05-.61c-3.89-1.82-5.98-5.97-8.09-9.76l-3.06 1.83-1.82.51v10.59c0 2.02 1.33 4.05 4 5.59l45.58 26.32c5.34 3.08 14.02 3.08 19.36 0l45.58-26.32c2.63-1.52 3.96-3.5 4-5.49v-.27Z" style="fill:url(#_Áåçûìÿííûé_ãðàäèåíò_54-3)"/><path class="cls-26" d="m124.87 688.69-32.66 19.1-12.41 4.48v13.96c3.51 0 7.01-.77 9.68-2.31l45.58-26.32c2.63-1.52 3.96-3.5 4-5.49v-10.59l-2.61-1.45h-.27c-.89 4.8-6.56 7.95-11.31 8.62Z"/><path d="m70.12 713.43-45.58-26.32c-5.34-3.08-5.34-8.09 0-11.18l45.58-26.32c5.34-3.08 14.02-3.08 19.36 0l45.58 26.32c5.34 3.08 5.34 8.09 0 11.18l-45.58 26.32c-5.34 3.08-14.02 3.08-19.36 0Z" style="fill:url(#_Áåçûìÿííûé_ãðàäèåíò_55-3)"/><g class="cls-35"><path class="cls-24" d="m70.12 713.43-45.58-26.32c-5.34-3.08-5.34-8.09 0-11.18l45.58-26.32c5.34-3.08 14.02-3.08 19.36 0l45.58 26.32c5.34 3.08 5.34 8.09 0 11.18l-45.58 26.32c-5.34 3.08-14.02 3.08-19.36 0Z"/></g></g><path class="cls-7" d="M79.8 675.15c-3.11 0-6.22-.68-8.59-2.05l-45.58-26.32c-2.37-1.37-3.67-3.21-3.67-5.19s1.3-3.82 3.67-5.19l45.58-26.31c4.74-2.74 12.44-2.74 17.18 0l45.58 26.32c2.36 1.36 3.67 3.21 3.67 5.19s-1.3 3.82-3.67 5.19L88.39 673.1c-2.37 1.37-5.48 2.05-8.59 2.05Zm0-66.33c-2.97 0-5.93.65-8.19 1.96l-45.58 26.31c-2.11 1.22-3.27 2.82-3.27 4.5s1.16 3.28 3.27 4.5l45.58 26.32c4.52 2.61 11.87 2.61 16.38 0l45.58-26.31c2.11-1.22 3.27-2.82 3.27-4.5 0-1.68-1.16-3.28-3.27-4.5l-45.58-26.32c-2.26-1.3-5.23-1.96-8.19-1.96Z"/><path class="cls-5" d="M139.06 631.49v-15.61l-2.86-1.59c-.81 4.87-6.54 8.09-11.34 8.75l-32.66 19.1-14.25 5.15-45.5-23.48 1.05-.61c-3.89-1.82-5.98-5.97-8.09-9.76l-3.06 1.83-1.82.51v15.87c0 2.02 1.33 4.05 4 5.59l45.58 26.32c5.34 3.08 14.02 3.08 19.36 0l45.58-26.32c2.63-1.52 3.96-3.5 4-5.49v-.27Z"/><path d="M139.06 617.62v-10.33l-2.86-1.59c-.81 4.87-6.54 8.09-11.34 8.75l-32.66 19.1-14.25 5.15-45.5-23.48 1.05-.61c-3.89-1.82-5.98-5.97-8.09-9.76l-3.06 1.83-1.82.51v10.59c0 2.02 1.33 4.05 4 5.59l45.58 26.32c5.34 3.08 14.02 3.08 19.36 0l45.58-26.32c2.63-1.52 3.96-3.5 4-5.49v-.27Z" style="fill:url(#_Áåçûìÿííûé_ãðàäèåíò_54-4)"/><path class="cls-26" d="m124.87 614.45-32.66 19.1-12.41 4.48v13.96c3.51 0 7.01-.77 9.68-2.31l45.58-26.32c2.63-1.52 3.96-3.5 4-5.49v-10.59l-2.61-1.45h-.27c-.89 4.8-6.56 7.95-11.31 8.62Z"/><path d="m70.12 639.19-45.58-26.32c-5.34-3.08-5.34-8.1 0-11.18l45.58-26.32c5.34-3.08 14.02-3.08 19.36 0l45.58 26.32c5.34 3.08 5.34 8.09 0 11.18l-45.58 26.32c-5.34 3.08-14.02 3.08-19.36 0Z" style="fill:url(#_Áåçûìÿííûé_ãðàäèåíò_55-4)"/><path class="cls-84" d="M79.8 634.41c-2.81 0-5.62-.62-7.76-1.85L36.43 612c-2.15-1.24-3.33-2.91-3.33-4.71 0-1.8 1.18-3.47 3.33-4.71l35.61-20.56c4.28-2.47 11.24-2.47 15.52 0l35.61 20.56c2.14 1.24 3.33 2.91 3.33 4.71s-1.18 3.47-3.33 4.71l-35.61 20.56c-2.14 1.23-4.95 1.85-7.76 1.85Zm-7.36-2.54c4.06 2.34 10.66 2.34 14.72 0l35.61-20.56c1.89-1.09 2.93-2.52 2.93-4.02 0-1.5-1.04-2.93-2.93-4.02l-35.61-20.56c-4.06-2.34-10.66-2.34-14.72 0l-35.61 20.56c-1.89 1.09-2.93 2.52-2.93 4.02s1.04 2.93 2.93 4.02l35.61 20.56Z"/><path class="cls-9" d="M135.06 612.88 89.48 639.2c-5.34 3.08-14.02 3.08-19.36 0l-45.58-26.32c-2.39-1.38-3.7-3.14-3.95-4.94-.31 2.23 1 4.53 3.95 6.23l45.58 26.32c5.34 3.08 14.02 3.08 19.36 0l45.58-26.32c2.95-1.7 4.27-4 3.95-6.23-.25 1.8-1.57 3.57-3.95 4.94Z"/><g class="cls-35"><path d="M670.33 397.95v-10.33l-2.86-1.59c-.81 4.87-6.54 8.09-11.34 8.75l-32.66 19.1-14.25 5.15-45.5-23.48 1.05-.61c-3.89-1.82-5.98-5.97-8.09-9.76l-3.06 1.83-1.82.51v10.59c0 2.02 1.33 4.05 4 5.59l45.58 26.32c5.34 3.08 14.02 3.08 19.36 0l45.58-26.32c2.63-1.52 3.96-3.5 4-5.49v-.27Z" style="fill:url(#_Áåçûìÿííûé_ãðàäèåíò_54-5)"/><path class="cls-26" d="m656.14 394.79-32.66 19.1-12.41 4.48v13.96c3.51 0 7.01-.77 9.68-2.31l45.58-26.32c2.63-1.52 3.96-3.5 4-5.49v-10.59l-2.61-1.45h-.27c-.89 4.8-6.56 7.95-11.31 8.62Z"/><path d="m601.39 419.53-45.58-26.32c-5.34-3.08-5.34-8.1 0-11.18l45.58-26.32c5.34-3.08 14.02-3.08 19.36 0l45.58 26.32c5.34 3.08 5.34 8.09 0 11.18l-45.58 26.32c-5.34 3.08-14.02 3.08-19.36 0Z" style="fill:url(#_Áåçûìÿííûé_ãðàäèåíò_55-5)"/><g class="cls-35"><path class="cls-24" d="m601.39 419.53-45.58-26.32c-5.34-3.08-5.34-8.1 0-11.18l45.58-26.32c5.34-3.08 14.02-3.08 19.36 0l45.58 26.32c5.34 3.08 5.34 8.09 0 11.18l-45.58 26.32c-5.34 3.08-14.02 3.08-19.36 0Z"/></g></g><path class="cls-7" d="M611.07 386.35c-3.11 0-6.22-.68-8.59-2.05l-45.58-26.32c-2.37-1.37-3.67-3.21-3.67-5.19s1.3-3.82 3.67-5.19l45.58-26.31c4.74-2.74 12.44-2.73 17.18 0l45.58 26.32c2.37 1.37 3.67 3.21 3.67 5.19s-1.3 3.82-3.67 5.19l-45.58 26.32c-2.37 1.37-5.48 2.05-8.59 2.05Zm-8.19-2.74c4.52 2.61 11.87 2.61 16.38 0l45.58-26.32c2.11-1.22 3.27-2.82 3.27-4.5s-1.16-3.28-3.27-4.5l-45.58-26.32c-4.51-2.61-11.86-2.61-16.38 0l-45.58 26.31c-2.11 1.22-3.27 2.82-3.27 4.5s1.16 3.28 3.27 4.5l45.58 26.32Z"/><path class="cls-5" d="M670.33 342.7v-15.61l-2.86-1.59c-.81 4.87-6.54 8.09-11.34 8.75l-32.66 19.1-14.25 5.15-45.5-23.48 1.05-.61c-3.89-1.82-5.98-5.97-8.09-9.76l-3.06 1.83-1.82.51v15.87c0 2.02 1.33 4.05 4 5.59l45.58 26.32c5.34 3.08 14.02 3.08 19.36 0l45.58-26.32c2.63-1.52 3.96-3.5 4-5.49v-.27Z"/><path d="M670.33 328.82v-10.33l-2.86-1.59c-.81 4.87-6.54 8.09-11.34 8.75l-32.66 19.1-14.25 5.15-45.5-23.48 1.05-.61c-3.89-1.82-5.98-5.97-8.09-9.76l-3.06 1.83-1.82.51v10.59c0 2.02 1.33 4.05 4 5.59l45.58 26.32c5.34 3.08 14.02 3.08 19.36 0l45.58-26.32c2.63-1.52 3.96-3.5 4-5.49v-.27Z" style="fill:url(#_Áåçûìÿííûé_ãðàäèåíò_54-6)"/><path class="cls-26" d="m656.14 325.66-32.66 19.1-12.41 4.48v13.96c3.51 0 7.01-.77 9.68-2.31l45.58-26.32c2.63-1.52 3.96-3.5 4-5.49v-10.59l-2.61-1.45h-.27c-.89 4.8-6.56 7.95-11.31 8.62Z"/><path d="m601.39 350.4-45.58-26.32c-5.34-3.08-5.34-8.09 0-11.18l45.58-26.32c5.34-3.08 14.02-3.08 19.36 0l45.58 26.32c5.34 3.08 5.34 8.09 0 11.18l-45.58 26.32c-5.34 3.08-14.02 3.08-19.36 0Z" style="fill:url(#_Áåçûìÿííûé_ãðàäèåíò_55-6)"/><path class="cls-84" d="M611.07 345.62c-2.81 0-5.62-.62-7.76-1.85l-35.61-20.56c-2.15-1.24-3.33-2.91-3.33-4.71s1.18-3.47 3.33-4.71l35.61-20.56c4.28-2.47 11.24-2.47 15.52 0l35.61 20.56c2.14 1.24 3.32 2.91 3.32 4.71s-1.18 3.47-3.32 4.71l-35.61 20.56c-2.14 1.24-4.95 1.85-7.76 1.85Zm0-53.46c-2.67 0-5.33.59-7.36 1.76l-35.61 20.56c-1.89 1.09-2.93 2.52-2.93 4.02s1.04 2.93 2.93 4.02l35.61 20.56c4.06 2.34 10.67 2.34 14.72 0l35.61-20.56c1.89-1.09 2.93-2.52 2.93-4.02s-1.04-2.93-2.93-4.02l-35.61-20.56c-2.03-1.17-4.7-1.76-7.36-1.76Z"/><path class="cls-9" d="m666.33 324.08-45.58 26.32c-5.34 3.08-14.02 3.08-19.36 0l-45.58-26.32c-2.39-1.38-3.7-3.14-3.95-4.94-.31 2.23 1 4.53 3.95 6.23l45.58 26.32c5.34 3.08 14.02 3.08 19.36 0l45.58-26.32c2.95-1.7 4.27-4 3.95-6.23-.25 1.8-1.57 3.57-3.95 4.94Z"/><path class="cls-7" d="M363 652.7c-2.12 0-4.35-.51-6.08-1.51L77.49 489.86c-1.76-1.01-2.77-2.39-2.77-3.79 0-1.18.72-2.25 2.03-3l166.74-96.27c2.77-1.6 7.63-1.41 10.81.43l279.43 161.33c1.76 1.01 2.77 2.39 2.77 3.79 0 1.18-.72 2.25-2.03 3l-166.74 96.27c-1.26.73-2.95 1.09-4.72 1.09ZM248.22 386.65c-1.6 0-3.12.32-4.25.98L77.23 483.9c-1 .58-1.55 1.35-1.55 2.18 0 1.04.83 2.12 2.29 2.96L357.4 650.37c2.93 1.68 7.35 1.88 9.86.43L534 554.53c1-.58 1.55-1.35 1.55-2.18 0-1.04-.84-2.12-2.29-2.96L253.83 388.06c-1.61-.93-3.67-1.4-5.61-1.4Z"/><path d="m536.02 524.45-15.39-2.21-266.57-153.9c-3.06-1.77-7.69-1.96-10.33-.43L84.97 459.57l-9.77-1.41v12.97h.03c.02 1.17.84 2.39 2.5 3.34L357.16 635.8c3.06 1.77 7.69 1.96 10.33.43l166.74-96.27c1.22-.7 1.78-1.65 1.76-2.64h.03v-12.87Z" style="fill:url(#_Áåçûìÿííûé_ãðàäèåíò_24)"/><path d="M77.73 461.57 357.16 622.9c3.06 1.77 7.69 1.96 10.33.43l166.74-96.27c2.65-1.53 2.32-4.2-.74-5.97L254.06 359.76c-3.06-1.77-7.69-1.96-10.33-.43L76.99 455.6c-2.65 1.53-2.32 4.2.74 5.97Z" style="fill:url(#_Áåçûìÿííûé_ãðàäèåíò_2)"/><path d="m101.93 464.73 249.76 144.2c2.73 1.58 6.87 1.75 9.24.38l149.04-86.05c2.37-1.37 2.07-3.75-.66-5.33l-249.76-144.2c-2.73-1.58-6.87-1.75-9.24-.38L101.27 459.4c-2.37 1.37-2.07 3.75.66 5.33Z" style="opacity:.3;fill:#24126a"/><path class="cls-9" d="M534.24 525.66 367.5 621.93c-2.65 1.53-7.28 1.34-10.33-.43L77.73 460.17c-1.34-.77-2.13-1.72-2.4-2.67-.42 1.36.38 2.91 2.4 4.08l279.43 161.33c3.06 1.77 7.69 1.96 10.33.43l166.74-96.27c1.49-.86 2-2.08 1.65-3.29-.22.71-.75 1.37-1.65 1.89Z"/><path d="m253.56 309.47 35.32-209.56-2.84-1.2 4.27-2.45v.02c.82-.55 1.99-.52 3.28.23l282.3 162.98c2.32 1.34 4.07 4.77 3.67 7.17l-35.6 211.23c-.19 1.1-.73 1.83-1.49 2.15s-4.18 2.41-4.18 2.41l-.72-3.9.24.07-280.59-162c-2.32-1.34-4.07-4.77-3.67-7.17Z" style="fill:url(#_Áåçûìÿííûé_ãðàäèåíò_2-2)"/><path d="m574.32 265.23 4.64-2.05c.52 1.19.78 2.44.6 3.49l-35.6 211.23c-.19 1.1-.73 1.83-1.49 2.15s-4.18 2.41-4.18 2.41l-.72-3.9.24.07-14.2-8.2 50.7-205.21Z" style="fill:url(#_Áåçûìÿííûé_ãðàäèåíò_24-2)"/><path class="cls-30" d="m252.8 319.18 282.3 162.98c2.18 1.26 4.05.53 4.43-1.72l35.6-211.23c.41-2.4-1.35-5.83-3.67-7.17L289.17 99.06c-2.18-1.26-4.05-.53-4.43 1.73l-35.6 211.23c-.41 2.4 1.35 5.83 3.67 7.17Z"/><g style="opacity:.51"><path style="fill:#453c9e" d="m288.22 102.99 283.62 163.67-35.82 211.77-283.44-163.57 35.64-211.87z"/></g><path d="m75.35 419.19 15.41 8.05 154.48-89.19c2.58-1.49 7.1-1.3 10.08.42L521.75 492.3c2.55-1.43 14.17-7.02 14.17-7.02l-5.64 9.17-.02-.02c-.23.65-.73 1.26-1.58 1.75l-162.7 93.93c-2.58 1.49-7.1 1.31-10.08-.42L83.26 432.27c-1.23-.71-1.98-1.56-2.29-2.43h-.02l-5.6-10.65Z" style="fill:url(#_Áåçûìÿííûé_ãðàäèåíò_24-3)"/><path d="m77.73 421.72 279.43 161.33c3.06 1.77 7.69 1.96 10.33.43l166.74-96.27c2.65-1.53 2.32-4.2-.74-5.97L254.06 319.91c-3.06-1.77-7.69-1.96-10.33-.43L76.99 415.75c-2.65 1.53-2.32 4.2.74 5.97Z" style="fill:url(#_Áåçûìÿííûé_ãðàäèåíò_2-3)"/><path class="cls-30" d="m77.73 421.72 279.43 161.33c3.06 1.77 7.69 1.96 10.33.43l166.74-96.27c2.65-1.53 2.32-4.2-.74-5.97L254.06 319.91c-3.06-1.77-7.69-1.96-10.33-.43L76.99 415.75c-2.65 1.53-2.32 4.2.74 5.97Z"/><path class="cls-28" d="m77.73 421.72 279.43 161.33c3.06 1.77 7.69 1.96 10.33.43l166.74-96.27c2.65-1.53 2.32-4.2-.74-5.97L254.06 319.91c-3.06-1.77-7.69-1.96-10.33-.43L76.99 415.75c-2.65 1.53-2.32 4.2.74 5.97Z"/><g class="cls-35"><path class="cls-19" d="m77.73 415.78 279.43 161.33c3.06 1.77 7.69 1.96 10.33.43l166.74-96.27c2.65-1.53 2.32-4.2-.74-5.97L254.06 313.97c-3.06-1.77-7.69-1.96-10.33-.43L76.99 409.81c-2.65 1.53-2.32 4.2.74 5.97Z"/><g style="clip-path:url(#clippath)"><path d="M228.53 593.16c0-62.06 36.95-112.36 82.54-112.36s82.54 50.31 82.54 112.36-36.95 80.65-82.54 80.65-82.54-18.6-82.54-80.65Z" style="fill:url(#_Áåçûìÿííûé_ãðàäèåíò_16)"/></g></g><path d="M362.99 579.24c-2.14 0-4.38-.53-6.16-1.56L77.4 416.35c-1.82-1.05-2.86-2.49-2.86-3.95 0-1.25.75-2.37 2.12-3.16l166.74-96.27c2.87-1.66 7.7-1.47 10.99.43l279.43 161.33c1.82 1.05 2.86 2.49 2.86 3.95 0 1.25-.75 2.37-2.12 3.16l-166.74 96.27c-1.31.76-3.03 1.13-4.83 1.13ZM78.06 415.21l279.43 161.33c2.87 1.65 7.21 1.85 9.67.43L533.9 480.7c.67-.38 1.46-1.05 1.46-2.02s-.8-2-2.2-2.8L253.73 314.55c-2.87-1.66-7.21-1.85-9.68-.43L77.31 410.39c-.67.38-1.46 1.05-1.46 2.02 0 .98.8 2 2.2 2.81Z" style="opacity:.8;mix-blend-mode:lighten;fill:url(#_Áåçûìÿííûé_ãðàäèåíò_56)"/><path class="cls-9" d="M77.73 420.47 357.16 581.8c3.06 1.77 7.69 1.96 10.33.43l166.74-96.27c.93-.54 1.47-1.22 1.68-1.95.3 1.19-.23 2.37-1.68 3.21l-166.74 96.27c-2.65 1.53-7.28 1.34-10.33-.43L77.73 421.72c-1.98-1.14-2.8-2.67-2.42-4.01.24.98 1.04 1.96 2.42 2.76Z"/><g style="opacity:.15"><g style="clip-path:url(#clippath-1)"><path d="m252.46 317.82 15.41 8.05 154.48-89.19c2.58-1.49 7.1-1.3 10.08.42l266.43 153.83c2.55-1.43 14.17-7.02 14.17-7.02l-5.64 9.17-.02-.02c-.23.65-.73 1.26-1.58 1.75l-162.7 93.93c-2.58 1.49-7.1 1.31-10.08-.42L260.36 330.91c-1.23-.71-1.98-1.56-2.29-2.43h-.02l-5.6-10.65Z" style="fill:url(#_Áåçûìÿííûé_ãðàäèåíò_24-4)"/><path d="m254.84 320.35 279.43 161.33c3.06 1.77 7.69 1.96 10.33.43l166.74-96.27c2.65-1.53 2.32-4.2-.74-5.97L431.17 218.54c-3.06-1.77-7.69-1.96-10.33-.43L254.1 314.38c-2.65 1.53-2.32 4.2.74 5.97Z" style="fill:url(#_Áåçûìÿííûé_ãðàäèåíò_2-4)"/><path class="cls-30" d="m254.84 320.35 279.43 161.33c3.06 1.77 7.69 1.96 10.33.43l166.74-96.27c2.65-1.53 2.32-4.2-.74-5.97L431.17 218.54c-3.06-1.77-7.69-1.96-10.33-.43L254.1 314.38c-2.65 1.53-2.32 4.2.74 5.97Z"/><path class="cls-28" d="m254.84 320.35 279.43 161.33c3.06 1.77 7.69 1.96 10.33.43l166.74-96.27c2.65-1.53 2.32-4.2-.74-5.97L431.17 218.54c-3.06-1.77-7.69-1.96-10.33-.43L254.1 314.38c-2.65 1.53-2.32 4.2.74 5.97Z"/><path class="cls-9" d="M710.6 379.87 431.17 218.54c-1.97-1.14-4.58-1.61-6.9-1.4 1.72.13 3.45.6 4.85 1.4l279.43 161.33c3.06 1.77 3.39 4.44.74 5.97l-166.74 96.27c-.94.54-2.14.86-3.43.98 2.03.16 4.05-.15 5.49-.98l166.74-96.27c2.65-1.53 2.32-4.2-.74-5.97Z"/><path d="M369.52 251.54c5.15 10.53 6.65 38.87-3.88 44.02-10.53 5.15-29.11-14.85-34.26-25.38-5.15-10.53-.78-23.24 9.75-28.39 10.53-5.15 23.24-.78 28.39 9.75Z" style="fill:url(#_Áåçûìÿííûé_ãðàäèåíò_16-2)"/><path class="cls-52" d="M335.79 246.91c3.97-4.39 11.88-6.95 17.67-5.71 5.79 1.24 7.26 5.81 3.29 10.2-3.97 4.39-11.88 6.95-17.67 5.71-5.79-1.24-7.26-5.81-3.29-10.2Z"/><path class="cls-7" d="M335.01 255.13c.17-1.36.87-2.81 2.18-4.26 3.97-4.39 11.88-6.95 17.67-5.71 1.78.38 3.15 1.08 4.08 1.99.35-2.77-1.58-5.11-5.47-5.94-5.79-1.24-13.7 1.31-17.67 5.71-2.75 3.04-2.88 6.17-.78 8.21Z"/><path d="M420.48 200.92c-3.43 17.32-20.25 28.58-37.57 25.15-17.32-3.43-28.58-20.25-25.15-37.57 3.43-17.32 20.25-28.58 37.57-25.15 17.32 3.43 28.58 20.25 25.15 37.57Z" style="fill:url(#_Áåçûìÿííûé_ãðàäèåíò_16-3)"/><path d="M548.55 252.77c0 62.06-36.95 112.36-82.54 112.36s-82.54-50.31-82.54-112.36 36.95-80.65 82.54-80.65 82.54 18.6 82.54 80.65Z" style="fill:url(#_Áåçûìÿííûé_ãðàäèåíò_16-4)"/><ellipse class="cls-52" cx="466.01" cy="205.48" rx="56.33" ry="32.52"/><path class="cls-7" d="M426.17 191.14c22-12.7 57.67-12.7 79.66 0 9.09 5.25 14.41 11.84 15.99 18.67 2.25-9.7-3.08-19.87-15.99-27.33-22-12.7-57.67-12.7-79.66 0-12.91 7.45-18.23 17.63-15.99 27.33 1.58-6.83 6.9-13.42 15.99-18.66Z"/><ellipse class="cls-11" cx="417.67" cy="99.03" rx="33.6" ry="19.4" transform="rotate(-60 417.657 99.037)"/><circle cx="469.28" cy="127.85" r="84.18" style="fill:url(#_Áåçûìÿííûé_ãðàäèåíò_16-5)"/><circle cx="556.73" cy="274.12" r="31.97" transform="rotate(-51.56 556.737 274.12)" style="fill:url(#_Áåçûìÿííûé_ãðàäèåíò_16-6)"/><path class="cls-52" d="M587.45 274.74c0 9.01-6.33 19.97-14.13 24.48-7.8 4.51-14.13.85-14.13-8.16s6.33-19.97 14.13-24.48c7.8-4.51 14.13-.85 14.13 8.16Z"/><path class="cls-7" d="M579.95 264.66c1.19 1.7 1.88 4.07 1.88 7.03 0 9.01-6.33 19.97-14.13 24.48-2.4 1.38-4.65 1.99-6.63 1.92 2.44 3.49 7.01 4.16 12.25 1.13 7.8-4.51 14.13-15.46 14.13-24.48 0-6.24-3.04-9.91-7.5-10.08Z"/><path class="cls-52" d="m540.33 158.65-30.49 17.6v-35.21l30.49-17.6v35.21z"/><path style="fill:#141059" d="M535.8 126.05v30.14l-25.96 14.99v5.07l30.49-17.6v-35.21l-4.53 2.61z"/><path class="cls-7" d="m515.66 150.66-2.73 1.58v-3.16l2.73-1.57v3.15zM521.46 143.27l-2.73 1.58v-3.16l2.73-1.57v3.15zM527.25 143.97l-2.73 1.57v-3.15l2.73-1.58v3.16zM527.25 152.24l-2.73 1.58v-3.16l2.73-1.58v3.16zM523.76 158.6l-2.73 1.58v-3.16l2.73-1.58v3.16zM533.23 148.79l-2.73 1.57v-3.15l2.73-1.58v3.16z"/><path style="fill:url(#_Áåçûìÿííûé_ãðàäèåíò_41)" d="m564.91 149.36 3.33-5.78-3.33-1.92-30.5 17.6v35.21l3.34 1.92 3.34-5.77 23.82-13.75v-27.51z"/><path style="fill:url(#_Áåçûìÿííûé_ãðàäèåíò_41-2)" d="m568.24 178.79-30.49 17.6v-35.21l30.49-17.6v35.21z"/><path d="M576.76 344.87c6.53 9.73 11.88 37.61 2.14 44.14-9.73 6.53-30.86-10.75-37.39-20.49-6.53-9.73-3.93-22.92 5.8-29.45 9.73-6.53 22.92-3.93 29.45 5.8Z" style="fill:url(#_Áåçûìÿííûé_ãðàäèåíò_16-7)"/><path class="cls-52" d="M542.71 344.87c3.33-4.89 10.82-8.5 16.73-8.06 5.9.44 7.99 4.77 4.65 9.66-3.33 4.89-10.82 8.5-16.73 8.06-5.9-.44-7.99-4.77-4.65-9.66Z"/><path class="cls-7" d="M543.06 353.12c-.02-1.37.48-2.91 1.58-4.51 3.33-4.89 10.82-8.5 16.73-8.06 1.81.14 3.26.64 4.31 1.41-.03-2.8-2.26-4.85-6.23-5.15-5.9-.44-13.39 3.17-16.73 8.06-2.31 3.39-2.02 6.5.34 8.24Z"/></g></g><path class="cls-7" d="M523.95 276.95c-.67 0-1.38-.2-2.06-.59-2.1-1.21-3.4-3.95-2.9-6.11.24-1.04.86-1.83 1.74-2.21.97-.42 2.17-.3 3.29.35 2.09 1.21 3.39 3.95 2.9 6.11-.24 1.04-.86 1.82-1.74 2.21-.38.16-.79.25-1.22.25Zm-2-8.21c-.3 0-.58.06-.84.17-.6.26-1.02.81-1.19 1.55-.41 1.78.68 4.06 2.44 5.07.85.49 1.74.6 2.43.3.6-.26 1.02-.81 1.19-1.55.41-1.78-.69-4.06-2.44-5.07-.54-.31-1.08-.47-1.59-.47ZM535.25 283.47c-.67 0-1.39-.2-2.07-.59-2.1-1.21-3.4-3.95-2.9-6.11.24-1.04.86-1.82 1.74-2.21.97-.42 2.17-.3 3.28.35 2.1 1.21 3.4 3.95 2.9 6.11-.24 1.04-.86 1.82-1.74 2.21-.38.16-.79.25-1.22.25Zm-2-8.21c-.3 0-.58.05-.84.17-.6.26-1.02.81-1.19 1.55-.41 1.78.68 4.06 2.44 5.07.86.49 1.75.6 2.44.3.6-.26 1.02-.81 1.19-1.55.41-1.78-.69-4.06-2.45-5.08-.53-.31-1.08-.47-1.59-.47ZM549.03 287.43c-.46 1.97-2.39 2.67-4.32 1.56-1.93-1.12-3.13-3.62-2.67-5.59.46-1.97 2.39-2.67 4.32-1.56 1.93 1.11 3.13 3.62 2.67 5.59ZM332.46 162.8l-6.04-3.49.47-2.8 6.04 3.49-.47 2.8zM341.24 167.87l-6.04-3.49.47-2.8 6.04 3.49-.47 2.8zM323.77 157.78l-13.25-7.65.47-2.79 13.25 7.64-.47 2.8z"/><g style="opacity:.5"><ellipse class="cls-25" cx="316.69" cy="457.5" rx="100.19" ry="57.85"/><ellipse class="cls-25" cx="316.69" cy="457.5" rx="82.79" ry="47.8"/><ellipse cx="316.69" cy="457.5" rx="65.48" ry="37.81" style="fill:#080344;opacity:.9"/></g><ellipse cx="402.66" cy="210.41" rx="180.89" ry="74.09" transform="rotate(-45 402.661 210.402)" style="fill:url(#_Áåçûìÿííûé_ãðàäèåíò_23-2);opacity:.5;mix-blend-mode:lighten"/><path class="cls-5" d="M408.9 238.57a4.776 4.776 0 0 0 .21-6.76 4.776 4.776 0 0 0-6.76-.21 4.776 4.776 0 0 0-.21 6.76 4.776 4.776 0 0 0 6.76.21Z"/><path class="cls-7" d="M464.2 234.44a4.776 4.776 0 0 0 .21-6.76 4.776 4.776 0 0 0-6.76-.21 4.776 4.776 0 0 0-.21 6.76 4.776 4.776 0 0 0 6.76.21Z"/><path class="cls-5" d="M450.55 160.33c2.07-1.94 2.17-5.2.23-7.27a5.148 5.148 0 0 0-7.27-.23 5.148 5.148 0 0 0-.23 7.27 5.148 5.148 0 0 0 7.27.23ZM444.78 174.96c1.24-1.16 1.3-3.1.14-4.34s-3.1-1.3-4.34-.14-1.3 3.1-.14 4.34c1.16 1.24 3.1 1.3 4.34.14Z"/><path class="cls-6" d="M438.43 167.37c.8-.75.84-2 .09-2.79-.75-.8-2-.84-2.79-.09-.8.75-.84 2-.09 2.79.75.8 2 .84 2.79.09ZM451.61 211.15c.8-.75.84-2 .09-2.79s-2-.84-2.79-.09c-.8.75-.84 2-.09 2.79.75.8 2 .84 2.79.09Z"/><path class="cls-5" d="M423.73 154.6a.61.61 0 0 0 .03-.85c-.23-.24-.61-.25-.85-.03s-.25.61-.03.85c.23.24.61.25.85.03Z"/><path class="cls-6" d="M427.34 179.42c.24-.23.25-.61.03-.85s-.61-.25-.85-.03a.61.61 0 0 0-.03.85c.23.24.61.25.85.03ZM435.07 226.67c.24-.23.25-.61.03-.85s-.61-.25-.85-.03a.61.61 0 0 0-.03.85c.23.24.61.25.85.03ZM429.59 219.15a.61.61 0 0 0 .03-.85c-.23-.24-.61-.25-.85-.03s-.25.61-.03.85c.23.24.61.25.85.03Z"/><path class="cls-5" d="M409.16 182.79a7.3 7.3 0 0 0 .33-10.32 7.3 7.3 0 0 0-10.32-.33 7.3 7.3 0 0 0-.33 10.32 7.3 7.3 0 0 0 10.32.33Z"/><path class="cls-7" d="M369.86 196.98a3.632 3.632 0 0 0 .16-5.13 3.632 3.632 0 0 0-5.13-.16 3.632 3.632 0 0 0-.16 5.13 3.632 3.632 0 0 0 5.13.16Z"/><path class="cls-5" d="M435.52 196.9c1.46-1.37 1.53-3.67.16-5.13s-3.67-1.53-5.13-.16a3.632 3.632 0 0 0-.16 5.13 3.632 3.632 0 0 0 5.13.16ZM409.15 137a3.632 3.632 0 0 0 .16-5.13 3.632 3.632 0 0 0-5.13-.16 3.632 3.632 0 0 0-.16 5.13 3.632 3.632 0 0 0 5.13.16ZM363.29 163.08a3.632 3.632 0 0 0 .16-5.13c-1.37-1.46-3.67-1.53-5.13-.16s-1.53 3.67-.16 5.13a3.632 3.632 0 0 0 5.13.16ZM487.88 174.4a3.632 3.632 0 0 0 .16-5.13 3.632 3.632 0 0 0-5.13-.16 3.632 3.632 0 0 0-.16 5.13 3.632 3.632 0 0 0 5.13.16ZM461.64 110.84a3.632 3.632 0 0 0 .16-5.13 3.632 3.632 0 0 0-5.13-.16 3.632 3.632 0 0 0-.16 5.13 3.632 3.632 0 0 0 5.13.16Z"/><path class="cls-7" d="M509.44 117.65c.7-.66.74-1.77.08-2.47-.66-.7-1.77-.74-2.47-.08-.7.66-.74 1.77-.08 2.47.66.7 1.77.74 2.47.08Z"/><path class="cls-5" d="M419.74 226.33c.86-.8.9-2.15.1-3.01-.8-.86-2.15-.9-3.01-.1-.86.8-.9 2.15-.1 3.01.8.86 2.15.9 3.01.1Z"/><path class="cls-7" d="M415.62 166.06c.86-.8.9-2.15.1-3.01-.8-.86-2.15-.9-3.01-.1-.86.8-.9 2.15-.1 3.01.8.86 2.15.9 3.01.1ZM388.37 165.25c.58-.54.61-1.45.06-2.03-.54-.58-1.45-.61-2.03-.06-.58.54-.61 1.45-.06 2.03.54.58 1.45.61 2.03.06ZM384.29 165.14a2.086 2.086 0 1 0-2.858-3.04 2.086 2.086 0 0 0 2.858 3.04ZM383.56 170.11a1.154 1.154 0 0 0-1.58-1.68 1.154 1.154 0 0 0 1.58 1.68Z"/><path class="cls-5" d="M403.58 204.42c.6-.57.63-1.52.07-2.12s-1.52-.63-2.12-.07-.63 1.52-.07 2.12c.57.6 1.52.63 2.12.07ZM447.27 210.54c.6-.57.63-1.52.07-2.12a1.51 1.51 0 0 0-2.12-.07c-.6.57-.63 1.52-.07 2.12s1.52.63 2.12.07Z"/><path class="cls-7" d="M412.88 206.74c1.49-1.4 1.56-3.73.17-5.22a3.696 3.696 0 0 0-5.22-.17 3.696 3.696 0 0 0-.17 5.22 3.696 3.696 0 0 0 5.22.17Z"/><path d="M209.74 363.65c-3.38 11.22-21.53 33.04-32.76 29.66-11.22-3.38-11.27-30.68-7.89-41.9 3.38-11.22 15.22-17.58 26.44-14.21s17.58 15.22 14.2 26.44Z" style="fill:url(#_Áåçûìÿííûé_ãðàäèåíò_16-8)"/><path d="M209.74 363.65c-3.38 11.22-21.53 33.04-32.76 29.66-11.22-3.38-11.27-30.68-7.89-41.9 3.38-11.22 15.22-17.58 26.44-14.21s17.58 15.22 14.2 26.44Z" style="fill:url(#_Áåçûìÿííûé_ãðàäèåíò_89)" class="cls-13"/><path class="cls-52" d="M188.13 337.34c5.9-.53 13.44 2.97 16.84 7.82 3.4 4.84 1.38 9.2-4.51 9.72-5.9.53-13.44-2.97-16.84-7.82-3.4-4.84-1.38-9.2 4.51-9.72Z"/><path d="M188.13 337.34c5.9-.53 13.44 2.97 16.84 7.82 3.4 4.84 1.38 9.2-4.51 9.72-5.9.53-13.44-2.97-16.84-7.82-3.4-4.84-1.38-9.2 4.51-9.72Z" style="fill:url(#_Áåçûìÿííûé_ãðàäèåíò_23-3);opacity:.5;mix-blend-mode:lighten"/><path class="cls-7" d="M181.98 342.84c1.05-.88 2.55-1.47 4.49-1.64 5.9-.53 13.44 2.97 16.84 7.82 1.05 1.49 1.58 2.93 1.64 4.23 2.14-1.8 2.31-4.83.02-8.08-3.4-4.84-10.95-8.34-16.84-7.82-4.09.36-6.31 2.57-6.16 5.5Z"/><path class="cls-4" d="M207.91 331.6c-.92-.02-1.69.71-1.71 1.63-.02.92.71 1.69 1.63 1.71.92.02 1.69-.71 1.71-1.63.02-.92-.71-1.69-1.63-1.71Z"/><path class="cls-7" d="M192.14 319.95c-2.33-.05-4.27 1.79-4.32 4.12s1.79 4.27 4.12 4.32 4.27-1.79 4.32-4.12c.05-2.33-1.79-4.27-4.12-4.32Z"/><path class="cls-4" d="M216.31 310.44a2.36 2.36 0 0 0-2.42 2.31 2.36 2.36 0 0 0 2.31 2.42c1.31.03 2.39-1 2.42-2.31.03-1.31-1-2.39-2.31-2.42Z"/><path class="cls-7" d="M206.85 312.32c-.89-.02-1.63.69-1.66 1.58-.02.89.69 1.63 1.58 1.66s1.63-.69 1.66-1.58-.69-1.63-1.58-1.66ZM208.65 308.68a1.106 1.106 0 1 0-.05 2.21 1.106 1.106 0 0 0 .05-2.21Z"/><path class="cls-4" d="M195.02 339.82a2.346 2.346 0 1 0-.11 4.69 2.346 2.346 0 0 0 .11-4.69Z"/><path class="cls-7" d="M202.12 339.05c-1.93-.04-3.54 1.49-3.58 3.42-.04 1.93 1.49 3.54 3.42 3.58 1.93.05 3.54-1.49 3.58-3.42a3.52 3.52 0 0 0-3.42-3.59Z"/><circle cx="239.8" cy="293.02" r="31.97" transform="rotate(-56.16 239.79 293.014)" style="fill:url(#_Áåçûìÿííûé_ãðàäèåíò_16-9)"/><path d="M256.98 266.06c14.89 9.49 19.27 29.25 9.79 44.14-9.49 14.89-29.25 19.27-44.14 9.79-14.89-9.49-19.27-29.25-9.79-44.14 9.49-14.89 29.25-19.27 44.14-9.79Z" style="fill:url(#_Áåçûìÿííûé_ãðàäèåíò_85)" class="cls-13"/><path d="M399.22 351.07c0 62.05-36.95 112.36-82.54 112.36s-82.54-50.31-82.54-112.36 36.95-80.65 82.54-80.65 82.54 18.6 82.54 80.65Z" style="fill:url(#_Áåçûìÿííûé_ãðàäèåíò_16-10)"/><path d="M399.22 351.07c0 62.05-36.95 112.36-82.54 112.36s-82.54-50.31-82.54-112.36 36.95-80.65 82.54-80.65 82.54 18.6 82.54 80.65Z" style="fill:url(#_Áåçûìÿííûé_ãðàäèåíò_89-2)" class="cls-13"/><ellipse class="cls-52" cx="316.69" cy="303.78" rx="56.33" ry="32.52"/><ellipse cx="316.69" cy="303.78" rx="56.33" ry="32.52" style="fill:url(#_Áåçûìÿííûé_ãðàäèåíò_23-4);opacity:.5;mix-blend-mode:lighten"/><path class="cls-7" d="M276.85 289.45c22-12.7 57.67-12.7 79.66 0 9.09 5.25 14.41 11.84 15.99 18.67 2.25-9.7-3.08-19.87-15.99-27.33-22-12.7-57.67-12.7-79.66 0-12.91 7.45-18.23 17.63-15.99 27.33 1.58-6.83 6.9-13.42 15.99-18.66Z"/><path class="cls-11" d="M292.11 183.62c0 15.15-10.64 33.58-23.76 41.15-13.12 7.58-23.76 1.43-23.76-13.72s10.64-33.58 23.76-41.15c13.12-7.58 23.76-1.43 23.76 13.72Z"/><circle cx="319.96" cy="226.16" r="84.18" style="fill:url(#_Áåçûìÿííûé_ãðàäèåíò_16-11)"/><circle cx="319.96" cy="226.16" r="84.18" style="fill:url(#_Áåçûìÿííûé_ãðàäèåíò_89-3)" class="cls-13"/><path class="cls-52" d="M293.7 266.03c-2.15 16.55-14.64 21.75-27.91 11.61-13.26-10.14-22.27-31.78-20.12-48.33 2.15-16.55 14.64-21.75 27.91-11.61 13.26 10.14 22.27 31.78 20.12 48.33Z"/><path d="M293.7 266.03c-2.15 16.55-14.64 21.75-27.91 11.61-13.26-10.14-22.27-31.78-20.12-48.33 2.15-16.55 14.64-21.75 27.91-11.61 13.26 10.14 22.27 31.78 20.12 48.33Z" style="fill:url(#_Áåçûìÿííûé_ãðàäèåíò_8);opacity:.5;mix-blend-mode:lighten"/><path class="cls-7" d="M282.75 251.69c-.78 6.02-5.32 7.91-10.14 4.22-4.82-3.68-8.09-11.55-7.31-17.57.78-6.02 5.32-7.91 10.14-4.22 4.82 3.68 8.09 11.55 7.31 17.57Z"/><path class="cls-7" d="M272.16 275.23c-13.26-10.14-22.27-31.78-20.12-48.33.88-6.75 3.47-11.61 7.14-14.31-6.93.65-12.18 6.53-13.51 16.73-2.15 16.55 6.86 38.19 20.12 48.33 7.86 6.01 15.44 6.63 20.77 2.7-4.33.41-9.3-1.22-14.4-5.11Z"/><path class="cls-7" d="M266.93 277.1c-13.26-10.14-22.27-31.78-20.12-48.33 1-7.66 4.21-12.89 8.69-15.29-5.07 2.09-8.75 7.53-9.83 15.83-2.15 16.55 6.86 38.19 20.12 48.33 7.12 5.44 14.01 6.45 19.21 3.67-5.04 2.07-11.46.85-18.07-4.21Z"/><circle cx="407.41" cy="372.42" r="31.97" transform="rotate(-33.8 407.416 372.427)" style="fill:url(#_Áåçûìÿííûé_ãðàäèåíò_16-12)"/><circle cx="407.41" cy="372.42" r="31.97" transform="rotate(-33.8 407.416 372.427)" style="fill:url(#_Áåçûìÿííûé_ãðàäèåíò_89-4)" class="cls-13"/><path class="cls-52" d="M438.13 373.04c0 9.01-6.33 19.97-14.13 24.48-7.8 4.51-14.13.85-14.13-8.16s6.33-19.97 14.13-24.48c7.8-4.51 14.13-.85 14.13 8.16Z"/><path d="M438.13 373.04c0 9.01-6.33 19.97-14.13 24.48-7.8 4.51-14.13.85-14.13-8.16s6.33-19.97 14.13-24.48c7.8-4.51 14.13-.85 14.13 8.16Z" style="fill:url(#_Áåçûìÿííûé_ãðàäèåíò_23-5);opacity:.5;mix-blend-mode:lighten"/><path class="cls-7" d="M430.63 362.97c1.19 1.7 1.88 4.07 1.88 7.03 0 9.01-6.33 19.97-14.13 24.48-2.4 1.38-4.65 1.99-6.63 1.92 2.44 3.49 7.01 4.16 12.25 1.13 7.8-4.51 14.13-15.46 14.13-24.48 0-6.24-3.04-9.91-7.5-10.08Z"/><path class="cls-52" d="m391.01 256.95-30.49 17.6v-35.21l30.49-17.6v35.21z"/><path style="fill:url(#_Áåçûìÿííûé_ãðàäèåíò_160);opacity:.8" d="M386.48 224.36v30.13l-25.96 14.99v5.07l30.49-17.6v-35.21l-4.53 2.62z"/><path class="cls-7" d="m366.34 248.96-2.73 1.58v-3.15l2.73-1.58v3.15zM372.14 241.57l-2.74 1.58V240l2.74-1.58v3.15zM377.93 242.27l-2.73 1.58v-3.16l2.73-1.57v3.15zM377.93 250.54l-2.73 1.58v-3.16l2.73-1.57v3.15zM374.44 256.9l-2.73 1.58v-3.15l2.73-1.58v3.15zM383.91 247.09l-2.73 1.58v-3.16l2.73-1.57v3.15z"/><path style="fill:url(#_Áåçûìÿííûé_ãðàäèåíò_41-3)" d="m415.58 247.67 3.34-5.79-3.34-1.92-30.49 17.61v35.21l3.34 1.92 3.33-5.78 23.82-13.75v-27.5z"/><path style="fill:url(#_Áåçûìÿííûé_ãðàäèåíò_41-4)" d="m418.92 277.09-30.49 17.61v-35.21l30.49-17.61v35.21z"/><path style="fill:url(#_Áåçûìÿííûé_ãðàäèåíò_116);mix-blend-mode:lighten" d="m418.92 277.09-30.49 17.61v-35.21l30.49-17.61v35.21z"/><path class="cls-7" d="m383.12 246.58-.59-.55L416.24 210h95.93l35.39-35.39V30.41h.8v144.54l-35.86 35.86h-95.91l-33.47 35.77z"/><path class="cls-7" d="m547.68 138.74-16.64-16.64V62.75h.8v59.01l16.41 16.41-.57.57zM445.36 210.69l-.57-.57 18.87-18.87h41.01l19.69-19.68.57.57L505 192.06h-41.01l-18.63 18.63z"/><path class="cls-7" d="M524.64 174.59c-1.51 0-2.73-1.22-2.73-2.73s1.22-2.73 2.73-2.73 2.73 1.22 2.73 2.73-1.22 2.73-2.73 2.73ZM497.02 156.18c-1.51 0-2.73-1.22-2.73-2.73s1.22-2.73 2.73-2.73 2.73 1.22 2.73 2.73-1.22 2.73-2.73 2.73ZM518.9 129.23c-1.51 0-2.73-1.22-2.73-2.73s1.22-2.73 2.73-2.73 2.73 1.22 2.73 2.73-1.22 2.73-2.73 2.73ZM508.11 60.8c-1.51 0-2.73-1.22-2.73-2.73s1.22-2.73 2.73-2.73 2.73 1.22 2.73 2.73-1.22 2.73-2.73 2.73ZM531.44 65.48c-1.51 0-2.73-1.22-2.73-2.73s1.22-2.73 2.73-2.73 2.73 1.22 2.73 2.73-1.22 2.73-2.73 2.73ZM547.96 33.14c-1.51 0-2.73-1.22-2.73-2.73s1.22-2.73 2.73-2.73 2.73 1.22 2.73 2.73-1.22 2.73-2.73 2.73ZM417.42 147.52c-1.51 0-2.73-1.22-2.73-2.73s1.22-2.73 2.73-2.73 2.73 1.22 2.73 2.73-1.22 2.73-2.73 2.73Z"/><path class="cls-7" d="M365.38 248.18h-.81v-15.96l.12-.12 38.18-38.78v-55.03l31.67-31.67h62.16l11-11V58.06h.81v37.89l-11.48 11.48h-62.16l-31.19 31.19v55.03l-.12.12-38.18 38.78v15.63z"/><path class="cls-7" d="m403.56 180.77-.57-.57 14.02-14.02v-21.4h.81v21.73l-14.26 14.26zM371.05 241.31l-.56-.57 87.69-87.69h38.22v.8h-37.88l-87.47 87.46z"/><path class="cls-7" d="M442.39 169.82h-.81v-27.94l15.78-15.78h61.54v.8h-61.2l-15.31 15.31v27.61z"/><path d="M429.36 462.18c-3.38 11.22-21.53 33.04-32.76 29.66s-11.27-30.68-7.89-41.9c3.38-11.22 15.22-17.58 26.44-14.21 11.22 3.38 17.58 15.22 14.21 26.44Z" style="fill:url(#_Áåçûìÿííûé_ãðàäèåíò_16-13)"/><path d="M429.36 462.18c-3.38 11.22-21.53 33.04-32.76 29.66s-11.27-30.68-7.89-41.9c3.38-11.22 15.22-17.58 26.44-14.21 11.22 3.38 17.58 15.22 14.21 26.44Z" style="fill:url(#_Áåçûìÿííûé_ãðàäèåíò_89-5)" class="cls-13"/><path class="cls-52" d="M407.75 435.87c5.9-.53 13.44 2.97 16.84 7.82 3.4 4.84 1.38 9.2-4.51 9.72-5.9.53-13.44-2.97-16.84-7.82-3.4-4.84-1.38-9.2 4.51-9.72Z"/><path d="M407.75 435.87c5.9-.53 13.44 2.97 16.84 7.82 3.4 4.84 1.38 9.2-4.51 9.72-5.9.53-13.44-2.97-16.84-7.82-3.4-4.84-1.38-9.2 4.51-9.72Z" style="fill:url(#_Áåçûìÿííûé_ãðàäèåíò_23-6);opacity:.5;mix-blend-mode:lighten"/><path class="cls-7" d="M401.59 441.36c1.05-.88 2.55-1.47 4.49-1.64 5.9-.53 13.44 2.97 16.84 7.82 1.05 1.49 1.58 2.93 1.64 4.23 2.14-1.8 2.31-4.83.02-8.08-3.4-4.84-10.95-8.34-16.84-7.82-4.08.36-6.31 2.57-6.15 5.5Z"/><path class="cls-4" d="M424.41 422.39c.67-.63.71-1.69.07-2.36s-1.69-.71-2.36-.07c-.67.63-.71 1.69-.07 2.36s1.69.71 2.36.07Z"/><path class="cls-7" d="M443.83 419.64c1.7-1.6 1.79-4.27.19-5.97a4.221 4.221 0 0 0-5.97-.19 4.221 4.221 0 0 0-.19 5.97c1.6 1.7 4.27 1.79 5.97.19Z"/><path class="cls-4" d="M433.26 443.37c.95-.89 1-2.39.11-3.34-.89-.95-2.39-1-3.34-.11-.95.89-1 2.39-.11 3.34.89.95 2.39 1 3.34.11Z"/><path class="cls-7" d="M438.69 435.4c.65-.61.68-1.64.07-2.29-.61-.65-1.64-.68-2.29-.07-.65.61-.68 1.64-.07 2.29.61.65 1.64.68 2.29.07ZM439.96 439.25c.45-.42.47-1.12.05-1.57-.42-.45-1.12-.47-1.57-.05-.45.42-.47 1.12-.05 1.57.42.45 1.12.47 1.57.05Z"/><path class="cls-4" d="M427.84 407.49c.94-.89.99-2.37.1-3.31a2.34 2.34 0 0 0-3.31-.1 2.34 2.34 0 0 0-.1 3.31c.89.94 2.37.99 3.31.11Z"/><path class="cls-7" d="M423.33 413.02a3.505 3.505 0 0 0 .16-4.95 3.505 3.505 0 0 0-4.95-.16 3.505 3.505 0 0 0-.16 4.95 3.505 3.505 0 0 0 4.95.16Z"/><path d="M353.94 194.66 180.07 95c-2.85-1.64-5.44-1.7-7.41-.5v-.03l-10.72 6.22 6.98 5.06v5.67l-3.95 1.66.21 212.17 11.76 11.34 40.33 23.15 123.32 68.73h5.25c.21 0 .52-.63.81-1.47l5.29 3.05-1.68 8.05 10.91-6.29h-.02c2.4-1.35 3.93-4.52 3.93-9.05V215.95c0-8.21-4.99-17.75-11.15-21.31Zm-4.78 222.02L181.65 320.7c-1.41-.81-2.55-2.99-2.55-4.86V111.76l35.54 22.86 128.89 76.02 3.78 5.88 2.1 92.43-.26 107.74Z" style="fill:url(#_Áåçûìÿííûé_ãðàäèåíò_31)"/><path d="m361.55 203.09-16.67 9.63 2.44 3.8 2.1 92.43-.26 107.74-3.09-1.79c0 3.33 4.21 19.76 4.21 23.22l8.86-5.11 2.04-1.18h-.02c2.4-1.34 3.93-4.52 3.93-9.05V215.97c0-4.28-1.36-8.92-3.54-12.88Z" style="fill:#0f054c;opacity:.6"/><path d="m342.71 201.15-173.87-99.66c-6.16-3.56-11.15.22-11.15 8.43v206.8c0 8.21 4.99 17.75 11.15 21.31l173.87 99.66c6.16 3.56 11.15-.22 11.15-8.43V222.45c0-8.21-4.99-17.75-11.15-21.31Zm.96 221.94c0 1.87-1.14 2.74-2.55 1.92l-170.7-97.83c-1.41-.81-2.55-2.99-2.55-4.86V116.09c0-1.88 1.14-2.74 2.55-1.93l170.7 97.83c1.41.81 2.55 2.99 2.55 4.86v206.23Z" style="fill:url(#_Áåçûìÿííûé_ãðàäèåíò_31-2)"/><path d="m342.71 201.15-173.87-99.66c-6.16-3.56-11.15.22-11.15 8.43v206.8c0 8.21 4.99 17.75 11.15 21.31l173.87 99.66c6.16 3.56 11.15-.22 11.15-8.43V222.45c0-8.21-4.99-17.75-11.15-21.31Zm.96 221.94c0 1.87-1.14 2.74-2.55 1.92l-170.7-97.83c-1.41-.81-2.55-2.99-2.55-4.86V116.09c0-1.88 1.14-2.74 2.55-1.93l170.7 97.83c1.41.81 2.55 2.99 2.55 4.86v206.23Z" style="fill:url(#_Áåçûìÿííûé_ãðàäèåíò_85-2)"/><path class="cls-52" d="M181.65 320.7c-1.41-.81-2.55-2.99-2.55-4.86V119.18l-8.68-5.01c-1.41-.81-2.55.05-2.55 1.93v206.23c0 1.87 1.14 4.05 2.55 4.86l170.7 97.83c1.41.81 2.55-.05 2.55-1.92v-9.57l-162.02-92.82Z"/><path class="cls-5" d="M343.67 423.09c0 1.87-1.14 2.74-2.55 1.92l-170.7-97.83c-1.41-.81-2.55-2.99-2.55-4.86V116.09c0-1.88 1.14-2.74 2.55-1.93l170.7 97.83c1.41.81 2.55 2.99 2.55 4.86v206.23Z"/><g style="opacity:.4"><path class="cls-7" d="m220.53 206.2-16.61-9.58v-4.18l16.61 9.58v4.18zM234.7 214.38l-8.31-4.79v-4.18l8.31 4.79v4.18zM225.43 218.84l-7.08-4.09v-4.18l7.08 4.08v4.19zM237.28 225.68l-8.3-4.8v-4.18l8.3 4.8v4.18zM250.98 243.39l-32.63-18.84v-4.18l32.63 18.84v4.18zM225.43 238.44l-7.08-4.08v-4.18l7.08 4.08v4.18zM237.28 245.28l-8.3-4.79v-4.18l8.3 4.79v4.18zM236.29 254.51l-17.94-10.35v-4.18l17.94 10.35v4.18zM248.3 261.45l-8.31-4.8v-4.18l8.31 4.8v4.18zM260.36 268.41l-8.3-4.79v-4.18l8.3 4.79v4.18zM279.84 279.66l-15.71-9.07v-4.18l15.71 9.07v4.18zM270.42 293.83l-8.3-4.8v-4.18l8.3 4.8v4.18zM289.9 305.07 274.19 296v-4.18l15.71 9.07v4.18zM226.66 268.56l-8.31-4.8v-4.18l8.31 4.8v4.18zM238.72 275.52l-8.3-4.79v-4.18l8.3 4.79v4.18zM258.2 286.77l-15.71-9.07v-4.18l15.71 9.07v4.18zM282.21 290.83l-8.3-4.79v-4.18l8.3 4.79v4.18zM294.28 297.8l-8.3-4.8v-4.18l8.3 4.8v4.18zM313.76 309.04l-15.71-9.07v-4.18l15.71 9.07v4.18zM226.66 288.16l-8.31-4.79v-4.18l8.31 4.79v4.18zM246.13 299.41l-15.71-9.07v-4.18l15.71 9.07v4.18zM275.8 257.72l-8.3-4.79v-4.18l8.3 4.79v4.18zM263.25 250.47l-8.31-4.79v-4.18l8.31 4.79v4.18zM295.27 268.96l-15.71-9.07v-4.18l15.71 9.07v4.18zM225.84 258.29l-7.49-4.33v-4.18l7.49 4.33v4.18zM248.06 271.11l-18.21-10.51v-4.18l18.21 10.51v4.18zM270.27 283.93l-18.21-10.51v-4.18l18.21 10.51v4.18zM306.81 275.63l-7.49-4.33v-4.18l7.49 4.32v4.19zM236.72 284.17l-18.21-10.51v-4.18l18.21 10.51v4.18zM246.32 289.71l-5.59-3.23v-4.18l5.59 3.23v4.18zM255.94 295.27l-5.6-3.23v-4.18l5.6 3.22v4.19zM273.72 305.53l-13.76-7.94v-4.18l13.76 7.94v4.18z"/><path class="cls-7" d="m277.46 307.69-13.76-7.94v-4.18l13.76 7.94v4.18zM289.12 285.02l-5.59-3.23v-4.18l5.59 3.23v4.18zM306.91 295.29l-13.76-7.95v-4.18l13.76 7.95v4.18zM209.68 288.16l-5.6-3.23v-4.18l5.6 3.23v4.18zM227.46 298.43l-13.76-7.94v-4.18l13.76 7.94v4.18zM245.63 308.92l-13.76-7.94v-4.18l13.76 7.94v4.18z"/></g></g></g></g></svg>