<?xml version="1.0" encoding="UTF-8"?>
<svg xmlns="http://www.w3.org/2000/svg" xmlns:xlink="http://www.w3.org/1999/xlink" viewBox="0 0 713.33 739.94">
  <defs>
    <style>
      .cls-1 {
        fill: url(#_Áåçûìÿííûé_ãðàäèåíò_54-6);
      }

      .cls-2 {
        fill: url(#_Áåçûìÿííûé_ãðàäèåíò_16-11);
      }

      .cls-3 {
        fill: url(#_Áåçûìÿííûé_ãðàäèåíò_16-13);
      }

      .cls-4, .cls-5, .cls-6, .cls-7 {
        fill: #42e8e0;
      }

      .cls-4, .cls-8 {
        opacity: .6;
      }

      .cls-9 {
        fill: #fff;
      }

      .cls-10 {
        fill: url(#_Áåçûìÿííûé_ãðàäèåíò_89-2);
      }

      .cls-11 {
        fill: #bcbeff;
      }

      .cls-12 {
        fill: url(#_Áåçûìÿííûé_ãðàäèåíò_56);
      }

      .cls-12, .cls-13, .cls-14, .cls-15, .cls-16, .cls-17, .cls-18, .cls-19, .cls-20, .cls-21 {
        mix-blend-mode: lighten;
      }

      .cls-12, .cls-22, .cls-6 {
        opacity: .8;
      }

      .cls-23 {
        fill: url(#_Áåçûìÿííûé_ãðàäèåíò_54-4);
      }

      .cls-24, .cls-25, .cls-8, .cls-26 {
        fill: #0f054c;
      }

      .cls-27, .cls-28 {
        opacity: .51;
      }

      .cls-29, .cls-14, .cls-15, .cls-16, .cls-17, .cls-18, .cls-19, .cls-20 {
        opacity: .5;
      }

      .cls-30, .cls-31 {
        fill: #24126a;
      }

      .cls-32 {
        fill: url(#_Áåçûìÿííûé_ãðàäèåíò_89-4);
      }

      .cls-33 {
        fill: url(#_Áåçûìÿííûé_ãðàäèåíò_16-5);
      }

      .cls-34 {
        fill: url(#_Áåçûìÿííûé_ãðàäèåíò_2-4);
      }

      .cls-31, .cls-35, .cls-26 {
        opacity: .3;
      }

      .cls-36 {
        fill: url(#_Áåçûìÿííûé_ãðàäèåíò_54);
      }

      .cls-22 {
        fill: url(#_Áåçûìÿííûé_ãðàäèåíò_160);
      }

      .cls-14 {
        fill: url(#_Áåçûìÿííûé_ãðàäèåíò_8);
      }

      .cls-37 {
        fill: url(#_Áåçûìÿííûé_ãðàäèåíò_54-3);
      }

      .cls-38 {
        isolation: isolate;
      }

      .cls-39 {
        fill: url(#_Áåçûìÿííûé_ãðàäèåíò_89-5);
      }

      .cls-40 {
        fill: url(#_Áåçûìÿííûé_ãðàäèåíò_54-5);
      }

      .cls-41 {
        fill: url(#_Áåçûìÿííûé_ãðàäèåíò_31);
      }

      .cls-42 {
        fill: url(#_Áåçûìÿííûé_ãðàäèåíò_16-8);
      }

      .cls-43 {
        fill: url(#_Áåçûìÿííûé_ãðàäèåíò_2-2);
      }

      .cls-44 {
        fill: #141059;
      }

      .cls-45 {
        clip-path: url(#clippath-1);
      }

      .cls-46 {
        fill: url(#_Áåçûìÿííûé_ãðàäèåíò_41-4);
      }

      .cls-47 {
        fill: url(#radial-gradient);
      }

      .cls-5, .cls-48 {
        opacity: .4;
      }

      .cls-49 {
        fill: url(#_Áåçûìÿííûé_ãðàäèåíò_16);
      }

      .cls-50 {
        fill: url(#_Áåçûìÿííûé_ãðàäèåíò_41-2);
      }

      .cls-51 {
        opacity: .15;
      }

      .cls-52 {
        fill: #251c72;
      }

      .cls-53 {
        fill: url(#_Áåçûìÿííûé_ãðàäèåíò_24-3);
      }

      .cls-54 {
        fill: url(#_Áåçûìÿííûé_ãðàäèåíò_24-4);
      }

      .cls-25 {
        opacity: .67;
      }

      .cls-55 {
        fill: url(#_Áåçûìÿííûé_ãðàäèåíò_16-6);
      }

      .cls-56 {
        fill: url(#_Áåçûìÿííûé_ãðàäèåíò_24);
      }

      .cls-15 {
        fill: url(#_Áåçûìÿííûé_ãðàäèåíò_23-6);
      }

      .cls-57 {
        fill: url(#_Áåçûìÿííûé_ãðàäèåíò_85);
      }

      .cls-58 {
        fill: url(#_Áåçûìÿííûé_ãðàäèåíò_55-3);
      }

      .cls-16 {
        fill: url(#_Áåçûìÿííûé_ãðàäèåíò_23-4);
      }

      .cls-59 {
        fill: url(#_Áåçûìÿííûé_ãðàäèåíò_55-5);
      }

      .cls-60 {
        fill: #080344;
        opacity: .9;
      }

      .cls-61 {
        fill: url(#_Áåçûìÿííûé_ãðàäèåíò_89-3);
      }

      .cls-62 {
        fill: url(#_Áåçûìÿííûé_ãðàäèåíò_41-3);
      }

      .cls-17 {
        fill: url(#_Áåçûìÿííûé_ãðàäèåíò_23-2);
      }

      .cls-63 {
        clip-path: url(#clippath);
      }

      .cls-64 {
        fill: url(#_Áåçûìÿííûé_ãðàäèåíò_2);
      }

      .cls-65 {
        fill: url(#_Áåçûìÿííûé_ãðàäèåíò_16-2);
      }

      .cls-66 {
        fill: url(#_Áåçûìÿííûé_ãðàäèåíò_55-4);
      }

      .cls-67 {
        fill: url(#_Áåçûìÿííûé_ãðàäèåíò_89);
      }

      .cls-68 {
        fill: none;
      }

      .cls-69 {
        fill: url(#_Áåçûìÿííûé_ãðàäèåíò_2-3);
      }

      .cls-70 {
        fill: url(#_Áåçûìÿííûé_ãðàäèåíò_16-12);
      }

      .cls-71 {
        fill: url(#_Áåçûìÿííûé_ãðàäèåíò_41);
      }

      .cls-72, .cls-28 {
        fill: #453c9e;
      }

      .cls-73 {
        fill: url(#_Áåçûìÿííûé_ãðàäèåíò_16-10);
      }

      .cls-18 {
        fill: url(#_Áåçûìÿííûé_ãðàäèåíò_23-3);
      }

      .cls-74 {
        fill: url(#_Áåçûìÿííûé_ãðàäèåíò_31-2);
      }

      .cls-75 {
        fill: url(#_Áåçûìÿííûé_ãðàäèåíò_55);
      }

      .cls-76 {
        mask: url(#mask);
      }

      .cls-77 {
        fill: url(#_Áåçûìÿííûé_ãðàäèåíò_55-6);
      }

      .cls-78 {
        fill: url(#_Áåçûìÿííûé_ãðàäèåíò_85-2);
      }

      .cls-19 {
        fill: url(#_Áåçûìÿííûé_ãðàäèåíò_23);
      }

      .cls-79 {
        fill: url(#_Áåçûìÿííûé_ãðàäèåíò_16-4);
      }

      .cls-80 {
        fill: url(#_Áåçûìÿííûé_ãðàäèåíò_16-3);
      }

      .cls-81 {
        fill: url(#linear-gradient);
      }

      .cls-20 {
        fill: url(#_Áåçûìÿííûé_ãðàäèåíò_23-5);
      }

      .cls-82 {
        fill: url(#_Áåçûìÿííûé_ãðàäèåíò_16-9);
      }

      .cls-83 {
        fill: url(#_Áåçûìÿííûé_ãðàäèåíò_24-2);
      }

      .cls-84 {
        fill: #5351af;
      }

      .cls-85 {
        fill: url(#_Áåçûìÿííûé_ãðàäèåíò_55-2);
      }

      .cls-86 {
        fill: url(#_Áåçûìÿííûé_ãðàäèåíò_54-2);
      }

      .cls-87 {
        fill: url(#_Áåçûìÿííûé_ãðàäèåíò_16-7);
      }

      .cls-21 {
        fill: url(#_Áåçûìÿííûé_ãðàäèåíò_116);
      }
    </style>
    <linearGradient id="linear-gradient" x1="-1192.03" y1="712.26" x2="-1192.03" y2="1522.96" gradientTransform="translate(1192.48 1616.34) scale(1 -1)" gradientUnits="userSpaceOnUse">
      <stop offset="0" stop-color="#fff"/>
      <stop offset=".04" stop-color="#e9e8e7"/>
      <stop offset=".15" stop-color="#b6b3b1"/>
      <stop offset=".26" stop-color="#898482"/>
      <stop offset=".37" stop-color="#635d5a"/>
      <stop offset=".49" stop-color="#453d39"/>
      <stop offset=".6" stop-color="#2d2420"/>
      <stop offset=".73" stop-color="#1c120e"/>
      <stop offset=".85" stop-color="#120803"/>
      <stop offset="1" stop-color="#0f0500"/>
    </linearGradient>
    <mask id="mask" x="-851.49" y="0" width="1703.87" height="1601.09" maskUnits="userSpaceOnUse">
      <rect class="cls-81" x="-851.49" y="15.25" width="1703.87" height="1585.84" transform="translate(.89 1616.34) rotate(-180)"/>
    </mask>
    <radialGradient id="radial-gradient" cx="348.99" cy="353.95" fx="215.33" fy="353.95" r="355.17" gradientUnits="userSpaceOnUse">
      <stop offset=".11" stop-color="#5385e5"/>
      <stop offset=".2" stop-color="#507fde" stop-opacity=".96"/>
      <stop offset=".33" stop-color="#4971cd" stop-opacity=".84"/>
      <stop offset=".51" stop-color="#3d5ab2" stop-opacity=".66"/>
      <stop offset=".72" stop-color="#2c3a8c" stop-opacity=".4"/>
      <stop offset=".95" stop-color="#18115c" stop-opacity=".08"/>
      <stop offset="1" stop-color="#130851" stop-opacity="0"/>
    </radialGradient>
    <linearGradient id="_Áåçûìÿííûé_ãðàäèåíò_54" data-name="Áåçûìÿííûé ãðàäèåíò 54" x1="532.15" y1="674.71" x2="626.19" y2="729" gradientUnits="userSpaceOnUse">
      <stop offset="0" stop-color="#bcbeff"/>
      <stop offset=".23" stop-color="#aaadf7"/>
      <stop offset=".68" stop-color="#7b82e5"/>
      <stop offset="1" stop-color="#5761d7"/>
    </linearGradient>
    <linearGradient id="_Áåçûìÿííûé_ãðàäèåíò_55" data-name="Áåçûìÿííûé ãðàäèåíò 55" x1="520.36" y1="695.23" x2="638.88" y2="695.23" gradientUnits="userSpaceOnUse">
      <stop offset="0" stop-color="#e9e9fd"/>
      <stop offset=".36" stop-color="#d2d2f9"/>
      <stop offset=".71" stop-color="#c4c3f6"/>
      <stop offset="1" stop-color="#c0bff6"/>
    </linearGradient>
    <linearGradient id="_Áåçûìÿííûé_ãðàäèåíò_54-2" data-name="Áåçûìÿííûé ãðàäèåíò 54" x1="532.15" y1="605.49" x2="626.19" y2="659.78" xlink:href="#_Áåçûìÿííûé_ãðàäèåíò_54"/>
    <linearGradient id="_Áåçûìÿííûé_ãðàäèåíò_55-2" data-name="Áåçûìÿííûé ãðàäèåíò 55" y1="626.01" y2="626.01" xlink:href="#_Áåçûìÿííûé_ãðàäèåíò_55"/>
    <linearGradient id="_Áåçûìÿííûé_ãðàäèåíò_54-3" data-name="Áåçûìÿííûé ãðàäèåíò 54" x1="32.33" y1="661.01" x2="126.37" y2="715.3" xlink:href="#_Áåçûìÿííûé_ãðàäèåíò_54"/>
    <linearGradient id="_Áåçûìÿííûé_ãðàäèåíò_55-3" data-name="Áåçûìÿííûé ãðàäèåíò 55" x1="20.54" y1="681.53" x2="139.06" y2="681.53" xlink:href="#_Áåçûìÿííûé_ãðàäèåíò_55"/>
    <linearGradient id="_Áåçûìÿííûé_ãðàäèåíò_54-4" data-name="Áåçûìÿííûé ãðàäèåíò 54" x1="32.33" y1="586.77" x2="126.37" y2="641.06" xlink:href="#_Áåçûìÿííûé_ãðàäèåíò_54"/>
    <linearGradient id="_Áåçûìÿííûé_ãðàäèåíò_55-4" data-name="Áåçûìÿííûé ãðàäèåíò 55" x1="20.54" y1="607.29" x2="139.06" y2="607.29" xlink:href="#_Áåçûìÿííûé_ãðàäèåíò_55"/>
    <linearGradient id="_Áåçûìÿííûé_ãðàäèåíò_54-5" data-name="Áåçûìÿííûé ãðàäèåíò 54" x1="563.6" y1="367.1" x2="657.64" y2="421.39" xlink:href="#_Áåçûìÿííûé_ãðàäèåíò_54"/>
    <linearGradient id="_Áåçûìÿííûé_ãðàäèåíò_55-5" data-name="Áåçûìÿííûé ãðàäèåíò 55" x1="551.81" y1="387.62" x2="670.33" y2="387.62" xlink:href="#_Áåçûìÿííûé_ãðàäèåíò_55"/>
    <linearGradient id="_Áåçûìÿííûé_ãðàäèåíò_54-6" data-name="Áåçûìÿííûé ãðàäèåíò 54" x1="563.6" y1="297.97" x2="657.64" y2="352.27" xlink:href="#_Áåçûìÿííûé_ãðàäèåíò_54"/>
    <linearGradient id="_Áåçûìÿííûé_ãðàäèåíò_55-6" data-name="Áåçûìÿííûé ãðàäèåíò 55" x1="551.81" y1="318.5" x2="670.33" y2="318.5" xlink:href="#_Áåçûìÿííûé_ãðàäèåíò_55"/>
    <linearGradient id="_Áåçûìÿííûé_ãðàäèåíò_24" data-name="Áåçûìÿííûé ãðàäèåíò 24" x1="527.37" y1="502.06" x2="66.55" y2="502.06" gradientUnits="userSpaceOnUse">
      <stop offset="0" stop-color="#5761d7"/>
      <stop offset=".18" stop-color="#5b65d8"/>
      <stop offset=".39" stop-color="#6a72de"/>
      <stop offset=".61" stop-color="#8188e8"/>
      <stop offset=".85" stop-color="#a2a6f5"/>
      <stop offset="1" stop-color="#bcbeff"/>
    </linearGradient>
    <linearGradient id="_Áåçûìÿííûé_ãðàäèåíò_2" data-name="Áåçûìÿííûé ãðàäèåíò 2" x1="-2605.62" y1="491.33" x2="-2144.8" y2="491.33" gradientTransform="translate(-2224.45) rotate(-180) scale(1 -1)" gradientUnits="userSpaceOnUse">
      <stop offset="0" stop-color="#c0bff6"/>
      <stop offset=".29" stop-color="#c4c3f6"/>
      <stop offset=".64" stop-color="#d2d2f9"/>
      <stop offset="1" stop-color="#e9e9fd"/>
    </linearGradient>
    <linearGradient id="_Áåçûìÿííûé_ãðàäèåíò_2-2" data-name="Áåçûìÿííûé ãðàäèåíò 2" x1="-2804.07" y1="289.19" x2="-2477.96" y2="289.19" xlink:href="#_Áåçûìÿííûé_ãðàäèåíò_2"/>
    <linearGradient id="_Áåçûìÿííûé_ãðàäèåíò_24-2" data-name="Áåçûìÿííûé ãðàäèåíò 24" x1="-2804.07" y1="372.82" x2="-2748.07" y2="372.82" gradientTransform="translate(-2224.45) rotate(-180) scale(1 -1)" xlink:href="#_Áåçûìÿííûé_ãðàäèåíò_24"/>
    <linearGradient id="_Áåçûìÿííûé_ãðàäèåíò_24-3" data-name="Áåçûìÿííûé ãðàäèåíò 24" x1="-2760.38" y1="464.07" x2="-2299.8" y2="464.07" gradientTransform="translate(-2224.45) rotate(-180) scale(1 -1)" xlink:href="#_Áåçûìÿííûé_ãðàäèåíò_24"/>
    <linearGradient id="_Áåçûìÿííûé_ãðàäèåíò_2-3" data-name="Áåçûìÿííûé ãðàäèåíò 2" y1="451.48" y2="451.48" xlink:href="#_Áåçûìÿííûé_ãðàäèåíò_2"/>
    <radialGradient id="_Áåçûìÿííûé_ãðàäèåíò_23" data-name="Áåçûìÿííûé ãðàäèåíò 23" cx="311.37" cy="432.87" fx="311.37" fy="432.87" r="291.74" gradientUnits="userSpaceOnUse">
      <stop offset="0" stop-color="#42e8e0"/>
      <stop offset=".11" stop-color="#36b5bf"/>
      <stop offset=".22" stop-color="#2c87a0"/>
      <stop offset=".34" stop-color="#235f86"/>
      <stop offset=".46" stop-color="#1b3e71"/>
      <stop offset=".58" stop-color="#162560"/>
      <stop offset=".71" stop-color="#121355"/>
      <stop offset=".85" stop-color="#0f084e"/>
      <stop offset="1" stop-color="#0f054c"/>
    </radialGradient>
    <clipPath id="clippath">
      <path class="cls-19" d="m77.73,415.78l279.43,161.33c3.06,1.77,7.69,1.96,10.33.43l166.74-96.27c2.65-1.53,2.32-4.2-.74-5.97l-279.43-161.33c-3.06-1.77-7.69-1.96-10.33-.43l-166.74,96.27c-2.65,1.53-2.32,4.2.74,5.97Z"/>
    </clipPath>
    <radialGradient id="_Áåçûìÿííûé_ãðàäèåíò_16" data-name="Áåçûìÿííûé ãðàäèåíò 16" cx="-5666.71" cy="8478.29" fx="-5666.71" fy="8478.29" r="182.3" gradientTransform="translate(-4146.9 9590.2) rotate(-180) scale(.78 1.06)" gradientUnits="userSpaceOnUse">
      <stop offset="0" stop-color="#c0bff6"/>
      <stop offset="1" stop-color="#393091"/>
    </radialGradient>
    <linearGradient id="_Áåçûìÿííûé_ãðàäèåíò_56" data-name="Áåçûìÿííûé ãðàäèåíò 56" x1="74.54" y1="445.54" x2="536.68" y2="445.54" gradientUnits="userSpaceOnUse">
      <stop offset="0" stop-color="#42e8e0"/>
      <stop offset=".11" stop-color="#36b5bf"/>
      <stop offset=".22" stop-color="#2c87a0"/>
      <stop offset=".34" stop-color="#235f86"/>
      <stop offset=".46" stop-color="#1b3e71"/>
      <stop offset=".58" stop-color="#162560"/>
      <stop offset=".71" stop-color="#121355"/>
      <stop offset=".85" stop-color="#0f084e"/>
      <stop offset="1" stop-color="#0f054c"/>
    </linearGradient>
    <clipPath id="clippath-1">
      <polygon class="cls-68" points="571.84 266.66 288.22 102.99 252.58 314.86 536.02 478.43 571.84 266.66"/>
    </clipPath>
    <linearGradient id="_Áåçûìÿííûé_ãðàäèåíò_24-4" data-name="Áåçûìÿííûé ãðàäèåíò 24" x1="-2937.48" y1="362.71" x2="-2476.91" y2="362.71" gradientTransform="translate(-2224.45) rotate(-180) scale(1 -1)" xlink:href="#_Áåçûìÿííûé_ãðàäèåíò_24"/>
    <linearGradient id="_Áåçûìÿííûé_ãðàäèåíò_2-4" data-name="Áåçûìÿííûé ãðàäèåíò 2" x1="-2782.73" y1="350.11" x2="-2321.9" y2="350.11" xlink:href="#_Áåçûìÿííûé_ãðàäèåíò_2"/>
    <radialGradient id="_Áåçûìÿííûé_ãðàäèåíò_16-2" data-name="Áåçûìÿííûé ãðàäèåíò 16" cx="2074.56" cy="1830.23" fx="2074.56" fy="1830.23" r="60.29" gradientTransform="translate(-2314.49 -489.68) rotate(-26.04)" xlink:href="#_Áåçûìÿííûé_ãðàäèåíò_16"/>
    <radialGradient id="_Áåçûìÿííûé_ãðàäèåíò_16-3" data-name="Áåçûìÿííûé ãðàäèåíò 16" cx="-258.41" cy="-531.62" fx="-258.41" fy="-531.62" r="184.53" gradientTransform="translate(692.29 664.28) rotate(11.2)" xlink:href="#_Áåçûìÿííûé_ãðàäèåíò_16"/>
    <radialGradient id="_Áåçûìÿííûé_ãðàäèåíò_16-4" data-name="Áåçûìÿííûé ãðàäèåíò 16" cx="1571.07" cy="433.63" fx="1571.07" fy="433.63" r="182.3" gradientTransform="translate(-707.74 -223.38) scale(.78 1.06)" xlink:href="#_Áåçûìÿííûé_ãðàäèåíò_16"/>
    <radialGradient id="_Áåçûìÿííûé_ãðàäèåíò_16-5" data-name="Áåçûìÿííûé ãðàäèåíò 16" cx="521.82" cy="115.38" fx="521.82" fy="115.38" r="142.28" gradientTransform="matrix(1,0,0,1,0,0)" xlink:href="#_Áåçûìÿííûé_ãðàäèåíò_16"/>
    <radialGradient id="_Áåçûìÿííûé_ãðàäèåíò_16-6" data-name="Áåçûìÿííûé ãðàäèåíò 16" cx="-194.21" cy="-380.54" fx="-194.21" fy="-380.54" r="66.69" gradientTransform="translate(335.4 622.86) rotate(62.76)" xlink:href="#_Áåçûìÿííûé_ãðàäèåíò_16"/>
    <linearGradient id="_Áåçûìÿííûé_ãðàäèåíò_41" data-name="Áåçûìÿííûé ãðàäèåíò 41" x1="563.54" y1="165.31" x2="483.72" y2="189.59" gradientUnits="userSpaceOnUse">
      <stop offset="0" stop-color="#bcbeff"/>
      <stop offset=".15" stop-color="#a2a6f5"/>
      <stop offset=".39" stop-color="#8188e8"/>
      <stop offset=".61" stop-color="#6a72de"/>
      <stop offset=".82" stop-color="#5b65d8"/>
      <stop offset="1" stop-color="#5761d7"/>
    </linearGradient>
    <linearGradient id="_Áåçûìÿííûé_ãðàäèåíò_41-2" data-name="Áåçûìÿííûé ãðàäèåíò 41" x1="549.73" y1="170.38" x2="440.34" y2="183.41" xlink:href="#_Áåçûìÿííûé_ãðàäèåíò_41"/>
    <radialGradient id="_Áåçûìÿííûé_ãðàäèåíò_16-7" data-name="Áåçûìÿííûé ãðàäèåíò 16" cx="2570.95" cy="2550.07" fx="2570.95" fy="2550.07" r="60.3" gradientTransform="translate(-2996.22 -345.61) rotate(-33.86)" xlink:href="#_Áåçûìÿííûé_ãðàäèåíò_16"/>
    <radialGradient id="_Áåçûìÿííûé_ãðàäèåíò_23-2" data-name="Áåçûìÿííûé ãðàäèåíò 23" cx="-4641.76" cy="-132.49" fx="-4641.76" fy="-132.49" r="215" gradientTransform="translate(270.17 2111.47) rotate(90) scale(.41 1)" xlink:href="#_Áåçûìÿííûé_ãðàäèåíò_23"/>
    <radialGradient id="_Áåçûìÿííûé_ãðàäèåíò_16-8" data-name="Áåçûìÿííûé ãðàäèåíò 16" cx="-992" cy="-287.09" fx="-992" fy="-287.09" r="60.3" gradientTransform="translate(1069.76 907.8) rotate(16.76)" xlink:href="#_Áåçûìÿííûé_ãðàäèåíò_16"/>
    <linearGradient id="_Áåçûìÿííûé_ãðàäèåíò_89" data-name="Áåçûìÿííûé ãðàäèåíò 89" x1="-1020.41" y1="-247.9" x2="-984.77" y2="-286.39" gradientTransform="translate(1069.76 907.8) rotate(16.76)" gradientUnits="userSpaceOnUse">
      <stop offset="0" stop-color="#2fd3c7"/>
      <stop offset=".09" stop-color="#30b5bd"/>
      <stop offset=".23" stop-color="#338caf"/>
      <stop offset=".37" stop-color="#356ba4"/>
      <stop offset=".52" stop-color="#36519c"/>
      <stop offset=".67" stop-color="#383e95"/>
      <stop offset=".83" stop-color="#383392"/>
      <stop offset="1" stop-color="#393091"/>
    </linearGradient>
    <radialGradient id="_Áåçûìÿííûé_ãðàäèåíò_23-3" data-name="Áåçûìÿííûé ãðàäèåíò 23" cx="2509.65" cy="6859.15" fx="2509.65" fy="6859.15" r="39.13" gradientTransform="translate(-6417.01 3460.39) rotate(-95.11)" xlink:href="#_Áåçûìÿííûé_ãðàäèåíò_23"/>
    <radialGradient id="_Áåçûìÿííûé_ãðàäèåíò_16-9" data-name="Áåçûìÿííûé ãðàäèåíò 16" cx="-385.79" cy="-406.19" fx="-385.79" fy="-406.19" r="184.53" gradientTransform="translate(183.43 875.6) rotate(67.36)" xlink:href="#_Áåçûìÿííûé_ãðàäèåíò_16"/>
    <linearGradient id="_Áåçûìÿííûé_ãðàäèåíò_85" data-name="Áåçûìÿííûé ãðàäèåíò 85" x1="242.03" y1="2493.8" x2="305.97" y2="2493.8" gradientTransform="translate(-2010.66 -815.55) rotate(-57.51)" gradientUnits="userSpaceOnUse">
      <stop offset="0" stop-color="#706ec4"/>
      <stop offset=".02" stop-color="#6d6bc1"/>
      <stop offset=".25" stop-color="#5651ac"/>
      <stop offset=".49" stop-color="#463e9d"/>
      <stop offset=".73" stop-color="#3c3393"/>
      <stop offset="1" stop-color="#393091"/>
    </linearGradient>
    <radialGradient id="_Áåçûìÿííûé_ãðàäèåíò_16-10" data-name="Áåçûìÿííûé ãðàäèåíò 16" cx="1379.16" cy="526.44" fx="1379.16" fy="526.44" r="182.3" gradientTransform="translate(-707.74 -223.38) scale(.78 1.06)" xlink:href="#_Áåçûìÿííûé_ãðàäèåíò_16"/>
    <linearGradient id="_Áåçûìÿííûé_ãðàäèåíò_89-2" data-name="Áåçûìÿííûé ãðàäèåíò 89" x1="1316.58" y1="648.42" x2="1316.58" y2="466.2" gradientTransform="translate(-707.74 -223.38) scale(.78 1.06)" xlink:href="#_Áåçûìÿííûé_ãðàäèåíò_89"/>
    <radialGradient id="_Áåçûìÿííûé_ãðàäèåíò_23-4" data-name="Áåçûìÿííûé ãðàäèåíò 23" cx="314.5" cy="335.03" fx="314.5" fy="335.03" r="109.79" xlink:href="#_Áåçûìÿííûé_ãðàäèåíò_23"/>
    <radialGradient id="_Áåçûìÿííûé_ãðàäèåíò_16-11" data-name="Áåçûìÿííûé ãðàäèåíò 16" cx="372.5" cy="213.68" fx="372.5" fy="213.68" r="142.28" gradientTransform="matrix(1,0,0,1,0,0)" xlink:href="#_Áåçûìÿííûé_ãðàäèåíò_16"/>
    <linearGradient id="_Áåçûìÿííûé_ãðàäèåíò_89-3" data-name="Áåçûìÿííûé ãðàäèåíò 89" x1="308.24" y1="309.53" x2="331.68" y2="142.78" gradientTransform="matrix(1,0,0,1,0,0)" xlink:href="#_Áåçûìÿííûé_ãðàäèåíò_89"/>
    <radialGradient id="_Áåçûìÿííûé_ãðàäèåíò_8" data-name="Áåçûìÿííûé ãðàäèåíò 8" cx="293.75" cy="233.92" fx="293.75" fy="233.92" r="69.89" gradientUnits="userSpaceOnUse">
      <stop offset="0" stop-color="#42e8e0"/>
      <stop offset=".06" stop-color="#3bcbcd"/>
      <stop offset=".18" stop-color="#2f97ab"/>
      <stop offset=".3" stop-color="#256a8e"/>
      <stop offset=".42" stop-color="#1d4676"/>
      <stop offset=".54" stop-color="#172a64"/>
      <stop offset=".66" stop-color="#121657"/>
      <stop offset=".78" stop-color="#0f0a4f"/>
      <stop offset=".9" stop-color="#0f064d"/>
      <stop offset="1" stop-color="#0f054c"/>
    </radialGradient>
    <radialGradient id="_Áåçûìÿííûé_ãðàäèåíò_16-12" data-name="Áåçûìÿííûé ãðàäèåíò 16" cx="-321.59" cy="-255.11" fx="-321.59" fy="-255.11" r="66.69" gradientTransform="translate(481.78 773.43) rotate(45)" xlink:href="#_Áåçûìÿííûé_ãðàäèåíò_16"/>
    <linearGradient id="_Áåçûìÿííûé_ãðàäèåíò_89-4" data-name="Áåçûìÿííûé ãðàäèåíò 89" x1="-357.84" y1="-207.52" x2="-314.4" y2="-254.43" gradientTransform="translate(481.78 773.43) rotate(45)" xlink:href="#_Áåçûìÿííûé_ãðàäèåíò_89"/>
    <radialGradient id="_Áåçûìÿííûé_ãðàäèåíò_23-5" data-name="Áåçûìÿííûé ãðàäèåíò 23" cx="418.02" cy="376.16" fx="418.02" fy="376.16" r="59.56" xlink:href="#_Áåçûìÿííûé_ãðàäèåíò_23"/>
    <radialGradient id="_Áåçûìÿííûé_ãðàäèåíò_160" data-name="Áåçûìÿííûé ãðàäèåíò 160" cx="370.07" cy="-1243.79" fx="370.07" fy="-1243.79" r="56.14" gradientTransform="translate(0 1785.94) scale(1 1.28)" gradientUnits="userSpaceOnUse">
      <stop offset="0" stop-color="#2b237c"/>
      <stop offset=".31" stop-color="#251c72"/>
      <stop offset="1" stop-color="#0f054c"/>
    </radialGradient>
    <linearGradient id="_Áåçûìÿííûé_ãðàäèåíò_41-3" data-name="Áåçûìÿííûé ãðàäèåíò 41" x1="414.22" y1="263.61" x2="334.4" y2="287.89" xlink:href="#_Áåçûìÿííûé_ãðàäèåíò_41"/>
    <linearGradient id="_Áåçûìÿííûé_ãðàäèåíò_41-4" data-name="Áåçûìÿííûé ãðàäèåíò 41" x1="400.41" y1="268.68" x2="291.02" y2="281.71" xlink:href="#_Áåçûìÿííûé_ãðàäèåíò_41"/>
    <linearGradient id="_Áåçûìÿííûé_ãðàäèåíò_116" data-name="Áåçûìÿííûé ãðàäèåíò 116" x1="384" y1="300.84" x2="440.99" y2="206.57" gradientUnits="userSpaceOnUse">
      <stop offset="0" stop-color="#42e8e0"/>
      <stop offset=".12" stop-color="#41e2dd"/>
      <stop offset=".27" stop-color="#40d2d6"/>
      <stop offset=".44" stop-color="#3fb8cb"/>
      <stop offset=".62" stop-color="#3d94bc"/>
      <stop offset=".81" stop-color="#3b65a8"/>
      <stop offset="1" stop-color="#393091"/>
    </linearGradient>
    <radialGradient id="_Áåçûìÿííûé_ãðàäèåíò_16-13" data-name="Áåçûìÿííûé ãðàäèåíò 16" cx="-753.29" cy="-256.07" fx="-753.29" fy="-256.07" r="60.3" gradientTransform="translate(1069.76 907.8) rotate(16.76)" xlink:href="#_Áåçûìÿííûé_ãðàäèåíò_16"/>
    <linearGradient id="_Áåçûìÿííûé_ãðàäèåíò_89-5" data-name="Áåçûìÿííûé ãðàäèåíò 89" x1="-781.71" y1="-216.87" x2="-746.06" y2="-255.37" xlink:href="#_Áåçûìÿííûé_ãðàäèåíò_89"/>
    <radialGradient id="_Áåçûìÿííûé_ãðàäèåíò_23-6" data-name="Áåçûìÿííûé ãðàäèåíò 23" cx="2391.96" cy="7069.13" fx="2391.96" fy="7069.13" r="39.13" gradientTransform="translate(-6417.01 3460.39) rotate(-95.11)" xlink:href="#_Áåçûìÿííûé_ãðàäèåíò_23"/>
    <linearGradient id="_Áåçûìÿííûé_ãðàäèåíò_31" data-name="Áåçûìÿííûé ãðàäèåíò 31" x1="201.93" y1="265.89" x2="366.67" y2="265.89" gradientUnits="userSpaceOnUse">
      <stop offset="0" stop-color="#bcbeff"/>
      <stop offset=".17" stop-color="#b5b8fc"/>
      <stop offset=".4" stop-color="#a3a7f5"/>
      <stop offset=".66" stop-color="#868ce9"/>
      <stop offset=".96" stop-color="#5d67d9"/>
      <stop offset="1" stop-color="#5761d7"/>
    </linearGradient>
    <linearGradient id="_Áåçûìÿííûé_ãðàäèåíò_31-2" data-name="Áåçûìÿííûé ãðàäèåíò 31" x1="157.69" y1="269.59" x2="353.86" y2="269.59" xlink:href="#_Áåçûìÿííûé_ãðàäèåíò_31"/>
    <linearGradient id="_Áåçûìÿííûé_ãðàäèåíò_85-2" data-name="Áåçûìÿííûé ãðàäèåíò 85" x1="130.59" y1="269.59" x2="484.52" y2="269.59" gradientTransform="matrix(1,0,0,1,0,0)" xlink:href="#_Áåçûìÿííûé_ãðàäèåíò_85"/>
  </defs>
  <g class="cls-38">
    <g id="Layer_2" data-name="Layer 2">
      <g id="Layer_3" data-name="Layer 3">
        <g class="cls-76">
          <g>
            <circle class="cls-47" cx="356.67" cy="356.67" r="356.67"/>
            <g>
              <g>
                <g>
                  <g class="cls-35">
                    <path class="cls-36" d="m638.88,705.56v-10.33l-2.86-1.59c-.81,4.87-6.54,8.09-11.34,8.75l-32.66,19.1-14.25,5.15-45.5-23.48,1.05-.61c-3.89-1.82-5.98-5.97-8.09-9.76l-3.06,1.83-1.82.51v10.59h0c0,2.02,1.33,4.05,4,5.59l45.58,26.32c5.34,3.08,14.02,3.08,19.36,0l45.58-26.32c2.62-1.52,3.96-3.5,4-5.49,0-.09,0-.18,0-.27h0Z"/>
                    <path class="cls-26" d="m624.68,702.4l-32.66,19.1-12.41,4.48v13.96c3.51,0,7.01-.77,9.68-2.31l45.58-26.32c2.62-1.52,3.96-3.5,4-5.49,0-.09,0-.18,0-.27h0s0-10.32,0-10.32l-2.61-1.45h-.27c-.89,4.8-6.56,7.95-11.31,8.62Z"/>
                    <path class="cls-75" d="m569.94,727.14l-45.58-26.32c-5.34-3.08-5.34-8.1,0-11.18l45.58-26.32c5.34-3.08,14.02-3.08,19.36,0l45.58,26.32c5.34,3.08,5.34,8.09,0,11.18l-45.58,26.32c-5.34,3.08-14.02,3.08-19.36,0Z"/>
                    <g class="cls-35">
                      <path class="cls-24" d="m569.94,727.14l-45.58-26.32c-5.34-3.08-5.34-8.1,0-11.18l45.58-26.32c5.34-3.08,14.02-3.08,19.36,0l45.58,26.32c5.34,3.08,5.34,8.09,0,11.18l-45.58,26.32c-5.34,3.08-14.02,3.08-19.36,0Z"/>
                    </g>
                  </g>
                  <g>
                    <path class="cls-7" d="m579.62,693.87c-3.11,0-6.22-.68-8.59-2.05l-45.58-26.32c-2.37-1.37-3.67-3.21-3.67-5.19s1.3-3.82,3.67-5.19l45.58-26.31c4.73-2.74,12.44-2.74,17.18,0l45.58,26.32c2.37,1.36,3.67,3.21,3.67,5.19s-1.3,3.82-3.67,5.19l-45.58,26.32c-2.37,1.37-5.48,2.05-8.59,2.05Zm-8.19-2.74c4.52,2.61,11.87,2.61,16.38,0l45.58-26.32c2.11-1.22,3.27-2.82,3.27-4.5s-1.16-3.28-3.27-4.5l-45.58-26.32c-4.52-2.61-11.87-2.6-16.38,0l-45.58,26.31c-2.11,1.22-3.27,2.82-3.27,4.5s1.16,3.28,3.27,4.5l45.58,26.32Z"/>
                    <g>
                      <path class="cls-5" d="m638.88,650.22v-15.61s-2.86-1.59-2.86-1.59c-.81,4.87-6.54,8.09-11.34,8.75l-32.66,19.1-14.25,5.15-45.5-23.48,1.05-.61c-3.89-1.82-5.98-5.97-8.09-9.76l-3.06,1.83-1.82.51v15.87h0c0,2.02,1.33,4.05,4,5.59l45.58,26.32c5.34,3.08,14.02,3.08,19.36,0l45.58-26.32c2.63-1.52,3.96-3.5,4-5.49,0-.09,0-.18,0-.27h0Z"/>
                      <g>
                        <path class="cls-86" d="m638.88,636.34v-10.33s-2.86-1.59-2.86-1.59c-.81,4.87-6.54,8.09-11.34,8.75l-32.66,19.1-14.25,5.15-45.5-23.48,1.05-.61c-3.89-1.82-5.98-5.97-8.09-9.76l-3.06,1.83-1.82.51v10.59h0c0,2.02,1.33,4.05,4,5.59l45.58,26.32c5.34,3.08,14.02,3.08,19.36,0l45.58-26.32c2.63-1.52,3.96-3.5,4-5.49,0-.09,0-.18,0-.27h0Z"/>
                        <path class="cls-26" d="m624.68,633.18l-32.66,19.1-12.41,4.48v13.96c3.51,0,7.01-.77,9.68-2.31l45.58-26.32c2.63-1.52,3.96-3.5,4-5.49,0-.09,0-.18,0-.27h0s0-10.32,0-10.32l-2.61-1.45h-.27c-.89,4.8-6.56,7.95-11.31,8.62Z"/>
                        <path class="cls-85" d="m569.94,657.92l-45.58-26.32c-5.34-3.08-5.34-8.09,0-11.18l45.58-26.32c5.34-3.08,14.02-3.08,19.36,0l45.58,26.32c5.34,3.08,5.34,8.09,0,11.18l-45.58,26.32c-5.34,3.08-14.02,3.08-19.36,0Z"/>
                        <path class="cls-9" d="m634.88,631.6l-45.58,26.32c-5.34,3.08-14.02,3.08-19.36,0l-45.58-26.32c-2.39-1.38-3.7-3.14-3.95-4.94-.31,2.23,1,4.53,3.95,6.23l45.58,26.32c5.34,3.08,14.02,3.08,19.36,0l45.58-26.32c2.95-1.7,4.27-4,3.95-6.23-.25,1.8-1.57,3.57-3.95,4.94Z"/>
                      </g>
                    </g>
                  </g>
                </g>
                <g>
                  <g class="cls-35">
                    <path class="cls-37" d="m139.06,691.86v-10.33s-2.86-1.59-2.86-1.59c-.81,4.87-6.54,8.09-11.34,8.75l-32.66,19.1-14.25,5.15-45.5-23.48,1.05-.61c-3.89-1.82-5.98-5.97-8.09-9.76l-3.06,1.83-1.82.51v10.59h0c0,2.02,1.33,4.05,4,5.59l45.58,26.32c5.34,3.08,14.02,3.08,19.36,0l45.58-26.32c2.63-1.52,3.96-3.5,4-5.49,0-.09,0-.18,0-.27h0Z"/>
                    <path class="cls-26" d="m124.87,688.69l-32.66,19.1-12.41,4.48v13.96c3.51,0,7.01-.77,9.68-2.31l45.58-26.32c2.63-1.52,3.96-3.5,4-5.49,0-.09,0-.18,0-.27h0s0-10.32,0-10.32l-2.61-1.45h-.27c-.89,4.8-6.56,7.95-11.31,8.62Z"/>
                    <path class="cls-58" d="m70.12,713.43l-45.58-26.32c-5.34-3.08-5.34-8.09,0-11.18l45.58-26.32c5.34-3.08,14.02-3.08,19.36,0l45.58,26.32c5.34,3.08,5.34,8.09,0,11.18l-45.58,26.32c-5.34,3.08-14.02,3.08-19.36,0Z"/>
                    <g class="cls-35">
                      <path class="cls-24" d="m70.12,713.43l-45.58-26.32c-5.34-3.08-5.34-8.09,0-11.18l45.58-26.32c5.34-3.08,14.02-3.08,19.36,0l45.58,26.32c5.34,3.08,5.34,8.09,0,11.18l-45.58,26.32c-5.34,3.08-14.02,3.08-19.36,0Z"/>
                    </g>
                  </g>
                  <g>
                    <path class="cls-7" d="m79.8,675.15c-3.11,0-6.22-.68-8.59-2.05l-45.58-26.32c-2.37-1.37-3.67-3.21-3.67-5.19s1.3-3.82,3.67-5.19l45.58-26.31c4.74-2.74,12.44-2.74,17.18,0l45.58,26.32c2.36,1.36,3.67,3.21,3.67,5.19s-1.3,3.82-3.67,5.19l-45.58,26.31c-2.37,1.37-5.48,2.05-8.59,2.05Zm0-66.33c-2.97,0-5.93.65-8.19,1.96l-45.58,26.31c-2.11,1.22-3.27,2.82-3.27,4.5s1.16,3.28,3.27,4.5l45.58,26.32c4.52,2.61,11.87,2.61,16.38,0l45.58-26.31c2.11-1.22,3.27-2.82,3.27-4.5,0-1.68-1.16-3.28-3.27-4.5l-45.58-26.32c-2.26-1.3-5.23-1.96-8.19-1.96Z"/>
                    <g>
                      <path class="cls-5" d="m139.06,631.49v-15.61l-2.86-1.59c-.81,4.87-6.54,8.09-11.34,8.75l-32.66,19.1-14.25,5.15-45.5-23.48,1.05-.61c-3.89-1.82-5.98-5.97-8.09-9.76l-3.06,1.83-1.82.51v15.87h0c0,2.02,1.33,4.05,4,5.59l45.58,26.32c5.34,3.08,14.02,3.08,19.36,0l45.58-26.32c2.63-1.52,3.96-3.5,4-5.49,0-.09,0-.18,0-.27h0Z"/>
                      <g>
                        <path class="cls-23" d="m139.06,617.62v-10.33l-2.86-1.59c-.81,4.87-6.54,8.09-11.34,8.75l-32.66,19.1-14.25,5.15-45.5-23.48,1.05-.61c-3.89-1.82-5.98-5.97-8.09-9.76l-3.06,1.83-1.82.51v10.59h0c0,2.02,1.33,4.05,4,5.59l45.58,26.32c5.34,3.08,14.02,3.08,19.36,0l45.58-26.32c2.63-1.52,3.96-3.5,4-5.49,0-.09,0-.18,0-.27h0Z"/>
                        <path class="cls-26" d="m124.87,614.45l-32.66,19.1-12.41,4.48v13.96c3.51,0,7.01-.77,9.68-2.31l45.58-26.32c2.63-1.52,3.96-3.5,4-5.49,0-.09,0-.18,0-.27h0s0-10.32,0-10.32l-2.61-1.45h-.27c-.89,4.8-6.56,7.95-11.31,8.62Z"/>
                        <path class="cls-66" d="m70.12,639.19l-45.58-26.32c-5.34-3.08-5.34-8.1,0-11.18l45.58-26.32c5.34-3.08,14.02-3.08,19.36,0l45.58,26.32c5.34,3.08,5.34,8.09,0,11.18l-45.58,26.32c-5.34,3.08-14.02,3.08-19.36,0Z"/>
                        <path class="cls-84" d="m79.8,634.41c-2.81,0-5.62-.62-7.76-1.85l-35.61-20.56c-2.15-1.24-3.33-2.91-3.33-4.71,0-1.8,1.18-3.47,3.33-4.71l35.61-20.56c4.28-2.47,11.24-2.47,15.52,0l35.61,20.56c2.14,1.24,3.33,2.91,3.33,4.71s-1.18,3.47-3.33,4.71l-35.61,20.56c-2.14,1.23-4.95,1.85-7.76,1.85Zm-7.36-2.54c4.06,2.34,10.66,2.34,14.72,0l35.61-20.56c1.89-1.09,2.93-2.52,2.93-4.02,0-1.5-1.04-2.93-2.93-4.02l-35.61-20.56c-4.06-2.34-10.66-2.34-14.72,0l-35.61,20.56c-1.89,1.09-2.93,2.52-2.93,4.02s1.04,2.93,2.93,4.02l35.61,20.56Z"/>
                        <path class="cls-9" d="m135.06,612.88l-45.58,26.32c-5.34,3.08-14.02,3.08-19.36,0l-45.58-26.32c-2.39-1.38-3.7-3.14-3.95-4.94-.31,2.23,1,4.53,3.95,6.23l45.58,26.32c5.34,3.08,14.02,3.08,19.36,0l45.58-26.32c2.95-1.7,4.27-4,3.95-6.23-.25,1.8-1.57,3.57-3.95,4.94Z"/>
                      </g>
                    </g>
                  </g>
                </g>
                <g class="cls-35">
                  <path class="cls-40" d="m670.33,397.95v-10.33l-2.86-1.59c-.81,4.87-6.54,8.09-11.34,8.75l-32.66,19.1-14.25,5.15-45.5-23.48,1.05-.61c-3.89-1.82-5.98-5.97-8.09-9.76l-3.06,1.83-1.82.51v10.59h0c0,2.02,1.33,4.05,4,5.59l45.58,26.32c5.34,3.08,14.02,3.08,19.36,0l45.58-26.32c2.63-1.52,3.96-3.5,4-5.49,0-.09,0-.18,0-.27h0Z"/>
                  <path class="cls-26" d="m656.14,394.79l-32.66,19.1-12.41,4.48v13.96c3.51,0,7.01-.77,9.68-2.31l45.58-26.32c2.63-1.52,3.96-3.5,4-5.49,0-.09,0-.18,0-.27h0s0-10.32,0-10.32l-2.61-1.45h-.27c-.89,4.8-6.56,7.95-11.31,8.62Z"/>
                  <path class="cls-59" d="m601.39,419.53l-45.58-26.32c-5.34-3.08-5.34-8.1,0-11.18l45.58-26.32c5.34-3.08,14.02-3.08,19.36,0l45.58,26.32c5.34,3.08,5.34,8.09,0,11.18l-45.58,26.32c-5.34,3.08-14.02,3.08-19.36,0Z"/>
                  <g class="cls-35">
                    <path class="cls-24" d="m601.39,419.53l-45.58-26.32c-5.34-3.08-5.34-8.1,0-11.18l45.58-26.32c5.34-3.08,14.02-3.08,19.36,0l45.58,26.32c5.34,3.08,5.34,8.09,0,11.18l-45.58,26.32c-5.34,3.08-14.02,3.08-19.36,0Z"/>
                  </g>
                </g>
                <g>
                  <path class="cls-7" d="m611.07,386.35c-3.11,0-6.22-.68-8.59-2.05l-45.58-26.32c-2.37-1.37-3.67-3.21-3.67-5.19s1.3-3.82,3.67-5.19l45.58-26.31c4.74-2.74,12.44-2.73,17.18,0l45.58,26.32c2.37,1.37,3.67,3.21,3.67,5.19s-1.3,3.82-3.67,5.19l-45.58,26.32c-2.37,1.37-5.48,2.05-8.59,2.05Zm-8.19-2.74c4.52,2.61,11.87,2.61,16.38,0l45.58-26.32c2.11-1.22,3.27-2.82,3.27-4.5s-1.16-3.28-3.27-4.5l-45.58-26.32c-4.51-2.61-11.86-2.61-16.38,0l-45.58,26.31c-2.11,1.22-3.27,2.82-3.27,4.5s1.16,3.28,3.27,4.5l45.58,26.32Z"/>
                  <g>
                    <path class="cls-5" d="m670.33,342.7v-15.61l-2.86-1.59c-.81,4.87-6.54,8.09-11.34,8.75l-32.66,19.1-14.25,5.15-45.5-23.48,1.05-.61c-3.89-1.82-5.98-5.97-8.09-9.76l-3.06,1.83-1.82.51v15.87h0c0,2.02,1.33,4.05,4,5.59l45.58,26.32c5.34,3.08,14.02,3.08,19.36,0l45.58-26.32c2.63-1.52,3.96-3.5,4-5.49,0-.09,0-.18,0-.27h0Z"/>
                    <g>
                      <path class="cls-1" d="m670.33,328.82v-10.33l-2.86-1.59c-.81,4.87-6.54,8.09-11.34,8.75l-32.66,19.1-14.25,5.15-45.5-23.48,1.05-.61c-3.89-1.82-5.98-5.97-8.09-9.76l-3.06,1.83-1.82.51v10.59h0c0,2.02,1.33,4.05,4,5.59l45.58,26.32c5.34,3.08,14.02,3.08,19.36,0l45.58-26.32c2.63-1.52,3.96-3.5,4-5.49,0-.09,0-.18,0-.27h0Z"/>
                      <path class="cls-26" d="m656.14,325.66l-32.66,19.1-12.41,4.48v13.96c3.51,0,7.01-.77,9.68-2.31l45.58-26.32c2.63-1.52,3.96-3.5,4-5.49,0-.09,0-.18,0-.27h0s0-10.32,0-10.32l-2.61-1.45h-.27c-.89,4.8-6.56,7.95-11.31,8.62Z"/>
                      <path class="cls-77" d="m601.39,350.4l-45.58-26.32c-5.34-3.08-5.34-8.09,0-11.18l45.58-26.32c5.34-3.08,14.02-3.08,19.36,0l45.58,26.32c5.34,3.08,5.34,8.09,0,11.18l-45.58,26.32c-5.34,3.08-14.02,3.08-19.36,0Z"/>
                      <path class="cls-84" d="m611.07,345.62c-2.81,0-5.62-.62-7.76-1.85l-35.61-20.56c-2.15-1.24-3.33-2.91-3.33-4.71s1.18-3.47,3.33-4.71l35.61-20.56c4.28-2.47,11.24-2.47,15.52,0l35.61,20.56c2.14,1.24,3.32,2.91,3.32,4.71s-1.18,3.47-3.32,4.71l-35.61,20.56c-2.14,1.24-4.95,1.85-7.76,1.85Zm0-53.46c-2.67,0-5.33.59-7.36,1.76l-35.61,20.56c-1.89,1.09-2.93,2.52-2.93,4.02s1.04,2.93,2.93,4.02l35.61,20.56c4.06,2.34,10.67,2.34,14.72,0l35.61-20.56c1.89-1.09,2.93-2.52,2.93-4.02s-1.04-2.93-2.93-4.02l-35.61-20.56c-2.03-1.17-4.7-1.76-7.36-1.76Z"/>
                      <path class="cls-9" d="m666.33,324.08l-45.58,26.32c-5.34,3.08-14.02,3.08-19.36,0l-45.58-26.32c-2.39-1.38-3.7-3.14-3.95-4.94-.31,2.23,1,4.53,3.95,6.23l45.58,26.32c5.34,3.08,14.02,3.08,19.36,0l45.58-26.32c2.95-1.7,4.27-4,3.95-6.23-.25,1.8-1.57,3.57-3.95,4.94Z"/>
                    </g>
                  </g>
                </g>
                <path class="cls-7" d="m363,652.7c-2.12,0-4.35-.51-6.08-1.51L77.49,489.86c-1.76-1.01-2.77-2.39-2.77-3.79,0-1.18.72-2.25,2.03-3l166.74-96.27c2.77-1.6,7.63-1.41,10.81.43l279.43,161.33c1.76,1.01,2.77,2.39,2.77,3.79,0,1.18-.72,2.25-2.03,3l-166.74,96.27c-1.26.73-2.95,1.09-4.72,1.09Zm-114.78-266.05c-1.6,0-3.12.32-4.25.98l-166.74,96.27c-1,.58-1.55,1.35-1.55,2.18,0,1.04.83,2.12,2.29,2.96l279.43,161.33c2.93,1.68,7.35,1.88,9.86.43l166.74-96.27c1-.58,1.55-1.35,1.55-2.18,0-1.04-.84-2.12-2.29-2.96l-279.43-161.33c-1.61-.93-3.67-1.4-5.61-1.4Z"/>
                <g>
                  <path class="cls-56" d="m536.02,524.45l-15.39-2.21-266.57-153.9c-3.06-1.77-7.69-1.96-10.33-.43l-158.76,91.66-9.77-1.41v12.97h.03c.02,1.17.84,2.39,2.5,3.34l279.43,161.33c3.06,1.77,7.69,1.96,10.33.43l166.74-96.27c1.22-.7,1.78-1.65,1.76-2.64h.03s0-12.87,0-12.87Z"/>
                  <path class="cls-64" d="m77.73,461.57l279.43,161.33c3.06,1.77,7.69,1.96,10.33.43l166.74-96.27c2.65-1.53,2.32-4.2-.74-5.97l-279.43-161.33c-3.06-1.77-7.69-1.96-10.33-.43l-166.74,96.27c-2.65,1.53-2.32,4.2.74,5.97Z"/>
                  <path class="cls-31" d="m101.93,464.73l249.76,144.2c2.73,1.58,6.87,1.75,9.24.38l149.04-86.05c2.37-1.37,2.07-3.75-.66-5.33l-249.76-144.2c-2.73-1.58-6.87-1.75-9.24-.38l-149.04,86.05c-2.37,1.37-2.07,3.75.66,5.33Z"/>
                  <path class="cls-9" d="m534.24,525.66l-166.74,96.27c-2.65,1.53-7.28,1.34-10.33-.43L77.73,460.17c-1.34-.77-2.13-1.72-2.4-2.67-.42,1.36.38,2.91,2.4,4.08l279.43,161.33c3.06,1.77,7.69,1.96,10.33.43l166.74-96.27c1.49-.86,2-2.08,1.65-3.29-.22.71-.75,1.37-1.65,1.89Z"/>
                </g>
                <g>
                  <g>
                    <g>
                      <g>
                        <path class="cls-43" d="m253.56,309.47l35.32-209.56-2.84-1.2,4.27-2.45v.02c.82-.55,1.99-.52,3.28.23l282.3,162.98c2.32,1.34,4.07,4.77,3.67,7.17l-35.6,211.23c-.19,1.1-.73,1.83-1.49,2.15h0s-4.18,2.41-4.18,2.41l-.72-3.9.24.07-280.59-162c-2.32-1.34-4.07-4.77-3.67-7.17Z"/>
                        <path class="cls-83" d="m574.32,265.23l4.64-2.05c.52,1.19.78,2.44.6,3.49l-35.6,211.23c-.19,1.1-.73,1.83-1.49,2.15h0s-4.18,2.41-4.18,2.41l-.72-3.9.24.07-14.2-8.2,50.7-205.21Z"/>
                        <path class="cls-30" d="m252.8,319.18l282.3,162.98c2.18,1.26,4.05.53,4.43-1.72l35.6-211.23c.41-2.4-1.35-5.83-3.67-7.17L289.17,99.06c-2.18-1.26-4.05-.53-4.43,1.73l-35.6,211.23c-.41,2.4,1.35,5.83,3.67,7.17Z"/>
                        <g class="cls-27">
                          <polygon class="cls-72" points="288.22 102.99 571.84 266.66 536.02 478.43 252.58 314.86 288.22 102.99"/>
                        </g>
                      </g>
                      <g>
                        <path class="cls-53" d="m75.35,419.19l15.41,8.05,154.48-89.19c2.58-1.49,7.1-1.3,10.08.42l266.43,153.83c2.55-1.43,14.17-7.02,14.17-7.02l-5.64,9.17s-.02-.02-.02-.02c-.23.65-.73,1.26-1.58,1.75l-162.7,93.93c-2.58,1.49-7.1,1.31-10.08-.42L83.26,432.27c-1.23-.71-1.98-1.56-2.29-2.43h-.02s-5.6-10.65-5.6-10.65Z"/>
                        <path class="cls-69" d="m77.73,421.72l279.43,161.33c3.06,1.77,7.69,1.96,10.33.43l166.74-96.27c2.65-1.53,2.32-4.2-.74-5.97l-279.43-161.33c-3.06-1.77-7.69-1.96-10.33-.43l-166.74,96.27c-2.65,1.53-2.32,4.2.74,5.97Z"/>
                        <path class="cls-30" d="m77.73,421.72l279.43,161.33c3.06,1.77,7.69,1.96,10.33.43l166.74-96.27c2.65-1.53,2.32-4.2-.74-5.97l-279.43-161.33c-3.06-1.77-7.69-1.96-10.33-.43l-166.74,96.27c-2.65,1.53-2.32,4.2.74,5.97Z"/>
                        <path class="cls-28" d="m77.73,421.72l279.43,161.33c3.06,1.77,7.69,1.96,10.33.43l166.74-96.27c2.65-1.53,2.32-4.2-.74-5.97l-279.43-161.33c-3.06-1.77-7.69-1.96-10.33-.43l-166.74,96.27c-2.65,1.53-2.32,4.2.74,5.97Z"/>
                        <g class="cls-35">
                          <path class="cls-19" d="m77.73,415.78l279.43,161.33c3.06,1.77,7.69,1.96,10.33.43l166.74-96.27c2.65-1.53,2.32-4.2-.74-5.97l-279.43-161.33c-3.06-1.77-7.69-1.96-10.33-.43l-166.74,96.27c-2.65,1.53-2.32,4.2.74,5.97Z"/>
                          <g class="cls-63">
                            <path class="cls-49" d="m228.53,593.16c0-62.06,36.95-112.36,82.54-112.36s82.54,50.31,82.54,112.36-36.95,80.65-82.54,80.65-82.54-18.6-82.54-80.65Z"/>
                          </g>
                        </g>
                        <path class="cls-12" d="m362.99,579.24c-2.14,0-4.38-.53-6.16-1.56L77.4,416.35c-1.82-1.05-2.86-2.49-2.86-3.95,0-1.25.75-2.37,2.12-3.16l166.74-96.27c2.87-1.66,7.7-1.47,10.99.43l279.43,161.33c1.82,1.05,2.86,2.49,2.86,3.95,0,1.25-.75,2.37-2.12,3.16l-166.74,96.27c-1.31.76-3.03,1.13-4.83,1.13ZM78.06,415.21l279.43,161.33c2.87,1.65,7.21,1.85,9.67.43l166.74-96.27c.67-.38,1.46-1.05,1.46-2.02s-.8-2-2.2-2.8l-279.43-161.33c-2.87-1.66-7.21-1.85-9.68-.43l-166.74,96.27c-.67.38-1.46,1.05-1.46,2.02,0,.98.8,2,2.2,2.81h0Z"/>
                        <path class="cls-9" d="m77.73,420.47l279.43,161.33c3.06,1.77,7.69,1.96,10.33.43l166.74-96.27c.93-.54,1.47-1.22,1.68-1.95.3,1.19-.23,2.37-1.68,3.21l-166.74,96.27c-2.65,1.53-7.28,1.34-10.33-.43L77.73,421.72c-1.98-1.14-2.8-2.67-2.42-4.01.24.98,1.04,1.96,2.42,2.76Z"/>
                      </g>
                    </g>
                    <g class="cls-51">
                      <g class="cls-45">
                        <g>
                          <path class="cls-54" d="m252.46,317.82l15.41,8.05,154.48-89.19c2.58-1.49,7.1-1.3,10.08.42l266.43,153.83c2.55-1.43,14.17-7.02,14.17-7.02l-5.64,9.17s-.02-.02-.02-.02c-.23.65-.73,1.26-1.58,1.75l-162.7,93.93c-2.58,1.49-7.1,1.31-10.08-.42l-272.65-157.41c-1.23-.71-1.98-1.56-2.29-2.43h-.02s-5.6-10.65-5.6-10.65Z"/>
                          <path class="cls-34" d="m254.84,320.35l279.43,161.33c3.06,1.77,7.69,1.96,10.33.43l166.74-96.27c2.65-1.53,2.32-4.2-.74-5.97l-279.43-161.33c-3.06-1.77-7.69-1.96-10.33-.43l-166.74,96.27c-2.65,1.53-2.32,4.2.74,5.97Z"/>
                          <path class="cls-30" d="m254.84,320.35l279.43,161.33c3.06,1.77,7.69,1.96,10.33.43l166.74-96.27c2.65-1.53,2.32-4.2-.74-5.97l-279.43-161.33c-3.06-1.77-7.69-1.96-10.33-.43l-166.74,96.27c-2.65,1.53-2.32,4.2.74,5.97Z"/>
                          <path class="cls-28" d="m254.84,320.35l279.43,161.33c3.06,1.77,7.69,1.96,10.33.43l166.74-96.27c2.65-1.53,2.32-4.2-.74-5.97l-279.43-161.33c-3.06-1.77-7.69-1.96-10.33-.43l-166.74,96.27c-2.65,1.53-2.32,4.2.74,5.97Z"/>
                          <path class="cls-9" d="m710.6,379.87l-279.43-161.33c-1.97-1.14-4.58-1.61-6.9-1.4,1.72.13,3.45.6,4.85,1.4l279.43,161.33c3.06,1.77,3.39,4.44.74,5.97l-166.74,96.27c-.94.54-2.14.86-3.43.98,2.03.16,4.05-.15,5.49-.98l166.74-96.27c2.65-1.53,2.32-4.2-.74-5.97Z"/>
                        </g>
                        <g>
                          <path class="cls-65" d="m369.52,251.54c5.15,10.53,6.65,38.87-3.88,44.02-10.53,5.15-29.11-14.85-34.26-25.38-5.15-10.53-.78-23.24,9.75-28.39,10.53-5.15,23.24-.78,28.39,9.75Z"/>
                          <g>
                            <path class="cls-52" d="m335.79,246.91c3.97-4.39,11.88-6.95,17.67-5.71,5.79,1.24,7.26,5.81,3.29,10.2-3.97,4.39-11.88,6.95-17.67,5.71-5.79-1.24-7.26-5.81-3.29-10.2Z"/>
                            <path class="cls-7" d="m335.01,255.13c.17-1.36.87-2.81,2.18-4.26,3.97-4.39,11.88-6.95,17.67-5.71,1.78.38,3.15,1.08,4.08,1.99.35-2.77-1.58-5.11-5.47-5.94-5.79-1.24-13.7,1.31-17.67,5.71-2.75,3.04-2.88,6.17-.78,8.21Z"/>
                          </g>
                        </g>
                        <path class="cls-80" d="m420.48,200.92c-3.43,17.32-20.25,28.58-37.57,25.15-17.32-3.43-28.58-20.25-25.15-37.57,3.43-17.32,20.25-28.58,37.57-25.15,17.32,3.43,28.58,20.25,25.15,37.57Z"/>
                        <path class="cls-79" d="m548.55,252.77c0,62.06-36.95,112.36-82.54,112.36s-82.54-50.31-82.54-112.36,36.95-80.65,82.54-80.65,82.54,18.6,82.54,80.65Z"/>
                        <ellipse class="cls-52" cx="466.01" cy="205.48" rx="56.33" ry="32.52"/>
                        <path class="cls-7" d="m426.17,191.14c22-12.7,57.67-12.7,79.66,0,9.09,5.25,14.41,11.84,15.99,18.67,2.25-9.7-3.08-19.87-15.99-27.33-22-12.7-57.67-12.7-79.66,0-12.91,7.45-18.23,17.63-15.99,27.33,1.58-6.83,6.9-13.42,15.99-18.66Z"/>
                        <ellipse class="cls-11" cx="417.67" cy="99.03" rx="33.6" ry="19.4" transform="translate(123.06 411.22) rotate(-60)"/>
                        <circle class="cls-33" cx="469.28" cy="127.85" r="84.18"/>
                        <circle class="cls-55" cx="556.73" cy="274.12" r="31.97" transform="translate(-4.09 539.77) rotate(-51.56)"/>
                        <g>
                          <path class="cls-52" d="m587.45,274.74c0,9.01-6.33,19.97-14.13,24.48-7.8,4.51-14.13.85-14.13-8.16s6.33-19.97,14.13-24.48c7.8-4.51,14.13-.85,14.13,8.16Z"/>
                          <path class="cls-7" d="m579.95,264.66c1.19,1.7,1.88,4.07,1.88,7.03,0,9.01-6.33,19.97-14.13,24.48-2.4,1.38-4.65,1.99-6.63,1.92,2.44,3.49,7.01,4.16,12.25,1.13,7.8-4.51,14.13-15.46,14.13-24.48,0-6.24-3.04-9.91-7.5-10.08Z"/>
                        </g>
                        <polygon class="cls-52" points="540.33 158.65 509.84 176.25 509.84 141.04 540.33 123.44 540.33 158.65"/>
                        <polygon class="cls-44" points="535.8 126.05 535.8 156.19 509.84 171.18 509.84 176.25 540.33 158.65 540.33 123.44 535.8 126.05"/>
                        <g>
                          <polygon class="cls-7" points="515.66 150.66 512.93 152.24 512.93 149.08 515.66 147.51 515.66 150.66"/>
                          <polygon class="cls-7" points="521.46 143.27 518.73 144.85 518.73 141.69 521.46 140.12 521.46 143.27"/>
                          <polygon class="cls-7" points="527.25 143.97 524.52 145.54 524.52 142.39 527.25 140.81 527.25 143.97"/>
                          <polygon class="cls-7" points="527.25 152.24 524.52 153.82 524.52 150.66 527.25 149.08 527.25 152.24"/>
                          <polygon class="cls-7" points="523.76 158.6 521.03 160.18 521.03 157.02 523.76 155.44 523.76 158.6"/>
                          <polygon class="cls-7" points="533.23 148.79 530.5 150.36 530.5 147.21 533.23 145.63 533.23 148.79"/>
                        </g>
                        <g>
                          <polygon class="cls-71" points="564.91 149.36 568.24 143.58 564.91 141.66 534.41 159.26 534.41 194.47 537.75 196.39 541.09 190.62 564.91 176.87 564.91 149.36"/>
                          <polygon class="cls-50" points="568.24 178.79 537.75 196.39 537.75 161.18 568.24 143.58 568.24 178.79"/>
                        </g>
                        <g>
                          <path class="cls-87" d="m576.76,344.87c6.53,9.73,11.88,37.61,2.14,44.14-9.73,6.53-30.86-10.75-37.39-20.49-6.53-9.73-3.93-22.92,5.8-29.45,9.73-6.53,22.92-3.93,29.45,5.8Z"/>
                          <g>
                            <path class="cls-52" d="m542.71,344.87c3.33-4.89,10.82-8.5,16.73-8.06,5.9.44,7.99,4.77,4.65,9.66-3.33,4.89-10.82,8.5-16.73,8.06-5.9-.44-7.99-4.77-4.65-9.66Z"/>
                            <path class="cls-7" d="m543.06,353.12c-.02-1.37.48-2.91,1.58-4.51,3.33-4.89,10.82-8.5,16.73-8.06,1.81.14,3.26.64,4.31,1.41-.03-2.8-2.26-4.85-6.23-5.15-5.9-.44-13.39,3.17-16.73,8.06-2.31,3.39-2.02,6.5.34,8.24Z"/>
                          </g>
                        </g>
                      </g>
                    </g>
                  </g>
                  <g>
                    <path class="cls-7" d="m523.95,276.95c-.67,0-1.38-.2-2.06-.59-2.1-1.21-3.4-3.95-2.9-6.11.24-1.04.86-1.83,1.74-2.21.97-.42,2.17-.3,3.29.35,2.09,1.21,3.39,3.95,2.9,6.11h0c-.24,1.04-.86,1.82-1.74,2.21-.38.16-.79.25-1.22.25Zm-2-8.21c-.3,0-.58.06-.84.17-.6.26-1.02.81-1.19,1.55-.41,1.78.68,4.06,2.44,5.07.85.49,1.74.6,2.43.3.6-.26,1.02-.81,1.19-1.55.41-1.78-.69-4.06-2.44-5.07-.54-.31-1.08-.47-1.59-.47Z"/>
                    <path class="cls-7" d="m535.25,283.47c-.67,0-1.39-.2-2.07-.59-2.1-1.21-3.4-3.95-2.9-6.11.24-1.04.86-1.82,1.74-2.21.97-.42,2.17-.3,3.28.35,2.1,1.21,3.4,3.95,2.9,6.11h0c-.24,1.04-.86,1.82-1.74,2.21-.38.16-.79.25-1.22.25Zm-2-8.21c-.3,0-.58.05-.84.17-.6.26-1.02.81-1.19,1.55-.41,1.78.68,4.06,2.44,5.07.86.49,1.75.6,2.44.3.6-.26,1.02-.81,1.19-1.55.41-1.78-.69-4.06-2.45-5.08-.53-.31-1.08-.47-1.59-.47Z"/>
                    <path class="cls-7" d="m549.03,287.43c-.46,1.97-2.39,2.67-4.32,1.56-1.93-1.12-3.13-3.62-2.67-5.59.46-1.97,2.39-2.67,4.32-1.56,1.93,1.11,3.13,3.62,2.67,5.59Z"/>
                  </g>
                  <polygon class="cls-7" points="332.46 162.8 326.42 159.31 326.89 156.51 332.93 160 332.46 162.8"/>
                  <polygon class="cls-7" points="341.24 167.87 335.2 164.38 335.67 161.58 341.71 165.07 341.24 167.87"/>
                  <polygon class="cls-7" points="323.77 157.78 310.52 150.13 310.99 147.34 324.24 154.98 323.77 157.78"/>
                </g>
                <g class="cls-29">
                  <ellipse class="cls-25" cx="316.69" cy="457.5" rx="100.19" ry="57.85"/>
                  <ellipse class="cls-25" cx="316.69" cy="457.5" rx="82.79" ry="47.8"/>
                  <ellipse class="cls-60" cx="316.69" cy="457.5" rx="65.48" ry="37.81"/>
                </g>
                <g>
                  <ellipse class="cls-17" cx="402.66" cy="210.41" rx="180.89" ry="74.09" transform="translate(-30.84 346.35) rotate(-45)"/>
                  <g>
                    <path class="cls-5" d="m408.9,238.57c1.93-1.81,2.02-4.83.21-6.76-1.81-1.93-4.83-2.02-6.76-.21-1.93,1.81-2.02,4.83-.21,6.76,1.81,1.93,4.83,2.02,6.76.21Z"/>
                    <path class="cls-7" d="m464.2,234.44c1.93-1.81,2.02-4.83.21-6.76-1.81-1.93-4.83-2.02-6.76-.21-1.93,1.81-2.02,4.83-.21,6.76,1.81,1.93,4.83,2.02,6.76.21Z"/>
                    <path class="cls-5" d="m450.55,160.33c2.07-1.94,2.17-5.2.23-7.27-1.94-2.07-5.2-2.17-7.27-.23-2.07,1.94-2.17,5.2-.23,7.27,1.94,2.07,5.2,2.17,7.27.23Z"/>
                    <path class="cls-5" d="m444.78,174.96c1.24-1.16,1.3-3.1.14-4.34s-3.1-1.3-4.34-.14-1.3,3.1-.14,4.34c1.16,1.24,3.1,1.3,4.34.14Z"/>
                    <path class="cls-6" d="m438.43,167.37c.8-.75.84-2,.09-2.79-.75-.8-2-.84-2.79-.09-.8.75-.84,2-.09,2.79.75.8,2,.84,2.79.09Z"/>
                    <path class="cls-6" d="m451.61,211.15c.8-.75.84-2,.09-2.79s-2-.84-2.79-.09c-.8.75-.84,2-.09,2.79.75.8,2,.84,2.79.09Z"/>
                    <path class="cls-5" d="m423.73,154.6c.24-.23.25-.61.03-.85-.23-.24-.61-.25-.85-.03s-.25.61-.03.85c.23.24.61.25.85.03Z"/>
                    <path class="cls-6" d="m427.34,179.42c.24-.23.25-.61.03-.85s-.61-.25-.85-.03c-.24.23-.25.61-.03.85.23.24.61.25.85.03Z"/>
                    <path class="cls-6" d="m435.07,226.67c.24-.23.25-.61.03-.85s-.61-.25-.85-.03c-.24.23-.25.61-.03.85.23.24.61.25.85.03Z"/>
                    <path class="cls-6" d="m429.59,219.15c.24-.23.25-.61.03-.85-.23-.24-.61-.25-.85-.03s-.25.61-.03.85c.23.24.61.25.85.03Z"/>
                    <path class="cls-5" d="m409.16,182.79c2.94-2.76,3.09-7.38.33-10.32-2.76-2.94-7.38-3.09-10.32-.33-2.94,2.76-3.09,7.38-.33,10.32,2.76,2.94,7.38,3.09,10.32.33Z"/>
                    <path class="cls-7" d="m369.86,196.98c1.46-1.37,1.53-3.67.16-5.13-1.37-1.46-3.67-1.53-5.13-.16-1.46,1.37-1.53,3.67-.16,5.13,1.37,1.46,3.67,1.53,5.13.16Z"/>
                    <path class="cls-5" d="m435.52,196.9c1.46-1.37,1.53-3.67.16-5.13s-3.67-1.53-5.13-.16c-1.46,1.37-1.53,3.67-.16,5.13,1.37,1.46,3.67,1.53,5.13.16Z"/>
                    <path class="cls-5" d="m409.15,137c1.46-1.37,1.53-3.67.16-5.13-1.37-1.46-3.67-1.53-5.13-.16-1.46,1.37-1.53,3.67-.16,5.13,1.37,1.46,3.67,1.53,5.13.16Z"/>
                    <path class="cls-5" d="m363.29,163.08c1.46-1.37,1.53-3.67.16-5.13-1.37-1.46-3.67-1.53-5.13-.16s-1.53,3.67-.16,5.13c1.37,1.46,3.67,1.53,5.13.16Z"/>
                    <path class="cls-5" d="m487.88,174.4c1.46-1.37,1.53-3.67.16-5.13-1.37-1.46-3.67-1.53-5.13-.16-1.46,1.37-1.53,3.67-.16,5.13,1.37,1.46,3.67,1.53,5.13.16Z"/>
                    <path class="cls-5" d="m461.64,110.84c1.46-1.37,1.53-3.67.16-5.13-1.37-1.46-3.67-1.53-5.13-.16-1.46,1.37-1.53,3.67-.16,5.13,1.37,1.46,3.67,1.53,5.13.16Z"/>
                    <path class="cls-7" d="m509.44,117.65c.7-.66.74-1.77.08-2.47-.66-.7-1.77-.74-2.47-.08-.7.66-.74,1.77-.08,2.47.66.7,1.77.74,2.47.08Z"/>
                    <path class="cls-5" d="m419.74,226.33c.86-.8.9-2.15.1-3.01-.8-.86-2.15-.9-3.01-.1-.86.8-.9,2.15-.1,3.01.8.86,2.15.9,3.01.1Z"/>
                    <path class="cls-7" d="m415.62,166.06c.86-.8.9-2.15.1-3.01-.8-.86-2.15-.9-3.01-.1-.86.8-.9,2.15-.1,3.01.8.86,2.15.9,3.01.1Z"/>
                    <path class="cls-7" d="m388.37,165.25c.58-.54.61-1.45.06-2.03-.54-.58-1.45-.61-2.03-.06-.58.54-.61,1.45-.06,2.03.54.58,1.45.61,2.03.06Z"/>
                    <path class="cls-7" d="m384.29,165.14c.84-.79.88-2.11.09-2.95-.79-.84-2.11-.88-2.95-.09-.84.79-.88,2.11-.09,2.95.79.84,2.11.88,2.95.09Z"/>
                    <path class="cls-7" d="m383.56,170.11c.46-.44.49-1.17.05-1.63-.44-.46-1.17-.49-1.63-.05-.46.44-.49,1.17-.05,1.63s1.17.49,1.63.05Z"/>
                    <path class="cls-5" d="m403.58,204.42c.6-.57.63-1.52.07-2.12s-1.52-.63-2.12-.07-.63,1.52-.07,2.12c.57.6,1.52.63,2.12.07Z"/>
                    <path class="cls-5" d="m447.27,210.54c.6-.57.63-1.52.07-2.12-.57-.6-1.52-.63-2.12-.07-.6.57-.63,1.52-.07,2.12s1.52.63,2.12.07Z"/>
                    <path class="cls-7" d="m412.88,206.74c1.49-1.4,1.56-3.73.17-5.22-1.4-1.49-3.73-1.56-5.22-.17-1.49,1.4-1.56,3.73-.17,5.22,1.4,1.49,3.73,1.56,5.22.17Z"/>
                  </g>
                  <g>
                    <path class="cls-42" d="m209.74,363.65c-3.38,11.22-21.53,33.04-32.76,29.66-11.22-3.38-11.27-30.68-7.89-41.9,3.38-11.22,15.22-17.58,26.44-14.21s17.58,15.22,14.2,26.44Z"/>
                    <g class="cls-13">
                      <path class="cls-67" d="m209.74,363.65c-3.38,11.22-21.53,33.04-32.76,29.66-11.22-3.38-11.27-30.68-7.89-41.9,3.38-11.22,15.22-17.58,26.44-14.21s17.58,15.22,14.2,26.44Z"/>
                    </g>
                    <g>
                      <path class="cls-52" d="m188.13,337.34c5.9-.53,13.44,2.97,16.84,7.82,3.4,4.84,1.38,9.2-4.51,9.72-5.9.53-13.44-2.97-16.84-7.82-3.4-4.84-1.38-9.2,4.51-9.72Z"/>
                      <path class="cls-18" d="m188.13,337.34c5.9-.53,13.44,2.97,16.84,7.82,3.4,4.84,1.38,9.2-4.51,9.72-5.9.53-13.44-2.97-16.84-7.82-3.4-4.84-1.38-9.2,4.51-9.72Z"/>
                      <path class="cls-7" d="m181.98,342.84c1.05-.88,2.55-1.47,4.49-1.64,5.9-.53,13.44,2.97,16.84,7.82,1.05,1.49,1.58,2.93,1.64,4.23,2.14-1.8,2.31-4.83.02-8.08-3.4-4.84-10.95-8.34-16.84-7.82-4.09.36-6.31,2.57-6.16,5.5Z"/>
                    </g>
                  </g>
                  <g>
                    <path class="cls-4" d="m207.91,331.6c-.92-.02-1.69.71-1.71,1.63-.02.92.71,1.69,1.63,1.71.92.02,1.69-.71,1.71-1.63.02-.92-.71-1.69-1.63-1.71Z"/>
                    <path class="cls-7" d="m192.14,319.95c-2.33-.05-4.27,1.79-4.32,4.12s1.79,4.27,4.12,4.32,4.27-1.79,4.32-4.12c.05-2.33-1.79-4.27-4.12-4.32Z"/>
                    <path class="cls-4" d="m216.31,310.44c-1.31-.03-2.39,1-2.42,2.31-.03,1.31,1,2.39,2.31,2.42,1.31.03,2.39-1,2.42-2.31.03-1.31-1-2.39-2.31-2.42Z"/>
                    <path class="cls-7" d="m206.85,312.32c-.89-.02-1.63.69-1.66,1.58-.02.89.69,1.63,1.58,1.66s1.63-.69,1.66-1.58-.69-1.63-1.58-1.66Z"/>
                    <path class="cls-7" d="m208.65,308.68c-.61-.01-1.12.47-1.13,1.08s.47,1.12,1.08,1.13,1.12-.47,1.13-1.08-.47-1.12-1.08-1.13Z"/>
                    <path class="cls-4" d="m195.02,339.82c-1.29-.03-2.37.99-2.4,2.29-.03,1.29.99,2.37,2.29,2.4,1.29.03,2.37-.99,2.4-2.29.03-1.29-.99-2.37-2.29-2.4Z"/>
                    <path class="cls-7" d="m202.12,339.05c-1.93-.04-3.54,1.49-3.58,3.42-.04,1.93,1.49,3.54,3.42,3.58,1.93.05,3.54-1.49,3.58-3.42.04-1.93-1.49-3.54-3.42-3.59Z"/>
                  </g>
                  <g>
                    <g>
                      <g>
                        <circle class="cls-82" cx="239.8" cy="293.02" r="31.97" transform="translate(-137.12 329.01) rotate(-56.16)"/>
                        <g class="cls-13">
                          <path class="cls-57" d="m256.98,266.06c14.89,9.49,19.27,29.25,9.79,44.14-9.49,14.89-29.25,19.27-44.14,9.79-14.89-9.49-19.27-29.25-9.79-44.14,9.49-14.89,29.25-19.27,44.14-9.79Z"/>
                        </g>
                        <path class="cls-73" d="m399.22,351.07c0,62.05-36.95,112.36-82.54,112.36s-82.54-50.31-82.54-112.36,36.95-80.65,82.54-80.65,82.54,18.6,82.54,80.65Z"/>
                        <g class="cls-13">
                          <path class="cls-10" d="m399.22,351.07c0,62.05-36.95,112.36-82.54,112.36s-82.54-50.31-82.54-112.36,36.95-80.65,82.54-80.65,82.54,18.6,82.54,80.65Z"/>
                        </g>
                        <ellipse class="cls-52" cx="316.69" cy="303.78" rx="56.33" ry="32.52"/>
                        <ellipse class="cls-16" cx="316.69" cy="303.78" rx="56.33" ry="32.52"/>
                        <path class="cls-7" d="m276.85,289.45c22-12.7,57.67-12.7,79.66,0,9.09,5.25,14.41,11.84,15.99,18.67,2.25-9.7-3.08-19.87-15.99-27.33-22-12.7-57.67-12.7-79.66,0-12.91,7.45-18.23,17.63-15.99,27.33,1.58-6.83,6.9-13.42,15.99-18.66Z"/>
                        <path class="cls-11" d="m292.11,183.62c0,15.15-10.64,33.58-23.76,41.15-13.12,7.58-23.76,1.43-23.76-13.72s10.64-33.58,23.76-41.15c13.12-7.58,23.76-1.43,23.76,13.72Z"/>
                        <circle class="cls-2" cx="319.96" cy="226.16" r="84.18"/>
                        <g class="cls-13">
                          <circle class="cls-61" cx="319.96" cy="226.16" r="84.18"/>
                        </g>
                        <g>
                          <path class="cls-52" d="m293.7,266.03c-2.15,16.55-14.64,21.75-27.91,11.61-13.26-10.14-22.27-31.78-20.12-48.33,2.15-16.55,14.64-21.75,27.91-11.61,13.26,10.14,22.27,31.78,20.12,48.33Z"/>
                          <path class="cls-14" d="m293.7,266.03c-2.15,16.55-14.64,21.75-27.91,11.61-13.26-10.14-22.27-31.78-20.12-48.33,2.15-16.55,14.64-21.75,27.91-11.61,13.26,10.14,22.27,31.78,20.12,48.33Z"/>
                          <path class="cls-7" d="m282.75,251.69c-.78,6.02-5.32,7.91-10.14,4.22-4.82-3.68-8.09-11.55-7.31-17.57.78-6.02,5.32-7.91,10.14-4.22,4.82,3.68,8.09,11.55,7.31,17.57Z"/>
                          <path class="cls-7" d="m272.16,275.23c-13.26-10.14-22.27-31.78-20.12-48.33.88-6.75,3.47-11.61,7.14-14.31-6.93.65-12.18,6.53-13.51,16.73-2.15,16.55,6.86,38.19,20.12,48.33,7.86,6.01,15.44,6.63,20.77,2.7-4.33.41-9.3-1.22-14.4-5.11Z"/>
                          <path class="cls-7" d="m266.93,277.1c-13.26-10.14-22.27-31.78-20.12-48.33,1-7.66,4.21-12.89,8.69-15.29-5.07,2.09-8.75,7.53-9.83,15.83-2.15,16.55,6.86,38.19,20.12,48.33,7.12,5.44,14.01,6.45,19.21,3.67-5.04,2.07-11.46.85-18.07-4.21Z"/>
                        </g>
                        <circle class="cls-70" cx="407.41" cy="372.42" r="31.97" transform="translate(-138.32 289.59) rotate(-33.8)"/>
                        <g class="cls-13">
                          <circle class="cls-32" cx="407.41" cy="372.42" r="31.97" transform="translate(-138.32 289.59) rotate(-33.8)"/>
                        </g>
                      </g>
                      <g>
                        <path class="cls-52" d="m438.13,373.04c0,9.01-6.33,19.97-14.13,24.48-7.8,4.51-14.13.85-14.13-8.16s6.33-19.97,14.13-24.48c7.8-4.51,14.13-.85,14.13,8.16Z"/>
                        <path class="cls-20" d="m438.13,373.04c0,9.01-6.33,19.97-14.13,24.48-7.8,4.51-14.13.85-14.13-8.16s6.33-19.97,14.13-24.48c7.8-4.51,14.13-.85,14.13,8.16Z"/>
                        <path class="cls-7" d="m430.63,362.97c1.19,1.7,1.88,4.07,1.88,7.03,0,9.01-6.33,19.97-14.13,24.48-2.4,1.38-4.65,1.99-6.63,1.92,2.44,3.49,7.01,4.16,12.25,1.13,7.8-4.51,14.13-15.46,14.13-24.48,0-6.24-3.04-9.91-7.5-10.08Z"/>
                      </g>
                    </g>
                    <polygon class="cls-52" points="391.01 256.95 360.52 274.55 360.52 239.34 391.01 221.74 391.01 256.95"/>
                    <polygon class="cls-22" points="386.48 224.36 386.48 254.49 360.52 269.48 360.52 274.55 391.01 256.95 391.01 221.74 386.48 224.36"/>
                    <g>
                      <polygon class="cls-7" points="366.34 248.96 363.61 250.54 363.61 247.39 366.34 245.81 366.34 248.96"/>
                      <polygon class="cls-7" points="372.14 241.57 369.4 243.15 369.4 240 372.14 238.42 372.14 241.57"/>
                      <polygon class="cls-7" points="377.93 242.27 375.2 243.85 375.2 240.69 377.93 239.12 377.93 242.27"/>
                      <polygon class="cls-7" points="377.93 250.54 375.2 252.12 375.2 248.96 377.93 247.39 377.93 250.54"/>
                      <polygon class="cls-7" points="374.44 256.9 371.71 258.48 371.71 255.33 374.44 253.75 374.44 256.9"/>
                      <polygon class="cls-7" points="383.91 247.09 381.18 248.67 381.18 245.51 383.91 243.94 383.91 247.09"/>
                    </g>
                    <g>
                      <g>
                        <polygon class="cls-62" points="415.58 247.67 418.92 241.88 415.58 239.96 385.09 257.57 385.09 292.78 388.43 294.7 391.76 288.92 415.58 275.17 415.58 247.67"/>
                        <polygon class="cls-46" points="418.92 277.09 388.43 294.7 388.43 259.49 418.92 241.88 418.92 277.09"/>
                      </g>
                      <polygon class="cls-21" points="418.92 277.09 388.43 294.7 388.43 259.49 418.92 241.88 418.92 277.09"/>
                    </g>
                  </g>
                  <g>
                    <polygon class="cls-7" points="383.12 246.58 382.53 246.03 416.24 210 512.17 210 547.56 174.61 547.56 30.41 548.36 30.41 548.36 174.95 512.5 210.81 416.59 210.81 383.12 246.58"/>
                    <polygon class="cls-7" points="547.68 138.74 531.04 122.1 531.04 62.75 531.84 62.75 531.84 121.76 548.25 138.17 547.68 138.74"/>
                    <polygon class="cls-7" points="445.36 210.69 444.79 210.12 463.66 191.25 504.67 191.25 524.36 171.57 524.93 172.14 505 192.06 463.99 192.06 445.36 210.69"/>
                    <path class="cls-7" d="m524.64,174.59c-1.51,0-2.73-1.22-2.73-2.73s1.22-2.73,2.73-2.73,2.73,1.22,2.73,2.73-1.22,2.73-2.73,2.73Z"/>
                    <path class="cls-7" d="m497.02,156.18c-1.51,0-2.73-1.22-2.73-2.73s1.22-2.73,2.73-2.73,2.73,1.22,2.73,2.73-1.22,2.73-2.73,2.73Z"/>
                    <path class="cls-7" d="m518.9,129.23c-1.51,0-2.73-1.22-2.73-2.73s1.22-2.73,2.73-2.73,2.73,1.22,2.73,2.73-1.22,2.73-2.73,2.73Z"/>
                    <path class="cls-7" d="m508.11,60.8c-1.51,0-2.73-1.22-2.73-2.73s1.22-2.73,2.73-2.73,2.73,1.22,2.73,2.73-1.22,2.73-2.73,2.73Z"/>
                    <path class="cls-7" d="m531.44,65.48c-1.51,0-2.73-1.22-2.73-2.73s1.22-2.73,2.73-2.73,2.73,1.22,2.73,2.73-1.22,2.73-2.73,2.73Z"/>
                    <path class="cls-7" d="m547.96,33.14c-1.51,0-2.73-1.22-2.73-2.73s1.22-2.73,2.73-2.73,2.73,1.22,2.73,2.73-1.22,2.73-2.73,2.73Z"/>
                    <path class="cls-7" d="m417.42,147.52c-1.51,0-2.73-1.22-2.73-2.73s1.22-2.73,2.73-2.73,2.73,1.22,2.73,2.73-1.22,2.73-2.73,2.73Z"/>
                    <polygon class="cls-7" points="365.38 248.18 364.57 248.18 364.57 232.22 364.69 232.1 402.87 193.32 402.87 138.29 434.54 106.62 496.7 106.62 507.7 95.62 507.7 58.06 508.51 58.06 508.51 95.95 497.03 107.43 434.87 107.43 403.68 138.62 403.68 193.65 403.56 193.77 365.38 232.55 365.38 248.18"/>
                    <polygon class="cls-7" points="403.56 180.77 402.99 180.2 417.01 166.18 417.01 144.78 417.82 144.78 417.82 166.51 403.56 180.77"/>
                    <polygon class="cls-7" points="371.05 241.31 370.49 240.74 458.18 153.05 496.4 153.05 496.4 153.85 458.52 153.85 371.05 241.31"/>
                    <polygon class="cls-7" points="442.39 169.82 441.58 169.82 441.58 141.88 457.36 126.1 518.9 126.1 518.9 126.9 457.7 126.9 442.39 142.21 442.39 169.82"/>
                  </g>
                  <g>
                    <path class="cls-3" d="m429.36,462.18c-3.38,11.22-21.53,33.04-32.76,29.66s-11.27-30.68-7.89-41.9c3.38-11.22,15.22-17.58,26.44-14.21,11.22,3.38,17.58,15.22,14.21,26.44Z"/>
                    <g class="cls-13">
                      <path class="cls-39" d="m429.36,462.18c-3.38,11.22-21.53,33.04-32.76,29.66s-11.27-30.68-7.89-41.9c3.38-11.22,15.22-17.58,26.44-14.21,11.22,3.38,17.58,15.22,14.21,26.44Z"/>
                    </g>
                    <g>
                      <path class="cls-52" d="m407.75,435.87c5.9-.53,13.44,2.97,16.84,7.82,3.4,4.84,1.38,9.2-4.51,9.72-5.9.53-13.44-2.97-16.84-7.82-3.4-4.84-1.38-9.2,4.51-9.72Z"/>
                      <path class="cls-15" d="m407.75,435.87c5.9-.53,13.44,2.97,16.84,7.82,3.4,4.84,1.38,9.2-4.51,9.72-5.9.53-13.44-2.97-16.84-7.82-3.4-4.84-1.38-9.2,4.51-9.72Z"/>
                      <path class="cls-7" d="m401.59,441.36c1.05-.88,2.55-1.47,4.49-1.64,5.9-.53,13.44,2.97,16.84,7.82,1.05,1.49,1.58,2.93,1.64,4.23,2.14-1.8,2.31-4.83.02-8.08-3.4-4.84-10.95-8.34-16.84-7.82-4.08.36-6.31,2.57-6.15,5.5Z"/>
                    </g>
                  </g>
                  <path class="cls-4" d="m424.41,422.39c.67-.63.71-1.69.07-2.36s-1.69-.71-2.36-.07c-.67.63-.71,1.69-.07,2.36s1.69.71,2.36.07Z"/>
                  <path class="cls-7" d="m443.83,419.64c1.7-1.6,1.79-4.27.19-5.97-1.6-1.7-4.27-1.79-5.97-.19-1.7,1.6-1.79,4.27-.19,5.97,1.6,1.7,4.27,1.79,5.97.19Z"/>
                  <path class="cls-4" d="m433.26,443.37c.95-.89,1-2.39.11-3.34-.89-.95-2.39-1-3.34-.11-.95.89-1,2.39-.11,3.34.89.95,2.39,1,3.34.11Z"/>
                  <path class="cls-7" d="m438.69,435.4c.65-.61.68-1.64.07-2.29-.61-.65-1.64-.68-2.29-.07-.65.61-.68,1.64-.07,2.29.61.65,1.64.68,2.29.07Z"/>
                  <path class="cls-7" d="m439.96,439.25c.45-.42.47-1.12.05-1.57-.42-.45-1.12-.47-1.57-.05-.45.42-.47,1.12-.05,1.57.42.45,1.12.47,1.57.05Z"/>
                  <path class="cls-4" d="m427.84,407.49c.94-.89.99-2.37.1-3.31-.89-.94-2.37-.99-3.31-.1-.94.89-.99,2.37-.1,3.31.89.94,2.37.99,3.31.11Z"/>
                  <path class="cls-7" d="m423.33,413.02c1.41-1.32,1.48-3.54.16-4.95-1.32-1.41-3.54-1.48-4.95-.16-1.41,1.32-1.48,3.54-.16,4.95,1.32,1.41,3.54,1.48,4.95.16Z"/>
                </g>
              </g>
              <g>
                <path class="cls-41" d="m353.94,194.66l-173.87-99.66c-2.85-1.64-5.44-1.7-7.41-.5v-.03s-10.72,6.22-10.72,6.22l6.98,5.06v5.67l-3.95,1.66.21,212.17,11.76,11.34,40.33,23.15,123.32,68.73h5.25c.21,0,.52-.63.81-1.47l5.29,3.05-1.68,8.05,10.91-6.29h-.02c2.4-1.35,3.93-4.52,3.93-9.05v-206.81c0-8.21-4.99-17.75-11.15-21.31Zm-4.78,222.02l-167.51-95.98c-1.41-.81-2.55-2.99-2.55-4.86V111.76l35.54,22.86,128.89,76.02,3.78,5.88,2.1,92.43-.26,107.74Z"/>
                <path class="cls-8" d="m361.55,203.09l-16.67,9.63,2.44,3.8,2.1,92.43-.26,107.74-3.09-1.79c0,3.33,4.21,19.76,4.21,23.22l8.86-5.11,2.04-1.18h-.02c2.4-1.34,3.93-4.52,3.93-9.05v-206.81c0-4.28-1.36-8.92-3.54-12.88Z"/>
                <path class="cls-74" d="m342.71,201.15l-173.87-99.66c-6.16-3.56-11.15.22-11.15,8.43v206.8c0,8.21,4.99,17.75,11.15,21.31l173.87,99.66c6.16,3.56,11.15-.22,11.15-8.43v-206.81c0-8.21-4.99-17.75-11.15-21.31Zm.96,221.94c0,1.87-1.14,2.74-2.55,1.92l-170.7-97.83c-1.41-.81-2.55-2.99-2.55-4.86V116.09c0-1.88,1.14-2.74,2.55-1.93l170.7,97.83c1.41.81,2.55,2.99,2.55,4.86v206.23Z"/>
                <path class="cls-78" d="m342.71,201.15l-173.87-99.66c-6.16-3.56-11.15.22-11.15,8.43v206.8c0,8.21,4.99,17.75,11.15,21.31l173.87,99.66c6.16,3.56,11.15-.22,11.15-8.43v-206.81c0-8.21-4.99-17.75-11.15-21.31Zm.96,221.94c0,1.87-1.14,2.74-2.55,1.92l-170.7-97.83c-1.41-.81-2.55-2.99-2.55-4.86V116.09c0-1.88,1.14-2.74,2.55-1.93l170.7,97.83c1.41.81,2.55,2.99,2.55,4.86v206.23Z"/>
                <path class="cls-52" d="m181.65,320.7c-1.41-.81-2.55-2.99-2.55-4.86V119.18l-8.68-5.01c-1.41-.81-2.55.05-2.55,1.93v206.23c0,1.87,1.14,4.05,2.55,4.86l170.7,97.83c1.41.81,2.55-.05,2.55-1.92v-9.57l-162.02-92.82Z"/>
                <path class="cls-5" d="m343.67,423.09c0,1.87-1.14,2.74-2.55,1.92l-170.7-97.83c-1.41-.81-2.55-2.99-2.55-4.86V116.09c0-1.88,1.14-2.74,2.55-1.93l170.7,97.83c1.41.81,2.55,2.99,2.55,4.86v206.23Z"/>
              </g>
              <g class="cls-48">
                <polygon class="cls-7" points="220.53 206.2 203.92 196.62 203.92 192.44 220.53 202.02 220.53 206.2"/>
                <polygon class="cls-7" points="234.7 214.38 226.39 209.59 226.39 205.41 234.7 210.2 234.7 214.38"/>
                <polygon class="cls-7" points="225.43 218.84 218.35 214.75 218.35 210.57 225.43 214.65 225.43 218.84"/>
                <polygon class="cls-7" points="237.28 225.68 228.98 220.88 228.98 216.7 237.28 221.5 237.28 225.68"/>
                <polygon class="cls-7" points="250.98 243.39 218.35 224.55 218.35 220.37 250.98 239.21 250.98 243.39"/>
                <polygon class="cls-7" points="225.43 238.44 218.35 234.36 218.35 230.18 225.43 234.26 225.43 238.44"/>
                <polygon class="cls-7" points="237.28 245.28 228.98 240.49 228.98 236.31 237.28 241.1 237.28 245.28"/>
                <polygon class="cls-7" points="236.29 254.51 218.35 244.16 218.35 239.98 236.29 250.33 236.29 254.51"/>
                <polygon class="cls-7" points="248.3 261.45 239.99 256.65 239.99 252.47 248.3 257.27 248.3 261.45"/>
                <polygon class="cls-7" points="260.36 268.41 252.06 263.62 252.06 259.44 260.36 264.23 260.36 268.41"/>
                <polygon class="cls-7" points="279.84 279.66 264.13 270.59 264.13 266.41 279.84 275.48 279.84 279.66"/>
                <polygon class="cls-7" points="270.42 293.83 262.12 289.03 262.12 284.85 270.42 289.65 270.42 293.83"/>
                <polygon class="cls-7" points="289.9 305.07 274.19 296 274.19 291.82 289.9 300.89 289.9 305.07"/>
                <polygon class="cls-7" points="226.66 268.56 218.35 263.76 218.35 259.58 226.66 264.38 226.66 268.56"/>
                <polygon class="cls-7" points="238.72 275.52 230.42 270.73 230.42 266.55 238.72 271.34 238.72 275.52"/>
                <polygon class="cls-7" points="258.2 286.77 242.49 277.7 242.49 273.52 258.2 282.59 258.2 286.77"/>
                <polygon class="cls-7" points="282.21 290.83 273.91 286.04 273.91 281.86 282.21 286.65 282.21 290.83"/>
                <polygon class="cls-7" points="294.28 297.8 285.98 293 285.98 288.82 294.28 293.62 294.28 297.8"/>
                <polygon class="cls-7" points="313.76 309.04 298.05 299.97 298.05 295.79 313.76 304.86 313.76 309.04"/>
                <polygon class="cls-7" points="226.66 288.16 218.35 283.37 218.35 279.19 226.66 283.98 226.66 288.16"/>
                <polygon class="cls-7" points="246.13 299.41 230.42 290.34 230.42 286.16 246.13 295.23 246.13 299.41"/>
                <polygon class="cls-7" points="275.8 257.72 267.5 252.93 267.5 248.75 275.8 253.54 275.8 257.72"/>
                <polygon class="cls-7" points="263.25 250.47 254.94 245.68 254.94 241.5 263.25 246.29 263.25 250.47"/>
                <polygon class="cls-7" points="295.27 268.96 279.56 259.89 279.56 255.71 295.27 264.78 295.27 268.96"/>
                <polygon class="cls-7" points="225.84 258.29 218.35 253.96 218.35 249.78 225.84 254.11 225.84 258.29"/>
                <polygon class="cls-7" points="248.06 271.11 229.85 260.6 229.85 256.42 248.06 266.93 248.06 271.11"/>
                <polygon class="cls-7" points="270.27 283.93 252.06 273.42 252.06 269.24 270.27 279.75 270.27 283.93"/>
                <polygon class="cls-7" points="306.81 275.63 299.32 271.3 299.32 267.12 306.81 271.44 306.81 275.63"/>
                <polygon class="cls-7" points="236.72 284.17 218.51 273.66 218.51 269.48 236.72 279.99 236.72 284.17"/>
                <polygon class="cls-7" points="246.32 289.71 240.73 286.48 240.73 282.3 246.32 285.53 246.32 289.71"/>
                <polygon class="cls-7" points="255.94 295.27 250.34 292.04 250.34 287.86 255.94 291.08 255.94 295.27"/>
                <polygon class="cls-7" points="273.72 305.53 259.96 297.59 259.96 293.41 273.72 301.35 273.72 305.53"/>
                <polygon class="cls-7" points="277.46 307.69 263.7 299.75 263.7 295.57 277.46 303.51 277.46 307.69"/>
                <polygon class="cls-7" points="289.12 285.02 283.53 281.79 283.53 277.61 289.12 280.84 289.12 285.02"/>
                <polygon class="cls-7" points="306.91 295.29 293.15 287.34 293.15 283.16 306.91 291.11 306.91 295.29"/>
                <polygon class="cls-7" points="209.68 288.16 204.08 284.93 204.08 280.75 209.68 283.98 209.68 288.16"/>
                <polygon class="cls-7" points="227.46 298.43 213.7 290.49 213.7 286.31 227.46 294.25 227.46 298.43"/>
                <polygon class="cls-7" points="245.63 308.92 231.87 300.98 231.87 296.8 245.63 304.74 245.63 308.92"/>
              </g>
            </g>
          </g>
        </g>
      </g>
    </g>
  </g>
</svg>