<?xml version="1.0" encoding="UTF-8"?>
<svg xmlns="http://www.w3.org/2000/svg" xmlns:xlink="http://www.w3.org/1999/xlink" viewBox="0 0 781.06 810.19">
  <defs>
    <style>
      .cls-1 {
        fill: url(#_Áåçûìÿííûé_ãðàäèåíò_54-6);
      }

      .cls-2 {
        fill: url(#_Áåçûìÿííûé_ãðàäèåíò_16-11);
      }

      .cls-3 {
        fill: url(#_Áåçûìÿííûé_ãðàäèåíò_16-13);
      }

      .cls-4, .cls-5, .cls-6, .cls-7 {
        fill: #42e8e0;
      }

      .cls-4, .cls-8 {
        opacity: .6;
      }

      .cls-9 {
        fill: #fff;
      }

      .cls-10 {
        fill: url(#_Áåçûìÿííûé_ãðàäèåíò_89-2);
      }

      .cls-11 {
        fill: #bcbeff;
      }

      .cls-12 {
        fill: url(#_Áåçûìÿííûé_ãðàäèåíò_56);
      }

      .cls-12, .cls-13, .cls-14, .cls-15, .cls-16, .cls-17, .cls-18, .cls-19, .cls-20, .cls-21 {
        mix-blend-mode: lighten;
      }

      .cls-12, .cls-22, .cls-6 {
        opacity: .8;
      }

      .cls-23 {
        fill: url(#_Áåçûìÿííûé_ãðàäèåíò_54-4);
      }

      .cls-24, .cls-25, .cls-8, .cls-26 {
        fill: #0f054c;
      }

      .cls-27, .cls-28 {
        opacity: .51;
      }

      .cls-29, .cls-14, .cls-15, .cls-16, .cls-17, .cls-18, .cls-19, .cls-20 {
        opacity: .5;
      }

      .cls-30, .cls-31 {
        fill: #24126a;
      }

      .cls-32 {
        fill: url(#_Áåçûìÿííûé_ãðàäèåíò_89-4);
      }

      .cls-33 {
        fill: url(#_Áåçûìÿííûé_ãðàäèåíò_16-5);
      }

      .cls-34 {
        fill: url(#_Áåçûìÿííûé_ãðàäèåíò_2-4);
      }

      .cls-31, .cls-35, .cls-26 {
        opacity: .3;
      }

      .cls-36 {
        fill: url(#_Áåçûìÿííûé_ãðàäèåíò_54);
      }

      .cls-22 {
        fill: url(#_Áåçûìÿííûé_ãðàäèåíò_160);
      }

      .cls-14 {
        fill: url(#_Áåçûìÿííûé_ãðàäèåíò_8);
      }

      .cls-37 {
        fill: url(#_Áåçûìÿííûé_ãðàäèåíò_54-3);
      }

      .cls-38 {
        isolation: isolate;
      }

      .cls-39 {
        fill: url(#_Áåçûìÿííûé_ãðàäèåíò_89-5);
      }

      .cls-40 {
        fill: url(#_Áåçûìÿííûé_ãðàäèåíò_54-5);
      }

      .cls-41 {
        fill: url(#_Áåçûìÿííûé_ãðàäèåíò_31);
      }

      .cls-42 {
        fill: url(#_Áåçûìÿííûé_ãðàäèåíò_16-8);
      }

      .cls-43 {
        fill: url(#_Áåçûìÿííûé_ãðàäèåíò_2-2);
      }

      .cls-44 {
        fill: #141059;
      }

      .cls-45 {
        clip-path: url(#clippath-1);
      }

      .cls-46 {
        fill: url(#_Áåçûìÿííûé_ãðàäèåíò_41-4);
      }

      .cls-47 {
        fill: url(#radial-gradient);
      }

      .cls-5, .cls-48 {
        opacity: .4;
      }

      .cls-49 {
        fill: url(#_Áåçûìÿííûé_ãðàäèåíò_16);
      }

      .cls-50 {
        fill: url(#_Áåçûìÿííûé_ãðàäèåíò_41-2);
      }

      .cls-51 {
        opacity: .15;
      }

      .cls-52 {
        fill: #251c72;
      }

      .cls-53 {
        fill: url(#_Áåçûìÿííûé_ãðàäèåíò_24-3);
      }

      .cls-54 {
        fill: url(#_Áåçûìÿííûé_ãðàäèåíò_24-4);
      }

      .cls-25 {
        opacity: .67;
      }

      .cls-55 {
        fill: url(#_Áåçûìÿííûé_ãðàäèåíò_16-6);
      }

      .cls-56 {
        fill: url(#_Áåçûìÿííûé_ãðàäèåíò_24);
      }

      .cls-15 {
        fill: url(#_Áåçûìÿííûé_ãðàäèåíò_23-6);
      }

      .cls-57 {
        fill: url(#_Áåçûìÿííûé_ãðàäèåíò_85);
      }

      .cls-58 {
        fill: url(#_Áåçûìÿííûé_ãðàäèåíò_55-3);
      }

      .cls-16 {
        fill: url(#_Áåçûìÿííûé_ãðàäèåíò_23-4);
      }

      .cls-59 {
        fill: url(#_Áåçûìÿííûé_ãðàäèåíò_55-5);
      }

      .cls-60 {
        fill: #080344;
        opacity: .9;
      }

      .cls-61 {
        fill: url(#_Áåçûìÿííûé_ãðàäèåíò_89-3);
      }

      .cls-62 {
        fill: url(#_Áåçûìÿííûé_ãðàäèåíò_41-3);
      }

      .cls-17 {
        fill: url(#_Áåçûìÿííûé_ãðàäèåíò_23-2);
      }

      .cls-63 {
        clip-path: url(#clippath);
      }

      .cls-64 {
        fill: url(#_Áåçûìÿííûé_ãðàäèåíò_2);
      }

      .cls-65 {
        fill: url(#_Áåçûìÿííûé_ãðàäèåíò_16-2);
      }

      .cls-66 {
        fill: url(#_Áåçûìÿííûé_ãðàäèåíò_55-4);
      }

      .cls-67 {
        fill: url(#_Áåçûìÿííûé_ãðàäèåíò_89);
      }

      .cls-68 {
        fill: none;
      }

      .cls-69 {
        fill: url(#_Áåçûìÿííûé_ãðàäèåíò_2-3);
      }

      .cls-70 {
        fill: url(#_Áåçûìÿííûé_ãðàäèåíò_16-12);
      }

      .cls-71 {
        fill: url(#_Áåçûìÿííûé_ãðàäèåíò_41);
      }

      .cls-72, .cls-28 {
        fill: #453c9e;
      }

      .cls-73 {
        fill: url(#_Áåçûìÿííûé_ãðàäèåíò_16-10);
      }

      .cls-18 {
        fill: url(#_Áåçûìÿííûé_ãðàäèåíò_23-3);
      }

      .cls-74 {
        fill: url(#_Áåçûìÿííûé_ãðàäèåíò_31-2);
      }

      .cls-75 {
        fill: url(#_Áåçûìÿííûé_ãðàäèåíò_55);
      }

      .cls-76 {
        mask: url(#mask);
      }

      .cls-77 {
        fill: url(#_Áåçûìÿííûé_ãðàäèåíò_55-6);
      }

      .cls-78 {
        fill: url(#_Áåçûìÿííûé_ãðàäèåíò_85-2);
      }

      .cls-19 {
        fill: url(#_Áåçûìÿííûé_ãðàäèåíò_23);
      }

      .cls-79 {
        fill: url(#_Áåçûìÿííûé_ãðàäèåíò_16-4);
      }

      .cls-80 {
        fill: url(#_Áåçûìÿííûé_ãðàäèåíò_16-3);
      }

      .cls-81 {
        fill: url(#linear-gradient);
      }

      .cls-20 {
        fill: url(#_Áåçûìÿííûé_ãðàäèåíò_23-5);
      }

      .cls-82 {
        fill: url(#_Áåçûìÿííûé_ãðàäèåíò_16-9);
      }

      .cls-83 {
        fill: url(#_Áåçûìÿííûé_ãðàäèåíò_24-2);
      }

      .cls-84 {
        fill: #5351af;
      }

      .cls-85 {
        fill: url(#_Áåçûìÿííûé_ãðàäèåíò_55-2);
      }

      .cls-86 {
        fill: url(#_Áåçûìÿííûé_ãðàäèåíò_54-2);
      }

      .cls-87 {
        fill: url(#_Áåçûìÿííûé_ãðàäèåíò_16-7);
      }

      .cls-21 {
        fill: url(#_Áåçûìÿííûé_ãðàäèåíò_116);
      }
    </style>
    <linearGradient id="linear-gradient" x1="-7779.57" y1="779.88" x2="-7779.57" y2="1667.55" gradientTransform="translate(7780.06 1769.79) scale(1 -1)" gradientUnits="userSpaceOnUse">
      <stop offset="0" stop-color="#fff"/>
      <stop offset=".04" stop-color="#e9e8e7"/>
      <stop offset=".15" stop-color="#b6b3b1"/>
      <stop offset=".26" stop-color="#898482"/>
      <stop offset=".37" stop-color="#635d5a"/>
      <stop offset=".49" stop-color="#453d39"/>
      <stop offset=".6" stop-color="#2d2420"/>
      <stop offset=".73" stop-color="#1c120e"/>
      <stop offset=".85" stop-color="#120803"/>
      <stop offset="1" stop-color="#0f0500"/>
    </linearGradient>
    <mask id="mask" x="-932.33" y="0" width="1865.63" height="1753.09" maskUnits="userSpaceOnUse">
      <rect class="cls-81" x="-932.33" y="16.7" width="1865.63" height="1736.4" transform="translate(.98 1769.79) rotate(-180)"/>
    </mask>
    <radialGradient id="radial-gradient" cx="382.12" cy="387.55" fx="235.78" fy="387.55" r="388.88" gradientUnits="userSpaceOnUse">
      <stop offset=".11" stop-color="#5385e5"/>
      <stop offset=".2" stop-color="#507fde" stop-opacity=".96"/>
      <stop offset=".33" stop-color="#4971cd" stop-opacity=".84"/>
      <stop offset=".51" stop-color="#3d5ab2" stop-opacity=".66"/>
      <stop offset=".72" stop-color="#2c3a8c" stop-opacity=".4"/>
      <stop offset=".95" stop-color="#18115c" stop-opacity=".08"/>
      <stop offset="1" stop-color="#130851" stop-opacity="0"/>
    </radialGradient>
    <linearGradient id="_Áåçûìÿííûé_ãðàäèåíò_54" data-name="Áåçûìÿííûé ãðàäèåíò 54" x1="582.67" y1="738.76" x2="685.63" y2="798.21" gradientUnits="userSpaceOnUse">
      <stop offset="0" stop-color="#bcbeff"/>
      <stop offset=".23" stop-color="#aaadf7"/>
      <stop offset=".68" stop-color="#7b82e5"/>
      <stop offset="1" stop-color="#5761d7"/>
    </linearGradient>
    <linearGradient id="_Áåçûìÿííûé_ãðàäèåíò_55" data-name="Áåçûìÿííûé ãðàäèåíò 55" x1="569.76" y1="761.23" x2="699.53" y2="761.23" gradientUnits="userSpaceOnUse">
      <stop offset="0" stop-color="#e9e9fd"/>
      <stop offset=".36" stop-color="#d2d2f9"/>
      <stop offset=".71" stop-color="#c4c3f6"/>
      <stop offset="1" stop-color="#c0bff6"/>
    </linearGradient>
    <linearGradient id="_Áåçûìÿííûé_ãðàäèåíò_54-2" data-name="Áåçûìÿííûé ãðàäèåíò 54" x1="582.67" y1="662.98" x2="685.63" y2="722.42" xlink:href="#_Áåçûìÿííûé_ãðàäèåíò_54"/>
    <linearGradient id="_Áåçûìÿííûé_ãðàäèåíò_55-2" data-name="Áåçûìÿííûé ãðàäèåíò 55" y1="685.45" y2="685.45" xlink:href="#_Áåçûìÿííûé_ãðàäèåíò_55"/>
    <linearGradient id="_Áåçûìÿííûé_ãðàäèåíò_54-3" data-name="Áåçûìÿííûé ãðàäèåíò 54" x1="35.4" y1="723.76" x2="138.36" y2="783.21" xlink:href="#_Áåçûìÿííûé_ãðàäèåíò_54"/>
    <linearGradient id="_Áåçûìÿííûé_ãðàäèåíò_55-3" data-name="Áåçûìÿííûé ãðàäèåíò 55" x1="22.49" y1="746.23" x2="152.26" y2="746.23" xlink:href="#_Áåçûìÿííûé_ãðàäèåíò_55"/>
    <linearGradient id="_Áåçûìÿííûé_ãðàäèåíò_54-4" data-name="Áåçûìÿííûé ãðàäèåíò 54" x1="35.4" y1="642.47" x2="138.36" y2="701.92" xlink:href="#_Áåçûìÿííûé_ãðàäèåíò_54"/>
    <linearGradient id="_Áåçûìÿííûé_ãðàäèåíò_55-4" data-name="Áåçûìÿííûé ãðàäèåíò 55" x1="22.49" y1="664.94" x2="152.26" y2="664.94" xlink:href="#_Áåçûìÿííûé_ãðàäèåíò_55"/>
    <linearGradient id="_Áåçûìÿííûé_ãðàäèåíò_54-5" data-name="Áåçûìÿííûé ãðàäèåíò 54" x1="617.11" y1="401.95" x2="720.07" y2="461.4" xlink:href="#_Áåçûìÿííûé_ãðàäèåíò_54"/>
    <linearGradient id="_Áåçûìÿííûé_ãðàäèåíò_55-5" data-name="Áåçûìÿííûé ãðàäèåíò 55" x1="604.19" y1="424.42" x2="733.97" y2="424.42" xlink:href="#_Áåçûìÿííûé_ãðàäèåíò_55"/>
    <linearGradient id="_Áåçûìÿííûé_ãðàäèåíò_54-6" data-name="Áåçûìÿííûé ãðàäèåíò 54" x1="617.11" y1="326.26" x2="720.07" y2="385.71" xlink:href="#_Áåçûìÿííûé_ãðàäèåíò_54"/>
    <linearGradient id="_Áåçûìÿííûé_ãðàäèåíò_55-6" data-name="Áåçûìÿííûé ãðàäèåíò 55" x1="604.19" y1="348.73" x2="733.97" y2="348.73" xlink:href="#_Áåçûìÿííûé_ãðàäèåíò_55"/>
    <linearGradient id="_Áåçûìÿííûé_ãðàäèåíò_24" data-name="Áåçûìÿííûé ãðàäèåíò 24" x1="577.44" y1="549.73" x2="72.87" y2="549.73" gradientUnits="userSpaceOnUse">
      <stop offset="0" stop-color="#5761d7"/>
      <stop offset=".18" stop-color="#5b65d8"/>
      <stop offset=".39" stop-color="#6a72de"/>
      <stop offset=".61" stop-color="#8188e8"/>
      <stop offset=".85" stop-color="#a2a6f5"/>
      <stop offset="1" stop-color="#bcbeff"/>
    </linearGradient>
    <linearGradient id="_Áåçûìÿííûé_ãðàäèåíò_2" data-name="Áåçûìÿííûé ãðàäèåíò 2" x1="-9229.3" y1="537.98" x2="-8724.73" y2="537.98" gradientTransform="translate(-8811.94) rotate(-180) scale(1 -1)" gradientUnits="userSpaceOnUse">
      <stop offset="0" stop-color="#c0bff6"/>
      <stop offset=".29" stop-color="#c4c3f6"/>
      <stop offset=".64" stop-color="#d2d2f9"/>
      <stop offset="1" stop-color="#e9e9fd"/>
    </linearGradient>
    <linearGradient id="_Áåçûìÿííûé_ãðàäèåíò_2-2" data-name="Áåçûìÿííûé ãðàäèåíò 2" x1="-9446.59" y1="316.64" x2="-9089.52" y2="316.64" xlink:href="#_Áåçûìÿííûé_ãðàäèåíò_2"/>
    <linearGradient id="_Áåçûìÿííûé_ãðàäèåíò_24-2" data-name="Áåçûìÿííûé ãðàäèåíò 24" x1="-9446.59" y1="408.22" x2="-9385.27" y2="408.22" gradientTransform="translate(-8811.94) rotate(-180) scale(1 -1)" xlink:href="#_Áåçûìÿííûé_ãðàäèåíò_24"/>
    <linearGradient id="_Áåçûìÿííûé_ãðàäèåíò_24-3" data-name="Áåçûìÿííûé ãðàäèåíò 24" x1="-9398.75" y1="508.13" x2="-8894.45" y2="508.13" gradientTransform="translate(-8811.94) rotate(-180) scale(1 -1)" xlink:href="#_Áåçûìÿííûé_ãðàäèåíò_24"/>
    <linearGradient id="_Áåçûìÿííûé_ãðàäèåíò_2-3" data-name="Áåçûìÿííûé ãðàäèåíò 2" y1="494.34" y2="494.34" xlink:href="#_Áåçûìÿííûé_ãðàäèåíò_2"/>
    <radialGradient id="_Áåçûìÿííûé_ãðàäèåíò_23" data-name="Áåçûìÿííûé ãðàäèåíò 23" cx="340.93" cy="473.96" fx="340.93" fy="473.96" r="319.43" gradientUnits="userSpaceOnUse">
      <stop offset="0" stop-color="#42e8e0"/>
      <stop offset=".11" stop-color="#36b5bf"/>
      <stop offset=".22" stop-color="#2c87a0"/>
      <stop offset=".34" stop-color="#235f86"/>
      <stop offset=".46" stop-color="#1b3e71"/>
      <stop offset=".58" stop-color="#162560"/>
      <stop offset=".71" stop-color="#121355"/>
      <stop offset=".85" stop-color="#0f084e"/>
      <stop offset="1" stop-color="#0f054c"/>
    </radialGradient>
    <clipPath id="clippath">
      <path class="cls-19" d="m85.11,455.25l305.95,176.64c3.35,1.93,8.41,2.14,11.31.47l182.57-105.41c2.9-1.67,2.54-4.6-.81-6.53l-305.95-176.64c-3.35-1.93-8.41-2.14-11.32-.47l-182.57,105.41c-2.9,1.67-2.54,4.6.81,6.53Z"/>
    </clipPath>
    <radialGradient id="_Áåçûìÿííûé_ãðàäèåíò_16" data-name="Áåçûìÿííûé ãðàäèåíò 16" cx="-13225.54" cy="8193.61" fx="-13225.54" fy="8193.61" r="199.61" gradientTransform="translate(-10003.51 9346.58) rotate(-180) scale(.78 1.06)" gradientUnits="userSpaceOnUse">
      <stop offset="0" stop-color="#c0bff6"/>
      <stop offset="1" stop-color="#393091"/>
    </radialGradient>
    <linearGradient id="_Áåçûìÿííûé_ãðàäèåíò_56" data-name="Áåçûìÿííûé ãðàäèåíò 56" x1="81.62" y1="487.84" x2="587.63" y2="487.84" gradientUnits="userSpaceOnUse">
      <stop offset="0" stop-color="#42e8e0"/>
      <stop offset=".11" stop-color="#36b5bf"/>
      <stop offset=".22" stop-color="#2c87a0"/>
      <stop offset=".34" stop-color="#235f86"/>
      <stop offset=".46" stop-color="#1b3e71"/>
      <stop offset=".58" stop-color="#162560"/>
      <stop offset=".71" stop-color="#121355"/>
      <stop offset=".85" stop-color="#0f084e"/>
      <stop offset="1" stop-color="#0f054c"/>
    </linearGradient>
    <clipPath id="clippath-1">
      <polygon class="cls-68" points="626.13 291.98 315.58 112.76 276.56 344.75 586.91 523.85 626.13 291.98"/>
    </clipPath>
    <linearGradient id="_Áåçûìÿííûé_ãðàäèåíò_24-4" data-name="Áåçûìÿííûé ãðàäèåíò 24" x1="-9592.67" y1="397.14" x2="-9088.37" y2="397.14" gradientTransform="translate(-8811.94) rotate(-180) scale(1 -1)" xlink:href="#_Áåçûìÿííûé_ãðàäèåíò_24"/>
    <linearGradient id="_Áåçûìÿííûé_ãðàäèåíò_2-4" data-name="Áåçûìÿííûé ãðàäèåíò 2" x1="-9423.22" y1="383.35" x2="-8918.65" y2="383.35" xlink:href="#_Áåçûìÿííûé_ãðàäèåíò_2"/>
    <radialGradient id="_Áåçûìÿííûé_ãðàäèåíò_16-2" data-name="Áåçûìÿííûé ãðàäèåíò 16" cx="1708.18" cy="3299.67" fx="1708.18" fy="3299.67" r="66.02" gradientTransform="translate(-2596.87 -1947.64) rotate(-26.04)" xlink:href="#_Áåçûìÿííûé_ãðàäèåíò_16"/>
    <radialGradient id="_Áåçûìÿííûé_ãðàäèåíò_16-3" data-name="Áåçûìÿííûé ãðàäèåíò 16" cx="-246.08" cy="-1174.84" fx="-246.08" fy="-1174.84" r="202.05" gradientTransform="translate(606.73 1301.68) rotate(11.2)" xlink:href="#_Áåçûìÿííûé_ãðàäèåíò_16"/>
    <radialGradient id="_Áåçûìÿííûé_ãðàäèåíò_16-4" data-name="Áåçûìÿííûé ãðàäèåíò 16" cx="2573.19" cy="448.17" fx="2573.19" fy="448.17" r="199.61" gradientTransform="translate(-1438.62 -216.37) scale(.78 1.06)" xlink:href="#_Áåçûìÿííûé_ãðàäèåíò_16"/>
    <radialGradient id="_Áåçûìÿííûé_ãðàäèåíò_16-5" data-name="Áåçûìÿííûé ãðàäèåíò 16" cx="571.36" cy="126.33" fx="571.36" fy="126.33" r="155.79" gradientTransform="matrix(1,0,0,1,0,0)" xlink:href="#_Áåçûìÿííûé_ãðàäèåíò_16"/>
    <radialGradient id="_Áåçûìÿííûé_ãðàäèåíò_16-6" data-name="Áåçûìÿííûé ãðàäèåíò 16" cx="-175.78" cy="-1009.42" fx="-175.78" fy="-1009.42" r="73.02" gradientTransform="translate(-176.66 920.55) rotate(62.76)" xlink:href="#_Áåçûìÿííûé_ãðàäèåíò_16"/>
    <linearGradient id="_Áåçûìÿííûé_ãðàäèåíò_41" data-name="Áåçûìÿííûé ãðàäèåíò 41" x1="617.05" y1="181" x2="529.64" y2="207.58" gradientUnits="userSpaceOnUse">
      <stop offset="0" stop-color="#bcbeff"/>
      <stop offset=".15" stop-color="#a2a6f5"/>
      <stop offset=".39" stop-color="#8188e8"/>
      <stop offset=".61" stop-color="#6a72de"/>
      <stop offset=".82" stop-color="#5b65d8"/>
      <stop offset="1" stop-color="#5761d7"/>
    </linearGradient>
    <linearGradient id="_Áåçûìÿííûé_ãðàäèåíò_41-2" data-name="Áåçûìÿííûé ãðàäèåíò 41" x1="601.92" y1="186.55" x2="482.15" y2="200.82" xlink:href="#_Áåçûìÿííûé_ãðàäèåíò_41"/>
    <radialGradient id="_Áåçûìÿííûé_ãðàäèåíò_16-7" data-name="Áåçûìÿííûé ãðàäèåíò 16" cx="1972.76" cy="4421.47" fx="1972.76" fy="4421.47" r="66.02" gradientTransform="translate(-3488.93 -2200.62) rotate(-33.86)" xlink:href="#_Áåçûìÿííûé_ãðàäèåíò_16"/>
    <radialGradient id="_Áåçûìÿííûé_ãðàäèåíò_23-2" data-name="Áåçûìÿííûé ãðàäèåíò 23" cx="-1944.04" cy="-2509.1" fx="-1944.04" fy="-2509.1" r="235.41" gradientTransform="translate(-2068.19 1026.57) rotate(90) scale(.41 1)" xlink:href="#_Áåçûìÿííûé_ãðàäèåíò_23"/>
    <radialGradient id="_Áåçûìÿííûé_ãðàäèåíò_16-8" data-name="Áåçûìÿííûé ãðàäèåíò 16" cx="-1069.71" cy="-1215.78" fx="-1069.71" fy="-1215.78" r="66.02" gradientTransform="translate(895.67 1852.36) rotate(16.76)" xlink:href="#_Áåçûìÿííûé_ãðàäèåíò_16"/>
    <linearGradient id="_Áåçûìÿííûé_ãðàäèåíò_89" data-name="Áåçûìÿííûé ãðàäèåíò 89" x1="-1100.82" y1="-1172.87" x2="-1061.79" y2="-1215.02" gradientTransform="translate(895.67 1852.36) rotate(16.76)" gradientUnits="userSpaceOnUse">
      <stop offset="0" stop-color="#2fd3c7"/>
      <stop offset=".09" stop-color="#30b5bd"/>
      <stop offset=".23" stop-color="#338caf"/>
      <stop offset=".37" stop-color="#356ba4"/>
      <stop offset=".52" stop-color="#36519c"/>
      <stop offset=".67" stop-color="#383e95"/>
      <stop offset=".83" stop-color="#383392"/>
      <stop offset="1" stop-color="#393091"/>
    </linearGradient>
    <radialGradient id="_Áåçûìÿííûé_ãðàäèåíò_23-3" data-name="Áåçûìÿííûé ãðàäèåíò 23" cx="-1229.85" cy="10026.22" fx="-1229.85" fy="10026.22" r="42.85" gradientTransform="translate(-9886.06 50.98) rotate(-95.11)" xlink:href="#_Áåçûìÿííûé_ãðàäèåíò_23"/>
    <radialGradient id="_Áåçûìÿííûé_ãðàäèåíò_16-9" data-name="Áåçûìÿííûé ãðàäèåíò 16" cx="-385.55" cy="-1037.51" fx="-385.55" fy="-1037.51" r="202.05" gradientTransform="translate(-360.43 1152.92) rotate(67.36)" xlink:href="#_Áåçûìÿííûé_ãðàäèåíò_16"/>
    <linearGradient id="_Áåçûìÿííûé_ãðàäèåíò_85" data-name="Áåçûìÿííûé ãðàäèåíò 85" x1="-1396.21" y1="5251.4" x2="-1326.2" y2="5251.4" gradientTransform="translate(-3435.22 -3648.25) rotate(-57.51)" gradientUnits="userSpaceOnUse">
      <stop offset="0" stop-color="#706ec4"/>
      <stop offset=".02" stop-color="#6d6bc1"/>
      <stop offset=".25" stop-color="#5651ac"/>
      <stop offset=".49" stop-color="#463e9d"/>
      <stop offset=".73" stop-color="#3c3393"/>
      <stop offset="1" stop-color="#393091"/>
    </linearGradient>
    <radialGradient id="_Áåçûìÿííûé_ãðàäèåíò_16-10" data-name="Áåçûìÿííûé ãðàäèåíò 16" cx="2363.06" cy="549.79" fx="2363.06" fy="549.79" r="199.61" gradientTransform="translate(-1438.62 -216.37) scale(.78 1.06)" xlink:href="#_Áåçûìÿííûé_ãðàäèåíò_16"/>
    <linearGradient id="_Áåçûìÿííûé_ãðàäèåíò_89-2" data-name="Áåçûìÿííûé ãðàäèåíò 89" x1="2294.53" y1="683.35" x2="2294.53" y2="483.82" gradientTransform="translate(-1438.62 -216.37) scale(.78 1.06)" xlink:href="#_Áåçûìÿííûé_ãðàäèåíò_89"/>
    <radialGradient id="_Áåçûìÿííûé_ãðàäèåíò_23-4" data-name="Áåçûìÿííûé ãðàäèåíò 23" cx="344.36" cy="366.84" fx="344.36" fy="366.84" r="120.22" xlink:href="#_Áåçûìÿííûé_ãðàäèåíò_23"/>
    <radialGradient id="_Áåçûìÿííûé_ãðàäèåíò_16-11" data-name="Áåçûìÿííûé ãðàäèåíò 16" cx="407.86" cy="233.97" fx="407.86" fy="233.97" r="155.79" gradientTransform="matrix(1,0,0,1,0,0)" xlink:href="#_Áåçûìÿííûé_ãðàäèåíò_16"/>
    <linearGradient id="_Áåçûìÿííûé_ãðàäèåíò_89-3" data-name="Áåçûìÿííûé ãðàäèåíò 89" x1="337.51" y1="338.91" x2="363.17" y2="156.34" gradientTransform="matrix(1,0,0,1,0,0)" xlink:href="#_Áåçûìÿííûé_ãðàäèåíò_89"/>
    <radialGradient id="_Áåçûìÿííûé_ãðàäèåíò_8" data-name="Áåçûìÿííûé ãðàäèåíò 8" cx="321.63" cy="256.13" fx="321.63" fy="256.13" r="76.52" gradientUnits="userSpaceOnUse">
      <stop offset="0" stop-color="#42e8e0"/>
      <stop offset=".06" stop-color="#3bcbcd"/>
      <stop offset=".18" stop-color="#2f97ab"/>
      <stop offset=".3" stop-color="#256a8e"/>
      <stop offset=".42" stop-color="#1d4676"/>
      <stop offset=".54" stop-color="#172a64"/>
      <stop offset=".66" stop-color="#121657"/>
      <stop offset=".78" stop-color="#0f0a4f"/>
      <stop offset=".9" stop-color="#0f064d"/>
      <stop offset="1" stop-color="#0f054c"/>
    </radialGradient>
    <radialGradient id="_Áåçûìÿííûé_ãðàäèåíò_16-12" data-name="Áåçûìÿííûé ãðàäèåíò 16" cx="-315.25" cy="-872.09" fx="-315.25" fy="-872.09" r="73.02" gradientTransform="translate(82.3 1239.96) rotate(45)" xlink:href="#_Áåçûìÿííûé_ãðàäèåíò_16"/>
    <linearGradient id="_Áåçûìÿííûé_ãðàäèåíò_89-4" data-name="Áåçûìÿííûé ãðàäèåíò 89" x1="-354.95" y1="-819.97" x2="-307.38" y2="-871.33" gradientTransform="translate(82.3 1239.96) rotate(45)" xlink:href="#_Áåçûìÿííûé_ãðàäèåíò_89"/>
    <radialGradient id="_Áåçûìÿííûé_ãðàäèåíò_23-5" data-name="Áåçûìÿííûé ãðàäèåíò 23" cx="457.71" cy="411.87" fx="457.71" fy="411.87" r="65.22" xlink:href="#_Áåçûìÿííûé_ãðàäèåíò_23"/>
    <radialGradient id="_Áåçûìÿííûé_ãðàäèåíò_160" data-name="Áåçûìÿííûé ãðàäèåíò 160" cx="405.2" cy="-1256.11" fx="405.2" fy="-1256.11" r="61.47" gradientTransform="translate(0 1819.62) scale(1 1.28)" gradientUnits="userSpaceOnUse">
      <stop offset="0" stop-color="#2b237c"/>
      <stop offset=".31" stop-color="#251c72"/>
      <stop offset="1" stop-color="#0f054c"/>
    </radialGradient>
    <linearGradient id="_Áåçûìÿííûé_ãðàäèåíò_41-3" data-name="Áåçûìÿííûé ãðàäèåíò 41" x1="453.55" y1="288.64" x2="366.14" y2="315.22" xlink:href="#_Áåçûìÿííûé_ãðàäèåíò_41"/>
    <linearGradient id="_Áåçûìÿííûé_ãðàäèåíò_41-4" data-name="Áåçûìÿííûé ãðàäèåíò 41" x1="438.42" y1="294.19" x2="318.65" y2="308.46" xlink:href="#_Áåçûìÿííûé_ãðàäèåíò_41"/>
    <linearGradient id="_Áåçûìÿííûé_ãðàäèåíò_116" data-name="Áåçûìÿííûé ãðàäèåíò 116" x1="420.46" y1="329.4" x2="482.86" y2="226.18" gradientUnits="userSpaceOnUse">
      <stop offset="0" stop-color="#42e8e0"/>
      <stop offset=".12" stop-color="#41e2dd"/>
      <stop offset=".27" stop-color="#40d2d6"/>
      <stop offset=".44" stop-color="#3fb8cb"/>
      <stop offset=".62" stop-color="#3d94bc"/>
      <stop offset=".81" stop-color="#3b65a8"/>
      <stop offset="1" stop-color="#393091"/>
    </linearGradient>
    <radialGradient id="_Áåçûìÿííûé_ãðàäèåíò_16-13" data-name="Áåçûìÿííûé ãðàäèåíò 16" cx="-808.34" cy="-1181.81" fx="-808.34" fy="-1181.81" r="66.02" gradientTransform="translate(895.67 1852.36) rotate(16.76)" xlink:href="#_Áåçûìÿííûé_ãðàäèåíò_16"/>
    <linearGradient id="_Áåçûìÿííûé_ãðàäèåíò_89-5" data-name="Áåçûìÿííûé ãðàäèåíò 89" x1="-839.45" y1="-1138.9" x2="-800.42" y2="-1181.05" xlink:href="#_Áåçûìÿííûé_ãðàäèåíò_89"/>
    <radialGradient id="_Áåçûìÿííûé_ãðàäèåíò_23-6" data-name="Áåçûìÿííûé ãðàäèåíò 23" cx="-1358.71" cy="10256.14" fx="-1358.71" fy="10256.14" r="42.85" gradientTransform="translate(-9886.06 50.98) rotate(-95.11)" xlink:href="#_Áåçûìÿííûé_ãðàäèåíò_23"/>
    <linearGradient id="_Áåçûìÿííûé_ãðàäèåíò_31" data-name="Áåçûìÿííûé ãðàäèåíò 31" x1="221.1" y1="291.14" x2="401.48" y2="291.14" gradientUnits="userSpaceOnUse">
      <stop offset="0" stop-color="#bcbeff"/>
      <stop offset=".17" stop-color="#b5b8fc"/>
      <stop offset=".4" stop-color="#a3a7f5"/>
      <stop offset=".66" stop-color="#868ce9"/>
      <stop offset=".96" stop-color="#5d67d9"/>
      <stop offset="1" stop-color="#5761d7"/>
    </linearGradient>
    <linearGradient id="_Áåçûìÿííûé_ãðàäèåíò_31-2" data-name="Áåçûìÿííûé ãðàäèåíò 31" x1="172.66" y1="295.18" x2="387.45" y2="295.18" xlink:href="#_Áåçûìÿííûé_ãðàäèåíò_31"/>
    <linearGradient id="_Áåçûìÿííûé_ãðàäèåíò_85-2" data-name="Áåçûìÿííûé ãðàäèåíò 85" x1="142.99" y1="295.18" x2="530.52" y2="295.18" gradientTransform="matrix(1,0,0,1,0,0)" xlink:href="#_Áåçûìÿííûé_ãðàäèåíò_85"/>
  </defs>
  <g class="cls-38">
    <g id="Layer_2" data-name="Layer 2">
      <g id="Layer_3" data-name="Layer 3">
        <g class="cls-76">
          <g>
            <circle class="cls-47" cx="390.53" cy="390.53" r="390.53"/>
            <g>
              <g>
                <g>
                  <g class="cls-35">
                    <path class="cls-36" d="m699.53,772.54v-11.31l-3.13-1.74c-.88,5.34-7.16,8.85-12.42,9.58l-35.76,20.91-15.61,5.64-49.82-25.71,1.15-.66c-4.26-1.99-6.55-6.54-8.85-10.69l-3.35,2-1.99.56v11.6h0c0,2.22,1.46,4.43,4.38,6.12l49.91,28.81c5.84,3.37,15.35,3.37,21.2,0l49.91-28.81c2.87-1.66,4.33-3.83,4.38-6.01,0-.1,0-.19,0-.29h0Z"/>
                    <path class="cls-26" d="m683.99,769.08l-35.76,20.91-13.58,4.91v15.29c3.84,0,7.68-.84,10.6-2.53l49.91-28.81c2.87-1.66,4.33-3.83,4.38-6.01,0-.1,0-.19,0-.29h0s0-11.3,0-11.3l-2.86-1.59h-.3c-.98,5.25-7.18,8.71-12.39,9.43Z"/>
                    <path class="cls-75" d="m624.05,796.17l-49.91-28.81c-5.84-3.37-5.84-8.86,0-12.24l49.91-28.81c5.84-3.37,15.35-3.37,21.2,0l49.91,28.81c5.84,3.37,5.84,8.86,0,12.24l-49.91,28.81c-5.84,3.37-15.35,3.37-21.2,0Z"/>
                    <g class="cls-35">
                      <path class="cls-24" d="m624.05,796.17l-49.91-28.81c-5.84-3.37-5.84-8.86,0-12.24l49.91-28.81c5.84-3.37,15.35-3.37,21.2,0l49.91,28.81c5.84,3.37,5.84,8.86,0,12.24l-49.91,28.81c-5.84,3.37-15.35,3.37-21.2,0Z"/>
                    </g>
                  </g>
                  <g>
                    <path class="cls-7" d="m634.65,759.75c-3.41,0-6.81-.75-9.41-2.25l-49.91-28.82c-2.59-1.5-4.02-3.52-4.02-5.68s1.43-4.19,4.02-5.68l49.91-28.81c5.18-3,13.62-3,18.81,0l49.91,28.82c2.59,1.49,4.02,3.51,4.02,5.68s-1.43,4.19-4.02,5.68l-49.9,28.82c-2.59,1.5-6,2.25-9.41,2.25Zm-8.97-3c4.94,2.85,12.99,2.86,17.94,0l49.9-28.82c2.31-1.33,3.58-3.08,3.58-4.93s-1.27-3.59-3.58-4.92l-49.91-28.82c-4.94-2.85-12.99-2.85-17.94,0l-49.91,28.81c-2.31,1.33-3.58,3.08-3.58,4.93s1.27,3.59,3.58,4.93l49.91,28.82Z"/>
                    <g>
                      <path class="cls-5" d="m699.53,711.95v-17.09s-3.13-1.74-3.13-1.74c-.88,5.34-7.16,8.85-12.42,9.58l-35.76,20.91-15.61,5.64-49.82-25.71,1.15-.66c-4.26-1.99-6.55-6.54-8.85-10.69l-3.35,2-1.99.56v17.38h0c0,2.22,1.46,4.43,4.38,6.12l49.91,28.81c5.84,3.37,15.35,3.37,21.2,0l49.91-28.81c2.87-1.66,4.33-3.83,4.38-6.01,0-.1,0-.19,0-.29h0Z"/>
                      <g>
                        <path class="cls-86" d="m699.53,696.75v-11.31s-3.13-1.74-3.13-1.74c-.88,5.34-7.16,8.85-12.42,9.58l-35.76,20.91-15.61,5.64-49.82-25.71,1.15-.66c-4.26-1.99-6.55-6.54-8.85-10.69l-3.35,2-1.99.56v11.6h0c0,2.22,1.46,4.43,4.38,6.12l49.91,28.81c5.84,3.37,15.35,3.37,21.2,0l49.91-28.81c2.87-1.66,4.33-3.83,4.38-6.01,0-.1,0-.19,0-.29h0Z"/>
                        <path class="cls-26" d="m683.99,693.29l-35.76,20.91-13.58,4.91v15.29c3.84,0,7.68-.84,10.6-2.53l49.91-28.81c2.87-1.66,4.33-3.83,4.38-6.01,0-.1,0-.19,0-.29h0s0-11.3,0-11.3l-2.86-1.59h-.3c-.98,5.25-7.18,8.71-12.39,9.43Z"/>
                        <path class="cls-85" d="m624.05,720.38l-49.91-28.81c-5.84-3.37-5.84-8.86,0-12.24l49.91-28.81c5.84-3.37,15.35-3.37,21.2,0l49.91,28.81c5.84,3.37,5.84,8.86,0,12.24l-49.91,28.81c-5.84,3.37-15.35,3.37-21.2,0Z"/>
                        <path class="cls-9" d="m695.15,691.57l-49.91,28.81c-5.84,3.37-15.35,3.37-21.2,0l-49.91-28.81c-2.61-1.51-4.05-3.44-4.33-5.41-.34,2.44,1.1,4.96,4.33,6.82l49.91,28.81c5.84,3.37,15.35,3.37,21.2,0l49.91-28.81c3.23-1.87,4.67-4.38,4.33-6.82-.28,1.98-1.72,3.91-4.33,5.41Z"/>
                      </g>
                    </g>
                  </g>
                </g>
                <g>
                  <g class="cls-35">
                    <path class="cls-37" d="m152.26,757.54v-11.31s-3.13-1.74-3.13-1.74c-.88,5.34-7.16,8.85-12.42,9.58l-35.76,20.91-15.61,5.64-49.82-25.71,1.15-.66c-4.26-1.99-6.55-6.54-8.85-10.69l-3.35,2-1.99.56v11.6h0c0,2.22,1.46,4.43,4.38,6.12l49.91,28.81c5.84,3.37,15.35,3.37,21.2,0l49.91-28.81c2.87-1.66,4.33-3.83,4.38-6.01,0-.1,0-.19,0-.29h0Z"/>
                    <path class="cls-26" d="m136.72,754.08l-35.76,20.91-13.58,4.91v15.29c3.84,0,7.68-.84,10.6-2.53l49.91-28.81c2.87-1.66,4.33-3.83,4.38-6.01,0-.1,0-.19,0-.29h0s0-11.3,0-11.3l-2.86-1.59h-.3c-.98,5.25-7.18,8.71-12.39,9.43Z"/>
                    <path class="cls-58" d="m76.78,781.16l-49.91-28.81c-5.84-3.37-5.84-8.86,0-12.24l49.91-28.81c5.84-3.37,15.35-3.37,21.2,0l49.91,28.81c5.84,3.37,5.84,8.86,0,12.24l-49.91,28.81c-5.84,3.37-15.35,3.37-21.2,0Z"/>
                    <g class="cls-35">
                      <path class="cls-24" d="m76.78,781.16l-49.91-28.81c-5.84-3.37-5.84-8.86,0-12.24l49.91-28.81c5.84-3.37,15.35-3.37,21.2,0l49.91,28.81c5.84,3.37,5.84,8.86,0,12.24l-49.91,28.81c-5.84,3.37-15.35,3.37-21.2,0Z"/>
                    </g>
                  </g>
                  <g>
                    <path class="cls-7" d="m87.38,739.24c-3.41,0-6.81-.75-9.41-2.25l-49.91-28.82c-2.59-1.5-4.02-3.52-4.02-5.68s1.43-4.19,4.02-5.68l49.91-28.81c5.19-3,13.63-3,18.81,0l49.91,28.82c2.59,1.49,4.02,3.51,4.02,5.68s-1.43,4.19-4.02,5.68l-49.91,28.81c-2.59,1.5-6,2.25-9.41,2.25Zm0-72.63c-3.25,0-6.5.71-8.97,2.14l-49.91,28.81c-2.31,1.33-3.58,3.08-3.58,4.93s1.27,3.59,3.58,4.93l49.91,28.82c4.95,2.85,12.99,2.86,17.94,0l49.9-28.81c2.31-1.33,3.58-3.09,3.58-4.93,0-1.84-1.27-3.59-3.58-4.93l-49.91-28.82c-2.47-1.43-5.72-2.14-8.97-2.14Z"/>
                    <g>
                      <path class="cls-5" d="m152.26,691.44v-17.09l-3.13-1.74c-.88,5.34-7.16,8.85-12.42,9.58l-35.76,20.91-15.61,5.64-49.82-25.71,1.15-.66c-4.26-1.99-6.55-6.54-8.85-10.69l-3.35,2-1.99.56v17.38h0c0,2.22,1.46,4.43,4.38,6.12l49.91,28.81c5.84,3.37,15.35,3.37,21.2,0l49.91-28.81c2.87-1.66,4.33-3.83,4.38-6.01,0-.1,0-.19,0-.29h0Z"/>
                      <g>
                        <path class="cls-23" d="m152.26,676.25v-11.31l-3.13-1.74c-.88,5.34-7.16,8.85-12.42,9.58l-35.76,20.91-15.61,5.64-49.82-25.71,1.15-.66c-4.26-1.99-6.55-6.54-8.85-10.69l-3.35,2-1.99.56v11.6h0c0,2.22,1.46,4.43,4.38,6.12l49.91,28.81c5.84,3.37,15.35,3.37,21.2,0l49.91-28.81c2.87-1.66,4.33-3.83,4.38-6.01,0-.1,0-.19,0-.29h0Z"/>
                        <path class="cls-26" d="m136.72,672.79l-35.76,20.91-13.58,4.91v15.29c3.84,0,7.68-.84,10.6-2.53l49.91-28.81c2.87-1.66,4.33-3.83,4.38-6.01,0-.1,0-.19,0-.29h0s0-11.3,0-11.3l-2.86-1.59h-.3c-.98,5.25-7.18,8.71-12.39,9.43Z"/>
                        <path class="cls-66" d="m76.78,699.88l-49.91-28.81c-5.84-3.37-5.84-8.86,0-12.24l49.91-28.81c5.84-3.37,15.35-3.37,21.2,0l49.91,28.81c5.84,3.37,5.84,8.86,0,12.24l-49.91,28.81c-5.84,3.37-15.35,3.37-21.2,0Z"/>
                        <path class="cls-84" d="m87.38,694.64c-3.08,0-6.16-.68-8.5-2.03l-38.99-22.51c-2.35-1.36-3.64-3.19-3.64-5.16,0-1.97,1.29-3.8,3.64-5.16l38.99-22.51c4.69-2.7,12.31-2.71,17,0l38.99,22.51c2.35,1.36,3.64,3.19,3.64,5.16s-1.29,3.8-3.64,5.16l-38.99,22.51c-2.34,1.35-5.42,2.03-8.5,2.03Zm-8.06-2.79c4.44,2.56,11.68,2.56,16.12,0l38.99-22.51c2.07-1.19,3.2-2.76,3.2-4.4,0-1.64-1.14-3.21-3.2-4.4l-38.99-22.51c-4.45-2.56-11.68-2.56-16.12,0l-38.99,22.51c-2.07,1.19-3.21,2.76-3.21,4.4s1.14,3.21,3.21,4.4l38.99,22.51Z"/>
                        <path class="cls-9" d="m147.88,671.06l-49.91,28.81c-5.84,3.37-15.35,3.37-21.2,0l-49.91-28.81c-2.61-1.51-4.05-3.44-4.33-5.41-.34,2.44,1.1,4.96,4.33,6.82l49.91,28.81c5.84,3.37,15.35,3.37,21.2,0l49.91-28.81c3.23-1.87,4.67-4.38,4.33-6.82-.28,1.98-1.72,3.91-4.33,5.41Z"/>
                      </g>
                    </g>
                  </g>
                </g>
                <g class="cls-35">
                  <path class="cls-40" d="m733.97,435.73v-11.31l-3.13-1.74c-.88,5.34-7.16,8.85-12.42,9.58l-35.76,20.91-15.61,5.64-49.82-25.71,1.15-.66c-4.26-1.99-6.55-6.54-8.85-10.69l-3.35,2-1.99.56v11.6h0c0,2.22,1.46,4.43,4.38,6.12l49.91,28.81c5.84,3.37,15.35,3.37,21.2,0l49.91-28.81c2.87-1.66,4.33-3.83,4.38-6.01,0-.1,0-.19,0-.29h0Z"/>
                  <path class="cls-26" d="m718.43,432.27l-35.76,20.91-13.58,4.91v15.29c3.84,0,7.68-.84,10.6-2.53l49.91-28.81c2.87-1.66,4.33-3.83,4.38-6.01,0-.1,0-.19,0-.29h0s0-11.3,0-11.3l-2.86-1.59h-.3c-.98,5.25-7.18,8.71-12.39,9.43Z"/>
                  <path class="cls-59" d="m658.49,459.36l-49.91-28.81c-5.84-3.37-5.84-8.86,0-12.24l49.91-28.81c5.84-3.37,15.35-3.37,21.2,0l49.91,28.81c5.84,3.37,5.84,8.86,0,12.24l-49.91,28.81c-5.84,3.37-15.35,3.37-21.2,0Z"/>
                  <g class="cls-35">
                    <path class="cls-24" d="m658.49,459.36l-49.91-28.81c-5.84-3.37-5.84-8.86,0-12.24l49.91-28.81c5.84-3.37,15.35-3.37,21.2,0l49.91,28.81c5.84,3.37,5.84,8.86,0,12.24l-49.91,28.81c-5.84,3.37-15.35,3.37-21.2,0Z"/>
                  </g>
                </g>
                <g>
                  <path class="cls-7" d="m669.08,423.03c-3.41,0-6.81-.75-9.41-2.24l-49.91-28.82c-2.59-1.5-4.02-3.51-4.02-5.68s1.43-4.19,4.02-5.68l49.91-28.81c5.19-3,13.62-2.99,18.81,0l49.91,28.81c2.59,1.5,4.02,3.51,4.02,5.68s-1.43,4.19-4.02,5.68l-49.91,28.81c-2.59,1.5-6,2.24-9.41,2.24Zm-8.97-3c4.94,2.85,12.99,2.85,17.94,0l49.91-28.81c2.31-1.33,3.58-3.08,3.58-4.93s-1.27-3.59-3.58-4.93l-49.91-28.81c-4.94-2.85-12.99-2.85-17.94,0l-49.91,28.81c-2.31,1.33-3.58,3.08-3.58,4.93s1.27,3.59,3.58,4.93l49.91,28.82Z"/>
                  <g>
                    <path class="cls-5" d="m733.97,375.23v-17.09l-3.13-1.74c-.88,5.34-7.16,8.85-12.42,9.58l-35.76,20.91-15.61,5.64-49.82-25.71,1.15-.66c-4.26-1.99-6.55-6.54-8.85-10.69l-3.35,2-1.99.56v17.38h0c0,2.22,1.46,4.43,4.38,6.12l49.91,28.81c5.84,3.37,15.35,3.37,21.2,0l49.91-28.81c2.87-1.66,4.33-3.83,4.38-6.01,0-.1,0-.19,0-.29h0Z"/>
                    <g>
                      <path class="cls-1" d="m733.97,360.04v-11.31l-3.13-1.74c-.88,5.34-7.16,8.85-12.42,9.58l-35.76,20.91-15.61,5.64-49.82-25.71,1.15-.66c-4.26-1.99-6.55-6.54-8.85-10.69l-3.35,2-1.99.56v11.6h0c0,2.22,1.46,4.43,4.38,6.12l49.91,28.81c5.84,3.37,15.35,3.37,21.2,0l49.91-28.81c2.87-1.66,4.33-3.83,4.38-6.01,0-.1,0-.19,0-.29h0Z"/>
                      <path class="cls-26" d="m718.43,356.58l-35.76,20.91-13.58,4.91v15.29c3.84,0,7.68-.84,10.6-2.53l49.91-28.81c2.87-1.66,4.33-3.83,4.38-6.01,0-.1,0-.19,0-.29h0s0-11.3,0-11.3l-2.86-1.59h-.3c-.98,5.25-7.18,8.71-12.39,9.43Z"/>
                      <path class="cls-77" d="m658.49,383.66l-49.91-28.81c-5.84-3.37-5.84-8.86,0-12.24l49.91-28.81c5.84-3.37,15.35-3.37,21.2,0l49.91,28.81c5.84,3.37,5.84,8.86,0,12.24l-49.91,28.81c-5.84,3.37-15.35,3.37-21.2,0Z"/>
                      <path class="cls-84" d="m669.08,378.43c-3.08,0-6.16-.68-8.5-2.03l-38.99-22.51c-2.35-1.36-3.64-3.19-3.64-5.16s1.29-3.8,3.64-5.16l38.99-22.51c4.69-2.7,12.31-2.7,17,0l38.99,22.51c2.35,1.36,3.64,3.19,3.64,5.16s-1.29,3.8-3.64,5.16l-38.99,22.51c-2.34,1.35-5.42,2.03-8.5,2.03Zm0-58.54c-2.92,0-5.84.64-8.06,1.92l-38.99,22.51c-2.07,1.19-3.21,2.76-3.21,4.4s1.14,3.21,3.21,4.4l38.99,22.51c4.44,2.57,11.68,2.57,16.12,0l38.99-22.51c2.07-1.19,3.2-2.76,3.2-4.4s-1.14-3.21-3.2-4.4l-38.99-22.51c-2.22-1.28-5.14-1.92-8.06-1.92Z"/>
                      <path class="cls-9" d="m729.59,354.85l-49.91,28.81c-5.84,3.37-15.35,3.37-21.2,0l-49.91-28.81c-2.61-1.51-4.05-3.44-4.33-5.41-.34,2.44,1.1,4.96,4.33,6.82l49.91,28.81c5.84,3.37,15.35,3.37,21.2,0l49.91-28.81c3.23-1.87,4.67-4.38,4.33-6.82-.28,1.98-1.72,3.91-4.33,5.41Z"/>
                    </g>
                  </g>
                </g>
                <path class="cls-7" d="m397.47,714.66c-2.32,0-4.76-.56-6.66-1.66l-305.96-176.64c-1.93-1.11-3.03-2.62-3.03-4.15,0-1.29.79-2.46,2.22-3.29l182.57-105.41c3.04-1.76,8.35-1.54,11.83.47l305.95,176.64c1.93,1.11,3.03,2.62,3.03,4.15,0,1.29-.79,2.46-2.22,3.29l-182.57,105.41c-1.38.8-3.23,1.19-5.17,1.19Zm-125.68-291.31c-1.75,0-3.41.35-4.66,1.07l-182.57,105.41c-1.1.63-1.7,1.48-1.7,2.39,0,1.14.91,2.32,2.51,3.24l305.95,176.64c3.2,1.84,8.05,2.06,10.8.47l182.57-105.41c1.09-.63,1.7-1.48,1.7-2.39,0-1.14-.92-2.32-2.51-3.24l-305.95-176.64c-1.76-1.02-4.01-1.54-6.14-1.54Z"/>
                <g>
                  <path class="cls-56" d="m586.91,574.24l-16.85-2.42-291.88-168.51c-3.35-1.93-8.41-2.14-11.32-.47l-173.83,100.36-10.7-1.54v14.2h.03c.02,1.28.92,2.61,2.74,3.66l305.95,176.64c3.35,1.93,8.41,2.14,11.32.47l182.57-105.41c1.33-.77,1.95-1.81,1.93-2.89h.03s0-14.09,0-14.09Z"/>
                  <path class="cls-64" d="m85.11,505.39l305.95,176.64c3.35,1.93,8.41,2.14,11.31.47l182.57-105.41c2.9-1.67,2.54-4.6-.81-6.53l-305.95-176.64c-3.35-1.93-8.41-2.14-11.32-.47l-182.57,105.41c-2.9,1.67-2.54,4.6.81,6.53Z"/>
                  <path class="cls-31" d="m111.6,508.85l273.47,157.89c2.99,1.73,7.52,1.92,10.11.42l163.19-94.22c2.59-1.5,2.27-4.11-.73-5.84l-273.47-157.89c-2.99-1.73-7.52-1.92-10.11-.42l-163.19,94.22c-2.59,1.5-2.27,4.11.73,5.84Z"/>
                  <path class="cls-9" d="m584.95,575.56l-182.57,105.41c-2.9,1.67-7.97,1.46-11.32-.47L85.11,503.86c-1.47-.85-2.33-1.89-2.62-2.93-.46,1.49.42,3.19,2.62,4.46l305.95,176.64c3.35,1.93,8.41,2.14,11.32.47l182.57-105.41c1.63-.94,2.19-2.27,1.81-3.6-.24.77-.82,1.5-1.81,2.07Z"/>
                </g>
                <g>
                  <g>
                    <g>
                      <g>
                        <path class="cls-43" d="m277.64,338.85l38.68-229.46-3.11-1.31,4.67-2.68v.03c.9-.6,2.18-.57,3.59.25l309.1,178.46c2.54,1.47,4.46,5.22,4.01,7.85l-38.98,231.28c-.2,1.21-.8,2-1.63,2.35h0s-4.57,2.64-4.57,2.64l-.79-4.27.26.08-307.23-177.38c-2.54-1.47-4.46-5.22-4.01-7.85Z"/>
                        <path class="cls-83" d="m628.85,290.41l5.08-2.25c.57,1.3.85,2.67.65,3.83l-38.98,231.28c-.2,1.21-.8,2-1.63,2.35h0s-4.57,2.64-4.57,2.64l-.79-4.27.26.08-15.55-8.98,55.51-224.69Z"/>
                        <path class="cls-30" d="m276.8,349.48l309.1,178.46c2.39,1.38,4.43.58,4.85-1.89l38.98-231.28c.45-2.63-1.48-6.39-4.01-7.85L316.62,108.46c-2.39-1.38-4.43-.58-4.85,1.89l-38.98,231.28c-.45,2.63,1.48,6.39,4.01,7.85Z"/>
                        <g class="cls-27">
                          <polygon class="cls-72" points="315.58 112.76 626.13 291.98 586.91 523.85 276.56 344.75 315.58 112.76"/>
                        </g>
                      </g>
                      <g>
                        <path class="cls-53" d="m82.5,458.98l16.87,8.81,169.15-97.66c2.83-1.63,7.77-1.43,11.04.46l291.73,168.43c2.79-1.56,15.52-7.68,15.52-7.68l-6.17,10.04s-.02-.02-.02-.02c-.26.72-.8,1.38-1.73,1.92l-178.14,102.85c-2.83,1.63-7.77,1.43-11.04-.46L91.17,473.31c-1.34-.77-2.16-1.71-2.5-2.66l-.02.02-6.13-11.68Z"/>
                        <path class="cls-69" d="m85.11,461.76l305.95,176.64c3.35,1.93,8.41,2.14,11.31.47l182.57-105.41c2.9-1.67,2.54-4.6-.81-6.53l-305.95-176.64c-3.35-1.93-8.41-2.14-11.32-.47l-182.57,105.41c-2.9,1.67-2.54,4.6.81,6.53Z"/>
                        <path class="cls-30" d="m85.11,461.76l305.95,176.64c3.35,1.93,8.41,2.14,11.31.47l182.57-105.41c2.9-1.67,2.54-4.6-.81-6.53l-305.95-176.64c-3.35-1.93-8.41-2.14-11.32-.47l-182.57,105.41c-2.9,1.67-2.54,4.6.81,6.53Z"/>
                        <path class="cls-28" d="m85.11,461.76l305.95,176.64c3.35,1.93,8.41,2.14,11.31.47l182.57-105.41c2.9-1.67,2.54-4.6-.81-6.53l-305.95-176.64c-3.35-1.93-8.41-2.14-11.32-.47l-182.57,105.41c-2.9,1.67-2.54,4.6.81,6.53Z"/>
                        <g class="cls-35">
                          <path class="cls-19" d="m85.11,455.25l305.95,176.64c3.35,1.93,8.41,2.14,11.31.47l182.57-105.41c2.9-1.67,2.54-4.6-.81-6.53l-305.95-176.64c-3.35-1.93-8.41-2.14-11.32-.47l-182.57,105.41c-2.9,1.67-2.54,4.6.81,6.53Z"/>
                          <g class="cls-63">
                            <path class="cls-49" d="m250.23,649.47c0-67.95,40.46-123.03,90.37-123.03s90.37,55.08,90.37,123.03-40.46,88.31-90.37,88.31-90.37-20.36-90.37-88.31Z"/>
                          </g>
                        </g>
                        <path class="cls-12" d="m397.45,634.23c-2.34,0-4.79-.58-6.75-1.71L84.75,455.88c-1.99-1.15-3.13-2.73-3.13-4.32,0-1.37.82-2.6,2.32-3.46l182.57-105.41c3.14-1.82,8.44-1.61,12.04.47l305.95,176.64c1.99,1.15,3.13,2.72,3.13,4.32,0,1.37-.82,2.6-2.32,3.46l-182.57,105.41c-1.44.83-3.32,1.24-5.29,1.24ZM85.47,454.63l305.96,176.64c3.14,1.81,7.89,2.03,10.59.47l182.57-105.41c.73-.42,1.6-1.15,1.6-2.21s-.88-2.19-2.41-3.07l-305.95-176.64c-3.15-1.81-7.9-2.03-10.59-.47l-182.57,105.41c-.73.42-1.6,1.15-1.6,2.21,0,1.07.88,2.19,2.41,3.07h0Z"/>
                        <path class="cls-9" d="m85.11,460.38l305.95,176.64c3.35,1.93,8.41,2.14,11.32.47l182.57-105.41c1.02-.59,1.61-1.34,1.84-2.14.32,1.3-.25,2.59-1.84,3.51l-182.57,105.41c-2.9,1.67-7.97,1.46-11.32-.47L85.11,461.75c-2.17-1.25-3.06-2.92-2.65-4.39.27,1.07,1.14,2.15,2.65,3.02Z"/>
                      </g>
                    </g>
                    <g class="cls-51">
                      <g class="cls-45">
                        <g>
                          <path class="cls-54" d="m276.42,347.99l16.87,8.81,169.15-97.66c2.83-1.63,7.77-1.43,11.04.46l291.73,168.43c2.79-1.56,15.52-7.68,15.52-7.68l-6.17,10.04s-.02-.02-.02-.02c-.26.72-.8,1.38-1.73,1.92l-178.14,102.85c-2.83,1.63-7.77,1.43-11.04-.46l-298.53-172.36c-1.34-.78-2.16-1.71-2.5-2.66l-.02.02-6.13-11.68Z"/>
                          <path class="cls-34" d="m279.03,350.77l305.95,176.64c3.35,1.93,8.41,2.14,11.32.47l182.57-105.41c2.9-1.67,2.54-4.6-.81-6.53l-305.95-176.64c-3.35-1.93-8.41-2.14-11.32-.47l-182.57,105.41c-2.9,1.67-2.54,4.6.81,6.53Z"/>
                          <path class="cls-30" d="m279.03,350.77l305.95,176.64c3.35,1.93,8.41,2.14,11.32.47l182.57-105.41c2.9-1.67,2.54-4.6-.81-6.53l-305.95-176.64c-3.35-1.93-8.41-2.14-11.32-.47l-182.57,105.41c-2.9,1.67-2.54,4.6.81,6.53Z"/>
                          <path class="cls-28" d="m279.03,350.77l305.95,176.64c3.35,1.93,8.41,2.14,11.32.47l182.57-105.41c2.9-1.67,2.54-4.6-.81-6.53l-305.95-176.64c-3.35-1.93-8.41-2.14-11.32-.47l-182.57,105.41c-2.9,1.67-2.54,4.6.81,6.53Z"/>
                          <path class="cls-9" d="m778.06,415.94l-305.95-176.64c-2.16-1.24-5.02-1.76-7.56-1.54,1.88.15,3.77.65,5.31,1.54l305.95,176.64c3.35,1.93,3.71,4.86.81,6.53l-182.57,105.41c-1.03.6-2.35.94-3.75,1.07,2.23.17,4.44-.16,6.01-1.07l182.57-105.41c2.9-1.67,2.54-4.6-.81-6.53Z"/>
                        </g>
                        <g>
                          <path class="cls-65" d="m404.61,275.42c5.63,11.53,7.28,42.57-4.25,48.2-11.53,5.63-31.88-16.26-37.51-27.79-5.63-11.53-.85-25.45,10.68-31.08,11.53-5.63,25.45-.85,31.08,10.68Z"/>
                          <g>
                            <path class="cls-52" d="m367.67,270.36c4.35-4.81,13.01-7.61,19.35-6.25,6.34,1.36,7.95,6.36,3.61,11.17-4.35,4.81-13.01,7.61-19.35,6.25-6.34-1.36-7.95-6.36-3.61-11.17Z"/>
                            <path class="cls-7" d="m366.82,279.35c.19-1.48.96-3.08,2.38-4.66,4.35-4.81,13.01-7.61,19.35-6.25,1.95.42,3.44,1.18,4.46,2.18.38-3.04-1.73-5.6-5.99-6.51-6.34-1.36-15,1.44-19.35,6.25-3.01,3.33-3.16,6.75-.86,8.99Z"/>
                          </g>
                        </g>
                        <path class="cls-80" d="m460.4,220c-3.75,18.96-22.17,31.29-41.13,27.54-18.96-3.75-31.29-22.17-27.54-41.13,3.75-18.96,22.17-31.29,41.13-27.54,18.96,3.75,31.29,22.17,27.54,41.13Z"/>
                        <path class="cls-79" d="m600.62,276.76c0,67.95-40.46,123.03-90.37,123.03s-90.37-55.08-90.37-123.03,40.46-88.31,90.37-88.31,90.37,20.36,90.37,88.31Z"/>
                        <ellipse class="cls-52" cx="510.25" cy="224.99" rx="61.68" ry="35.61"/>
                        <path class="cls-7" d="m466.63,209.29c24.09-13.91,63.14-13.91,87.23,0,9.95,5.74,15.78,12.96,17.51,20.44,2.46-10.62-3.37-21.76-17.51-29.92-24.09-13.91-63.14-13.91-87.23,0-14.14,8.16-19.96,19.3-17.51,29.92,1.73-7.47,7.56-14.69,17.51-20.44Z"/>
                        <ellipse class="cls-11" cx="457.33" cy="108.43" rx="36.79" ry="21.24" transform="translate(134.75 450.26) rotate(-60)"/>
                        <circle class="cls-33" cx="513.83" cy="139.99" r="92.17"/>
                        <circle class="cls-55" cx="609.58" cy="300.14" r="35" transform="translate(-4.48 591.01) rotate(-51.56)"/>
                        <g>
                          <path class="cls-52" d="m643.22,300.82c0,9.87-6.93,21.87-15.47,26.8-8.55,4.93-15.47.93-15.47-8.93s6.93-21.87,15.47-26.8c8.55-4.93,15.47-.93,15.47,8.93Z"/>
                          <path class="cls-7" d="m635.01,289.79c1.31,1.87,2.06,4.46,2.06,7.7,0,9.87-6.93,21.87-15.47,26.8-2.63,1.52-5.1,2.18-7.26,2.1,2.67,3.82,7.67,4.55,13.41,1.24,8.55-4.93,15.47-16.93,15.47-26.8,0-6.84-3.33-10.85-8.21-11.03Z"/>
                        </g>
                        <polygon class="cls-52" points="591.63 173.71 558.24 192.98 558.24 154.43 591.63 135.15 591.63 173.71"/>
                        <polygon class="cls-44" points="586.67 138.02 586.67 171.02 558.24 187.43 558.24 192.98 591.63 173.71 591.63 135.15 586.67 138.02"/>
                        <g>
                          <polygon class="cls-7" points="564.61 164.96 561.62 166.69 561.62 163.24 564.61 161.51 564.61 164.96"/>
                          <polygon class="cls-7" points="570.96 156.87 567.97 158.6 567.97 155.15 570.96 153.42 570.96 156.87"/>
                          <polygon class="cls-7" points="577.31 157.63 574.32 159.36 574.32 155.91 577.31 154.18 577.31 157.63"/>
                          <polygon class="cls-7" points="577.31 166.69 574.32 168.42 574.32 164.96 577.31 163.24 577.31 166.69"/>
                          <polygon class="cls-7" points="573.49 173.66 570.5 175.38 570.5 171.93 573.49 170.2 573.49 173.66"/>
                          <polygon class="cls-7" points="583.86 162.91 580.87 164.64 580.87 161.18 583.86 159.46 583.86 162.91"/>
                        </g>
                        <g>
                          <polygon class="cls-71" points="618.54 163.54 622.19 157.21 618.54 155.11 585.15 174.38 585.15 212.93 588.8 215.04 592.45 208.72 618.54 193.66 618.54 163.54"/>
                          <polygon class="cls-50" points="622.19 195.76 588.8 215.04 588.8 176.49 622.19 157.21 622.19 195.76"/>
                        </g>
                        <g>
                          <path class="cls-87" d="m631.52,377.61c7.15,10.66,13,41.18,2.34,48.33-10.66,7.15-33.79-11.77-40.94-22.43-7.15-10.66-4.31-25.1,6.35-32.25,10.66-7.15,25.1-4.31,32.25,6.35Z"/>
                          <g>
                            <path class="cls-52" d="m594.24,377.61c3.65-5.36,11.85-9.31,18.32-8.82,6.46.48,8.74,5.22,5.09,10.57-3.65,5.36-11.85,9.31-18.32,8.82-6.46-.48-8.74-5.22-5.09-10.57Z"/>
                            <path class="cls-7" d="m594.61,386.64c-.02-1.5.53-3.18,1.73-4.94,3.65-5.36,11.85-9.31,18.32-8.82,1.99.15,3.57.7,4.72,1.55-.04-3.06-2.48-5.31-6.82-5.63-6.46-.48-14.67,3.47-18.32,8.82-2.53,3.71-2.21,7.12.37,9.03Z"/>
                          </g>
                        </g>
                      </g>
                    </g>
                  </g>
                  <g>
                    <path class="cls-7" d="m573.69,303.24c-.74,0-1.52-.22-2.26-.65-2.3-1.33-3.72-4.33-3.17-6.69.27-1.14.94-2,1.9-2.42,1.06-.46,2.38-.32,3.6.38,2.29,1.33,3.72,4.33,3.17,6.69h0c-.27,1.14-.94,2-1.9,2.42-.41.18-.87.27-1.34.27Zm-2.19-8.99c-.33,0-.64.06-.92.18-.65.28-1.12.89-1.3,1.7-.45,1.95.75,4.44,2.68,5.56.93.54,1.9.66,2.66.33.65-.28,1.12-.89,1.3-1.7.45-1.95-.75-4.44-2.68-5.56-.59-.34-1.19-.51-1.74-.51Z"/>
                    <path class="cls-7" d="m586.06,310.38c-.74,0-1.52-.22-2.26-.65-2.3-1.32-3.72-4.33-3.17-6.69.26-1.14.94-2,1.9-2.42,1.07-.46,2.38-.32,3.6.38,2.3,1.33,3.72,4.33,3.17,6.69h0c-.26,1.14-.94,2-1.9,2.42-.42.18-.87.27-1.34.27Zm-2.19-8.99c-.33,0-.64.06-.92.18-.65.28-1.12.89-1.3,1.7-.45,1.95.75,4.44,2.67,5.56.94.54,1.91.66,2.67.33.65-.28,1.12-.88,1.3-1.7.45-1.95-.75-4.44-2.68-5.56-.59-.34-1.19-.51-1.74-.51Z"/>
                    <path class="cls-7" d="m601.16,314.71c-.5,2.16-2.62,2.92-4.73,1.7-2.11-1.22-3.42-3.96-2.92-6.12.5-2.16,2.62-2.92,4.73-1.7,2.11,1.22,3.42,3.96,2.92,6.12Z"/>
                  </g>
                  <polygon class="cls-7" points="364.02 178.25 357.41 174.43 357.92 171.37 364.54 175.19 364.02 178.25"/>
                  <polygon class="cls-7" points="373.64 183.8 367.03 179.98 367.54 176.93 374.15 180.74 373.64 183.8"/>
                  <polygon class="cls-7" points="354.51 172.76 340 164.38 340.52 161.32 355.02 169.7 354.51 172.76"/>
                </g>
                <g class="cls-29">
                  <ellipse class="cls-25" cx="346.75" cy="500.93" rx="109.71" ry="63.34"/>
                  <ellipse class="cls-25" cx="346.75" cy="500.93" rx="90.65" ry="52.34"/>
                  <ellipse class="cls-60" cx="346.75" cy="500.93" rx="71.7" ry="41.4"/>
                </g>
                <g>
                  <ellipse class="cls-17" cx="440.89" cy="230.38" rx="198.06" ry="81.12" transform="translate(-33.77 379.23) rotate(-45)"/>
                  <g>
                    <path class="cls-5" d="m447.72,261.22c2.11-1.98,2.21-5.29.23-7.4-1.98-2.11-5.29-2.21-7.4-.23-2.11,1.98-2.21,5.29-.23,7.4,1.98,2.11,5.29,2.21,7.4.23Z"/>
                    <path class="cls-7" d="m508.27,256.7c2.11-1.98,2.21-5.29.23-7.4-1.98-2.11-5.29-2.21-7.4-.23-2.11,1.98-2.21,5.29-.23,7.4,1.98,2.11,5.29,2.21,7.4.23Z"/>
                    <path class="cls-5" d="m493.32,175.55c2.27-2.13,2.38-5.69.25-7.96-2.13-2.27-5.69-2.38-7.96-.25-2.27,2.13-2.38,5.69-.25,7.96,2.13,2.27,5.69,2.38,7.96.25Z"/>
                    <path class="cls-5" d="m487.01,191.56c1.35-1.27,1.42-3.4.15-4.75-1.27-1.35-3.4-1.42-4.75-.15s-1.42,3.4-.15,4.75c1.27,1.35,3.4,1.42,4.75.15Z"/>
                    <path class="cls-6" d="m480.05,183.26c.87-.82.91-2.19.1-3.06-.82-.87-2.19-.91-3.06-.1-.87.82-.91,2.19-.1,3.06.82.87,2.19.91,3.06.1Z"/>
                    <path class="cls-6" d="m494.48,231.2c.87-.82.91-2.19.1-3.06s-2.19-.91-3.06-.1c-.87.82-.91,2.19-.1,3.06s2.19.91,3.06.1Z"/>
                    <path class="cls-5" d="m463.96,169.28c.26-.25.28-.66.03-.93-.25-.26-.66-.28-.93-.03s-.28.66-.03.93c.25.26.66.28.93.03Z"/>
                    <path class="cls-6" d="m467.91,196.45c.26-.25.28-.66.03-.93s-.66-.28-.93-.03c-.26.25-.28.66-.03.93.25.26.66.28.93.03Z"/>
                    <path class="cls-6" d="m476.38,248.19c.26-.25.28-.66.03-.93s-.66-.28-.93-.03c-.26.25-.28.66-.03.93.25.26.66.28.93.03Z"/>
                    <path class="cls-6" d="m470.38,239.95c.26-.25.28-.66.03-.93-.25-.26-.66-.28-.93-.03s-.28.66-.03.93c.25.26.66.28.93.03Z"/>
                    <path class="cls-5" d="m448,200.14c3.22-3.02,3.38-8.08.36-11.29-3.02-3.22-8.08-3.38-11.29-.36s-3.38,8.08-.36,11.29c3.02,3.22,8.08,3.38,11.29.36Z"/>
                    <path class="cls-7" d="m404.98,215.69c1.6-1.5,1.68-4.02.18-5.62-1.5-1.6-4.02-1.68-5.62-.18-1.6,1.5-1.68,4.02-.18,5.62,1.5,1.6,4.02,1.68,5.62.18Z"/>
                    <path class="cls-5" d="m476.87,215.59c1.6-1.5,1.68-4.02.18-5.62s-4.02-1.68-5.62-.18c-1.6,1.5-1.68,4.02-.18,5.62,1.5,1.6,4.02,1.68,5.62.18Z"/>
                    <path class="cls-5" d="m448,150c1.6-1.5,1.68-4.02.18-5.62-1.5-1.6-4.02-1.68-5.62-.18-1.6,1.5-1.68,4.02-.18,5.62,1.5,1.6,4.02,1.68,5.62.18Z"/>
                    <path class="cls-5" d="m397.78,178.56c1.6-1.5,1.68-4.02.18-5.62-1.5-1.6-4.02-1.68-5.62-.18s-1.68,4.02-.18,5.62c1.5,1.6,4.02,1.68,5.62.18Z"/>
                    <path class="cls-5" d="m534.2,190.95c1.6-1.5,1.68-4.02.18-5.62-1.5-1.6-4.02-1.68-5.62-.18-1.6,1.5-1.68,4.02-.18,5.62,1.5,1.6,4.02,1.68,5.62.18Z"/>
                    <path class="cls-5" d="m505.47,121.37c1.6-1.5,1.68-4.02.18-5.62s-4.02-1.68-5.62-.18c-1.6,1.5-1.68,4.02-.18,5.62,1.5,1.6,4.02,1.68,5.62.18Z"/>
                    <path class="cls-7" d="m557.81,128.82c.77-.72.81-1.94.09-2.71-.72-.77-1.94-.81-2.71-.09-.77.72-.81,1.94-.09,2.71.72.77,1.94.81,2.71.09Z"/>
                    <path class="cls-5" d="m459.59,247.82c.94-.88.98-2.35.1-3.29-.88-.94-2.35-.98-3.29-.1-.94.88-.98,2.35-.1,3.29.88.94,2.35.98,3.29.1Z"/>
                    <path class="cls-7" d="m455.08,181.83c.94-.88.98-2.35.1-3.29-.88-.94-2.35-.98-3.29-.1-.94.88-.98,2.35-.1,3.29.88.94,2.35.98,3.29.1Z"/>
                    <path class="cls-7" d="m425.24,180.94c.63-.59.66-1.59.07-2.22-.59-.63-1.59-.66-2.22-.07-.63.59-.66,1.59-.07,2.22.59.63,1.59.66,2.22.07Z"/>
                    <path class="cls-7" d="m420.77,180.82c.92-.86.97-2.31.1-3.23-.86-.92-2.31-.97-3.23-.1-.92.86-.97,2.31-.1,3.23.86.92,2.31.97,3.23.1Z"/>
                    <path class="cls-7" d="m419.98,186.26c.51-.48.53-1.28.06-1.79-.48-.51-1.28-.53-1.79-.06-.51.48-.53,1.28-.06,1.79s1.28.53,1.79.06Z"/>
                    <path class="cls-5" d="m441.9,223.82c.66-.62.69-1.66.07-2.32s-1.66-.69-2.32-.07-.69,1.66-.07,2.32c.62.66,1.66.69,2.32.07Z"/>
                    <path class="cls-5" d="m489.73,230.53c.66-.62.69-1.66.07-2.32-.62-.66-1.66-.69-2.32-.07-.66.62-.69,1.66-.07,2.32s1.66.69,2.32.07Z"/>
                    <path class="cls-7" d="m452.08,226.37c1.63-1.53,1.71-4.09.18-5.71-1.53-1.63-4.09-1.71-5.71-.18-1.63,1.53-1.71,4.09-.18,5.71,1.53,1.63,4.09,1.71,5.71.18Z"/>
                  </g>
                  <g>
                    <path class="cls-42" d="m229.65,398.18c-3.7,12.29-23.58,36.18-35.87,32.48s-12.34-33.59-8.64-45.88c3.7-12.29,16.66-19.25,28.95-15.55,12.29,3.7,19.25,16.66,15.55,28.95Z"/>
                    <g class="cls-13">
                      <path class="cls-67" d="m229.65,398.18c-3.7,12.29-23.58,36.18-35.87,32.48s-12.34-33.59-8.64-45.88c3.7-12.29,16.66-19.25,28.95-15.55,12.29,3.7,19.25,16.66,15.55,28.95Z"/>
                    </g>
                    <g>
                      <path class="cls-52" d="m205.99,369.37c6.46-.58,14.71,3.26,18.44,8.56,3.73,5.3,1.52,10.07-4.94,10.65-6.46.58-14.71-3.26-18.44-8.56-3.73-5.3-1.52-10.07,4.94-10.65Z"/>
                      <path class="cls-18" d="m205.99,369.37c6.46-.58,14.71,3.26,18.44,8.56,3.73,5.3,1.52,10.07-4.94,10.65-6.46.58-14.71-3.26-18.44-8.56-3.73-5.3-1.52-10.07,4.94-10.65Z"/>
                      <path class="cls-7" d="m199.25,375.39c1.14-.96,2.8-1.61,4.92-1.8,6.46-.58,14.71,3.26,18.44,8.56,1.15,1.63,1.73,3.21,1.8,4.63,2.34-1.97,2.53-5.28.03-8.85-3.73-5.3-11.98-9.14-18.44-8.56-4.47.4-6.9,2.81-6.74,6.02Z"/>
                    </g>
                  </g>
                  <g>
                    <path class="cls-4" d="m227.65,363.09c-1.01-.02-1.85.78-1.87,1.79-.02,1.01.78,1.85,1.79,1.87,1.01.02,1.85-.78,1.87-1.79.02-1.01-.78-1.85-1.79-1.87Z"/>
                    <path class="cls-7" d="m210.38,350.32c-2.55-.06-4.67,1.96-4.73,4.52-.06,2.55,1.96,4.67,4.52,4.73,2.55.06,4.67-1.96,4.73-4.52.06-2.55-1.96-4.67-4.52-4.73Z"/>
                    <path class="cls-4" d="m236.84,339.91c-1.43-.03-2.62,1.1-2.65,2.53-.03,1.43,1.1,2.62,2.53,2.65,1.43.03,2.62-1.1,2.65-2.53.03-1.43-1.1-2.62-2.53-2.65Z"/>
                    <path class="cls-7" d="m226.49,341.97c-.98-.02-1.79.75-1.81,1.73-.02.98.75,1.79,1.73,1.81s1.79-.75,1.81-1.73-.75-1.79-1.73-1.81Z"/>
                    <path class="cls-7" d="m228.46,337.99c-.67-.02-1.22.51-1.24,1.18s.51,1.22,1.18,1.24,1.23-.51,1.24-1.18-.51-1.22-1.18-1.24Z"/>
                    <path class="cls-4" d="m213.53,372.09c-1.42-.03-2.59,1.09-2.63,2.51-.03,1.42,1.09,2.59,2.51,2.62,1.42.03,2.59-1.09,2.62-2.51.03-1.42-1.09-2.59-2.51-2.62Z"/>
                    <path class="cls-7" d="m221.31,371.23c-2.12-.05-3.88,1.63-3.93,3.75s1.63,3.88,3.75,3.93c2.12.05,3.88-1.63,3.93-3.75s-1.63-3.88-3.75-3.93Z"/>
                  </g>
                  <g>
                    <g>
                      <g>
                        <circle class="cls-82" cx="262.57" cy="320.84" r="35" transform="translate(-150.14 360.25) rotate(-56.16)"/>
                        <g class="cls-13">
                          <path class="cls-57" d="m281.37,291.32c16.3,10.39,21.1,32.02,10.72,48.33-10.39,16.3-32.02,21.1-48.33,10.72-16.3-10.39-21.1-32.02-10.72-48.33,10.39-16.3,32.02-21.1,48.33-10.72Z"/>
                        </g>
                        <path class="cls-73" d="m437.13,384.4c0,67.95-40.46,123.03-90.37,123.03s-90.37-55.08-90.37-123.03,40.46-88.31,90.37-88.31,90.37,20.36,90.37,88.31Z"/>
                        <g class="cls-13">
                          <path class="cls-10" d="m437.13,384.4c0,67.95-40.46,123.03-90.37,123.03s-90.37-55.08-90.37-123.03,40.46-88.31,90.37-88.31,90.37,20.36,90.37,88.31Z"/>
                        </g>
                        <ellipse class="cls-52" cx="346.75" cy="332.62" rx="61.68" ry="35.61"/>
                        <ellipse class="cls-16" cx="346.75" cy="332.62" rx="61.68" ry="35.61"/>
                        <path class="cls-7" d="m303.14,316.93c24.09-13.91,63.14-13.91,87.23,0,9.95,5.74,15.78,12.96,17.51,20.44,2.46-10.62-3.37-21.76-17.51-29.92-24.09-13.91-63.14-13.91-87.23,0-14.14,8.16-19.96,19.3-17.51,29.92,1.73-7.47,7.56-14.69,17.51-20.44Z"/>
                        <path class="cls-11" d="m319.84,201.05c0,16.59-11.65,36.76-26.01,45.06-14.37,8.3-26.01,1.57-26.01-15.02s11.65-36.76,26.01-45.06c14.37-8.3,26.01-1.57,26.01,15.02Z"/>
                        <circle class="cls-2" cx="350.34" cy="247.63" r="92.17"/>
                        <g class="cls-13">
                          <circle class="cls-61" cx="350.34" cy="247.63" r="92.17"/>
                        </g>
                        <g>
                          <path class="cls-52" d="m321.58,291.28c-2.35,18.13-16.03,23.82-30.56,12.72-14.52-11.1-24.38-34.8-22.03-52.92,2.35-18.13,16.04-23.82,30.56-12.72,14.52,11.1,24.38,34.8,22.03,52.92Z"/>
                          <path class="cls-14" d="m321.58,291.28c-2.35,18.13-16.03,23.82-30.56,12.72-14.52-11.1-24.38-34.8-22.03-52.92,2.35-18.13,16.04-23.82,30.56-12.72,14.52,11.1,24.38,34.8,22.03,52.92Z"/>
                          <path class="cls-7" d="m309.59,275.59c-.86,6.59-5.83,8.66-11.1,4.62-5.28-4.03-8.86-12.65-8.01-19.23.86-6.59,5.83-8.66,11.1-4.62,5.28,4.03,8.86,12.65,8.01,19.23Z"/>
                          <path class="cls-7" d="m298,301.36c-14.52-11.1-24.38-34.8-22.03-52.92.96-7.39,3.8-12.71,7.82-15.67-7.59.71-13.34,7.15-14.79,18.31-2.35,18.13,7.51,41.82,22.03,52.92,8.6,6.58,16.91,7.26,22.74,2.96-4.74.45-10.19-1.33-15.77-5.6Z"/>
                          <path class="cls-7" d="m292.27,303.41c-14.52-11.1-24.38-34.8-22.03-52.92,1.09-8.39,4.61-14.11,9.51-16.74-5.55,2.29-9.58,8.24-10.76,17.33-2.35,18.13,7.51,41.82,22.03,52.92,7.8,5.96,15.34,7.06,21.03,4.02-5.52,2.27-12.54.93-19.78-4.61Z"/>
                        </g>
                        <circle class="cls-70" cx="446.09" cy="407.78" r="35" transform="translate(-151.45 317.08) rotate(-33.8)"/>
                        <g class="cls-13">
                          <circle class="cls-32" cx="446.09" cy="407.78" r="35" transform="translate(-151.45 317.08) rotate(-33.8)"/>
                        </g>
                      </g>
                      <g>
                        <path class="cls-52" d="m479.73,408.46c0,9.87-6.93,21.87-15.47,26.8-8.55,4.93-15.47.93-15.47-8.93s6.93-21.87,15.47-26.8c8.55-4.93,15.47-.93,15.47,8.93Z"/>
                        <path class="cls-20" d="m479.73,408.46c0,9.87-6.93,21.87-15.47,26.8-8.55,4.93-15.47.93-15.47-8.93s6.93-21.87,15.47-26.8c8.55-4.93,15.47-.93,15.47,8.93Z"/>
                        <path class="cls-7" d="m471.51,397.43c1.31,1.87,2.06,4.46,2.06,7.7,0,9.87-6.93,21.87-15.47,26.8-2.63,1.52-5.1,2.18-7.26,2.1,2.67,3.82,7.67,4.55,13.41,1.24,8.55-4.93,15.47-16.93,15.47-26.8,0-6.84-3.33-10.85-8.21-11.03Z"/>
                      </g>
                    </g>
                    <polygon class="cls-52" points="428.13 281.34 394.74 300.62 394.74 262.07 428.13 242.79 428.13 281.34"/>
                    <polygon class="cls-22" points="423.17 245.65 423.17 278.65 394.74 295.07 394.74 300.62 428.13 281.34 428.13 242.79 423.17 245.65"/>
                    <g>
                      <polygon class="cls-7" points="401.12 272.6 398.13 274.33 398.13 270.87 401.12 269.15 401.12 272.6"/>
                      <polygon class="cls-7" points="407.47 264.51 404.47 266.24 404.47 262.78 407.47 261.06 407.47 264.51"/>
                      <polygon class="cls-7" points="413.81 265.27 410.82 267 410.82 263.54 413.81 261.82 413.81 265.27"/>
                      <polygon class="cls-7" points="413.81 274.33 410.82 276.05 410.82 272.6 413.81 270.87 413.81 274.33"/>
                      <polygon class="cls-7" points="409.99 281.29 407 283.02 407 279.57 409.99 277.84 409.99 281.29"/>
                      <polygon class="cls-7" points="420.36 270.55 417.37 272.27 417.37 268.82 420.36 267.09 420.36 270.55"/>
                    </g>
                    <g>
                      <g>
                        <polygon class="cls-62" points="455.04 271.18 458.7 264.85 455.04 262.74 421.65 282.02 421.65 320.57 425.31 322.68 428.96 316.35 455.04 301.29 455.04 271.18"/>
                        <polygon class="cls-46" points="458.7 303.4 425.31 322.68 425.31 284.12 458.7 264.85 458.7 303.4"/>
                      </g>
                      <polygon class="cls-21" points="458.7 303.4 425.31 322.68 425.31 284.12 458.7 264.85 458.7 303.4"/>
                    </g>
                  </g>
                  <g>
                    <polygon class="cls-7" points="419.49 269.99 418.85 269.38 455.76 229.94 560.79 229.94 599.54 191.19 599.54 33.29 600.42 33.29 600.42 191.56 561.16 230.82 456.14 230.82 419.49 269.99"/>
                    <polygon class="cls-7" points="599.67 151.91 581.45 133.69 581.45 68.71 582.33 68.71 582.33 133.32 600.29 151.28 599.67 151.91"/>
                    <polygon class="cls-7" points="487.64 230.69 487.01 230.07 507.68 209.41 552.58 209.41 574.14 187.85 574.76 188.48 552.95 210.29 508.04 210.29 487.64 230.69"/>
                    <path class="cls-7" d="m574.45,191.16c-1.65,0-2.99-1.34-2.99-2.99s1.34-2.99,2.99-2.99,2.99,1.34,2.99,2.99-1.34,2.99-2.99,2.99Z"/>
                    <path class="cls-7" d="m544.21,171.01c-1.65,0-2.99-1.34-2.99-2.99s1.34-2.99,2.99-2.99,2.99,1.34,2.99,2.99-1.34,2.99-2.99,2.99Z"/>
                    <path class="cls-7" d="m568.16,141.5c-1.65,0-2.99-1.34-2.99-2.99s1.34-2.99,2.99-2.99,2.99,1.34,2.99,2.99-1.34,2.99-2.99,2.99Z"/>
                    <path class="cls-7" d="m556.34,66.57c-1.65,0-2.99-1.34-2.99-2.99s1.34-2.99,2.99-2.99,2.99,1.34,2.99,2.99-1.34,2.99-2.99,2.99Z"/>
                    <path class="cls-7" d="m581.89,71.7c-1.65,0-2.99-1.34-2.99-2.99s1.34-2.99,2.99-2.99,2.99,1.34,2.99,2.99-1.34,2.99-2.99,2.99Z"/>
                    <path class="cls-7" d="m599.98,36.29c-1.65,0-2.99-1.34-2.99-2.99s1.34-2.99,2.99-2.99,2.99,1.34,2.99,2.99-1.34,2.99-2.99,2.99Z"/>
                    <path class="cls-7" d="m457.04,161.52c-1.65,0-2.99-1.34-2.99-2.99s1.34-2.99,2.99-2.99,2.99,1.34,2.99,2.99-1.34,2.99-2.99,2.99Z"/>
                    <polygon class="cls-7" points="400.06 271.74 399.18 271.74 399.18 254.26 399.31 254.13 441.12 211.67 441.12 151.41 475.79 116.74 543.86 116.74 555.9 104.7 555.9 63.57 556.79 63.57 556.79 105.06 544.22 117.62 476.16 117.62 442 151.78 442 212.04 441.87 212.16 400.06 254.62 400.06 271.74"/>
                    <polygon class="cls-7" points="441.87 197.93 441.25 197.31 456.6 181.95 456.6 158.53 457.49 158.53 457.49 182.32 441.87 197.93"/>
                    <polygon class="cls-7" points="406.28 264.22 405.66 263.6 501.68 167.58 543.53 167.58 543.53 168.46 502.05 168.46 406.28 264.22"/>
                    <polygon class="cls-7" points="484.38 185.94 483.5 185.94 483.5 155.35 500.79 138.07 568.16 138.07 568.16 138.95 501.15 138.95 484.38 155.72 484.38 185.94"/>
                  </g>
                  <g>
                    <path class="cls-3" d="m470.12,506.06c-3.7,12.29-23.58,36.18-35.87,32.48-12.29-3.7-12.34-33.59-8.64-45.88,3.7-12.29,16.66-19.25,28.95-15.55,12.29,3.7,19.25,16.66,15.55,28.95Z"/>
                    <g class="cls-13">
                      <path class="cls-39" d="m470.12,506.06c-3.7,12.29-23.58,36.18-35.87,32.48-12.29-3.7-12.34-33.59-8.64-45.88,3.7-12.29,16.66-19.25,28.95-15.55,12.29,3.7,19.25,16.66,15.55,28.95Z"/>
                    </g>
                    <g>
                      <path class="cls-52" d="m446.46,477.25c6.46-.58,14.71,3.26,18.44,8.56,3.73,5.3,1.52,10.07-4.94,10.65-6.46.58-14.71-3.26-18.44-8.56-3.73-5.3-1.52-10.07,4.94-10.65Z"/>
                      <path class="cls-15" d="m446.46,477.25c6.46-.58,14.71,3.26,18.44,8.56,3.73,5.3,1.52,10.07-4.94,10.65-6.46.58-14.71-3.26-18.44-8.56-3.73-5.3-1.52-10.07,4.94-10.65Z"/>
                      <path class="cls-7" d="m439.72,483.27c1.14-.96,2.8-1.61,4.92-1.8,6.46-.58,14.71,3.26,18.44,8.56,1.15,1.63,1.73,3.21,1.8,4.63,2.34-1.97,2.53-5.28.03-8.85-3.73-5.3-11.98-9.14-18.44-8.56-4.47.4-6.9,2.81-6.74,6.02Z"/>
                    </g>
                  </g>
                  <path class="cls-4" d="m464.71,462.49c.74-.69.77-1.85.08-2.59s-1.85-.77-2.59-.08c-.74.69-.77,1.85-.08,2.59s1.85.77,2.59.08Z"/>
                  <path class="cls-7" d="m485.97,459.48c1.86-1.75,1.96-4.67.21-6.54s-4.67-1.96-6.54-.21c-1.86,1.75-1.96,4.67-.21,6.54,1.75,1.86,4.67,1.96,6.54.21Z"/>
                  <path class="cls-4" d="m474.4,485.46c1.04-.98,1.09-2.62.12-3.66-.98-1.04-2.62-1.09-3.66-.12-1.04.98-1.09,2.62-.12,3.66.98,1.04,2.62,1.09,3.66.12Z"/>
                  <path class="cls-7" d="m480.34,476.74c.71-.67.75-1.79.08-2.5-.67-.71-1.79-.75-2.5-.08-.71.67-.75,1.79-.08,2.5.67.71,1.79.75,2.5.08Z"/>
                  <path class="cls-7" d="m481.73,480.95c.49-.46.51-1.23.05-1.71-.46-.49-1.23-.51-1.71-.05-.49.46-.51,1.23-.05,1.71.46.49,1.23.51,1.71.05Z"/>
                  <path class="cls-4" d="m468.46,446.18c1.03-.97,1.08-2.59.11-3.63-.97-1.03-2.59-1.08-3.63-.11-1.03.97-1.08,2.59-.11,3.63.97,1.03,2.59,1.08,3.63.11Z"/>
                  <path class="cls-7" d="m463.51,452.24c1.55-1.45,1.62-3.88.17-5.42-1.45-1.55-3.88-1.62-5.42-.17-1.55,1.45-1.62,3.88-.17,5.42,1.45,1.55,3.88,1.62,5.42.17Z"/>
                </g>
              </g>
              <g>
                <path class="cls-41" d="m387.54,213.14l-190.37-109.12c-3.12-1.8-5.95-1.87-8.11-.55v-.03s-11.74,6.81-11.74,6.81l7.64,5.54v6.2l-4.32,1.82.23,232.32,12.88,12.42,44.16,25.34,135.03,75.26h5.75c.23,0,.57-.69.89-1.61l5.79,3.34-1.84,8.82,11.94-6.88h-.02c2.63-1.47,4.3-4.95,4.3-9.91v-226.44c0-8.99-5.47-19.44-12.21-23.33Zm-5.23,243.1l-183.41-105.1c-1.54-.89-2.79-3.27-2.79-5.33V122.37l38.92,25.03,141.13,83.23,4.14,6.44,2.3,101.21-.29,117.97Z"/>
                <path class="cls-8" d="m395.88,222.37l-18.26,10.54,2.67,4.16,2.3,101.21-.29,117.97-3.39-1.96c0,3.64,4.61,21.63,4.61,25.42l9.71-5.6,2.24-1.29h-.02c2.63-1.47,4.3-4.95,4.3-9.91v-226.44c0-4.69-1.49-9.76-3.87-14.11Z"/>
                <path class="cls-74" d="m375.24,220.24l-190.37-109.12c-6.74-3.89-12.21.24-12.21,9.23v226.44c0,8.99,5.47,19.44,12.21,23.33l190.37,109.12c6.74,3.89,12.21-.24,12.21-9.23v-226.44c0-8.99-5.47-19.44-12.21-23.33Zm1.06,243.01c0,2.05-1.25,3-2.79,2.11l-186.91-107.12c-1.54-.89-2.79-3.27-2.79-5.33V127.11c0-2.05,1.25-3,2.79-2.11l186.91,107.12c1.54.89,2.79,3.27,2.79,5.33v225.81Z"/>
                <path class="cls-78" d="m375.24,220.24l-190.37-109.12c-6.74-3.89-12.21.24-12.21,9.23v226.44c0,8.99,5.47,19.44,12.21,23.33l190.37,109.12c6.74,3.89,12.21-.24,12.21-9.23v-226.44c0-8.99-5.47-19.44-12.21-23.33Zm1.06,243.01c0,2.05-1.25,3-2.79,2.11l-186.91-107.12c-1.54-.89-2.79-3.27-2.79-5.33V127.11c0-2.05,1.25-3,2.79-2.11l186.91,107.12c1.54.89,2.79,3.27,2.79,5.33v225.81Z"/>
                <path class="cls-52" d="m198.9,351.14c-1.54-.89-2.79-3.27-2.79-5.33v-215.32l-9.51-5.49c-1.54-.89-2.79.05-2.79,2.11v225.81c0,2.05,1.25,4.44,2.79,5.33l186.91,107.12c1.54.89,2.79-.05,2.79-2.11v-10.48l-177.4-101.63Z"/>
                <path class="cls-5" d="m376.3,463.26c0,2.05-1.25,3-2.79,2.11l-186.91-107.12c-1.54-.89-2.79-3.27-2.79-5.33V127.11c0-2.05,1.25-3,2.79-2.11l186.91,107.12c1.54.89,2.79,3.27,2.79,5.33v225.81Z"/>
              </g>
              <g class="cls-48">
                <polygon class="cls-7" points="241.46 225.78 223.28 215.28 223.28 210.71 241.46 221.2 241.46 225.78"/>
                <polygon class="cls-7" points="256.98 234.74 247.89 229.49 247.89 224.91 256.98 230.16 256.98 234.74"/>
                <polygon class="cls-7" points="246.83 239.61 239.08 235.14 239.08 230.56 246.83 235.03 246.83 239.61"/>
                <polygon class="cls-7" points="259.8 247.1 250.71 241.85 250.71 237.28 259.8 242.52 259.8 247.1"/>
                <polygon class="cls-7" points="274.81 266.5 239.08 245.87 239.08 241.29 274.81 261.92 274.81 266.5"/>
                <polygon class="cls-7" points="246.83 261.08 239.08 256.61 239.08 252.03 246.83 256.5 246.83 261.08"/>
                <polygon class="cls-7" points="259.8 268.57 250.71 263.32 250.71 258.74 259.8 263.99 259.8 268.57"/>
                <polygon class="cls-7" points="258.72 278.68 239.08 267.34 239.08 262.76 258.72 274.1 258.72 278.68"/>
                <polygon class="cls-7" points="271.87 286.27 262.78 281.02 262.78 276.44 271.87 281.69 271.87 286.27"/>
                <polygon class="cls-7" points="285.08 293.9 275.99 288.65 275.99 284.07 285.08 289.32 285.08 293.9"/>
                <polygon class="cls-7" points="306.41 306.21 289.21 296.28 289.21 291.7 306.41 301.63 306.41 306.21"/>
                <polygon class="cls-7" points="296.1 321.72 287.01 316.47 287.01 311.9 296.1 317.14 296.1 321.72"/>
                <polygon class="cls-7" points="317.42 334.03 300.22 324.1 300.22 319.53 317.42 329.46 317.42 334.03"/>
                <polygon class="cls-7" points="248.17 294.05 239.08 288.8 239.08 284.23 248.17 289.48 248.17 294.05"/>
                <polygon class="cls-7" points="261.39 301.68 252.3 296.43 252.3 291.86 261.39 297.1 261.39 301.68"/>
                <polygon class="cls-7" points="282.71 313.99 265.51 304.06 265.51 299.49 282.71 309.42 282.71 313.99"/>
                <polygon class="cls-7" points="309 318.44 299.91 313.19 299.91 308.61 309 313.86 309 318.44"/>
                <polygon class="cls-7" points="322.22 326.07 313.13 320.82 313.13 316.24 322.22 321.49 322.22 326.07"/>
                <polygon class="cls-7" points="343.54 338.38 326.34 328.45 326.34 323.87 343.54 333.8 343.54 338.38"/>
                <polygon class="cls-7" points="248.17 315.52 239.08 310.27 239.08 305.69 248.17 310.94 248.17 315.52"/>
                <polygon class="cls-7" points="269.5 327.83 252.3 317.9 252.3 313.32 269.5 323.25 269.5 327.83"/>
                <polygon class="cls-7" points="301.98 282.19 292.89 276.94 292.89 272.36 301.98 277.61 301.98 282.19"/>
                <polygon class="cls-7" points="288.24 274.25 279.15 269 279.15 264.43 288.24 269.67 288.24 274.25"/>
                <polygon class="cls-7" points="323.31 294.5 306.1 284.57 306.1 279.99 323.31 289.92 323.31 294.5"/>
                <polygon class="cls-7" points="247.28 282.81 239.08 278.07 239.08 273.49 247.28 278.23 247.28 282.81"/>
                <polygon class="cls-7" points="271.61 296.85 251.67 285.34 251.67 280.76 271.61 292.27 271.61 296.85"/>
                <polygon class="cls-7" points="295.93 310.89 275.99 299.38 275.99 294.8 295.93 306.31 295.93 310.89"/>
                <polygon class="cls-7" points="335.94 301.79 327.74 297.06 327.74 292.48 335.94 297.21 335.94 301.79"/>
                <polygon class="cls-7" points="259.19 311.15 239.26 299.64 239.26 295.06 259.19 306.57 259.19 311.15"/>
                <polygon class="cls-7" points="269.7 317.22 263.58 313.68 263.58 309.1 269.7 312.64 269.7 317.22"/>
                <polygon class="cls-7" points="280.23 323.3 274.11 319.76 274.11 315.18 280.23 318.72 280.23 323.3"/>
                <polygon class="cls-7" points="299.71 334.54 284.64 325.84 284.64 321.27 299.71 329.96 299.71 334.54"/>
                <polygon class="cls-7" points="303.8 336.9 288.74 328.21 288.74 323.63 303.8 332.32 303.8 336.9"/>
                <polygon class="cls-7" points="316.57 312.08 310.45 308.54 310.45 303.97 316.57 307.5 316.57 312.08"/>
                <polygon class="cls-7" points="336.04 323.32 320.98 314.62 320.98 310.05 336.04 318.74 336.04 323.32"/>
                <polygon class="cls-7" points="229.58 315.52 223.46 311.98 223.46 307.41 229.58 310.94 229.58 315.52"/>
                <polygon class="cls-7" points="249.05 326.76 233.99 318.06 233.99 313.49 249.05 322.18 249.05 326.76"/>
                <polygon class="cls-7" points="268.95 338.25 253.88 329.55 253.88 324.97 268.95 333.67 268.95 338.25"/>
              </g>
            </g>
          </g>
        </g>
      </g>
    </g>
  </g>
</svg>