<svg xmlns="http://www.w3.org/2000/svg" xmlns:xlink="http://www.w3.org/1999/xlink" viewBox="0 0 716.81 716.81"><defs><linearGradient id="_Áåçûìÿííûé_ãðàäèåíò_12" data-name="Áåçûìÿííûé ãðàäèåíò 12" x1="-4416.54" y1="-639.24" x2="-4266.81" y2="-639.24" gradientTransform="matrix(-.86603 -.5 0 1.1547 -3453.29 -1161.19)" gradientUnits="userSpaceOnUse"><stop offset="0" stop-color="#161242"/><stop offset=".02" stop-color="#161b4b"/><stop offset=".1" stop-color="#1b4d7c"/><stop offset=".19" stop-color="#1e76a4"/><stop offset=".28" stop-color="#2195c3"/><stop offset=".36" stop-color="#23acd9"/><stop offset=".44" stop-color="#24bae7"/><stop offset=".51" stop-color="#25bfec"/><stop offset=".56" stop-color="#24b3e0"/><stop offset=".67" stop-color="#2195c3"/><stop offset=".8" stop-color="#1d6593"/><stop offset=".96" stop-color="#172252"/><stop offset="1" stop-color="#161242"/></linearGradient><linearGradient id="_Áåçûìÿííûé_ãðàäèåíò_12-2" data-name="Áåçûìÿííûé ãðàäèåíò 12" x1="-4403.11" y1="-627.49" x2="-4253.38" y2="-627.49" xlink:href="#_Áåçûìÿííûé_ãðàäèåíò_12"/><linearGradient id="_Áåçûìÿííûé_ãðàäèåíò_12-3" data-name="Áåçûìÿííûé ãðàäèåíò 12" x1="-4389.67" y1="-615.75" x2="-4239.94" y2="-615.75" xlink:href="#_Áåçûìÿííûé_ãðàäèåíò_12"/><linearGradient id="_Áåçûìÿííûé_ãðàäèåíò_12-4" data-name="Áåçûìÿííûé ãðàäèåíò 12" x1="-4376.24" y1="-604.01" x2="-4226.51" y2="-604.01" xlink:href="#_Áåçûìÿííûé_ãðàäèåíò_12"/><linearGradient id="_Áåçûìÿííûé_ãðàäèåíò_12-5" data-name="Áåçûìÿííûé ãðàäèåíò 12" x1="381.6" y1="206.42" x2="273.85" y2="144.21" gradientTransform="rotate(61.63 303.2 161.144)" xlink:href="#_Áåçûìÿííûé_ãðàäèåíò_12"/><linearGradient id="_Áåçûìÿííûé_ãðàäèåíò_12-6" data-name="Áåçûìÿííûé ãðàäèåíò 12" x1="371.22" y1="200.04" x2="278.86" y2="146.71" xlink:href="#_Áåçûìÿííûé_ãðàäèåíò_12"/><linearGradient id="_Áåçûìÿííûé_ãðàäèåíò_12-7" data-name="Áåçûìÿííûé ãðàäèåíò 12" x1="381.93" y1="205.84" x2="274.18" y2="143.62" xlink:href="#_Áåçûìÿííûé_ãðàäèåíò_12"/><linearGradient id="_Áåçûìÿííûé_ãðàäèåíò_12-8" data-name="Áåçûìÿííûé ãðàäèåíò 12" x1="311.11" y1="328.46" x2="203.39" y2="266.27" xlink:href="#_Áåçûìÿííûé_ãðàäèåíò_12"/><linearGradient id="_Áåçûìÿííûé_ãðàäèåíò_12-9" data-name="Áåçûìÿííûé ãðàäèåíò 12" x1="240.38" y1="450.95" x2="132.67" y2="388.76" gradientTransform="rotate(59.92 196.41 425.565)" xlink:href="#_Áåçûìÿííûé_ãðàäèåíò_12"/><linearGradient id="_Áåçûìÿííûé_ãðàäèåíò_12-10" data-name="Áåçûìÿííûé ãðàäèåíò 12" x1="-4349.38" y1="-580.52" x2="-4199.64" y2="-580.52" xlink:href="#_Áåçûìÿííûé_ãðàäèåíò_12"/><linearGradient id="_Áåçûìÿííûé_ãðàäèåíò_12-11" data-name="Áåçûìÿííûé ãðàäèåíò 12" x1="-4335.94" y1="-568.77" x2="-4186.21" y2="-568.77" xlink:href="#_Áåçûìÿííûé_ãðàäèåíò_12"/><linearGradient id="_Áåçûìÿííûé_ãðàäèåíò_12-12" data-name="Áåçûìÿííûé ãðàäèåíò 12" x1="-4322.51" y1="-557.03" x2="-4172.78" y2="-557.03" xlink:href="#_Áåçûìÿííûé_ãðàäèåíò_12"/><linearGradient id="_Áåçûìÿííûé_ãðàäèåíò_12-13" data-name="Áåçûìÿííûé ãðàäèåíò 12" x1="-4308.36" y1="-545.27" x2="-4159" y2="-545.27" xlink:href="#_Áåçûìÿííûé_ãðàäèåíò_12"/><linearGradient id="_Áåçûìÿííûé_ãðàäèåíò_12-14" data-name="Áåçûìÿííûé ãðàäèåíò 12" x1="-4295.64" y1="-533.54" x2="-4145.91" y2="-533.54" xlink:href="#_Áåçûìÿííûé_ãðàäèåíò_12"/><linearGradient id="_Áåçûìÿííûé_ãðàäèåíò_12-15" data-name="Áåçûìÿííûé ãðàäèåíò 12" x1="-4282.21" y1="-521.8" x2="-4132.48" y2="-521.8" xlink:href="#_Áåçûìÿííûé_ãðàäèåíò_12"/><linearGradient id="_Áåçûìÿííûé_ãðàäèåíò_12-16" data-name="Áåçûìÿííûé ãðàäèåíò 12" x1="-4268.78" y1="-510.06" x2="-4119.05" y2="-510.06" xlink:href="#_Áåçûìÿííûé_ãðàäèåíò_12"/><linearGradient id="_Áåçûìÿííûé_ãðàäèåíò_12-17" data-name="Áåçûìÿííûé ãðàäèåíò 12" x1="341.52" y1="1421.07" x2="491.25" y2="1421.07" gradientTransform="rotate(-30 -2140.835 -677.535) skewX(-30)" xlink:href="#_Áåçûìÿííûé_ãðàäèåíò_12"/><linearGradient id="_Áåçûìÿííûé_ãðàäèåíò_12-18" data-name="Áåçûìÿííûé ãðàäèåíò 12" x1="354.96" y1="1432.81" x2="504.69" y2="1432.81" gradientTransform="rotate(-30 -2140.835 -677.535) skewX(-30)" xlink:href="#_Áåçûìÿííûé_ãðàäèåíò_12"/><linearGradient id="_Áåçûìÿííûé_ãðàäèåíò_12-19" data-name="Áåçûìÿííûé ãðàäèåíò 12" x1="368.39" y1="1444.55" x2="518.12" y2="1444.55" gradientTransform="rotate(-30 -2140.835 -677.535) skewX(-30)" xlink:href="#_Áåçûìÿííûé_ãðàäèåíò_12"/><linearGradient id="_Áåçûìÿííûé_ãðàäèåíò_12-20" data-name="Áåçûìÿííûé ãðàäèåíò 12" x1="381.82" y1="1456.3" x2="531.55" y2="1456.3" gradientTransform="rotate(-30 -2140.835 -677.535) skewX(-30)" xlink:href="#_Áåçûìÿííûé_ãðàäèåíò_12"/><linearGradient id="_Áåçûìÿííûé_ãðàäèåíò_12-21" data-name="Áåçûìÿííûé ãðàäèåíò 12" x1="337.54" y1="206.42" x2="445.29" y2="144.21" gradientTransform="rotate(28.36 415.887 161.145)" xlink:href="#_Áåçûìÿííûé_ãðàäèåíò_12"/><linearGradient id="_Áåçûìÿííûé_ãðàäèåíò_12-22" data-name="Áåçûìÿííûé ãðàäèåíò 12" x1="347.92" y1="200.04" x2="440.29" y2="146.71" xlink:href="#_Áåçûìÿííûé_ãðàäèåíò_12"/><linearGradient id="_Áåçûìÿííûé_ãðàäèåíò_12-23" data-name="Áåçûìÿííûé ãðàäèåíò 12" x1="337.21" y1="205.84" x2="444.97" y2="143.62" xlink:href="#_Áåçûìÿííûé_ãðàäèåíò_12"/><linearGradient id="_Áåçûìÿííûé_ãðàäèåíò_12-24" data-name="Áåçûìÿííûé ãðàäèåíò 12" x1="408.04" y1="328.46" x2="515.75" y2="266.27" xlink:href="#_Áåçûìÿííûé_ãðàäèåíò_12"/><linearGradient id="_Áåçûìÿííûé_ãðàäèåíò_12-25" data-name="Áåçûìÿííûé ãðàäèåíò 12" x1="478.76" y1="450.95" x2="586.47" y2="388.76" gradientTransform="rotate(30.07 522.717 425.539)" xlink:href="#_Áåçûìÿííûé_ãðàäèåíò_12"/><linearGradient id="_Áåçûìÿííûé_ãðàäèåíò_12-26" data-name="Áåçûìÿííûé ãðàäèåíò 12" x1="408.69" y1="1479.78" x2="558.42" y2="1479.78" gradientTransform="rotate(-30 -2140.835 -677.535) skewX(-30)" xlink:href="#_Áåçûìÿííûé_ãðàäèåíò_12"/><linearGradient id="_Áåçûìÿííûé_ãðàäèåíò_12-27" data-name="Áåçûìÿííûé ãðàäèåíò 12" x1="422.12" y1="1491.53" x2="571.85" y2="1491.53" gradientTransform="rotate(-30 -2140.835 -677.535) skewX(-30)" xlink:href="#_Áåçûìÿííûé_ãðàäèåíò_12"/><linearGradient id="_Áåçûìÿííûé_ãðàäèåíò_12-28" data-name="Áåçûìÿííûé ãðàäèåíò 12" x1="435.55" y1="1503.27" x2="585.28" y2="1503.27" gradientTransform="rotate(-30 -2140.835 -677.535) skewX(-30)" xlink:href="#_Áåçûìÿííûé_ãðàäèåíò_12"/><linearGradient id="_Áåçûìÿííûé_ãðàäèåíò_12-29" data-name="Áåçûìÿííûé ãðàäèåíò 12" x1="449.7" y1="1515.03" x2="599.07" y2="1515.03" gradientTransform="rotate(-30 -2140.835 -677.535) skewX(-30)" xlink:href="#_Áåçûìÿííûé_ãðàäèåíò_12"/><linearGradient id="_Áåçûìÿííûé_ãðàäèåíò_12-30" data-name="Áåçûìÿííûé ãðàäèåíò 12" x1="462.42" y1="1526.76" x2="612.15" y2="1526.76" gradientTransform="rotate(-30 -2140.835 -677.535) skewX(-30)" xlink:href="#_Áåçûìÿííûé_ãðàäèåíò_12"/><linearGradient id="_Áåçûìÿííûé_ãðàäèåíò_12-31" data-name="Áåçûìÿííûé ãðàäèåíò 12" x1="475.85" y1="1538.5" x2="625.58" y2="1538.5" gradientTransform="rotate(-30 -2140.835 -677.535) skewX(-30)" xlink:href="#_Áåçûìÿííûé_ãðàäèåíò_12"/><linearGradient id="_Áåçûìÿííûé_ãðàäèåíò_12-32" data-name="Áåçûìÿííûé ãðàäèåíò 12" x1="489.28" y1="1550.25" x2="639.02" y2="1550.25" gradientTransform="rotate(-30 -2140.835 -677.535) skewX(-30)" xlink:href="#_Áåçûìÿííûé_ãðàäèåíò_12"/><linearGradient id="_Áåçûìÿííûé_ãðàäèåíò_11" data-name="Áåçûìÿííûé ãðàäèåíò 11" x1="236.02" y1="587.56" x2="482.34" y2="587.56" gradientUnits="userSpaceOnUse"><stop offset="0" stop-color="#5761d7"/><stop offset=".07" stop-color="#5471d8"/><stop offset=".28" stop-color="#4d9bda"/><stop offset=".48" stop-color="#48bddd"/><stop offset=".67" stop-color="#44d4de"/><stop offset=".85" stop-color="#42e3df"/><stop offset="1" stop-color="#42e8e0"/></linearGradient><linearGradient id="_Áåçûìÿííûé_ãðàäèåíò_11-2" data-name="Áåçûìÿííûé ãðàäèåíò 11" y1="568.62" y2="568.62" xlink:href="#_Áåçûìÿííûé_ãðàäèåíò_11"/><linearGradient id="_Áåçûìÿííûé_ãðàäèåíò_11-3" data-name="Áåçûìÿííûé ãðàäèåíò 11" y1="549.67" y2="549.67" xlink:href="#_Áåçûìÿííûé_ãðàäèåíò_11"/><linearGradient id="_Áåçûìÿííûé_ãðàäèåíò_11-4" data-name="Áåçûìÿííûé ãðàäèåíò 11" y1="530.72" y2="530.72" xlink:href="#_Áåçûìÿííûé_ãðàäèåíò_11"/><linearGradient id="_Áåçûìÿííûé_ãðàäèåíò_11-5" data-name="Áåçûìÿííûé ãðàäèåíò 11" x1="236.02" y1="559.14" x2="482.34" y2="559.14" xlink:href="#_Áåçûìÿííûé_ãðàäèåíò_11"/><linearGradient id="_Áåçûìÿííûé_ãðàäèåíò_11-6" data-name="Áåçûìÿííûé ãðàäèåíò 11" y1="530.72" y2="530.72" xlink:href="#_Áåçûìÿííûé_ãðàäèåíò_11"/><linearGradient id="_Áåçûìÿííûé_ãðàäèåíò_11-7" data-name="Áåçûìÿííûé ãðàäèåíò 11" x1="236.02" y1="564.87" x2="482.34" y2="564.87" xlink:href="#_Áåçûìÿííûé_ãðàäèåíò_11"/><linearGradient id="_Áåçûìÿííûé_ãðàäèåíò_10" data-name="Áåçûìÿííûé ãðàäèåíò 10" x1="420.76" y1="478.1" x2="420.76" y2="218.19" gradientUnits="userSpaceOnUse"><stop offset="0" stop-color="#c0bff6"/><stop offset=".29" stop-color="#c4c3f6"/><stop offset=".64" stop-color="#d2d2f9"/><stop offset="1" stop-color="#e9e9fd"/></linearGradient><linearGradient id="_Áåçûìÿííûé_ãðàäèåíò_10-2" data-name="Áåçûìÿííûé ãðàäèåíò 10" x1="342.45" y1="292.28" x2="354.3" y2="292.28" xlink:href="#_Áåçûìÿííûé_ãðàäèåíò_10"/><linearGradient id="_Áåçûìÿííûé_ãðàäèåíò_9" data-name="Áåçûìÿííûé ãðàäèåíò 9" x1="341.01" y1="293.49" x2="350.81" y2="293.49" gradientUnits="userSpaceOnUse"><stop offset="0" stop-color="#5761d7"/><stop offset=".18" stop-color="#5b65d8"/><stop offset=".39" stop-color="#6a72de"/><stop offset=".61" stop-color="#8188e8"/><stop offset=".85" stop-color="#a2a6f5"/><stop offset="1" stop-color="#bcbeff"/></linearGradient><linearGradient id="_Áåçûìÿííûé_ãðàäèåíò_10-3" data-name="Áåçûìÿííûé ãðàäèåíò 10" x1="239.16" y1="228.81" x2="251.01" y2="228.81" xlink:href="#_Áåçûìÿííûé_ãðàäèåíò_10"/><linearGradient id="_Áåçûìÿííûé_ãðàäèåíò_9-2" data-name="Áåçûìÿííûé ãðàäèåíò 9" x1="237.72" y1="230.02" x2="247.52" y2="230.02" xlink:href="#_Áåçûìÿííûé_ãðàäèåíò_9"/><linearGradient id="_Áåçûìÿííûé_ãðàäèåíò_10-4" data-name="Áåçûìÿííûé ãðàäèåíò 10" x1="342.45" y1="536.73" x2="354.3" y2="536.73" xlink:href="#_Áåçûìÿííûé_ãðàäèåíò_10"/><linearGradient id="_Áåçûìÿííûé_ãðàäèåíò_9-3" data-name="Áåçûìÿííûé ãðàäèåíò 9" y1="537.93" y2="537.93" xlink:href="#_Áåçûìÿííûé_ãðàäèåíò_9"/><linearGradient id="_Áåçûìÿííûé_ãðàäèåíò_10-5" data-name="Áåçûìÿííûé ãðàäèåíò 10" x1="239.16" y1="473.26" x2="251.01" y2="473.26" xlink:href="#_Áåçûìÿííûé_ãðàäèåíò_10"/><linearGradient id="_Áåçûìÿííûé_ãðàäèåíò_9-4" data-name="Áåçûìÿííûé ãðàäèåíò 9" x1="237.72" y1="474.47" x2="247.52" y2="474.47" xlink:href="#_Áåçûìÿííûé_ãðàäèåíò_9"/><linearGradient id="_Áåçûìÿííûé_ãðàäèåíò_6" data-name="Áåçûìÿííûé ãðàäèåíò 6" x1="175.12" y1="217.88" x2="490.77" y2="217.88" gradientUnits="userSpaceOnUse"><stop offset="0" stop-color="#5761d7"/><stop offset=".16" stop-color="#5e67d9"/><stop offset=".41" stop-color="#7179e1"/><stop offset=".69" stop-color="#9197ee"/><stop offset="1" stop-color="#bcbeff"/></linearGradient><linearGradient id="_Áåçûìÿííûé_ãðàäèåíò_4" data-name="Áåçûìÿííûé ãðàäèåíò 4" x1="264.45" y1="175.22" x2="453.91" y2="175.22" gradientUnits="userSpaceOnUse"><stop offset="0" stop-color="#42e8e0"/><stop offset=".15" stop-color="#42e3df"/><stop offset=".33" stop-color="#44d4de"/><stop offset=".52" stop-color="#48bddd"/><stop offset=".72" stop-color="#4d9bda"/><stop offset=".93" stop-color="#5471d8"/><stop offset="1" stop-color="#5761d7"/></linearGradient><linearGradient id="_Áåçûìÿííûé_ãðàäèåíò_4-2" data-name="Áåçûìÿííûé ãðàäèåíò 4" x1="359.18" y1="140.98" y2="140.98" xlink:href="#_Áåçûìÿííûé_ãðàäèåíò_4"/><linearGradient id="_Áåçûìÿííûé_ãðàäèåíò_4-3" data-name="Áåçûìÿííûé ãðàäèåíò 4" y1="140.98" x2="359.18" y2="140.98" xlink:href="#_Áåçûìÿííûé_ãðàäèåíò_4"/><linearGradient id="_Áåçûìÿííûé_ãðàäèåíò_4-4" data-name="Áåçûìÿííûé ãðàäèåíò 4" y1="161.43" y2="161.43" xlink:href="#_Áåçûìÿííûé_ãðàäèåíò_4"/><linearGradient id="_Áåçûìÿííûé_ãðàäèåíò_4-5" data-name="Áåçûìÿííûé ãðàäèåíò 4" x1="359.18" y1="195.67" y2="195.67" xlink:href="#_Áåçûìÿííûé_ãðàäèåíò_4"/><linearGradient id="_Áåçûìÿííûé_ãðàäèåíò_4-6" data-name="Áåçûìÿííûé ãðàäèåíò 4" y1="195.67" x2="359.18" y2="195.67" xlink:href="#_Áåçûìÿííûé_ãðàäèåíò_4"/><radialGradient id="radial-gradient" cx="350.69" cy="355.67" fx="350.69" fy="355.67" r="356.89" gradientUnits="userSpaceOnUse"><stop offset=".11" stop-color="#5385e5"/><stop offset=".21" stop-color="#4e7bd9" stop-opacity=".92"/><stop offset=".41" stop-color="#4162bb" stop-opacity=".72"/><stop offset=".69" stop-color="#2c398b" stop-opacity=".4"/><stop offset="1" stop-color="#130851" stop-opacity="0"/></radialGradient><style>.cls-2{opacity:.75}.cls-2,.cls-3,.cls-4,.cls-5,.cls-7,.cls-8,.cls-9{fill:#42e8e0}.cls-12{fill:#fff}.cls-13{fill:#bcbeff}.cls-9{opacity:.5}.cls-3{opacity:.88}.cls-26{mix-blend-mode:lighten}.cls-49{opacity:.51}.cls-4{opacity:.1}.cls-53{opacity:.2}.cls-57{fill:#453c9e}.cls-64{opacity:.11}.cls-5{opacity:.4}.cls-68{fill:#3f21d3}.cls-7{opacity:.5}</style></defs><g style="isolation:isolate"><g id="Layer_2" data-name="Layer 2"><g id="Layer_1-2" data-name="Layer 1"><circle cx="358.4" cy="358.4" r="358.4" style="fill:url(#radial-gradient)"/><path d="M278.62 413.95c-6.3 0-13.28-2.11-20.5-6.27l-16.36-9.47.61-1.05 16.36 9.47c11.88 6.86 23.02 7.98 31.37 3.17 8.34-4.82 12.94-15.03 12.94-28.75V159.41c0-14.07 4.75-24.62 13.39-29.7 8.52-5.02 19.83-4.11 31.85 2.57.13.07 4.01 2.17 8.55 4.62 8.18 4.42 14.44 7.81 14.61 7.9l-.59 1.06-22.27-12.02v-.02c-.53-.3-.86-.47-.89-.49-11.62-6.45-22.51-7.37-30.64-2.58-8.25 4.85-12.79 15.03-12.79 28.66v221.64c0 14.17-4.81 24.75-13.55 29.8-3.6 2.08-7.67 3.11-12.08 3.11Z" style="fill:url(#_Áåçûìÿííûé_ãðàäèåíò_12);mix-blend-mode:lighten"/><path d="M266.99 420.8c-6.3 0-13.28-2.11-20.5-6.27l-16.36-9.47.61-1.05 16.36 9.47c11.88 6.86 23.02 7.98 31.37 3.17 8.34-4.82 12.94-15.03 12.94-28.75V166.26c0-14.07 4.75-24.62 13.39-29.7 8.52-5.01 19.83-4.1 31.85 2.57.13.07 3.89 2.11 8.35 4.52 8.29 4.48 14.64 7.91 14.81 8.01l-.59 1.06-22.27-12.02v-.02c-.53-.3-.86-.47-.89-.49-11.62-6.45-22.5-7.37-30.64-2.58-8.25 4.85-12.79 15.03-12.79 28.66v221.64c0 14.17-4.81 24.75-13.55 29.8-3.6 2.08-7.67 3.11-12.08 3.11Z" style="fill:url(#_Áåçûìÿííûé_ãðàäèåíò_12-2);mix-blend-mode:lighten"/><path d="M255.35 427.64c-6.3 0-13.28-2.11-20.5-6.27l-16.36-9.47.61-1.05 16.36 9.47c11.88 6.86 23.02 7.98 31.37 3.17 8.34-4.82 12.94-15.03 12.94-28.75V173.1c0-14.07 4.75-24.62 13.39-29.7 8.52-5.01 19.83-4.1 31.85 2.57.14.08 4.12 2.23 8.75 4.73 8.33 4.5 14.24 7.7 14.41 7.79l-.59 1.06-22.27-12.02v-.02c-.54-.3-.86-.47-.89-.49-11.62-6.45-22.51-7.37-30.64-2.58-8.25 4.85-12.79 15.03-12.79 28.66v221.64c0 14.17-4.81 24.75-13.55 29.8-3.6 2.08-7.67 3.11-12.08 3.11Z" style="fill:url(#_Áåçûìÿííûé_ãðàäèåíò_12-3);mix-blend-mode:lighten"/><path d="M243.72 434.48c-6.3 0-13.28-2.11-20.5-6.27l-16.36-9.47.61-1.05 16.36 9.47c11.88 6.86 23.02 7.98 31.37 3.17 8.34-4.82 12.94-15.03 12.94-28.75V179.94c0-14.07 4.75-24.62 13.39-29.7 8.52-5.02 19.83-4.1 31.85 2.57.14.08 4.12 2.23 8.75 4.73 8.33 4.5 14.24 7.7 14.41 7.79l-.59 1.06-22.27-12.02v-.02c-.54-.3-.86-.47-.89-.49-11.62-6.45-22.51-7.37-30.64-2.58-8.25 4.85-12.79 15.03-12.79 28.66v221.64c0 14.17-4.81 24.75-13.55 29.8-3.6 2.08-7.67 3.11-12.08 3.11Z" style="fill:url(#_Áåçûìÿííûé_ãðàäèåíò_12-4);mix-blend-mode:lighten"/><g class="cls-26"><path transform="rotate(-61.63 303.199 161.166)" style="fill:url(#_Áåçûìÿííûé_ãðàäèåíò_12-5)" d="M302.61 160.15h1.22v2.02h-1.22z"/><path d="m318.79 170.26-3.74-2.02.58-1.07 3.74 2.02-.58 1.07Zm-7.48-4.04-3.74-2.02.58-1.07 3.74 2.02-.58 1.07Z" style="fill:url(#_Áåçûìÿííûé_ãðàäèåíò_12-6)"/><path d="m324.31 173.24-1.78-.96.58-1.07c.99.54 1.64.89 1.77.96s.02.01.02.02l-.6 1.05Z" style="fill:url(#_Áåçûìÿííûé_ãðàäèåíò_12-7)"/><path d="M232.16 441.31c-.69 0-1.46-.02-2.2-.08l.09-1.21c.71.05 1.43.05 2.12.07.61 0 1.21-.02 1.8-.06l.08 1.21c-.62.04-1.24.07-1.88.07Zm-6.24-.63c-1.29-.25-2.61-.59-3.94-1l.36-1.16c1.29.4 2.57.72 3.82.97l-.24 1.19Zm12.17-.06-.28-1.18c1.27-.3 2.51-.72 3.69-1.23l.49 1.11c-1.24.54-2.55.98-3.89 1.3Zm-19.93-2.32c-1.22-.5-2.46-1.07-3.68-1.69l.55-1.08c1.2.61 2.41 1.16 3.59 1.65l-.46 1.12Zm27.41-.97-.68-1a21.28 21.28 0 0 0 3-2.47l.85.86c-.98.97-2.05 1.85-3.17 2.61Zm-34.63-2.66-3.46-2.01.61-1.05 3.46 2.01-.61 1.05Zm40.46-3.07-.98-.71c.74-1.03 1.43-2.15 2.04-3.33l1.08.56c-.64 1.24-1.36 2.41-2.13 3.49Zm-47.38-.94-3.46-2.01.61-1.05 3.46 2.01-.61 1.05Zm51.15-6.28-1.14-.42c.44-1.19.82-2.46 1.14-3.76l1.18.29a38.31 38.31 0 0 1-1.18 3.89Zm1.97-7.87-1.2-.18c.19-1.26.34-2.59.43-3.93l1.21.08c-.1 1.37-.25 2.73-.44 4.02Zm-.63-8.07v-4h1.21v3.98l-1.21.03Zm1.21-8.01h-1.21v-4h1.21v4Zm0-8.01h-1.21v-4.01h1.21v4.01Zm0-8.01h-1.21v-4h1.21v4Zm0-8.01h-1.21v-4h1.21v4Zm0-8.01h-1.21v-4.01h1.21v4.01Zm0-8.01h-1.21v-4h1.21v4Zm0-8.01h-1.21v-4h1.21v4Zm0-8.01h-1.21v-4.01h1.21v4.01Zm0-8.01h-1.21v-4h1.21v4Zm0-8.01h-1.21v-4h1.21v4Zm0-8.01h-1.21v-4h1.21v4Zm0-8.01h-1.21v-4h1.21v4Zm0-8.01h-1.21v-4h1.21v4Zm0-8.01h-1.21v-4h1.21v4Zm0-8.01h-1.21v-4h1.21v4Zm0-8.01h-1.21v-4h1.21v4Zm0-8.01h-1.21v-4h1.21v4Zm0-8.01h-1.21v-4h1.21v4Zm0-8.01h-1.21v-4h1.21v4Zm0-8.01h-1.21v-4h1.21v4Zm0-8.01h-1.21v-4h1.21v4Zm0-8.01h-1.21v-4h1.21v4Zm0-8.01h-1.21v-4h1.21v4Zm0-8.01h-1.21v-4h1.21v4Zm0-8.01h-1.21v-4.01h1.21v4.01Zm0-8.01h-1.21v-4h1.21v4Zm0-8.01h-1.21v-4h1.21v4Zm.05-7.98-1.21-.05c.06-1.37.17-2.73.32-4.04l1.2.14c-.15 1.28-.26 2.61-.31 3.94Zm.95-7.84-1.19-.25c.29-1.36.63-2.68 1.03-3.93l1.16.37c-.38 1.21-.72 2.49-1 3.81Zm60.3-6.08-3.53-1.91.58-1.07 3.53 1.91-.58 1.07Zm-57.9-1.39-1.1-.5c.58-1.26 1.23-2.47 1.94-3.59l1.02.65c-.68 1.07-1.31 2.23-1.86 3.44Zm50.84-2.42-3.53-1.91.58-1.07 3.53 1.91-.58 1.07Zm-7.05-3.82-3.53-1.91.58-1.07 3.53 1.91-.58 1.07Zm-39.59-.33-.91-.81c.92-1.04 1.92-1.98 2.98-2.82l.75.95c-1 .79-1.95 1.69-2.82 2.67Zm32.53-3.4c-1.22-.57-2.45-1.09-3.64-1.54l.42-1.14c1.23.46 2.48.99 3.73 1.58l-.52 1.1Zm-26.45-1.39-.56-1.07c1.2-.63 2.48-1.16 3.8-1.56l.36 1.16c-1.25.39-2.46.88-3.59 1.48Zm19.05-1.35a34.33 34.33 0 0 0-3.85-.81l.18-1.2c1.31.2 2.65.48 3.98.84l-.31 1.17Zm-11.66-.95-.16-1.2c1.13-.15 2.31-.22 3.49-.22h.59l-.02 1.22h-.57c-1.13 0-2.25.06-3.33.21Z" style="fill:url(#_Áåçûìÿííûé_ãðàäèåíò_12-8)"/><path transform="rotate(-59.92 196.415 425.562)" style="fill:url(#_Áåçûìÿííûé_ãðàäèåíò_12-9)" d="M195.8 424.55h1.21v2.02h-1.21z"/></g><path d="M220.45 448.17c-6.3 0-13.28-2.11-20.5-6.27l-16.36-9.47.61-1.05 16.35 9.47c11.88 6.86 23.02 7.98 31.37 3.17 8.34-4.82 12.94-15.03 12.94-28.75V193.63c0-14.07 4.75-24.62 13.39-29.7 8.52-5.01 19.83-4.1 31.85 2.57.14.08 4.24 2.29 8.95 4.84 8.22 4.44 14.05 7.59 14.21 7.69l-.59 1.06-22.27-12.02v-.02c-.54-.3-.86-.47-.89-.49-11.63-6.46-22.51-7.37-30.64-2.58-8.25 4.85-12.79 15.03-12.79 28.66v221.64c0 14.17-4.81 24.75-13.55 29.8-3.6 2.08-7.67 3.11-12.08 3.11Z" style="fill:url(#_Áåçûìÿííûé_ãðàäèåíò_12-10);mix-blend-mode:lighten"/><path d="M208.82 455.02c-6.3 0-13.28-2.11-20.5-6.27l-16.36-9.47.61-1.05 16.35 9.47c11.88 6.86 23.02 7.98 31.37 3.17 8.34-4.82 12.94-15.03 12.94-28.75V200.48c0-14.07 4.75-24.62 13.39-29.7 8.52-5.01 19.83-4.1 31.85 2.57.14.08 4.24 2.29 8.95 4.84 8.22 4.44 14.05 7.59 14.21 7.69l-.59 1.06-22.27-12.02v-.02c-.54-.3-.86-.47-.89-.49-11.62-6.46-22.51-7.37-30.64-2.58-8.25 4.85-12.79 15.03-12.79 28.66v221.64c0 14.17-4.81 24.75-13.55 29.8-3.6 2.08-7.67 3.11-12.08 3.11Z" style="fill:url(#_Áåçûìÿííûé_ãðàäèåíò_12-11);mix-blend-mode:lighten"/><path d="M197.19 461.86c-6.3 0-13.28-2.11-20.5-6.27l-16.36-9.47.61-1.05 16.35 9.47c11.88 6.86 23.02 7.98 31.37 3.17 8.34-4.82 12.94-15.03 12.94-28.75V207.32c0-14.07 4.75-24.62 13.39-29.7 8.52-5.01 19.83-4.1 31.85 2.57.14.08 4.24 2.29 8.95 4.84 8.22 4.44 14.05 7.59 14.21 7.69l-.59 1.06-22.27-12.02v-.02c-.53-.3-.86-.47-.89-.49-11.62-6.46-22.51-7.37-30.64-2.58-8.25 4.85-12.79 15.03-12.79 28.66v221.64c0 14.17-4.81 24.75-13.55 29.8-3.6 2.08-7.67 3.11-12.08 3.11Z" style="fill:url(#_Áåçûìÿííûé_ãðàäèåíò_12-12);mix-blend-mode:lighten"/><path d="M182.84 468.56h-.06c-2.59-.24-5.29-.82-8.02-1.72a.613.613 0 0 1-.39-.77c.11-.32.45-.48.77-.39 2.65.87 5.26 1.43 7.76 1.66.33.03.58.33.55.66-.03.31-.29.55-.6.55Zm8.04-.42c-.28 0-.53-.19-.59-.48-.07-.33.14-.65.47-.72 2.62-.56 5.05-1.56 7.23-2.98.28-.19.66-.1.84.18.18.28.1.66-.18.84a22.53 22.53 0 0 1-7.63 3.15c-.04 0-.08.01-.13.01Zm-23.36-4.44c-.09 0-.19-.02-.28-.07-.72-.38-1.45-.78-2.18-1.2l-4.87-2.82a.606.606 0 1 1 .61-1.05l4.87 2.82c.72.41 1.43.8 2.13 1.18.3.15.41.52.26.82-.11.21-.32.32-.54.32Zm36.63-4.15a.606.606 0 0 1-.48-.97c1.5-2.01 2.75-4.35 3.73-6.95.12-.31.47-.47.78-.35.31.12.47.47.35.78-1.02 2.7-2.33 5.14-3.89 7.24-.12.16-.3.24-.49.24Zm-50.65-3.91c-.1 0-.21-.03-.3-.08l-4.49-2.6a.606.606 0 1 1 .61-1.05l4.49 2.6a.606.606 0 0 1-.31 1.13Zm56.48-11h-.09a.608.608 0 0 1-.51-.69c.39-2.5.59-5.18.6-7.96 0-.33.27-.6.61-.6.34 0 .61.27.61.61 0 2.85-.22 5.59-.62 8.15-.05.3-.3.51-.6.51Zm.61-16.14c-.33 0-.61-.27-.61-.61v-8.09c0-.34.27-.61.61-.61s.61.27.61.61v8.09c0 .34-.27.61-.61.61Zm0-16.18c-.33 0-.61-.27-.61-.61v-8.09c0-.34.27-.61.61-.61s.61.27.61.61v8.09c0 .34-.27.61-.61.61Zm0-16.17c-.33 0-.61-.27-.61-.61v-8.09c0-.34.27-.61.61-.61s.61.27.61.61v8.09c0 .34-.27.61-.61.61Zm0-16.18c-.33 0-.61-.27-.61-.61v-8.09c0-.34.27-.61.61-.61s.61.27.61.61v8.09c0 .34-.27.61-.61.61Zm0-16.17c-.33 0-.61-.27-.61-.61v-8.09c0-.34.27-.61.61-.61s.61.27.61.61v8.09c0 .34-.27.61-.61.61Zm0-16.17c-.33 0-.61-.27-.61-.61v-8.09c0-.34.27-.61.61-.61s.61.27.61.61v8.09c0 .34-.27.61-.61.61Zm0-16.18c-.33 0-.61-.27-.61-.61v-8.09c0-.34.27-.61.61-.61s.61.27.61.61v8.09c0 .34-.27.61-.61.61Zm0-16.17c-.33 0-.61-.27-.61-.61v-8.09c0-.34.27-.61.61-.61s.61.27.61.61v8.09c0 .34-.27.61-.61.61Zm0-16.17c-.33 0-.61-.27-.61-.61v-8.09c0-.34.27-.61.61-.61s.61.27.61.61v8.09c0 .34-.27.61-.61.61Zm0-16.18c-.33 0-.61-.27-.61-.61v-8.09c0-.34.27-.61.61-.61s.61.27.61.61v8.09c0 .34-.27.61-.61.61Zm0-16.17c-.33 0-.61-.27-.61-.61v-8.09c0-.34.27-.61.61-.61s.61.27.61.61v8.09c0 .34-.27.61-.61.61Zm0-16.17c-.33 0-.61-.27-.61-.61v-8.09c0-.34.27-.61.61-.61s.61.27.61.61v8.09c0 .34-.27.61-.61.61Zm0-16.18c-.33 0-.61-.27-.61-.61v-8.09c0-.34.27-.61.61-.61s.61.27.61.61v8.09c0 .34-.27.61-.61.61Zm0-16.17c-.33 0-.61-.27-.61-.61v-3.45c0-1.6.06-3.17.19-4.68.03-.33.34-.59.65-.55.33.03.58.32.55.65a56.56 56.56 0 0 0-.18 4.58v3.45c0 .34-.27.61-.61.61Zm1.52-16.04c-.05 0-.1 0-.16-.02a.608.608 0 0 1-.43-.74c.74-2.79 1.75-5.36 3.01-7.64.16-.3.53-.41.82-.24.29.16.4.53.24.82-1.21 2.19-2.19 4.67-2.9 7.37a.61.61 0 0 1-.59.45Zm65.05-1.99c-.1 0-.2-.02-.29-.07l-7.12-3.84s-.05-.03-.08-.05l-5.24-2.83a.62.62 0 0 1-.25-.82.6.6 0 0 1 .82-.25l7.13 3.85s.05.03.08.05l5.22 2.82c.29.16.4.53.25.82-.11.2-.32.32-.53.32Zm-14.23-7.68c-.1 0-.2-.02-.29-.07l-7.12-3.84s-.08-.05-.12-.08c-.47-.26-.75-.41-.78-.43-1.49-.82-3-1.58-4.48-2.23-.31-.14-.45-.49-.31-.8a.6.6 0 0 1 .8-.31c1.51.67 3.06 1.43 4.59 2.29.11.06 1.11.61 2.66 1.44.04.02.08.05.11.08l5.22 2.82c.29.16.4.53.25.82-.11.2-.32.32-.53.32ZM220 188.34c-.16 0-.33-.07-.45-.2a.604.604 0 0 1 .04-.86c2.06-1.89 4.42-3.36 7.01-4.37.31-.11.66.03.78.35.12.31-.03.66-.35.79-2.45.95-4.68 2.34-6.63 4.13a.59.59 0 0 1-.41.16Zm22.73-4.99s-.09 0-.14-.02c-2.71-.62-5.37-.89-7.87-.81a.6.6 0 0 1-.63-.59c-.01-.33.25-.62.59-.63 2.59-.07 5.36.2 8.18.84.33.07.53.4.46.73a.6.6 0 0 1-.59.47Z" style="fill:url(#_Áåçûìÿííûé_ãðàäèåíò_12-13);mix-blend-mode:lighten"/><path d="M173.92 475.55c-6.3 0-13.28-2.11-20.5-6.27l-16.36-9.47.61-1.05 16.36 9.47c11.88 6.86 23.02 7.98 31.37 3.17 8.34-4.82 12.94-15.03 12.94-28.75V221.01c0-14.07 4.75-24.62 13.39-29.7 8.52-5.01 19.83-4.1 31.85 2.57.13.07 3.89 2.11 8.35 4.52 8.29 4.48 14.64 7.91 14.81 8.01l-.59 1.06-22.27-12.02v-.02c-.53-.3-.86-.47-.89-.49-11.62-6.45-22.5-7.37-30.64-2.58-8.25 4.85-12.79 15.03-12.79 28.66v221.64c0 14.17-4.81 24.75-13.55 29.8-3.6 2.08-7.67 3.11-12.08 3.11Z" style="fill:url(#_Áåçûìÿííûé_ãðàäèåíò_12-14);mix-blend-mode:lighten"/><path d="M162.29 482.39c-6.3 0-13.28-2.11-20.5-6.27l-16.36-9.47.61-1.05 16.36 9.47c11.88 6.86 23.02 7.98 31.37 3.17 8.34-4.82 12.94-15.03 12.94-28.75V227.85c0-14.07 4.75-24.62 13.39-29.7 8.52-5.02 19.83-4.1 31.85 2.57.14.08 4.12 2.23 8.75 4.73 8.33 4.5 14.24 7.7 14.41 7.79l-.59 1.06-22.27-12.02v-.02c-.54-.3-.86-.47-.89-.49-11.63-6.46-22.51-7.37-30.64-2.58-8.25 4.85-12.79 15.03-12.79 28.66v221.64c0 14.17-4.81 24.75-13.55 29.8-3.6 2.08-7.67 3.11-12.08 3.11Z" style="fill:url(#_Áåçûìÿííûé_ãðàäèåíò_12-15);mix-blend-mode:lighten"/><path d="M150.66 489.24c-6.3 0-13.28-2.11-20.5-6.27l-16.36-9.47.61-1.05 16.36 9.47c11.88 6.86 23.02 7.98 31.37 3.17 8.34-4.82 12.94-15.03 12.94-28.75V234.7c0-14.07 4.75-24.62 13.39-29.7 8.52-5.02 19.83-4.1 31.85 2.57.14.08 4.12 2.23 8.75 4.73 8.33 4.5 14.24 7.7 14.41 7.79l-.59 1.06-22.27-12.02v-.02c-.54-.3-.86-.47-.89-.49-11.63-6.46-22.51-7.37-30.64-2.58-8.25 4.85-12.79 15.03-12.79 28.66v221.64c0 14.17-4.81 24.75-13.55 29.8-3.6 2.08-7.67 3.11-12.08 3.11Z" style="fill:url(#_Áåçûìÿííûé_ãðàäèåíò_12-16);mix-blend-mode:lighten"/><path d="M440.52 413.95c-4.41 0-8.49-1.03-12.08-3.11-8.74-5.04-13.55-15.63-13.55-29.8V159.4c0-13.63-4.54-23.81-12.79-28.66-8.14-4.79-19.02-3.87-30.64 2.58-.03.02-.35.19-.9.49v.02l-22.26 12.02-.59-1.06c.17-.1 6.43-3.48 14.61-7.9 4.55-2.46 8.42-4.55 8.55-4.62 12.02-6.67 23.33-7.58 31.85-2.57 8.63 5.08 13.39 15.63 13.39 29.7v221.64c0 13.72 4.59 23.93 12.94 28.75s19.49 3.69 31.37-3.17l16.35-9.47.61 1.05-16.36 9.47c-7.22 4.17-14.2 6.27-20.5 6.27Z" style="fill:url(#_Áåçûìÿííûé_ãðàäèåíò_12-17);mix-blend-mode:lighten"/><path d="M452.16 420.8c-4.41 0-8.49-1.03-12.08-3.11-8.74-5.04-13.55-15.63-13.55-29.8V166.25c0-13.63-4.54-23.81-12.79-28.66-8.14-4.79-19.02-3.87-30.64 2.58-.03.02-.35.19-.9.49v.02l-22.26 12.02-.59-1.06c.17-.1 6.43-3.48 14.61-7.9 4.55-2.46 8.42-4.55 8.55-4.62 12.02-6.67 23.33-7.58 31.85-2.57 8.63 5.08 13.39 15.63 13.39 29.7v221.64c0 13.72 4.59 23.93 12.94 28.75 8.34 4.82 19.49 3.69 31.37-3.17l16.35-9.47.61 1.05-16.36 9.47c-7.22 4.17-14.2 6.27-20.5 6.27Z" style="fill:url(#_Áåçûìÿííûé_ãðàäèåíò_12-18);mix-blend-mode:lighten"/><path d="M463.79 427.64c-4.41 0-8.48-1.03-12.08-3.11-8.73-5.04-13.55-15.63-13.55-29.8V173.09c0-13.63-4.54-23.8-12.79-28.66-8.14-4.79-19.02-3.87-30.64 2.58-.03.02-.35.19-.9.49v.02l-22.26 12.02-.59-1.06c.17-.1 6.08-3.29 14.41-7.79 4.63-2.5 8.62-4.66 8.75-4.73 12.02-6.67 23.33-7.59 31.85-2.57 8.63 5.08 13.39 15.63 13.39 29.7v221.64c0 13.72 4.59 23.93 12.94 28.75 8.34 4.82 19.48 3.69 31.37-3.17l16.35-9.47.61 1.05-16.36 9.47c-7.22 4.17-14.2 6.27-20.5 6.27Z" style="fill:url(#_Áåçûìÿííûé_ãðàäèåíò_12-19);mix-blend-mode:lighten"/><path d="M475.42 434.48c-4.41 0-8.48-1.03-12.08-3.11-8.73-5.04-13.55-15.63-13.55-29.8V179.93c0-13.63-4.54-23.8-12.79-28.66-8.14-4.79-19.02-3.87-30.64 2.58-.03.02-.35.19-.9.49v.02l-22.26 12.02-.59-1.06c.17-.1 6.08-3.29 14.41-7.79 4.63-2.5 8.62-4.66 8.75-4.73 12.02-6.67 23.33-7.59 31.85-2.57 8.63 5.08 13.39 15.63 13.39 29.7v221.64c0 13.72 4.59 23.93 12.94 28.75 8.34 4.82 19.48 3.69 31.37-3.17l16.35-9.47.61 1.05-16.36 9.47c-7.22 4.17-14.2 6.27-20.5 6.27Z" style="fill:url(#_Áåçûìÿííûé_ãðàäèåíò_12-20);mix-blend-mode:lighten"/><g class="cls-26"><path transform="rotate(-28.36 415.88 161.163)" style="fill:url(#_Áåçûìÿííûé_ãðàäèåíò_12-21)" d="M414.92 160.55h2.02v1.22h-2.02z"/><path d="m400.36 170.26-.58-1.07 3.74-2.02.58 1.07-3.74 2.02Zm7.48-4.04-.58-1.07 3.74-2.02.58 1.07-3.74 2.02Z" style="fill:url(#_Áåçûìÿííûé_ãðàäèåíò_12-22)"/><path d="m394.83 173.24-.6-1.05s.01 0 .02-.02c.14-.08.78-.42 1.77-.96l.58 1.07-1.78.96Z" style="fill:url(#_Áåçûìÿííûé_ãðàäèåíò_12-23)"/><path d="M486.98 441.31c-.63 0-1.26-.02-1.88-.07l.08-1.21c.61.04 1.23.03 1.87.06.67 0 1.36-.03 2.05-.07l.09 1.21c-.74.05-1.49.06-2.21.08Zm6.25-.63-.24-1.19c1.24-.25 2.53-.57 3.82-.97l.36 1.16c-1.33.41-2.65.75-3.94 1Zm-12.17-.06c-1.34-.32-2.65-.76-3.89-1.3l.49-1.11c1.17.51 2.41.93 3.69 1.23l-.28 1.18Zm19.93-2.32-.46-1.12c1.19-.49 2.4-1.04 3.59-1.65l.55 1.08a54.29 54.29 0 0 1-3.68 1.69Zm-27.41-.97c-1.12-.76-2.18-1.64-3.17-2.61l.85-.86c.93.92 1.94 1.75 3 2.47l-.68 1Zm34.63-2.66-.61-1.05 3.46-2.01.61 1.05-3.46 2.01Zm-40.45-3.07c-.78-1.08-1.5-2.25-2.13-3.49l1.08-.56c.61 1.18 1.3 2.3 2.04 3.33l-.98.71Zm47.38-.94-.61-1.05 3.46-2.01.61 1.05-3.46 2.01Zm-51.15-6.28c-.45-1.24-.85-2.54-1.18-3.89l1.18-.29c.32 1.3.71 2.57 1.14 3.76l-1.14.42Zm-1.97-7.87c-.2-1.3-.34-2.65-.44-4.02l1.21-.08c.09 1.34.24 2.66.43 3.93l-1.2.18Zm-.58-8.07v-4h1.21v3.98l-1.21.03Zm1.21-8.01h-1.21v-4h1.21v4Zm0-8.01h-1.21v-4.01h1.21v4.01Zm0-8.01h-1.21v-4h1.21v4Zm0-8.01h-1.21v-4h1.21v4Zm0-8.01h-1.21v-4.01h1.21v4.01Zm0-8.01h-1.21v-4h1.21v4Zm0-8.01h-1.21v-4h1.21v4Zm0-8.01h-1.21v-4.01h1.21v4.01Zm0-8.01h-1.21v-4h1.21v4Zm0-8.01h-1.21v-4h1.21v4Zm0-8.01h-1.21v-4h1.21v4Zm0-8.01h-1.21v-4h1.21v4Zm0-8.01h-1.21v-4h1.21v4Zm0-8.01h-1.21v-4h1.21v4Zm0-8.01h-1.21v-4h1.21v4Zm0-8.01h-1.21v-4h1.21v4Zm0-8.01h-1.21v-4h1.21v4Zm0-8.01h-1.21v-4h1.21v4Zm0-8.01h-1.21v-4h1.21v4Zm0-8.01h-1.21v-4h1.21v4Zm0-8.01h-1.21v-4h1.21v4Zm0-8.01h-1.21v-4h1.21v4Zm0-8.01h-1.21v-4h1.21v4Zm0-8.01h-1.21v-4h1.21v4Zm0-8.01h-1.21v-4.01h1.21v4.01Zm0-8.01h-1.21v-4h1.21v4Zm0-8.01h-1.21v-4h1.21v4Zm-1.27-7.98a55.15 55.15 0 0 0-.31-3.94l1.2-.14c.16 1.31.26 2.67.32 4.04l-1.21.05Zm-.95-7.84c-.28-1.32-.61-2.61-1-3.81l1.16-.37c.4 1.24.74 2.57 1.03 3.93l-1.19.25Zm-60.3-6.08-.58-1.07 3.53-1.91.58 1.07-3.53 1.91Zm57.9-1.39c-.55-1.21-1.18-2.37-1.86-3.44l1.02-.65c.71 1.12 1.37 2.33 1.94 3.59l-1.1.5Zm-50.84-2.42-.58-1.07 3.53-1.91.58 1.07-3.53 1.91Zm7.05-3.82-.58-1.07 3.53-1.91.58 1.07-3.53 1.91Zm39.59-.33c-.87-.98-1.83-1.88-2.82-2.67l.75-.95c1.06.83 2.06 1.78 2.98 2.82l-.91.81Zm-32.53-3.4-.52-1.1c1.25-.59 2.51-1.12 3.73-1.58l.42 1.14c-1.19.45-2.42.96-3.64 1.54Zm26.45-1.39c-1.13-.59-2.34-1.09-3.59-1.48l.36-1.16c1.32.41 2.6.93 3.8 1.56l-.56 1.07Zm-19.05-1.35-.31-1.17c1.33-.36 2.67-.64 3.98-.84l.18 1.2c-1.26.19-2.56.47-3.85.81Zm11.66-.95a26 26 0 0 0-3.33-.21h-.57l-.02-1.2h.58c1.19 0 2.37.07 3.5.21l-.16 1.2Z" style="fill:url(#_Áåçûìÿííûé_ãðàäèåíò_12-24)"/><path transform="rotate(-30.07 522.706 425.558)" style="fill:url(#_Áåçûìÿííûé_ãðàäèåíò_12-25)" d="M521.72 424.95h2.02v1.21h-2.02z"/></g><path d="M498.69 448.17c-4.41 0-8.48-1.03-12.08-3.11-8.74-5.04-13.55-15.63-13.55-29.8V193.62c0-13.63-4.54-23.8-12.79-28.66-8.14-4.79-19.02-3.87-30.64 2.58-.03.02-.35.19-.9.49v.02l-22.26 12.02-.59-1.06c.16-.09 5.99-3.25 14.21-7.69 4.71-2.55 8.81-4.76 8.95-4.84 12.02-6.67 23.33-7.59 31.85-2.57 8.63 5.08 13.39 15.63 13.39 29.7v221.64c0 13.72 4.59 23.93 12.94 28.75s19.49 3.69 31.37-3.17l16.35-9.47.61 1.05-16.35 9.47c-7.22 4.17-14.2 6.27-20.5 6.27Z" style="fill:url(#_Áåçûìÿííûé_ãðàäèåíò_12-26);mix-blend-mode:lighten"/><path d="M510.32 455.02c-4.41 0-8.49-1.03-12.08-3.11-8.74-5.04-13.55-15.63-13.55-29.8V200.47c0-13.63-4.54-23.8-12.79-28.66-8.14-4.79-19.02-3.87-30.64 2.58-.03.02-.35.19-.9.49v.02l-22.26 12.02-.59-1.06c.16-.09 5.99-3.25 14.21-7.69 4.71-2.55 8.81-4.76 8.95-4.84 12.02-6.67 23.33-7.59 31.85-2.57 8.63 5.08 13.39 15.63 13.39 29.7V422.1c0 13.72 4.59 23.93 12.94 28.75 8.34 4.82 19.49 3.69 31.37-3.17l16.35-9.47.61 1.05-16.35 9.47c-7.22 4.17-14.2 6.27-20.5 6.27Z" style="fill:url(#_Áåçûìÿííûé_ãðàäèåíò_12-27);mix-blend-mode:lighten"/><path d="M521.95 461.86c-4.41 0-8.48-1.03-12.08-3.11-8.74-5.04-13.55-15.63-13.55-29.8V207.31c0-13.63-4.54-23.8-12.79-28.66-8.14-4.79-19.02-3.87-30.64 2.58-.03.02-.35.19-.9.49v.02l-22.26 12.02-.59-1.06c.16-.09 5.99-3.25 14.21-7.69 4.71-2.55 8.81-4.76 8.95-4.84 12.02-6.67 23.33-7.59 31.85-2.57 8.63 5.08 13.39 15.63 13.39 29.7v221.64c0 13.72 4.6 23.93 12.94 28.75s19.48 3.69 31.37-3.17l16.35-9.47.61 1.05-16.35 9.47c-7.22 4.17-14.2 6.27-20.5 6.27Z" style="fill:url(#_Áåçûìÿííûé_ãðàäèåíò_12-28);mix-blend-mode:lighten"/><path d="M536.31 468.56a.607.607 0 0 1-.05-1.21c2.5-.23 5.11-.79 7.76-1.66.32-.09.66.07.77.39.1.32-.07.66-.39.77-2.74.9-5.44 1.47-8.02 1.72h-.06Zm-8.04-.42s-.08 0-.13-.01c-2.77-.59-5.33-1.65-7.63-3.15a.61.61 0 0 1-.18-.84.61.61 0 0 1 .84-.18c2.18 1.41 4.61 2.42 7.23 2.98a.606.606 0 0 1-.12 1.2Zm23.36-4.44c-.22 0-.43-.12-.54-.32-.16-.3-.04-.66.26-.82.71-.37 1.42-.76 2.13-1.18l4.87-2.82a.606.606 0 1 1 .61 1.05l-4.87 2.82c-.73.42-1.46.82-2.18 1.2-.09.05-.19.07-.28.07ZM515 459.55c-.18 0-.37-.08-.49-.24-1.57-2.1-2.88-4.54-3.89-7.24-.12-.31.04-.66.35-.78s.66.04.78.35c.98 2.6 2.23 4.94 3.73 6.95.2.27.14.65-.12.85-.11.08-.24.12-.36.12Zm50.65-3.91c-.21 0-.41-.11-.53-.3a.606.606 0 0 1 .22-.83l4.49-2.6a.606.606 0 1 1 .61 1.05l-4.49 2.6c-.1.06-.2.08-.3.08Zm-56.48-11a.61.61 0 0 1-.6-.51c-.4-2.56-.61-5.3-.62-8.15 0-.34.27-.61.6-.61.33 0 .61.27.61.6 0 2.79.21 5.46.6 7.96.05.33-.17.64-.51.69h-.09Zm-.61-16.14c-.33 0-.61-.27-.61-.61v-8.09c0-.34.27-.61.61-.61s.61.27.61.61v8.09c0 .34-.27.61-.61.61Zm0-16.18c-.33 0-.61-.27-.61-.61v-8.09c0-.34.27-.61.61-.61s.61.27.61.61v8.09c0 .34-.27.61-.61.61Zm0-16.17c-.33 0-.61-.27-.61-.61v-8.09c0-.34.27-.61.61-.61s.61.27.61.61v8.09c0 .34-.27.61-.61.61Zm0-16.18c-.33 0-.61-.27-.61-.61v-8.09c0-.34.27-.61.61-.61s.61.27.61.61v8.09c0 .34-.27.61-.61.61Zm0-16.17c-.33 0-.61-.27-.61-.61v-8.09c0-.34.27-.61.61-.61s.61.27.61.61v8.09c0 .34-.27.61-.61.61Zm0-16.17c-.33 0-.61-.27-.61-.61v-8.09c0-.34.27-.61.61-.61s.61.27.61.61v8.09c0 .34-.27.61-.61.61Zm0-16.18c-.33 0-.61-.27-.61-.61v-8.09c0-.34.27-.61.61-.61s.61.27.61.61v8.09c0 .34-.27.61-.61.61Zm0-16.17c-.33 0-.61-.27-.61-.61v-8.09c0-.34.27-.61.61-.61s.61.27.61.61v8.09c0 .34-.27.61-.61.61Zm0-16.17c-.33 0-.61-.27-.61-.61v-8.09c0-.34.27-.61.61-.61s.61.27.61.61v8.09c0 .34-.27.61-.61.61Zm0-16.18c-.33 0-.61-.27-.61-.61v-8.09c0-.34.27-.61.61-.61s.61.27.61.61v8.09c0 .34-.27.61-.61.61Zm0-16.17c-.33 0-.61-.27-.61-.61v-8.09c0-.34.27-.61.61-.61s.61.27.61.61v8.09c0 .34-.27.61-.61.61Zm0-16.17c-.33 0-.61-.27-.61-.61v-8.09c0-.34.27-.61.61-.61s.61.27.61.61v8.09c0 .34-.27.61-.61.61Zm0-16.18c-.33 0-.61-.27-.61-.61v-8.09c0-.34.27-.61.61-.61s.61.27.61.61v8.09c0 .34-.27.61-.61.61Zm0-16.17c-.33 0-.61-.27-.61-.61v-3.45c0-1.57-.06-3.11-.18-4.58-.03-.33.22-.63.55-.65.34-.05.63.22.65.55.12 1.5.19 3.07.19 4.68v3.45c0 .34-.27.61-.61.61Zm-1.52-16.04c-.27 0-.51-.18-.59-.45-.72-2.69-1.69-5.17-2.9-7.37a.607.607 0 0 1 .24-.82c.3-.17.66-.05.82.24 1.26 2.28 2.27 4.85 3.01 7.64a.603.603 0 0 1-.59.76Zm-65.05-1.99c-.22 0-.42-.11-.53-.32a.602.602 0 0 1 .25-.82l5.22-2.82s.05-.03.08-.05l7.13-3.85a.6.6 0 0 1 .82.25c.16.29.05.66-.25.82l-5.24 2.83s-.05.04-.08.05l-7.12 3.84c-.09.05-.19.07-.29.07Zm14.23-7.68c-.22 0-.42-.11-.53-.32a.602.602 0 0 1 .25-.82l5.22-2.82s.07-.06.11-.08c1.55-.84 2.55-1.38 2.65-1.43 1.55-.86 3.09-1.63 4.6-2.29.3-.13.66 0 .8.31.13.3 0 .66-.31.8-1.48.65-2.99 1.4-4.49 2.24-.02.01-.3.16-.77.42-.04.03-.08.06-.12.08l-7.12 3.84c-.09.05-.19.07-.29.07Zm42.93-4.19a.59.59 0 0 1-.41-.16 20.992 20.992 0 0 0-6.63-4.13c-.31-.12-.47-.47-.35-.79s.47-.46.78-.35c2.59 1.01 4.95 2.48 7.01 4.37.25.23.26.61.04.86-.12.13-.28.2-.45.2Zm-22.73-4.99a.6.6 0 0 1-.59-.47c-.07-.33.13-.65.46-.73 2.81-.64 5.58-.92 8.18-.84.33 0 .6.29.59.63-.01.33-.31.58-.63.59-2.51-.08-5.16.19-7.87.81-.05.01-.09.02-.14.02Z" style="fill:url(#_Áåçûìÿííûé_ãðàäèåíò_12-29);mix-blend-mode:lighten"/><path d="M545.22 475.55c-4.41 0-8.48-1.03-12.08-3.11-8.74-5.04-13.55-15.63-13.55-29.8V221c0-13.63-4.54-23.81-12.79-28.66-8.14-4.79-19.02-3.87-30.64 2.58-.03.02-.35.19-.9.49v.02L453 207.45l-.59-1.06c.17-.1 6.43-3.48 14.61-7.9 4.55-2.46 8.42-4.55 8.55-4.62 12.02-6.67 23.33-7.58 31.85-2.57 8.63 5.08 13.39 15.63 13.39 29.7v221.64c0 13.72 4.6 23.93 12.94 28.75s19.48 3.69 31.37-3.17l16.35-9.47.61 1.05-16.36 9.47c-7.22 4.17-14.2 6.27-20.5 6.27Z" style="mix-blend-mode:lighten;fill:url(#_Áåçûìÿííûé_ãðàäèåíò_12-30)"/><path d="M556.85 482.39c-4.41 0-8.49-1.03-12.08-3.11-8.74-5.04-13.55-15.63-13.55-29.8V227.84c0-13.63-4.54-23.8-12.79-28.66-8.14-4.79-19.02-3.87-30.64 2.58-.03.02-.35.19-.9.49v.02l-22.26 12.02-.59-1.06c.17-.1 6.08-3.29 14.41-7.79 4.63-2.5 8.62-4.66 8.75-4.73 12.02-6.67 23.33-7.59 31.85-2.57 8.63 5.08 13.39 15.63 13.39 29.7v221.64c0 13.72 4.6 23.93 12.94 28.75 8.35 4.82 19.48 3.69 31.37-3.17l16.35-9.47.61 1.05-16.36 9.47c-7.22 4.17-14.2 6.27-20.5 6.27Z" style="fill:url(#_Áåçûìÿííûé_ãðàäèåíò_12-31);mix-blend-mode:lighten"/><path d="M568.49 489.24c-4.41 0-8.49-1.03-12.08-3.11-8.74-5.04-13.55-15.63-13.55-29.8V234.69c0-13.63-4.54-23.8-12.79-28.66-8.14-4.79-19.02-3.87-30.64 2.58-.03.02-.35.19-.9.49v.02l-22.26 12.02-.59-1.06c.17-.1 6.08-3.29 14.41-7.79 4.63-2.5 8.62-4.66 8.75-4.73 12.02-6.67 23.33-7.59 31.85-2.57 8.63 5.08 13.39 15.63 13.39 29.7v221.64c0 13.72 4.6 23.93 12.94 28.75 8.35 4.82 19.49 3.69 31.37-3.17l16.35-9.47.61 1.05-16.36 9.47c-7.22 4.17-14.2 6.27-20.5 6.27Z" style="fill:url(#_Áåçûìÿííûé_ãðàäèåíò_12-32);mix-blend-mode:lighten"/><path class="cls-7" d="M647.17 296.84v-60.29c-1.4-20.55-9.53-40.13-23.18-58.04v60.29c13.65 17.9 21.78 37.49 23.18 58.04Zm-30.15-66.51v-60.29c-4.81-5.43-10.15-10.68-15.96-15.73v60.29c5.82 5.05 11.15 10.3 15.96 15.73Zm-25.84-23.76v-60.29c-6.33-4.83-13.12-9.45-20.34-13.84v60.29c7.22 4.39 14.01 9.01 20.34 13.84Zm-34-3.79v-95.92c55.54 29.47 90.21 71.61 90.21 118.23v95.92c0-46.62-34.67-88.76-90.21-118.23ZM455.6 156.73v-17.32c-4.24-.81-8.52-1.57-12.85-2.26v17.32c4.33.7 8.61 1.45 12.85 2.26Zm-23.11-21.12v-15.33c-4.39-.61-8.82-1.15-13.3-1.64v15.33c4.47.49 8.9 1.03 13.3 1.64Zm45.35 8.67v-20.9c-4.07-1.01-8.19-1.96-12.35-2.86v20.9c4.17.9 8.28 1.85 12.35 2.86Zm-69.26-11.35v-30.85c-4.53-.39-9.09-.72-13.68-.98v30.85c4.59.26 9.16.59 13.68.98Zm-49.64-1.74v-30.85c-4.65.07-9.28.21-13.87.41v30.85c4.59-.2 9.22-.33 13.87-.4Zm-24.66.99V93.37c-4.55.3-9.06.66-13.54 1.08v38.81c4.48-.42 8.99-.78 13.54-1.08Zm49.71-.74V87.05c-4.15-.15-8.33-.24-12.53-.28-.5 0-.99 0-1.49-.01v44.39c.5 0 .99 0 1.49.01 4.2.04 8.38.14 12.53.28Zm-73.75 2.93V78.84c-4.43.52-8.82 1.09-13.17 1.73v55.53c4.35-.64 8.74-1.21 13.17-1.73ZM268.8 74.09c31.92-6.8 66.56-10.37 102.66-10 48.21.48 93.36 7.9 132.63 20.58v95.92c-39.26-12.67-84.42-20.1-132.63-20.58-36.11-.36-70.74 3.2-102.66 10.01V74.1ZM105.61 204.21V184.9c-5.74 8.26-10.32 16.86-13.63 25.73v57.2c3.31-8.87 7.89-17.47 13.63-25.73v-19.31c1.66-2.39 3.42-4.76 5.28-7.09v10.41c3.51-4.43 7.37-8.74 11.54-12.94v-10.41c18.09-18.21 42.19-34.18 70.72-47.05v-18.57c-5.08 2.29-10.01 4.68-14.8 7.16-2.4 1.24-4.75 2.51-7.07 3.79-18.32 10.17-34.24 21.76-47.22 34.47-.55.54-1.09 1.08-1.63 1.62v-10.41c-4.17 4.2-8.02 8.52-11.54 12.94v10.41c-1.85 2.33-3.61 4.7-5.28 7.09Zm-17.37-.6C99.15 156.8 145 116.49 210.05 91.4v95.92C145 212.41 99.15 252.72 88.24 299.53v-95.92Z"/><path class="cls-2" d="M122.42 184.18c.54-.54 1.08-1.08 1.63-1.62v18.57c9.69-9.5 21.03-18.37 33.78-26.49 4.32-2.75 8.8-5.41 13.44-7.99v-18.57c2.32-1.29 4.68-2.55 7.07-3.79v18.57c4.79-2.48 9.72-4.87 14.8-7.16v-18.57 18.57c-28.53 12.86-52.63 28.84-70.72 47.05v-18.57Zm-16.81 20.03c1.66-2.39 3.42-4.76 5.28-7.09v18.57c-1.85 2.33-3.61 4.7-5.28 7.09v-18.57Z"/><path class="cls-3" d="M178.34 144.29c4.79-2.48 9.72-4.87 14.8-7.16v18.57c-5.08 2.29-10.01 4.68-14.8 7.16v-18.57ZM124.05 182.56c9.69-9.5 21.03-18.37 33.78-26.49v18.57c-12.75 8.12-24.09 16.99-33.78 26.49v-18.57Z"/><path d="M157.83 156.07c4.32-2.75 8.8-5.41 13.44-7.99v18.57c-4.64 2.57-9.12 5.24-13.44 7.99v-18.57Z" style="opacity:.97;fill:#42e8e0"/><path class="cls-2" d="M91.98 210.63c3.31-8.87 7.89-17.47 13.63-25.73v19.31c-5.74 8.26-10.32 16.86-13.63 25.73v18.57c3.31-8.87 7.89-17.47 13.63-25.73v19.31c-5.74 8.26-10.32 16.86-13.63 25.73v-57.2Z"/><path class="cls-3" d="M91.98 229.94c3.31-8.87 7.89-17.47 13.63-25.73v18.57c-5.74 8.26-10.32 16.86-13.63 25.73v-18.57Z"/><path class="cls-2" d="M110.88 215.69c3.51-4.43 7.37-8.74 11.54-12.94v10.41c-4.17 4.2-8.02 8.52-11.54 12.94v-10.41Zm0-28.99c3.51-4.43 7.37-8.74 11.54-12.94v10.41c-4.17 4.2-8.02 8.52-11.54 12.94V186.7Z"/><path class="cls-3" d="M110.88 197.12c3.51-4.43 7.37-8.74 11.54-12.94v18.57c-4.17 4.2-8.02 8.52-11.54 12.94v-18.57Z"/><path class="cls-2" d="M624 178.51c13.65 17.9 21.78 37.49 23.18 58.04v60.29c-1.4-20.55-9.53-40.13-23.18-58.04v-60.29Z"/><path class="cls-8" d="M601.06 154.32c5.82 5.05 11.15 10.3 15.96 15.73v60.29c-4.81-5.43-10.15-10.68-15.96-15.73v-60.29Z"/><path class="cls-2" d="M570.84 132.44c7.22 4.39 14.01 9.01 20.34 13.84v60.29c-6.33-4.83-13.12-9.45-20.34-13.84v-60.29ZM465.5 120.52c4.17.9 8.28 1.85 12.35 2.86v20.9c-4.07-1.01-8.19-1.96-12.35-2.86v-20.9ZM442.76 137.15c4.33.7 8.61 1.45 12.85 2.26v17.32c-4.24-.81-8.52-1.57-12.85-2.26v-17.32ZM419.2 118.64c4.47.49 8.9 1.03 13.3 1.64v15.33c-4.39-.61-8.82-1.15-13.3-1.64v-15.33ZM394.91 101.1c4.59.26 9.16.59 13.68.98v30.85c-4.53-.39-9.09-.72-13.68-.98V101.1ZM369.98 86.77c.5 0 .99 0 1.49.01 4.2.04 8.38.14 12.53.28v44.39c-4.15-.15-8.33-.24-12.53-.28-.5 0-.99 0-1.49-.01V86.77Z"/><path class="cls-8" d="M345.08 100.75c4.59-.2 9.22-.33 13.87-.41v30.85c-4.65.07-9.28.21-13.87.4v-30.85Z"/><path class="cls-2" d="M320.75 94.47c4.48-.42 8.99-.78 13.54-1.08v38.81c-4.55.3-9.06.66-13.54 1.08V94.47Z"/><path class="cls-8" d="M297.08 80.58c4.35-.64 8.74-1.21 13.17-1.73v55.53c-4.43.52-8.82 1.09-13.17 1.73V80.58Z"/><path d="M368.7 520.28a18.874 18.874 0 0 0-18.87 0l-112.48 64.79c-1.77 1.02-1.77 3.58 0 4.6l113.42 65.48c5.15 2.98 11.5 2.98 16.65 0l113.59-65.42c1.77-1.02 1.77-3.58 0-4.6L368.7 520.29Z" style="fill:url(#_Áåçûìÿííûé_ãðàäèåíò_11)" class="cls-64"/><path d="M368.7 501.33a18.874 18.874 0 0 0-18.87 0l-112.48 64.79c-1.77 1.02-1.77 3.58 0 4.6l113.42 65.48c5.15 2.98 11.5 2.98 16.65 0l113.59-65.42c1.77-1.02 1.77-3.58 0-4.6L368.7 501.34Z" style="fill:url(#_Áåçûìÿííûé_ãðàäèåíò_11-2)" class="cls-64"/><path d="M368.7 482.38a18.874 18.874 0 0 0-18.87 0l-112.48 64.79c-1.77 1.02-1.77 3.58 0 4.6l113.42 65.48c5.15 2.98 11.5 2.98 16.65 0l113.59-65.42c1.77-1.02 1.77-3.58 0-4.6L368.7 482.39Z" style="fill:url(#_Áåçûìÿííûé_ãðàäèåíò_11-3)" class="cls-64"/><path d="M368.7 463.44a18.874 18.874 0 0 0-18.87 0l-112.48 64.79c-1.77 1.02-1.77 3.58 0 4.6l113.42 65.48c5.15 2.98 11.5 2.98 16.65 0l113.59-65.42c1.77-1.02 1.77-3.58 0-4.6L368.7 463.45Z" style="fill:url(#_Áåçûìÿííûé_ãðàäèåíò_11-4)" class="cls-64"/><path d="m481.02 528.28-112.31-64.84a18.874 18.874 0 0 0-18.87 0l-112.48 64.79c-.89.51-1.33 1.41-1.33 2.3v56.85c0 .89.44 1.79 1.33 2.3l113.42 65.48c5.15 2.98 11.5 2.98 16.65 0l113.59-65.42c.89-.51 1.33-1.41 1.33-2.3v-56.85c0-.89-.44-1.79-1.33-2.3Z" style="fill:url(#_Áåçûìÿííûé_ãðàäèåíò_11-5);opacity:.5"/><path d="M368.7 463.44a18.874 18.874 0 0 0-18.87 0l-112.48 64.79c-1.77 1.02-1.77 3.58 0 4.6l113.42 65.48c5.15 2.98 11.5 2.98 16.65 0l113.59-65.42c1.77-1.02 1.77-3.58 0-4.6L368.7 463.45Z" style="fill:url(#_Áåçûìÿííûé_ãðàäèåíò_11-6)" class="cls-64"/><path d="M365.25 487.84c-3.72-2.15-8.3-2.15-12.03 0l-71.68 41.29a1.69 1.69 0 0 0 0 2.93l72.27 41.73c3.28 1.9 7.33 1.9 10.61 0l72.39-41.69a1.69 1.69 0 0 0 0-2.93l-71.57-41.32Z" style="fill:#160a5b" class="cls-53"/><path class="cls-8" d="M363.22 500.58a7.995 7.995 0 0 0-8 0l-50.4 29.03c-.79.46-.79 1.6 0 2.05l50.6 29.22a7.417 7.417 0 0 0 7.43 0l50.68-29.19c.79-.46.79-1.6 0-2.05l-50.32-29.05Z" style="opacity:.5"/><path class="cls-8" d="m304.82 531.42 50.4-29.03a7.995 7.995 0 0 1 8 0l50.32 29.05c.05.03.07.08.11.12.64-.5.62-1.51-.11-1.94l-50.32-29.05a7.995 7.995 0 0 0-8 0l-50.4 29.03c-.74.43-.76 1.43-.11 1.94.04-.03.06-.09.11-.12Z"/><path d="m481.02 530.26-113.59 65.42a16.622 16.622 0 0 1-16.65 0L237.36 530.2c-.44-.25-.76-.6-.99-.99-.68 1.2-.35 2.84.99 3.61l113.42 65.48c5.15 2.98 11.5 2.98 16.65 0l113.59-65.42c1.33-.77 1.66-2.41.99-3.61-.22.39-.55.74-.99.99Z" style="fill:url(#_Áåçûìÿííûé_ãðàäèåíò_11-7)"/><g class="cls-53"><path class="cls-8" d="m198.51 452.31-9.05-5.23 9.05-5.23 9.06 5.23-9.06 5.23z"/><path class="cls-4" d="m216.62 462.76-9.05-5.23 9.05-5.22 9.06 5.22-9.06 5.23z"/><path class="cls-5" d="m234.73 473.22-9.05-5.23 9.05-5.23 9.06 5.23-9.06 5.23z"/><path class="cls-8" d="m252.84 483.67-9.05-5.23 9.05-5.22 9.05 5.22-9.05 5.23z"/><path class="cls-5" d="m270.95 494.13-9.05-5.23 9.05-5.23 9.05 5.23-9.05 5.23z"/><path class="cls-8" d="m289.06 504.58-9.06-5.23 9.06-5.22 9.05 5.22-9.05 5.23zM307.17 515.04l-9.06-5.23 9.06-5.23 9.05 5.23-9.05 5.23zM325.28 525.49l-9.06-5.23 9.06-5.22 9.05 5.22-9.05 5.23z"/><path class="cls-4" d="m343.38 535.95-9.05-5.23 9.05-5.23 9.06 5.23-9.06 5.23z"/><path class="cls-8" d="m180.33 462.8-9.05-5.22 9.05-5.23 9.06 5.23-9.06 5.22zM198.44 473.26l-9.05-5.23 9.05-5.23 9.06 5.23-9.06 5.23zM216.55 483.71l-9.05-5.22 9.05-5.23 9.05 5.23-9.05 5.22zM234.66 494.17l-9.06-5.23 9.06-5.23 9.05 5.23-9.05 5.23zM252.77 504.62l-9.06-5.22 9.06-5.23 9.05 5.23-9.05 5.22zM270.88 515.08l-9.06-5.23 9.06-5.23 9.05 5.23-9.05 5.23zM288.98 525.53l-9.05-5.22 9.05-5.23 9.06 5.23-9.06 5.22zM307.09 535.99l-9.05-5.23 9.05-5.23 9.06 5.23-9.06 5.23zM325.2 546.44l-9.05-5.22 9.05-5.23 9.06 5.23-9.06 5.22zM162.15 473.3l-9.05-5.23 9.05-5.22 9.05 5.22-9.05 5.23zM180.26 483.76l-9.06-5.23 9.06-5.23 9.05 5.23-9.05 5.23zM198.37 494.21l-9.06-5.23 9.06-5.22 9.05 5.22-9.05 5.23z"/><path class="cls-4" d="m216.48 504.67-9.06-5.23 9.06-5.23 9.05 5.23-9.05 5.23z"/><path class="cls-5" d="m234.59 515.12-9.06-5.23 9.05-5.22 9.06 5.22-9.05 5.23zM252.69 525.58l-9.05-5.23 9.05-5.23 9.06 5.23-9.06 5.23z"/><path class="cls-8" d="m270.8 536.03-9.05-5.23 9.05-5.22 9.06 5.22-9.06 5.23zM288.91 546.49l-9.05-5.23 9.05-5.23 9.06 5.23-9.06 5.23zM307.02 556.94l-9.05-5.23 9.05-5.22 9.05 5.22-9.05 5.23z"/><path class="cls-5" d="m143.97 483.8-9.06-5.23 9.06-5.23 9.05 5.23-9.05 5.23zM162.08 494.25l-9.06-5.22 9.06-5.23 9.05 5.23-9.05 5.22z"/><path class="cls-4" d="m180.19 504.71-9.06-5.23 9.06-5.23 9.05 5.23-9.05 5.23z"/><path class="cls-8" d="m198.29 515.16-9.05-5.22 9.05-5.23 9.06 5.23-9.06 5.22zM216.4 525.62l-9.05-5.23 9.05-5.23 9.06 5.23-9.06 5.23zM234.51 536.07l-9.05-5.22 9.05-5.23 9.06 5.23-9.06 5.22z"/><path class="cls-5" d="m252.62 546.53-9.05-5.23 9.05-5.23 9.05 5.23-9.05 5.23z"/><path class="cls-8" d="m270.73 556.98-9.05-5.22 9.05-5.23 9.05 5.23-9.05 5.22zM288.84 567.44l-9.06-5.23 9.06-5.23 9.05 5.23-9.05 5.23zM125.79 494.3l-9.06-5.23 9.06-5.23 9.05 5.23-9.05 5.23zM143.89 504.75l-9.05-5.23 9.05-5.22 9.06 5.22-9.06 5.23zM162 515.21l-9.05-5.23 9.05-5.23 9.06 5.23-9.06 5.23zM180.11 525.66l-9.05-5.23 9.05-5.22 9.06 5.22-9.06 5.23zM198.22 536.12l-9.05-5.23 9.05-5.23 9.06 5.23-9.06 5.23zM216.33 546.57l-9.05-5.23 9.05-5.22 9.05 5.22-9.05 5.23zM234.44 557.03l-9.06-5.23 9.06-5.23 9.05 5.23-9.05 5.23zM252.55 567.48l-9.06-5.23 9.06-5.22 9.05 5.22-9.05 5.23zM270.66 577.94l-9.06-5.23 9.06-5.23 9.05 5.23-9.05 5.23zM107.6 504.79l-9.05-5.22 9.05-5.23 9.06 5.23-9.06 5.22zM125.71 515.25l-9.05-5.23 9.05-5.23 9.06 5.23-9.06 5.23z"/><path class="cls-5" d="m143.82 525.7-9.05-5.22 9.05-5.23 9.06 5.23-9.06 5.22z"/><path class="cls-8" d="m161.93 536.16-9.05-5.23 9.05-5.23 9.05 5.23-9.05 5.23z"/><path class="cls-4" d="m180.04 546.61-9.06-5.22 9.06-5.23 9.05 5.23-9.05 5.22z"/><path class="cls-8" d="m198.15 557.07-9.06-5.23 9.06-5.23 9.05 5.23-9.05 5.23zM216.26 567.52l-9.06-5.22 9.06-5.23 9.05 5.23-9.05 5.22zM234.37 577.98l-9.06-5.23 9.06-5.23 9.05 5.23-9.05 5.23zM252.47 588.43l-9.05-5.22 9.05-5.23 9.06 5.23-9.06 5.22zM89.42 515.29l-9.05-5.23 9.05-5.22 9.06 5.22-9.06 5.23zM107.53 525.75l-9.05-5.23 9.05-5.23 9.05 5.23-9.05 5.23z"/><path class="cls-5" d="m125.64 536.2-9.05-5.23 9.05-5.22 9.05 5.22-9.05 5.23z"/><path class="cls-8" d="m143.75 546.66-9.06-5.23 9.06-5.23 9.05 5.23-9.05 5.23zM161.86 557.11l-9.06-5.23 9.06-5.22 9.05 5.22-9.05 5.23z"/><path class="cls-4" d="m179.97 567.57-9.06-5.23 9.06-5.23 9.05 5.23-9.05 5.23z"/><path class="cls-5" d="m198.07 578.02-9.05-5.23 9.05-5.22 9.06 5.22-9.06 5.23z"/><path class="cls-8" d="m216.18 588.48-9.05-5.23 9.05-5.23 9.06 5.23-9.06 5.23z"/><path class="cls-4" d="m234.29 598.93-9.05-5.23 9.05-5.22 9.06 5.22-9.06 5.23z"/><path class="cls-8" d="m71.24 525.79-9.05-5.23 9.05-5.23 9.05 5.23-9.05 5.23z"/><path class="cls-5" d="m89.35 536.24-9.06-5.23 9.06-5.22 9.05 5.23-9.05 5.22z"/><path class="cls-8" d="m107.46 546.7-9.06-5.23 9.06-5.23 9.05 5.23-9.05 5.23zM125.57 557.15l-9.06-5.22 9.06-5.23 9.05 5.23-9.05 5.22zM143.68 567.61l-9.06-5.23 9.05-5.23 9.06 5.23-9.05 5.23zM161.78 578.06l-9.05-5.22 9.05-5.23 9.06 5.23-9.06 5.22zM179.89 588.52l-9.05-5.23 9.05-5.23 9.06 5.23-9.06 5.23z"/><path class="cls-5" d="m198 598.97-9.05-5.22 9.05-5.23 9.06 5.23-9.06 5.22z"/><path class="cls-8" d="m216.11 609.43-9.05-5.23 9.05-5.23 9.05 5.23-9.05 5.23zM53.06 536.28 44 531.06l9.06-5.23 9.05 5.23-9.05 5.22z"/><path class="cls-4" d="m71.17 546.74-9.06-5.23 9.06-5.23 9.05 5.23-9.05 5.23z"/><path class="cls-8" d="m89.28 557.2-9.06-5.23 9.06-5.23 9.05 5.23-9.05 5.23zM107.38 567.65l-9.05-5.23 9.05-5.22 9.06 5.22-9.06 5.23zM125.49 578.11l-9.05-5.23 9.05-5.23 9.06 5.23-9.06 5.23zM143.6 588.56l-9.05-5.23 9.05-5.22 9.06 5.22-9.06 5.23z"/><path class="cls-5" d="m161.71 599.02-9.05-5.23 9.05-5.23 9.05 5.23-9.05 5.23z"/><path class="cls-8" d="m179.82 609.47-9.06-5.23 9.06-5.22 9.05 5.22-9.05 5.23zM197.93 619.93l-9.06-5.23 9.06-5.23 9.05 5.23-9.05 5.23zM520.44 452.31l-9.06-5.23 9.06-5.23 9.05 5.23-9.05 5.23z"/><path class="cls-4" d="m538.55 462.76-9.06-5.23 9.06-5.22 9.05 5.22-9.05 5.23z"/><path class="cls-5" d="m556.65 473.22-9.05-5.23 9.05-5.23 9.06 5.23-9.06 5.23z"/><path class="cls-8" d="m574.76 483.67-9.05-5.23 9.05-5.22 9.06 5.22-9.06 5.23z"/><path class="cls-5" d="m592.87 494.13-9.05-5.23 9.05-5.23 9.06 5.23-9.06 5.23z"/><path class="cls-8" d="m610.98 504.58-9.05-5.23 9.05-5.22 9.05 5.22-9.05 5.23zM629.09 515.04l-9.06-5.23 9.06-5.23 9.05 5.23-9.05 5.23zM647.2 525.49l-9.06-5.23 9.06-5.22 9.05 5.22-9.05 5.23z"/><path class="cls-4" d="m665.31 535.95-9.06-5.23 9.06-5.23 9.05 5.23-9.05 5.23z"/><path class="cls-8" d="m502.25 462.8-9.05-5.22 9.05-5.23 9.06 5.23-9.06 5.22zM520.36 473.26l-9.05-5.23 9.05-5.23 9.06 5.23-9.06 5.23zM538.47 483.71l-9.05-5.22 9.05-5.23 9.06 5.23-9.06 5.22zM556.58 494.17l-9.05-5.23 9.05-5.23 9.05 5.23-9.05 5.23zM574.69 504.62l-9.05-5.22 9.05-5.23 9.05 5.23-9.05 5.22zM592.8 515.08l-9.06-5.23 9.06-5.23 9.05 5.23-9.05 5.23zM610.91 525.53l-9.06-5.22 9.06-5.23 9.05 5.23-9.05 5.22zM629.02 535.99l-9.06-5.23 9.06-5.23 9.05 5.23-9.05 5.23zM647.12 546.44l-9.05-5.22 9.05-5.23 9.06 5.23-9.06 5.22zM484.07 473.3l-9.05-5.23 9.05-5.22 9.06 5.22-9.06 5.23zM502.18 483.76l-9.05-5.23 9.05-5.23 9.06 5.23-9.06 5.23zM520.29 494.21l-9.05-5.23 9.05-5.22 9.05 5.22-9.05 5.23z"/><path class="cls-4" d="m538.4 504.67-9.06-5.23 9.06-5.23 9.05 5.23-9.05 5.23z"/><path class="cls-5" d="m556.51 515.12-9.06-5.23 9.06-5.22 9.05 5.22-9.05 5.23zM574.62 525.58l-9.06-5.23 9.06-5.23 9.05 5.23-9.05 5.23z"/><path class="cls-8" d="m592.72 536.03-9.05-5.23 9.05-5.22 9.06 5.22-9.06 5.23zM610.83 546.49l-9.05-5.23 9.05-5.23 9.06 5.23-9.06 5.23zM628.94 556.94l-9.05-5.23 9.05-5.22 9.06 5.22-9.06 5.23z"/><path class="cls-5" d="m465.89 483.8-9.05-5.23 9.05-5.23 9.05 5.23-9.05 5.23zM484 494.25l-9.06-5.22 9.06-5.23 9.05 5.23-9.05 5.22z"/><path class="cls-4" d="m502.11 504.71-9.06-5.23 9.06-5.23 9.05 5.23-9.05 5.23z"/><path class="cls-8" d="m520.22 515.16-9.06-5.22 9.06-5.23 9.05 5.23-9.05 5.22zM538.33 525.62l-9.06-5.23 9.06-5.23 9.05 5.23-9.05 5.23zM556.43 536.07l-9.05-5.22 9.05-5.23 9.06 5.23-9.06 5.22z"/><path class="cls-5" d="m574.54 546.53-9.05-5.23 9.05-5.23 9.06 5.23-9.06 5.23z"/><path class="cls-8" d="m592.65 556.98-9.05-5.22 9.05-5.23 9.06 5.23-9.06 5.22zM610.76 567.44l-9.05-5.23 9.05-5.23 9.05 5.23-9.05 5.23zM447.71 494.3l-9.06-5.23 9.06-5.23 9.05 5.23-9.05 5.23zM465.82 504.75l-9.06-5.23 9.06-5.22 9.05 5.22-9.05 5.23zM483.93 515.21l-9.06-5.23 9.06-5.23 9.05 5.23-9.05 5.23zM502.03 525.66l-9.05-5.23 9.05-5.22 9.06 5.22-9.06 5.23zM520.14 536.12l-9.05-5.23 9.05-5.23 9.06 5.23-9.06 5.23zM538.25 546.57l-9.05-5.23 9.05-5.22 9.06 5.22-9.06 5.23zM556.36 557.03l-9.05-5.23 9.05-5.23 9.05 5.23-9.05 5.23zM574.47 567.48l-9.05-5.23 9.05-5.22 9.05 5.22-9.05 5.23zM592.58 577.94l-9.06-5.23 9.06-5.23 9.05 5.23-9.05 5.23zM429.53 504.79l-9.06-5.22 9.06-5.23 9.05 5.23-9.05 5.22zM447.63 515.25l-9.05-5.23 9.05-5.23 9.06 5.23-9.06 5.23z"/><path class="cls-5" d="m465.74 525.7-9.05-5.22 9.05-5.23 9.06 5.23-9.06 5.22z"/><path class="cls-8" d="m483.85 536.16-9.05-5.23 9.05-5.23 9.06 5.23-9.06 5.23z"/><path class="cls-4" d="m501.96 546.61-9.05-5.22 9.05-5.23 9.06 5.23-9.06 5.22z"/><path class="cls-8" d="m520.07 557.07-9.05-5.23 9.05-5.23 9.05 5.23-9.05 5.23zM538.18 567.52l-9.06-5.22 9.06-5.23 9.05 5.23-9.05 5.22zM556.29 577.98l-9.06-5.23 9.06-5.23 9.05 5.23-9.05 5.23zM574.4 588.43l-9.06-5.22 9.06-5.23 9.05 5.23-9.05 5.22zM411.34 515.29l-9.05-5.23 9.05-5.22 9.06 5.22-9.06 5.23zM429.45 525.75l-9.05-5.23 9.05-5.23 9.06 5.23-9.06 5.23z"/><path class="cls-5" d="m447.56 536.2-9.05-5.23 9.05-5.22 9.06 5.22-9.06 5.23z"/><path class="cls-8" d="m465.67 546.66-9.05-5.23 9.05-5.23 9.05 5.23-9.05 5.23zM483.78 557.11l-9.06-5.23 9.06-5.22 9.05 5.22-9.05 5.23z"/><path class="cls-4" d="m501.89 567.57-9.06-5.23 9.06-5.23 9.05 5.23-9.05 5.23z"/><path class="cls-5" d="m520 578.02-9.06-5.23 9.06-5.22 9.05 5.22-9.05 5.23z"/><path class="cls-8" d="m538.11 588.48-9.06-5.23 9.06-5.23 9.05 5.23-9.05 5.23z"/><path class="cls-4" d="m556.21 598.93-9.05-5.23 9.05-5.22 9.06 5.22-9.06 5.23z"/><path class="cls-8" d="m393.16 525.79-9.05-5.23 9.05-5.23 9.06 5.23-9.06 5.23z"/><path class="cls-5" d="m411.27 536.24-9.05-5.23 9.05-5.22 9.05 5.23-9.05 5.22z"/><path class="cls-8" d="m429.38 546.7-9.05-5.23 9.05-5.23 9.05 5.23-9.05 5.23zM447.49 557.15l-9.06-5.22 9.06-5.23 9.05 5.23-9.05 5.22zM465.6 567.61l-9.06-5.23 9.06-5.23 9.05 5.23-9.05 5.23zM483.71 578.06l-9.06-5.22 9.06-5.23 9.05 5.23-9.05 5.22zM501.81 588.52l-9.05-5.23 9.05-5.23 9.06 5.23-9.06 5.23z"/><path class="cls-5" d="m519.92 598.97-9.05-5.22 9.05-5.23 9.06 5.23-9.06 5.22z"/><path class="cls-8" d="m538.03 609.43-9.05-5.23 9.05-5.23 9.06 5.23-9.06 5.23zM374.98 536.28l-9.05-5.22 9.05-5.23 9.05 5.23-9.05 5.22z"/><path class="cls-4" d="m393.09 546.74-9.06-5.23 9.06-5.23 9.05 5.23-9.05 5.23z"/><path class="cls-8" d="m411.2 557.2-9.06-5.23 9.06-5.23 9.05 5.23-9.05 5.23zM429.31 567.65l-9.06-5.23 9.06-5.22 9.05 5.22-9.05 5.23zM447.42 578.11l-9.06-5.23 9.05-5.23 9.06 5.23-9.05 5.23zM465.52 588.56l-9.05-5.23 9.05-5.22 9.06 5.22-9.06 5.23z"/><path class="cls-5" d="m483.63 599.02-9.05-5.23 9.05-5.23 9.06 5.23-9.06 5.23z"/><path class="cls-8" d="m501.74 609.47-9.05-5.23 9.05-5.22 9.06 5.22-9.06 5.23zM519.85 619.93l-9.05-5.23 9.05-5.23 9.05 5.23-9.05 5.23zM359.87 357.87l-9.05-5.23 9.05-5.22 9.05 5.22-9.05 5.23z"/><path class="cls-4" d="m377.98 368.33-9.05-5.23 9.05-5.23 9.05 5.23-9.05 5.23z"/><path class="cls-5" d="m396.09 378.78-9.06-5.23 9.06-5.22 9.05 5.22-9.05 5.23z"/><path class="cls-8" d="m414.2 389.24-9.06-5.23 9.06-5.23 9.05 5.23-9.05 5.23z"/><path class="cls-5" d="m432.31 399.69-9.06-5.23 9.06-5.22 9.05 5.22-9.05 5.23z"/><path class="cls-8" d="m450.41 410.15-9.05-5.23 9.05-5.23 9.06 5.23-9.06 5.23zM468.52 420.6l-9.05-5.23 9.05-5.22 9.06 5.22-9.06 5.23zM486.63 431.06l-9.05-5.23 9.05-5.23 9.06 5.23-9.06 5.23z"/><path class="cls-4" d="m504.74 441.51-9.05-5.23 9.05-5.22 9.05 5.22-9.05 5.23z"/><path class="cls-8" d="m341.69 368.37-9.06-5.23 9.06-5.23 9.05 5.23-9.05 5.23zM359.8 378.82l-9.06-5.22 9.06-5.23 9.05 5.23-9.05 5.22zM377.91 389.28l-9.06-5.23 9.06-5.23 9.05 5.23-9.05 5.23zM396.01 399.73l-9.05-5.22 9.05-5.23 9.06 5.23-9.06 5.22zM414.12 410.19l-9.05-5.23 9.05-5.23 9.06 5.23-9.06 5.23zM432.23 420.64l-9.05-5.22 9.05-5.23 9.06 5.23-9.06 5.22zM450.34 431.1l-9.05-5.23 9.05-5.23 9.06 5.23-9.06 5.23zM468.45 441.55l-9.05-5.22 9.05-5.23 9.05 5.23-9.05 5.22zM486.56 452.01l-9.06-5.23 9.06-5.23 9.05 5.23-9.05 5.23zM323.51 378.87l-9.06-5.23 9.06-5.23 9.05 5.23-9.05 5.23zM341.62 389.32l-9.06-5.23 9.06-5.22 9.05 5.22-9.05 5.23zM359.72 399.78l-9.05-5.23 9.05-5.23 9.06 5.23-9.06 5.23z"/><path class="cls-4" d="m377.83 410.23-9.05-5.23 9.05-5.22 9.06 5.22-9.06 5.23z"/><path class="cls-5" d="m395.94 420.69-9.05-5.23 9.05-5.23 9.06 5.23-9.06 5.23zM414.05 431.14l-9.05-5.23 9.05-5.22 9.05 5.22-9.05 5.23z"/><path class="cls-8" d="m432.16 441.6-9.06-5.23 9.06-5.23 9.05 5.23-9.05 5.23zM450.27 452.05l-9.06-5.23 9.06-5.22 9.05 5.22-9.05 5.23zM468.38 462.51l-9.06-5.23 9.06-5.23 9.05 5.23-9.05 5.23z"/><path class="cls-5" d="m305.32 389.36-9.05-5.22 9.05-5.23 9.06 5.23-9.06 5.22zM323.43 399.82l-9.05-5.23 9.05-5.23 9.06 5.23-9.06 5.23z"/><path class="cls-4" d="m341.54 410.27-9.05-5.22 9.05-5.23 9.06 5.23-9.06 5.22z"/><path class="cls-8" d="m359.65 420.73-9.05-5.23 9.05-5.23 9.05 5.23-9.05 5.23zM377.76 431.18l-9.05-5.22 9.05-5.23 9.05 5.23-9.05 5.22zM395.87 441.64l-9.06-5.23 9.06-5.23 9.05 5.23-9.05 5.23z"/><path class="cls-5" d="m413.98 452.09-9.06-5.22 9.06-5.23 9.05 5.23-9.05 5.22z"/><path class="cls-8" d="m432.09 462.55-9.06-5.23 9.06-5.23 9.05 5.23-9.05 5.23zM450.19 473l-9.05-5.22 9.05-5.23 9.06 5.23-9.06 5.22zM287.14 399.86l-9.05-5.23 9.05-5.22 9.06 5.22-9.06 5.23zM305.25 410.32l-9.05-5.23 9.05-5.23 9.06 5.23-9.06 5.23zM323.36 420.77l-9.05-5.23 9.05-5.22 9.05 5.22-9.05 5.23zM341.47 431.23l-9.06-5.23 9.06-5.23 9.05 5.23-9.05 5.23zM359.58 441.68l-9.06-5.23 9.06-5.22 9.05 5.22-9.05 5.23zM377.69 452.14l-9.06-5.23 9.06-5.23 9.05 5.23-9.05 5.23zM395.8 462.59l-9.06-5.23 9.05-5.22 9.06 5.22-9.05 5.23zM413.9 473.05l-9.05-5.23 9.05-5.23 9.06 5.23-9.06 5.23zM432.01 483.5l-9.05-5.23 9.05-5.22 9.06 5.22-9.06 5.23zM268.96 410.36l-9.05-5.23 9.05-5.23 9.05 5.23-9.05 5.23zM287.07 420.81l-9.06-5.22 9.06-5.23 9.05 5.23-9.05 5.22z"/><path class="cls-5" d="m305.18 431.27-9.06-5.23 9.06-5.23 9.05 5.23-9.05 5.23z"/><path class="cls-8" d="m323.29 441.72-9.06-5.22 9.06-5.23 9.05 5.23-9.05 5.22z"/><path class="cls-4" d="m341.4 452.18-9.06-5.23 9.06-5.23 9.05 5.23-9.05 5.23z"/><path class="cls-8" d="m359.5 462.63-9.05-5.22 9.05-5.23 9.06 5.23-9.06 5.22zM377.61 473.09l-9.05-5.23 9.05-5.23 9.06 5.23-9.06 5.23zM395.72 483.54l-9.05-5.22 9.05-5.23 9.06 5.23-9.06 5.22zM413.83 494l-9.05-5.23 9.05-5.23 9.05 5.23-9.05 5.23zM250.78 420.86l-9.06-5.23 9.06-5.23 9.05 5.23-9.05 5.23zM268.89 431.31l-9.06-5.23 9.06-5.22 9.05 5.22-9.05 5.23z"/><path class="cls-5" d="m287 441.77-9.06-5.23 9.06-5.23 9.05 5.23-9.05 5.23z"/><path class="cls-8" d="m305.1 452.22-9.05-5.23 9.05-5.22 9.06 5.22-9.06 5.23zM323.21 462.68l-9.05-5.23 9.05-5.23 9.06 5.23-9.06 5.23z"/><path class="cls-4" d="m341.32 473.13-9.05-5.23 9.05-5.22 9.06 5.22-9.06 5.23z"/><path class="cls-5" d="m359.43 483.59-9.05-5.23 9.05-5.23 9.05 5.23-9.05 5.23z"/><path class="cls-8" d="m377.54 494.04-9.05-5.23 9.05-5.22 9.05 5.22-9.05 5.23z"/><path class="cls-4" d="m395.65 504.5-9.06-5.23 9.06-5.23 9.05 5.23-9.05 5.23z"/><path class="cls-8" d="m232.6 431.35-9.06-5.22 9.06-5.23 9.05 5.23-9.05 5.22z"/><path class="cls-5" d="m250.71 441.81-9.06-5.23 9.05-5.23 9.06 5.23-9.05 5.23z"/><path class="cls-8" d="m268.81 452.26-9.05-5.22 9.05-5.23 9.06 5.23-9.06 5.22zM286.92 462.72l-9.05-5.23 9.05-5.23 9.06 5.23-9.06 5.23zM305.03 473.17l-9.05-5.22 9.05-5.23 9.06 5.23-9.06 5.22zM323.14 483.63l-9.05-5.23 9.05-5.23 9.05 5.23-9.05 5.23zM341.25 494.08l-9.06-5.22 9.06-5.23 9.05 5.23-9.05 5.22z"/><path class="cls-5" d="m359.36 504.54-9.06-5.23 9.06-5.23 9.05 5.23-9.05 5.23z"/><path class="cls-8" d="m377.47 514.99-9.06-5.22 9.06-5.23 9.05 5.23-9.05 5.22zM214.41 441.85l-9.05-5.23 9.05-5.22 9.06 5.22-9.06 5.23z"/><path class="cls-4" d="m232.52 452.31-9.05-5.23 9.05-5.23 9.06 5.23-9.06 5.23z"/><path class="cls-8" d="m250.63 462.76-9.05-5.23 9.05-5.22 9.06 5.22-9.06 5.23zM268.74 473.22l-9.05-5.23 9.05-5.23 9.05 5.23-9.05 5.23zM286.85 483.67l-9.06-5.23 9.06-5.22 9.05 5.22-9.05 5.23zM304.96 494.13l-9.06-5.23 9.06-5.23 9.05 5.23-9.05 5.23z"/><path class="cls-5" d="m323.07 504.58-9.06-5.23 9.06-5.22 9.05 5.22-9.05 5.23z"/><path class="cls-8" d="m341.18 515.04-9.06-5.23 9.06-5.23 9.05 5.23-9.05 5.23zM359.28 525.49l-9.05-5.23 9.05-5.22 9.06 5.22-9.06 5.23zM359.87 546.4l-9.05-5.23 9.05-5.22 9.05 5.22-9.05 5.23z"/><path class="cls-4" d="m377.98 556.86-9.05-5.23 9.05-5.23 9.05 5.23-9.05 5.23z"/><path class="cls-5" d="m396.09 567.31-9.06-5.23 9.06-5.22 9.05 5.22-9.05 5.23z"/><path class="cls-8" d="m414.2 577.77-9.06-5.23 9.06-5.23 9.05 5.23-9.05 5.23z"/><path class="cls-5" d="m432.31 588.22-9.06-5.23 9.06-5.22 9.05 5.22-9.05 5.23z"/><path class="cls-8" d="m450.41 598.68-9.05-5.23 9.05-5.23 9.06 5.23-9.06 5.23zM468.52 609.13l-9.05-5.23 9.05-5.22 9.06 5.22-9.06 5.23zM486.63 619.59l-9.05-5.23 9.05-5.23 9.06 5.23-9.06 5.23z"/><path class="cls-4" d="m504.74 630.04-9.05-5.23 9.05-5.22 9.05 5.22-9.05 5.23z"/><path class="cls-8" d="m341.69 556.9-9.06-5.23 9.06-5.23 9.05 5.23-9.05 5.23zM359.8 567.35l-9.06-5.22 9.06-5.23 9.05 5.23-9.05 5.22zM377.91 577.81l-9.06-5.23 9.06-5.23 9.05 5.23-9.05 5.23zM396.01 588.26l-9.05-5.22 9.05-5.23 9.06 5.23-9.06 5.22zM414.12 598.72l-9.05-5.23 9.05-5.23 9.06 5.23-9.06 5.23zM432.23 609.17l-9.05-5.22 9.05-5.23 9.06 5.23-9.06 5.22zM450.34 619.63l-9.05-5.23 9.05-5.23 9.06 5.23-9.06 5.23zM468.45 630.08l-9.05-5.22 9.05-5.23 9.05 5.23-9.05 5.22zM486.56 640.54l-9.06-5.23 9.06-5.23 9.05 5.23-9.05 5.23zM323.51 567.4l-9.06-5.23 9.06-5.23 9.05 5.23-9.05 5.23zM341.62 577.85l-9.06-5.23 9.06-5.22 9.05 5.22-9.05 5.23zM359.72 588.31l-9.05-5.23 9.05-5.23 9.06 5.23-9.06 5.23z"/><path class="cls-4" d="m377.83 598.76-9.05-5.23 9.05-5.22 9.06 5.22-9.06 5.23z"/><path class="cls-5" d="m395.94 609.22-9.05-5.23 9.05-5.23 9.06 5.23-9.06 5.23zM414.05 619.67l-9.05-5.23 9.05-5.22 9.05 5.22-9.05 5.23z"/><path class="cls-8" d="m432.16 630.13-9.06-5.23 9.06-5.23 9.05 5.23-9.05 5.23zM450.27 640.58l-9.06-5.23 9.06-5.22 9.05 5.22-9.05 5.23zM468.38 651.04l-9.06-5.23 9.06-5.23 9.05 5.23-9.05 5.23z"/><path class="cls-5" d="m305.32 577.89-9.05-5.22 9.05-5.23 9.06 5.23-9.06 5.22zM323.43 588.35l-9.05-5.23 9.05-5.23 9.06 5.23-9.06 5.23z"/><path class="cls-4" d="m341.54 598.8-9.05-5.22 9.05-5.23 9.06 5.23-9.06 5.22z"/><path class="cls-8" d="m359.65 609.26-9.05-5.23 9.05-5.23 9.05 5.23-9.05 5.23zM377.76 619.71l-9.05-5.22 9.05-5.23 9.05 5.23-9.05 5.22zM395.87 630.17l-9.06-5.23 9.06-5.23 9.05 5.23-9.05 5.23z"/><path class="cls-5" d="m413.98 640.62-9.06-5.22 9.06-5.23 9.05 5.23-9.05 5.22z"/><path class="cls-8" d="m432.09 651.08-9.06-5.23 9.06-5.23 9.05 5.23-9.05 5.23zM450.19 661.53l-9.05-5.22 9.05-5.23 9.06 5.23-9.06 5.22zM287.14 588.39l-9.05-5.23 9.05-5.22 9.06 5.22-9.06 5.23zM305.25 598.85l-9.05-5.23 9.05-5.23 9.06 5.23-9.06 5.23zM323.36 609.3l-9.05-5.23 9.05-5.22 9.05 5.22-9.05 5.23zM341.47 619.76l-9.06-5.23 9.06-5.23 9.05 5.23-9.05 5.23zM359.58 630.21l-9.06-5.23 9.06-5.22 9.05 5.22-9.05 5.23zM377.69 640.67l-9.06-5.23 9.06-5.23 9.05 5.23-9.05 5.23zM395.8 651.12l-9.06-5.23 9.05-5.22 9.06 5.22-9.05 5.23zM413.9 661.58l-9.05-5.23 9.05-5.23 9.06 5.23-9.06 5.23zM432.01 672.03l-9.05-5.23 9.05-5.22 9.06 5.22-9.06 5.23zM268.96 598.89l-9.05-5.23 9.05-5.23 9.05 5.23-9.05 5.23zM287.07 609.34l-9.06-5.22 9.06-5.23 9.05 5.23-9.05 5.22z"/><path class="cls-5" d="m305.18 619.8-9.06-5.23 9.06-5.23 9.05 5.23-9.05 5.23z"/><path class="cls-8" d="m323.29 630.25-9.06-5.22 9.06-5.23 9.05 5.23-9.05 5.22z"/><path class="cls-4" d="m341.4 640.71-9.06-5.23 9.06-5.23 9.05 5.23-9.05 5.23z"/><path class="cls-8" d="m359.5 651.16-9.05-5.22 9.05-5.23 9.06 5.23-9.06 5.22zM377.61 661.62l-9.05-5.23 9.05-5.23 9.06 5.23-9.06 5.23zM395.72 672.07l-9.05-5.22 9.05-5.23 9.06 5.23-9.06 5.22zM413.83 682.53l-9.05-5.23 9.05-5.23 9.05 5.23-9.05 5.23zM250.78 609.39l-9.06-5.23 9.06-5.23 9.05 5.23-9.05 5.23zM268.89 619.84l-9.06-5.23 9.06-5.22 9.05 5.22-9.05 5.23z"/><path class="cls-5" d="m287 630.3-9.06-5.23 9.06-5.23 9.05 5.23-9.05 5.23z"/><path class="cls-8" d="m305.1 640.75-9.05-5.23 9.05-5.22 9.06 5.22-9.06 5.23zM323.21 651.21l-9.05-5.23 9.05-5.23 9.06 5.23-9.06 5.23z"/><path class="cls-4" d="m341.32 661.66-9.05-5.23 9.05-5.22 9.06 5.22-9.06 5.23z"/><path class="cls-5" d="m359.43 672.12-9.05-5.23 9.05-5.23 9.05 5.23-9.05 5.23z"/><path class="cls-8" d="m377.54 682.57-9.05-5.23 9.05-5.22 9.05 5.22-9.05 5.23z"/><path class="cls-4" d="m395.65 693.03-9.06-5.23 9.06-5.23 9.05 5.23-9.05 5.23z"/><path class="cls-8" d="m232.6 619.88-9.06-5.22 9.06-5.23 9.05 5.23-9.05 5.22z"/><path class="cls-5" d="m250.71 630.34-9.06-5.23 9.05-5.23 9.06 5.23-9.05 5.23z"/><path class="cls-8" d="m268.81 640.79-9.05-5.22 9.05-5.23 9.06 5.23-9.06 5.22zM286.92 651.25l-9.05-5.23 9.05-5.23 9.06 5.23-9.06 5.23zM305.03 661.7l-9.05-5.22 9.05-5.23 9.06 5.23-9.06 5.22zM323.14 672.16l-9.05-5.23 9.05-5.23 9.05 5.23-9.05 5.23zM341.25 682.61l-9.06-5.22 9.06-5.23 9.05 5.23-9.05 5.22z"/><path class="cls-5" d="m359.36 693.07-9.06-5.23 9.06-5.23 9.05 5.23-9.05 5.23z"/><path class="cls-8" d="m377.47 703.52-9.06-5.22 9.06-5.23 9.05 5.23-9.05 5.22zM214.41 630.38l-9.05-5.23 9.05-5.22 9.06 5.22-9.06 5.23z"/><path class="cls-4" d="m232.52 640.84-9.05-5.23 9.05-5.23 9.06 5.23-9.06 5.23z"/><path class="cls-8" d="m250.63 651.29-9.05-5.23 9.05-5.22 9.06 5.22-9.06 5.23zM268.74 661.75l-9.05-5.23 9.05-5.23 9.05 5.23-9.05 5.23zM286.85 672.2l-9.06-5.23 9.06-5.22 9.05 5.22-9.05 5.23zM304.96 682.66l-9.06-5.23 9.06-5.23 9.05 5.23-9.05 5.23z"/><path class="cls-5" d="m323.07 693.11-9.06-5.23 9.06-5.22 9.05 5.22-9.05 5.23z"/><path class="cls-8" d="m341.18 703.57-9.06-5.23 9.06-5.23 9.05 5.23-9.05 5.23zM359.28 714.02l-9.05-5.23 9.05-5.22 9.06 5.22-9.06 5.23z"/></g><path class="cls-13" d="m359.18 282-123.16-71.11 123.16-71.11 123.16 71.11L359.18 282z"/><path style="fill:#453c9e;opacity:.7" d="m359.18 271.84-105.56-60.95 105.56-60.95 105.57 60.95-105.57 60.95z"/><path class="cls-12" d="m359.18 554.95-123.16-71.11 123.16-71.11 123.16 71.11-123.16 71.11z"/><path style="fill:url(#_Áåçûìÿííûé_ãðàäèåíò_10)" d="M482.34 210.89v272.95l-123.16 71.11V282l123.16-71.11z"/><path style="fill:#24126a" d="M236.02 210.89v272.95l123.16 71.11V282l-123.16-71.11z"/><g class="cls-49"><path class="cls-57" d="M244.36 229v245.34l106.48 61.47V290.47L244.36 229z"/></g><path class="cls-57" d="M463.87 276.84v7.21l-86.21 49.78v-7.22l86.21-49.77zM463.87 307.34v7.22l-86.21 49.77v-7.21l86.21-49.78zM463.87 337.85v7.21l-86.21 49.78v-7.22l86.21-49.77zM463.87 368.35v7.22l-86.21 49.77v-7.21l86.21-49.78zM463.87 398.86v7.21l-86.21 49.78v-7.22l86.21-49.77zM463.87 429.36v7.22l-86.21 49.77v-7.21l86.21-49.78z"/><path class="cls-12" d="m359.18 279.69-121.16-69.96-2 1.16L359.18 282l123.16-71.11-2-1.15-121.16 69.95z"/><g class="cls-49"><path class="cls-57" d="m236.02 440.7 123.16-74.36V282l-123.16-71.11V440.7z"/></g><path d="M354.3 294.27c0-3.13-2.19-6.92-4.9-8.49-1.36-.79-2.59-.86-3.48-.33s-3.47 2.03-3.47 2.03l2.15.07c-.06.32-.1.68-.1 1.06 0 3.13 2.19 6.92 4.9 8.49.36.21.71.36 1.05.47l-1 1.87 3.4-1.99c.9-.51 1.45-1.61 1.45-3.18Z" style="fill:url(#_Áåçûìÿííûé_ãðàäèåíò_10-2)"/><path d="M350.81 296.32c0 3.12-2.19 4.39-4.9 2.83s-4.9-5.36-4.9-8.49 2.19-4.39 4.9-2.83 4.9 5.36 4.9 8.49Z" style="fill:url(#_Áåçûìÿííûé_ãðàäèåíò_9)"/><path class="cls-68" d="M348.73 295.11c0 1.8-1.26 2.53-2.82 1.63s-2.82-3.08-2.82-4.88 1.26-2.53 2.82-1.63c1.56.9 2.82 3.09 2.82 4.88Z"/><path d="M251.01 230.81c0-3.13-2.19-6.92-4.9-8.49-1.36-.79-2.59-.86-3.48-.33s-3.47 2.03-3.47 2.03l2.15.07c-.06.32-.1.68-.1 1.06 0 3.12 2.19 6.92 4.9 8.49.36.21.71.36 1.05.47l-1 1.87 3.4-1.99c.9-.51 1.45-1.61 1.45-3.18Z" style="fill:url(#_Áåçûìÿííûé_ãðàäèåíò_10-3)"/><path d="M247.52 232.85c0 3.12-2.19 4.39-4.9 2.83-2.71-1.56-4.9-5.36-4.9-8.49s2.19-4.39 4.9-2.83c2.71 1.56 4.9 5.36 4.9 8.49Z" style="fill:url(#_Áåçûìÿííûé_ãðàäèåíò_9-2)"/><path class="cls-68" d="M245.44 231.65c0 1.8-1.26 2.53-2.82 1.63-1.56-.9-2.82-3.09-2.82-4.88s1.26-2.53 2.82-1.63c1.56.9 2.82 3.09 2.82 4.88Z"/><path d="M354.3 538.72c0-3.13-2.19-6.92-4.9-8.49-1.36-.79-2.59-.86-3.48-.33s-3.47 2.03-3.47 2.03l2.15.07c-.06.32-.1.68-.1 1.06 0 3.12 2.19 6.92 4.9 8.49.36.21.71.36 1.05.47l-1 1.87 3.4-1.99c.9-.51 1.45-1.61 1.45-3.18Z" style="fill:url(#_Áåçûìÿííûé_ãðàäèåíò_10-4)"/><path d="M350.81 540.76c0 3.12-2.19 4.39-4.9 2.83s-4.9-5.36-4.9-8.49 2.19-4.39 4.9-2.83c2.71 1.56 4.9 5.36 4.9 8.49Z" style="fill:url(#_Áåçûìÿííûé_ãðàäèåíò_9-3)"/><path class="cls-68" d="M348.73 539.56c0 1.8-1.26 2.53-2.82 1.63-1.56-.9-2.82-3.09-2.82-4.88s1.26-2.53 2.82-1.63 2.82 3.09 2.82 4.88Z"/><path d="M251.01 475.25c0-3.13-2.19-6.92-4.9-8.49-1.36-.79-2.59-.86-3.48-.33s-3.47 2.03-3.47 2.03l2.15.07c-.06.32-.1.68-.1 1.06 0 3.12 2.19 6.92 4.9 8.49.36.21.71.36 1.05.47l-1 1.87 3.4-1.99c.9-.51 1.45-1.61 1.45-3.18Z" style="fill:url(#_Áåçûìÿííûé_ãðàäèåíò_10-5)"/><path d="M247.52 477.3c0 3.13-2.19 4.39-4.9 2.83-2.71-1.56-4.9-5.36-4.9-8.49s2.19-4.39 4.9-2.83c2.71 1.56 4.9 5.36 4.9 8.49Z" style="fill:url(#_Áåçûìÿííûé_ãðàäèåíò_9-4)"/><path class="cls-68" d="M245.44 476.09c0 1.8-1.26 2.53-2.82 1.63-1.56-.9-2.82-3.09-2.82-4.88s1.26-2.53 2.82-1.63c1.56.9 2.82 3.09 2.82 4.88Z"/><path style="fill:url(#_Áåçûìÿííûé_ãðàäèåíò_6)" d="M482.34 175.21v14.23l-123.16 71.11-123.16-71.11v-14.23h246.32z"/><path class="cls-13" d="m359.18 246.32-123.16-71.11 123.16-71.11 123.16 71.11-123.16 71.11z"/><path class="cls-12" d="m359.18 244.65-121.72-70.27-1.44.83 123.16 71.11 123.16-71.11-1.44-.83-121.72 70.27z"/><path style="fill:#0f054c" d="m359.18 229.91-94.73-54.69 94.73-54.69 94.73 54.69-94.73 54.69z"/><path style="fill:url(#_Áåçûìÿííûé_ãðàäèåíò_4);opacity:.5" d="m359.18 229.92-94.73-54.7 94.73-54.69 94.73 54.7-94.73 54.69z"/><path style="fill:url(#_Áåçûìÿííûé_ãðàäèåíò_4-2);opacity:.5" d="m359.18 106.74 94.73 54.69v13.79l-94.73-54.69v-13.79z"/><path style="fill:url(#_Áåçûìÿííûé_ãðàäèåíò_4-3);opacity:.5" d="m359.18 120.53-94.73 54.69v-13.79l94.73-54.69v13.79z"/><path style="opacity:.5;fill:url(#_Áåçûìÿííûé_ãðàäèåíò_4-4)" d="m359.18 216.12-94.73-54.69 94.73-54.69 94.73 54.69-94.73 54.69z"/><path class="cls-9" d="m359.18 183.29-37.85-21.86 37.85-21.85 37.85 21.85-37.85 21.86z"/><path class="cls-9" d="m359.18 141.59 36.11 20.85 1.74-1.01-37.85-21.85-37.85 21.85 1.74 1.01 36.11-20.85z"/><path style="fill:url(#_Áåçûìÿííûé_ãðàäèåíò_4-5);opacity:.5" d="M359.18 216.12v13.8l94.73-54.7v-13.79l-94.73 54.69z"/><path style="fill:url(#_Áåçûìÿííûé_ãðàäèåíò_4-6);opacity:.5" d="M264.45 161.43v13.79l94.73 54.7v-13.8l-94.73-54.69z"/><path style="opacity:.8;fill:#42e8e0" d="m359.18 214.62-93.42-53.94-1.31.75 94.73 54.69 94.73-54.69-1.3-.75-93.43 53.94z"/><path class="cls-8" d="m318.06 441.34.01-3.28 2.84 1.65-.01 3.28-2.84-1.65z"/><path class="cls-4" d="m318.05 447.9.01-3.28 2.83 1.65v3.28l-2.84-1.65z"/><path class="cls-5" d="m318.03 454.46.01-3.28 2.84 1.65-.01 3.28-2.84-1.65z"/><path class="cls-8" d="m318.02 461.02.01-3.28 2.83 1.65v3.28l-2.84-1.65z"/><path class="cls-5" d="M318.01 467.58v-3.28l2.84 1.65-.01 3.28-2.83-1.65z"/><path class="cls-8" d="m317.99 474.14.01-3.28 2.83 1.65v3.28l-2.84-1.65zM317.98 480.7v-3.28l2.84 1.65-.01 3.28-2.83-1.65zM317.96 487.26l.01-3.28 2.84 1.64-.01 3.28-2.84-1.64z"/><path class="cls-4" d="m317.95 493.82.01-3.28 2.83 1.64-.01 3.28-2.83-1.64z"/><path class="cls-8" d="M312.37 438.04v-3.28l2.84 1.64-.01 3.28-2.83-1.64zM312.35 444.6l.01-3.28 2.84 1.64-.01 3.28-2.84-1.64zM312.34 451.16l.01-3.28 2.83 1.64-.01 3.28-2.83-1.64zM312.32 457.72l.01-3.28 2.84 1.64-.01 3.28-2.84-1.64zM312.31 464.28l.01-3.28 2.83 1.64v3.28l-2.84-1.64zM312.3 470.83v-3.28l2.84 1.65-.01 3.28-2.83-1.65zM312.28 477.39l.01-3.28 2.83 1.65v3.28l-2.84-1.65zM312.27 483.95v-3.28l2.84 1.65-.01 3.28-2.83-1.65zM312.25 490.51l.01-3.28 2.84 1.65-.01 3.28-2.84-1.65zM306.67 434.73l.01-3.28 2.83 1.65v3.28l-2.84-1.65zM306.66 441.29v-3.28l2.84 1.65-.01 3.28-2.83-1.65zM306.64 447.85l.01-3.28 2.84 1.65-.01 3.28-2.84-1.65z"/><path class="cls-4" d="M306.63 454.41v-3.28l2.84 1.65-.01 3.28-2.83-1.65z"/><path class="cls-5" d="m306.61 460.97.01-3.28 2.84 1.65-.01 3.28-2.84-1.65zM306.6 467.53l.01-3.28 2.83 1.65v3.28l-2.84-1.65z"/><path class="cls-8" d="m306.58 474.09.01-3.28 2.84 1.64-.01 3.28-2.84-1.64zM306.57 480.65l.01-3.28 2.83 1.64v3.28l-2.84-1.64zM306.56 487.21v-3.28l2.84 1.64-.01 3.28-2.83-1.64z"/><path class="cls-5" d="m300.97 431.43.01-3.28 2.84 1.64-.01 3.28-2.84-1.64zM300.96 437.99l.01-3.28 2.83 1.64v3.28l-2.84-1.64z"/><path class="cls-4" d="M300.95 444.55v-3.28l2.84 1.64-.01 3.28-2.83-1.64z"/><path class="cls-8" d="m300.93 451.11.01-3.28 2.83 1.64v3.28l-2.84-1.64zM300.92 457.66v-3.27l2.84 1.64-.01 3.28-2.83-1.65zM300.9 464.22l.01-3.28 2.84 1.65-.01 3.28-2.84-1.65z"/><path class="cls-5" d="m300.89 470.78.01-3.28 2.83 1.65-.01 3.28-2.83-1.65z"/><path class="cls-8" d="m300.87 477.34.01-3.28 2.84 1.65-.01 3.28-2.84-1.65zM300.86 483.9l.01-3.28 2.83 1.65v3.28l-2.84-1.65zM295.28 428.12v-3.28l2.84 1.65-.01 3.28-2.83-1.65zM295.26 434.68l.01-3.28 2.84 1.65-.01 3.28-2.84-1.65zM295.25 441.24l.01-3.28 2.83 1.65v3.28l-2.84-1.65zM295.23 447.8l.01-3.28 2.84 1.65-.01 3.28-2.84-1.65zM295.22 454.36l.01-3.28 2.83 1.65v3.28l-2.84-1.65zM295.21 460.92v-3.28l2.84 1.64-.01 3.28-2.83-1.64zM295.19 467.48l.01-3.28 2.84 1.64-.01 3.28-2.84-1.64zM295.18 474.04v-3.28l2.84 1.64-.01 3.28-2.83-1.64zM295.16 480.6l.01-3.28 2.84 1.64-.01 3.28-2.84-1.64zM289.58 424.82l.01-3.28 2.84 1.64-.01 3.28-2.84-1.64zM289.57 431.38v-3.28l2.84 1.64-.01 3.28-2.83-1.64z"/><path class="cls-5" d="m289.55 437.94.01-3.28 2.84 1.64-.01 3.28-2.84-1.64z"/><path class="cls-8" d="m289.54 444.49.01-3.28 2.83 1.65v3.28l-2.84-1.65z"/><path class="cls-4" d="m289.52 451.05.01-3.28 2.84 1.65-.01 3.28-2.84-1.65z"/><path class="cls-8" d="m289.51 457.61.01-3.28 2.83 1.65v3.28l-2.84-1.65zM289.5 464.17v-3.28l2.84 1.65-.01 3.28-2.83-1.65zM289.48 470.73l.01-3.28 2.83 1.65v3.28l-2.84-1.65zM289.47 477.29v-3.28l2.84 1.65-.01 3.28-2.83-1.65zM283.89 421.51v-3.28l2.84 1.65-.01 3.28-2.83-1.65zM283.87 428.07l.01-3.28 2.83 1.65v3.28l-2.84-1.65z"/><path class="cls-5" d="M283.86 434.63v-3.28l2.84 1.65-.01 3.28-2.83-1.65z"/><path class="cls-8" d="m283.84 441.19.01-3.28 2.84 1.65-.01 3.28-2.84-1.65zM283.83 447.75v-3.28l2.84 1.64-.01 3.28-2.83-1.64z"/><path class="cls-4" d="m283.81 454.31.01-3.28 2.84 1.64-.01 3.28-2.84-1.64z"/><path class="cls-5" d="m283.8 460.87.01-3.28 2.83 1.64v3.28l-2.84-1.64z"/><path class="cls-8" d="m283.78 467.43.01-3.28 2.84 1.64-.01 3.28-2.84-1.64z"/><path class="cls-4" d="m283.77 473.99.01-3.28 2.83 1.64v3.28l-2.84-1.64z"/><path class="cls-8" d="m278.19 418.21.01-3.28 2.83 1.64v3.28l-2.84-1.64z"/><path class="cls-5" d="m278.17 424.77.01-3.28 2.84 1.64-.01 3.28-2.84-1.64z"/><path class="cls-8" d="m278.16 431.32.01-3.28 2.83 1.65v3.28l-2.84-1.65zM278.15 437.88v-3.28l2.84 1.65-.01 3.28-2.83-1.65zM278.13 444.44l.01-3.28 2.84 1.65-.01 3.28-2.84-1.65zM278.12 451v-3.28l2.84 1.65-.01 3.28-2.83-1.65zM278.1 457.56l.01-3.28 2.84 1.65-.01 3.28-2.84-1.65z"/><path class="cls-5" d="m278.09 464.12.01-3.28 2.83 1.65v3.28l-2.84-1.65z"/><path class="cls-8" d="m278.07 470.68.01-3.28 2.84 1.65-.01 3.28-2.84-1.65zM272.49 414.9l.01-3.28 2.84 1.65-.01 3.28-2.84-1.65z"/><path class="cls-4" d="m272.48 421.46.01-3.28 2.83 1.65-.01 3.28-2.83-1.65z"/><path class="cls-8" d="m272.46 428.02.01-3.28 2.84 1.65-.01 3.28-2.84-1.65zM272.45 434.58l.01-3.28 2.83 1.64v3.28l-2.84-1.64zM272.44 441.14v-3.28l2.84 1.64-.01 3.28-2.83-1.64zM272.42 447.7l.01-3.28 2.83 1.64v3.28l-2.84-1.64z"/><path class="cls-5" d="M272.41 454.26v-3.28l2.84 1.64-.01 3.28-2.83-1.64z"/><path class="cls-8" d="m272.39 460.82.01-3.28 2.84 1.64-.01 3.28-2.84-1.64zM272.38 467.37v-3.27l2.84 1.64-.01 3.28-2.83-1.65zM318.06 371.42l.01-3.28 2.84 1.64-.01 3.28-2.84-1.64z"/><path class="cls-4" d="m318.05 377.98.01-3.28 2.83 1.64v3.28l-2.84-1.64z"/><path class="cls-5" d="m318.03 384.54.01-3.28 2.84 1.64-.01 3.28-2.84-1.64z"/><path class="cls-8" d="m318.02 391.1.01-3.28 2.83 1.64v3.28l-2.84-1.64z"/><path class="cls-5" d="M318.01 397.65v-3.28l2.84 1.65-.01 3.28-2.83-1.65z"/><path class="cls-8" d="m317.99 404.21.01-3.28 2.83 1.65v3.28l-2.84-1.65zM317.98 410.77v-3.28l2.84 1.65-.01 3.28-2.83-1.65zM317.96 417.33l.01-3.28 2.84 1.65-.01 3.28-2.84-1.65z"/><path class="cls-4" d="m317.95 423.89.01-3.28 2.83 1.65-.01 3.28-2.83-1.65z"/><path class="cls-8" d="M312.37 368.11v-3.28l2.84 1.65-.01 3.28-2.83-1.65zM312.35 374.67l.01-3.28 2.84 1.65-.01 3.28-2.84-1.65zM312.34 381.23l.01-3.28 2.83 1.65-.01 3.28-2.83-1.65zM312.32 387.79l.01-3.28 2.84 1.65-.01 3.28-2.84-1.65zM312.31 394.35l.01-3.28 2.83 1.65V396l-2.84-1.65zM312.3 400.91v-3.28l2.84 1.64-.01 3.28-2.83-1.64zM312.28 407.47l.01-3.28 2.83 1.64v3.28l-2.84-1.64zM312.27 414.03v-3.28l2.84 1.64-.01 3.28-2.83-1.64zM312.25 420.59l.01-3.28 2.84 1.64-.01 3.28-2.84-1.64zM306.67 364.81l.01-3.28 2.83 1.64v3.28l-2.84-1.64zM306.66 371.37v-3.28l2.84 1.64-.01 3.28-2.83-1.64zM306.64 377.93l.01-3.28 2.84 1.64-.01 3.28-2.84-1.64z"/><path class="cls-4" d="M306.63 384.48v-3.28l2.84 1.65-.01 3.28-2.83-1.65z"/><path class="cls-5" d="m306.61 391.04.01-3.28 2.84 1.65-.01 3.28-2.84-1.65zM306.6 397.6l.01-3.28 2.83 1.65v3.28l-2.84-1.65z"/><path class="cls-8" d="m306.58 404.16.01-3.28 2.84 1.65-.01 3.28-2.84-1.65zM306.57 410.72l.01-3.28 2.83 1.65v3.28l-2.84-1.65zM306.56 417.28V414l2.84 1.65-.01 3.28-2.83-1.65z"/><path class="cls-5" d="m300.97 361.5.01-3.28 2.84 1.65-.01 3.28-2.84-1.65zM300.96 368.06l.01-3.28 2.83 1.65v3.28l-2.84-1.65z"/><path class="cls-4" d="M300.95 374.62v-3.28l2.84 1.65-.01 3.28-2.83-1.65z"/><path class="cls-8" d="m300.93 381.18.01-3.28 2.83 1.65v3.28l-2.84-1.65zM300.92 387.74v-3.28l2.84 1.64-.01 3.28-2.83-1.64zM300.9 394.3l.01-3.28 2.84 1.64-.01 3.28-2.84-1.64z"/><path class="cls-5" d="m300.89 400.86.01-3.28 2.83 1.64-.01 3.28-2.83-1.64z"/><path class="cls-8" d="m300.87 407.42.01-3.28 2.84 1.64-.01 3.28-2.84-1.64zM300.86 413.98l.01-3.28 2.83 1.64v3.28l-2.84-1.64zM295.28 358.2v-3.28l2.84 1.64-.01 3.28-2.83-1.64zM295.26 364.75l.01-3.27 2.84 1.64-.01 3.28-2.84-1.65zM295.25 371.31l.01-3.28 2.83 1.65v3.28l-2.84-1.65zM295.23 377.87l.01-3.28 2.84 1.65-.01 3.28-2.84-1.65zM295.22 384.43l.01-3.28 2.83 1.65v3.28l-2.84-1.65zM295.21 390.99v-3.28l2.84 1.65-.01 3.28-2.83-1.65zM295.19 397.55l.01-3.28 2.84 1.65-.01 3.28-2.84-1.65zM295.18 404.11v-3.28l2.84 1.65-.01 3.28-2.83-1.65zM295.16 410.67l.01-3.28 2.84 1.65-.01 3.28-2.84-1.65zM289.58 354.89l.01-3.28 2.84 1.65-.01 3.28-2.84-1.65zM289.57 361.45v-3.28l2.84 1.65-.01 3.28-2.83-1.65z"/><path class="cls-5" d="m289.55 368.01.01-3.28 2.84 1.65-.01 3.27-2.84-1.64z"/><path class="cls-8" d="m289.54 374.57.01-3.28 2.83 1.64v3.28l-2.84-1.64z"/><path class="cls-4" d="m289.52 381.13.01-3.28 2.84 1.64-.01 3.28-2.84-1.64z"/><path class="cls-8" d="m289.51 387.69.01-3.28 2.83 1.64v3.28l-2.84-1.64zM289.5 394.25v-3.28l2.84 1.64-.01 3.28-2.83-1.64zM289.48 400.81l.01-3.28 2.83 1.64v3.28l-2.84-1.64zM289.47 407.36v-3.27l2.84 1.64-.01 3.28-2.83-1.65zM283.89 351.59v-3.28l2.84 1.64-.01 3.28-2.83-1.64zM283.87 358.14l.01-3.28 2.83 1.65v3.28l-2.84-1.65z"/><path class="cls-5" d="M283.86 364.7v-3.28l2.84 1.65-.01 3.28-2.83-1.65z"/><path class="cls-8" d="m283.84 371.26.01-3.28 2.84 1.65-.01 3.28-2.84-1.65zM283.83 377.82v-3.28l2.84 1.65-.01 3.28-2.83-1.65z"/><path class="cls-4" d="m283.81 384.38.01-3.28 2.84 1.65-.01 3.28-2.84-1.65z"/><path class="cls-5" d="m283.8 390.94.01-3.28 2.83 1.65v3.28l-2.84-1.65z"/><path class="cls-8" d="m283.78 397.5.01-3.28 2.84 1.65-.01 3.28-2.84-1.65z"/><path class="cls-4" d="m283.77 404.06.01-3.28 2.83 1.65v3.28l-2.84-1.65z"/><path class="cls-8" d="m278.19 348.28.01-3.28 2.83 1.65v3.28l-2.84-1.65z"/><path class="cls-5" d="m278.17 354.84.01-3.28 2.84 1.65-.01 3.27-2.84-1.64z"/><path class="cls-8" d="m278.16 361.4.01-3.28 2.83 1.64v3.28l-2.84-1.64zM278.15 367.96v-3.28l2.84 1.64-.01 3.28-2.83-1.64zM278.13 374.52l.01-3.28 2.84 1.64-.01 3.28-2.84-1.64zM278.12 381.08v-3.28l2.84 1.64-.01 3.28-2.83-1.64zM278.1 387.64l.01-3.28 2.84 1.64-.01 3.28-2.84-1.64z"/><path class="cls-5" d="m278.09 394.19.01-3.28 2.83 1.65v3.28l-2.84-1.65z"/><path class="cls-8" d="m278.07 400.75.01-3.28 2.84 1.65-.01 3.28-2.84-1.65zM272.49 344.97l.01-3.28 2.84 1.65-.01 3.28-2.84-1.65z"/><path class="cls-4" d="m272.48 351.53.01-3.28 2.83 1.65-.01 3.28-2.83-1.65z"/><path class="cls-8" d="m272.46 358.09.01-3.28 2.84 1.65-.01 3.28-2.84-1.65zM272.45 364.65l.01-3.28 2.83 1.65v3.28l-2.84-1.65zM272.44 371.21v-3.28l2.84 1.65-.01 3.28-2.83-1.65zM272.42 377.77l.01-3.28 2.83 1.65v3.28l-2.84-1.65z"/><path class="cls-5" d="M272.41 384.33v-3.28l2.84 1.65-.01 3.28-2.83-1.65z"/><path class="cls-8" d="m272.39 390.89.01-3.28 2.84 1.65-.01 3.28-2.84-1.65zM272.38 397.45v-3.28l2.84 1.64-.01 3.28-2.83-1.64zM318.06 301.49l.01-3.28 2.84 1.65-.01 3.28-2.84-1.65z"/><path class="cls-4" d="m318.05 308.05.01-3.28 2.83 1.65v3.28l-2.84-1.65z"/><path class="cls-5" d="m318.03 314.61.01-3.28 2.84 1.65-.01 3.28-2.84-1.65z"/><path class="cls-8" d="m318.02 321.17.01-3.28 2.83 1.65v3.27l-2.84-1.64z"/><path class="cls-5" d="M318.01 327.73v-3.28l2.84 1.64-.01 3.28-2.83-1.64z"/><path class="cls-8" d="m317.99 334.29.01-3.28 2.83 1.64v3.28l-2.84-1.64zM317.98 340.85v-3.28l2.84 1.64-.01 3.28-2.83-1.64zM317.96 347.41l.01-3.28 2.84 1.64-.01 3.28-2.84-1.64z"/><path class="cls-4" d="m317.95 353.97.01-3.28 2.83 1.64-.01 3.28-2.83-1.64z"/><path class="cls-8" d="M312.37 298.19v-3.28l2.84 1.64-.01 3.28-2.83-1.64zM312.35 304.74l.01-3.27 2.84 1.64-.01 3.28-2.84-1.65zM312.34 311.3l.01-3.28 2.83 1.65-.01 3.28-2.83-1.65zM312.32 317.86l.01-3.28 2.84 1.65-.01 3.28-2.84-1.65zM312.31 324.42l.01-3.28 2.83 1.65v3.28l-2.84-1.65zM312.3 330.98v-3.28l2.84 1.65-.01 3.28-2.83-1.65zM312.28 337.54l.01-3.28 2.83 1.65v3.28l-2.84-1.65zM312.27 344.1v-3.28l2.84 1.65-.01 3.28-2.83-1.65zM312.25 350.66l.01-3.28 2.84 1.65-.01 3.28-2.84-1.65zM306.67 294.88l.01-3.28 2.83 1.65v3.28l-2.84-1.65zM306.66 301.44v-3.28l2.84 1.65-.01 3.28-2.83-1.65zM306.64 308l.01-3.28 2.84 1.65-.01 3.27-2.84-1.64z"/><path class="cls-4" d="M306.63 314.56v-3.28l2.84 1.64-.01 3.28-2.83-1.64z"/><path class="cls-5" d="m306.61 321.12.01-3.28 2.84 1.64-.01 3.28-2.84-1.64zM306.6 327.68l.01-3.28 2.83 1.64v3.28l-2.84-1.64z"/><path class="cls-8" d="m306.58 334.24.01-3.28 2.84 1.64-.01 3.28-2.84-1.64zM306.57 340.8l.01-3.28 2.83 1.64v3.28l-2.84-1.64zM306.56 347.35v-3.27l2.84 1.64-.01 3.28-2.83-1.65z"/><path class="cls-5" d="m300.97 291.57.01-3.27 2.84 1.64-.01 3.28-2.84-1.65zM300.96 298.13l.01-3.28 2.83 1.65v3.28l-2.84-1.65z"/><path class="cls-4" d="M300.95 304.69v-3.28l2.84 1.65-.01 3.28-2.83-1.65z"/><path class="cls-8" d="m300.93 311.25.01-3.28 2.83 1.65v3.28l-2.84-1.65zM300.92 317.81v-3.28l2.84 1.65-.01 3.28-2.83-1.65zM300.9 324.37l.01-3.28 2.84 1.65-.01 3.28-2.84-1.65z"/><path class="cls-5" d="m300.89 330.93.01-3.28 2.83 1.65-.01 3.28-2.83-1.65z"/><path class="cls-8" d="m300.87 337.49.01-3.28 2.84 1.65-.01 3.28-2.84-1.65zM300.86 344.05l.01-3.28 2.83 1.65v3.28l-2.84-1.65zM295.28 288.27v-3.28l2.84 1.65-.01 3.28-2.83-1.65zM295.26 294.83l.01-3.28 2.84 1.65-.01 3.27-2.84-1.64zM295.25 301.39l.01-3.28 2.83 1.64v3.28l-2.84-1.64zM295.23 307.95l.01-3.28 2.84 1.64-.01 3.28-2.84-1.64zM295.22 314.51l.01-3.28 2.83 1.64v3.28l-2.84-1.64zM295.21 321.07v-3.28l2.84 1.64-.01 3.28-2.83-1.64zM295.19 327.63l.01-3.28 2.84 1.64-.01 3.28-2.84-1.64zM295.18 334.18v-3.28l2.84 1.65-.01 3.28-2.83-1.65zM295.16 340.74l.01-3.28 2.84 1.65-.01 3.28-2.84-1.65zM289.58 284.96l.01-3.28 2.84 1.65-.01 3.28-2.84-1.65zM289.57 291.52v-3.28l2.84 1.65-.01 3.28-2.83-1.65z"/><path class="cls-5" d="m289.55 298.08.01-3.28 2.84 1.65-.01 3.28-2.84-1.65z"/><path class="cls-8" d="m289.54 304.64.01-3.28 2.83 1.65v3.28l-2.84-1.65z"/><path class="cls-4" d="m289.52 311.2.01-3.28 2.84 1.65-.01 3.28-2.84-1.65z"/><path class="cls-8" d="m289.51 317.76.01-3.28 2.83 1.65v3.28l-2.84-1.65zM289.5 324.32v-3.28l2.84 1.65-.01 3.28-2.83-1.65zM289.48 330.88l.01-3.28 2.83 1.65v3.28l-2.84-1.65zM289.47 337.44v-3.28l2.84 1.64-.01 3.28-2.83-1.64zM283.89 281.66v-3.28l2.84 1.65-.01 3.27-2.83-1.64zM283.87 288.22l.01-3.28 2.83 1.64v3.28l-2.84-1.64z"/><path class="cls-5" d="M283.86 294.78v-3.28l2.84 1.64-.01 3.28-2.83-1.64z"/><path class="cls-8" d="m283.84 301.34.01-3.28 2.84 1.64-.01 3.28-2.84-1.64zM283.83 307.9v-3.28l2.84 1.64-.01 3.28-2.83-1.64z"/><path class="cls-4" d="m283.81 314.46.01-3.28 2.84 1.64-.01 3.28-2.84-1.64z"/><path class="cls-5" d="m283.8 321.01.01-3.28 2.83 1.65v3.28l-2.84-1.65z"/><path class="cls-8" d="m283.78 327.57.01-3.28 2.84 1.65-.01 3.28-2.84-1.65z"/><path class="cls-4" d="m283.77 334.13.01-3.28 2.83 1.65v3.28l-2.84-1.65z"/><path class="cls-8" d="m278.19 278.35.01-3.28 2.83 1.65V280l-2.84-1.65z"/><path class="cls-5" d="m278.17 284.91.01-3.28 2.84 1.65-.01 3.28-2.84-1.65z"/><path class="cls-8" d="m278.16 291.47.01-3.28 2.83 1.65v3.28l-2.84-1.65zM278.15 298.03v-3.28l2.84 1.65-.01 3.28-2.83-1.65zM278.13 304.59l.01-3.28 2.84 1.65-.01 3.28-2.84-1.65zM278.12 311.15v-3.28l2.84 1.65-.01 3.28-2.83-1.65zM278.1 317.71l.01-3.28 2.84 1.65-.01 3.28-2.84-1.65z"/><path class="cls-5" d="m278.09 324.27.01-3.28 2.83 1.64v3.28l-2.84-1.64z"/><path class="cls-8" d="m278.07 330.83.01-3.28 2.84 1.64-.01 3.28-2.84-1.64zM272.49 275.05l.01-3.28 2.84 1.64-.01 3.28-2.84-1.64z"/><path class="cls-4" d="m272.48 281.61.01-3.28 2.83 1.64-.01 3.28-2.83-1.64z"/><path class="cls-8" d="m272.46 288.17.01-3.28 2.84 1.64-.01 3.28-2.84-1.64zM272.45 294.73l.01-3.28 2.83 1.64v3.28l-2.84-1.64zM272.44 301.29v-3.28l2.84 1.64-.01 3.28-2.83-1.64zM272.42 307.84l.01-3.28 2.83 1.65v3.28l-2.84-1.65z"/><path class="cls-5" d="M272.41 314.4v-3.28l2.84 1.65-.01 3.28-2.83-1.65z"/><path class="cls-8" d="m272.39 320.96.01-3.28 2.84 1.65-.01 3.28-2.84-1.65zM272.38 327.52v-3.28l2.84 1.65-.01 3.28-2.83-1.65z"/><path class="cls-7" d="M174.92 424.57v-16.21c3.25 1.74 6.57 3.44 9.96 5.09v16.21c-3.39-1.65-6.71-3.35-9.96-5.09ZM143 404.32v-29.87c2.7 2.03 5.48 4.03 8.34 5.98v29.87c-2.86-1.96-5.64-3.95-8.34-5.98Zm15.21 10.51V379.6c2.98 1.89 6.04 3.74 9.18 5.55v35.23c-3.14-1.81-6.2-3.66-9.18-5.55Zm-40.82-33.64v-39.08c2.07 2.28 4.23 4.52 6.49 6.74v39.08c-2.25-2.21-4.42-4.46-6.49-6.74Zm11.97 11.9v-42.34a195.5 195.5 0 0 0 7.44 6.38v42.34c-2.57-2.09-5.05-4.22-7.44-6.38Zm-30.5-37.46v-45.91c1.38 2.49 2.86 4.95 4.43 7.38v45.91a117.12 117.12 0 0 1-4.43-7.38Zm8.33 13.05v-59.72c1.73 2.39 3.56 4.75 5.49 7.08v59.72c-1.93-2.33-3.76-4.69-5.49-7.08Zm-14.71-26.6v-67.45c1 2.57 2.11 5.12 3.33 7.65v67.45c-1.21-2.53-2.32-5.08-3.33-7.65Zm112.87 14.97C141.18 331.2 96.84 290.36 87.56 243.57v95.92c9.29 46.79 53.62 87.63 117.79 113.48v-95.92ZM393.52 463.6v-21.64c11.04-.6 21.9-1.57 32.54-2.89v21.64a472.81 472.81 0 0 1-32.54 2.89Zm-51.89.1v-39.43c6.62.33 13.3.54 20.04.61 4.61.05 9.19.03 13.75-.05v39.43c-4.56.08-9.14.1-13.75.05-6.74-.07-13.43-.27-20.04-.61Zm-50.02-5.17v-60.29c10.46 1.66 21.17 2.98 32.09 3.93v60.29c-10.92-.96-21.63-2.28-32.09-3.93Zm151.54-.26V394.6c10.38-1.69 20.53-3.71 30.39-6.04v63.67c-9.86 2.33-20 4.35-30.39 6.04Zm55.98-91.09c-40.88 12.58-87.78 19.51-137.46 19.02-34.63-.35-67.68-4.27-98.11-11.16v95.92c30.43 6.88 63.48 10.81 98.11 11.16 49.68.5 96.58-6.44 137.46-19.02v-95.92ZM568.03 394.61v-18.57c44.76-26.43 73.9-61.67 78.67-100.88v18.57c-4.76 39.2-33.9 74.44-78.67 100.88Zm79.31-70.73v-95.92c-1.43 46.92-37.69 88.8-94.4 117.67v95.92c56.71-28.88 92.97-70.76 94.4-117.67Z"/><path class="cls-2" d="M646.7 275.16c-4.76 39.2-33.9 74.44-78.67 100.88v18.57c44.76-26.43 73.9-61.67 78.67-100.88v-18.57Z"/><path class="cls-8" d="M323.7 402.17c-10.92-.96-21.63-2.28-32.09-3.93v60.29c10.46 1.66 21.17 2.98 32.09 3.93v-60.29ZM426.05 439.08a472.81 472.81 0 0 1-32.54 2.89v21.64c11.04-.6 21.9-1.57 32.54-2.89v-21.64ZM473.54 388.56c-9.86 2.33-20 4.35-30.39 6.04v63.67c10.38-1.69 20.53-3.71 30.39-6.04v-63.67Z"/><path class="cls-2" d="M375.42 424.82c-4.56.08-9.14.1-13.75.05-6.74-.07-13.43-.27-20.04-.61v39.43c6.62.33 13.3.54 20.04.61 4.61.05 9.19.03 13.75-.05v-39.43Z"/><path class="cls-8" d="M95.81 282.28c-1.21-2.53-2.32-5.08-3.33-7.65v67.45c1 2.57 2.11 5.12 3.33 7.65v-67.45ZM103.3 317.1a117.12 117.12 0 0 1-4.43-7.38v45.91c1.38 2.49 2.86 4.95 4.43 7.38V317.1Z"/><path class="cls-2" d="M112.68 316.04c-1.93-2.33-3.76-4.69-5.49-7.08v59.72c1.73 2.39 3.56 4.75 5.49 7.08v-59.72Z"/><path class="cls-8" d="M123.88 348.84c-2.25-2.21-4.42-4.46-6.49-6.74v39.08c2.07 2.28 4.23 4.52 6.49 6.74v-39.08Z"/><path class="cls-2" d="M136.8 357.12c-2.57-2.09-5.05-4.22-7.44-6.38v42.34a195.5 195.5 0 0 0 7.44 6.38v-42.34ZM151.34 380.43c-2.86-1.96-5.64-3.95-8.34-5.98v29.87c2.7 2.03 5.48 4.03 8.34 5.98v-29.87ZM167.39 385.16c-3.14-1.81-6.2-3.66-9.18-5.55v35.23c2.98 1.89 6.04 3.74 9.18 5.55v-35.23ZM184.87 413.45c-3.39-1.65-6.71-3.35-9.96-5.09v16.21c3.25 1.74 6.57 3.44 9.96 5.09v-16.21Z"/></g></g></g></svg>